<svg xmlns="http://www.w3.org/2000/svg" viewBox="0 0 46.92 46.89"><defs><style>.cls-1,.cls-2{fill:none;stroke:#000;stroke-width:2px;}.cls-1{stroke-miterlimit:10;}.cls-2{stroke-linejoin:round;}</style></defs><g id="Layer_2" data-name="Layer 2"><g id="icons"><path class="cls-1" d="M24.73,34.76a25.33,25.33,0,0,1,21.8-3.62"/><path class="cls-1" d="M29.76,37.66a21.68,21.68,0,0,1,16.78-1"/><path class="cls-1" d="M34.33,41.69a18.35,18.35,0,0,1,12.2.72"/><path class="cls-1" d="M.54,46a22.49,22.49,0,0,1,24.57,0"/><path class="cls-1" d="M.54,35c12.73-6.16,27.57-2.49,37.79,11"/><path class="cls-1" d="M.54,40.34C11,34.55,22.65,36.46,31.94,46"/><line class="cls-2" x1="10.54" y1="21" x2="10.54" y2="26"/><polyline class="cls-2" points="17.54 5 15.54 3 13.54 5"/><line class="cls-2" x1="20.54" y1="26" x2="20.54" y2="21"/><polygon class="cls-2" points="19.52 12.02 16.55 9.04 24.54 1 27.54 4 19.52 12.02"/><polygon class="cls-2" points="6.52 25.02 3.55 22.04 11.54 14 14.54 17 6.52 25.02"/><polygon class="cls-2" points="11.56 12.02 14.54 9.04 6.55 1 3.55 4 11.56 12.02"/><polygon class="cls-2" points="24.56 25.02 27.54 22.04 19.55 14 16.55 17 24.56 25.02"/><line class="cls-2" x1="18.54" y1="10" x2="12.54" y2="16"/><line class="cls-2" x1="18.54" y1="16" x2="12.54" y2="10"/><polyline class="cls-2" points="13.54 26 13.54 23 17.54 23 17.54 26"/><line class="cls-1" x1="10.54" y1="32" x2="10.54" y2="28"/><line class="cls-1" x1="20.54" y1="28" x2="20.54" y2="33"/><line class="cls-1" x1="7.54" y1="28" x2="23.54" y2="28"/></g></g></svg>