<svg xmlns="http://www.w3.org/2000/svg" viewBox="0 0 41 46"><defs><style>.cls-1{fill:none;stroke:#000;stroke-miterlimit:10;stroke-width:2px;}</style></defs><g id="Layer_2" data-name="Layer 2"><g id="icons"><line class="cls-1" x1="15" y1="21" x2="15" y2="36"/><line class="cls-1" x1="20" y1="21" x2="20" y2="36"/><line class="cls-1" x1="25" y1="21" x2="25" y2="36"/><path class="cls-1" d="M25.64,4.24A4.69,4.69,0,0,0,24.06,7"/><path class="cls-1" d="M6,8A4.94,4.94,0,0,1,9,9"/><path class="cls-1" d="M7,32v7L5.64,41.71A2,2,0,0,0,6,44l1,1H31l1-1a2,2,0,0,0,.37-2.31L31,39V37h2a2.15,2.15,0,0,0,1.53-.64L38,33a7,7,0,0,0,2-5V21a3,3,0,0,0-3-3H31V14c2-.92,3.46-5.13,2-8-.82-1.62-3.63-3.5-7.32-1.75a6,6,0,0,0-8.74-.66A6,6,0,0,0,12,1c-1.68,0-6.57.94-6,7a6,6,0,0,0-5,6,5.61,5.61,0,0,0,3,5.2V29a3,3,0,0,0,3,3H7a3,3,0,0,0,3-3V19a5,5,0,0,1,5-5H31"/><line class="cls-1" x1="29" y1="41" x2="9" y2="41"/><path class="cls-1" d="M31,22V33h1l3.41-3.41A2,2,0,0,0,36,28.17V23a1,1,0,0,0-1-1Z"/></g></g></svg>