<svg xmlns="http://www.w3.org/2000/svg" viewBox="0 0 48 48"><defs><style>.cls-1,.cls-2{fill:none;stroke:#000;stroke-width:2px;}.cls-1{stroke-miterlimit:10;}.cls-2{stroke-linejoin:round;}</style></defs><g id="Layer_2" data-name="Layer 2"><g id="icons"><path class="cls-1" d="M47,27l-2,2,2,2V41a33.93,33.93,0,0,0-9.48,1.8c-1.27.49-2.42,1-3.53,1.53C31,45.72,28.48,47,24.26,47s-6.78-1.28-9.74-2.64c-1.11-.52-2.25-1-3.53-1.53A37.24,37.24,0,0,0,1,41V33l3-2L1,29V22l2-2L1,18V9H47Z"/><line class="cls-1" x1="48" y1="3" y2="3"/><line class="cls-1" x1="8" x2="8" y2="12"/><line class="cls-1" x1="40" x2="40" y2="12"/><path class="cls-1" d="M15,23V37a1,1,0,0,0,1,1H29a1,1,0,0,0,1-1V23"/><line class="cls-1" x1="20" y1="23" x2="20" y2="34"/><line class="cls-1" x1="25" y1="23" x2="25" y2="34"/><path class="cls-1" d="M35.41,31.59,33,34H30V25h4a2,2,0,0,1,2,2v3.17A2,2,0,0,1,35.41,31.59Z"/><path class="cls-2" d="M31,21V19.72a3.71,3.71,0,0,0-2.11-3.37,4,4,0,0,0-4.25.64A3.65,3.65,0,0,0,21,14c-2.62,0-4,1.4-4,3a3,3,0,0,0-3,3v1"/></g></g></svg>