<svg xmlns="http://www.w3.org/2000/svg" viewBox="0 0 48 46"><defs><style>.cls-1{fill:none;stroke:#000;stroke-miterlimit:10;stroke-width:2px;}</style></defs><g id="Layer_2" data-name="Layer 2"><g id="icons"><polyline class="cls-1" points="1 34 1 25 47 25 47 34"/><polyline class="cls-1" points="47 36 47 45 1 45 1 36"/><line class="cls-1" x1="3" y1="35" x2="45" y2="35"/><line class="cls-1" x1="4" y1="30" x2="6" y2="30"/><line class="cls-1" x1="42" y1="30" x2="44" y2="30"/><line class="cls-1" x1="4" y1="40" x2="6" y2="40"/><line class="cls-1" x1="42" y1="40" x2="44" y2="40"/><path class="cls-1" d="M19,25V23c0-3.59-4-5.13-4-7,0-3.42-1-9.76-1-10,0-.62,1-.83,1-2,0-.47-1-.79-1-1V2c0-.64-1-1-3-1S8,1.36,8,2V3c-.44.21-1,.53-1,1C7,5.17,8,5.38,8,6c0,.24-1,6.58-1,10,0,1.87-4,3.41-4,7v2"/><path class="cls-1" d="M32,25V23c0-3.59-4-5.13-4-7,0-3.42-1-9.76-1-10,0-.62,1-.83,1-2,0-.47-1-.79-1-1V2c0-.64-1-1-3-1s-3,.36-3,1V3c-.44.21-1,.53-1,1,0,1.17,1,1.38,1,2,0,.24-1,6.58-1,10a4,4,0,0,1-1,2.06"/><path class="cls-1" d="M45,25V23c0-3.59-4-5.13-4-7,0-3.42-1-9.76-1-10,0-.62,1-.83,1-2,0-.47-1-.79-1-1V2c0-.64-1-1-3-1s-3,.36-3,1V3c-.44.21-1,.53-1,1,0,1.17,1,1.38,1,2,0,.24-1,6.58-1,10a4,4,0,0,1-1,2.06"/></g></g></svg>