<svg xmlns="http://www.w3.org/2000/svg" viewBox="0 0 397.01 328.24"><defs><style>.cls-1{fill:#fff;}</style></defs><g id="Layer_2" data-name="Layer 2"><g id="Layer_1-2" data-name="Layer 1"><path class="cls-1" d="M24.36,143,260.83,45.52C284.17,35.37,363.34,2.9,363.34,2.9s36.53-14.21,33.49,20.29c-1,14.21-9.13,63.94-17.25,117.73L354.2,300.25s-2,23.34-19.31,27.4-45.67-14.21-50.74-18.27c-4.06-3-76.12-48.71-102.51-71-7.1-6.08-15.22-18.27,1-32.47,36.54-33.49,80.18-75.1,106.56-101.49,12.18-12.18,24.36-40.6-26.38-6.09l-143.1,96.42s-16.24,10.14-46.69,1-66-21.31-66-21.31S-17.27,159.19,24.34,143Z"/></g></g></svg>