<svg xmlns="http://www.w3.org/2000/svg" viewBox="0 0 1019.57 535.25"><defs><style>.cls-1{isolation:isolate;}.cls-2{opacity:0.1;}.cls-3{opacity:0.4;mix-blend-mode:overlay;}.cls-4{fill:#231f20;}</style></defs><g class="cls-1"><g id="Layer_2" data-name="Layer 2"><g id="_1" data-name="1"><g class="cls-2"><g class="cls-3"><polygon class="cls-4" points="694.98 259.11 624.76 253.6 624.76 282.99 694.98 288.5 694.98 259.11"/><polygon class="cls-4" points="697.46 380.95 644.35 375.45 644.35 404.84 697.46 410.34 697.46 380.95"/><polygon class="cls-4" points="892.53 313.91 828.23 312.08 828.23 341.46 892.53 343.3 892.53 313.91"/><polygon class="cls-4" points="932.29 217.91 867.99 215.53 867.99 253.78 932.29 256.16 932.29 217.91"/><polygon class="cls-4" points="205.33 127.58 144.1 125.22 144.1 163.16 205.33 165.52 205.33 127.58"/><polygon class="cls-4" points="417.03 30.92 360.27 28.59 362.05 56.94 418.8 59.27 417.03 30.92"/><polygon class="cls-4" points="635.53 6.12 578.78 3.79 580.55 32.14 637.31 34.47 635.53 6.12"/><polygon class="cls-4" points="1019.57 87.5 881.66 89.71 881.66 127.95 1019.57 125.74 1019.57 87.5"/><polygon class="cls-4" points="627.05 505.86 556.84 500.35 556.84 529.74 627.05 535.25 627.05 505.86"/><polygon class="cls-4" points="290.12 469.43 223.85 472.8 223.85 502.19 293.42 501.32 290.12 469.43"/><polygon class="cls-4" points="289.48 340.09 243.33 343.46 243.33 372.85 291.78 371.98 289.48 340.09"/><polygon class="cls-4" points="734.24 185.51 639.78 180.29 642.83 221.15 727.1 230.8 734.24 185.51"/><polygon class="cls-4" points="413.85 396.46 331.28 403.4 339.88 438.41 414.27 436.54 413.85 396.46"/><line class="cls-4" x1="0.42" y1="223.47" y2="183.38"/><polygon class="cls-4" points="170.02 0 117.96 2.67 125.57 37.82 172.75 39.76 170.02 0"/><polygon class="cls-4" points="478.15 179.82 394.49 181.05 390.19 214.41 472.35 213.5 478.15 179.82"/><polygon class="cls-4" points="318.28 125.94 266.1 124.72 269.26 156.86 321.6 153.5 318.28 125.94"/><polygon class="cls-4" points="290.54 216.87 228 218.7 223.7 252.07 293.04 251.3 290.54 216.87"/><polygon class="cls-4" points="647.95 127.78 578.49 122.12 575.5 154.56 644.64 155.94 647.95 127.78"/><polygon class="cls-4" points="841.28 11.14 771.82 5.49 768.83 37.92 837.97 39.3 841.28 11.14"/><line class="cls-4" x1="4.23" y1="96.25" x2="7.54" y2="68.08"/></g></g></g></g></g></svg>