<svg xmlns="http://www.w3.org/2000/svg" viewBox="0 0 4000 279.3"><defs><style>.cls-1{fill:#fff;}</style></defs><g id="Layer_2" data-name="Layer 2"><g id="Layer_1-2" data-name="Layer 1"><path class="cls-1" d="M3849,.4c24.6,1.1,36.8,3.9,75.3,17.2,24.4,8.4,47.7,12.7,69.4,12.7h6.3v249H0V30.3H6.2c9.7,0,27.2-1.8,39-4,10.5-2,19.9-4.9,48.8-14.8C119.7,2.7,135.7.2,167,.2c32.7,0,51,3.3,82,14.6,17.9,6.5,37.4,11.7,51,13.6,14.3,2.1,55.6,1.8,69.5-.4,15.3-2.5,19.7-3.7,48-13.2C454,2.4,466.6.2,500,.2s46,2.2,82.5,14.6c28.3,9.5,32.7,10.7,48,13.2,13.9,2.2,55.2,2.5,69.5.4,13.6-1.9,33.1-7.1,51-13.6C782,3.5,800.3.2,833,.2c31.3,0,47.3,2.5,73,11.3,45.9,15.8,60.9,18.8,94,18.8s48.1-3,94-18.8c25.7-8.8,41.7-11.3,73-11.3,32.7,0,51,3.3,82,14.6,17.9,6.5,37.4,11.7,51,13.6,14.3,2.1,55.6,1.8,69.5-.4,15.3-2.5,19.7-3.7,48-13.2C1454,2.4,1466.6.2,1500,.2s46,2.2,82.5,14.6c28.3,9.5,32.7,10.7,48,13.2,13.9,2.2,55.2,2.5,69.5.4,13.6-1.9,33.1-7.1,51-13.6C1782,3.5,1800.3.2,1833,.2c31.3,0,47.3,2.5,73,11.3,45.9,15.8,60.9,18.8,94,18.8s48.1-3,94-18.8c25.7-8.8,41.7-11.3,73-11.3,32.7,0,51,3.3,82,14.6,17.9,6.5,37.4,11.7,51,13.6,14.3,2.1,55.6,1.8,69.5-.4,15.3-2.5,19.7-3.7,48-13.2C2454,2.4,2466.6.2,2500,.2s46,2.2,82.5,14.6c28.3,9.5,32.7,10.7,48,13.2,13.9,2.2,55.2,2.5,69.5.4,13.6-1.9,33.1-7.1,51-13.6C2782,3.5,2800.3.2,2833,.2c31.3,0,47.3,2.5,73,11.3,45.9,15.8,60.9,18.8,94,18.8s48.1-3,94-18.8c25.7-8.8,41.7-11.3,73-11.3,32.7,0,51,3.3,82,14.6,17.9,6.5,37.4,11.7,51,13.6,14.3,2.1,55.6,1.8,69.5-.4,15.3-2.5,19.7-3.7,48-13.2C3454,2.4,3466.6.2,3500,.2s46,2.2,82.5,14.6c28.3,9.5,32.7,10.7,48,13.2,13.9,2.2,55.2,2.5,69.5.4,13.6-1.9,33.1-7.1,51-13.6,34.5-12.6,58.5-16.1,98-14.4Z"/></g></g></svg>