<svg xmlns="http://www.w3.org/2000/svg" viewBox="0 0 230.07 230.06"><defs><style>.cls-1{fill:#ffd707;}.cls-2{fill:#392396;}.cls-3{fill:#fff;}</style></defs><g id="Layer_2" data-name="Layer 2"><g id="Слой_1" data-name="Слой 1"><circle class="cls-1" cx="115.03" cy="115.03" r="108.8" transform="translate(-2.58 227.42) rotate(-88.7)"/><path class="cls-2" d="M115,230.06a115,115,0,1,1,115-115A115.16,115.16,0,0,1,115,230.06Zm0-217.59A102.56,102.56,0,1,0,217.6,115,102.68,102.68,0,0,0,115,12.47Z"/><path class="cls-2" d="M166.07,171.29H153.62a6.24,6.24,0,0,1,0-12.47h12.45a5.19,5.19,0,0,0,5.19-5.19V125.7a5.19,5.19,0,0,0-5.19-5.19H153.62a6.24,6.24,0,0,1,0-12.47h12.45a17.68,17.68,0,0,1,17.66,17.66v27.93A17.68,17.68,0,0,1,166.07,171.29Z"/><path class="cls-2" d="M139.34,85.29H119c0,.44.06.87.06,1.32V181H102.84V102.29H90.37V181H74.14V105.08H61.67v82.18a6.23,6.23,0,0,0,6.23,6.24h85.72a6.24,6.24,0,0,0,6.24-6.24V105.82A20.55,20.55,0,0,0,139.34,85.29Zm8,95.74H131.48V97.76h7.86a8.07,8.07,0,0,1,8,8.06Z"/><path class="cls-3" d="M141,49.72a25.16,25.16,0,0,0-5.6.64A25.44,25.44,0,0,0,87.6,53.75,27.13,27.13,0,1,0,106,85.35a25.39,25.39,0,0,0,12.25,0A25,25,0,1,0,141,49.72Z"/><path class="cls-2" d="M79.47,113a33.37,33.37,0,0,1,0-66.74,35.27,35.27,0,0,1,4.25.27,31.68,31.68,0,0,1,55-3c.73,0,1.46-.08,2.19-.08a31.27,31.27,0,1,1-26,48.7,32.65,32.65,0,0,1-4.64.09A33.57,33.57,0,0,1,79.47,113Zm0-54.27A20.9,20.9,0,1,0,99.9,84.05a6.24,6.24,0,0,1,7.59-4.75,19.34,19.34,0,0,0,9.26,0,6.23,6.23,0,0,1,7.15,3.42,18.81,18.81,0,1,0,12.84-26.26,6.23,6.23,0,0,1-7.09-3.56A19.2,19.2,0,0,0,93.6,55.44a6.25,6.25,0,0,1-7.87,4.26A20.67,20.67,0,0,0,79.47,58.74Z"/></g></g></svg>