<svg width="200" height="441" viewBox="0 0 200 441" fill="none" xmlns="http://www.w3.org/2000/svg">
<path fill-rule="evenodd" clip-rule="evenodd" d="M100.831 2.32104C91.2712 3.47661 81.8165 5.4726 72.677 8.36153C68.3699 9.72721 64.1153 11.2505 59.9132 12.9838C55.7111 14.7172 48.2524 18.6566 52.402 24.2244C54.7131 27.3234 58.6 29.6346 61.594 31.9457C64.7456 34.4144 67.9497 36.8832 70.8911 39.6145C74.8831 43.3964 82.5519 50.9076 79.663 57.1057C78.2448 60.0997 74.778 61.0451 71.7315 61.4653C66.4264 62.2007 61.0162 62.4633 55.6586 62.9361C54.6606 63.0411 54.6606 61.4653 55.6586 61.3603C60.596 60.8875 65.586 60.5199 70.5234 59.9946C72.5719 59.7845 74.8306 59.4693 76.5639 58.2612C79.2428 56.3703 78.8225 53.0612 77.5094 50.4349C73.8851 43.1863 66.7416 37.9337 60.5435 33.1013C56.1313 29.6871 47.2019 24.9598 50.3534 18.1839C51.8767 14.8748 55.1859 13.2464 58.3899 11.9333C62.3294 10.2525 66.3214 8.78174 70.3659 7.46859C80.2408 4.21198 90.4833 2.00588 100.778 0.745259C101.829 0.640207 101.829 2.21599 100.831 2.32104Z" fill="#141414"/>
<path fill-rule="evenodd" clip-rule="evenodd" d="M48.9878 55.7924C51.5091 59.6794 53.9253 63.6188 56.2889 67.6108C57.4445 69.6068 58.6001 71.6028 59.7031 73.6513C60.5435 75.2271 62.0143 77.0129 62.3819 78.7463C62.592 79.5867 62.487 80.112 61.9617 80.7948C60.8062 82.4231 58.4425 83.7888 56.9192 85.0494C53.3475 88.0434 49.7757 91.0374 46.1514 94.0314C45.3635 94.6617 44.2605 93.5586 45.0484 92.9283C48.0949 90.3545 51.1939 87.7808 54.2404 85.207C55.6586 84.0514 57.0768 82.8433 58.4425 81.6878C59.2304 81.0049 60.2809 80.5322 60.491 79.4817C60.7011 78.4311 59.9658 77.5907 59.4405 76.6978C55.7112 69.8694 51.7192 63.1986 47.5171 56.6328C47.0969 55.7399 48.4625 54.952 48.9878 55.7924Z" fill="#141414"/>
<path fill-rule="evenodd" clip-rule="evenodd" d="M47.622 55.2153C46.8866 67.6114 46.4664 80.0601 46.4139 92.4562C46.4139 93.4542 44.8381 93.4542 44.8381 92.4562C44.8906 80.0076 45.2583 67.6114 46.0462 55.2153C46.0987 54.2173 47.6745 54.2173 47.622 55.2153Z" fill="#141414"/>
<path fill-rule="evenodd" clip-rule="evenodd" d="M47.6744 55.8982C40.7935 65.1953 34.858 75.1227 30.0256 85.6279C29.6054 86.5734 28.2397 85.7329 28.66 84.84C33.4923 74.3348 39.4278 64.3549 46.3087 55.1103C46.8865 54.2699 48.2521 55.0577 47.6744 55.8982Z" fill="#141414"/>
<path fill-rule="evenodd" clip-rule="evenodd" d="M44.9431 93.874C42.737 93.2962 25.5084 89.3043 28.66 85.6274C29.2903 84.8396 30.4459 85.9951 29.7631 86.7305C29.6055 86.9406 37.0642 89.8295 37.7995 90.0922C40.3208 90.9326 42.842 91.6679 45.4158 92.3508C46.3088 92.6134 45.8885 94.1367 44.9431 93.874Z" fill="#141414"/>
<path fill-rule="evenodd" clip-rule="evenodd" d="M33.4926 97.5506C18.2075 111.365 8.91039 130.274 4.55073 150.182C0.296123 169.774 0.29611 190.994 5.65376 210.377C8.33259 220.041 12.4821 229.391 18.5752 237.427C25.5611 246.567 34.9633 252.923 45.1533 257.965C66.3738 268.523 89.3277 274.984 112.229 280.656C125.045 283.808 137.914 286.749 150.731 289.953C159.87 292.265 175.26 295.259 174.42 307.76C174.367 308.758 172.792 308.758 172.844 307.76C173.317 300.984 167.486 296.624 161.709 294.576C156.351 292.685 150.678 291.529 145.163 290.164C133.45 287.275 121.631 284.596 109.918 281.654C87.0691 275.982 64.1677 269.363 43.1048 258.648C33.44 253.711 24.5631 247.565 17.8398 238.951C12.0094 231.492 7.85987 222.878 5.07599 213.843C-0.806923 194.881 -1.27968 173.976 2.13451 154.489C6.02144 132.585 15.6862 111.417 32.3895 96.3425C33.1249 95.7647 34.2279 96.8678 33.4926 97.5506Z" fill="#141414"/>
<path fill-rule="evenodd" clip-rule="evenodd" d="M200 314.167C200 326.616 200 339.065 200 351.513C200 352.511 198.424 352.511 198.424 351.513C198.424 339.065 198.424 326.616 198.424 314.167C198.424 313.169 200 313.169 200 314.167Z" fill="#141414"/>
<path fill-rule="evenodd" clip-rule="evenodd" d="M199.212 315.008C181.458 314.693 163.704 314.378 145.951 314.01C144.953 314.01 144.953 312.435 145.951 312.435C163.704 312.75 181.458 313.065 199.212 313.433C200.21 313.433 200.21 315.008 199.212 315.008Z" fill="#141414"/>
<path fill-rule="evenodd" clip-rule="evenodd" d="M146.739 313.485C146.739 324.095 146.739 334.758 146.739 345.368C146.739 346.366 145.163 346.366 145.163 345.368C145.163 334.758 145.163 324.095 145.163 313.485C145.163 312.487 146.739 312.487 146.739 313.485Z" fill="#141414"/>
<path fill-rule="evenodd" clip-rule="evenodd" d="M198.897 351.987C183.717 351.987 168.589 351.987 153.409 351.987C152.411 351.987 152.411 350.411 153.409 350.411C168.589 350.411 183.717 350.411 198.897 350.411C199.895 350.411 199.895 351.987 198.897 351.987Z" fill="#141414"/>
<path fill-rule="evenodd" clip-rule="evenodd" d="M153.672 351.776C150.993 355.19 147.316 357.554 143.114 358.499C142.116 358.709 141.696 357.186 142.694 356.976C146.686 356.083 150.048 353.877 152.569 350.673C153.199 349.833 154.302 350.988 153.672 351.776Z" fill="#141414"/>
<path fill-rule="evenodd" clip-rule="evenodd" d="M147.054 345.946C146.371 349.99 145.005 353.825 143.009 357.397C142.484 358.29 141.171 357.502 141.644 356.609C143.64 353.142 144.9 349.465 145.531 345.526C145.688 344.528 147.211 344.948 147.054 345.946Z" fill="#141414"/>
<path fill-rule="evenodd" clip-rule="evenodd" d="M148.524 362.177C146.371 368.743 139.28 371.421 133.082 372.787C124.257 374.731 115.17 374.31 106.241 373.89C105.243 373.838 105.243 372.262 106.241 372.314C114.067 372.682 122.051 373.102 129.825 371.842C136.128 370.791 144.743 368.637 147.001 361.757C147.316 360.811 148.84 361.231 148.524 362.177Z" fill="#141414"/>
<path fill-rule="evenodd" clip-rule="evenodd" d="M62.7496 366.116C59.1253 364.435 54.8181 365.485 51.9292 368.164C48.62 371.263 47.8847 376.253 48.8302 380.508C50.6686 388.649 58.1273 393.797 65.1658 397.316C80.3458 404.88 96.1561 411.446 110.076 421.321C116.169 425.628 121.474 432.036 120.108 439.967C119.95 440.965 118.427 440.545 118.585 439.547C120.318 429.094 109.813 422.791 102.197 418.222C94.0025 413.284 85.5459 408.714 76.9316 404.565C69.2103 400.835 60.6485 397.894 54.1878 392.011C48.8827 387.179 45.3634 379.93 47.4645 372.681C49.4079 365.906 56.9192 361.704 63.5375 364.697C64.4829 365.17 63.695 366.536 62.7496 366.116Z" fill="#141414"/>
<path fill-rule="evenodd" clip-rule="evenodd" d="M191.438 325.146C180.145 325.146 168.8 325.146 157.506 325.146C156.508 325.146 156.508 323.57 157.506 323.57C168.8 323.57 180.145 323.57 191.438 323.57C192.436 323.57 192.436 325.146 191.438 325.146Z" fill="#141414"/>
<path fill-rule="evenodd" clip-rule="evenodd" d="M191.07 330.241C180.46 330.241 169.797 330.241 159.187 330.241C158.189 330.241 158.189 328.665 159.187 328.665C169.797 328.665 180.46 328.665 191.07 328.665C192.068 328.665 192.068 330.241 191.07 330.241Z" fill="#141414"/>
<path fill-rule="evenodd" clip-rule="evenodd" d="M190.755 334.653C180.46 334.653 170.165 334.653 159.87 334.653C158.872 334.653 158.872 333.077 159.87 333.077C170.165 333.077 180.46 333.077 190.755 333.077C191.753 333.077 191.753 334.653 190.755 334.653Z" fill="#141414"/>
<path fill-rule="evenodd" clip-rule="evenodd" d="M24.1956 223.876C22.3572 219.884 20.5188 215.84 18.6804 211.848C17.8399 210.009 16.9995 208.118 16.1591 206.28C15.844 205.545 15.4763 204.074 14.8985 203.496C14.6358 202.603 13.953 202.393 12.7974 202.866C12.6924 203.181 12.6399 203.496 12.6399 203.864C12.2722 205.545 13.4803 207.908 14.0056 209.431C14.6359 211.217 15.3187 213.003 16.0541 214.789C16.8945 216.785 17.7349 218.781 18.6804 220.725C19.048 221.512 19.4157 222.353 19.8359 223.141C20.1511 223.771 20.5188 224.296 20.9915 224.822C22.6198 225.925 23.6178 225.767 23.9855 224.244C23.9855 223.246 25.5613 223.246 25.5613 224.244C25.5613 225.82 24.3532 226.975 22.7774 227.133C20.7289 227.29 19.3632 225.557 18.4703 223.929C16.7369 220.882 15.4763 217.573 14.1631 214.369C13.0076 211.48 11.3792 208.171 11.0641 205.072C10.7489 202.183 13.3752 198.401 15.7914 201.973C17.7874 204.967 18.9955 208.801 20.4663 212.058C22.1471 215.787 23.8805 219.464 25.5613 223.193C25.9815 223.981 24.6158 224.822 24.1956 223.876Z" fill="#141414"/>
</svg>
