<svg width="200" height="441" viewBox="0 0 200 441" fill="none" xmlns="http://www.w3.org/2000/svg">
<path fill-rule="evenodd" clip-rule="evenodd" d="M99.169 2.32104C108.729 3.47661 118.183 5.4726 127.323 8.36153C131.63 9.72721 135.885 11.2505 140.087 12.9838C144.289 14.7172 151.748 18.6566 147.598 24.2244C145.287 27.3234 141.4 29.6346 138.406 31.9457C135.254 34.4144 132.05 36.8832 129.109 39.6145C125.117 43.3964 117.448 50.9076 120.337 57.1057C121.755 60.0997 125.222 61.0451 128.268 61.4653C133.574 62.2007 138.984 62.4633 144.341 62.9361C145.339 63.0411 145.339 61.4653 144.341 61.3603C139.404 60.8875 134.414 60.5199 129.477 59.9946C127.428 59.7845 125.169 59.4693 123.436 58.2612C120.757 56.3703 121.177 53.0612 122.491 50.4349C126.115 43.1863 133.258 37.9337 139.457 33.1013C143.869 29.6871 152.798 24.9598 149.647 18.1839C148.123 14.8748 144.814 13.2464 141.61 11.9333C137.671 10.2525 133.679 8.78174 129.634 7.46859C119.759 4.21198 109.517 2.00588 99.2216 0.745259C98.1711 0.640207 98.1711 2.21599 99.169 2.32104Z" fill="white"/>
<path fill-rule="evenodd" clip-rule="evenodd" d="M151.012 55.7924C148.491 59.6794 146.075 63.6188 143.711 67.6108C142.555 69.6068 141.4 71.6028 140.297 73.6513C139.456 75.2271 137.986 77.0129 137.618 78.7463C137.408 79.5867 137.513 80.112 138.038 80.7948C139.194 82.4231 141.558 83.7888 143.081 85.0494C146.653 88.0434 150.224 91.0374 153.849 94.0314C154.637 94.6617 155.74 93.5586 154.952 92.9283C151.905 90.3545 148.806 87.7808 145.76 85.207C144.341 84.0514 142.923 82.8433 141.558 81.6878C140.77 81.0049 139.719 80.5322 139.509 79.4817C139.299 78.4311 140.034 77.5907 140.56 76.6978C144.289 69.8694 148.281 63.1986 152.483 56.6328C152.903 55.7399 151.537 54.952 151.012 55.7924Z" fill="white"/>
<path fill-rule="evenodd" clip-rule="evenodd" d="M152.378 55.2153C153.113 67.6114 153.534 80.0601 153.586 92.4562C153.586 93.4542 155.162 93.4542 155.162 92.4562C155.109 80.0076 154.742 67.6114 153.954 55.2153C153.901 54.2173 152.325 54.2173 152.378 55.2153Z" fill="white"/>
<path fill-rule="evenodd" clip-rule="evenodd" d="M152.326 55.8982C159.207 65.1953 165.142 75.1227 169.974 85.6279C170.395 86.5734 171.76 85.7329 171.34 84.84C166.508 74.3348 160.572 64.3549 153.691 55.1103C153.114 54.2699 151.748 55.0577 152.326 55.8982Z" fill="white"/>
<path fill-rule="evenodd" clip-rule="evenodd" d="M155.057 93.874C157.263 93.2962 174.492 89.3043 171.34 85.6274C170.71 84.8396 169.554 85.9951 170.237 86.7305C170.395 86.9406 162.936 89.8295 162.2 90.0922C159.679 90.9326 157.158 91.6679 154.584 92.3508C153.691 92.6134 154.111 94.1367 155.057 93.874Z" fill="white"/>
<path fill-rule="evenodd" clip-rule="evenodd" d="M166.507 97.5506C181.793 111.365 191.09 130.274 195.449 150.182C199.704 169.774 199.704 190.994 194.346 210.377C191.667 220.041 187.518 229.391 181.425 237.427C174.439 246.567 165.037 252.923 154.847 257.965C133.626 268.523 110.672 274.984 87.7709 280.656C74.9546 283.808 62.0857 286.749 49.2694 289.953C40.1299 292.265 24.7397 295.259 25.5802 307.76C25.6327 308.758 27.2085 308.758 27.1559 307.76C26.6832 300.984 32.5136 296.624 38.2915 294.576C43.6491 292.685 49.3219 291.529 54.8372 290.164C66.5505 287.275 78.3688 284.596 90.0821 281.654C112.931 275.982 135.832 269.363 156.895 258.648C166.56 253.711 175.437 247.565 182.16 238.951C187.991 231.492 192.14 222.878 194.924 213.843C200.807 194.881 201.28 173.976 197.865 154.489C193.979 132.585 184.314 111.417 167.61 96.3425C166.875 95.7647 165.772 96.8678 166.507 97.5506Z" fill="white"/>
<path fill-rule="evenodd" clip-rule="evenodd" d="M0 314.167C0 326.616 0 339.065 0 351.513C0 352.511 1.57578 352.511 1.57578 351.513C1.57578 339.065 1.57578 326.616 1.57578 314.167C1.57578 313.169 0 313.169 0 314.167Z" fill="white"/>
<path fill-rule="evenodd" clip-rule="evenodd" d="M0.788047 315.008C18.5418 314.693 36.2957 314.378 54.0495 314.01C55.0474 314.01 55.0474 312.435 54.0495 312.435C36.2957 312.75 18.5418 313.065 0.788047 313.433C-0.209948 313.433 -0.209948 315.008 0.788047 315.008Z" fill="white"/>
<path fill-rule="evenodd" clip-rule="evenodd" d="M53.2612 313.485C53.2612 324.095 53.2612 334.758 53.2612 345.368C53.2612 346.366 54.837 346.366 54.837 345.368C54.837 334.758 54.837 324.095 54.837 313.485C54.837 312.487 53.2612 312.487 53.2612 313.485Z" fill="white"/>
<path fill-rule="evenodd" clip-rule="evenodd" d="M1.10299 351.987C16.283 351.987 31.4105 351.987 46.5905 351.987C47.5885 351.987 47.5885 350.411 46.5905 350.411C31.4105 350.411 16.283 350.411 1.10299 350.411C0.104994 350.411 0.104994 351.987 1.10299 351.987Z" fill="white"/>
<path fill-rule="evenodd" clip-rule="evenodd" d="M46.3281 351.776C49.0069 355.19 52.6837 357.554 56.8858 358.499C57.8838 358.709 58.304 357.186 57.306 356.976C53.314 356.083 49.9524 353.877 47.4311 350.673C46.8008 349.833 45.6978 350.988 46.3281 351.776Z" fill="white"/>
<path fill-rule="evenodd" clip-rule="evenodd" d="M52.9462 345.946C53.6291 349.99 54.9948 353.825 56.9907 357.397C57.516 358.29 58.8291 357.502 58.3564 356.609C56.3604 353.142 55.0998 349.465 54.4695 345.526C54.3119 344.528 52.7887 344.948 52.9462 345.946Z" fill="white"/>
<path fill-rule="evenodd" clip-rule="evenodd" d="M51.4755 362.177C53.6291 368.743 60.7201 371.421 66.9182 372.787C75.7426 374.731 84.8296 374.31 93.759 373.89C94.757 373.838 94.757 372.262 93.759 372.314C85.9326 372.682 77.9486 373.102 70.1748 371.842C63.8717 370.791 55.2574 368.637 52.9988 361.757C52.6837 360.811 51.1604 361.231 51.4755 362.177Z" fill="white"/>
<path fill-rule="evenodd" clip-rule="evenodd" d="M137.25 366.116C140.875 364.435 145.182 365.485 148.071 368.164C151.38 371.263 152.115 376.253 151.17 380.508C149.331 388.649 141.873 393.797 134.834 397.316C119.654 404.88 103.844 411.446 89.9245 421.321C83.8315 425.628 78.5263 432.036 79.892 439.967C80.0496 440.965 81.5729 440.545 81.4153 439.547C79.6819 429.094 90.1871 422.791 97.8034 418.222C105.997 413.284 114.454 408.714 123.068 404.565C130.79 400.835 139.351 397.894 145.812 392.011C151.117 387.179 154.637 379.93 152.536 372.681C150.592 365.906 143.081 361.704 136.463 364.697C135.517 365.17 136.305 366.536 137.25 366.116Z" fill="white"/>
<path fill-rule="evenodd" clip-rule="evenodd" d="M8.56173 325.146C19.8548 325.146 31.2005 325.146 42.4936 325.146C43.4916 325.146 43.4916 323.57 42.4936 323.57C31.2005 323.57 19.8548 323.57 8.56173 323.57C7.56373 323.57 7.56373 325.146 8.56173 325.146Z" fill="white"/>
<path fill-rule="evenodd" clip-rule="evenodd" d="M8.92965 330.241C19.5399 330.241 30.2027 330.241 40.8129 330.241C41.8109 330.241 41.8109 328.665 40.8129 328.665C30.2027 328.665 19.5399 328.665 8.92965 328.665C7.93165 328.665 7.93165 330.241 8.92965 330.241Z" fill="white"/>
<path fill-rule="evenodd" clip-rule="evenodd" d="M9.24459 334.653C19.5397 334.653 29.8348 334.653 40.1299 334.653C41.1279 334.653 41.1279 333.077 40.1299 333.077C29.8348 333.077 19.5397 333.077 9.24459 333.077C8.2466 333.077 8.2466 334.653 9.24459 334.653Z" fill="white"/>
<path fill-rule="evenodd" clip-rule="evenodd" d="M175.804 223.876C177.643 219.884 179.481 215.84 181.32 211.848C182.16 210.009 183 208.118 183.841 206.28C184.156 205.545 184.524 204.074 185.102 203.496C185.364 202.603 186.047 202.393 187.203 202.866C187.308 203.181 187.36 203.496 187.36 203.864C187.728 205.545 186.52 207.908 185.994 209.431C185.364 211.217 184.681 213.003 183.946 214.789C183.106 216.785 182.265 218.781 181.32 220.725C180.952 221.512 180.584 222.353 180.164 223.141C179.849 223.771 179.481 224.296 179.008 224.822C177.38 225.925 176.382 225.767 176.014 224.244C176.014 223.246 174.439 223.246 174.439 224.244C174.439 225.82 175.647 226.975 177.223 227.133C179.271 227.29 180.637 225.557 181.53 223.929C183.263 220.882 184.524 217.573 185.837 214.369C186.992 211.48 188.621 208.171 188.936 205.072C189.251 202.183 186.625 198.401 184.209 201.973C182.213 204.967 181.004 208.801 179.534 212.058C177.853 215.787 176.12 219.464 174.439 223.193C174.019 223.981 175.384 224.822 175.804 223.876Z" fill="white"/>
</svg>
