<svg width="200" height="198" viewBox="0 0 200 198" fill="none" xmlns="http://www.w3.org/2000/svg">
<path fill-rule="evenodd" clip-rule="evenodd" d="M0.0851611 65.8065C-1.09077 48.0318 10.171 31.3427 23.1967 20.2166C36.2676 9.04522 52.6402 2.30624 69.7364 0.497114C103.115 -2.98545 142.644 11.8946 158.519 43.102C162.002 49.9767 165.123 58.57 163.811 66.3492C162.545 73.6762 156.665 78.5156 150.514 81.9529C143.503 85.8878 136.086 88.8276 129.528 93.5765C122.472 98.6873 116.321 105.064 111.392 112.211C101.125 127.091 95.019 147.036 100.13 164.901C102.572 173.449 107.909 181.048 115.507 185.797C122.834 190.365 132.558 191.993 140.428 187.832C144.589 185.661 147.664 181.907 148.524 177.249C149.338 172.771 147.891 167.886 143.865 165.444C140.518 163.454 135.769 163.137 132.649 165.761C128.895 168.972 128.533 174.761 129.709 179.239C132.016 187.922 140.745 196.199 149.971 196.561C161.142 197.013 163.54 184.214 163.313 175.575C163.178 170.419 162.092 165.354 160.283 160.514C159.967 159.7 161.278 159.338 161.595 160.152C164.942 168.881 166.253 179.736 162.816 188.646C161.504 192.129 159.243 195.249 155.76 196.832C151.961 198.551 147.574 198.008 143.82 196.516C136.267 193.485 129.618 186.339 128.081 178.244C126.724 171.098 129.845 162.414 138.257 162.459C145.81 162.504 150.83 169.153 149.971 176.434C149.021 184.711 141.83 190.093 133.96 191.269C116.638 193.892 102.075 179.148 98.2754 163.364C93.9335 145.272 100.265 125.508 110.758 110.673C115.733 103.662 121.839 97.4662 128.759 92.4006C135.724 87.3351 143.73 84.35 151.102 79.9629C154.584 77.8824 157.976 75.3496 160.193 71.8671C163.178 67.1181 163.042 61.4646 161.821 56.1277C159.831 47.4439 155.579 39.3933 149.971 32.5186C138.257 18.1361 121.251 8.77386 103.431 4.29627C83.124 -0.814502 61.1431 0.406658 42.1473 9.45228C25.0963 17.5481 9.44738 32.1568 3.47727 50.4289C1.84906 55.3588 1.12541 60.5148 1.442 65.716C1.48723 66.711 0.130389 66.7111 0.0851611 65.8065Z" fill="#141414"/>
<path fill-rule="evenodd" clip-rule="evenodd" d="M168.83 39.3477C170.504 35.1867 167.564 29.9855 165.755 26.2768C164.85 24.4677 163.9 22.7038 162.634 21.0756C161.503 19.583 159.378 16.9146 157.433 16.598C156.845 16.1909 156.393 16.4171 156.031 17.2312C155.262 17.4573 154.991 17.8644 155.171 18.4523C155.126 18.8594 155.352 19.4474 155.443 19.8544C155.669 20.8947 155.986 21.9349 156.302 22.9752C156.981 25.1009 157.84 27.1361 158.88 29.0809C159.92 31.0258 161.142 32.8801 162.498 34.5988C163.086 35.3677 163.72 36.0913 164.353 36.7697C164.76 37.222 165.167 37.6291 165.619 38.0361C166.071 38.4884 168.333 40.7046 168.695 38.9407C168.876 38.0813 170.187 38.4432 170.006 39.3025C169.554 41.6544 167.112 41.1116 165.71 39.9809C163.222 37.9457 161.051 35.1867 159.332 32.5183C157.614 29.8498 156.212 27.0005 155.171 24.0154C154.629 22.4324 154.176 20.8042 153.86 19.176C153.679 18.181 153.362 16.9598 153.95 16.01C156.709 11.5324 163.493 19.9449 164.805 22.0254C166.433 24.6034 167.654 27.4075 168.83 30.2116C170.097 33.2872 171.363 36.4984 170.051 39.7548C169.78 40.4784 168.468 40.1618 168.83 39.3477Z" fill="#141414"/>
<path fill-rule="evenodd" clip-rule="evenodd" d="M46.2617 22.6587C30.0249 23.1562 20.2104 37.7197 14.3759 51.1524C14.0141 51.9665 12.8382 51.2429 13.2 50.474C19.2606 36.589 29.5274 21.8446 46.2617 21.3019C47.1211 21.2567 47.1211 22.6135 46.2617 22.6587Z" fill="#141414"/>
<path fill-rule="evenodd" clip-rule="evenodd" d="M166.977 134.779C170.233 134.689 169.057 129.578 166.344 129.669C163.675 129.759 163.675 135.594 166.57 134.599C167.384 134.327 167.746 135.639 166.932 135.91C162.318 137.538 161.64 128.9 165.982 128.357C168.107 128.086 170.097 130.257 170.324 132.247C170.55 134.282 169.012 136.091 166.977 136.182C166.117 136.182 166.117 134.825 166.977 134.779Z" fill="#141414"/>
<path fill-rule="evenodd" clip-rule="evenodd" d="M174.755 130.799C175.433 133.422 174.664 136.181 172.674 137.99C172.041 138.578 171.091 137.628 171.724 137.04C173.398 135.503 174.031 133.332 173.488 131.161C173.217 130.301 174.528 129.94 174.755 130.799Z" fill="#141414"/>
<path fill-rule="evenodd" clip-rule="evenodd" d="M173.037 137.448C174.123 138.534 174.937 139.8 175.525 141.202C175.615 141.473 175.435 141.835 175.208 141.971C173.535 142.83 171.862 143.69 170.188 144.549C169.419 144.956 168.741 143.78 169.51 143.373C171.183 142.514 172.857 141.654 174.53 140.795C174.44 141.066 174.304 141.292 174.213 141.564C173.716 140.388 172.992 139.302 172.088 138.398C171.455 137.765 172.404 136.815 173.037 137.448Z" fill="#141414"/>
<path fill-rule="evenodd" clip-rule="evenodd" d="M168.831 143.644C168.515 142.739 167.836 142.015 167.022 141.518C166.253 141.066 166.977 139.89 167.7 140.342C168.831 141.02 169.645 142.015 170.098 143.282C170.459 144.096 169.148 144.458 168.831 143.644Z" fill="#141414"/>
<path fill-rule="evenodd" clip-rule="evenodd" d="M167.473 141.065C165.619 142.694 162.815 142.603 161.141 140.704C160.553 140.07 161.503 139.075 162.091 139.754C163.222 141.065 165.167 141.292 166.478 140.116C167.157 139.528 168.107 140.477 167.473 141.065Z" fill="#141414"/>
<path fill-rule="evenodd" clip-rule="evenodd" d="M174.483 129.895C175.704 129.985 176.926 129.94 178.147 129.714C179.006 129.578 179.368 130.89 178.509 131.026C177.152 131.252 175.84 131.342 174.483 131.252C173.624 131.206 173.624 129.85 174.483 129.895Z" fill="#141414"/>
<path fill-rule="evenodd" clip-rule="evenodd" d="M177.74 129.804C177.468 128.945 177.152 128.086 176.745 127.272C176.428 126.638 175.93 125.236 175.071 125.236C174.212 125.236 174.212 123.88 175.071 123.88C176.202 123.834 176.88 124.739 177.423 125.643C178.101 126.865 178.644 128.131 179.051 129.443C179.323 130.257 178.011 130.619 177.74 129.804Z" fill="#141414"/>
<path fill-rule="evenodd" clip-rule="evenodd" d="M174.574 123.789C174.619 123.744 174.619 123.744 174.665 123.698C174.619 123.879 174.529 124.015 174.484 124.196C174.484 124.151 174.484 124.106 174.484 124.06C174.529 124.241 174.619 124.377 174.665 124.558C174.936 124.603 174.936 124.648 174.665 124.693C174.529 124.739 174.393 124.784 174.303 124.829C174.077 124.92 173.85 125.055 173.624 125.236C173.172 125.553 172.81 125.915 172.494 126.322C171.951 127 171.001 126.05 171.544 125.372C172.222 124.513 173.082 123.834 174.122 123.472C174.574 123.291 175.117 123.156 175.524 123.518C175.931 123.879 175.886 124.422 175.524 124.784C174.936 125.372 173.986 124.422 174.574 123.789Z" fill="#141414"/>
<path fill-rule="evenodd" clip-rule="evenodd" d="M171.273 125.96C169.645 124.196 167.474 123.337 165.077 123.427C164.218 123.472 164.218 122.116 165.077 122.07C167.791 121.935 170.369 122.975 172.223 124.965C172.811 125.643 171.861 126.593 171.273 125.96Z" fill="#141414"/>
<path fill-rule="evenodd" clip-rule="evenodd" d="M164.172 122.341C164.443 121.301 164.443 120.351 164.172 119.311C164.398 119.492 164.624 119.628 164.805 119.809C162.679 119.628 160.644 120.035 158.79 121.12C158.021 121.572 157.343 120.396 158.111 119.944C160.147 118.768 162.453 118.226 164.805 118.452C165.122 118.497 165.393 118.633 165.438 118.949C165.755 120.216 165.755 121.437 165.438 122.703C165.257 123.517 163.946 123.201 164.172 122.341Z" fill="#141414"/>
<path fill-rule="evenodd" clip-rule="evenodd" d="M159.061 120.804C159.152 121.98 159.74 123.065 160.69 123.789C161.368 124.286 160.69 125.462 160.011 124.965C158.654 123.97 157.84 122.522 157.705 120.804C157.659 119.944 159.016 119.944 159.061 120.804Z" fill="#141414"/>
<path fill-rule="evenodd" clip-rule="evenodd" d="M160.645 125.282C159.198 126.141 158.203 127.588 158.022 129.262C157.931 130.121 156.574 130.121 156.665 129.262C156.891 127.091 158.067 125.236 159.921 124.106C160.69 123.653 161.369 124.829 160.645 125.282Z" fill="#141414"/>
<path fill-rule="evenodd" clip-rule="evenodd" d="M157.026 130.075C156.121 129.487 155.172 128.899 154.222 128.402C153.453 127.995 154.131 126.819 154.9 127.226C155.85 127.724 156.8 128.311 157.704 128.899C158.428 129.352 157.75 130.528 157.026 130.075Z" fill="#141414"/>
<path fill-rule="evenodd" clip-rule="evenodd" d="M154.855 128.447C154.041 130.121 153.815 131.885 154.177 133.694C154.358 134.553 153.046 134.915 152.865 134.056C152.458 131.885 152.729 129.759 153.679 127.769C154.086 126.955 155.262 127.633 154.855 128.447Z" fill="#141414"/>
<path fill-rule="evenodd" clip-rule="evenodd" d="M153.544 133.286C154.765 133.331 155.986 133.422 157.207 133.467C158.066 133.512 158.066 134.869 157.207 134.824C155.986 134.779 154.765 134.688 153.544 134.643C152.684 134.598 152.684 133.241 153.544 133.286Z" fill="#141414"/>
<path fill-rule="evenodd" clip-rule="evenodd" d="M158.066 134.418C158.021 135.232 158.202 136.001 158.609 136.725C159.061 137.493 157.886 138.172 157.433 137.403C156.891 136.498 156.619 135.458 156.71 134.418C156.755 133.559 158.112 133.559 158.066 134.418Z" fill="#141414"/>
<path fill-rule="evenodd" clip-rule="evenodd" d="M162.092 140.387C162.092 141.518 162.725 144.91 160.554 144.187C158.474 143.463 156.529 141.97 154.946 140.433C154.313 139.845 155.262 138.895 155.896 139.483C156.981 140.523 158.202 141.428 159.514 142.151C159.785 142.287 160.192 142.423 160.418 142.604C160.554 142.649 160.644 142.739 160.78 142.785C160.735 143.282 160.69 143.327 160.735 142.965C160.599 142.151 160.735 141.202 160.735 140.387C160.735 139.528 162.092 139.528 162.092 140.387Z" fill="#141414"/>
<path fill-rule="evenodd" clip-rule="evenodd" d="M158.111 138.081C157.252 138.443 156.528 138.986 155.94 139.709C155.397 140.388 154.447 139.438 154.99 138.759C155.669 137.945 156.483 137.312 157.433 136.905C157.749 136.769 158.156 136.815 158.382 137.131C158.518 137.448 158.428 137.945 158.111 138.081Z" fill="#141414"/>
<path fill-rule="evenodd" clip-rule="evenodd" d="M182.489 141.926C181.992 143.102 181.404 144.232 180.68 145.273C180.273 145.861 179.459 145.589 179.414 144.911C179.414 144.73 179.369 144.549 179.369 144.413C179.278 143.554 180.635 143.554 180.725 144.413C180.725 144.594 180.771 144.775 180.771 144.911C180.364 144.775 179.911 144.685 179.504 144.549C180.228 143.464 180.816 142.378 181.313 141.202C181.63 140.433 182.806 141.157 182.489 141.926Z" fill="#141414"/>
<path fill-rule="evenodd" clip-rule="evenodd" d="M181.81 141.563C180.272 140.975 178.644 140.659 176.971 140.659C176.021 140.659 175.885 140.84 175.976 141.789C176.066 142.649 176.247 143.463 176.473 144.277C176.745 145.136 175.433 145.453 175.162 144.639C174.8 143.418 173.76 140.297 175.297 139.483C176.157 139.03 177.468 139.257 178.418 139.347C179.684 139.483 180.951 139.799 182.127 140.206C182.986 140.568 182.624 141.88 181.81 141.563Z" fill="#141414"/>
<path fill-rule="evenodd" clip-rule="evenodd" d="M175.66 145.499C173.942 145.635 172.494 146.584 171.635 148.032C171.183 148.801 170.007 148.122 170.459 147.353C171.59 145.454 173.489 144.323 175.66 144.142C176.52 144.052 176.52 145.408 175.66 145.499Z" fill="#141414"/>
<path fill-rule="evenodd" clip-rule="evenodd" d="M170.053 147.262C169.555 146.267 168.922 145.407 168.108 144.684C167.475 144.096 168.424 143.146 169.057 143.734C169.962 144.548 170.686 145.543 171.228 146.583C171.59 147.352 170.46 148.076 170.053 147.262Z" fill="#141414"/>
<path fill-rule="evenodd" clip-rule="evenodd" d="M168.65 144.549C166.84 145.363 165.529 146.991 165.393 149.026C165.348 149.886 163.991 149.886 164.036 149.026C164.217 146.584 165.665 144.368 167.971 143.373C168.74 143.056 169.464 144.232 168.65 144.549Z" fill="#141414"/>
<path fill-rule="evenodd" clip-rule="evenodd" d="M180.635 144.503C183.077 144.91 184.886 146.991 185.158 149.433C185.248 150.293 183.891 150.293 183.801 149.433C183.62 147.579 182.082 146.086 180.273 145.815C179.414 145.634 179.776 144.322 180.635 144.503Z" fill="#141414"/>
<path fill-rule="evenodd" clip-rule="evenodd" d="M185.249 149.298C186.516 149.479 187.782 149.569 189.094 149.524C189.365 149.524 189.682 149.75 189.727 150.022C190.179 151.876 190.677 154.951 189.501 156.625C188.28 158.389 185.837 156.67 184.48 156.037C183.712 155.675 184.39 154.499 185.159 154.861C186.29 155.404 188.415 156.715 188.687 154.635C188.868 153.188 188.732 151.785 188.415 150.383C188.641 150.564 188.868 150.7 189.048 150.881C187.646 150.926 186.244 150.836 184.842 150.61C184.028 150.474 184.39 149.162 185.249 149.298Z" fill="#141414"/>
<path fill-rule="evenodd" clip-rule="evenodd" d="M185.7 155.584C185.022 158.026 182.761 159.699 180.228 159.609C179.369 159.564 179.369 158.207 180.228 158.252C182.127 158.297 183.846 157.076 184.389 155.222C184.615 154.362 185.927 154.724 185.7 155.584Z" fill="#141414"/>
<path fill-rule="evenodd" clip-rule="evenodd" d="M181.404 159.022C181.54 160.288 181.63 161.554 181.721 162.821C181.766 163.228 181.404 163.454 181.042 163.499C179.686 163.68 178.329 163.771 176.972 163.771C176.203 163.771 175.117 163.906 174.439 163.499C173.037 162.549 174.077 159.519 174.394 158.298C174.62 157.439 175.932 157.8 175.705 158.66C175.479 159.429 175.344 160.198 175.208 161.012C175.163 161.374 175.027 161.826 175.253 162.142C175.525 162.549 175.932 162.414 176.384 162.414C177.922 162.459 179.459 162.323 180.997 162.142C180.771 162.369 180.545 162.595 180.319 162.821C180.228 161.554 180.138 160.288 180.002 159.022C179.957 158.162 181.314 158.162 181.404 159.022Z" fill="#141414"/>
<path fill-rule="evenodd" clip-rule="evenodd" d="M175.072 158.795C172.54 158.524 170.369 157.167 169.057 154.996C168.605 154.227 169.781 153.549 170.233 154.318C171.273 156.082 173.037 157.258 175.072 157.484C175.932 157.529 175.932 158.931 175.072 158.795Z" fill="#141414"/>
<path fill-rule="evenodd" clip-rule="evenodd" d="M165.8 149.614C167.021 149.84 168.287 150.067 169.509 150.338C170.368 150.519 170.006 151.831 169.147 151.65C167.926 151.378 166.704 151.107 165.438 150.926C164.579 150.79 164.941 149.479 165.8 149.614Z" fill="#141414"/>
<path fill-rule="evenodd" clip-rule="evenodd" d="M170.187 151.152C169.915 152.464 170.232 153.775 171.001 154.861C171.498 155.584 170.322 156.263 169.825 155.539C168.875 154.137 168.559 152.464 168.875 150.79C169.056 149.931 170.368 150.293 170.187 151.152Z" fill="#141414"/>
<path fill-rule="evenodd" clip-rule="evenodd" d="M178.961 153.73C179.911 153.233 180.544 152.238 180.273 151.152C180.001 150.112 178.825 149.343 177.74 149.615C176.7 149.841 175.885 150.971 176.066 152.057C176.338 153.549 177.785 154.092 179.097 153.64C179.911 153.323 180.273 154.635 179.459 154.951C177.604 155.63 175.433 154.725 174.845 152.735C174.303 150.926 175.298 149.027 177.061 148.393C178.735 147.805 180.634 148.71 181.358 150.293C182.172 152.057 181.268 154.092 179.639 154.906C178.871 155.313 178.192 154.137 178.961 153.73Z" fill="#141414"/>
<path fill-rule="evenodd" clip-rule="evenodd" d="M198.817 141.609C196.013 139.212 192.349 138.534 188.821 139.665C188.007 139.936 187.645 138.624 188.46 138.353C192.44 137.041 196.601 137.901 199.767 140.66C200.445 141.202 199.495 142.152 198.817 141.609Z" fill="#141414"/>
<path fill-rule="evenodd" clip-rule="evenodd" d="M194.295 133.558C192.576 133.739 190.993 134.327 189.591 135.232C188.868 135.729 188.189 134.553 188.913 134.056C190.541 132.97 192.35 132.383 194.295 132.202C195.154 132.111 195.154 133.468 194.295 133.558Z" fill="#141414"/>
<path fill-rule="evenodd" clip-rule="evenodd" d="M186.379 130.89C188.052 127.588 188.821 124.106 188.64 120.442C188.595 119.583 189.952 119.583 189.997 120.442C190.178 124.377 189.364 128.131 187.554 131.614C187.147 132.383 185.972 131.659 186.379 130.89Z" fill="#141414"/>
</svg>
