<svg width="200" height="307" viewBox="0 0 200 307" fill="none" xmlns="http://www.w3.org/2000/svg">
<path fill-rule="evenodd" clip-rule="evenodd" d="M127.34 41.1498C107.44 28.0562 79.6111 42.2709 61.5123 24.5726C59.7105 22.8108 58.1489 20.8488 56.7875 18.7266C55.1057 16.0838 53.7843 13.1608 51.6221 10.8384C49.4999 8.55605 46.1364 6.79423 43.0132 7.91539C40.3705 8.87638 39.0091 11.6793 38.0881 14.1618C36.7667 17.7255 36.046 23.6116 30.9607 23.0911C26.0356 22.6106 24.434 17.3652 23.1527 13.4011C22.0715 10.1978 21.0305 6.4739 19.0284 3.71104C17.627 1.78905 15.0243 0.267476 12.7819 1.74901C11.5406 2.58988 11.0602 4.19154 10.6197 5.55294C9.01804 10.438 5.89481 14.0417 0.569305 14.6423C-0.191483 14.7224 -0.191483 13.5212 0.569305 13.4411C3.57241 13.0807 6.33527 11.439 7.97697 8.87638C9.25829 6.87431 9.41846 4.43178 10.6197 2.42971C13.0622 -1.69455 18.0274 -0.0128135 20.3097 3.35067C21.8313 5.63303 22.7522 8.43593 23.6732 11.0386C24.7143 13.8816 25.3149 17.165 27.2369 19.6075C28.278 20.9289 29.8396 21.8898 31.5614 21.9299C33.8838 21.9299 34.9649 19.9278 35.6055 18.0058C36.3263 15.8836 36.8869 13.7214 37.8879 11.7193C39.7298 7.83531 43.3736 5.43282 47.7381 6.83427C53.1036 8.59609 55.3059 14.0818 58.0688 18.4463C61.3121 23.5315 66.037 27.5357 71.5627 29.9382C77.4889 32.5008 83.9756 33.2216 90.3822 33.5019C103.075 34.0224 116.85 32.8612 127.981 40.1888C128.622 40.5091 128.021 41.5502 127.34 41.1498Z" fill="white"/>
<path fill-rule="evenodd" clip-rule="evenodd" d="M165.263 46.3149C166.504 54.2031 167.105 62.1713 167.065 70.1796C167.065 70.9404 165.863 70.9404 165.863 70.1796C165.903 62.2914 165.343 54.4433 164.101 46.6352C163.981 45.8744 165.143 45.5541 165.263 46.3149Z" fill="white"/>
<path fill-rule="evenodd" clip-rule="evenodd" d="M166.3 70.6603C164.619 71.7814 162.617 71.5012 160.654 71.4211C157.731 71.301 154.848 71.2209 151.925 71.1808C146.119 71.0607 140.273 71.1007 134.467 71.1808C133.707 71.1808 133.707 69.9796 134.467 69.9796C139.753 69.8595 145.038 69.8595 150.364 69.9395C152.886 69.9796 155.409 70.0196 157.892 70.0997C160.214 70.1798 163.658 70.9406 165.7 69.5792C166.34 69.1787 166.941 70.2198 166.3 70.6603Z" fill="white"/>
<path fill-rule="evenodd" clip-rule="evenodd" d="M164.539 47.2361C152.326 45.7946 140.033 45.8346 127.861 47.3562C127.1 47.4363 127.1 46.235 127.861 46.1549C140.033 44.6334 152.366 44.5933 164.539 46.0348C165.3 46.1549 165.3 47.3562 164.539 47.2361Z" fill="white"/>
<path fill-rule="evenodd" clip-rule="evenodd" d="M135.67 71.4612C134.268 71.3811 132.907 71.261 131.506 71.1809C130.745 71.1408 129.784 71.1408 129.103 70.6603C127.742 69.6993 127.902 67.0566 127.742 65.6151C127.061 59.5288 126.701 53.4425 126.581 47.3162C126.581 46.5554 127.782 46.5554 127.782 47.3162C127.862 51.8809 128.062 56.4056 128.462 60.9303C128.663 63.1326 128.863 65.3348 129.143 67.5371C129.383 69.2989 130.545 69.8595 132.186 69.9796C133.348 70.0597 134.509 70.1398 135.63 70.2199C136.471 70.34 136.471 71.5413 135.67 71.4612Z" fill="white"/>
<path fill-rule="evenodd" clip-rule="evenodd" d="M161.936 51.3603C158.853 53.5225 156.01 55.8849 153.367 58.5677C151.966 60.0092 150.124 63.0123 147.721 62.5719C146.36 62.3316 145.119 61.0903 144.037 60.3295C142.836 59.4887 141.715 58.6078 140.554 57.6868C137.831 55.4845 135.228 53.082 132.826 50.5594C132.305 49.9989 133.146 49.158 133.667 49.7186C135.629 51.7607 137.631 53.6827 139.793 55.5246C140.994 56.5656 142.236 57.5667 143.517 58.4876C144.878 59.5287 146.28 60.81 148.002 61.0503C149.283 61.2104 149.563 60.8901 150.404 60.0092C150.884 59.5287 151.325 59.0082 151.805 58.4876C152.766 57.4466 153.808 56.4455 154.849 55.4845C156.891 53.6026 159.093 51.8808 161.375 50.3192C161.976 49.8787 162.577 50.9198 161.936 51.3603Z" fill="white"/>
<path fill-rule="evenodd" clip-rule="evenodd" d="M148.806 77.3872C151.128 83.0731 155.453 87.7179 159.617 92.1225C163.501 96.2067 167.505 100.131 171.149 104.415C178.557 113.264 182.641 124.076 183.962 135.527C184.643 141.454 184.122 147.5 180.799 152.585C180.358 153.226 179.317 152.625 179.758 151.984C183.882 145.658 183.442 137.93 182 130.843C180.439 123.355 178.076 116.067 173.712 109.741C169.707 103.935 164.542 99.0096 159.697 93.9243C155.052 89.0793 150.247 83.9941 147.685 77.7076C147.364 76.9868 148.526 76.6665 148.806 77.3872Z" fill="white"/>
<path fill-rule="evenodd" clip-rule="evenodd" d="M160.055 123.795C161.456 123.154 160.215 118.75 160.015 117.669C159.654 115.867 159.134 114.105 158.493 112.383C157.772 110.581 156.891 108.82 155.77 107.218C154.809 105.857 152.887 103.094 151.205 102.573C150.845 102.253 150.405 102.293 149.924 102.653C149.123 102.493 148.763 102.733 148.843 103.334C148.683 103.774 148.843 104.575 148.883 105.016C149.003 106.257 149.243 107.458 149.524 108.699C150.084 110.942 150.845 113.144 151.806 115.226C152.687 117.188 153.688 119.07 154.769 120.912C155.25 121.753 155.73 122.594 156.291 123.395C157.012 124.436 160.495 127.038 160.775 123.955C160.855 123.194 162.057 123.194 161.977 123.955C161.816 125.877 159.854 126.958 158.013 126.398C155.45 125.597 154.008 122.113 152.847 119.991C151.125 116.828 149.604 113.504 148.643 110.021C148.042 107.899 146.681 103.774 148.122 101.732C151.125 97.4879 157.572 107.578 158.613 109.66C159.975 112.423 160.896 115.426 161.376 118.47C161.656 120.231 162.737 123.795 160.655 124.756C159.935 125.116 159.334 124.115 160.055 123.795Z" fill="white"/>
<path fill-rule="evenodd" clip-rule="evenodd" d="M198.695 167.561C194.69 163.556 190.726 159.512 186.722 155.508C186.162 154.948 187.043 154.107 187.563 154.667C191.567 158.671 195.531 162.716 199.535 166.72C200.056 167.28 199.215 168.121 198.695 167.561Z" fill="white"/>
<path fill-rule="evenodd" clip-rule="evenodd" d="M187.363 155.668C180.035 156.149 172.748 157.11 165.54 158.632C164.78 158.792 164.459 157.63 165.22 157.47C172.508 155.949 179.915 154.948 187.363 154.467C188.124 154.387 188.124 155.588 187.363 155.668Z" fill="white"/>
<path fill-rule="evenodd" clip-rule="evenodd" d="M199.537 168.361C191.649 169.643 183.761 170.924 175.833 172.205C175.072 172.325 174.752 171.164 175.512 171.044C183.401 169.763 191.289 168.481 199.217 167.2C199.938 167.08 200.298 168.241 199.537 168.361Z" fill="white"/>
<path fill-rule="evenodd" clip-rule="evenodd" d="M174.792 171.124C171.549 166.92 168.346 162.755 165.102 158.551C164.622 157.95 165.663 157.35 166.143 157.95C169.387 162.155 172.59 166.319 175.833 170.523C176.314 171.124 175.273 171.725 174.792 171.124Z" fill="white"/>
<path fill-rule="evenodd" clip-rule="evenodd" d="M175.87 171.525C174.869 177.451 173.868 183.337 172.867 189.263C172.747 190.024 171.586 189.704 171.706 188.943C172.707 183.017 173.708 177.131 174.709 171.205C174.829 170.444 175.99 170.764 175.87 171.525Z" fill="white"/>
<path fill-rule="evenodd" clip-rule="evenodd" d="M171.426 189.904C168.863 184.458 165.98 179.213 162.697 174.167C162.256 173.527 163.297 172.926 163.738 173.567C167.021 178.612 169.944 183.858 172.467 189.303C172.787 189.984 171.746 190.625 171.426 189.904Z" fill="white"/>
<path fill-rule="evenodd" clip-rule="evenodd" d="M166.221 158.912C165.26 163.917 164.38 168.922 163.579 173.927C163.459 174.688 162.297 174.368 162.418 173.607C163.178 168.562 164.059 163.556 165.06 158.591C165.22 157.83 166.342 158.151 166.221 158.912Z" fill="white"/>
<path fill-rule="evenodd" clip-rule="evenodd" d="M199.977 167.881C198.455 173.847 197.134 179.893 196.053 185.98C195.933 186.74 194.772 186.42 194.892 185.659C195.973 179.573 197.294 173.567 198.816 167.56C199.016 166.8 200.177 167.12 199.977 167.881Z" fill="white"/>
<path fill-rule="evenodd" clip-rule="evenodd" d="M195.651 186.82C188.083 189.143 180.235 190.264 172.307 190.144C171.546 190.144 171.546 188.942 172.307 188.942C180.115 189.063 187.843 187.981 195.331 185.659C196.091 185.419 196.412 186.58 195.651 186.82Z" fill="white"/>
<path fill-rule="evenodd" clip-rule="evenodd" d="M169.664 193.187C165.419 203.598 158.452 213.688 148.202 218.934C142.275 221.937 135.669 222.818 129.102 222.658C121.974 222.497 114.847 221.176 108.2 218.573C100.913 215.69 94.1856 210.725 86.1373 210.285C85.3765 210.245 85.3765 209.043 86.1373 209.083C92.2236 209.404 97.5891 212.247 102.915 214.889C109.361 218.053 116.088 220.215 123.256 221.056C130.103 221.857 137.43 221.817 143.997 219.454C149.443 217.532 154.168 214.009 158.052 209.804C162.576 204.919 165.98 199.033 168.503 192.867C168.783 192.146 169.944 192.466 169.664 193.187Z" fill="white"/>
<path fill-rule="evenodd" clip-rule="evenodd" d="M48.4599 215.01C43.9752 214.209 39.6107 217.532 38.3694 221.817C37.0881 226.181 39.0501 230.946 42.0933 234.109C49.1406 241.517 60.5524 240.876 69.882 241.357C79.4119 241.877 88.5013 244.48 97.5507 247.283C106.28 249.926 115.129 251.888 123.898 254.21C128.262 255.371 132.587 256.733 136.711 258.615C138.873 259.616 140.956 260.737 142.918 262.018C143.638 262.499 144.92 263.099 145.44 263.82C145.841 264.421 145.6 265.342 145.6 266.022C145.6 266.783 144.399 266.783 144.399 266.022C144.399 264.541 144.079 264.261 142.838 263.42C141.957 262.819 141.036 262.219 140.115 261.698C137.912 260.417 135.63 259.376 133.268 258.455C128.863 256.733 124.298 255.532 119.734 254.41C115.169 253.289 110.604 252.328 106.12 251.087C101.114 249.726 96.1893 248.124 91.2241 246.642C86.259 245.201 81.2538 243.88 76.1285 243.159C70.3225 242.358 64.4765 242.558 58.6704 241.998C50.462 241.197 41.4927 238.234 37.969 230.065C36.2472 226.061 36.3674 221.456 39.0501 217.933C41.3726 214.89 45.0163 213.208 48.7802 213.889C49.541 213.969 49.1806 215.13 48.4599 215.01Z" fill="white"/>
<path fill-rule="evenodd" clip-rule="evenodd" d="M160.177 278.755C161.738 284.722 162.859 290.768 163.5 296.934C163.58 297.695 162.379 297.695 162.299 296.934C161.658 290.888 160.537 284.962 159.015 279.076C158.815 278.355 159.976 278.035 160.177 278.755Z" fill="white"/>
<path fill-rule="evenodd" clip-rule="evenodd" d="M158.816 279.717C151.929 279.677 145.042 279.636 138.155 279.596C137.354 279.596 136.153 279.356 135.432 279.596C135.192 279.596 134.911 279.596 134.671 279.596C134.391 280.237 134.351 280.878 134.591 281.558C134.791 283.24 135.192 284.922 135.512 286.604C136.153 290.087 136.793 293.571 137.434 297.054C137.554 297.815 136.433 298.136 136.273 297.375C135.512 293.251 134.751 289.126 133.99 285.002C133.71 283.48 132.829 281.238 133.069 279.717C133.19 278.956 133.51 278.675 134.191 278.475C135.912 277.995 138.315 278.475 140.117 278.475C142.199 278.475 144.281 278.515 146.363 278.515C150.528 278.555 154.652 278.555 158.816 278.595C159.577 278.515 159.577 279.717 158.816 279.717Z" fill="white"/>
<path fill-rule="evenodd" clip-rule="evenodd" d="M163.34 298.055C154.53 297.735 145.721 297.855 136.912 298.376C136.151 298.416 136.151 297.214 136.912 297.174C145.721 296.654 154.53 296.534 163.34 296.854C164.1 296.894 164.1 298.095 163.34 298.055Z" fill="white"/>
<path fill-rule="evenodd" clip-rule="evenodd" d="M153.769 278.596C153.648 275.633 152.848 272.91 151.326 270.347C151.686 270.307 152.047 270.267 152.407 270.187C151.606 273.15 151.366 276.153 151.646 279.197C151.726 279.957 150.525 279.957 150.445 279.197C150.165 276.033 150.445 272.95 151.246 269.867C151.366 269.346 152.087 269.266 152.327 269.707C153.929 272.43 154.81 275.393 154.93 278.596C155.01 279.357 153.809 279.357 153.769 278.596Z" fill="white"/>
<path fill-rule="evenodd" clip-rule="evenodd" d="M150.006 278.595C150.046 277.594 149.686 269.666 147.884 269.946C148.044 269.746 148.164 269.546 148.325 269.386C148.124 272.469 147.924 275.512 147.724 278.595C147.684 279.356 146.483 279.356 146.523 278.595C146.723 275.512 146.923 272.469 147.123 269.386C147.123 269.146 147.284 268.865 147.564 268.825C149.045 268.585 149.646 269.786 150.046 271.028C150.927 273.47 151.248 276.033 151.208 278.635C151.168 279.396 149.966 279.396 150.006 278.595Z" fill="white"/>
<path fill-rule="evenodd" clip-rule="evenodd" d="M146.48 278.596C146.6 277.314 146.6 276.073 146.48 274.832C146.4 274.191 146.04 270.988 145.319 270.948C144.758 270.908 144.958 272.109 144.918 272.629C144.878 273.35 144.798 274.031 144.758 274.752C144.638 276.153 144.518 277.554 144.438 278.956C144.358 279.717 143.157 279.717 143.237 278.956C143.437 276.513 143.597 274.031 143.837 271.588C143.917 270.667 144.158 269.266 145.439 269.466C146.64 269.666 147.001 271.268 147.241 272.229C147.761 274.351 147.921 276.473 147.721 278.676C147.601 279.356 146.4 279.356 146.48 278.596Z" fill="white"/>
<path fill-rule="evenodd" clip-rule="evenodd" d="M142.836 278.315C142.836 277.034 142.716 275.753 142.475 274.471C142.355 273.831 142.035 271.869 141.434 271.588C140.914 271.348 141.194 272.229 141.154 272.669C141.114 273.31 141.114 273.911 141.114 274.551C141.114 275.793 141.114 277.034 141.154 278.315C141.154 279.076 139.953 279.076 139.953 278.315C139.913 276.073 139.753 273.71 140.033 271.468C140.113 270.707 140.393 269.746 141.354 269.786C142.556 269.826 142.956 271.668 143.236 272.509C143.837 274.391 144.117 276.353 144.117 278.315C144.037 279.116 142.836 279.116 142.836 278.315Z" fill="white"/>
<path fill-rule="evenodd" clip-rule="evenodd" d="M157.532 282.079C157.732 283.24 157.932 284.401 158.173 285.563C158.293 286.283 158.733 287.445 158.373 288.165C158.132 288.686 157.652 288.846 157.091 288.966C156.05 289.206 154.929 289.287 153.888 289.447C153.127 289.567 152.807 288.406 153.568 288.285C154.248 288.165 154.929 288.085 155.65 287.965C155.97 287.925 156.251 287.885 156.571 287.845C157.212 287.725 157.252 287.885 157.212 286.844C157.131 285.362 156.651 283.841 156.411 282.399C156.251 281.639 157.372 281.318 157.532 282.079Z" fill="white"/>
<path fill-rule="evenodd" clip-rule="evenodd" d="M152.969 288.046C153.409 287.565 152.569 286.644 152.168 287.445C151.808 288.166 152.929 288.286 153.089 287.685C153.289 286.924 154.451 287.245 154.25 288.005C154.01 288.926 152.969 289.447 152.048 289.207C151.007 288.926 150.647 287.725 151.127 286.804C151.648 285.883 152.809 285.563 153.61 286.244C154.37 286.884 154.451 288.086 153.81 288.846C153.289 289.487 152.448 288.606 152.969 288.046Z" fill="white"/>
<path fill-rule="evenodd" clip-rule="evenodd" d="M150.326 287.004C150.406 286.243 150.646 285.282 150.566 284.562C150.486 283.881 150.566 283.801 149.725 283.641C149.204 283.521 148.644 283.561 148.123 283.561C146.281 283.441 144.48 283.36 142.638 283.24C141.877 283.2 141.877 281.999 142.638 282.039C144.159 282.119 145.641 282.239 147.162 282.319C148.324 282.399 149.685 282.239 150.766 282.56C152.608 283.12 151.687 285.643 151.527 287.044C151.447 287.765 150.246 287.765 150.326 287.004Z" fill="white"/>
<path fill-rule="evenodd" clip-rule="evenodd" d="M141.075 283.04C141.476 282.6 140.675 281.919 140.235 282.559C139.714 283.32 140.675 283.961 141.356 283.841C142.116 283.721 142.437 284.842 141.676 285.002C140.755 285.162 139.754 284.882 139.193 284.041C138.673 283.24 138.833 282.159 139.554 281.518C141.115 280.117 143.318 282.399 141.916 283.881C141.396 284.481 140.515 283.641 141.075 283.04Z" fill="white"/>
<path fill-rule="evenodd" clip-rule="evenodd" d="M141.995 284.001C142.075 285.122 142.196 286.243 142.276 287.324C142.316 287.885 142.316 288.445 142.436 289.006C142.436 289.286 142.476 289.526 142.636 289.807C142.636 290.287 142.916 290.447 143.437 290.287C144.318 290.528 145.399 290.407 146.32 290.487C147.481 290.568 148.682 290.648 149.843 290.728C150.604 290.768 150.604 291.969 149.843 291.929C148.122 291.809 146.44 291.729 144.718 291.609C143.877 291.569 142.556 291.769 141.875 291.208C141.315 290.768 141.355 290.007 141.315 289.366C141.154 287.604 140.994 285.803 140.834 284.041C140.714 283.24 141.915 283.24 141.995 284.001Z" fill="white"/>
<path fill-rule="evenodd" clip-rule="evenodd" d="M150.127 291.048C150.407 292.089 150.607 293.13 150.727 294.212C150.767 294.572 150.407 294.772 150.127 294.812C148.405 294.972 146.723 295.173 145.001 295.333C144.241 295.413 144.241 294.212 145.001 294.132C146.723 293.971 148.405 293.771 150.127 293.611C149.927 293.811 149.726 294.011 149.526 294.212C149.406 293.251 149.206 292.33 148.966 291.369C148.725 290.608 149.887 290.288 150.127 291.048Z" fill="white"/>
<path fill-rule="evenodd" clip-rule="evenodd" d="M144.078 294.452C144.358 294.292 144.158 293.651 143.757 294.011C143.237 294.452 143.958 294.932 144.438 294.692C145.119 294.332 145.719 295.373 145.039 295.733C144.318 296.134 143.357 296.013 142.796 295.373C142.156 294.652 142.356 293.571 143.077 293.01C143.797 292.49 144.798 292.65 145.199 293.451C145.559 294.131 145.399 295.133 144.638 295.493C143.998 295.813 143.397 294.812 144.078 294.452Z" fill="white"/>
<path fill-rule="evenodd" clip-rule="evenodd" d="M161.378 283.52C162.699 283.12 167.745 281.598 168.025 284.041C168.145 285.002 167.184 285.522 166.423 285.722C164.862 286.163 163.14 286.283 161.498 286.363C160.737 286.403 160.737 285.202 161.498 285.162C162.459 285.122 163.42 285.042 164.381 284.922C164.862 284.841 166.303 284.801 166.463 284.281C166.583 283.84 166.023 284.001 165.662 284.001C165.262 284.001 164.822 284.041 164.421 284.081C163.5 284.201 162.579 284.401 161.698 284.681C160.978 284.922 160.657 283.76 161.378 283.52Z" fill="white"/>
<path fill-rule="evenodd" clip-rule="evenodd" d="M162.259 285.522C163.501 285.122 168.266 283.801 168.105 286.483C168.065 287.524 167.144 288.085 166.223 288.245C164.582 288.525 162.86 288.565 161.218 288.686C160.458 288.766 160.458 287.564 161.218 287.484C162.019 287.404 162.78 287.364 163.581 287.284C164.181 287.244 165.543 287.364 166.063 287.044C166.304 286.764 166.544 286.483 166.744 286.203C166.584 286.163 166.384 286.123 166.223 286.083C165.903 286.043 165.583 286.083 165.262 286.123C164.342 286.203 163.421 286.403 162.54 286.724C161.819 286.924 161.539 285.763 162.259 285.522Z" fill="white"/>
<path fill-rule="evenodd" clip-rule="evenodd" d="M162.498 287.845C163.819 287.324 169.385 286.524 168.904 289.287C168.464 292.049 163.499 291.569 161.697 290.968C160.976 290.728 161.296 289.567 162.017 289.807C162.818 290.047 163.619 290.207 164.46 290.207C165.06 290.207 166.862 290.167 167.263 289.567C167.863 288.606 166.021 288.406 165.341 288.406C164.46 288.406 163.659 288.606 162.818 288.926C162.097 289.287 161.817 288.125 162.498 287.845Z" fill="white"/>
<path fill-rule="evenodd" clip-rule="evenodd" d="M156.493 296.974C157.935 299.937 157.935 303.141 156.493 306.104C156.293 306.544 155.692 306.464 155.452 306.104C153.73 303.421 152.769 300.418 152.609 297.215C152.569 296.454 153.77 296.454 153.81 297.215C153.93 300.218 154.851 302.981 156.493 305.503C156.133 305.503 155.812 305.503 155.452 305.503C156.693 302.981 156.653 300.138 155.452 297.615C155.132 296.894 156.173 296.294 156.493 296.974Z" fill="white"/>
<path fill-rule="evenodd" clip-rule="evenodd" d="M153.489 297.094C153.97 298.936 154.13 300.818 153.89 302.74C153.769 303.621 153.729 305.463 152.688 305.903C151.888 306.224 151.247 305.503 150.927 304.822C150.126 302.86 149.885 300.378 149.405 298.295C149.245 297.535 150.406 297.214 150.566 297.975C150.806 299.096 151.087 300.217 151.327 301.379C151.407 301.779 151.767 304.542 152.248 304.582C152.488 304.622 152.728 301.619 152.768 301.299C152.809 299.977 152.608 298.696 152.328 297.415C152.168 296.694 153.329 296.374 153.489 297.094Z" fill="white"/>
<path fill-rule="evenodd" clip-rule="evenodd" d="M150.245 297.375C150.645 299.377 150.765 301.419 150.565 303.461C150.485 304.422 150.165 305.984 148.963 306.144C147.722 306.304 147.402 304.743 147.162 303.862C146.681 301.98 146.481 300.058 146.521 298.136C146.521 297.375 147.722 297.375 147.722 298.136C147.722 299.217 147.762 300.338 147.922 301.419C148.002 302.06 148.123 304.182 148.683 304.622C149.444 305.263 149.524 302.1 149.524 301.699C149.524 300.378 149.404 299.057 149.164 297.735C148.923 296.934 150.085 296.614 150.245 297.375Z" fill="white"/>
<path fill-rule="evenodd" clip-rule="evenodd" d="M135.668 292.289C134.187 292.97 132.665 293.411 131.024 293.451C130.103 293.491 128.181 293.571 127.9 292.329C127.7 291.409 128.621 290.688 129.342 290.367C131.224 289.567 133.466 289.206 135.428 288.646C136.189 288.445 136.509 289.607 135.749 289.807C134.708 290.087 133.666 290.407 132.625 290.688C131.945 290.888 130.183 291.048 129.742 291.529C129.302 291.609 129.342 291.849 129.822 292.209C129.983 292.209 130.143 292.249 130.303 292.249C130.703 292.329 131.304 292.249 131.704 292.209C132.866 292.089 133.987 291.769 135.028 291.248C135.749 290.928 136.349 291.969 135.668 292.289Z" fill="white"/>
<path fill-rule="evenodd" clip-rule="evenodd" d="M135.752 289.407C134.23 290.167 132.629 290.488 130.947 290.248C129.786 290.087 127.824 289.527 127.183 288.406C125.661 285.763 134.03 286.043 135.111 286.123C135.872 286.163 135.872 287.365 135.111 287.325C133.95 287.244 132.749 287.244 131.588 287.365C130.867 287.445 130.146 287.525 129.425 287.685C129.145 287.725 128.865 287.805 128.544 287.885C128.104 287.925 128.144 288.005 128.665 288.165C130.266 289.687 133.43 289.327 135.191 288.406C135.832 288.045 136.473 289.086 135.752 289.407Z" fill="white"/>
<path fill-rule="evenodd" clip-rule="evenodd" d="M134.748 286.564C133.386 287.084 131.945 287.244 130.503 286.924C129.582 286.724 128.261 286.323 128.101 285.242C127.981 284.361 128.742 283.721 129.502 283.44C130.904 282.88 132.706 282.92 134.227 282.72C134.988 282.64 134.988 283.841 134.227 283.921C133.306 284.041 132.345 284.161 131.424 284.281C131.024 284.321 130.624 284.361 130.223 284.481C129.783 284.602 129.342 284.682 129.462 285.162C129.623 285.803 131.304 285.923 131.865 285.923C132.746 285.963 133.627 285.763 134.427 285.442C135.148 285.122 135.429 286.283 134.748 286.564Z" fill="white"/>
</svg>
