<svg width="200" height="267" viewBox="0 0 200 267" fill="none" xmlns="http://www.w3.org/2000/svg">
<path fill-rule="evenodd" clip-rule="evenodd" d="M60.0313 36.7026C54.7669 33.1034 52.457 24.9382 51.49 18.9217C50.9529 15.5374 51.0066 12.0457 52.1347 8.82255C53.2628 5.43827 56.3247 0.979617 60.4611 1.67796C66.7999 2.75233 66.4776 13.8184 66.0478 18.5456C65.5106 25.153 63.2007 31.4919 59.4941 37.0249C58.9032 37.8844 60.2999 38.6902 60.8908 37.8307C65.5644 30.8472 68.0354 22.5745 67.7668 14.1407C67.6057 8.92999 66.3164 -0.900538 58.9032 0.0663985C51.3289 1.03334 49.0727 10.9713 49.6636 17.2027C50.0934 21.6613 51.49 26.12 53.2628 30.2026C54.6057 33.372 56.3785 36.1654 59.2255 38.0993C60.0313 38.6902 60.8371 37.2935 60.0313 36.7026Z" fill="#141414"/>
<path fill-rule="evenodd" clip-rule="evenodd" d="M57.5601 16.558C56.3245 15.4836 55.465 13.9795 55.4113 12.3142C55.4113 11.3473 55.6262 10.1118 56.3245 9.41342C57.4526 8.28533 59.1716 8.7688 60.1386 9.84317C61.2666 11.0787 61.5352 13.12 61.1592 14.7316C60.9443 15.6448 60.4609 16.6117 59.5476 17.0415C58.5807 17.4712 57.2915 17.0952 57.0229 16.0208C56.7543 15.0002 55.1964 15.4299 55.465 16.4506C56.1634 18.9216 59.3865 19.5125 61.2129 17.901C63.5228 15.8597 63.4154 11.5622 61.6427 9.19855C59.87 6.83492 56.1634 6.45889 54.5518 9.19855C52.8865 12.0456 54.0146 15.7522 56.3782 17.7935C57.184 18.3307 58.3121 17.2026 57.5601 16.558Z" fill="#141414"/>
<path fill-rule="evenodd" clip-rule="evenodd" d="M69.7012 36.0579C82.2176 35.9504 94.6804 35.8967 107.197 35.7893C113.428 35.7356 119.66 35.6818 125.891 35.6281C128.684 35.6281 131.531 35.5744 134.325 35.843C135.721 35.9504 137.709 35.8967 138.998 36.5951C139.321 36.7025 139.643 36.7562 139.965 36.8637C140.126 37.7769 140.288 38.6364 140.502 39.5496C140.288 40.0868 138.3 40.8926 137.816 41.1612C116.49 52.3346 91.6184 51.3677 68.3045 53.8388C57.131 55.0206 46.0112 57.1693 35.0526 59.7478C26.0816 61.8429 16.9494 64.5288 9.32132 69.8469C6.15192 72.0494 2.12301 75.0039 0.457731 78.6031C-1.47614 82.9006 3.14367 84.2436 6.36679 85.1031C17.3254 87.9502 28.7138 88.1113 39.941 87.3055C53.693 86.3386 67.2838 83.9213 81.0358 83.3303C84.0441 83.2229 87.106 83.008 90.0606 83.2766C94.1432 83.6527 96.6142 85.4791 96.8291 89.7766C97.0977 96.8675 96.2919 104.119 95.1638 111.103C95.0027 112.124 96.5605 112.553 96.7217 111.533C97.6349 105.624 98.2258 99.7146 98.387 93.6981C98.4944 89.4543 98.8167 84.727 94.3581 82.632C90.1143 80.6444 84.4738 81.4502 79.9614 81.6651C73.4615 81.9874 67.0152 82.6857 60.569 83.4378C48.3748 84.8882 36.127 86.446 23.8254 85.9088C17.594 85.6403 11.3089 84.7808 5.29242 83.0618C3.25111 82.4708 1.10236 81.7725 1.96186 79.0328C2.39161 77.6362 3.94945 76.4006 4.9701 75.38C6.79654 73.5535 8.89157 71.8883 11.0403 70.4916C19.6353 64.8511 29.8956 62.38 39.8336 60.2313C52.35 57.5454 64.8665 55.504 77.5978 54.5371C89.4697 53.6239 101.449 53.033 113.16 50.8305C118.746 49.7561 124.279 48.3595 129.651 46.3719C132.069 45.4586 134.486 44.438 136.796 43.3099C138.622 42.4504 140.932 41.5372 142.168 39.8719C145.606 35.3595 137.387 34.5 134.755 34.1777C127.771 33.4257 120.573 33.9091 113.536 33.9628C98.9241 34.0703 84.2589 34.1777 69.6474 34.2852C68.6805 34.4463 68.6805 36.0579 69.7012 36.0579Z" fill="#141414"/>
<path fill-rule="evenodd" clip-rule="evenodd" d="M76.6306 140.863C79.0479 150.157 90.2214 153.326 97.2586 146.826C98.0106 146.128 96.8825 145 96.1305 145.698C90.0065 151.446 80.3372 148.545 78.2421 140.487C77.9198 139.467 76.362 139.896 76.6306 140.863Z" fill="#141414"/>
<path fill-rule="evenodd" clip-rule="evenodd" d="M95.8079 146.826C102.093 153.433 108.378 159.987 114.663 166.594C115.361 167.347 116.543 166.218 115.791 165.466C109.506 158.859 103.221 152.305 96.936 145.698C96.2376 144.892 95.0558 146.074 95.8079 146.826Z" fill="#141414"/>
<path fill-rule="evenodd" clip-rule="evenodd" d="M99.1386 142.045C105.692 148.706 112.139 155.528 118.424 162.458C119.122 163.21 120.25 162.082 119.552 161.33C113.267 154.4 106.874 147.578 100.267 140.917C99.5147 140.165 98.3866 141.293 99.1386 142.045Z" fill="#141414"/>
<path fill-rule="evenodd" clip-rule="evenodd" d="M115.524 167.239C117.619 166.326 118.962 164.123 118.801 161.867C118.747 160.847 117.135 160.847 117.189 161.867C117.297 163.64 116.383 165.198 114.718 165.896C113.805 166.219 114.611 167.615 115.524 167.239Z" fill="#141414"/>
<path fill-rule="evenodd" clip-rule="evenodd" d="M78.2959 140.541C76.7381 136.243 78.1347 131.731 80.2835 127.917C82.7008 123.566 86.8372 121.793 91.6719 122.814C99.9446 124.533 105.102 134.9 99.6222 142.045C98.9776 142.851 100.374 143.657 101.019 142.851C107.358 134.632 100.858 122.653 91.2958 121.148C86.7297 120.45 82.3785 121.847 79.7463 125.715C76.7918 130.066 74.8579 135.921 76.7381 141.078C77.0604 141.938 78.6182 141.508 78.2959 140.541Z" fill="#141414"/>
<path fill-rule="evenodd" clip-rule="evenodd" d="M95.1641 145.805C90.5443 149.78 83.9907 147.685 81.0361 142.851C77.9742 137.909 78.5651 130.334 82.0568 125.714C85.5485 121.095 92.3171 120.88 96.6146 124.425C101.234 128.185 102.094 134.363 100.375 139.789C100.053 140.756 101.61 141.185 101.933 140.218C104.028 133.665 102.416 126.09 96.346 122.223C91.189 118.946 83.9907 119.967 80.4452 125.07C76.5775 130.657 76.2014 139.252 80.3915 144.731C84.2055 149.78 91.3501 151.177 96.2922 146.88C97.098 146.235 95.9162 145.107 95.1641 145.805Z" fill="#141414"/>
<path fill-rule="evenodd" clip-rule="evenodd" d="M92.048 158.375C92.4241 162.082 92.7464 166.111 89.5233 168.743C86.891 170.892 83.1844 171.751 80.015 172.879C73.6762 175.082 67.2837 177.123 60.8912 179.326C54.821 181.421 48.8045 183.731 42.9491 186.524C38.0607 188.888 32.6889 191.412 29.7343 196.193C29.5732 196.462 29.6269 196.945 29.8418 197.16C32.6351 199.739 36.4492 199.416 39.9946 199.363C45.4202 199.255 50.8995 199.094 56.3251 198.879C67.3911 198.45 78.5109 197.912 89.577 197.429C111.655 196.462 133.787 195.71 155.92 196.892C162.205 197.214 168.49 197.697 174.775 198.396C177.998 198.772 181.221 199.148 184.498 199.631C187.452 200.061 190.89 200.169 192.986 202.532C193.684 203.338 194.812 202.156 194.114 201.404C191.32 198.181 186.217 198.235 182.295 197.697C177.192 196.999 172.089 196.462 166.932 196.032C155.92 195.119 144.907 194.743 133.895 194.689C111.709 194.582 89.577 195.871 67.4449 196.838C61.1061 197.107 54.7673 197.375 48.4822 197.59C45.4739 197.697 42.5194 197.751 39.5111 197.805C36.6103 197.859 33.3335 198.181 31.0236 196.032C31.0773 196.354 31.131 196.677 31.131 196.999C34.6765 191.251 42.3045 188.458 48.2136 185.879C54.9284 182.979 61.8044 180.669 68.7341 178.359C74.9655 176.264 81.5192 174.545 87.5357 171.805C93.3373 169.119 94.1968 164.338 93.6059 158.429C93.5522 157.355 91.9406 157.355 92.048 158.375Z" fill="#141414"/>
<path fill-rule="evenodd" clip-rule="evenodd" d="M180.361 234.925C180.254 234.119 179.985 233.528 179.072 233.421C177.944 233.313 177.675 234.173 177.246 234.978C176.386 236.429 175.956 237.503 174.398 238.363C173.163 239.061 171.82 239.33 170.423 239.598C168.328 240.028 166.179 240.243 164.246 241.21C162.849 241.908 161.56 242.929 160.808 244.325C159.626 246.528 160.808 249.644 157.853 250.718C154.039 252.115 150.332 252.544 147.485 255.768C146.787 256.52 147.915 257.701 148.613 256.896C151.514 253.672 155.275 253.673 158.927 252.007C161.882 250.718 161.237 248.784 161.989 246.098C163.332 241.156 169.671 241.908 173.593 240.511C175.688 239.759 179.072 237.664 178.75 234.978C178.857 235.945 180.469 235.945 180.361 234.925Z" fill="#141414"/>
<path fill-rule="evenodd" clip-rule="evenodd" d="M181.436 245.507C176.87 246.796 174.452 249.805 171.766 253.457C168.328 258.238 162.795 261.462 158.176 265.007C157.37 265.652 158.176 267.048 158.981 266.404C162.903 263.395 167.361 260.656 170.853 257.11C172.357 255.606 173.432 253.833 174.667 252.115C176.547 249.59 178.804 247.871 181.866 247.011C182.886 246.796 182.456 245.239 181.436 245.507Z" fill="#141414"/>
<path fill-rule="evenodd" clip-rule="evenodd" d="M198.841 247.065C196.477 248.891 194.274 250.664 193.093 253.511C191.374 257.647 189.493 261.032 185.894 263.771C185.089 264.416 185.894 265.813 186.7 265.168C189.225 263.234 191.32 260.924 192.878 258.131C193.737 256.573 194.167 254.8 195.026 253.243C196.101 251.255 197.927 249.805 199.7 248.462C200.452 247.871 199.646 246.42 198.841 247.065Z" fill="#141414"/>
</svg>
