<svg width="377" height="236" viewBox="0 0 377 236" fill="none" xmlns="http://www.w3.org/2000/svg">
<path fill-rule="evenodd" clip-rule="evenodd" d="M2.666 78.8158C14.0827 80.0908 25.5573 80.5544 37.032 80.0908C42.6534 79.859 48.2748 79.4533 53.8962 78.8158C58.8222 78.2363 64.0959 77.8886 68.8481 76.4397C74.2377 74.8171 81.4818 69.6013 76.9035 63.3424C74.9331 60.6766 71.5139 59.5755 68.3844 58.88C62.8789 57.721 57.1995 57.0835 51.5781 56.3301C40.6251 54.8813 29.672 53.8382 18.7189 52.7371C13.9668 52.2734 8.05558 51.4621 4.81023 47.5213C2.37621 44.5657 1.33308 38.8863 4.8682 36.3364C7.01245 34.7717 10.3737 35.0615 12.9236 35.0035C15.9951 34.8876 19.0666 34.7717 22.1381 34.7137C27.9334 34.5399 33.6707 34.3081 39.466 34.1342C51.1725 33.7285 62.9369 33.3229 74.6433 32.9172C101.012 31.99 127.322 31.1207 153.691 30.1934C155.372 30.1355 155.372 27.5276 153.691 27.5855C106.981 29.2082 60.2131 30.7729 13.5031 32.3956C9.62031 32.5115 4.98411 32.2218 2.08648 35.4092C0.116081 37.5534 -0.289617 40.6829 0.174005 43.4646C1.62282 51.7519 9.96802 54.3597 17.2701 55.1711C28.6288 56.504 40.0455 57.3733 51.3463 58.88C55.2292 59.4016 81.0181 60.8504 74.6433 69.8911C71.8036 73.8898 65.6027 74.4693 61.1983 75.1068C54.5917 76.092 47.9851 76.7875 41.3205 77.1352C28.3391 77.8886 15.3576 77.5408 2.43418 76.092C0.985358 75.9761 0.985372 78.584 2.666 78.8158Z" fill="white"/>
<path fill-rule="evenodd" clip-rule="evenodd" d="M60.1544 15.9949C57.3148 16.2847 54.591 15.6472 52.2729 13.9086C51.6354 13.445 51.0559 12.9234 50.5922 12.286C50.0707 11.5905 49.3173 9.90989 50.0707 9.09855C50.94 8.22926 53.6058 8.28721 54.7648 8.11335C61.4874 7.12815 68.3258 6.83839 75.1063 7.18611C76.6131 7.24406 78.1198 7.35996 79.5686 7.47587C80.4959 7.59177 81.4811 7.59177 82.4083 7.82359C83.5674 8.11335 83.6254 7.99744 83.5094 9.27241C83.2197 11.7064 77.8301 12.9814 75.6858 13.7348C69.7746 15.7052 63.6316 16.3426 57.4886 15.7631C55.808 15.5893 55.808 18.1971 57.4886 18.371C66.3554 19.1823 76.2074 17.6176 83.9731 12.9814C86.2332 11.5905 88.3195 8.86674 85.7696 6.60658C83.2776 4.34642 78.1198 4.75209 75.0483 4.63618C69.8326 4.40437 64.5589 4.52028 59.3431 5.04185C56.7932 5.27366 54.2433 5.62138 51.7513 6.02705C50.2445 6.31681 48.6219 6.60658 47.5787 7.82359C45.4924 10.3735 47.8105 13.6189 49.7809 15.4154C52.5627 17.9074 56.2716 19.0664 60.0386 18.7187C61.7772 18.4289 61.8351 15.8211 60.1544 15.9949Z" fill="white"/>
<path fill-rule="evenodd" clip-rule="evenodd" d="M158.85 1.275C158.27 16.1689 158.27 31.0627 158.907 45.9566C158.965 47.6372 161.573 47.6372 161.515 45.9566C160.878 31.0627 160.878 16.1689 161.457 1.275C161.515 -0.405631 158.907 -0.405631 158.85 1.275Z" fill="white"/>
<path fill-rule="evenodd" clip-rule="evenodd" d="M160.532 2.60787C183.134 2.60787 205.735 2.60787 228.279 2.60787C229.959 2.60787 229.959 0 228.279 0C205.677 0 183.076 0 160.532 0C158.851 0 158.851 2.60787 160.532 2.60787Z" fill="white"/>
<path fill-rule="evenodd" clip-rule="evenodd" d="M227.523 1.33286C227.523 16.4006 227.523 31.4683 227.523 46.536C227.523 48.2167 230.131 48.2167 230.131 46.536C230.131 31.4683 230.131 16.4006 230.131 1.33286C230.131 -0.34777 227.523 -0.34777 227.523 1.33286Z" fill="white"/>
<path fill-rule="evenodd" clip-rule="evenodd" d="M160.532 48.3326C183.307 48.3326 206.083 48.3326 228.8 48.3326C230.481 48.3326 230.481 45.7247 228.8 45.7247C206.025 45.7247 183.249 45.7247 160.532 45.7247C158.851 45.7247 158.851 48.3326 160.532 48.3326Z" fill="white"/>
<path fill-rule="evenodd" clip-rule="evenodd" d="M192.694 35.9308C192.347 35.7569 192.289 35.2933 192.521 34.9456C192.868 34.424 193.622 34.6558 194.085 34.9456C194.549 35.2933 194.897 36.0467 194.607 36.5683C194.491 36.7421 193.911 37.0898 193.795 36.7421C193.274 35.1774 190.724 35.8149 191.304 37.4375C191.999 39.4079 194.549 40.1613 196.172 38.7705C197.852 37.3796 197.62 34.5979 196.056 33.149C194.491 31.7002 191.767 31.5843 190.492 33.4388C189.449 34.9456 189.797 37.3216 191.477 38.2489C192.868 38.9443 194.201 36.6842 192.694 35.9308Z" fill="white"/>
<path fill-rule="evenodd" clip-rule="evenodd" d="M185.278 33.207C185.741 29.9037 189.334 28.7446 192.232 28.281C196.173 27.6435 201.041 28.5708 201.794 33.207C202.084 34.8876 204.576 34.1342 204.286 32.5115C203.359 27.006 197.738 25.0936 192.812 25.6152C188.697 26.0788 183.423 27.8174 182.728 32.5695C182.496 34.1342 185.046 34.8297 185.278 33.207Z" fill="white"/>
<path fill-rule="evenodd" clip-rule="evenodd" d="M177.163 30.7729C180.35 24.8038 186.435 20.6892 193.216 20.1676C199.938 19.5881 207.646 22.9493 209.153 30.0775C209.5 31.7002 211.992 31.0047 211.645 29.3821C209.964 21.4425 201.619 17.212 193.969 17.5018C186.03 17.8495 178.554 22.4277 174.845 29.498C174.149 30.8888 176.352 32.2218 177.163 30.7729Z" fill="white"/>
<path fill-rule="evenodd" clip-rule="evenodd" d="M169.108 24.0504C177.801 7.64979 210.66 0.753408 217.035 22.7175C217.499 24.3402 219.991 23.6448 219.527 22.0221C212.573 -2.14423 176.642 4.23058 166.848 22.7175C166.095 24.2243 168.297 25.4992 169.108 24.0504Z" fill="white"/>
<path fill-rule="evenodd" clip-rule="evenodd" d="M237.781 34.1342C256.21 34.308 274.697 34.4819 293.126 34.6558C310.976 34.8296 328.883 34.5978 346.733 35.3512C350.789 35.525 354.846 35.8148 358.903 36.2205C361.221 36.4523 370.262 36.7421 370.03 40.7988C369.914 42.8851 366.205 44.7975 364.756 45.7247C362.728 46.9417 360.641 48.1008 358.555 49.086C345.805 55.171 331.085 56.9676 317.177 57.9528C301.472 59.1118 285.708 58.938 269.945 58.7641C263.397 58.7062 256.732 58.7641 250.241 59.6914C247.344 60.097 244.272 60.6186 241.664 62.0095C240.563 62.589 239.288 63.5162 238.883 64.7912C237.955 68.0366 242.823 69.7751 245.026 70.7024C256.848 75.4545 269.887 76.7295 282.521 76.4397C296.082 76.1499 309.469 74.1216 322.856 72.4989C333.056 71.2819 344.82 69.3115 354.788 72.6728C360.12 74.4693 363.771 78.6999 366.958 83.1622C368.813 85.7701 370.551 88.5518 372.174 91.3336C372.638 92.1449 373.333 93.0142 373.681 93.9414C374.84 96.897 372.985 98.172 370.493 99.1572C362.902 102.171 354.44 103.851 346.443 105.474C338.619 107.039 330.738 108.198 322.856 109.009C312.135 110.11 301.356 110.69 290.634 110.458C280.667 110.226 270.467 110.458 260.673 112.544C255.109 113.761 245.895 115.848 243.461 121.759C240.737 128.192 249.952 129.582 254.182 130.452C268.554 133.291 283.274 131.901 297.705 130.22C312.251 128.597 327.029 126.453 341.633 128.192C348.761 129.061 356.527 130.799 362.786 134.508C365.799 136.305 369.972 140.072 367.538 143.955C365.567 147.084 360.583 147.49 357.338 147.895C339.952 149.982 322.393 148.185 304.949 148.359C296.488 148.417 287.853 148.823 279.507 150.561C273.944 151.72 268.612 154.444 268.323 160.761C268.207 163.543 268.728 166.44 268.96 169.164C269.308 172.989 269.598 176.756 269.771 180.581C269.829 182.261 272.437 182.261 272.379 180.581C272.205 176.756 271.916 172.931 271.568 169.164C271.278 166.035 270.351 162.326 271.104 159.254C271.974 155.429 276.03 153.981 279.45 153.227C283.796 152.242 288.316 151.778 292.721 151.431C310.512 150.04 328.362 152.01 346.211 151.315C350.673 151.141 355.078 150.793 359.482 150.214C362.148 149.808 364.988 149.286 367.248 147.722C372.174 144.418 371.247 138.507 367.364 134.798C362.612 130.278 355.194 128.249 348.993 126.859C342.096 125.352 335.026 124.888 327.956 125.004C312.888 125.236 298.052 128.018 283.043 129.061C275.625 129.582 268.207 129.698 260.789 128.887C257.254 128.481 253.776 127.844 250.299 126.917C248.097 126.337 244.04 125.294 246.127 122.106C247.576 119.846 250.415 118.687 252.791 117.702C263.802 113.182 276.9 112.66 288.664 113.066C298.226 113.414 307.846 113.008 317.351 112.197C333.577 110.806 349.746 108.14 365.394 103.562C369.334 102.403 377.448 100.896 376.752 95.1585C376.463 92.8983 374.724 90.754 373.623 88.8416C371.826 85.886 369.914 82.9304 367.828 80.1487C364.814 76.2079 361.453 72.6148 356.816 70.7603C352.702 69.0797 348.124 68.5581 343.661 68.5002C331.433 68.2104 319.147 70.4706 307.035 71.9773C293.01 73.658 278.696 74.9329 264.614 73.0784C258.355 72.2671 252.096 70.8183 246.243 68.5002C244.91 67.9786 243.577 67.457 242.418 66.6457C241.896 66.298 241.259 65.6025 241.259 65.6025C241.259 65.5446 241.375 65.3128 241.838 64.9651C243.693 63.5162 246.416 62.9947 248.677 62.589C254.878 61.4299 261.31 61.372 267.627 61.372C283.796 61.4299 299.965 61.7777 316.134 60.6186C329.811 59.6334 343.951 57.9528 356.759 52.6211C361.743 50.5348 380.345 41.8419 368.987 35.6989C366.553 34.366 363.713 34.1342 361.047 33.7865C356.295 33.2069 351.485 32.8592 346.675 32.6274C337.692 32.2217 328.651 32.2797 319.611 32.1638C301.356 31.9899 283.101 31.8161 264.845 31.6422C255.805 31.5843 246.764 31.4684 237.724 31.4104C236.101 31.4684 236.101 34.0762 237.781 34.1342Z" fill="white"/>
<path fill-rule="evenodd" clip-rule="evenodd" d="M232.855 190.665C232.855 204.515 232.855 218.308 232.855 232.159C232.855 233.839 235.463 233.839 235.463 232.159C235.463 218.308 235.463 204.515 235.463 190.665C235.463 188.984 232.855 188.984 232.855 190.665Z" fill="white"/>
<path fill-rule="evenodd" clip-rule="evenodd" d="M234.188 191.94C255.631 191.94 277.073 191.94 298.574 191.94C300.254 191.94 300.254 189.332 298.574 189.332C277.131 189.332 255.689 189.332 234.188 189.332C232.508 189.332 232.508 191.94 234.188 191.94Z" fill="white"/>
<path fill-rule="evenodd" clip-rule="evenodd" d="M296.547 190.665C296.547 205.037 296.605 219.467 296.605 233.839C296.605 235.52 299.213 235.52 299.213 233.839C299.213 219.467 299.155 205.037 299.155 190.665C299.155 188.984 296.547 188.984 296.547 190.665Z" fill="white"/>
<path fill-rule="evenodd" clip-rule="evenodd" d="M234.188 234.883C255.399 234.883 276.61 234.883 297.82 234.883C299.501 234.883 299.501 232.275 297.82 232.275C276.61 232.275 255.399 232.275 234.188 232.275C232.508 232.275 232.508 234.883 234.188 234.883Z" fill="white"/>
<path fill-rule="evenodd" clip-rule="evenodd" d="M264.904 226.422C265.193 223.002 261.89 222.539 259.34 221.843C254.994 220.626 251.401 217.207 250.068 212.919C248.909 209.21 248.909 201.038 254.588 201.154C259.804 201.27 261.6 207.007 262.528 211.18C262.875 212.803 265.425 212.107 265.02 210.485C264.034 205.906 262.18 200.922 257.486 199.126C253.487 197.619 249.488 199.3 247.866 203.24C246.069 207.703 246.707 213.208 249.199 217.265C250.416 219.293 252.154 220.974 254.125 222.307C255.342 223.118 262.412 225.205 262.296 226.422C262.122 228.102 264.73 228.102 264.904 226.422Z" fill="white"/>
<path fill-rule="evenodd" clip-rule="evenodd" d="M264.267 210.369C265.426 206.37 266.817 201.792 270.642 199.531C272.496 198.43 274.872 198.141 276.843 199.242C279.103 200.517 279.509 203.298 279.451 205.674C279.335 209.963 276.901 213.672 274.467 217.033C271.569 221.032 268.672 224.103 263.688 225.089C262.065 225.436 262.76 227.928 264.383 227.581C270.526 226.364 274.177 222.017 277.654 217.091C280.842 212.455 283.565 206.428 281.363 200.748C279.741 196.576 274.93 195.011 270.874 196.576C265.426 198.662 263.282 204.573 261.833 209.673C261.312 211.296 263.804 211.991 264.267 210.369Z" fill="white"/>
</svg>
