<svg width="191" height="328" viewBox="0 0 191 328" fill="none" xmlns="http://www.w3.org/2000/svg">
<path fill-rule="evenodd" clip-rule="evenodd" d="M174.251 7.93211C177.875 6.25128 182.182 7.30181 185.071 9.98064C188.38 13.0797 189.116 18.0696 188.17 22.3242C186.332 30.4658 178.873 35.6133 171.834 39.1326C156.654 46.6963 140.844 53.262 126.925 63.1369C120.832 67.4441 115.527 73.8522 116.892 81.7837C117.05 82.7817 118.573 82.3615 118.416 81.3635C116.682 70.9108 127.187 64.6077 134.804 60.0379C142.998 55.1005 151.454 50.5307 160.069 46.3812C167.79 42.6518 176.352 39.7103 182.812 33.8274C188.118 28.995 191.637 21.7465 189.536 14.4979C187.592 7.72201 180.081 3.51992 173.463 6.5139C172.517 6.98664 173.305 8.35232 174.251 7.93211Z" fill="#141414"/>
<path fill-rule="evenodd" clip-rule="evenodd" d="M59.6319 98.2474C62.5079 108.654 68.4113 117.963 76.5852 125.002C77.1528 125.494 77.9475 124.661 77.3799 124.207C69.3573 117.32 63.5296 108.162 60.7293 97.9446C60.5023 97.2635 59.4427 97.5662 59.6319 98.2474Z" fill="#141414"/>
<path fill-rule="evenodd" clip-rule="evenodd" d="M77.5687 124.661C89.9431 116.412 101.939 107.67 113.594 98.4366C114.162 97.9825 113.367 97.1878 112.8 97.6419C101.22 106.838 89.2997 115.503 77.001 123.715C76.3956 124.094 76.9632 125.077 77.5687 124.661Z" fill="#141414"/>
<path fill-rule="evenodd" clip-rule="evenodd" d="M98.5732 71.0768C104.552 79.3642 109.775 88.1814 114.126 97.4149C114.429 98.0582 115.413 97.4906 115.11 96.8473C110.758 87.5759 105.574 78.7587 99.5571 70.5091C99.1409 69.9415 98.157 70.4713 98.5732 71.0768Z" fill="#141414"/>
<path fill-rule="evenodd" clip-rule="evenodd" d="M60.0095 99.534C72.3839 88.5598 85.553 78.5695 99.4032 69.6009C100.009 69.2225 99.441 68.2386 98.8356 68.617C84.8718 77.6234 71.627 87.6894 59.2148 98.7393C58.6472 99.1934 59.4419 99.9881 60.0095 99.534Z" fill="#141414"/>
<path fill-rule="evenodd" clip-rule="evenodd" d="M74.805 87.9543C79.6866 97.2634 85.2116 106.232 91.3042 114.784C91.7204 115.39 92.7043 114.822 92.2881 114.217C86.1955 105.664 80.6705 96.6958 75.7889 87.3866C75.4483 86.7433 74.4644 87.3109 74.805 87.9543Z" fill="#141414"/>
<path fill-rule="evenodd" clip-rule="evenodd" d="M79.8781 82.8078C85.403 91.8142 91.2307 100.669 97.3233 109.297C97.7396 109.903 98.7235 109.335 98.3072 108.73C92.2146 100.102 86.3869 91.2466 80.862 82.2402C80.4836 81.6347 79.4997 82.2023 79.8781 82.8078Z" fill="#141414"/>
<path fill-rule="evenodd" clip-rule="evenodd" d="M73.8233 84.9648C73.4071 85.4567 73.1043 85.5324 72.8395 85.1161C72.6502 84.9648 72.4989 84.7377 72.461 84.4728C72.3853 84.1701 72.4232 83.8295 72.4989 83.5268C72.6502 82.8834 73.0665 82.3158 73.6341 82.0131C74.8829 81.3319 76.2831 82.0888 76.8129 83.2619C77.1156 83.943 78.0995 83.3375 77.7968 82.6942C76.5858 80.0074 72.7638 79.9696 71.5907 82.6942C71.0987 83.8295 71.2122 85.3432 72.234 86.1757C73.18 86.9325 74.6937 86.5541 74.9208 85.3053C75.0721 84.5485 73.9747 84.2458 73.8233 84.9648Z" fill="#141414"/>
<path fill-rule="evenodd" clip-rule="evenodd" d="M76.3578 80.5372C74.5035 79.856 74.39 77.5098 74.8819 75.8826C75.4117 74.104 76.7362 72.6282 77.4552 70.9253C78.0228 69.6386 78.1363 68.352 78.0985 66.9518C78.0607 66.0436 77.985 65.0976 78.1363 64.1894C78.3634 62.827 79.5365 60.5565 81.3908 61.6161C82.9423 62.4865 82.9045 65.2489 82.8666 66.7248C82.8288 68.5791 82.4882 70.4712 81.8827 72.2119C80.7853 75.4663 78.2877 78.0774 77.4552 81.4454C77.266 82.1644 78.3634 82.4671 78.5526 81.7481C79.2338 79.0235 81.0502 76.9422 82.2233 74.4446C83.2072 72.3254 83.7748 70.0171 83.964 67.6708C84.1532 65.2489 83.737 58.9293 79.6122 60.3673C77.985 60.9349 77.1525 62.7135 76.9632 64.3407C76.8119 65.8923 77.1524 67.4816 76.8497 68.9953C76.5848 70.3955 75.828 71.5686 75.109 72.7795C73.5575 75.4663 72.0816 80.1209 76.0172 81.5968C76.7362 81.8995 77.0389 80.8021 76.3578 80.5372Z" fill="#141414"/>
<path fill-rule="evenodd" clip-rule="evenodd" d="M73.5949 78.4182C70.9837 75.9206 68.7132 73.2338 69.9242 69.4117C70.454 67.7845 71.4 66.2708 72.2325 64.795C72.4596 64.3787 72.8002 63.3948 73.1407 63.1678C74.1246 62.5245 74.995 63.4705 75.5248 64.1517C79.3469 68.8063 75.2977 75.5422 75.5626 80.7644C75.6005 81.4834 76.7357 81.4834 76.6979 80.7644C76.4709 76.3747 78.6657 72.2499 78.1359 67.8981C77.871 65.6654 76.4709 61.919 73.7462 61.6541C72.3839 61.5027 71.9298 63.0164 71.3622 63.9625C70.3404 65.8167 69.1295 67.671 68.5997 69.7523C67.578 73.7257 70.0377 76.6396 72.7245 79.2507C73.2921 79.7048 74.1246 78.9101 73.5949 78.4182Z" fill="#141414"/>
<path fill-rule="evenodd" clip-rule="evenodd" d="M71.365 84.7378C67.6187 83.4133 63.5696 80.8401 59.5205 82.3916C56.6066 83.489 54.4874 86.5164 54.4496 89.6573C54.4118 93.328 57.1742 94.8038 60.4287 93.555C62.3965 92.7982 64.2507 91.5494 66.0671 90.4898C68.4512 89.0897 70.7974 87.6517 73.1058 86.138C73.7113 85.7596 73.1436 84.7757 72.5381 85.1541C69.5108 87.1219 66.4456 88.9761 63.3047 90.7547C61.9802 91.5116 60.6179 92.4198 59.1042 92.7982C56.6066 93.4037 55.3957 91.5116 55.6227 89.1654C55.9254 86.0245 58.6122 83.2998 61.7531 83.1106C65.0076 82.9214 68.1106 84.8514 71.0623 85.9109C71.7813 86.0623 72.0462 84.9649 71.365 84.7378Z" fill="#141414"/>
<path fill-rule="evenodd" clip-rule="evenodd" d="M66.9753 120.953C59.8988 124.586 53.7683 129.883 49.1516 136.354C47.2973 139.003 44.5727 142.561 45.0268 146.004C45.4431 149.486 49.0002 150.432 51.9519 150.772C60.7691 151.832 69.8513 151.189 78.4793 149.259C83.1339 148.199 87.6749 146.723 92.0646 144.869C96.2272 143.09 100.201 140.82 104.439 139.23C109.321 137.414 115.11 136.506 119.916 139.041C124.003 141.198 126.69 146.307 124.798 150.772C124.495 151.453 125.479 152.021 125.782 151.34C128.393 145.247 123.966 138.89 118.1 137.036C109.926 134.462 101.904 139.003 94.7514 142.409C86.2369 146.458 77.0034 148.994 67.5807 149.788C63.0775 150.167 58.4986 150.205 53.9954 149.826C52.0276 149.675 49.7192 149.599 47.9785 148.54C45.0646 146.761 46.2756 143.393 47.5622 140.971C52.1033 132.759 59.2555 126.137 67.5429 121.899C68.1862 121.596 67.6186 120.612 66.9753 120.953Z" fill="#141414"/>
<path fill-rule="evenodd" clip-rule="evenodd" d="M92.4416 163.487C90.0954 169.542 88.8088 175.9 88.5439 182.409C88.5061 183.128 89.6413 183.128 89.6792 182.409C89.9441 176.013 91.2685 169.769 93.5391 163.79C93.7661 163.109 92.6687 162.806 92.4416 163.487Z" fill="#141414"/>
<path fill-rule="evenodd" clip-rule="evenodd" d="M93.425 164.168C107.54 158.303 122.677 155.389 137.965 155.54C138.684 155.54 138.684 154.405 137.965 154.405C122.601 154.216 107.313 157.168 93.1222 163.071C92.4411 163.374 92.7438 164.471 93.425 164.168Z" fill="#141414"/>
<path fill-rule="evenodd" clip-rule="evenodd" d="M89.7545 182.598C92.8197 184.074 96.112 184.111 99.4421 183.809C103.264 183.43 107.086 182.863 110.87 182.181C118.931 180.781 126.878 178.776 134.673 176.24C135.354 176.013 135.052 174.916 134.37 175.143C127.256 177.451 120.028 179.305 112.725 180.706C108.978 181.425 105.232 181.992 101.448 182.446C97.7392 182.9 93.8415 183.279 90.36 181.614C89.6788 181.311 89.1112 182.295 89.7545 182.598Z" fill="#141414"/>
<path fill-rule="evenodd" clip-rule="evenodd" d="M138.004 155.427C139.517 162.276 138.344 169.391 134.749 175.408C134.371 176.051 135.355 176.619 135.733 175.975C139.517 169.693 140.69 162.276 139.101 155.124C138.95 154.443 137.852 154.746 138.004 155.427Z" fill="#141414"/>
<path fill-rule="evenodd" clip-rule="evenodd" d="M94.3701 167.423C101.711 166.098 109.091 165.152 116.508 164.509C117.227 164.433 117.227 163.298 116.508 163.374C108.977 163.979 101.484 164.963 94.0674 166.326C93.3484 166.439 93.6511 167.537 94.3701 167.423Z" fill="#141414"/>
<path fill-rule="evenodd" clip-rule="evenodd" d="M94.4846 172.002C103.113 170.866 111.741 170.034 120.406 169.58C121.125 169.542 121.125 168.407 120.406 168.445C111.741 168.899 103.075 169.731 94.4846 170.866C93.7656 170.98 93.7656 172.115 94.4846 172.002Z" fill="#141414"/>
<path fill-rule="evenodd" clip-rule="evenodd" d="M107.124 175.786C112.308 174.764 117.531 174.007 122.791 173.515C123.51 173.44 123.51 172.305 122.791 172.38C117.417 172.872 112.119 173.667 106.821 174.726C106.102 174.84 106.405 175.9 107.124 175.786Z" fill="#141414"/>
<path fill-rule="evenodd" clip-rule="evenodd" d="M129.792 162.768C128.581 163.109 128.165 161.406 128.619 160.573C129.073 159.741 130.171 159.249 131.079 159.703C131.912 160.119 132.441 161.33 131.874 162.163C131.344 162.92 130.322 163.033 129.603 162.541C128.998 162.125 128.43 163.109 129.036 163.525C130.322 164.395 132.252 163.941 132.971 162.541C133.804 160.99 132.744 158.946 131.117 158.492C129.452 158.038 127.598 159.249 127.295 160.952C127.03 162.541 128.392 164.32 130.095 163.866C130.776 163.676 130.474 162.579 129.792 162.768Z" fill="#141414"/>
<path fill-rule="evenodd" clip-rule="evenodd" d="M77.3801 270.883C79.6884 266.002 81.4292 258.774 74.6176 256.768C71.2875 255.784 67.5411 256.352 64.1353 256.693C59.7078 257.109 55.2803 257.677 50.8527 258.168C42.6031 259.077 34.2779 259.758 26.0283 258.698C18.4598 257.714 9.79398 255.255 4.30687 249.654C1.39302 246.664 0.106389 242.653 2.22555 238.831C4.07982 235.463 7.48561 233.193 10.7779 231.414C17.6651 227.706 25.4606 226.192 33.1426 225.208C40.6353 224.262 48.1659 223.732 55.6587 222.445C64.2867 220.97 72.7633 218.813 81.24 216.618C89.7545 214.385 98.9123 212.455 106.67 208.141C109.546 206.552 112.422 204.319 113.633 201.178C115.071 197.47 113.557 193.799 112.043 190.431C111.741 189.75 110.757 190.355 111.06 190.999C112.914 195.086 114.238 199.4 111.135 203.222C109.054 205.795 105.989 207.384 102.999 208.671C95.1659 212.077 86.7271 214.044 78.4775 216.164C70.2657 218.283 61.9783 220.326 53.5774 221.651C46.1224 222.824 38.5919 223.278 31.137 224.338C24.1362 225.321 17.0975 226.873 10.7779 230.165C5.63134 232.814 -0.915349 237.544 0.106389 244.205C1.05244 250.449 7.78835 254.271 13.0484 256.503C19.7843 259.342 27.1257 260.363 34.3914 260.401C43.8898 260.477 53.3125 258.925 62.7352 257.979C66.6707 257.601 72.0065 256.466 75.6772 258.396C80.3696 260.855 78.2126 266.683 76.4719 270.354C76.0934 270.959 77.0773 271.527 77.3801 270.883Z" fill="#141414"/>
<path fill-rule="evenodd" clip-rule="evenodd" d="M46.2721 297.827C48.8832 308.12 53.1594 317.883 58.9871 326.738C59.4033 327.344 60.3872 326.776 59.971 326.171C54.219 317.391 49.9428 307.704 47.3695 297.524C47.2182 296.843 46.1207 297.146 46.2721 297.827Z" fill="#141414"/>
<path fill-rule="evenodd" clip-rule="evenodd" d="M46.7295 298.092C52.1788 294.989 57.6659 291.999 63.2287 289.123C68.905 286.171 74.6192 283.031 80.5983 280.76C83.2472 279.776 87.7126 277.77 89.8696 280.382C91.6103 282.501 92.5942 285.642 93.6917 288.139C96.3406 294.118 98.7247 300.173 100.92 306.341C101.147 307.022 102.244 306.72 102.017 306.039C99.6707 299.454 97.0974 292.983 94.2593 286.588C93.1619 284.166 92.178 280.684 90.0588 278.906C88.2045 277.316 85.6691 278.035 83.55 278.603C77.1546 280.344 71.1377 283.825 65.2343 286.815C58.8012 290.107 52.4437 293.551 46.1619 297.108C45.5186 297.486 46.0862 298.47 46.7295 298.092Z" fill="#141414"/>
<path fill-rule="evenodd" clip-rule="evenodd" d="M60.7686 327.079C73.9755 319.397 89.6043 316.559 101.789 307.06C102.357 306.606 101.562 305.812 100.995 306.266C88.8853 315.688 73.2943 318.489 60.201 326.095C59.5576 326.436 60.1253 327.42 60.7686 327.079Z" fill="#141414"/>
<path fill-rule="evenodd" clip-rule="evenodd" d="M54.6373 317.467C55.5455 316.294 56.4916 315.159 57.3998 313.986C58.308 312.813 59.1784 311.45 60.5785 310.845C62.0544 310.239 64.06 310.428 65.6872 310.466C67.0874 310.466 68.4875 310.542 69.8499 310.618C72.4988 310.769 75.0342 310.958 77.6453 310.315C80.6349 309.596 83.3974 308.309 86.4626 307.969C87.1816 307.893 87.1816 306.758 86.4626 306.833C83.5109 307.174 80.8241 308.309 77.9859 309.066C74.5801 309.974 71.25 309.482 67.7685 309.369C65.271 309.293 61.7516 308.726 59.4811 310.088C58.3458 310.769 57.6268 311.942 56.8322 312.926C55.8483 314.175 54.8644 315.424 53.8426 316.672C53.3885 317.24 54.1832 318.035 54.6373 317.467Z" fill="#141414"/>
<path fill-rule="evenodd" clip-rule="evenodd" d="M76.2452 310.353C83.6622 305.547 88.1654 296.502 97.0205 294.005C97.7395 293.816 97.4368 292.718 96.7178 292.907C87.6735 295.481 83.2081 304.525 75.6775 309.369C75.0342 309.785 75.6018 310.769 76.2452 310.353Z" fill="#141414"/>
<path fill-rule="evenodd" clip-rule="evenodd" d="M67.9563 303.087C69.7349 302.86 71.0972 301.309 71.0594 299.492C71.0215 297.676 69.4321 296.389 67.6536 296.465C65.875 296.503 64.3613 297.789 64.3991 299.643C64.437 301.46 65.875 302.974 67.6536 303.125C68.3726 303.201 68.3726 302.065 67.6536 301.99C66.4805 301.914 65.5722 300.779 65.5344 299.643C65.4966 298.433 66.5183 297.638 67.6536 297.6C68.7888 297.562 69.8862 298.281 69.9241 299.492C69.9619 300.627 69.1294 301.8 67.9563 301.952C67.2373 302.028 67.2373 303.163 67.9563 303.087Z" fill="#141414"/>
</svg>
