<svg width="200" height="273" viewBox="0 0 200 273" fill="none" xmlns="http://www.w3.org/2000/svg">
<path fill-rule="evenodd" clip-rule="evenodd" d="M1.41321 82.3749C0.555735 63.9617 6.7837 45.4584 18.7432 31.4229C24.7907 24.2923 32.3274 18.1997 41.0375 14.6344C49.7025 11.024 60.8046 9.57986 69.1988 14.7247C76.555 19.2377 79.7592 27.8576 81.5645 35.8456C83.8661 45.9548 84.9041 56.425 85.7616 66.7598C87.3862 87.2038 85.6713 108.37 91.4028 128.272C95.6451 143.03 105.168 157.697 119.79 163.88C137.21 171.236 157.293 163.79 172.231 154.042C186.989 144.339 198.948 129.13 199.941 110.942C200.392 102.503 198.271 93.7025 193.036 86.9781C188.162 80.7502 180.535 76.6885 172.547 77.0495C165.055 77.3654 158.196 81.9687 155.307 88.9639C153.231 93.9733 153.231 104.308 160.813 104.534C163.747 104.624 166.635 102.729 168.124 100.246C169.975 97.1324 169.523 93.2061 168.124 90.047C164.378 81.5174 152.554 76.9141 152.103 66.8501C151.877 61.976 155.668 57.7789 160.452 57.2374C161.31 57.1471 161.31 55.7932 160.452 55.8834C153.592 56.6958 149.35 63.2397 151.245 69.8738C153.773 78.6742 163.386 82.5103 166.906 90.6788C168.756 94.9662 168.35 100.382 163.656 102.593C158.466 105.03 155.352 99.7951 155.397 95.1918C155.488 86.3463 163.34 79.1706 171.87 78.4937C180.941 77.7716 189.381 83.097 193.939 90.724C198.677 98.6217 199.625 108.325 197.775 117.215C194.029 135.493 179.813 149.122 163.792 157.472C155.217 161.939 145.74 165.324 135.991 165.595C127.056 165.821 118.526 163.023 111.531 157.517C97.4954 146.505 91.5834 128.814 89.5976 111.71C88.4694 101.871 88.3791 91.9425 88.0181 82.059C87.657 71.8595 86.8898 61.7052 85.5359 51.5509C83.6856 37.5155 81.745 17.8387 66.4007 11.9266C50.5149 5.78892 32.553 15.537 21.4961 26.5939C9.98794 38.1924 2.5866 53.6721 0.555738 69.8738C0.0141751 74.0709 -0.121216 78.268 0.104435 82.5103C0.104435 83.2323 1.45834 83.2323 1.41321 82.3749Z" fill="#141414"/>
<path fill-rule="evenodd" clip-rule="evenodd" d="M120.15 129.581C124.753 127.821 129.628 129.446 133.148 132.74C136.848 136.215 138.428 141.044 137.932 146.053C136.758 157.697 126.92 165.595 117.939 171.687C102.956 181.842 83.1434 195.652 83.3691 216.005C83.4594 224.399 87.3857 232.794 95.1932 236.539C103.587 240.556 113.426 238.886 121.369 234.689C125.656 232.433 129.537 229.454 133.238 226.295C137.345 222.775 141.497 219.074 144.791 214.742C147.589 211.041 149.711 206.799 150.252 202.15C150.749 198.089 150.026 192.899 146.732 190.055C139.917 184.188 128.138 197.773 135.765 202.602C137.932 204.001 140.549 203.865 143.031 204.001C145.829 204.181 148.537 204.858 151.019 206.167C155.893 208.694 159.639 213.072 161.219 218.352C161.489 219.164 162.798 218.848 162.527 217.991C160.361 210.815 154.404 205.084 147.093 203.233C143.437 202.331 133.103 203.64 134.727 197.231C136.126 191.77 143.618 186.671 147.364 192.899C150.072 197.412 149.259 203.414 147.273 208.017C145.152 212.846 141.542 216.818 137.751 220.428C130.756 227.062 122.903 233.922 113.381 236.494C104.264 238.977 93.5234 236.991 88.198 228.506C83.3691 220.789 84.0009 210.906 87.7919 202.917C91.8987 194.298 99.0744 187.348 106.476 181.481C114.238 175.298 123.354 170.695 130.35 163.609C136.623 157.246 141.813 147.227 138.383 138.156C135.675 130.98 127.461 125.429 119.789 128.317C118.977 128.588 119.293 129.897 120.15 129.581Z" fill="#141414"/>
<path fill-rule="evenodd" clip-rule="evenodd" d="M119.655 11.8809C120.016 14.679 123.13 16.078 125.702 15.9878C128.681 15.8975 130.396 13.8666 131.389 11.204C132.336 8.63155 132.427 5.74321 130.396 3.71235C128.636 1.90714 125.928 1.27532 123.581 2.17793C122.769 2.49384 123.13 3.80261 123.942 3.4867C127.869 1.99741 131.434 5.38217 130.531 9.39876C130.08 11.4296 128.997 13.8666 126.831 14.4985C124.619 15.0852 121.28 14.0923 120.964 11.5199C120.873 10.6624 119.565 11.0234 119.655 11.8809Z" fill="#141414"/>
<path fill-rule="evenodd" clip-rule="evenodd" d="M123.309 3.35141C127.461 -0.394396 136.217 1.0949 136.217 7.59365C136.217 8.45112 137.571 8.45112 137.571 7.59365C137.616 -0.123615 127.371 -2.15447 122.362 2.40368C121.685 2.99037 122.678 3.9381 123.309 3.35141Z" fill="#141414"/>
<path fill-rule="evenodd" clip-rule="evenodd" d="M119.744 11.7457C118.165 15.0402 120.015 18.9214 123.084 20.5912C126.694 22.5769 130.982 21.1328 133.915 18.6055C134.592 18.0188 133.599 17.0711 132.967 17.6577C130.756 19.5532 127.732 20.7266 124.799 19.824C121.865 18.9214 119.518 15.4012 120.917 12.4226C121.279 11.6554 120.15 10.9785 119.744 11.7457Z" fill="#141414"/>
<path fill-rule="evenodd" clip-rule="evenodd" d="M136.262 7.32279C136.262 8.40592 136.262 9.53417 136.262 10.6173C136.262 11.4748 137.616 11.4748 137.616 10.6173C137.616 9.53417 137.616 8.40592 137.616 7.32279C137.616 6.46532 136.262 6.46532 136.262 7.32279Z" fill="#141414"/>
<path fill-rule="evenodd" clip-rule="evenodd" d="M136.758 11.5652C148.447 15.1756 160.271 18.4701 172.185 21.3584C173.043 21.5841 173.404 20.2753 172.546 20.0497C160.632 17.1162 148.853 13.8668 137.119 10.2564C136.261 9.98561 135.9 11.2944 136.758 11.5652Z" fill="#141414"/>
<path fill-rule="evenodd" clip-rule="evenodd" d="M133.238 18.786C144.25 21.6292 155.036 25.2396 165.597 29.527C166.409 29.8429 166.77 28.5341 165.958 28.2182C155.442 23.9308 144.611 20.3204 133.599 17.4772C132.742 17.2516 132.381 18.5603 133.238 18.786Z" fill="#141414"/>
<path fill-rule="evenodd" clip-rule="evenodd" d="M172.681 21.1326C174.848 17.116 179.857 16.1231 183.332 19.192C183.964 19.7787 184.957 18.8309 184.28 18.2443C180.173 14.6338 174.126 15.6267 171.508 20.4556C171.102 21.2228 172.275 21.8998 172.681 21.1326Z" fill="#141414"/>
<path fill-rule="evenodd" clip-rule="evenodd" d="M164.423 29.1659C165.281 29.1659 165.281 27.812 164.423 27.812C163.52 27.812 163.52 29.1659 164.423 29.1659Z" fill="#141414"/>
<path fill-rule="evenodd" clip-rule="evenodd" d="M165.551 29.5719C166.093 36.2963 173.268 38.643 178.774 35.8901C179.271 35.6644 179.181 34.9875 178.774 34.7167C176.067 32.8664 174.983 29.3011 176.067 26.2322C177.195 23.028 180.173 21.0423 183.333 20.275C184.19 20.0945 183.829 18.7857 182.971 18.9663C179.135 19.8689 175.615 22.5316 174.577 26.4579C173.629 30.0232 175.074 33.8141 178.097 35.8901C178.097 35.4839 178.097 35.1229 178.097 34.7167C173.584 36.9732 167.356 35.2131 166.905 29.5719C166.815 28.7144 165.461 28.7144 165.551 29.5719Z" fill="#141414"/>
<path fill-rule="evenodd" clip-rule="evenodd" d="M182.971 19.4178C182.971 20.501 182.926 21.5841 182.926 22.6672C183.106 22.4416 183.242 22.2159 183.422 22.0354C179.18 23.7955 174.893 26.4582 174.667 31.5579C174.622 32.4153 175.976 32.4153 176.021 31.5579C176.202 27.1802 180.128 24.8786 183.783 23.3442C184.054 23.2088 184.28 23.0283 184.28 22.7124C184.28 21.6292 184.325 20.5461 184.325 19.463C184.37 18.5604 183.016 18.5604 182.971 19.4178Z" fill="#141414"/>
<path fill-rule="evenodd" clip-rule="evenodd" d="M175.706 29.1659C176.564 29.1659 176.564 27.812 175.706 27.812C174.804 27.812 174.804 29.1659 175.706 29.1659Z" fill="#141414"/>
<path fill-rule="evenodd" clip-rule="evenodd" d="M175.977 28.6689C177.015 25.8709 178.91 23.5692 181.437 21.9897C181.167 21.6286 180.896 21.2676 180.625 20.9066C179.271 22.6666 177.737 24.2913 176.022 25.7355C176.383 26.0063 176.744 26.277 177.105 26.5478C177.556 25.555 178.098 24.6975 178.865 23.9303C179.497 23.3436 180.851 22.1702 181.798 22.3056C181.618 22.2153 181.392 22.0799 181.212 21.9897V21.9445C180.941 22.6666 182.114 23.1631 182.43 22.4861C182.566 22.1702 182.746 21.8543 182.881 21.5384C182.475 21.403 182.024 21.3127 181.618 21.1773C181.482 21.403 181.347 21.6286 181.212 21.8543C181.528 22.1702 181.843 22.4861 182.159 22.802C182.43 22.2153 182.746 21.8092 183.243 21.3579C182.881 21.0871 182.52 20.8163 182.159 20.5455C181.167 22.0799 179.813 23.1631 178.143 23.8851C177.33 24.2462 178.053 25.4196 178.82 25.0585C180.715 24.2462 182.205 22.9374 183.333 21.2225C183.784 20.5455 182.836 19.9137 182.25 20.4101C181.663 20.9066 181.302 21.403 180.986 22.1251C180.715 22.6666 181.302 23.5241 181.934 23.0728C182.611 22.5764 182.881 22.0348 183.017 21.2225C183.107 20.5455 182.024 20.2747 181.753 20.8614C181.618 21.1773 181.437 21.4932 181.302 21.8092C181.708 21.9897 182.114 22.1702 182.52 22.3507C183.243 20.5906 180.806 21.1322 180.083 21.5384C178.233 22.4861 176.789 24.0657 175.931 25.9611C175.616 26.6381 176.383 27.315 177.015 26.7735C178.73 25.3293 180.264 23.7046 181.618 21.9445C182.069 21.403 181.528 20.4553 180.805 20.8614C177.962 22.6215 175.886 25.1939 174.713 28.353C174.397 29.1203 175.706 29.4813 175.977 28.6689Z" fill="#141414"/>
<path fill-rule="evenodd" clip-rule="evenodd" d="M183.695 22.6219C183.695 22.667 183.65 22.667 183.65 22.7121C183.559 22.8024 183.469 22.8927 183.424 22.9378C183.243 23.028 183.108 22.9829 182.928 22.8927C182.882 22.8024 182.792 22.7121 182.747 22.5767C182.792 22.6219 182.792 22.5767 182.747 22.7121C183.153 22.667 183.559 22.6219 183.966 22.5316C183.83 22.2608 183.74 21.8998 183.785 21.5839C183.83 21.2228 183.695 20.8618 183.334 20.7715C183.018 20.6813 182.566 20.8618 182.521 21.2228C182.431 21.7644 182.341 22.2608 182.251 22.8024C182.205 23.1634 182.341 23.5245 182.702 23.6147C183.018 23.705 183.469 23.5245 183.514 23.1634C183.604 22.6219 183.695 22.1254 183.785 21.5839C183.334 21.4485 182.928 21.3582 182.476 21.2228C182.386 21.9449 182.476 22.5767 182.792 23.2086C183.063 23.7501 183.875 23.5696 184.011 23.028C184.191 22.4865 184.101 21.8095 183.469 21.629C183.018 21.4936 182.431 21.7193 182.341 22.2157C182.296 22.5767 182.431 22.9378 182.792 23.028C183.153 23.2086 183.604 22.9829 183.695 22.6219Z" fill="#141414"/>
<path fill-rule="evenodd" clip-rule="evenodd" d="M122.588 3.39701C122.633 4.84118 123.491 5.9243 124.799 6.60126C126.424 7.45873 130.125 7.50386 129.854 10.1214C129.764 10.9789 131.118 10.9789 131.208 10.1214C131.343 8.67725 130.486 7.50386 129.267 6.78178C127.642 5.87917 124.032 5.87917 123.987 3.39701C123.942 2.53954 122.588 2.53954 122.588 3.39701Z" fill="#141414"/>
<path fill-rule="evenodd" clip-rule="evenodd" d="M123.715 4.61479C124.212 4.84045 124.573 5.33688 124.437 5.92357C124.844 5.87844 125.25 5.83331 125.656 5.74305C125.52 5.56253 125.295 5.33688 125.25 5.15636C125.069 4.52453 125.34 4.61479 125.475 5.20149C125.566 5.69792 125.656 6.10409 125.882 6.55539C126.152 6.23948 126.378 5.87844 126.649 5.56253C125.746 5.20149 125.295 4.25375 125.566 3.30602C125.295 3.44141 125.024 3.62193 124.753 3.75732C125.927 4.16349 126.694 5.11123 127.01 6.28461C127.281 6.01383 127.551 5.74305 127.822 5.47227C127.1 5.33688 126.694 4.88558 126.739 4.11836C126.558 4.34401 126.423 4.56966 126.243 4.75018C127.958 4.34401 128.499 6.42 128.68 7.63852C129.041 7.41287 129.447 7.18722 129.808 6.96157C129.131 6.14922 128.454 4.97584 127.551 4.43427C128.454 4.97584 129.086 5.92357 129.402 6.91643C129.763 6.69078 130.169 6.46513 130.53 6.23948C129.176 5.11123 127.822 3.98297 126.468 2.89985C126.288 3.30602 126.152 3.66706 125.972 4.07323C128.454 3.98297 129.357 6.51026 129.672 8.54112C129.808 9.3986 131.117 9.03755 130.981 8.18008C130.575 5.5174 129.041 2.62907 125.972 2.71933C125.43 2.71933 125.024 3.48654 125.475 3.89271C126.829 5.02097 128.183 6.14922 129.537 7.23235C130.034 7.63852 130.891 7.27748 130.665 6.55539C130.304 5.38201 128.589 2.22289 126.92 3.1255C124.934 4.16349 128.183 7.14209 128.815 7.9093C129.266 8.49599 130.034 7.86417 129.943 7.23235C129.582 5.15636 128.319 2.76446 125.836 3.39628C125.52 3.48654 125.34 3.75732 125.34 4.0281C125.25 5.33688 126.107 6.46513 127.416 6.69078C127.912 6.78104 128.364 6.37487 128.228 5.87844C127.822 4.20862 126.649 2.99011 125.024 2.40341C124.663 2.26802 124.257 2.5388 124.212 2.85472C123.76 4.56966 124.663 6.14922 126.243 6.78104C126.829 7.0067 127.281 6.23948 127.01 5.78818C126.468 4.84045 126.513 2.5388 124.708 3.1255C123.219 3.62193 123.76 5.42714 124.437 6.32974C124.753 6.73591 125.566 6.78104 125.656 6.14922C125.882 4.97584 125.43 3.84758 124.302 3.30602C123.625 3.03524 122.948 4.20862 123.715 4.61479Z" fill="#141414"/>
<path fill-rule="evenodd" clip-rule="evenodd" d="M160.541 263.798C165.551 256.396 171.102 249.446 177.149 242.857C177.736 242.225 176.788 241.278 176.202 241.91C170.064 248.544 164.468 255.629 159.413 263.121C158.872 263.843 160.045 264.52 160.541 263.798Z" fill="#141414"/>
<path fill-rule="evenodd" clip-rule="evenodd" d="M177.557 241.549C176.7 238.254 177.015 234.734 178.775 231.755C179.588 230.356 180.716 229.048 182.115 228.235C183.334 227.558 187.666 226.52 187.982 228.822C188.117 229.679 189.426 229.318 189.291 228.461C189.02 226.746 186.989 226.159 185.455 226.069C183.243 225.934 181.167 226.926 179.633 228.416C176.068 231.846 175.075 237.216 176.248 241.865C176.429 242.767 177.738 242.406 177.557 241.549Z" fill="#141414"/>
<path fill-rule="evenodd" clip-rule="evenodd" d="M188.027 228.145C185.906 231.169 183.062 237.216 188.072 239.337C192.179 241.052 195.473 237.171 195.518 233.335C195.518 232.478 194.164 232.478 194.164 233.335C194.164 235.005 193.578 236.765 192.088 237.758C190.734 238.615 188.749 238.615 187.575 237.442C185.048 234.915 187.575 231.124 189.155 228.867C189.697 228.145 188.523 227.468 188.027 228.145Z" fill="#141414"/>
<path fill-rule="evenodd" clip-rule="evenodd" d="M195.112 233.877C196.917 233.426 197.639 237.984 197.729 239.022C197.91 241.053 197.368 242.813 195.969 244.347C193.893 246.649 190.869 247.461 187.891 247.867C187.033 248.003 187.394 249.311 188.252 249.176C192.674 248.589 197.594 246.558 198.857 241.82C199.534 239.247 198.767 231.575 194.75 232.523C193.893 232.749 194.254 234.057 195.112 233.877Z" fill="#141414"/>
<path fill-rule="evenodd" clip-rule="evenodd" d="M186.673 248.228C180.129 254.862 173.811 261.677 167.673 268.717C167.086 269.349 168.034 270.342 168.621 269.665C174.758 262.669 181.122 255.81 187.62 249.175C188.252 248.589 187.304 247.596 186.673 248.228Z" fill="#141414"/>
<path fill-rule="evenodd" clip-rule="evenodd" d="M159.007 264.61C160.316 268.131 163.791 270.477 167.582 270.207C168.44 270.161 168.44 268.808 167.582 268.853C164.423 269.078 161.444 267.273 160.316 264.249C160.045 263.437 158.737 263.798 159.007 264.61Z" fill="#141414"/>
<path fill-rule="evenodd" clip-rule="evenodd" d="M174.532 263.662C177.871 267.318 181.662 272.463 187.123 272.463C187.981 272.463 187.981 271.109 187.123 271.109C182.159 271.064 178.548 266.009 175.525 262.669C174.893 262.083 173.945 263.031 174.532 263.662Z" fill="#141414"/>
<path fill-rule="evenodd" clip-rule="evenodd" d="M183.468 254.05C187.801 256.126 191.186 259.42 193.307 263.708C193.713 264.475 194.841 263.798 194.48 263.031C192.269 258.563 188.658 254.997 184.145 252.876C183.378 252.515 182.701 253.689 183.468 254.05Z" fill="#141414"/>
<path fill-rule="evenodd" clip-rule="evenodd" d="M187.575 272.192C191.23 270.793 193.893 267.724 194.751 263.888C194.931 263.031 193.622 262.669 193.442 263.527C192.72 266.867 190.418 269.62 187.214 270.883C186.401 271.199 186.762 272.508 187.575 272.192Z" fill="#141414"/>
<path fill-rule="evenodd" clip-rule="evenodd" d="M167.041 253.102C165.822 252.425 163.611 251.161 164.468 249.401C164.829 248.634 163.701 247.912 163.295 248.724C162.076 251.251 164.378 253.147 166.364 254.275C167.086 254.727 167.763 253.553 167.041 253.102Z" fill="#141414"/>
<path fill-rule="evenodd" clip-rule="evenodd" d="M163.611 248.183C163.341 248.183 162.619 248.273 162.438 248.138C162.032 247.777 162.167 246.649 162.393 246.243C162.754 245.52 163.566 244.753 164.108 244.167C164.604 243.67 165.101 243.129 165.642 242.677C165.958 242.406 166.319 242.091 166.725 241.865C167.402 241.504 169.253 240.962 169.027 242.677C168.937 243.535 170.291 243.535 170.381 242.677C170.561 241.278 169.388 240.15 167.989 240.105C166.139 240.06 164.514 241.82 163.295 243.038C162.212 244.167 160.407 245.836 160.497 247.596C160.588 249.266 162.167 249.627 163.566 249.582C164.469 249.492 164.469 248.138 163.611 248.183Z" fill="#141414"/>
<path fill-rule="evenodd" clip-rule="evenodd" d="M170.066 242.947C171.69 242.992 173.044 243.94 173.721 245.384C174.127 246.152 175.256 245.475 174.895 244.707C173.992 242.857 172.096 241.684 170.066 241.593C169.163 241.548 169.163 242.902 170.066 242.947Z" fill="#141414"/>
<path fill-rule="evenodd" clip-rule="evenodd" d="M162.076 243.489C159.549 241.232 157.112 238.931 154.72 236.539C153.682 235.501 152.689 234.418 151.787 233.289C151.155 232.522 150.568 231.71 150.027 230.852C149.485 229.995 149.034 229.814 150.027 230.266C151.29 230.807 152.78 232.387 153.818 233.289C154.991 234.282 156.119 235.365 157.247 236.449C159.459 238.615 161.535 240.916 163.43 243.353C163.972 244.03 164.92 243.083 164.378 242.406C161.806 239.156 159.008 236.133 155.939 233.38C154.54 232.116 153.095 230.943 151.651 229.814C150.839 229.183 149.575 227.964 148.492 228.686C145.333 230.762 159.459 243.083 161.084 244.527C161.806 245.023 162.753 244.076 162.076 243.489Z" fill="#141414"/>
</svg>
