<svg width="200" height="273" viewBox="0 0 200 273" fill="none" xmlns="http://www.w3.org/2000/svg">
<path fill-rule="evenodd" clip-rule="evenodd" d="M198.587 82.3744C199.444 63.9613 193.216 45.4579 181.257 31.4224C175.209 24.2918 167.673 18.1992 158.962 14.6339C150.297 11.0235 139.195 9.57937 130.801 14.7242C123.445 19.2372 120.241 27.8571 118.436 35.8451C116.134 45.9543 115.096 56.4245 114.238 66.7593C112.614 87.2033 114.329 108.369 108.597 128.272C104.355 143.029 94.8324 157.697 80.2103 163.88C62.79 171.236 42.7071 163.789 27.769 154.041C13.0114 144.338 1.05188 129.129 0.0590191 110.942C-0.392283 102.502 1.72883 93.7021 6.96393 86.9777C11.838 80.7497 19.465 76.688 27.4531 77.049C34.9447 77.3649 41.8045 81.9682 44.6928 88.9634C46.7688 93.9728 46.7688 104.308 39.1869 104.533C36.2534 104.624 33.3651 102.728 31.8758 100.246C30.0255 97.132 30.4768 93.2056 31.8758 90.0465C35.6216 81.5169 47.4457 76.9136 47.897 66.8496C48.1227 61.9755 44.3318 57.7784 39.5479 57.2369C38.6905 57.1466 38.6905 55.7927 39.5479 55.883C46.4077 56.6953 50.65 63.2392 48.7545 69.8733C46.2272 78.6737 36.6145 82.5098 33.0943 90.6783C31.244 94.9657 31.6502 100.381 36.3437 102.593C41.5337 105.03 44.6477 99.7946 44.6025 95.1914C44.5123 86.3458 36.6596 79.1701 28.13 78.4932C19.0588 77.7711 10.6195 83.0965 6.06133 90.7235C1.32266 98.6213 0.374925 108.324 2.22526 117.215C5.97107 135.493 20.1871 149.122 36.2083 157.471C44.783 161.939 54.2604 165.324 64.0085 165.594C72.9443 165.82 81.4739 163.022 88.4691 157.516C102.505 146.504 108.417 128.813 110.402 111.709C111.531 101.871 111.621 91.942 111.982 82.0585C112.343 71.859 113.11 61.7048 114.464 51.5505C116.314 37.515 118.255 17.8382 133.599 11.9261C149.485 5.78843 167.447 15.5366 178.504 26.5935C190.012 38.1919 197.413 53.6716 199.444 69.8733C199.986 74.0704 200.121 78.2675 199.896 82.5098C199.896 83.2319 198.542 83.2319 198.587 82.3744Z" fill="#141414"/>
<path fill-rule="evenodd" clip-rule="evenodd" d="M79.8498 129.58C75.2465 127.82 70.3724 129.445 66.8523 132.74C63.1516 136.215 61.5721 141.043 62.0685 146.053C63.2419 157.697 73.0803 165.594 82.0612 171.687C97.0444 181.841 116.857 195.651 116.631 216.005C116.541 224.399 112.614 232.793 104.807 236.539C96.4126 240.556 86.5742 238.886 78.6313 234.689C74.3439 232.432 70.4627 229.454 66.762 226.294C62.6552 222.774 58.5032 219.074 55.2087 214.741C52.4106 211.04 50.2895 206.798 49.7479 202.15C49.2515 198.088 49.9736 192.898 53.2681 190.055C60.0828 184.188 71.8617 197.772 64.2347 202.601C62.0685 204 59.4509 203.865 56.9688 204C54.1707 204.181 51.4629 204.858 48.9807 206.166C44.1067 208.694 40.3609 213.071 38.7813 218.352C38.5105 219.164 37.2018 218.848 37.4725 217.99C39.6388 210.815 45.596 205.083 52.907 203.233C56.5626 202.33 66.8974 203.639 65.2727 197.231C63.8737 191.77 56.3821 186.67 52.6363 192.898C49.9285 197.411 50.7408 203.413 52.7265 208.017C54.8477 212.846 58.4581 216.817 62.249 220.428C69.2442 227.062 77.0968 233.921 86.6193 236.494C95.7356 238.976 106.477 236.99 111.802 228.506C116.631 220.789 115.999 210.905 112.208 202.917C108.101 194.297 100.926 187.347 93.5242 181.48C85.7618 175.297 76.6455 170.694 69.6504 163.609C63.3773 157.245 58.1873 147.226 61.6172 138.155C64.325 130.979 72.5387 125.428 80.2108 128.317C81.0232 128.588 80.7073 129.896 79.8498 129.58Z" fill="#141414"/>
<path fill-rule="evenodd" clip-rule="evenodd" d="M80.3451 11.8814C79.9841 14.6795 76.8701 16.0785 74.2977 15.9883C71.3191 15.898 69.6042 13.8671 68.6113 11.2045C67.6636 8.63203 67.5733 5.7437 69.6041 3.71284C71.3642 1.90763 74.072 1.27581 76.4188 2.17841C77.2312 2.49433 76.8701 3.8031 76.0578 3.48719C72.1315 1.99789 68.5662 5.38266 69.4688 9.39925C69.9201 11.4301 71.0032 13.8671 73.1694 14.499C75.3808 15.0857 78.7205 14.0928 79.0364 11.5204C79.1266 10.6629 80.4354 11.0239 80.3451 11.8814Z" fill="#141414"/>
<path fill-rule="evenodd" clip-rule="evenodd" d="M76.6905 3.35141C72.5385 -0.394396 63.7833 1.0949 63.7833 7.59365C63.7833 8.45112 62.4294 8.45112 62.4294 7.59365C62.3842 -0.123615 72.6288 -2.15447 77.6383 2.40368C78.3152 2.99037 77.3223 3.9381 76.6905 3.35141Z" fill="#141414"/>
<path fill-rule="evenodd" clip-rule="evenodd" d="M80.2559 11.7457C81.8355 15.0402 79.9851 18.9214 76.9163 20.5912C73.3059 22.5769 69.0185 21.1328 66.085 18.6055C65.4081 18.0188 66.401 17.0711 67.0328 17.6577C69.2442 19.5532 72.2679 20.7266 75.2013 19.824C78.1348 18.9214 80.4816 15.4012 79.0825 12.4226C78.7215 11.6554 79.8497 10.9785 80.2559 11.7457Z" fill="#141414"/>
<path fill-rule="evenodd" clip-rule="evenodd" d="M63.7383 7.32279C63.7383 8.40592 63.7383 9.53417 63.7383 10.6173C63.7383 11.4748 62.3844 11.4748 62.3844 10.6173C62.3844 9.53417 62.3844 8.40592 62.3844 7.32279C62.3844 6.46532 63.7383 6.46532 63.7383 7.32279Z" fill="#141414"/>
<path fill-rule="evenodd" clip-rule="evenodd" d="M63.2421 11.5652C51.5534 15.1756 39.7293 18.4701 27.8149 21.3584C26.9574 21.5841 26.5964 20.2753 27.4539 20.0497C39.3682 17.1162 51.1472 13.8668 62.8811 10.2564C63.7386 9.98561 64.0996 11.2944 63.2421 11.5652Z" fill="#141414"/>
<path fill-rule="evenodd" clip-rule="evenodd" d="M66.7617 18.786C55.7499 21.6292 44.9638 25.2396 34.4033 29.527C33.591 29.8429 33.2299 28.5341 34.0423 28.2182C44.5576 23.9308 55.3889 20.3204 66.4006 17.4772C67.2581 17.2516 67.6191 18.5603 66.7617 18.786Z" fill="#141414"/>
<path fill-rule="evenodd" clip-rule="evenodd" d="M27.3186 21.1331C25.1523 17.1165 20.1429 16.1236 16.6678 19.1925C16.036 19.7792 15.0432 18.8314 15.7201 18.2447C19.827 14.6343 25.8744 15.6272 28.492 20.4561C28.8981 21.2233 27.7248 21.9003 27.3186 21.1331Z" fill="#141414"/>
<path fill-rule="evenodd" clip-rule="evenodd" d="M35.577 29.1654C34.7195 29.1654 34.7195 27.8115 35.577 27.8115C36.4796 27.8115 36.4796 29.1654 35.577 29.1654Z" fill="#141414"/>
<path fill-rule="evenodd" clip-rule="evenodd" d="M34.4488 29.5719C33.9072 36.2963 26.7315 38.643 21.2257 35.8901C20.7292 35.6644 20.8195 34.9875 21.2257 34.7167C23.9335 32.8664 25.0166 29.3011 23.9335 26.2322C22.8052 23.028 19.8266 21.0423 16.6675 20.275C15.81 20.0945 16.1711 18.7857 17.0285 18.9663C20.8646 19.8689 24.3848 22.5316 25.4228 26.4579C26.3705 30.0232 24.9263 33.8141 21.9026 35.8901C21.9026 35.4839 21.9026 35.1229 21.9026 34.7167C26.4156 36.9732 32.6436 35.2131 33.0949 29.5719C33.1852 28.7144 34.5391 28.7144 34.4488 29.5719Z" fill="#141414"/>
<path fill-rule="evenodd" clip-rule="evenodd" d="M17.0289 19.4178C17.0289 20.501 17.0741 21.5841 17.0741 22.6672C16.8936 22.4416 16.7581 22.2159 16.5776 22.0354C20.8199 23.7955 25.1072 26.4582 25.3329 31.5579C25.378 32.4153 24.0241 32.4153 23.979 31.5579C23.7985 27.1802 19.8721 24.8786 16.2166 23.3442C15.9458 23.2088 15.7202 23.0283 15.7202 22.7124C15.7202 21.6292 15.675 20.5461 15.675 19.463C15.6299 18.5604 16.9838 18.5604 17.0289 19.4178Z" fill="#141414"/>
<path fill-rule="evenodd" clip-rule="evenodd" d="M24.2938 29.1654C23.4363 29.1654 23.4363 27.8115 24.2938 27.8115C25.1964 27.8115 25.1964 29.1654 24.2938 29.1654Z" fill="#141414"/>
<path fill-rule="evenodd" clip-rule="evenodd" d="M24.0234 28.6689C22.9854 25.8709 21.09 23.5692 18.5627 21.9897C18.8335 21.6286 19.1042 21.2676 19.375 20.9066C20.7289 22.6666 22.2633 24.2913 23.9783 25.7355C23.6172 26.0063 23.2562 26.277 22.8952 26.5478C22.4439 25.555 21.9023 24.6975 21.1351 23.9303C20.5033 23.3436 19.1494 22.1702 18.2016 22.3056C18.3822 22.2153 18.6078 22.0799 18.7883 21.9897V21.9445C19.0591 22.6666 17.8857 23.1631 17.5698 22.4861C17.4344 22.1702 17.2539 21.8543 17.1185 21.5384C17.5247 21.403 17.976 21.3127 18.3821 21.1773C18.5175 21.403 18.6529 21.6286 18.7883 21.8543C18.4724 22.1702 18.1565 22.4861 17.8406 22.802C17.5698 22.2153 17.2539 21.8092 16.7575 21.3579C17.1185 21.0871 17.4796 20.8163 17.8406 20.5455C18.8335 22.0799 20.1874 23.1631 21.8572 23.8851C22.6695 24.2462 21.9474 25.4196 21.1802 25.0585C19.2848 24.2462 17.7955 22.9374 16.6672 21.2225C16.2159 20.5455 17.1636 19.9137 17.7503 20.4101C18.337 20.9066 18.6981 21.403 19.014 22.1251C19.2848 22.6666 18.6981 23.5241 18.0663 23.0728C17.3893 22.5764 17.1185 22.0348 16.9831 21.2225C16.8929 20.5455 17.976 20.2747 18.2468 20.8614C18.3821 21.1773 18.5627 21.4932 18.6981 21.8092C18.2919 21.9897 17.8857 22.1702 17.4795 22.3507C16.7575 20.5906 19.1945 21.1322 19.9166 21.5384C21.7669 22.4861 23.2111 24.0657 24.0686 25.9611C24.3845 26.6381 23.6172 27.315 22.9854 26.7735C21.2705 25.3293 19.736 23.7046 18.3821 21.9445C17.9308 21.403 18.4724 20.4553 19.1945 20.8614C22.0377 22.6215 24.1137 25.1939 25.2871 28.353C25.603 29.1203 24.2942 29.4813 24.0234 28.6689Z" fill="#141414"/>
<path fill-rule="evenodd" clip-rule="evenodd" d="M16.3053 22.6224C16.3053 22.6675 16.3504 22.6675 16.3504 22.7126C16.4406 22.8029 16.5309 22.8931 16.576 22.9383C16.7566 23.0285 16.892 22.9834 17.0725 22.8931C17.1176 22.8029 17.2079 22.7126 17.253 22.5772C17.2079 22.6224 17.2079 22.5772 17.253 22.7126C16.8468 22.6675 16.4407 22.6224 16.0345 22.5321C16.1699 22.2613 16.2601 21.9003 16.215 21.5844C16.1699 21.2233 16.3053 20.8623 16.6663 20.772C16.9822 20.6818 17.4335 20.8623 17.4786 21.2233C17.5689 21.7649 17.6592 22.2613 17.7494 22.8029C17.7946 23.1639 17.6592 23.525 17.2981 23.6152C16.9822 23.7055 16.5309 23.525 16.4858 23.1639C16.3955 22.6224 16.3053 22.1259 16.215 21.5844C16.6663 21.449 17.0725 21.3587 17.5238 21.2233C17.614 21.9454 17.5238 22.5772 17.2079 23.2091C16.9371 23.7506 16.1247 23.5701 15.9893 23.0285C15.8088 22.487 15.8991 21.81 16.5309 21.6295C16.9822 21.4941 17.5689 21.7198 17.6592 22.2162C17.7043 22.5772 17.5689 22.9383 17.2079 23.0285C16.8468 23.2091 16.3955 22.9834 16.3053 22.6224Z" fill="#141414"/>
<path fill-rule="evenodd" clip-rule="evenodd" d="M77.4121 3.39701C77.367 4.84118 76.5095 5.9243 75.2007 6.60126C73.576 7.45873 69.8753 7.50386 70.1461 10.1214C70.2364 10.9789 68.8825 10.9789 68.7922 10.1214C68.6568 8.67725 69.5143 7.50386 70.7328 6.78178C72.3575 5.87917 75.9679 5.87917 76.0131 3.39701C76.0582 2.53954 77.4121 2.53954 77.4121 3.39701Z" fill="#141414"/>
<path fill-rule="evenodd" clip-rule="evenodd" d="M76.2847 4.61528C75.7883 4.84093 75.4273 5.33737 75.5626 5.92406C75.1565 5.87893 74.7503 5.8338 74.3441 5.74354C74.4795 5.56302 74.7052 5.33737 74.7503 5.15685C74.9308 4.52502 74.66 4.61528 74.5247 5.20198C74.4344 5.69841 74.3441 6.10458 74.1185 6.55588C73.8477 6.23997 73.6221 5.87893 73.3513 5.56302C74.2539 5.20198 74.7052 4.25424 74.4344 3.30651C74.7052 3.4419 74.9759 3.62242 75.2467 3.75781C74.0733 4.16398 73.3061 5.11172 72.9902 6.2851C72.7194 6.01432 72.4487 5.74354 72.1779 5.47276C72.9 5.33737 73.3061 4.88606 73.261 4.11885C73.4415 4.3445 73.5769 4.57015 73.7574 4.75067C72.0425 4.3445 71.5009 6.42049 71.3204 7.63901C70.9594 7.41336 70.5532 7.1877 70.1922 6.96205C70.8691 6.14971 71.5461 4.97632 72.4487 4.43476C71.5461 4.97632 70.9142 5.92406 70.5983 6.91692C70.2373 6.69127 69.8311 6.46562 69.4701 6.23997C70.824 5.11171 72.1779 3.98346 73.5318 2.90033C73.7123 3.30651 73.8477 3.66755 74.0282 4.07372C71.5461 3.98346 70.6435 6.51075 70.3275 8.54161C70.1922 9.39908 68.8834 9.03804 69.0188 8.18057C69.4249 5.51789 70.9594 2.62955 74.0282 2.71981C74.5698 2.71981 74.976 3.48703 74.5247 3.8932C73.1707 5.02145 71.8168 6.14971 70.4629 7.23283C69.9665 7.63901 69.109 7.27796 69.3347 6.55588C69.6957 5.3825 71.4107 2.22338 73.0805 3.12599C75.0662 4.16398 71.8168 7.14257 71.185 7.90979C70.7337 8.49648 69.9665 7.86466 70.0567 7.23283C70.4178 5.15685 71.6815 2.76494 74.1636 3.39677C74.4795 3.48703 74.66 3.75781 74.66 4.02859C74.7503 5.33737 73.8928 6.46562 72.5841 6.69127C72.0876 6.78153 71.6363 6.37536 71.7717 5.87893C72.1779 4.20911 73.3513 2.9906 74.976 2.4039C75.337 2.26851 75.7432 2.53929 75.7883 2.8552C76.2396 4.57015 75.337 6.14971 73.7574 6.78153C73.1707 7.00718 72.7194 6.23997 72.9902 5.78867C73.5318 4.84093 73.4867 2.53929 75.2919 3.12599C76.7812 3.62242 76.2396 5.42763 75.5626 6.33023C75.2467 6.7364 74.4344 6.78153 74.3441 6.14971C74.1185 4.97632 74.5698 3.84807 75.698 3.30651C76.375 3.03573 77.052 4.20911 76.2847 4.61528Z" fill="#141414"/>
<path fill-rule="evenodd" clip-rule="evenodd" d="M39.4586 263.798C34.4491 256.396 28.8981 249.446 22.8507 242.857C22.264 242.225 23.2117 241.278 23.7984 241.91C29.9361 248.544 35.5323 255.629 40.5869 263.121C41.1284 263.843 39.955 264.52 39.4586 263.798Z" fill="#141414"/>
<path fill-rule="evenodd" clip-rule="evenodd" d="M22.443 241.549C23.3005 238.254 22.9846 234.734 21.2245 231.755C20.4122 230.356 19.2839 229.048 17.8849 228.235C16.6664 227.558 12.3339 226.52 12.0179 228.822C11.8826 229.679 10.5738 229.318 10.7092 228.461C10.9799 226.746 13.0108 226.159 14.5452 226.069C16.7566 225.934 18.8326 226.926 20.367 228.416C23.9323 231.846 24.9252 237.216 23.7518 241.865C23.5713 242.767 22.2625 242.406 22.443 241.549Z" fill="#141414"/>
<path fill-rule="evenodd" clip-rule="evenodd" d="M11.9733 228.145C14.0944 231.168 16.9376 237.216 11.9282 239.337C7.82132 241.052 4.52682 237.171 4.48169 233.334C4.48169 232.477 5.83559 232.477 5.83559 233.334C5.83559 235.004 6.4223 236.764 7.9116 237.757C9.2655 238.615 11.2512 238.615 12.4246 237.441C14.9519 234.914 12.4246 231.123 10.8451 228.867C10.3035 228.145 11.4769 227.468 11.9733 228.145Z" fill="#141414"/>
<path fill-rule="evenodd" clip-rule="evenodd" d="M4.88848 233.877C3.08328 233.426 2.3612 237.984 2.27094 239.022C2.09042 241.053 2.63196 242.813 4.031 244.347C6.10699 246.649 9.13072 247.461 12.1093 247.867C12.9668 248.003 12.6057 249.311 11.7483 249.176C7.32552 248.589 2.40633 246.558 1.14269 241.82C0.465733 239.247 1.23294 231.575 5.24952 232.523C6.10699 232.749 5.74596 234.057 4.88848 233.877Z" fill="#141414"/>
<path fill-rule="evenodd" clip-rule="evenodd" d="M13.3273 248.227C19.8712 254.861 26.1894 261.676 32.3271 268.716C32.9138 269.348 31.9661 270.341 31.3794 269.664C25.2417 262.669 18.8783 255.809 12.3796 249.175C11.7478 248.588 12.6955 247.595 13.3273 248.227Z" fill="#141414"/>
<path fill-rule="evenodd" clip-rule="evenodd" d="M40.9926 264.61C39.6839 268.13 36.2088 270.477 32.4179 270.206C31.5604 270.161 31.5604 268.807 32.4179 268.852C35.577 269.078 38.5556 267.273 39.6838 264.249C39.9546 263.437 41.2634 263.798 40.9926 264.61Z" fill="#141414"/>
<path fill-rule="evenodd" clip-rule="evenodd" d="M25.4682 263.662C22.1286 267.318 18.3377 272.463 12.8769 272.463C12.0195 272.463 12.0195 271.109 12.8769 271.109C17.8412 271.064 21.4516 266.009 24.4754 262.669C25.1072 262.083 26.0549 263.031 25.4682 263.662Z" fill="#141414"/>
<path fill-rule="evenodd" clip-rule="evenodd" d="M16.5316 254.05C12.1991 256.126 8.81439 259.421 6.69327 263.708C6.2871 264.475 5.15882 263.798 5.51987 263.031C7.73125 258.563 11.3417 254.998 15.8547 252.877C16.6219 252.516 17.2989 253.689 16.5316 254.05Z" fill="#141414"/>
<path fill-rule="evenodd" clip-rule="evenodd" d="M12.4252 272.192C8.76966 270.793 6.10697 267.725 5.2495 263.888C5.06898 263.031 6.37776 262.67 6.55828 263.527C7.28037 266.867 9.582 269.62 12.7862 270.884C13.5986 271.2 13.2375 272.508 12.4252 272.192Z" fill="#141414"/>
<path fill-rule="evenodd" clip-rule="evenodd" d="M32.9594 253.102C34.1779 252.425 36.3893 251.162 35.5318 249.402C35.1707 248.634 36.299 247.912 36.7052 248.725C37.9237 251.252 35.6221 253.147 33.6363 254.276C32.9142 254.727 32.2373 253.554 32.9594 253.102Z" fill="#141414"/>
<path fill-rule="evenodd" clip-rule="evenodd" d="M36.3886 248.183C36.6594 248.183 37.3815 248.273 37.562 248.138C37.9681 247.776 37.8328 246.648 37.6071 246.242C37.2461 245.52 36.4337 244.753 35.8922 244.166C35.3957 243.67 34.8993 243.128 34.3577 242.677C34.0418 242.406 33.6808 242.09 33.2746 241.864C32.5976 241.503 30.7473 240.962 30.973 242.677C31.0632 243.534 29.7093 243.534 29.6191 242.677C29.4385 241.278 30.6119 240.149 32.011 240.104C33.8613 240.059 35.486 241.819 36.7045 243.038C37.7876 244.166 39.5929 245.836 39.5026 247.596C39.4123 249.266 37.8328 249.627 36.4337 249.582C35.5311 249.491 35.5311 248.138 36.3886 248.183Z" fill="#141414"/>
<path fill-rule="evenodd" clip-rule="evenodd" d="M29.9344 242.948C28.3097 242.993 26.9557 243.941 26.2788 245.385C25.8726 246.152 24.7444 245.475 25.1054 244.708C26.008 242.858 27.9035 241.684 29.9344 241.594C30.837 241.549 30.837 242.903 29.9344 242.948Z" fill="#141414"/>
<path fill-rule="evenodd" clip-rule="evenodd" d="M37.9236 243.489C40.4509 241.233 42.888 238.931 45.2799 236.539C46.3179 235.501 47.3107 234.418 48.2133 233.29C48.8451 232.523 49.4318 231.71 49.9734 230.853C50.5149 229.995 50.9662 229.815 49.9734 230.266C48.7097 230.808 47.2205 232.387 46.1825 233.29C45.0091 234.283 43.8808 235.366 42.7526 236.449C40.5412 238.615 38.4652 240.917 36.5697 243.354C36.0282 244.031 35.0804 243.083 35.622 242.406C38.1944 239.157 40.9925 236.133 44.0613 233.38C45.4604 232.116 46.9045 230.943 48.3487 229.815C49.1611 229.183 50.4247 227.965 51.5078 228.687C54.6669 230.763 40.5412 243.083 38.9165 244.527C38.1944 245.024 37.2467 244.076 37.9236 243.489Z" fill="#141414"/>
</svg>
