<svg width="200" height="307" viewBox="0 0 200 307" fill="none" xmlns="http://www.w3.org/2000/svg">
<path fill-rule="evenodd" clip-rule="evenodd" d="M127.342 41.1498C107.442 28.0562 79.613 42.2709 61.5143 24.5726C59.7124 22.8108 58.1508 20.8488 56.7894 18.7266C55.1077 16.0838 53.7863 13.1608 51.6241 10.8384C49.5019 8.55605 46.1384 6.79423 43.0152 7.91539C40.3724 8.87638 39.011 11.6793 38.0901 14.1619C36.7687 17.7255 36.0479 23.6116 30.9627 23.0911C26.0376 22.6106 24.4359 17.3652 23.1546 13.4011C22.0735 10.1978 21.0324 6.4739 19.0304 3.71104C17.6289 1.78905 15.0262 0.267477 12.7839 1.74901C11.5426 2.58988 11.0621 4.19154 10.6217 5.55294C9.02 10.438 5.89676 14.0417 0.571255 14.6423C-0.189532 14.7224 -0.189532 13.5212 0.571255 13.4411C3.57436 13.0807 6.33722 11.439 7.97892 8.87638C9.26024 6.87431 9.42041 4.43178 10.6217 2.42971C13.0642 -1.69455 18.0293 -0.0128135 20.3117 3.35067C21.8332 5.63303 22.7542 8.43593 23.6751 11.0386C24.7162 13.8816 25.3169 17.165 27.2388 19.6075C28.2799 20.9289 29.8415 21.8898 31.5633 21.9299C33.8857 21.9299 34.9668 19.9278 35.6075 18.0058C36.3282 15.8836 36.8888 13.7214 37.8898 11.7193C39.7318 7.83531 43.3755 5.43282 47.74 6.83427C53.1056 8.59609 55.3079 14.0818 58.0707 18.4463C61.3141 23.5315 66.039 27.5357 71.5647 29.9382C77.4908 32.5008 83.9775 33.2216 90.3842 33.5019C103.077 34.0224 116.852 32.8612 127.983 40.1888C128.624 40.5091 128.023 41.5502 127.342 41.1498Z" fill="#141414"/>
<path fill-rule="evenodd" clip-rule="evenodd" d="M165.261 46.3149C166.502 54.2031 167.103 62.1713 167.063 70.1796C167.063 70.9404 165.861 70.9404 165.861 70.1796C165.901 62.2914 165.341 54.4433 164.1 46.6352C163.979 45.8744 165.141 45.5541 165.261 46.3149Z" fill="#141414"/>
<path fill-rule="evenodd" clip-rule="evenodd" d="M166.302 70.6603C164.621 71.7814 162.618 71.5012 160.656 71.4211C157.733 71.301 154.85 71.2209 151.927 71.1808C146.121 71.0607 140.275 71.1007 134.469 71.1808C133.709 71.1808 133.709 69.9796 134.469 69.9796C139.755 69.8595 145.04 69.8595 150.366 69.9395C152.888 69.9796 155.411 70.0196 157.894 70.0997C160.216 70.1798 163.66 70.9406 165.702 69.5792C166.342 69.1787 166.943 70.2198 166.302 70.6603Z" fill="#141414"/>
<path fill-rule="evenodd" clip-rule="evenodd" d="M164.541 47.2361C152.328 45.7946 140.035 45.8346 127.863 47.3562C127.102 47.4363 127.102 46.235 127.863 46.1549C140.035 44.6334 152.368 44.5933 164.541 46.0348C165.302 46.1549 165.302 47.3562 164.541 47.2361Z" fill="#141414"/>
<path fill-rule="evenodd" clip-rule="evenodd" d="M135.67 71.4612C134.268 71.3811 132.907 71.261 131.506 71.1809C130.745 71.1408 129.784 71.1408 129.103 70.6603C127.742 69.6993 127.902 67.0566 127.742 65.6151C127.061 59.5288 126.701 53.4425 126.581 47.3162C126.581 46.5554 127.782 46.5554 127.782 47.3162C127.862 51.8809 128.062 56.4056 128.462 60.9303C128.663 63.1326 128.863 65.3348 129.143 67.5371C129.383 69.2989 130.545 69.8595 132.186 69.9796C133.348 70.0597 134.509 70.1398 135.63 70.2199C136.471 70.34 136.471 71.5413 135.67 71.4612Z" fill="#141414"/>
<path fill-rule="evenodd" clip-rule="evenodd" d="M161.938 51.3603C158.855 53.5225 156.012 55.8849 153.369 58.5677C151.968 60.0092 150.126 63.0123 147.723 62.5719C146.362 62.3316 145.12 61.0903 144.039 60.3295C142.838 59.4887 141.717 58.6078 140.556 57.6868C137.833 55.4845 135.23 53.082 132.828 50.5594C132.307 49.9989 133.148 49.158 133.669 49.7186C135.631 51.7607 137.633 53.6827 139.795 55.5246C140.996 56.5656 142.237 57.5667 143.519 58.4876C144.88 59.5287 146.282 60.81 148.003 61.0503C149.285 61.2104 149.565 60.8901 150.406 60.0092C150.886 59.5287 151.327 59.0082 151.807 58.4876C152.768 57.4466 153.809 56.4455 154.851 55.4845C156.893 53.6026 159.095 51.8808 161.377 50.3192C161.978 49.8787 162.579 50.9198 161.938 51.3603Z" fill="#141414"/>
<path fill-rule="evenodd" clip-rule="evenodd" d="M148.804 77.3872C151.126 83.0731 155.451 87.7179 159.615 92.1225C163.499 96.2067 167.503 100.131 171.147 104.415C178.555 113.264 182.639 124.076 183.96 135.527C184.641 141.454 184.12 147.5 180.797 152.585C180.357 153.226 179.315 152.625 179.756 151.984C183.88 145.658 183.44 137.93 181.998 130.843C180.437 123.355 178.074 116.067 173.71 109.741C169.705 103.935 164.54 99.0096 159.695 93.9243C155.05 89.0793 150.245 83.9941 147.683 77.7076C147.362 76.9868 148.524 76.6665 148.804 77.3872Z" fill="#141414"/>
<path fill-rule="evenodd" clip-rule="evenodd" d="M160.057 123.795C161.458 123.154 160.217 118.75 160.017 117.669C159.656 115.867 159.136 114.105 158.495 112.383C157.774 110.581 156.893 108.82 155.772 107.218C154.811 105.857 152.889 103.094 151.207 102.573C150.847 102.253 150.407 102.293 149.926 102.653C149.125 102.493 148.765 102.733 148.845 103.334C148.685 103.774 148.845 104.575 148.885 105.016C149.005 106.257 149.245 107.458 149.526 108.699C150.086 110.942 150.847 113.144 151.808 115.226C152.689 117.188 153.69 119.07 154.771 120.912C155.252 121.753 155.732 122.594 156.293 123.395C157.013 124.436 160.497 127.038 160.777 123.955C160.857 123.194 162.059 123.194 161.979 123.955C161.818 125.877 159.856 126.958 158.014 126.398C155.452 125.597 154.01 122.113 152.849 119.991C151.127 116.828 149.606 113.504 148.645 110.021C148.044 107.899 146.683 103.774 148.124 101.732C151.127 97.4879 157.574 107.578 158.615 109.66C159.977 112.423 160.897 115.426 161.378 118.47C161.658 120.231 162.739 123.795 160.657 124.756C159.936 125.116 159.336 124.115 160.057 123.795Z" fill="#141414"/>
<path fill-rule="evenodd" clip-rule="evenodd" d="M198.697 167.561C194.692 163.556 190.728 159.512 186.724 155.508C186.164 154.948 187.044 154.107 187.565 154.667C191.569 158.671 195.533 162.716 199.537 166.72C200.058 167.28 199.217 168.121 198.697 167.561Z" fill="#141414"/>
<path fill-rule="evenodd" clip-rule="evenodd" d="M187.363 155.668C180.035 156.149 172.748 157.11 165.54 158.632C164.78 158.792 164.459 157.63 165.22 157.47C172.508 155.949 179.915 154.948 187.363 154.467C188.124 154.387 188.124 155.588 187.363 155.668Z" fill="#141414"/>
<path fill-rule="evenodd" clip-rule="evenodd" d="M199.537 168.361C191.649 169.643 183.761 170.924 175.833 172.205C175.072 172.325 174.752 171.164 175.512 171.044C183.401 169.763 191.289 168.481 199.217 167.2C199.938 167.08 200.298 168.241 199.537 168.361Z" fill="#141414"/>
<path fill-rule="evenodd" clip-rule="evenodd" d="M174.79 171.124C171.547 166.92 168.344 162.755 165.1 158.551C164.62 157.95 165.661 157.35 166.141 157.95C169.385 162.155 172.588 166.319 175.831 170.523C176.312 171.124 175.271 171.725 174.79 171.124Z" fill="#141414"/>
<path fill-rule="evenodd" clip-rule="evenodd" d="M175.872 171.525C174.871 177.451 173.87 183.337 172.869 189.263C172.749 190.024 171.588 189.704 171.708 188.943C172.709 183.017 173.71 177.131 174.711 171.205C174.831 170.444 175.992 170.764 175.872 171.525Z" fill="#141414"/>
<path fill-rule="evenodd" clip-rule="evenodd" d="M171.428 189.904C168.865 184.458 165.982 179.213 162.699 174.167C162.258 173.527 163.299 172.926 163.74 173.567C167.023 178.612 169.946 183.858 172.469 189.303C172.789 189.984 171.748 190.625 171.428 189.904Z" fill="#141414"/>
<path fill-rule="evenodd" clip-rule="evenodd" d="M166.221 158.912C165.26 163.917 164.38 168.922 163.579 173.927C163.459 174.688 162.297 174.368 162.418 173.607C163.178 168.562 164.059 163.556 165.06 158.591C165.22 157.83 166.342 158.151 166.221 158.912Z" fill="#141414"/>
<path fill-rule="evenodd" clip-rule="evenodd" d="M199.977 167.881C198.455 173.847 197.134 179.893 196.053 185.98C195.933 186.74 194.772 186.42 194.892 185.659C195.973 179.573 197.294 173.567 198.816 167.56C199.016 166.8 200.177 167.12 199.977 167.881Z" fill="#141414"/>
<path fill-rule="evenodd" clip-rule="evenodd" d="M195.653 186.82C188.085 189.143 180.237 190.264 172.309 190.144C171.548 190.144 171.548 188.942 172.309 188.942C180.117 189.063 187.845 187.981 195.333 185.659C196.093 185.419 196.414 186.58 195.653 186.82Z" fill="#141414"/>
<path fill-rule="evenodd" clip-rule="evenodd" d="M169.666 193.187C165.421 203.598 158.454 213.688 148.203 218.934C142.277 221.937 135.671 222.818 129.104 222.658C121.976 222.497 114.849 221.176 108.202 218.573C100.915 215.69 94.1876 210.725 86.1392 210.285C85.3785 210.245 85.3785 209.043 86.1392 209.083C92.2255 209.404 97.5911 212.247 102.917 214.889C109.363 218.053 116.09 220.215 123.258 221.056C130.105 221.857 137.432 221.817 143.999 219.454C149.445 217.532 154.17 214.009 158.054 209.804C162.578 204.919 165.982 199.033 168.504 192.867C168.785 192.146 169.946 192.466 169.666 193.187Z" fill="#141414"/>
<path fill-rule="evenodd" clip-rule="evenodd" d="M48.4599 215.01C43.9752 214.209 39.6107 217.532 38.3694 221.817C37.0881 226.181 39.0501 230.946 42.0933 234.109C49.1406 241.517 60.5524 240.876 69.8821 241.357C79.4119 241.877 88.5013 244.48 97.5507 247.283C106.28 249.926 115.129 251.888 123.898 254.21C128.262 255.371 132.587 256.733 136.711 258.615C138.873 259.616 140.956 260.737 142.918 262.018C143.638 262.499 144.92 263.099 145.44 263.82C145.841 264.421 145.6 265.342 145.6 266.022C145.6 266.783 144.399 266.783 144.399 266.022C144.399 264.541 144.079 264.261 142.838 263.42C141.957 262.819 141.036 262.219 140.115 261.698C137.912 260.417 135.63 259.376 133.268 258.455C128.863 256.733 124.298 255.532 119.734 254.41C115.169 253.289 110.604 252.328 106.12 251.087C101.114 249.726 96.1893 248.124 91.2241 246.642C86.259 245.201 81.2538 243.88 76.1285 243.159C70.3225 242.358 64.4765 242.558 58.6705 241.998C50.462 241.197 41.4927 238.234 37.969 230.065C36.2472 226.061 36.3674 221.456 39.0501 217.933C41.3726 214.89 45.0163 213.208 48.7802 213.889C49.541 213.969 49.1806 215.13 48.4599 215.01Z" fill="#141414"/>
<path fill-rule="evenodd" clip-rule="evenodd" d="M160.177 278.755C161.738 284.722 162.859 290.768 163.5 296.934C163.58 297.695 162.379 297.695 162.299 296.934C161.658 290.888 160.537 284.962 159.015 279.076C158.815 278.355 159.976 278.035 160.177 278.755Z" fill="#141414"/>
<path fill-rule="evenodd" clip-rule="evenodd" d="M158.814 279.717C151.927 279.677 145.04 279.636 138.153 279.596C137.352 279.596 136.151 279.356 135.43 279.596C135.19 279.596 134.909 279.596 134.669 279.596C134.389 280.237 134.349 280.878 134.589 281.558C134.789 283.24 135.19 284.922 135.51 286.604C136.151 290.087 136.791 293.571 137.432 297.054C137.552 297.815 136.431 298.136 136.271 297.375C135.51 293.251 134.749 289.126 133.988 285.002C133.708 283.48 132.827 281.238 133.068 279.717C133.188 278.956 133.508 278.675 134.189 278.475C135.91 277.995 138.313 278.475 140.115 278.475C142.197 278.475 144.279 278.515 146.361 278.515C150.526 278.555 154.65 278.555 158.814 278.595C159.575 278.515 159.575 279.717 158.814 279.717Z" fill="#141414"/>
<path fill-rule="evenodd" clip-rule="evenodd" d="M163.34 298.055C154.53 297.735 145.721 297.855 136.912 298.376C136.151 298.416 136.151 297.214 136.912 297.174C145.721 296.654 154.53 296.534 163.34 296.854C164.1 296.894 164.1 298.095 163.34 298.055Z" fill="#141414"/>
<path fill-rule="evenodd" clip-rule="evenodd" d="M153.769 278.596C153.648 275.633 152.848 272.91 151.326 270.347C151.686 270.307 152.047 270.267 152.407 270.187C151.606 273.15 151.366 276.153 151.646 279.197C151.726 279.957 150.525 279.957 150.445 279.197C150.165 276.033 150.445 272.95 151.246 269.867C151.366 269.346 152.087 269.266 152.327 269.707C153.929 272.43 154.81 275.393 154.93 278.596C155.01 279.357 153.809 279.357 153.769 278.596Z" fill="#141414"/>
<path fill-rule="evenodd" clip-rule="evenodd" d="M150.004 278.595C150.044 277.594 149.684 269.666 147.882 269.946C148.042 269.746 148.163 269.546 148.323 269.386C148.122 272.469 147.922 275.512 147.722 278.595C147.682 279.356 146.481 279.356 146.521 278.595C146.721 275.512 146.921 272.469 147.121 269.386C147.121 269.146 147.282 268.865 147.562 268.825C149.043 268.585 149.644 269.786 150.044 271.028C150.925 273.47 151.246 276.033 151.206 278.635C151.166 279.396 149.964 279.396 150.004 278.595Z" fill="#141414"/>
<path fill-rule="evenodd" clip-rule="evenodd" d="M146.482 278.596C146.602 277.314 146.602 276.073 146.482 274.832C146.402 274.191 146.041 270.988 145.321 270.948C144.76 270.908 144.96 272.109 144.92 272.629C144.88 273.35 144.8 274.031 144.76 274.752C144.64 276.153 144.52 277.554 144.44 278.956C144.36 279.717 143.158 279.717 143.239 278.956C143.439 276.513 143.599 274.031 143.839 271.588C143.919 270.667 144.16 269.266 145.441 269.466C146.642 269.666 147.002 271.268 147.243 272.229C147.763 274.351 147.923 276.473 147.723 278.676C147.603 279.356 146.402 279.356 146.482 278.596Z" fill="#141414"/>
<path fill-rule="evenodd" clip-rule="evenodd" d="M142.838 278.315C142.838 277.034 142.718 275.753 142.477 274.471C142.357 273.831 142.037 271.869 141.436 271.588C140.916 271.348 141.196 272.229 141.156 272.669C141.116 273.31 141.116 273.911 141.116 274.551C141.116 275.793 141.116 277.034 141.156 278.315C141.156 279.076 139.955 279.076 139.955 278.315C139.915 276.073 139.755 273.71 140.035 271.468C140.115 270.707 140.395 269.746 141.356 269.786C142.558 269.826 142.958 271.668 143.238 272.509C143.839 274.391 144.119 276.353 144.119 278.315C144.039 279.116 142.838 279.116 142.838 278.315Z" fill="#141414"/>
<path fill-rule="evenodd" clip-rule="evenodd" d="M157.534 282.079C157.734 283.24 157.934 284.401 158.174 285.563C158.295 286.283 158.735 287.445 158.375 288.165C158.134 288.686 157.654 288.846 157.093 288.966C156.052 289.206 154.931 289.287 153.89 289.447C153.129 289.567 152.809 288.406 153.57 288.285C154.25 288.165 154.931 288.085 155.652 287.965C155.972 287.925 156.253 287.885 156.573 287.845C157.213 287.725 157.254 287.885 157.214 286.844C157.133 285.362 156.653 283.841 156.413 282.399C156.253 281.639 157.374 281.318 157.534 282.079Z" fill="#141414"/>
<path fill-rule="evenodd" clip-rule="evenodd" d="M152.969 288.046C153.409 287.565 152.569 286.644 152.168 287.445C151.808 288.166 152.929 288.286 153.089 287.685C153.289 286.924 154.451 287.245 154.25 288.005C154.01 288.926 152.969 289.447 152.048 289.207C151.007 288.926 150.647 287.725 151.127 286.804C151.648 285.883 152.809 285.563 153.61 286.244C154.37 286.884 154.451 288.086 153.81 288.846C153.289 289.487 152.448 288.606 152.969 288.046Z" fill="#141414"/>
<path fill-rule="evenodd" clip-rule="evenodd" d="M150.326 287.004C150.406 286.243 150.646 285.282 150.566 284.562C150.486 283.881 150.566 283.801 149.725 283.641C149.204 283.521 148.644 283.561 148.123 283.561C146.281 283.441 144.48 283.36 142.638 283.24C141.877 283.2 141.877 281.999 142.638 282.039C144.159 282.119 145.641 282.239 147.162 282.319C148.324 282.399 149.685 282.239 150.766 282.56C152.608 283.12 151.687 285.643 151.527 287.044C151.447 287.765 150.246 287.765 150.326 287.004Z" fill="#141414"/>
<path fill-rule="evenodd" clip-rule="evenodd" d="M141.075 283.04C141.476 282.6 140.675 281.919 140.235 282.559C139.714 283.32 140.675 283.961 141.356 283.841C142.116 283.721 142.437 284.842 141.676 285.002C140.755 285.162 139.754 284.882 139.193 284.041C138.673 283.24 138.833 282.159 139.554 281.518C141.115 280.117 143.318 282.399 141.916 283.881C141.396 284.481 140.515 283.641 141.075 283.04Z" fill="#141414"/>
<path fill-rule="evenodd" clip-rule="evenodd" d="M141.997 284.001C142.077 285.122 142.198 286.243 142.278 287.324C142.318 287.885 142.318 288.445 142.438 289.006C142.438 289.286 142.478 289.526 142.638 289.807C142.638 290.287 142.918 290.447 143.439 290.287C144.32 290.528 145.401 290.407 146.322 290.487C147.483 290.568 148.684 290.648 149.845 290.728C150.606 290.768 150.606 291.969 149.845 291.929C148.124 291.809 146.442 291.729 144.72 291.609C143.879 291.569 142.558 291.769 141.877 291.208C141.317 290.768 141.357 290.007 141.317 289.366C141.156 287.604 140.996 285.803 140.836 284.041C140.716 283.24 141.917 283.24 141.997 284.001Z" fill="#141414"/>
<path fill-rule="evenodd" clip-rule="evenodd" d="M150.125 291.048C150.405 292.089 150.605 293.13 150.725 294.212C150.765 294.572 150.405 294.772 150.125 294.812C148.403 294.972 146.721 295.173 145 295.333C144.239 295.413 144.239 294.212 145 294.132C146.721 293.971 148.403 293.771 150.125 293.611C149.925 293.811 149.724 294.011 149.524 294.212C149.404 293.251 149.204 292.33 148.964 291.369C148.723 290.608 149.885 290.288 150.125 291.048Z" fill="#141414"/>
<path fill-rule="evenodd" clip-rule="evenodd" d="M144.08 294.452C144.36 294.292 144.16 293.651 143.759 294.011C143.239 294.452 143.96 294.932 144.44 294.692C145.121 294.332 145.721 295.373 145.041 295.733C144.32 296.134 143.359 296.013 142.798 295.373C142.158 294.652 142.358 293.571 143.079 293.01C143.799 292.49 144.8 292.65 145.201 293.451C145.561 294.131 145.401 295.133 144.64 295.493C144 295.813 143.399 294.812 144.08 294.452Z" fill="#141414"/>
<path fill-rule="evenodd" clip-rule="evenodd" d="M161.376 283.52C162.697 283.12 167.743 281.598 168.023 284.041C168.143 285.002 167.182 285.522 166.421 285.722C164.86 286.163 163.138 286.283 161.496 286.363C160.735 286.403 160.735 285.202 161.496 285.162C162.457 285.122 163.418 285.042 164.379 284.922C164.86 284.841 166.301 284.801 166.461 284.281C166.581 283.84 166.021 284.001 165.661 284.001C165.26 284.001 164.82 284.041 164.419 284.081C163.498 284.201 162.577 284.401 161.696 284.681C160.976 284.922 160.655 283.76 161.376 283.52Z" fill="#141414"/>
<path fill-rule="evenodd" clip-rule="evenodd" d="M162.257 285.522C163.499 285.122 168.264 283.801 168.103 286.483C168.063 287.524 167.142 288.085 166.222 288.245C164.58 288.525 162.858 288.565 161.216 288.686C160.456 288.766 160.456 287.564 161.216 287.484C162.017 287.404 162.778 287.364 163.579 287.284C164.179 287.244 165.541 287.364 166.061 287.044C166.302 286.764 166.542 286.483 166.742 286.203C166.582 286.163 166.382 286.123 166.222 286.083C165.901 286.043 165.581 286.083 165.261 286.123C164.34 286.203 163.419 286.403 162.538 286.724C161.817 286.924 161.537 285.763 162.257 285.522Z" fill="#141414"/>
<path fill-rule="evenodd" clip-rule="evenodd" d="M162.498 287.845C163.819 287.324 169.385 286.524 168.904 289.287C168.464 292.049 163.499 291.569 161.697 290.968C160.976 290.728 161.296 289.567 162.017 289.807C162.818 290.047 163.619 290.207 164.46 290.207C165.06 290.207 166.862 290.167 167.263 289.567C167.863 288.606 166.021 288.406 165.341 288.406C164.46 288.406 163.659 288.606 162.818 288.926C162.097 289.287 161.817 288.125 162.498 287.845Z" fill="#141414"/>
<path fill-rule="evenodd" clip-rule="evenodd" d="M156.491 296.974C157.933 299.937 157.933 303.141 156.491 306.104C156.291 306.544 155.69 306.464 155.45 306.104C153.728 303.421 152.767 300.418 152.607 297.215C152.567 296.454 153.768 296.454 153.808 297.215C153.928 300.218 154.849 302.981 156.491 305.503C156.131 305.503 155.81 305.503 155.45 305.503C156.691 302.981 156.651 300.138 155.45 297.615C155.13 296.894 156.171 296.294 156.491 296.974Z" fill="#141414"/>
<path fill-rule="evenodd" clip-rule="evenodd" d="M153.489 297.094C153.97 298.936 154.13 300.818 153.89 302.74C153.769 303.621 153.729 305.463 152.688 305.903C151.888 306.224 151.247 305.503 150.927 304.822C150.126 302.86 149.885 300.378 149.405 298.295C149.245 297.535 150.406 297.214 150.566 297.975C150.806 299.096 151.087 300.217 151.327 301.379C151.407 301.779 151.767 304.542 152.248 304.582C152.488 304.622 152.728 301.619 152.768 301.299C152.809 299.977 152.608 298.696 152.328 297.415C152.168 296.694 153.329 296.374 153.489 297.094Z" fill="#141414"/>
<path fill-rule="evenodd" clip-rule="evenodd" d="M150.245 297.375C150.645 299.377 150.765 301.419 150.565 303.461C150.485 304.422 150.165 305.984 148.963 306.144C147.722 306.304 147.402 304.743 147.162 303.862C146.681 301.98 146.481 300.058 146.521 298.136C146.521 297.375 147.722 297.375 147.722 298.136C147.722 299.217 147.762 300.338 147.922 301.419C148.002 302.06 148.123 304.182 148.683 304.622C149.444 305.263 149.524 302.1 149.524 301.699C149.524 300.378 149.404 299.057 149.164 297.735C148.923 296.934 150.085 296.614 150.245 297.375Z" fill="#141414"/>
<path fill-rule="evenodd" clip-rule="evenodd" d="M135.67 292.289C134.189 292.97 132.667 293.411 131.026 293.451C130.105 293.491 128.183 293.571 127.902 292.329C127.702 291.409 128.623 290.688 129.344 290.367C131.226 289.567 133.468 289.206 135.43 288.646C136.191 288.445 136.511 289.607 135.751 289.807C134.709 290.087 133.668 290.407 132.627 290.688C131.947 290.888 130.185 291.048 129.744 291.529C129.304 291.609 129.344 291.849 129.824 292.209C129.985 292.209 130.145 292.249 130.305 292.249C130.705 292.329 131.306 292.249 131.706 292.209C132.868 292.089 133.989 291.769 135.03 291.248C135.751 290.928 136.351 291.969 135.67 292.289Z" fill="#141414"/>
<path fill-rule="evenodd" clip-rule="evenodd" d="M135.75 289.407C134.228 290.167 132.627 290.488 130.945 290.248C129.784 290.087 127.822 289.527 127.181 288.406C125.66 285.763 134.028 286.043 135.109 286.123C135.87 286.163 135.87 287.365 135.109 287.325C133.948 287.244 132.747 287.244 131.586 287.365C130.865 287.445 130.144 287.525 129.423 287.685C129.143 287.725 128.863 287.805 128.542 287.885C128.102 287.925 128.142 288.005 128.663 288.165C130.264 289.687 133.428 289.327 135.189 288.406C135.83 288.045 136.471 289.086 135.75 289.407Z" fill="#141414"/>
<path fill-rule="evenodd" clip-rule="evenodd" d="M134.75 286.564C133.388 287.084 131.947 287.244 130.505 286.924C129.584 286.724 128.263 286.323 128.103 285.242C127.983 284.361 128.744 283.721 129.504 283.44C130.906 282.88 132.708 282.92 134.229 282.72C134.99 282.64 134.99 283.841 134.229 283.921C133.308 284.041 132.347 284.161 131.426 284.281C131.026 284.321 130.625 284.361 130.225 284.481C129.785 284.602 129.344 284.682 129.464 285.162C129.624 285.803 131.306 285.923 131.867 285.923C132.748 285.963 133.629 285.763 134.429 285.442C135.15 285.122 135.43 286.283 134.75 286.564Z" fill="#141414"/>
</svg>
