<svg width="200" height="307" viewBox="0 0 200 307" fill="none" xmlns="http://www.w3.org/2000/svg">
<path fill-rule="evenodd" clip-rule="evenodd" d="M72.6583 41.6879C92.5589 28.5943 120.388 42.809 138.486 25.1107C140.288 23.3489 141.85 21.3869 143.211 19.2647C144.893 16.6219 146.214 13.6989 148.377 11.3765C150.499 9.09414 153.862 7.33231 156.986 8.45347C159.628 9.41447 160.99 12.2174 161.911 14.6999C163.232 18.2636 163.953 24.1497 169.038 23.6292C173.963 23.1487 175.565 17.9033 176.846 13.9392C177.927 10.7358 178.968 7.01198 180.97 4.24912C182.372 2.32714 184.975 0.805562 187.217 2.2871C188.458 3.12796 188.939 4.72962 189.379 6.09103C190.981 10.9761 194.104 14.5798 199.429 15.1804C200.19 15.2605 200.19 14.0593 199.429 13.9792C196.426 13.6188 193.664 11.9771 192.022 9.41447C190.74 7.4124 190.58 4.96987 189.379 2.9678C186.937 -1.15647 181.971 0.525272 179.689 3.88875C178.167 6.17111 177.247 8.97401 176.326 11.5767C175.285 14.4196 174.684 17.703 172.762 20.1456C171.721 21.4669 170.159 22.4279 168.437 22.468C166.115 22.468 165.034 20.4659 164.393 18.5439C163.672 16.4217 163.112 14.2595 162.111 12.2574C160.269 8.37339 156.625 5.97091 152.261 7.37236C146.895 9.13418 144.693 14.6199 141.93 18.9844C138.687 24.0696 133.962 28.0738 128.436 30.4763C122.51 33.0389 116.023 33.7597 109.617 34.0399C96.9234 34.5605 83.1492 33.3993 72.0177 40.7269C71.377 41.0472 71.9776 42.0883 72.6583 41.6879Z" fill="white"/>
<path fill-rule="evenodd" clip-rule="evenodd" d="M34.739 46.853C33.4978 54.7411 32.8971 62.7094 32.9372 70.7177C32.9372 71.4785 34.1384 71.4785 34.1384 70.7177C34.0984 62.8295 34.659 54.9814 35.9002 47.1733C36.0204 46.4125 34.8592 46.0922 34.739 46.853Z" fill="white"/>
<path fill-rule="evenodd" clip-rule="evenodd" d="M33.698 71.1984C35.3797 72.3195 37.3818 72.0392 39.3438 71.9592C42.2668 71.839 45.1498 71.759 48.0728 71.7189C53.8788 71.5988 59.7249 71.6388 65.5309 71.7189C66.2917 71.7189 66.2917 70.5177 65.5309 70.5177C60.2454 70.3975 54.96 70.3975 49.6345 70.4776C47.1118 70.5177 44.5892 70.5577 42.1067 70.6378C39.7843 70.7179 36.3407 71.4787 34.2986 70.1173C33.6579 69.7168 33.0573 70.7579 33.698 71.1984Z" fill="white"/>
<path fill-rule="evenodd" clip-rule="evenodd" d="M35.4598 47.7746C47.6724 46.3331 59.9651 46.3732 72.1377 47.8948C72.8985 47.9748 72.8985 46.7736 72.1377 46.6935C59.9651 45.1719 47.6323 45.1319 35.4598 46.5734C34.699 46.6935 34.699 47.8948 35.4598 47.7746Z" fill="white"/>
<path fill-rule="evenodd" clip-rule="evenodd" d="M64.3296 71.9997C65.731 71.9197 67.0925 71.7995 68.4939 71.7195C69.2547 71.6794 70.2157 71.6794 70.8964 71.1989C72.2578 70.2379 72.0976 67.5952 72.2578 66.1537C72.9385 60.0674 73.2989 53.9811 73.419 47.8548C73.419 47.094 72.2178 47.094 72.2178 47.8548C72.1377 52.4195 71.9375 56.9442 71.5371 61.4689C71.3369 63.6711 71.1366 65.8734 70.8564 68.0757C70.6161 69.8375 69.4549 70.3981 67.8132 70.5182C66.652 70.5983 65.4908 70.6784 64.3696 70.7585C63.5288 70.8786 63.5288 72.0798 64.3296 71.9997Z" fill="white"/>
<path fill-rule="evenodd" clip-rule="evenodd" d="M38.0624 51.8979C41.1456 54.0601 43.9885 56.4225 46.6312 59.1053C48.0327 60.5468 49.8746 63.5499 52.2771 63.1095C53.6385 62.8692 54.8798 61.6279 55.9609 60.8671C57.1621 60.0263 58.2833 59.1454 59.4445 58.2244C62.1673 56.0221 64.77 53.6196 67.1725 51.097C67.693 50.5364 66.8522 49.6956 66.3316 50.2562C64.3696 52.2983 62.3675 54.2203 60.2053 56.0622C59.004 57.1032 57.7627 58.1043 56.4814 59.0252C55.12 60.0663 53.7186 61.3476 51.9968 61.5879C50.7155 61.748 50.4352 61.4277 49.5943 60.5468C49.1138 60.0663 48.6733 59.5458 48.1928 59.0252C47.2319 57.9842 46.1908 56.9831 45.1497 56.0221C43.1076 54.1402 40.9053 52.4184 38.6229 50.8568C38.0223 50.4163 37.4217 51.4574 38.0624 51.8979Z" fill="white"/>
<path fill-rule="evenodd" clip-rule="evenodd" d="M51.1961 77.9258C48.8737 83.6117 44.5492 88.2565 40.3849 92.661C36.5009 96.7453 32.4968 100.669 28.853 104.954C21.4453 113.803 17.3611 124.614 16.0398 136.066C15.3591 141.992 15.8796 148.038 19.203 153.124C19.6435 153.764 20.6846 153.164 20.2441 152.523C16.1198 146.196 16.5603 138.468 18.0018 131.381C19.5634 123.893 21.9258 116.606 26.2904 110.279C30.2945 104.473 35.4598 99.5482 40.3049 94.4629C44.9497 89.6179 49.7546 84.5326 52.3173 78.2461C52.6376 77.5254 51.4764 77.2051 51.1961 77.9258Z" fill="white"/>
<path fill-rule="evenodd" clip-rule="evenodd" d="M39.9444 124.334C38.5429 123.693 39.7842 119.288 39.9844 118.207C40.3448 116.405 40.8653 114.644 41.506 112.922C42.2267 111.12 43.1076 109.358 44.2288 107.757C45.1898 106.395 47.1118 103.632 48.7935 103.112C49.1539 102.791 49.5944 102.831 50.0749 103.192C50.8757 103.032 51.2361 103.272 51.156 103.873C51.3161 104.313 51.156 105.114 51.1159 105.554C50.9958 106.796 50.7556 107.997 50.4753 109.238C49.9147 111.48 49.1539 113.683 48.1929 115.765C47.312 117.727 46.311 119.609 45.2298 121.451C44.7493 122.292 44.2688 123.132 43.7083 123.933C42.9875 124.974 39.5039 127.577 39.2236 124.494C39.1435 123.733 37.9423 123.733 38.0224 124.494C38.1826 126.416 40.1446 127.497 41.9865 126.936C44.5491 126.136 45.9906 122.652 47.1518 120.53C48.8736 117.366 50.3952 114.043 51.3562 110.559C51.9568 108.437 53.3182 104.313 51.8767 102.271C48.8736 98.0265 42.4269 108.117 41.3859 110.199C40.0245 112.962 39.1035 115.965 38.623 119.008C38.3427 120.77 37.2616 124.334 39.3438 125.295C40.0645 125.655 40.6651 124.654 39.9444 124.334Z" fill="white"/>
<path fill-rule="evenodd" clip-rule="evenodd" d="M1.30447 168.099C5.30861 164.095 9.27271 160.05 13.2769 156.046C13.8374 155.486 12.9565 154.645 12.436 155.205C8.43184 159.21 4.46774 163.254 0.463597 167.258C-0.0569413 167.818 0.783929 168.659 1.30447 168.099Z" fill="white"/>
<path fill-rule="evenodd" clip-rule="evenodd" d="M12.6363 156.206C19.9638 156.687 27.2514 157.648 34.4588 159.169C35.2196 159.329 35.54 158.168 34.7792 158.008C27.4916 156.486 20.084 155.485 12.6363 155.005C11.8755 154.925 11.8755 156.126 12.6363 156.206Z" fill="white"/>
<path fill-rule="evenodd" clip-rule="evenodd" d="M0.463463 168.899C8.35163 170.181 16.2398 171.462 24.168 172.743C24.9288 172.863 25.2491 171.702 24.4883 171.582C16.6002 170.301 8.712 169.02 0.783795 167.738C0.0630491 167.618 -0.297324 168.779 0.463463 168.899Z" fill="white"/>
<path fill-rule="evenodd" clip-rule="evenodd" d="M25.2092 171.663C28.4526 167.458 31.6559 163.294 34.8992 159.09C35.3797 158.489 34.3387 157.888 33.8582 158.489C30.6148 162.693 27.4115 166.858 24.1681 171.062C23.6877 171.663 24.7287 172.263 25.2092 171.663Z" fill="white"/>
<path fill-rule="evenodd" clip-rule="evenodd" d="M24.1281 172.063C25.1291 177.989 26.1302 183.875 27.1312 189.801C27.2513 190.562 28.4125 190.242 28.2924 189.481C27.2914 183.555 26.2903 177.669 25.2893 171.743C25.1692 170.982 24.008 171.302 24.1281 172.063Z" fill="white"/>
<path fill-rule="evenodd" clip-rule="evenodd" d="M28.5725 190.442C31.1352 184.996 34.0181 179.751 37.3015 174.706C37.742 174.065 36.7009 173.464 36.2605 174.105C32.9771 179.15 30.054 184.396 27.5314 189.841C27.2111 190.522 28.2522 191.163 28.5725 190.442Z" fill="white"/>
<path fill-rule="evenodd" clip-rule="evenodd" d="M33.778 159.45C34.739 164.455 35.6199 169.46 36.4208 174.465C36.5409 175.226 37.7021 174.906 37.582 174.145C36.8212 169.1 35.9403 164.095 34.9392 159.129C34.7791 158.369 33.6579 158.689 33.778 159.45Z" fill="white"/>
<path fill-rule="evenodd" clip-rule="evenodd" d="M0.0231046 168.419C1.54468 174.386 2.86605 180.432 3.94716 186.518C4.06729 187.279 5.22849 186.959 5.10837 186.198C4.02725 180.112 2.70588 174.105 1.18431 168.099C0.984099 167.338 -0.177103 167.659 0.0231046 168.419Z" fill="white"/>
<path fill-rule="evenodd" clip-rule="evenodd" d="M4.34761 187.359C11.9154 189.681 19.7636 190.802 27.6918 190.682C28.4525 190.682 28.4525 189.481 27.6918 189.481C19.8837 189.601 12.1557 188.52 4.66794 186.198C3.90715 185.957 3.58682 187.119 4.34761 187.359Z" fill="white"/>
<path fill-rule="evenodd" clip-rule="evenodd" d="M30.3346 193.726C34.579 204.136 41.5462 214.227 51.7968 219.472C57.7229 222.475 64.3297 223.356 70.8965 223.196C78.0239 223.036 85.1513 221.715 91.7982 219.112C99.0857 216.229 105.813 211.264 113.861 210.823C114.622 210.783 114.622 209.582 113.861 209.622C107.775 209.942 102.409 212.785 97.0836 215.428C90.637 218.591 83.91 220.754 76.7426 221.594C69.8955 222.395 62.5679 222.355 56.0011 219.993C50.5555 218.071 45.8306 214.547 41.9466 210.343C37.4219 205.458 34.0184 199.572 31.4958 193.405C31.2155 192.685 30.0543 193.005 30.3346 193.726Z" fill="white"/>
<path fill-rule="evenodd" clip-rule="evenodd" d="M151.54 215.548C156.025 214.747 160.389 218.07 161.63 222.355C162.912 226.719 160.95 231.484 157.906 234.648C150.859 242.055 139.447 241.415 130.118 241.895C120.588 242.416 111.498 245.018 102.449 247.821C93.72 250.464 84.8709 252.426 76.1018 254.748C71.7373 255.91 67.4128 257.271 63.2886 259.153C61.1263 260.154 59.0442 261.275 57.0821 262.556C56.3614 263.037 55.0801 263.638 54.5595 264.358C54.1591 264.959 54.3994 265.88 54.3994 266.561C54.3994 267.321 55.6006 267.321 55.6006 266.561C55.6006 265.079 55.9209 264.799 57.1622 263.958C58.0431 263.357 58.9641 262.757 59.885 262.236C62.0873 260.955 64.3697 259.914 66.7321 258.993C71.1367 257.271 75.7014 256.07 80.2661 254.949C84.8308 253.827 89.3956 252.866 93.8802 251.625C98.8854 250.264 103.81 248.662 108.776 247.18C113.741 245.739 118.746 244.418 123.871 243.697C129.677 242.896 135.523 243.096 141.329 242.536C149.538 241.735 158.507 238.772 162.031 230.603C163.753 226.599 163.632 221.994 160.95 218.471C158.627 215.428 154.983 213.746 151.22 214.427C150.459 214.507 150.819 215.668 151.54 215.548Z" fill="white"/>
<path fill-rule="evenodd" clip-rule="evenodd" d="M39.8243 279.294C38.2627 285.26 37.1416 291.306 36.5009 297.473C36.4208 298.234 37.6221 298.234 37.7021 297.473C38.3428 291.426 39.464 285.5 40.9855 279.614C41.1857 278.894 40.0245 278.573 39.8243 279.294Z" fill="white"/>
<path fill-rule="evenodd" clip-rule="evenodd" d="M41.1856 280.255C48.0727 280.215 54.9598 280.175 61.847 280.135C62.6478 280.135 63.849 279.894 64.5698 280.135C64.81 280.135 65.0903 280.135 65.3306 280.135C65.6109 280.775 65.6509 281.416 65.4107 282.097C65.2104 283.778 64.81 285.46 64.4897 287.142C63.849 290.625 63.2084 294.109 62.5677 297.593C62.4476 298.353 63.5687 298.674 63.7289 297.913C64.4897 293.789 65.2505 289.664 66.0113 285.54C66.2916 284.019 67.1725 281.776 66.9322 280.255C66.8121 279.494 66.4918 279.214 65.8111 279.013C64.0893 278.533 61.6868 279.013 59.8849 279.013C57.8028 279.013 55.7206 279.053 53.6385 279.053C49.4742 279.093 45.3499 279.093 41.1856 279.133C40.4248 279.053 40.4248 280.255 41.1856 280.255Z" fill="white"/>
<path fill-rule="evenodd" clip-rule="evenodd" d="M36.6609 298.594C45.47 298.273 54.2791 298.394 63.0883 298.914C63.8491 298.954 63.8491 297.753 63.0883 297.713C54.2791 297.192 45.47 297.072 36.6609 297.393C35.9001 297.433 35.9001 298.634 36.6609 298.594Z" fill="white"/>
<path fill-rule="evenodd" clip-rule="evenodd" d="M46.231 279.134C46.3511 276.171 47.1519 273.448 48.6735 270.886C48.3131 270.845 47.9527 270.805 47.5924 270.725C48.3932 273.688 48.6334 276.692 48.3531 279.735C48.2731 280.495 49.4743 280.495 49.5544 279.735C49.8347 276.571 49.5544 273.488 48.7536 270.405C48.6334 269.885 47.9127 269.804 47.6724 270.245C46.0708 272.968 45.1899 275.931 45.0697 279.134C44.9897 279.895 46.1909 279.895 46.231 279.134Z" fill="white"/>
<path fill-rule="evenodd" clip-rule="evenodd" d="M49.9948 279.134C49.9548 278.133 50.3152 270.205 52.117 270.485C51.9569 270.285 51.8367 270.085 51.6766 269.924C51.8768 273.008 52.077 276.051 52.2772 279.134C52.3172 279.895 53.5185 279.895 53.4784 279.134C53.2782 276.051 53.078 273.008 52.8778 269.924C52.8778 269.684 52.7176 269.404 52.4374 269.364C50.9558 269.124 50.3552 270.325 49.9548 271.566C49.0739 274.009 48.7535 276.571 48.7936 279.174C48.8336 279.935 50.0349 279.935 49.9948 279.134Z" fill="white"/>
<path fill-rule="evenodd" clip-rule="evenodd" d="M53.5186 279.134C53.3984 277.853 53.3984 276.611 53.5186 275.37C53.5986 274.73 53.959 271.526 54.6798 271.486C55.2403 271.446 55.0401 272.647 55.0802 273.168C55.1202 273.889 55.2003 274.569 55.2403 275.29C55.3605 276.692 55.4806 278.093 55.5607 279.494C55.6407 280.255 56.842 280.255 56.7619 279.494C56.5617 277.052 56.4015 274.569 56.1613 272.127C56.0812 271.206 55.841 269.804 54.5596 270.005C53.3584 270.205 52.998 271.807 52.7578 272.768C52.2372 274.89 52.0771 277.012 52.2773 279.214C52.3974 279.895 53.5986 279.895 53.5186 279.134Z" fill="white"/>
<path fill-rule="evenodd" clip-rule="evenodd" d="M57.1622 278.853C57.1622 277.572 57.2823 276.291 57.5226 275.009C57.6427 274.369 57.963 272.407 58.5636 272.126C59.0842 271.886 58.8039 272.767 58.8439 273.207C58.884 273.848 58.884 274.449 58.884 275.089C58.884 276.331 58.884 277.572 58.8439 278.853C58.8439 279.614 60.0452 279.614 60.0452 278.853C60.0852 276.611 60.2454 274.249 59.9651 272.006C59.885 271.245 59.6047 270.284 58.6437 270.324C57.4425 270.364 57.0421 272.206 56.7618 273.047C56.1612 274.929 55.8809 276.891 55.8809 278.853C55.9609 279.654 57.1622 279.654 57.1622 278.853Z" fill="white"/>
<path fill-rule="evenodd" clip-rule="evenodd" d="M42.4671 282.617C42.2669 283.778 42.0667 284.939 41.8265 286.1C41.7064 286.821 41.2659 287.982 41.6263 288.703C41.8665 289.223 42.347 289.384 42.9076 289.504C43.9487 289.744 45.0698 289.824 46.1109 289.984C46.8717 290.104 47.192 288.943 46.4312 288.823C45.7505 288.703 45.0698 288.623 44.3491 288.503C44.0288 288.463 43.7485 288.423 43.4281 288.383C42.7875 288.262 42.7474 288.423 42.7875 287.382C42.8676 285.9 43.3481 284.378 43.5883 282.937C43.7485 282.176 42.6273 281.856 42.4671 282.617Z" fill="white"/>
<path fill-rule="evenodd" clip-rule="evenodd" d="M47.0317 288.584C46.5913 288.103 47.4321 287.182 47.8326 287.983C48.1929 288.704 47.0718 288.824 46.9116 288.223C46.7114 287.462 45.5502 287.783 45.7504 288.544C45.9906 289.465 47.0317 289.985 47.9527 289.745C48.9938 289.465 49.3541 288.263 48.8736 287.342C48.3531 286.421 47.1919 286.101 46.3911 286.782C45.6303 287.422 45.5502 288.624 46.1909 289.384C46.7114 290.025 47.5523 289.144 47.0317 288.584Z" fill="white"/>
<path fill-rule="evenodd" clip-rule="evenodd" d="M49.6744 287.542C49.5943 286.782 49.354 285.82 49.4341 285.1C49.5142 284.419 49.4341 284.339 50.275 284.179C50.7955 284.059 51.3561 284.099 51.8766 284.099C53.7185 283.979 55.5204 283.899 57.3623 283.778C58.1231 283.738 58.1231 282.537 57.3623 282.577C55.8407 282.657 54.3592 282.777 52.8376 282.857C51.6764 282.938 50.315 282.777 49.2339 283.098C47.392 283.658 48.313 286.181 48.4731 287.582C48.5532 288.303 49.7544 288.303 49.6744 287.542Z" fill="white"/>
<path fill-rule="evenodd" clip-rule="evenodd" d="M58.9241 283.579C58.5237 283.138 59.3245 282.457 59.765 283.098C60.2855 283.859 59.3245 284.5 58.6438 284.379C57.883 284.259 57.5627 285.38 58.3235 285.541C59.2445 285.701 60.2455 285.42 60.8061 284.58C61.3266 283.779 61.1664 282.698 60.4457 282.057C58.8841 280.656 56.6818 282.938 58.0832 284.419C58.6038 285.02 59.4847 284.179 58.9241 283.579Z" fill="white"/>
<path fill-rule="evenodd" clip-rule="evenodd" d="M58.0032 284.539C57.9231 285.66 57.803 286.782 57.7229 287.863C57.6829 288.423 57.6829 288.984 57.5627 289.545C57.5627 289.825 57.5227 290.065 57.3625 290.345C57.3625 290.826 57.0822 290.986 56.5617 290.826C55.6808 291.066 54.5997 290.946 53.6787 291.026C52.5175 291.106 51.3163 291.186 50.1551 291.266C49.3943 291.306 49.3943 292.508 50.1551 292.468C51.8768 292.347 53.5586 292.267 55.2804 292.147C56.1212 292.107 57.4426 292.307 58.1233 291.747C58.6839 291.306 58.6438 290.546 58.6839 289.905C58.844 288.143 59.0042 286.341 59.1644 284.579C59.2845 283.779 58.0833 283.779 58.0032 284.539Z" fill="white"/>
<path fill-rule="evenodd" clip-rule="evenodd" d="M49.8747 291.586C49.5944 292.627 49.3942 293.669 49.2741 294.75C49.234 295.11 49.5944 295.31 49.8747 295.35C51.5965 295.51 53.2782 295.711 55 295.871C55.7608 295.951 55.7608 294.75 55 294.67C53.2782 294.509 51.5965 294.309 49.8747 294.149C50.0749 294.349 50.2751 294.549 50.4753 294.75C50.5954 293.789 50.7956 292.868 51.0359 291.907C51.2761 291.146 50.1149 290.826 49.8747 291.586Z" fill="white"/>
<path fill-rule="evenodd" clip-rule="evenodd" d="M55.921 294.99C55.6408 294.83 55.841 294.19 56.2414 294.55C56.7619 294.99 56.0412 295.471 55.5607 295.231C54.88 294.87 54.2794 295.911 54.9601 296.272C55.6808 296.672 56.6418 296.552 57.2024 295.911C57.843 295.191 57.6428 294.109 56.9221 293.549C56.2013 293.028 55.2003 293.188 54.7999 293.989C54.4395 294.67 54.5997 295.671 55.3605 296.031C56.0011 296.352 56.6018 295.351 55.921 294.99Z" fill="white"/>
<path fill-rule="evenodd" clip-rule="evenodd" d="M38.6229 284.059C37.3016 283.658 32.2564 282.137 31.9761 284.579C31.8559 285.54 32.8169 286.061 33.5777 286.261C35.1393 286.701 36.8611 286.822 38.5028 286.902C39.2636 286.942 39.2636 285.74 38.5028 285.7C37.5418 285.66 36.5808 285.58 35.6198 285.46C35.1393 285.38 33.6978 285.34 33.5377 284.819C33.4176 284.379 33.9781 284.539 34.3385 284.539C34.7389 284.539 35.1794 284.579 35.5798 284.619C36.5007 284.739 37.4217 284.94 38.3026 285.22C39.0234 285.46 39.3437 284.299 38.6229 284.059Z" fill="white"/>
<path fill-rule="evenodd" clip-rule="evenodd" d="M37.7421 286.06C36.5008 285.66 31.7359 284.339 31.896 287.021C31.9361 288.062 32.857 288.623 33.778 288.783C35.4197 289.064 37.1415 289.104 38.7832 289.224C39.5439 289.304 39.5439 288.103 38.7832 288.022C37.9823 287.942 37.2215 287.902 36.4207 287.822C35.8201 287.782 34.4587 287.902 33.9381 287.582C33.6979 287.302 33.4576 287.021 33.2574 286.741C33.4176 286.701 33.6178 286.661 33.778 286.621C34.0983 286.581 34.4186 286.621 34.739 286.661C35.6599 286.741 36.5809 286.941 37.4618 287.262C38.1825 287.462 38.4628 286.301 37.7421 286.06Z" fill="white"/>
<path fill-rule="evenodd" clip-rule="evenodd" d="M37.5019 288.383C36.1805 287.863 30.6147 287.062 31.0952 289.825C31.5357 292.587 36.5008 292.107 38.3027 291.506C39.0234 291.266 38.7031 290.105 37.9824 290.345C37.1815 290.585 36.3807 290.746 35.5398 290.746C34.9392 290.746 33.1374 290.705 32.7369 290.105C32.1363 289.144 33.9782 288.944 34.6589 288.944C35.5398 288.944 36.3407 289.144 37.1815 289.464C37.9023 289.825 38.1826 288.663 37.5019 288.383Z" fill="white"/>
<path fill-rule="evenodd" clip-rule="evenodd" d="M43.5081 297.512C42.0666 300.475 42.0666 303.678 43.5081 306.641C43.7083 307.082 44.3089 307.002 44.5492 306.641C46.271 303.959 47.232 300.956 47.3921 297.752C47.4322 296.991 46.2309 296.991 46.1909 297.752C46.0708 300.755 45.1498 303.518 43.5081 306.041C43.8685 306.041 44.1888 306.041 44.5492 306.041C43.3079 303.518 43.348 300.675 44.5492 298.153C44.8695 297.432 43.8285 296.831 43.5081 297.512Z" fill="white"/>
<path fill-rule="evenodd" clip-rule="evenodd" d="M46.5113 297.633C46.0308 299.475 45.8706 301.357 46.1109 303.279C46.231 304.16 46.271 306.001 47.3121 306.442C48.1129 306.762 48.7536 306.042 49.0739 305.361C49.8748 303.399 50.115 300.916 50.5955 298.834C50.7557 298.073 49.5945 297.753 49.4343 298.514C49.1941 299.635 48.9138 300.756 48.6735 301.917C48.5934 302.318 48.2331 305.081 47.7526 305.121C47.5123 305.161 47.2721 302.158 47.232 301.837C47.192 300.516 47.3922 299.234 47.6725 297.953C47.8326 297.232 46.6714 296.912 46.5113 297.633Z" fill="white"/>
<path fill-rule="evenodd" clip-rule="evenodd" d="M49.7545 297.913C49.3541 299.915 49.234 301.957 49.4342 303.999C49.5143 304.96 49.8346 306.522 51.0359 306.682C52.2772 306.842 52.5975 305.281 52.8377 304.4C53.3182 302.518 53.5184 300.596 53.4784 298.674C53.4784 297.913 52.2772 297.913 52.2772 298.674C52.2772 299.755 52.2371 300.876 52.0769 301.957C51.9969 302.598 51.8767 304.72 51.3162 305.16C50.5554 305.801 50.4753 302.638 50.4753 302.237C50.4753 300.916 50.5954 299.595 50.8357 298.273C51.0759 297.473 49.9147 297.152 49.7545 297.913Z" fill="white"/>
<path fill-rule="evenodd" clip-rule="evenodd" d="M64.3295 292.827C65.8111 293.508 67.3327 293.948 68.9744 293.988C69.8953 294.028 71.8173 294.108 72.0976 292.867C72.2978 291.946 71.3768 291.225 70.6561 290.905C68.7741 290.104 66.5318 289.744 64.5698 289.183C63.809 288.983 63.4887 290.144 64.2495 290.344C65.2905 290.625 66.3316 290.945 67.3727 291.225C68.0534 291.426 69.8152 291.586 70.2557 292.066C70.6961 292.146 70.6561 292.387 70.1756 292.747C70.0154 292.747 69.8553 292.787 69.6951 292.787C69.2947 292.867 68.6941 292.787 68.2936 292.747C67.1324 292.627 66.0113 292.306 64.9702 291.786C64.2495 291.466 63.6488 292.507 64.3295 292.827Z" fill="white"/>
<path fill-rule="evenodd" clip-rule="evenodd" d="M64.2496 289.945C65.7711 290.706 67.3728 291.026 69.0545 290.786C70.2157 290.625 72.1778 290.065 72.8184 288.944C74.34 286.301 65.9713 286.581 64.8902 286.661C64.1294 286.701 64.1294 287.903 64.8902 287.863C66.0514 287.783 67.2527 287.783 68.4139 287.903C69.1346 287.983 69.8554 288.063 70.5761 288.223C70.8564 288.263 71.1367 288.343 71.457 288.423C71.8975 288.463 71.8574 288.543 71.3369 288.704C69.7352 290.225 66.572 289.865 64.8101 288.944C64.1695 288.583 63.5288 289.624 64.2496 289.945Z" fill="white"/>
<path fill-rule="evenodd" clip-rule="evenodd" d="M65.2507 287.102C66.6121 287.622 68.0536 287.782 69.4951 287.462C70.4161 287.262 71.7374 286.861 71.8976 285.78C72.0177 284.899 71.2569 284.259 70.4961 283.978C69.0947 283.418 67.2928 283.458 65.7713 283.258C65.0105 283.178 65.0105 284.379 65.7713 284.459C66.6922 284.579 67.6532 284.699 68.5742 284.819C68.9746 284.859 69.375 284.899 69.7754 285.02C70.2159 285.14 70.6563 285.22 70.5362 285.7C70.376 286.341 68.6943 286.461 68.1337 286.461C67.2528 286.501 66.3719 286.301 65.5711 285.981C64.8503 285.66 64.57 286.821 65.2507 287.102Z" fill="white"/>
</svg>
