<svg width="36" height="36" viewBox="0 0 36 36" fill="none" xmlns="http://www.w3.org/2000/svg">
<path d="M13.5 13.5V9.75C13.5 7.67893 11.8211 6 9.75 6C7.67893 6 6 7.67893 6 9.75C6 11.8211 7.67893 13.5 9.75 13.5H13.5ZM13.5 13.5H22.5M13.5 13.5V22.5M13.5 22.5H9.75C7.67893 22.5 6 24.1789 6 26.25C6 28.3211 7.67893 30 9.75 30C11.8211 30 13.5 28.3211 13.5 26.25V22.5ZM13.5 22.5H22.5M22.5 13.5H26.25C28.3211 13.5 30 11.8211 30 9.75C30 7.67893 28.3211 6 26.25 6C24.1789 6 22.5 7.67893 22.5 9.75V13.5ZM22.5 13.5V22.5M22.5 22.5V26.25C22.5 28.3211 24.1789 30 26.25 30C28.3211 30 30 28.3211 30 26.25C30 24.1789 28.3211 22.5 26.25 22.5H22.5Z" stroke="white" stroke-width="2" stroke-linecap="round"/>
</svg>
