<svg width="36" height="36" viewBox="0 0 36 36" fill="none" xmlns="http://www.w3.org/2000/svg">
<path d="M10.5 1.5H6C3.51472 1.5 1.5 3.51472 1.5 6V10.5M25.5 1.5H30C32.4853 1.5 34.5 3.51472 34.5 6V10.5M34.5 25.5V30C34.5 32.4853 32.4853 34.5 30 34.5H25.5M10.5 34.5H6C3.51472 34.5 1.5 32.4853 1.5 30V25.5M18 12V19.5C18 20.3284 17.3284 21 16.5 21H15M10.5 12V15.75M25.5 12V15.75M11.9993 25.5C13.3676 27.3217 15.5461 28.5 17.9998 28.5C20.4535 28.5 22.6321 27.3217 24.0004 25.5" stroke="#141414" stroke-width="2" stroke-linecap="round"/>
</svg>
