<svg width="48" height="48" viewBox="0 0 48 48" fill="none" xmlns="http://www.w3.org/2000/svg">
<path d="M20.8379 40.5558C20.8379 41.1081 21.2856 41.5558 21.8379 41.5558C22.3902 41.5558 22.8379 41.1081 22.8379 40.5558H20.8379ZM35.1614 40.5558C35.1614 41.1081 35.6091 41.5558 36.1614 41.5558C36.7137 41.5558 37.1614 41.1081 37.1614 40.5558H35.1614ZM20 7C19.4477 7 19 7.44772 19 8C19 8.55228 19.4477 9 20 9V7ZM28 9C28.5523 9 29 8.55228 29 8C29 7.44772 28.5523 7 28 7V9ZM22.8379 40.5558C22.8379 39.8259 23.0027 39.4265 23.1887 39.1885C23.3762 38.9485 23.6816 38.7494 24.2009 38.6065C24.7304 38.4607 25.4052 38.3946 26.2397 38.3715C27.0791 38.3482 27.9784 38.3689 28.9997 38.3689V36.3689C28.0432 36.3689 27.0584 36.348 26.1843 36.3722C25.3051 36.3966 24.4367 36.4672 23.6702 36.6782C22.8935 36.8919 22.15 37.2696 21.6127 37.9571C21.0739 38.6467 20.8379 39.5257 20.8379 40.5558H22.8379ZM28.9997 38.3689C30.0209 38.3689 30.9202 38.3482 31.7596 38.3715C32.5941 38.3946 33.2689 38.4607 33.7984 38.6065C34.3178 38.7494 34.6231 38.9485 34.8107 39.1885C34.9966 39.4265 35.1614 39.8259 35.1614 40.5558H37.1614C37.1614 39.5257 36.9255 38.6467 36.3866 37.9571C35.8493 37.2696 35.1058 36.8919 34.3292 36.6782C33.5627 36.4672 32.6942 36.3966 31.8151 36.3722C30.9409 36.348 29.9561 36.3689 28.9997 36.3689V38.3689ZM33 27C33 29.2091 31.2091 31 29 31V33C32.3137 33 35 30.3137 35 27H33ZM29 31C26.7909 31 25 29.2091 25 27H23C23 30.3137 25.6863 33 29 33V31ZM25 27C25 24.7909 26.7909 23 29 23V21C25.6863 21 23 23.6863 23 27H25ZM29 23C31.2091 23 33 24.7909 33 27H35C35 23.6863 32.3137 21 29 21V23ZM20 9H28V7H20V9ZM12 3H36V1H12V3ZM41 8V40H43V8H41ZM36 45H12V47H36V45ZM7 40V8H5V40H7ZM12 45C9.23858 45 7 42.7614 7 40H5C5 43.866 8.13401 47 12 47V45ZM41 40C41 42.7614 38.7614 45 36 45V47C39.866 47 43 43.866 43 40H41ZM36 3C38.7614 3 41 5.23858 41 8H43C43 4.13401 39.866 1 36 1V3ZM12 1C8.13401 1 5 4.13401 5 8H7C7 5.23858 9.23858 3 12 3V1Z" fill="#392396"/>
</svg>
