<svg width="36" height="36" viewBox="0 0 36 36" fill="none" xmlns="http://www.w3.org/2000/svg">
<path d="M15.3784 30.4168C15.3784 30.9691 15.8261 31.4168 16.3784 31.4168C16.9307 31.4168 17.3784 30.9691 17.3784 30.4168H15.3784ZM26.1211 30.4168C26.1211 30.9691 26.5688 31.4168 27.1211 31.4168C27.6734 31.4168 28.1211 30.9691 28.1211 30.4168H26.1211ZM15 5C14.4477 5 14 5.44772 14 6C14 6.55228 14.4477 7 15 7V5ZM21 7C21.5523 7 22 6.55228 22 6C22 5.44772 21.5523 5 21 5V7ZM17.3784 30.4168C17.3784 29.9069 17.4932 29.6673 17.5885 29.5453C17.6855 29.4212 17.8597 29.2942 18.217 29.1959C18.5845 29.0947 19.0664 29.0457 19.6867 29.0285C20.3119 29.0112 20.9757 29.0267 21.7497 29.0267V27.0267C21.0405 27.0267 20.2912 27.011 19.6313 27.0293C18.9663 27.0477 18.2908 27.1012 17.6863 27.2676C17.0716 27.4368 16.4592 27.7423 16.0126 28.3139C15.5643 28.8875 15.3784 29.6067 15.3784 30.4168H17.3784ZM21.7497 29.0267C22.5238 29.0267 23.1875 29.0112 23.8128 29.0285C24.4331 29.0457 24.915 29.0947 25.2825 29.1959C25.6398 29.2942 25.814 29.4212 25.911 29.5453C26.0063 29.6673 26.1211 29.9069 26.1211 30.4168H28.1211C28.1211 29.6067 27.9352 28.8875 27.4869 28.3139C27.0403 27.7423 26.4279 27.4368 25.8132 27.2676C25.2087 27.1012 24.5331 27.0477 23.8682 27.0293C23.2082 27.011 22.459 27.0267 21.7497 27.0267V29.0267ZM24.5 20.25C24.5 21.7688 23.2688 23 21.75 23V25C24.3734 25 26.5 22.8734 26.5 20.25H24.5ZM21.75 23C20.2312 23 19 21.7688 19 20.25H17C17 22.8734 19.1266 25 21.75 25V23ZM19 20.25C19 18.7312 20.2312 17.5 21.75 17.5V15.5C19.1266 15.5 17 17.6266 17 20.25H19ZM21.75 17.5C23.2688 17.5 24.5 18.7312 24.5 20.25H26.5C26.5 17.6266 24.3734 15.5 21.75 15.5V17.5ZM15 7H21V5H15V7ZM9 2.5H27V0.5H9V2.5ZM30.5 6V30H32.5V6H30.5ZM27 33.5H9V35.5H27V33.5ZM5.5 30V6H3.5V30H5.5ZM9 33.5C7.067 33.5 5.5 31.933 5.5 30H3.5C3.5 33.0376 5.96243 35.5 9 35.5V33.5ZM30.5 30C30.5 31.933 28.933 33.5 27 33.5V35.5C30.0376 35.5 32.5 33.0376 32.5 30H30.5ZM27 2.5C28.933 2.5 30.5 4.067 30.5 6H32.5C32.5 2.96243 30.0376 0.5 27 0.5V2.5ZM9 0.5C5.96243 0.5 3.5 2.96243 3.5 6H5.5C5.5 4.067 7.067 2.5 9 2.5V0.5Z" fill="white"/>
</svg>
