<svg width="612" height="610" viewBox="0 0 612 610" fill="none" xmlns="http://www.w3.org/2000/svg">
<path opacity="0.25" d="M593.123 441.673L588.905 448.936L583.841 455.636L578.405 462.015L572.896 468.332L566.69 473.967L560.554 479.674L554.008 484.929L546.912 489.405L539.989 494.166L532.472 497.907L525.017 501.76L517.326 505.125L509.325 507.684L501.372 510.315L493.395 512.897L485.262 514.926L476.989 516.322L468.772 517.943L460.486 519.2L452.199 520.547L443.833 521.18L435.435 521.159L427.065 521.914L418.681 521.472L410.304 521.208L401.906 521.302L393.557 520.46L385.225 519.537L376.858 518.862L368.575 517.536L360.313 516.12L352.106 514.394L343.875 512.827L335.603 511.38L327.49 509.239L319.468 506.789L311.391 504.544L303.323 502.251L295.42 499.453L287.31 497.232L279.442 494.323L271.778 490.884L264.031 487.682L256.131 484.829L248.516 481.31L241.075 477.426L233.258 474.322L225.974 470.138L218.495 466.345L211.263 462.095L203.885 458.107L196.632 453.899L189.473 449.535L182.477 444.91L175.524 440.225L168.327 435.903L161.408 431.156L154.778 426.012L147.904 421.199L141.636 415.599L134.965 410.518L128.317 405.391L121.99 399.878L115.865 394.143L109.569 388.592L103.914 382.372L97.7117 376.717L91.9692 370.599L86.5887 364.157L80.6583 358.205L75.4483 351.628L70.1096 345.165L65.1432 338.406L59.8532 331.891L54.9842 325.063L50.439 318.015L45.5666 311.176L41.5016 303.833L37.2139 296.625L33.4239 289.146L29.5991 281.688L26.1954 274.028L22.7255 266.403L19.5411 258.652L16.3531 250.887L13.9134 242.855L12.0097 234.683L9.41691 226.686L7.76378 218.455L6.37515 210.172L5.73478 201.798L5.38327 193.424L5.02828 185.054L4.8125 176.656L5.91227 168.328L6.71274 159.976L8.42851 151.762L10.8578 143.737L13.2313 135.714L16.3183 127.933L19.5341 120.189L23.4947 112.797L28.2278 105.875L32.9332 98.9522L37.997 92.2666L43.548 85.9673L49.9239 80.4998L56.2441 75.0114L62.5852 69.5021L69.4518 64.668L76.6977 60.4151L84.2534 56.7643L91.6316 52.7724L99.3056 49.3756L107.136 46.3443L115.179 43.9359L123.271 41.7434L131.359 39.5334L139.566 37.8176L147.814 36.3106L156.073 34.7932L164.415 33.8744L172.802 33.4986L181.172 32.9626L189.56 32.987L197.94 33.0531L206.328 32.8965L214.68 33.7109L223.057 34.0902L231.438 34.5461L239.756 35.6529L248.029 37.0415L256.301 38.3884L264.508 40.1007L272.826 41.27L280.935 43.4417L289.183 45.0218L297.125 47.7886L305.213 49.9777L313.385 51.9406L321.198 55.0311L329.304 57.2515L336.957 60.7457L344.871 63.523L352.587 66.7979L360.508 69.603L368.137 73.0972L375.685 76.7515L383.238 80.4023L390.536 84.5508L398.224 87.9406L405.452 92.2109L412.942 96.0044L420.024 100.511L427.169 104.904L434.234 109.421L441.257 114.001L448.34 118.504L455.105 123.467L461.742 128.594L468.696 133.303L475.305 138.467L481.521 144.123L488.241 149.155L494.436 154.814L500.54 160.56L507.038 165.895L512.829 171.972L518.648 178.01L524.502 184.01L530.283 190.087L536.039 196.195L540.981 203.002L546.383 209.409L551.714 215.886L556.583 222.715L561.431 229.55L566.064 236.535L570.87 243.408L575.412 250.466L579.177 257.973L583.075 265.39L587.029 272.778L590.777 280.282L594.205 287.939L597.045 295.832L599.982 303.683L602.467 311.688L605.231 319.623L606.884 327.857L608.77 336.033L609.807 344.361L610.911 352.668L611.474 361.035L612 369.415L611.534 377.799L610.932 386.166L610.065 394.519L608.266 402.725L606.338 410.897L603.254 418.71L600.633 426.676L596.871 434.173L593.123 441.673Z" fill="#FFD803"/>
<path d="M86.9758 58.4939L93.2786 62.444" stroke="#392396" stroke-width="1.5" stroke-miterlimit="10"/>
<path d="M101.089 67.3374L107.388 71.2875" stroke="#392396" stroke-width="1.5" stroke-miterlimit="10"/>
<path d="M87.4802 71.7677L93.4698 67.5217" stroke="#392396" stroke-width="1.5" stroke-miterlimit="10"/>
<path d="M100.893 62.2596L106.886 58.0137" stroke="#392396" stroke-width="1.5" stroke-miterlimit="10"/>
<path d="M97.1829 79.2293V70.3755" stroke="#392396" stroke-width="1.5" stroke-miterlimit="10"/>
<path d="M97.1829 59.4058V50.552" stroke="#392396" stroke-width="1.5" stroke-miterlimit="10"/>
<path d="M541.545 24.0046L547.845 27.9513" stroke="#392396" stroke-width="1.5" stroke-miterlimit="10"/>
<path d="M555.654 32.8442L561.957 36.7943" stroke="#392396" stroke-width="1.5" stroke-miterlimit="10"/>
<path d="M542.047 37.2782L548.04 33.0288" stroke="#392396" stroke-width="1.5" stroke-miterlimit="10"/>
<path d="M555.464 27.7664L561.453 23.5205" stroke="#392396" stroke-width="1.5" stroke-miterlimit="10"/>
<path d="M551.75 44.7367V35.8828" stroke="#392396" stroke-width="1.5" stroke-miterlimit="10"/>
<path d="M551.75 24.9129V16.0591" stroke="#392396" stroke-width="1.5" stroke-miterlimit="10"/>
<path d="M18.1248 196.512L24.4275 200.458" stroke="#392396" stroke-width="1.5" stroke-miterlimit="10"/>
<path d="M32.2349 205.355L38.5377 209.301" stroke="#392396" stroke-width="1.5" stroke-miterlimit="10"/>
<path d="M18.6262 209.785L24.6193 205.539" stroke="#392396" stroke-width="1.5" stroke-miterlimit="10"/>
<path d="M32.043 200.274L38.0325 196.028" stroke="#392396" stroke-width="1.5" stroke-miterlimit="10"/>
<path d="M28.3289 217.244V208.393" stroke="#392396" stroke-width="1.5" stroke-miterlimit="10"/>
<path d="M28.3289 197.42V188.566" stroke="#392396" stroke-width="1.5" stroke-miterlimit="10"/>
<path d="M578.695 262.846L584.998 266.796" stroke="#392396" stroke-width="1.5" stroke-miterlimit="10"/>
<path d="M592.806 271.689L599.105 275.636" stroke="#392396" stroke-width="1.5" stroke-miterlimit="10"/>
<path d="M579.199 276.12L585.189 271.874" stroke="#392396" stroke-width="1.5" stroke-miterlimit="10"/>
<path d="M592.612 266.611L598.605 262.362" stroke="#392396" stroke-width="1.5" stroke-miterlimit="10"/>
<path d="M588.902 283.581V274.727" stroke="#392396" stroke-width="1.5" stroke-miterlimit="10"/>
<path d="M588.902 263.754V254.904" stroke="#392396" stroke-width="1.5" stroke-miterlimit="10"/>
<path d="M545.255 508.606L551.558 512.556" stroke="#392396" stroke-width="1.5" stroke-miterlimit="10"/>
<path d="M559.368 517.449L565.668 521.399" stroke="#392396" stroke-width="1.5" stroke-miterlimit="10"/>
<path d="M545.76 521.879L551.749 517.634" stroke="#392396" stroke-width="1.5" stroke-miterlimit="10"/>
<path d="M559.174 512.372L565.167 508.126" stroke="#392396" stroke-width="1.5" stroke-miterlimit="10"/>
<path d="M555.464 529.341V520.488" stroke="#392396" stroke-width="1.5" stroke-miterlimit="10"/>
<path d="M555.464 509.518V500.664" stroke="#392396" stroke-width="1.5" stroke-miterlimit="10"/>
<path d="M0 456.071L6.29931 460.021" stroke="#392396" stroke-width="1.5" stroke-miterlimit="10"/>
<path d="M14.1086 464.915L20.408 468.861" stroke="#392396" stroke-width="1.5" stroke-miterlimit="10"/>
<path d="M0.501709 469.345L6.49128 465.099" stroke="#392396" stroke-width="1.5" stroke-miterlimit="10"/>
<path d="M13.917 459.837L19.9066 455.587" stroke="#392396" stroke-width="1.5" stroke-miterlimit="10"/>
<path d="M10.2043 476.806V467.953" stroke="#392396" stroke-width="1.5" stroke-miterlimit="10"/>
<path d="M10.2043 456.983V448.129" stroke="#392396" stroke-width="1.5" stroke-miterlimit="10"/>
<path d="M3.90161 17.1484L10.2044 21.0951" stroke="#392396" stroke-width="1.5" stroke-miterlimit="10"/>
<path d="M18.0146 25.988L24.314 29.9382" stroke="#392396" stroke-width="1.5" stroke-miterlimit="10"/>
<path d="M4.40601 30.422L10.3956 26.1726" stroke="#392396" stroke-width="1.5" stroke-miterlimit="10"/>
<path d="M17.8188 20.9103L23.8119 16.6643" stroke="#392396" stroke-width="1.5" stroke-miterlimit="10"/>
<path d="M14.1086 37.8802V29.0264" stroke="#392396" stroke-width="1.5" stroke-miterlimit="10"/>
<path d="M14.1086 18.0567V9.20288" stroke="#392396" stroke-width="1.5" stroke-miterlimit="10"/>
<path d="M186.24 8.54858L192.543 12.4987" stroke="#392396" stroke-width="1.5" stroke-miterlimit="10"/>
<path d="M200.35 17.3921L206.653 21.3422" stroke="#392396" stroke-width="1.5" stroke-miterlimit="10"/>
<path d="M186.744 21.8221L192.734 17.5762" stroke="#392396" stroke-width="1.5" stroke-miterlimit="10"/>
<path d="M200.158 12.3143L206.152 8.06836" stroke="#392396" stroke-width="1.5" stroke-miterlimit="10"/>
<path d="M196.448 29.284V20.4302" stroke="#392396" stroke-width="1.5" stroke-miterlimit="10"/>
<path d="M196.448 9.46028V0.606445" stroke="#392396" stroke-width="1.5" stroke-miterlimit="10"/>
<path d="M141.324 312.715L147.627 316.665" stroke="#392396" stroke-width="1.5" stroke-miterlimit="10"/>
<path d="M155.437 321.558L161.736 325.508" stroke="#392396" stroke-width="1.5" stroke-miterlimit="10"/>
<path d="M141.828 325.989L147.818 321.743" stroke="#392396" stroke-width="1.5" stroke-miterlimit="10"/>
<path d="M155.241 316.48L161.234 312.234" stroke="#392396" stroke-width="1.5" stroke-miterlimit="10"/>
<path d="M151.531 333.45V324.596" stroke="#392396" stroke-width="1.5" stroke-miterlimit="10"/>
<path d="M151.531 313.626V304.772" stroke="#392396" stroke-width="1.5" stroke-miterlimit="10"/>
<path d="M602.057 210.363L593.809 211.654L585.501 212.632L577.246 213.937L569.053 215.656L560.774 216.808L552.543 218.266L544.208 219.074L536.033 220.901L527.749 222.025L519.505 223.396L511.263 224.799L503.008 226.111L494.666 226.87L486.442 228.373L478.229 229.957L469.966 231.234L461.704 232.49L453.459 233.868L445.176 235L436.89 236.127L428.666 237.638L420.4 238.873L412.061 239.663L403.851 241.261L395.631 242.795L387.358 244.007L379.079 245.148L370.799 246.317L362.572 247.793L354.323 249.164L346.089 250.577L337.813 251.764L329.506 252.746L321.285 254.266L313.051 255.721L304.709 256.469L296.495 258.046L288.195 259.066L279.95 260.44L271.726 261.961L263.412 262.887L255.205 264.519L246.971 265.974L238.628 266.729L230.432 268.407L222.167 269.667L213.849 270.582L205.646 272.242L197.338 273.213L189.118 274.769L180.8 275.677L172.566 277.125L164.293 278.343L156.059 279.798L147.814 281.183L139.569 282.572L131.338 284.03L123.017 284.938L114.762 286.271L106.5 287.545L98.2687 289.034L90.0309 290.472L81.7304 291.422L80.5471 283.431L79.0715 275.468L78.2223 267.404L76.7467 259.445L75.2223 251.486L74.5262 243.401L73.2698 235.403L71.7281 227.451L70.2872 219.477L69.5077 211.407L67.6736 203.496L66.7756 195.453L75.0343 194.242L83.2896 192.954L91.517 191.468L99.7617 190.083L108.094 189.269L116.283 187.532L124.548 186.286L132.779 184.814L141.128 184.111L149.401 182.917L157.562 180.999L165.887 180.133L174.108 178.598L182.335 177.102L190.59 175.81L198.863 174.592L207.184 173.726L215.432 172.354L223.681 170.987L231.915 169.542L240.17 168.248L248.439 167.023L256.768 166.167L264.967 164.489L273.202 163.045L281.453 161.705L289.799 160.977L298.033 159.533L306.323 158.447L314.547 156.933L322.823 155.764L331.04 154.205L339.303 152.955L347.516 151.375L355.813 150.335L364.051 148.908L372.337 147.794L380.617 146.646L388.82 144.999L397.082 143.743L405.424 142.97L413.673 141.617L421.945 140.419L430.155 138.815L438.431 137.621L446.634 135.989L454.959 135.112L463.197 133.664L471.494 132.631L479.69 130.936L488.026 130.107L496.225 128.454L504.459 126.999L512.749 125.9L520.998 124.535L529.246 123.175L537.494 121.796L545.77 120.617L554.113 119.851L562.33 118.281L570.581 116.934L578.798 115.354L587.067 114.432L588.522 122.343L589.514 130.382L591.188 138.314L592.225 146.346L593.652 154.316L594.661 162.352L596.158 170.315L596.892 178.396L598.208 186.383L599.903 194.315L600.689 202.389L602.057 210.363Z" fill="#BAE8E8"/>
<path d="M48.1807 308.542L399.028 554.677H48.1807V308.542Z" fill="#FFD803"/>
<path d="M595.501 205.814L587.405 207.286L579.126 208.438L570.909 209.987L562.626 211.114L554.332 212.186L546.119 213.759L537.846 214.946L529.577 216.171L521.329 217.522L513.077 218.851L504.825 220.191L496.539 221.301L488.332 222.923L480.014 223.831L471.784 225.307L463.521 226.567L455.27 227.903L447.004 229.156L438.783 230.681L430.487 231.735L422.27 233.287L413.924 234.029L405.676 235.389L397.469 237.011L389.21 238.299L380.92 239.378L372.71 240.986L364.358 241.692L356.193 243.568L347.882 244.532L339.669 246.088L331.372 247.142L323.123 248.496L314.858 249.732L306.55 250.717L298.354 252.411L290.123 253.87L281.833 254.945L273.526 255.93L265.253 257.131L257.068 258.892L248.819 260.246L240.512 261.231L232.295 262.779L224.05 264.175L215.743 265.153L207.505 266.576L199.215 267.686L190.994 269.211L182.67 270.084L174.487 271.873L166.201 272.99L157.97 274.466L149.628 275.232L141.39 276.666L133.1 277.748L124.89 279.366L116.649 280.783L108.345 281.792L100.093 283.135L91.8029 284.26L83.5789 285.773L75.4142 286.845L74.2414 278.973L72.6822 271.024L71.4919 263.016L70.601 254.963L68.8956 247.034L67.5871 239.044L66.6857 230.99L65.5546 222.972L64.0929 215.005L62.7042 207.025L61.775 198.975L60.2297 190.911L68.5824 189.551L76.9038 188.67L85.0859 186.895L93.4282 186.143L101.61 184.368L109.942 183.554L118.156 181.964L126.425 180.749L134.715 179.67L142.932 178.097L151.201 176.889L159.404 175.247L167.743 174.464L175.932 172.717L184.204 171.523L192.54 170.719L200.739 169.059L209.029 167.976L217.284 166.647L225.487 165.022L233.739 163.678L242.05 162.711L250.326 161.545L258.592 160.292L266.795 158.635L275.092 157.609L283.344 156.269L291.585 154.866L299.865 153.697L308.102 152.287L316.41 151.32L324.689 150.154L332.938 148.821L341.13 147.098L349.413 145.981L357.721 144.986L365.892 143.148L374.151 141.871L382.486 141.049L390.735 139.716L398.917 137.928L407.266 137.211L415.466 135.547L423.728 134.273L432.046 133.351L440.301 132.035L448.553 130.706L456.811 129.415L465.007 127.706L473.266 126.397L481.556 125.305L489.857 124.274L498.06 122.635L506.398 121.845L514.65 120.498L522.843 118.8L531.091 117.418L539.44 116.708L547.699 115.403L555.857 113.458L564.185 112.595L572.444 111.279L580.508 110.2L581.941 117.93L583.382 125.9L584.698 133.887L585.86 141.899L586.678 149.966L588.15 157.929L589.567 165.902L590.583 173.942L592.059 181.904L592.932 189.965L594.725 197.882L595.501 205.814Z" stroke="#392396" stroke-width="1.5" stroke-miterlimit="10"/>
<path d="M215.158 191.301L212.913 199.198L210.682 207.091L208.66 215.04L206.76 223.031L203.819 230.708L201.296 238.508L197.123 245.479L189.254 242.43L181.956 238.247L174.532 234.297L167.29 230.026L160.155 225.578L153.129 220.95L145.764 216.878L138.602 212.475L131.669 207.704L124.399 203.479L117.306 198.912L118.392 190.069L118.263 181.194L117.522 172.382L114.891 163.946L108.96 157.414L107.523 165.206L110.335 173.941L107.662 166.17L104.746 158.489L101.387 150.968L95.7215 145.236L88.6809 148.059L84.4419 154.664L82.0161 162.129L80.3108 169.883L81.1739 177.777L82.4616 185.569L84.4454 193.167L87.4662 200.409L90.9674 207.425L95.9999 213.457L101.332 219.244L107.44 224.207L114.324 229.222L120.762 234.832L128.012 239.343L134.603 244.772L141.64 249.578L149.046 253.831L156.108 258.589L163.309 263.141L170.617 267.516L177.832 272.044L185.088 276.512L192.546 280.64L200.245 284.294L208.375 286.904L215.321 282.53L220.549 276.14L225.39 269.461L229.604 262.379L233.697 255.234L238.149 248.287L241.782 240.881L245.499 233.534L249.452 226.313L253.069 218.921" fill="white"/>
<path d="M215.158 191.301L212.913 199.198L210.682 207.091L208.66 215.04L206.76 223.031L203.819 230.708L201.296 238.508L197.123 245.479L189.254 242.43L181.956 238.247L174.532 234.297L167.29 230.026L160.155 225.578L153.129 220.95L145.764 216.878L138.602 212.475L131.669 207.704L124.399 203.479L117.306 198.912L118.392 190.069L118.263 181.194L117.522 172.382L114.891 163.946L108.96 157.414L107.523 165.206L110.335 173.941L107.662 166.17L104.746 158.489L101.387 150.968L95.7215 145.236L88.6809 148.059L84.4419 154.664L82.0161 162.129L80.3108 169.883L81.1739 177.777L82.4616 185.569L84.4454 193.167L87.4662 200.409L90.9674 207.425L95.9999 213.457L101.332 219.244L107.44 224.207L114.324 229.222L120.762 234.832L128.012 239.343L134.603 244.772L141.64 249.578L149.046 253.831L156.108 258.589L163.309 263.141L170.617 267.516L177.832 272.044L185.088 276.512L192.546 280.64L200.245 284.294L208.375 286.904L215.321 282.53L220.549 276.14L225.39 269.461L229.604 262.379L233.697 255.234L238.149 248.287L241.782 240.881L245.499 233.534L249.452 226.313L253.069 218.921" stroke="#392396" stroke-width="1.5" stroke-miterlimit="10"/>
<path d="M452.645 152.127L446.673 145.908L442.834 137.962L439.465 129.829L435.578 121.953L430.928 114.463L424.461 108.422L416.791 104.002L408.275 101.639L400.103 100.375L391.876 101.165L383.805 102.867L375.981 105.498L368.325 108.589L360.101 109.528L353.123 105.324L347.728 99.1362L343.935 91.7963L340.743 83.983L336.821 76.5144L332.721 69.1466L328.159 62.0607L323.272 55.1907L317.777 48.787L311.432 43.2324L304.743 38.092L297.362 33.9679L289.395 31.1454L281.136 29.4957L272.85 27.9366L264.417 27.4424L255.706 27.8948L247.2 29.7637L239.119 32.8612L232.228 38.0503L226.896 44.9273L223.583 53.0851L216.483 49.5735L209.157 46.6431L201.257 46.3751L193.872 48.8879L187.245 53.0955L182.436 59.3844L179.196 66.5573L185.752 70.4239L190.388 76.5248L193.5 83.5132L196.955 90.345L202.03 96.0492L206.728 103.243L212.164 109.908L217.158 116.889L221.624 124.243L227.157 130.838L231.664 138.168L236.627 145.17L242.056 151.842L246.765 159.025L251.944 165.878L256.917 172.793L264.925 171.272L273.177 170.134L281.485 169.497L289.813 169.49L298.113 170.033L306.358 171.007L314.509 172.528L322.576 174.519L330.097 178.041L337.347 182.047L343.618 187.459L349.12 193.643L354.602 200.461L360.532 206.879L366.825 212.976L374.356 217.434L382.11 221.454L390.654 223.233L399.316 223.643L408.045 223.01L416.203 219.825L424.211 216.324L432.463 213.55L441.233 213.3L449.906 214.751L458.52 216.557L467.248 217.762L476.039 218.308L483.717 214.184L487.027 206.082L487.604 197.583L486.337 189.133L483.16 181.191L478.152 174.3L472.858 167.659L466.59 161.9L459.779 156.794L452.645 152.127Z" fill="#392396"/>
<path d="M452.645 152.127L446.673 145.908L442.834 137.962L439.465 129.829L435.578 121.953L430.928 114.463L424.461 108.422L416.791 104.002L408.275 101.639L400.103 100.375L391.876 101.165L383.805 102.867L375.981 105.498L368.325 108.589L360.101 109.528L353.123 105.324L347.728 99.1362L343.935 91.7963L340.743 83.983L336.821 76.5144L332.721 69.1466L328.159 62.0607L323.272 55.1907L317.777 48.787L311.432 43.2324L304.743 38.092L297.362 33.9679L289.395 31.1454L281.136 29.4957L272.85 27.9366L264.417 27.4424L255.706 27.8948L247.2 29.7637L239.119 32.8612L232.228 38.0503L226.896 44.9273L223.583 53.0851L216.483 49.5735L209.157 46.6431L201.257 46.3751L193.872 48.8879L187.245 53.0955L182.436 59.3844L179.196 66.5573L185.752 70.4239L190.388 76.5248L193.5 83.5132L196.955 90.345L202.03 96.0492L206.728 103.243L212.164 109.908L217.158 116.889L221.624 124.243L227.157 130.838L231.664 138.168L236.627 145.17L242.056 151.842L246.765 159.025L251.944 165.878L256.917 172.793L264.925 171.272L273.177 170.134L281.485 169.497L289.813 169.49L298.113 170.033L306.358 171.007L314.509 172.528L322.576 174.519L330.097 178.041L337.347 182.047L343.618 187.459L349.12 193.643L354.602 200.461L360.532 206.879L366.825 212.976L374.356 217.434L382.11 221.454L390.654 223.233L399.316 223.643L408.045 223.01L416.203 219.825L424.211 216.324L432.463 213.55L441.233 213.3L449.906 214.751L458.52 216.557L467.248 217.762L476.039 218.308L483.717 214.184L487.027 206.082L487.604 197.583L486.337 189.133L483.16 181.191L478.152 174.3L472.858 167.659L466.59 161.9L459.779 156.794L452.645 152.127Z" stroke="#392396" stroke-width="1.5" stroke-miterlimit="10"/>
<path d="M271.287 337.741L273.532 345.561L276.233 353.228L279.386 360.728L282.441 368.26L285.417 375.819L287.926 383.573L291.16 391.031L294.271 398.542L297.692 405.92L301.11 413.294L304.722 420.579L307.886 428.089L312.24 434.98L316.298 442.01L320.592 448.898L325.489 455.357L331.204 461.051L338.196 465.791L346.016 469.066L354.052 471.735L362.056 474.537L370.232 476.778L378.535 478.515L386.7 480.84L394.994 482.625L403.343 484.118L411.765 485.19L420.107 486.687L428.404 488.514L436.851 489.349L445.037 490.919L451.085 496.71L456.466 503.18L462.226 509.308L467.638 515.75L473.505 521.782L478.966 528.182L484.688 534.353L490.284 540.868L489.264 532.421L488.787 524.107L488.171 515.806L487.173 507.537L487.079 499.191L486.389 490.894L485.345 482.656L480.376 477.547L474.96 472.842L470.182 467.837L477.299 464.907L484.628 462.154L483.664 455.563L482.721 448.859L474.529 448.083L466.287 447.589L458.143 446.218L449.975 445.118L441.73 444.547L433.601 443.155L425.432 441.986L417.355 440.284L409.301 438.52L401.23 436.853L393.153 435.13L385.465 432.105L377.826 429.053L371.377 423.986L367.938 416.375L365.683 408.349L363.295 400.362L361.35 392.26L359.662 384.098L358.221 375.892L356.175 367.811L354.525 359.646L353.328 351.394L351.511 343.257L350.074 335.054L348.657 326.848L346.882 318.7L345.615 310.466L344.363 302.232L343.221 293.98L341.864 285.767L340.426 277.563" fill="white"/>
<path d="M271.287 337.741L273.532 345.561L276.233 353.228L279.386 360.728L282.441 368.26L285.417 375.819L287.926 383.573L291.16 391.031L294.271 398.542L297.692 405.92L301.11 413.294L304.722 420.579L307.886 428.089L312.24 434.98L316.298 442.01L320.592 448.898L325.489 455.357L331.204 461.051L338.196 465.791L346.016 469.066L354.052 471.735L362.056 474.537L370.232 476.778L378.535 478.515L386.7 480.84L394.994 482.625L403.343 484.118L411.765 485.19L420.107 486.687L428.404 488.514L436.851 489.349L445.037 490.919L451.085 496.71L456.466 503.18L462.226 509.308L467.638 515.75L473.505 521.782L478.966 528.182L484.688 534.353L490.284 540.868L489.264 532.421L488.787 524.107L488.171 515.806L487.173 507.537L487.079 499.191L486.389 490.894L485.345 482.656L480.376 477.547L474.96 472.842L470.182 467.837L477.299 464.907L484.628 462.154L483.664 455.563L482.721 448.859L474.529 448.083L466.287 447.589L458.143 446.218L449.975 445.118L441.73 444.547L433.601 443.155L425.432 441.986L417.355 440.284L409.301 438.52L401.23 436.853L393.153 435.13L385.465 432.105L377.826 429.053L371.377 423.986L367.938 416.375L365.683 408.349L363.295 400.362L361.35 392.26L359.662 384.098L358.221 375.892L356.175 367.811L354.525 359.646L353.328 351.394L351.511 343.257L350.074 335.054L348.657 326.848L346.882 318.7L345.615 310.466L344.363 302.232L343.221 293.98L341.864 285.767L340.426 277.563" stroke="#392396" stroke-width="1.5" stroke-miterlimit="10"/>
<path d="M561.613 601.484L554.037 603.544L545.691 604.007L537.394 604.989L529.083 605.998L520.699 605.685L512.388 606.861L504.025 606.791L495.686 607.439L487.33 607.592L478.978 607.87L470.611 607.529L462.272 608.295L453.92 608.462L445.549 607.849L437.211 608.813L428.848 608.337L420.495 608.514L412.139 608.619L403.793 609.276L395.43 608.678L387.077 609.217L378.721 609.116L370.368 609.544L362.012 609.649L353.653 609.412L345.297 609.576L336.937 609.186L328.581 609.315L320.225 609.732L311.868 608.869L303.512 609.175L295.156 609.704L286.803 608.897L278.44 609.652L270.091 608.831L261.731 609.161L253.372 609.241L245.019 608.967L236.67 608.608L228.31 608.782L219.954 608.674L211.594 608.692L203.259 607.714L194.893 608.145L186.54 607.936L178.18 607.874L169.852 606.84H161.496L153.161 606.186L144.804 606.057L136.445 606.001L128.089 605.737L119.743 605.309L111.418 604.564L103.156 603.259L95.6907 601.484L103.09 599.159L111.439 598.634L119.764 597.91L128.089 597.207L136.438 596.859L144.784 596.389L153.133 596.016L161.482 595.752L169.838 595.585L178.187 595.296L186.543 595.216L194.886 594.558L203.256 595.167L211.594 594.381L219.965 594.941L228.31 594.339L236.67 594.645L245.016 593.96L253.368 593.632L261.725 593.469L270.084 593.966L278.437 593.827L286.796 594.085L295.153 594.165L303.509 593.963L311.865 593.834L320.221 593.723L328.581 594.033L336.937 593.465L345.293 594.064L353.649 593.138L362.005 593.451L370.358 593.914L378.718 593.542L387.067 594.321L395.423 594.433L403.783 593.956L412.139 594.165L420.498 593.869L428.848 594.374L437.197 594.861L445.567 594.221L453.913 594.757L462.258 595.237L470.621 595.07L478.957 595.947L487.309 596.089L495.669 596.076L504.039 595.78L512.357 596.911L520.717 596.949L529.034 597.844L537.391 598.059L545.768 598.125L554.072 599.159L561.613 601.484Z" fill="#392396"/>
<path d="M420.355 1.76504L412.381 1.96342L404.45 2.84741L396.609 4.41354L389.22 7.46575L382.225 11.2871L376.545 16.8486L371.634 23.1583L369.129 30.801L368.318 38.7918L369.08 46.7547L371.568 54.3765L376.086 60.989L382.357 66.2303L378.685 73.0169L375.362 79.9009L371.582 86.7535L380.161 82.1909L388.43 77.3498L397.026 73.1143L404.735 74.6735L412.493 75.9403L420.355 76.3753L428.352 75.9125L436.221 74.5203L444.049 72.982L451.479 70.0969L458.436 66.2268L464.248 60.808L468.536 54.1642L471.557 46.779L471.797 38.7918L471.292 30.8602L468.783 23.301L464.645 16.431L458.332 11.5029L451.688 7.03419L444.031 4.65368L436.263 2.83001L428.363 1.5249L420.355 1.76504Z" fill="white"/>
<path d="M420.355 1.76504L412.381 1.96342L404.45 2.84741L396.609 4.41354L389.22 7.46575L382.225 11.2871L376.545 16.8486L371.634 23.1583L369.129 30.801L368.318 38.7918L369.08 46.7547L371.568 54.3765L376.086 60.989L382.357 66.2303L378.685 73.0169L375.362 79.9009L371.582 86.7535L380.161 82.1909L388.43 77.3498L397.026 73.1143L404.735 74.6735L412.493 75.9403L420.355 76.3753L428.352 75.9125L436.221 74.5203L444.049 72.9821L451.479 70.0969L458.436 66.2268L464.248 60.808L468.536 54.1642L471.557 46.779L471.797 38.7918L471.292 30.8602L468.783 23.301L464.645 16.431L458.332 11.5029L451.688 7.03419L444.031 4.65368L436.263 2.83001L428.363 1.5249L420.355 1.76504Z" stroke="#392396" stroke-width="1.5" stroke-miterlimit="10"/>
<path d="M263.36 278.302L258.954 285.711L253.552 292.428L248.645 299.5L243.31 306.252L238.034 313.052L233.252 320.218L228.021 327.05L222.835 333.916L217.587 340.741L212.819 347.907L207.741 354.857L203.165 362.152L197.913 368.998L193.357 376.303L188.861 383.646L184.719 391.084L180.915 398.698L177.623 406.546L174.912 414.614L171.863 422.545L169.378 430.672L166.51 438.68L164.307 446.893L162.578 455.225L160.329 463.425L158.645 471.753L156.613 480.015L154.879 488.34L153.553 496.741L152.596 505.195L151.079 513.558L150.038 521.994L148.865 530.41L148.051 538.867L147.303 547.466L141.209 553.011L135.894 559.24L129.995 564.899L124.263 570.725L118.309 576.328L113.019 582.586L106.911 588.043L101.516 594.2L95.7981 599.949L103.608 600.228L111.487 600.061L119.367 599.653L127.246 600.29L135.125 599.789L143.019 600.012L150.195 595.387L157.507 591.005L164.962 586.849L172.187 581.841L173.262 591.033L174.557 599.834L181.754 599.862L189.115 600.012L190.263 591.767L191.109 583.529L192.132 575.312L192.811 567.043L194.346 558.896L195.278 550.654L196.883 542.525L198.244 534.349L199.685 526.188L201.814 518.17L203.151 509.984L205.149 501.937L207.411 493.964L209.784 486.026L211.563 477.917L214.497 470.152L216.825 462.193L219.95 454.515L223.396 446.98L226.886 439.473L230.913 432.234L235.444 425.166L240.466 418.428L246.021 412.125L251.485 405.746L257.635 400.01L263.388 393.903L269.137 387.777L275.603 382.39L281.506 376.418L287.635 370.682L293.349 364.515L299.464 358.766L305.572 352.999L311.377 346.929L316.786 340.494L322.163 334.059L327.752 327.781L332.45 320.817L337.177 313.87L341.165 306.46L343.838 298.487L346.163 290.441L347.043 282.092L346.451 273.641L345.272 265.261L343.319 257.009L340.253 249.102L337.027 241.264L332.906 233.851L328.893 226.393L325.277 218.723L322.142 210.843L319.476 202.797L317.221 195.008L315.16 187.156L312.414 179.524L310.093 171.739L306.599 164.406L303.453 156.934L299.464 149.872L295.124 143.006L289.772 136.898L283.792 131.43L277.152 126.815L269.892 123.283L262.357 120.325L252.975 119.193L243.529 119.503L234.125 120.213L230.582 112.17L227.937 103.706L227.196 95.0786L219.188 95.2073L211.57 92.0438L205.239 86.6354L199.545 80.5762L193.284 75.1261L186.592 70.2572L179.245 66.7734L176.955 73.64L176.541 81.067L177.411 88.4347L177.8 96.9718L176.976 105.512L182.036 104.764L185.708 111.801L191.227 117.467L198.32 120.812L205.653 118.09L211.187 112.383L212.036 119.608L213.063 126.711L212.666 133.863L210.627 141.617L207.675 149.075L205.323 156.732L203.033 164.402L201.526 172.254L201.599 180.189L204.821 187.383L211.775 193.216L219.95 197.082L225.623 203.897L229.625 211.355L234.024 218.622L237.226 226.477L241.009 234.067L243.929 242.027L246.995 249.923L249.167 258.119L251.332 266.295L253.069 274.571L254.405 282.927L254.6 291.436" fill="white"/>
<path d="M263.36 278.302L258.954 285.711L253.552 292.428L248.645 299.5L243.31 306.252L238.034 313.052L233.252 320.218L228.021 327.05L222.835 333.916L217.587 340.741L212.819 347.907L207.741 354.857L203.165 362.152L197.913 368.998L193.357 376.303L188.861 383.646L184.719 391.084L180.915 398.698L177.623 406.546L174.912 414.614L171.863 422.545L169.378 430.672L166.51 438.68L164.307 446.893L162.578 455.225L160.329 463.425L158.645 471.753L156.613 480.015L154.879 488.34L153.553 496.741L152.596 505.195L151.079 513.558L150.038 521.994L148.865 530.41L148.051 538.867L147.303 547.467L141.209 553.011L135.894 559.24L129.995 564.899L124.263 570.725L118.309 576.329L113.019 582.586L106.911 588.043L101.516 594.2L95.7981 599.949L103.608 600.228L111.487 600.061L119.367 599.653L127.246 600.29L135.125 599.789L143.019 600.012L150.195 595.387L157.507 591.005L164.962 586.849L172.187 581.841L173.262 591.033L174.557 599.834L181.754 599.862L189.115 600.012L190.263 591.767L191.109 583.529L192.132 575.312L192.811 567.043L194.346 558.896L195.278 550.654L196.883 542.525L198.244 534.349L199.685 526.188L201.814 518.17L203.151 509.984L205.149 501.937L207.411 493.964L209.784 486.026L211.563 477.917L214.497 470.152L216.825 462.193L219.95 454.515L223.396 446.98L226.886 439.473L230.913 432.234L235.444 425.166L240.466 418.428L246.021 412.125L251.485 405.746L257.635 400.01L263.388 393.903L269.137 387.777L275.603 382.39L281.506 376.418L287.635 370.682L293.349 364.515L299.464 358.766L305.572 352.999L311.377 346.929L316.786 340.494L322.163 334.059L327.752 327.781L332.45 320.817L337.177 313.87L341.165 306.46L343.838 298.487L346.163 290.441L347.043 282.092L346.451 273.641L345.272 265.261L343.319 257.009L340.253 249.102L337.027 241.264L332.906 233.851L328.893 226.393L325.277 218.723L322.142 210.843L319.476 202.797L317.221 195.008L315.16 187.156L312.414 179.524L310.093 171.739L306.599 164.406L303.453 156.934L299.464 149.872L295.124 143.006L289.772 136.898L283.792 131.43L277.152 126.815L269.892 123.283L262.357 120.325L252.975 119.193L243.529 119.503L234.125 120.213L230.582 112.17L227.937 103.706L227.196 95.0786L219.188 95.2073L211.57 92.0438L205.239 86.6354L199.545 80.5762L193.284 75.1261L186.592 70.2572L179.245 66.7734L176.955 73.64L176.541 81.067L177.411 88.4347L177.801 96.9718L176.976 105.512L182.036 104.764L185.708 111.801L191.227 117.467L198.32 120.812L205.653 118.09L211.187 112.383L212.036 119.608L213.063 126.711L212.666 133.863L210.627 141.617L207.675 149.075L205.323 156.732L203.033 164.402L201.526 172.254L201.599 180.189L204.821 187.383L211.775 193.216L219.95 197.082L225.623 203.897L229.625 211.355L234.024 218.622L237.226 226.477L241.009 234.067L243.929 242.027L246.995 249.923L249.167 258.119L251.332 266.295L253.069 274.571L254.405 282.927L254.6 291.436" stroke="#392396" stroke-width="1.5" stroke-miterlimit="10"/>
<path d="M578.138 387.164L570.335 389.444L562.32 391.716L554.26 393.808L546.185 395.855L538.003 397.476L529.943 399.568L521.862 401.593L513.86 403.915L505.724 405.725L497.74 408.109L489.641 410.068L481.557 412.069L473.583 414.516L465.547 416.705L457.344 418.254L449.395 420.787L441.328 422.865L433.16 424.546L425.131 426.766L417.063 428.848L409.02 431.012L400.929 432.986L392.841 434.987L384.833 437.294L376.703 439.135L368.604 441.095L360.589 443.367L352.616 445.817L344.576 447.491L342.683 439.362L340.539 431.162L338.068 423.046L335.938 414.846L333.798 406.647L332.117 398.329L329.552 390.237L327.31 382.066L325.723 373.72L323.406 365.569L320.914 357.46L319.33 349.114L317.197 340.915L314.823 332.771L312.554 324.606L310.452 316.393L308.705 308.089L306.564 300.042L314.423 297.787L322.577 296.047L330.502 293.426L338.562 291.331L346.786 289.866L354.679 287.124L362.889 285.613L370.96 283.553L378.888 280.943L387.039 279.185L395.044 276.874L403.097 274.744L411.175 272.715L419.221 270.564L427.292 268.49L435.405 266.597L443.531 264.756L451.626 262.782L459.69 260.701L467.674 258.307L475.828 256.567L483.836 254.259L491.945 252.352L499.974 250.118L507.993 247.859L516.05 245.736L524.214 244.031L532.149 241.434L540.22 239.698L542.663 247.734L544.818 255.93L546.349 264.286L548.98 272.36L550.727 280.661L552.885 288.853L555.088 297.039L556.999 305.298L559.087 313.511L561.575 321.62L563.347 329.917L565.577 338.092L567.725 346.292L569.778 354.512L571.758 362.757L573.888 370.96L576.558 379.031L578.138 387.164Z" stroke="#392396" stroke-width="1.5" stroke-miterlimit="10"/>
<path d="M269.951 160.417L278.55 160.435L287.161 160.41L295.747 161.033L304.332 161.569L312.911 162.199L321.515 162.669L330.02 164.033L338.505 165.457L347.035 166.727L355.367 168.954L363.428 171.996L371.446 175.128L378.71 179.754L384.602 185.312L390 191.374L394.646 198.043L398.352 205.275L402.292 212.367L405.539 219.808L408.897 227.2L411.884 234.756L414.741 242.367L417.02 250.306L410.578 257.249L405.995 265.435L403.138 274.055L413.38 272.086L411.842 280.905L410.397 289.971L409.047 299.054L407.69 308.134L406.959 311.058L408.904 313.4L411.817 312.279L413.391 309.523L416.411 300.77L418.827 291.829L420.703 282.996L420.403 291.356L419.185 299.872L416.937 308.176L416.523 311.472L417.598 314.524L421.917 313.553L423.4 309.255L425.443 300.419L427.482 291.6L429.501 282.993L428.913 291.203L427.827 299.583L426.483 307.943L426.33 310.866L428.067 312.899L432.32 310.229L435.33 301.052L437.579 291.718L439.266 282.199L438.233 292.598L437.21 302.956L437.321 305.51L440.888 305.395L442.413 301.856L444.396 293.59L445.211 285.116L445.047 276.606L445.11 268.08L444.264 259.595L442.764 251.204L441.052 243.151L439.604 235.059L438.362 226.905L436.016 219.008L434.324 210.937L431.324 203.249L428.975 195.359L425.85 187.748L422.815 180.095L418.83 172.894L414.87 165.686L410.063 159.018L404.933 152.573L398.502 147.439L391.677 142.911L384.212 139.313L376.458 136.386L368.902 132.923L361.023 130.313L352.962 128.336L344.996 126.018L336.831 124.546L328.774 122.531L320.526 121.595L312.302 120.565L304.068 119.618L295.809 118.887L287.533 118.389L279.243 118.483L270.956 117.982L262.663 118.041L254.408 118.946L246.142 119.413" fill="white"/>
<path d="M269.951 160.417L278.55 160.435L287.161 160.41L295.747 161.033L304.332 161.569L312.911 162.199L321.515 162.669L330.02 164.033L338.505 165.457L347.035 166.727L355.367 168.954L363.428 171.996L371.446 175.128L378.71 179.754L384.602 185.312L390 191.374L394.646 198.043L398.352 205.275L402.292 212.367L405.539 219.808L408.897 227.2L411.884 234.756L414.741 242.367L417.02 250.306L410.578 257.249L405.995 265.435L403.138 274.055L413.38 272.086L411.842 280.905L410.397 289.971L409.047 299.054L407.69 308.134L406.959 311.058L408.904 313.4L411.817 312.279L413.391 309.523L416.411 300.77L418.827 291.829L420.703 282.996L420.403 291.356L419.185 299.872L416.937 308.176L416.523 311.472L417.598 314.524L421.917 313.553L423.4 309.255L425.443 300.419L427.482 291.6L429.501 282.993L428.913 291.203L427.827 299.583L426.483 307.943L426.33 310.866L428.067 312.899L432.32 310.229L435.33 301.052L437.579 291.718L439.266 282.199L438.233 292.598L437.21 302.956L437.321 305.51L440.888 305.395L442.413 301.856L444.396 293.59L445.211 285.116L445.047 276.606L445.11 268.08L444.264 259.595L442.764 251.204L441.052 243.151L439.604 235.059L438.362 226.905L436.016 219.008L434.324 210.937L431.324 203.249L428.975 195.359L425.85 187.748L422.815 180.095L418.83 172.894L414.87 165.686L410.063 159.018L404.933 152.573L398.502 147.439L391.677 142.911L384.212 139.313L376.458 136.386L368.902 132.923L361.023 130.313L352.962 128.336L344.996 126.018L336.831 124.546L328.774 122.531L320.526 121.595L312.302 120.565L304.068 119.618L295.809 118.887L287.533 118.389L279.243 118.483L270.956 117.982L262.663 118.041L254.408 118.946L246.142 119.413" stroke="#392396" stroke-width="1.5" stroke-miterlimit="10"/>
<path d="M109.653 190.908L100.859 194.792C100.159 195.101 99.399 195.248 98.6349 195.22C97.8708 195.193 97.1229 194.993 96.4474 194.635C95.7719 194.277 95.1865 193.77 94.7352 193.153C94.284 192.535 93.9787 191.824 93.8424 191.071L83.8922 136.031C83.6906 134.917 83.8692 133.767 84.3994 132.767C84.9296 131.766 85.7806 130.973 86.8157 130.514L95.6104 126.62C96.3096 126.311 97.0699 126.164 97.834 126.191C98.5981 126.219 99.3461 126.419 100.022 126.777C100.697 127.135 101.282 127.642 101.734 128.259C102.185 128.877 102.49 129.588 102.627 130.34L112.577 185.395C112.778 186.509 112.598 187.657 112.068 188.657C111.538 189.657 110.688 190.449 109.653 190.908Z" fill="#392396" stroke="#392396" stroke-width="1.5" stroke-miterlimit="10"/>
<path d="M54.5947 302.622L405.442 548.758H54.5947V302.622Z" stroke="#392396" stroke-width="1.5" stroke-miterlimit="10"/>
<path d="M360.873 474.662L364.117 467.062L366.977 459.311L369.866 451.567L372.003 443.58L374.248 435.638L376.35 427.654" stroke="#392396" stroke-width="1.5" stroke-miterlimit="10"/>
<path d="M161.714 457.094L169.096 460.108L176.61 462.805L184.399 464.555L192.208 466.142L200.126 467.019L208.068 467.482L216.034 468.199" stroke="#392396" stroke-width="1.5" stroke-miterlimit="10"/>
<path d="M251.851 272.197C282.752 275.548 313.999 271.031 342.686 259.066" stroke="#392396" stroke-width="1.5" stroke-miterlimit="10"/>
<path d="M212.256 136.671C221.274 133.551 229.153 127.803 234.877 120.168" stroke="#392396" stroke-width="1.5" stroke-miterlimit="10"/>
<path d="M417.338 249.203C425.381 246.89 433.934 247.05 441.884 249.662" stroke="#392396" stroke-width="1.5" stroke-miterlimit="10"/>
<path d="M99.4277 217.615C103.372 209.469 110.045 202.963 118.287 199.226" stroke="#392396" stroke-width="1.5" stroke-miterlimit="10"/>
<path d="M200.874 467.872L201.386 459.043L202.471 450.272L204.375 441.673L207.598 433.497L212.665 426.339L219.452 420.85L225.455 415.967L221.568 405.199L229.997 406.529L234.807 399.989L240.038 393.798L244.611 387.112L249.344 380.545L254.366 374.197L259.169 367.685L264.205 361.344L269.293 355.048L273.956 348.429L278.683 341.855L283.524 335.434L288.542 329.141L293.049 322.476L297.226 315.596L300.981 308.472L303.675 300.885L305.905 293.162L306.755 285.175L306.869 277.156L305.707 269.193" stroke="#392396" stroke-width="1.5" stroke-miterlimit="10"/>
</svg>
