<svg width="613" height="602" viewBox="0 0 613 602" fill="none" xmlns="http://www.w3.org/2000/svg">
<path opacity="0.25" d="M0 457.323L7.70806 458.635L15.2083 460.58L22.8547 461.826L30.4004 463.547L37.9429 465.284L45.5308 466.794L53.0441 468.671L60.7164 469.791L68.2134 471.746L75.8598 472.989L83.3406 475.015L90.9739 476.324L98.5391 477.954L106.16 479.324L113.741 480.869L121.277 482.636L128.852 484.223L136.466 485.616L144.002 487.382L151.58 488.951L159.181 490.422L166.658 492.464L174.237 494.035L181.863 495.373L189.39 497.185L197.062 498.315L204.585 500.133L212.14 501.818L219.706 503.451L227.303 504.935L234.856 506.623L242.408 508.318L250.07 509.474L257.652 511.036L265.227 512.614L272.769 514.357L280.377 515.789L287.848 517.88L295.484 519.166L303.101 520.543L310.647 522.251L318.167 524.114L325.839 525.221L333.391 526.913L340.992 528.364L348.454 530.504L356.038 532.033L363.591 533.731L371.182 535.232L378.75 536.855L386.332 538.404L393.988 539.615L401.507 541.462L409.108 542.917L416.706 544.404L424.252 546.121L431.778 547.943L439.35 549.55L446.967 550.943L454.62 552.154L462.071 554.339L469.757 555.401L477.338 556.963L484.874 558.742L492.462 560.255L500.024 561.914L507.648 563.262L515.183 565.054L522.752 566.674L530.265 568.564L537.856 570.074L545.425 571.72L552.876 572.892L552.237 565.294L550.779 557.609L549.941 549.833L548.519 542.141L547.714 534.361L546.353 526.66L545.185 518.932L544.061 511.195L543.077 503.441L542.068 495.691L540.85 487.967L540.022 480.191L539.003 472.44L537.499 464.762L536.259 457.04L535.629 449.235L534.398 441.517L533.372 433.767L532.223 426.036L531.184 418.289L530.216 410.529L528.551 402.873L527.551 395.12L526.762 387.337L525.473 379.625L524.223 371.908L523.242 364.151L522.271 356.394L521.216 348.647L520.31 340.881L519.112 333.156L517.904 325.432L516.485 317.74L515.843 309.935L514.378 302.249L513.651 294.457L512.037 286.791L511.151 279.021L509.826 271.313L508.833 263.56L507.771 255.816L506.91 248.043L505.631 240.332L504.855 232.546L503.219 224.883L502.394 217.107L501.586 209.327L499.907 201.671L499.271 193.866L498.258 186.115L496.933 178.407L495.488 170.719L494.4 162.975L493.332 155.231L492.728 147.423L491.338 139.724L490.254 131.984L489.137 124.246L488.16 116.49L487.319 108.71L485.777 101.035L484.514 93.3168L483.971 85.4984L482.345 77.8325L481.809 70.014L480.474 62.306L479.384 54.5655L477.961 46.8736L477.189 39.0844L475.818 31.3828L474.909 23.6131L473.474 15.9213L472.562 8.15151L471.591 0.368774L465.805 5.66116L460.454 11.3724L454.863 16.8304L449.246 22.2624L443.642 27.7106L437.911 33.029L432.496 38.6688L426.71 43.9287L421.015 49.2796L415.359 54.6759L410.05 60.4293L404.316 65.7412L398.787 71.2673L392.881 76.4039L387.273 81.8489L381.705 87.3296L376.39 93.0798L370.779 98.5215L364.906 103.691L359.181 109.012L353.684 114.571L348.243 120.185L342.609 125.604L337.038 131.084L331.177 136.27L325.622 141.767L319.826 147.017L314.245 152.488L308.946 158.251L303.316 163.676L297.65 169.056L291.838 174.294L286.491 180.005L280.857 185.421L275.156 190.771L269.435 196.1L263.938 201.658L258.278 207.048L252.791 212.616L246.895 217.763L241.408 223.334L235.726 228.698L230.352 234.383L224.547 239.624L219.131 245.264L213.309 250.485L207.634 255.858L202.312 261.595L196.594 266.93L190.792 272.17L185.24 277.671L179.626 283.109L174.172 288.713L168.727 294.324L162.801 299.441L157.483 305.185L151.846 310.604L146.034 315.834L140.628 321.487L134.972 326.883L129.008 331.961L123.813 337.832L118.02 343.092L112.475 348.598L106.673 353.842L101.322 359.553L95.6235 364.907L89.8538 370.187L84.3568 375.749L78.8859 381.337L73.1844 386.687L67.6842 392.24L62.0281 397.636L56.437 403.1L50.6349 408.347L44.8847 413.646L39.3001 419.114L33.7674 424.64L28.3094 430.244L22.5917 435.575L16.9259 440.965L11.1855 446.28L5.66254 451.82L0 457.323Z" fill="#FFD803"/>
<path d="M566.963 276.686C566.803 276.81 566.683 276.978 566.619 277.17C563.986 284.936 561.354 292.704 558.722 300.473C563.913 303.101 569.595 304.618 575.405 304.927C575.203 310.467 575.476 316.013 576.22 321.506L588.463 324.012" stroke="#392396" stroke-width="1.5" stroke-miterlimit="10"/>
<path d="M506.579 81.3731L518.53 90.9351C519.123 91.3424 519.616 91.8771 519.975 92.5001C520.625 93.8606 519.868 95.445 519.131 96.76L514.365 105.267C523.299 105.569 532.244 105.221 541.129 104.228C540.466 107.268 539.5 110.234 538.245 113.082" stroke="#392396" stroke-width="1.5" stroke-miterlimit="10"/>
<path d="M308.355 84.6752L305.228 101.302L326.845 93.5488C327.417 93.341 328.047 93.0845 328.294 92.5326C328.432 92.0885 328.432 91.613 328.294 91.1689C327.709 88.1623 327.124 85.1568 326.537 82.1523L348.129 81.2919" stroke="#392396" stroke-width="1.5" stroke-miterlimit="10"/>
<path d="M89.9686 112.395L85.2412 124.557L111.333 120.431C109.12 124.478 107.287 128.723 105.859 133.11C110.865 133.548 115.904 133.425 120.882 132.743" stroke="#392396" stroke-width="1.5" stroke-miterlimit="10"/>
<path d="M31.4263 309.235C31.3126 308.426 32.7023 308.929 33.0497 309.666L39.0239 322.115C41.4894 315.591 44.1486 309.146 47.0015 302.78L68.2587 302.76" stroke="#392396" stroke-width="1.5" stroke-miterlimit="10"/>
<path d="M60.7691 424.889C60.799 430.542 59.7556 436.149 57.6943 441.413C64.2086 439.254 70.3717 436.153 75.9872 432.208L86.8058 442.052C87.4259 442.617 88.1435 443.218 88.9844 443.179C90.7799 443.098 91.0526 440.614 91.8222 438.991C93.4456 435.575 98.3451 435.549 101.904 436.812C105.462 438.075 109.151 440.14 112.787 439.111" stroke="#392396" stroke-width="1.5" stroke-miterlimit="10"/>
<path d="M181.91 39.7747C188.233 39.9229 194.538 39.0581 200.586 37.2129L191.232 48.96L198.145 48.8724" stroke="#392396" stroke-width="1.5" stroke-miterlimit="10"/>
<path d="M557.905 525.893C560.266 521.291 563.79 517.387 568.126 514.568C568.689 519.687 569.251 524.807 569.814 529.928L577.386 526.831" stroke="#392396" stroke-width="1.5" stroke-miterlimit="10"/>
<path d="M386.504 60.8688C387.407 63.9046 390.751 65.4371 393.816 66.2326C396.985 67.0541 400.333 67.4924 403.531 66.7976C406.729 66.1028 409.775 64.1352 411.151 61.1643C411.914 59.5149 412.126 57.6609 412.126 55.8459C412.126 53.2777 411.596 50.6055 410.012 48.5827C407.96 45.9625 404.255 44.8748 401.021 45.6768C397.787 46.4787 395.112 49.0015 393.816 52.0698C393.167 53.5829 392.91 55.4888 393.975 56.7356C394.53 57.3093 395.227 57.726 395.995 57.9434C397.621 58.506 399.342 58.7443 401.06 58.6447C402.096 58.583 403.21 58.3525 403.882 57.5635C404.554 56.7745 404.424 55.2907 403.443 54.966L404.002 54.0699" stroke="#392396" stroke-width="1.5" stroke-miterlimit="10"/>
<path d="M587.111 207.423C583.789 207.524 580.75 209.793 579.263 212.764C577.776 215.735 577.711 219.284 578.594 222.485C578.961 223.823 579.503 225.145 580.441 226.167C581.471 227.284 582.903 227.96 584.37 228.353C587.919 229.301 592.354 228.304 593.955 224.995C594.604 223.697 594.705 222.19 594.672 220.739C594.643 219.44 594.468 218.05 593.617 217.07C592.874 216.209 591.728 215.807 590.604 215.615C588.815 215.313 586.848 215.511 585.409 216.625C583.971 217.739 583.328 219.933 584.318 221.453C585.309 222.973 588.033 223.021 588.773 221.365" stroke="#392396" stroke-width="1.5" stroke-miterlimit="10"/>
<path d="M112.4 552.751C110.656 554.494 110.062 557.046 109.546 559.459C109.309 560.566 109.072 561.732 109.373 562.813C109.637 563.636 110.098 564.382 110.718 564.985C111.987 566.323 113.586 567.303 115.355 567.827C117.123 568.35 118.998 568.398 120.791 567.965C122.584 567.533 124.232 566.636 125.567 565.364C126.903 564.093 127.88 562.491 128.4 560.722C128.717 559.823 128.754 558.85 128.507 557.93C128.215 557.046 127.533 556.352 126.884 555.693C124.906 553.709 122.28 551.559 119.63 552.446C117.461 553.183 116.452 555.618 115.734 557.793C115.512 558.328 115.417 558.907 115.458 559.485C115.591 560.133 115.956 560.71 116.484 561.108C117.3 561.768 118.302 562.157 119.35 562.219C120.398 562.282 121.439 562.016 122.328 561.459" stroke="#392396" stroke-width="1.5" stroke-miterlimit="10"/>
<path d="M27.962 478.721C26.9879 481.644 28.3776 485.215 31.1114 486.637C33.8453 488.059 37.6052 487.141 39.3 484.556C40.2059 483.17 40.5176 481.465 40.5144 479.809C40.5111 478.153 40.1605 476.374 39.1085 475.062C38.0565 473.75 36.1863 473.004 34.6246 473.64C33.6594 476.113 33.5962 478.846 34.446 481.361" stroke="#392396" stroke-width="1.5" stroke-miterlimit="10"/>
<path d="M42.7738 344.736C41.9718 343.275 40.1179 342.599 38.4717 342.859C36.8256 343.119 35.3905 344.158 34.293 345.414C33.4164 346.414 32.6891 347.687 32.8352 348.986C33.1014 351.372 35.8548 352.496 38.1698 353.135C38.692 353.313 39.2418 353.396 39.7932 353.379C41.4166 353.226 42.4167 351.239 41.9491 349.674C41.4816 348.109 39.9588 347.054 38.3776 346.632C37.9068 346.509 37.1405 346.836 37.449 347.216" stroke="#392396" stroke-width="1.5" stroke-miterlimit="10"/>
<path d="M42.6277 171.429C40.9848 171.497 39.5984 172.831 39.027 174.37C38.4555 175.91 38.5529 177.617 38.7964 179.241C39.1211 181.41 39.7965 183.702 41.5205 185.059C43.2446 186.416 45.511 186.53 47.6506 186.475C49.6897 186.423 51.7969 186.215 53.5664 185.202C55.336 184.189 56.6769 182.186 56.336 180.176C55.9951 178.166 54.1833 176.789 52.3521 175.955C50.865 175.273 49.1669 174.822 47.5954 175.28C46.024 175.737 44.7155 177.364 45.0986 178.955C45.4817 180.546 47.9656 181.26 48.852 179.884" stroke="#392396" stroke-width="1.5" stroke-miterlimit="10"/>
<path d="M141.364 91.1623C140.724 91.4132 140.031 91.4975 139.349 91.4072C138.668 91.3169 138.02 91.055 137.468 90.646C136.369 89.8064 135.593 88.6139 135.27 87.2693C134.983 86.1725 134.936 85.027 135.132 83.9105C135.327 82.7939 135.761 81.7325 136.403 80.7983C137.056 79.8702 137.907 79.0979 138.894 78.5366C139.88 77.9753 140.979 77.6389 142.111 77.5514C143.776 77.441 145.572 77.9703 146.604 79.282C147.37 80.3419 147.695 81.6565 147.514 82.951C147.335 84.6166 146.403 86.3115 144.838 86.9121C143.273 87.5128 141.159 86.5485 140.984 84.8828" stroke="#392396" stroke-width="1.5" stroke-miterlimit="10"/>
<path d="M248.769 75.5029C248.445 73.058 249.987 70.7203 251.886 69.1521C253.193 68.0121 254.788 67.2548 256.497 66.9637C258.205 66.7299 260.049 67.178 261.283 68.3826C262.517 69.5871 263 71.3762 263.114 73.097C263.228 74.8178 262.978 76.6685 261.903 78.0095C260.828 79.3505 258.76 80.0128 257.302 79.0875C255.598 77.9998 255.542 75.5744 255.679 73.5678" stroke="#392396" stroke-width="1.5" stroke-miterlimit="10"/>
<path d="M64.4294 66.0456C65.5918 67.9516 68.001 68.9126 70.2056 68.6431C72.4103 68.3736 74.4266 67.0197 75.7675 65.2437C76.4169 64.4027 76.9234 63.4254 76.9689 62.3734C77.037 60.75 76.011 59.3441 75.0207 58.0681C74.6599 57.5244 74.1927 57.0594 73.6473 56.7012C72.5174 56.0518 71.0076 56.4609 70.0952 57.3798C69.1829 58.2986 68.7803 59.6168 68.6666 60.9091C68.5952 61.7241 68.6666 62.6429 69.251 63.2144C69.8355 63.7858 71.0725 63.6397 71.2251 62.8345" stroke="#392396" stroke-width="1.5" stroke-miterlimit="10"/>
<path d="M558.911 61.1134C557.937 60.9965 557.544 62.3407 557.535 63.331C557.515 64.9252 557.535 66.6623 558.545 67.9059C559.233 68.763 560.285 69.2468 561.35 69.5293C562.706 69.8743 564.119 69.9341 565.499 69.7049C566.88 69.4758 568.198 68.9627 569.37 68.1981C570.486 67.4578 571.5 66.3961 571.701 65.0713C571.98 63.2304 570.652 61.5745 569.428 60.2011C568.808 59.5095 568.129 58.7887 567.256 58.5159C565.847 58.0841 564.252 59.0322 563.684 60.3926C563.116 61.7531 563.441 63.3667 564.233 64.6135" stroke="#392396" stroke-width="1.5" stroke-miterlimit="10"/>
<path d="M537.276 463.34L530.065 460.623L522.87 457.541L515.707 454.372L508.645 450.976L501.278 448.297L494.109 445.151L487.067 441.706L479.745 438.917L472.66 435.573L465.258 432.972L458.153 429.673L450.887 426.751L443.802 423.41L436.653 420.215L429.321 417.446L422.185 414.228L415.038 411.027L407.876 407.861L400.45 405.312L393.437 401.806L386.115 399.01L378.901 395.974L371.741 392.802L364.459 389.922L357.293 386.76L350.25 383.321L342.945 380.49L335.747 377.412L328.662 374.064L321.421 371.087L314.158 368.165L306.95 365.109L299.723 362.096L292.563 358.931L285.258 356.106L278.037 353.083L270.861 349.943L263.828 346.482L256.643 343.368L249.328 340.57L242.143 337.453L234.85 334.595L227.866 331.017L220.46 328.423L213.349 325.137L206.164 322.03L199.031 318.79L191.823 315.738L184.485 312.981L177.316 309.835L170.111 306.77L162.926 303.659L155.883 300.208L148.649 297.208L141.457 294.11L134.064 291.49L126.833 288.48L119.72 285.204L112.489 282.201L105.226 279.262L98.2578 275.642L90.9946 272.713L83.8287 269.551L76.5395 266.677L69.4321 263.379L62.1494 260.508L64.9839 253.099L68.5328 245.979L71.2017 238.485L74.5524 231.283L77.4779 223.9L80.6663 216.627L83.7703 209.315L87.2152 202.152L90.0173 194.714L93.1472 187.415L96.5597 180.457L103.732 183.067L110.781 186.496L117.992 189.545L125.187 192.626L132.525 195.383L139.555 198.85L146.867 201.662L154.026 204.834L161.315 207.698L168.53 210.74L175.663 213.971L182.897 216.968L189.998 220.273L197.226 223.28L204.531 226.114L211.521 229.673L218.804 232.559L226.139 235.313L233.155 238.823L240.552 241.433L247.568 244.943L254.867 247.784L262.111 250.761L269.267 253.937L276.407 257.151L283.683 260.054L290.891 263.109L298.132 266.083L305.135 269.622L312.486 272.343L319.684 275.418L326.925 278.399L333.932 281.921L341.198 284.84L348.312 288.117L355.562 291.068L362.845 293.958L370.085 296.932L377.306 299.958L384.479 303.101L391.567 306.435L398.713 309.633L406.1 312.273L413.22 315.536L420.444 318.556L427.691 321.527L434.87 324.653L442.091 327.68L449.299 330.738L456.488 333.836L463.663 336.975L470.875 340.027L478.037 343.187L485.349 346.008L492.356 349.541L499.707 352.262L506.733 355.752L514.045 358.561L521.139 361.885L528.481 364.635L535.737 367.584L542.955 370.616L550.017 374.025L557.238 377.061L564.365 380.318L571.368 383.292L568.349 390.399L565.29 397.727L562.225 405.052L558.926 412.277L556.134 419.719L552.679 426.878L550.108 434.414L546.829 441.648L543.471 448.849L540.595 456.259L537.276 463.34Z" stroke="#392396" stroke-width="1.5" stroke-miterlimit="10"/>
<path d="M263.089 507.178L261.034 499.323L257.648 491.865L252.274 485.654L246.105 480.255L239.335 475.417L232.02 471.459L224.62 467.692L216.922 464.582L209.373 461.105L201.633 458.082L193.493 456.244L186.622 453.838L180.122 450.539L173.752 447.078L167.031 444.244L160.907 440.308L155.384 435.565L148.917 430.357L143.277 424.262L137.634 418.184L132.858 411.405L128.211 404.732L124.114 397.677L121.74 389.855L118.971 382.284L126.409 380.563L133.906 379.154L136.4 387.923L141.095 395.726L145.864 403.388L150.644 410.1L156.293 416.096L162.186 421.879L168.745 426.905L175.732 431.311L183.031 435.182L190.428 438.915L198.23 441.714L205.925 443.662L213.302 446.542L220.757 449.215L227.757 452.961L235.231 455.669L242.115 459.598L248.946 463.611L255.514 468.066L261.294 472.897L265.976 478.803L270.723 484.583L274.713 490.969L277.259 498.083L278.402 505.863L270.723 506.84L263.089 507.178Z" fill="white"/>
<path d="M263.089 507.178L261.034 499.323L257.648 491.865L252.274 485.654L246.105 480.255L239.335 475.417L232.02 471.459L224.62 467.692L216.922 464.582L209.373 461.105L201.633 458.082L193.493 456.244L186.622 453.838L180.122 450.539L173.752 447.078L167.031 444.244L160.907 440.308L155.384 435.565L148.917 430.357L143.277 424.262L137.634 418.184L132.858 411.405L128.211 404.732L124.114 397.677L121.74 389.855L118.971 382.284L126.409 380.563L133.906 379.154L136.4 387.923L141.095 395.726L145.864 403.388L150.644 410.1L156.293 416.096L162.186 421.879L168.745 426.905L175.732 431.311L183.031 435.182L190.428 438.915L198.23 441.714L205.925 443.662L213.302 446.542L220.757 449.215L227.757 452.961L235.231 455.669L242.115 459.598L248.946 463.611L255.514 468.066L261.294 472.897L265.976 478.803L270.723 484.583L274.713 490.969L277.259 498.083L278.402 505.863L270.723 506.84L263.089 507.178Z" stroke="#392396" stroke-width="1.5" stroke-miterlimit="10"/>
<path d="M612.003 594.083L604.896 595.898L597.11 596.281L589.366 597.161L581.613 598.073L573.794 597.758L566.041 598.83L558.235 598.748L550.459 599.333L542.663 599.459L534.877 599.709L527.072 599.375L519.296 600.076L511.503 600.222L503.698 599.641L495.918 600.534L488.119 600.083L480.327 600.239L472.534 600.33L464.748 600.94L456.949 600.375L449.16 600.875L441.368 600.774L433.575 601.171L425.779 601.265L417.984 601.044L410.191 601.193L402.396 600.83L394.6 600.95L386.804 601.336L379.012 600.534L371.219 600.823L363.423 601.317L355.634 600.567L347.835 601.274L340.046 600.511L332.25 600.826L324.455 600.907L316.662 600.654L308.873 600.326L301.077 600.495L293.281 600.404L285.489 600.43L277.709 599.524L269.907 599.94L262.118 599.755L254.322 599.709L246.553 598.761L238.757 598.774L230.981 598.183L223.188 598.083L215.389 598.05L207.597 597.829L199.811 597.459L192.041 596.8L184.33 595.631L177.329 594.083L184.271 592.024L192.064 591.583L199.827 590.943L207.597 590.319L215.386 590.018L223.169 589.602L230.955 589.274L238.747 589.043L246.54 588.904L254.329 588.647L262.121 588.586L269.901 587.985L277.706 588.563L285.489 587.839L293.291 588.371L301.077 587.816L308.873 588.108L316.659 587.475L324.448 587.177L332.241 587.03L340.039 587.498L347.832 587.375L355.628 587.615L363.42 587.693L371.216 587.504L379.008 587.388L386.804 587.284L394.6 587.576L402.392 587.047L410.185 587.602L417.98 586.735L425.773 587.027L433.565 587.456L441.361 587.105L449.15 587.829L456.943 587.927L464.742 587.478L472.534 587.667L480.33 587.384L488.119 587.849L495.905 588.297L503.711 587.69L511.497 588.18L519.283 588.618L527.082 588.449L534.855 589.258L542.647 589.375L550.443 589.345L558.252 589.053L566.008 590.086L573.807 590.102L581.571 590.914L589.363 591.083L597.175 591.112L604.928 592.024L612.003 594.083Z" fill="#392396"/>
<path d="M264.075 198.425L265.254 205.98L267.007 213.419L267.524 221.075L268.8 228.595L270.332 236.089L271.27 243.67L271.761 251.294L272.829 258.872L272.407 266.538L273.365 274.161L272.654 281.785L272.222 289.431L270.163 296.815L266.673 303.591L261.28 309.176L255.273 314.085L249.633 319.436L243.542 324.264L236.967 328.407L230.204 332.228L223.499 336.115L217.087 340.531L210.301 344.303L203.206 347.476L196.408 351.236L189.453 354.687L182.199 357.482L175.157 360.742L167.894 363.479L161 366.33L162.614 373.444L165.481 380.288L167.41 387.35L174.689 385.769L182.323 385.097L189.758 383.363L197.271 381.996L204.586 379.762L211.924 377.684L219.379 376.025L226.668 373.772L234.009 371.665L241.117 368.866L248.39 366.522L255.465 363.645L262.264 360.145L269.157 356.885L276.118 353.7L282.316 349.2L288.547 344.826L294.82 340.469L300.492 335.332L305.229 329.326L309.213 322.842L312.746 315.725L314.265 307.922L315.373 300.084L316.464 292.198L315.804 284.256L316.22 276.291L314.869 268.434L314.606 260.469L313.028 252.674L311.769 244.832L310.506 236.985L308.376 229.322L306.541 221.601" fill="white"/>
<path d="M264.075 198.425L265.254 205.98L267.007 213.419L267.524 221.075L268.8 228.595L270.332 236.089L271.27 243.67L271.761 251.294L272.829 258.872L272.407 266.538L273.365 274.161L272.654 281.785L272.222 289.431L270.163 296.815L266.673 303.591L261.28 309.176L255.273 314.085L249.633 319.436L243.542 324.264L236.967 328.407L230.204 332.228L223.499 336.115L217.087 340.531L210.301 344.303L203.206 347.476L196.408 351.236L189.453 354.687L182.199 357.482L175.157 360.742L167.894 363.479L161 366.33L162.614 373.444L165.481 380.288L167.41 387.35L174.689 385.769L182.323 385.097L189.758 383.363L197.271 381.996L204.586 379.762L211.924 377.684L219.379 376.025L226.668 373.772L234.009 371.665L241.117 368.866L248.39 366.522L255.465 363.645L262.264 360.145L269.157 356.885L276.118 353.7L282.316 349.2L288.547 344.826L294.82 340.469L300.492 335.332L305.229 329.326L309.213 322.842L312.746 315.725L314.265 307.922L315.373 300.084L316.464 292.198L315.804 284.256L316.22 276.291L314.869 268.434L314.606 260.469L313.028 252.674L311.769 244.832L310.506 236.985L308.376 229.322L306.541 221.601" stroke="#392396" stroke-width="1.5" stroke-miterlimit="10"/>
<path d="M281.967 324.459L274.941 328.371L268.178 332.557L261.554 336.963L254.625 340.911L248.092 345.463L241.774 350.311L235.508 355.22L229.092 359.921L222.585 364.522L216.63 369.811L210.818 375.25L204.789 380.438L198.841 385.734L193.487 391.63L187.977 397.38L182.717 403.377L178.713 410.309L174.08 416.787L170.288 423.816L167.872 431.424L166.619 439.249L165.96 447.161L167.21 454.869L167.986 462.649L169.823 470.243L171.97 477.747L173.33 485.465L175.976 492.822L178.473 500.215L180.506 507.777L183.304 515.073L186.249 522.307L189.555 529.388L192.188 536.755L196.016 543.593L198.984 550.818L202.5 557.789L206.367 564.571L209.361 571.383L203.558 576.185L196.941 579.994L190.467 584.026L183.964 588.01L177.97 592.452L185.623 592.994L193.448 592.036L201.273 592.056L209.098 592.062L216.923 592.936L224.751 592.306L232.576 592.342L240.404 592.478L248.229 592.092L256.047 592.485L253.154 585.293L250.817 577.883L249.193 570.257L246.803 562.87L244.359 555.493L242.076 548.064L240.079 540.554L238.228 533.008L236.959 525.33L234.611 517.888L233.186 510.245L232.303 502.511L230.852 494.868L230.277 487.114L229.478 479.377L229.462 471.6L229.647 463.811L231.105 456.152L233.605 448.778L238.605 442.921L244.898 437.986L250.836 432.521L257.742 428.404L264.301 423.764L271.187 419.638L278.262 415.839L285.152 411.722L292.575 408.595L299.286 404.114L306.838 401.277L313.978 397.634L320.981 394.39L324.887 400.916L329.394 407.423L333.67 414.069L338.118 420.602L342.089 427.459L346.969 433.693L351.823 439.937L356.447 446.343L361.035 452.788L365.837 459.068L371.272 464.831L376.198 471.019L381.779 476.623L387.221 482.344L392.484 488.26L398.624 493.26L404.676 498.316L410.939 503.105L417.397 507.621L424.287 511.436L431.245 515.196L438.849 517.375L446.645 518.92L454.704 518.7L462.658 517.524L470.529 515.972L478.318 514.021L485.757 510.982L493.195 507.985L500.572 504.783L507.572 500.835L514.095 496.121L521.225 492.351L527.414 487.202L533.911 482.494L540.288 477.607L546.129 472.091L552.239 466.873L557.642 460.72L565.136 460.808L572.523 460.084L579.948 460.029L587.351 459.561L595.15 459.051L588.582 454.012L582.075 449.512L575.838 444.645L569.165 440.375L562.633 435.914L556.548 430.836L549.872 426.719L543.502 430.489L536.846 434.242L530.112 437.866L523.034 440.788L516.216 444.239L509.043 446.902L502.04 449.944L494.861 452.554L487.494 454.577L480.094 456.415L472.649 458.081L465.032 458.383L457.483 458.038L450.168 456.331L443.125 453.168L437.258 448.103L431.842 442.603L426.453 436.995L422.232 430.466L418.959 423.423L415.384 416.543L412.955 409.179L411.14 401.657L409.338 394.121L408.329 386.432L408.566 378.669L408.286 370.938L409.036 363.24L409.627 355.522L410.799 347.856L412.199 340.216L413.972 332.599L415.498 324.897L415.829 317.05L416.358 309.231L417.118 301.393L416.874 293.536L416.365 285.698L415.468 277.896L414.339 270.132L414.017 262.246L412.439 254.541L410.465 246.934L408.65 239.29L406.445 231.748L403.705 224.384L400.974 217.01L397.189 210.108L393.474 203.205L389.464 196.464L384.613 190.305L380.1 183.86L374.668 178.162L368.402 173.402L361.798 168.85L355.028 164.574L348.339 160.06L340.917 156.937L333.391 154.086L325.589 152.125L317.709 150.576L309.731 149.693L301.763 148.391L293.714 149.144L285.701 149.456L277.684 149.917L269.694 150.735L261.677 151.447L253.671 150.674L246.797 147.605L241.709 141.871L238.582 134.894L235.504 127.933L231.787 121.299L228.011 114.679L222.001 109.896L214.543 107.27L206.721 106.711L198.997 107.276L191.405 109.344L185.519 114.565L180.496 120.653L178.957 128.394L178.097 136.157L179.519 143.865L181.512 151.472L181.506 158.7L179.207 165.665L178.502 172.775L186.762 170.665L191.461 177.103L196.62 183.087L203.442 187.084L211.202 187.071L218.527 184.113L224.77 179.909L231.985 177.581L239.446 179.087L246.482 182.094L252.067 187.354L257.771 192.464L261.96 198.906L265.372 205.773L268.499 212.767L271.421 219.848L274.629 226.826L276.571 234.264L278.746 241.602L281.525 248.775L283.064 256.294L284.789 263.765L285.646 271.389L286.298 279.013L286.996 286.63L287.604 294.289L286.438 301.893L285.795 309.517L284.305 317.037L281.967 324.459Z" fill="white"/>
<path d="M281.967 324.459L274.941 328.371L268.178 332.557L261.554 336.963L254.625 340.911L248.092 345.463L241.774 350.311L235.508 355.22L229.092 359.921L222.585 364.522L216.63 369.811L210.818 375.25L204.789 380.438L198.841 385.734L193.487 391.63L187.977 397.38L182.717 403.377L178.713 410.309L174.08 416.787L170.288 423.816L167.872 431.424L166.619 439.249L165.96 447.161L167.21 454.869L167.986 462.649L169.823 470.243L171.97 477.747L173.33 485.465L175.976 492.822L178.473 500.215L180.506 507.777L183.304 515.073L186.249 522.307L189.555 529.388L192.188 536.755L196.016 543.593L198.984 550.818L202.5 557.789L206.367 564.571L209.361 571.383L203.558 576.185L196.941 579.994L190.467 584.026L183.964 588.01L177.97 592.452L185.623 592.994L193.448 592.037L201.273 592.056L209.098 592.062L216.923 592.936L224.751 592.306L232.576 592.342L240.404 592.478L248.229 592.092L256.047 592.485L253.154 585.293L250.817 577.883L249.193 570.257L246.803 562.87L244.359 555.493L242.076 548.064L240.079 540.554L238.228 533.008L236.959 525.33L234.611 517.888L233.186 510.245L232.303 502.511L230.852 494.868L230.277 487.114L229.478 479.377L229.462 471.6L229.647 463.811L231.105 456.152L233.605 448.778L238.605 442.921L244.898 437.986L250.836 432.521L257.742 428.404L264.301 423.764L271.187 419.638L278.262 415.839L285.152 411.722L292.575 408.595L299.286 404.114L306.838 401.277L313.978 397.634L320.981 394.39L324.887 400.916L329.394 407.423L333.67 414.069L338.118 420.602L342.089 427.459L346.969 433.693L351.823 439.937L356.447 446.343L361.035 452.788L365.837 459.068L371.272 464.831L376.198 471.019L381.779 476.623L387.221 482.344L392.484 488.26L398.624 493.26L404.676 498.316L410.939 503.105L417.397 507.621L424.287 511.436L431.245 515.196L438.849 517.375L446.645 518.92L454.704 518.7L462.658 517.524L470.529 515.972L478.318 514.021L485.757 510.982L493.195 507.985L500.572 504.783L507.572 500.835L514.095 496.121L521.225 492.351L527.414 487.202L533.911 482.494L540.288 477.607L546.129 472.091L552.239 466.873L557.642 460.72L565.136 460.808L572.523 460.084L579.948 460.029L587.351 459.561L595.15 459.051L588.582 454.012L582.075 449.512L575.838 444.645L569.165 440.375L562.633 435.914L556.548 430.836L549.872 426.719L543.502 430.489L536.846 434.242L530.112 437.866L523.034 440.788L516.216 444.239L509.043 446.902L502.04 449.944L494.861 452.554L487.494 454.577L480.094 456.415L472.649 458.081L465.032 458.382L457.483 458.038L450.168 456.33L443.125 453.168L437.258 448.103L431.842 442.603L426.453 436.995L422.232 430.466L418.959 423.423L415.384 416.543L412.955 409.179L411.14 401.657L409.338 394.121L408.329 386.432L408.566 378.669L408.286 370.938L409.036 363.24L409.627 355.522L410.799 347.856L412.199 340.216L413.972 332.599L415.498 324.897L415.829 317.05L416.358 309.231L417.118 301.393L416.874 293.536L416.365 285.698L415.468 277.896L414.339 270.132L414.017 262.246L412.439 254.541L410.465 246.934L408.65 239.29L406.445 231.748L403.705 224.384L400.974 217.01L397.189 210.108L393.474 203.205L389.464 196.464L384.613 190.305L380.1 183.86L374.668 178.162L368.402 173.402L361.798 168.85L355.028 164.574L348.339 160.06L340.917 156.937L333.391 154.086L325.589 152.125L317.709 150.576L309.731 149.693L301.763 148.391L293.714 149.144L285.701 149.456L277.684 149.917L269.694 150.735L261.677 151.447L253.671 150.674L246.797 147.605L241.709 141.871L238.582 134.894L235.504 127.933L231.787 121.299L228.011 114.679L222.001 109.896L214.543 107.27L206.721 106.711L198.997 107.276L191.405 109.344L185.519 114.565L180.496 120.653L178.957 128.394L178.097 136.157L179.519 143.865L181.512 151.472L181.506 158.7L179.207 165.665L178.502 172.775L186.762 170.665L191.461 177.103L196.62 183.087L203.442 187.084L211.202 187.071L218.527 184.113L224.77 179.909L231.985 177.581L239.446 179.087L246.482 182.094L252.067 187.354L257.771 192.464L261.96 198.906L265.372 205.773L268.499 212.767L271.421 219.848L274.629 226.826L276.571 234.264L278.746 241.602L281.525 248.775L283.064 256.294L284.789 263.765L285.646 271.389L286.298 279.013L286.996 286.63L287.604 294.289L286.438 301.893L285.795 309.517L284.305 317.037L281.967 324.459Z" stroke="#392396" stroke-width="1.5" stroke-miterlimit="10"/>
<path d="M268.59 338.798C315.773 337.103 362.145 356.827 409.179 352.629" stroke="#392396" stroke-width="1.5" stroke-miterlimit="10"/>
<path d="M528.477 213.355L520.811 214.875L513.532 217.706L506.028 219.784L498.372 221.33L491.057 224.044L483.511 225.973L476.063 228.232L468.735 230.898L461.29 233.177L453.699 234.95L446.185 236.992L438.704 239.148L431.389 241.86L423.821 243.71L416.376 245.986L408.957 248.35L401.447 250.392L394.031 252.769L386.436 254.539L378.923 256.578L371.478 258.847L364.186 261.643L356.653 263.62L349.072 265.425L341.828 268.38L334.36 270.572L326.707 272.146L319.262 274.413L311.999 277.299L304.307 278.731L296.992 281.445L289.524 283.634L281.91 285.342L274.459 287.588L267.01 289.851L259.546 292.059L252.253 294.839L244.795 297.069L237.253 299.011L229.684 300.868L222.359 303.556L214.693 305.082L207.252 307.368L199.953 310.135L192.524 312.466L184.826 313.888L177.368 316.115L170.166 319.219L162.533 320.849L155.078 323.09L147.503 324.934L140.168 327.58L132.782 330.048L125.343 332.35L117.843 334.441L110.203 336.061L102.826 338.577L95.4264 341.012L87.8644 342.905L80.5297 345.405L74.0457 350.136L68.3572 355.886L62.1914 361.058L55.6522 365.783L49.4475 370.919L43.2362 376.043L37.4666 381.244L45.0415 381.647L52.8729 382.54L60.7174 383.261L68.5456 384.212L76.4452 384.3L84.2409 385.624L92.1081 385.806L99.6895 384.046L107.161 381.848L114.417 378.926L121.914 376.812L129.567 375.225L136.902 372.556L144.275 370.023L151.724 367.744L159.279 365.825L166.698 363.445L174.218 361.403L181.692 359.208L189.254 357.308L196.553 354.529L204.021 352.318L211.531 350.24L219.145 348.516L226.428 345.675L233.925 343.564L241.565 341.921L248.896 339.249L256.487 337.451L263.731 334.486L271.303 332.613L278.696 330.148L286.287 328.343L293.807 326.311L301.128 323.606L308.661 321.609L316.184 319.583L323.691 317.502L330.912 314.453L338.578 312.911L345.912 310.248L353.361 307.966L360.871 305.891L368.248 303.365L375.751 301.277L383.388 299.621L390.742 297.017L398.206 294.796L405.801 293.004L413.22 290.627L420.616 288.166L428.074 285.91L435.51 283.591L443.023 281.513L450.371 278.9L457.812 276.598L465.309 274.468L472.956 272.854L480.44 270.688L487.778 268.036L495.262 265.877L502.629 263.315L510.33 261.873L517.574 258.899L525.139 257.003L532.627 254.834L540.169 252.863L546.166 249.142L549.027 242.824L548.962 236.015L546.887 229.031L544.88 222.024L541.718 215.716L535.373 212.397L528.477 213.355Z" fill="#FFD803"/>
<path d="M529.401 218.072L521.735 219.595L514.455 222.423L506.952 224.501L499.293 226.05L491.977 228.764L484.432 230.693L476.983 232.953L469.655 235.618L462.213 237.898L454.619 239.67L447.106 241.71L439.628 243.869L432.313 246.577L424.741 248.431L417.299 250.707L409.88 253.07L402.367 255.113L394.955 257.489L387.36 259.259L379.847 261.298L372.399 263.567L365.109 266.363L357.577 268.337L349.992 270.146L342.748 273.1L335.28 275.292L327.631 276.863L320.186 279.133L312.919 282.019L305.231 283.451L297.915 286.166L290.444 288.351L282.834 290.062L275.382 292.309L267.934 294.572L260.469 296.78L253.174 299.559L245.716 301.789L238.173 303.731L230.605 305.588L223.283 308.274L215.617 309.803L208.175 312.089L200.876 314.855L193.448 317.186L185.749 318.608L178.288 320.836L171.09 323.94L163.453 325.57L155.998 327.81L148.426 329.654L141.092 332.297L133.702 334.768L126.263 337.07L118.763 339.161L111.123 340.781L103.75 343.294L96.35 345.729L88.7881 347.622L81.4501 350.126L74.9662 354.856L69.2809 360.603L63.1151 365.779L56.5727 370.503L50.3711 375.636L44.1599 380.763L38.387 385.964L45.9619 386.367L53.7933 387.26L61.641 387.981L69.466 388.929L77.3656 389.02L85.1613 390.345L93.0317 390.526L100.61 388.767L108.081 386.568L115.338 383.646L122.838 381.533L130.491 379.942L137.822 377.276L145.196 374.743L152.644 372.464L160.203 370.545L167.619 368.165L175.138 366.123L182.613 363.928L190.175 362.029L197.474 359.249L204.945 357.035L212.451 354.957L220.069 353.236L227.348 350.395L234.848 348.285L242.485 346.638L249.82 343.97L257.411 342.168L264.655 339.203L272.223 337.33L279.619 334.869L287.207 333.06L294.73 331.028L302.049 328.326L309.581 326.326L317.104 324.303L324.614 322.219L331.832 319.173L339.501 317.628L346.836 314.965L354.284 312.683L361.794 310.611L369.168 308.085L376.675 305.997L384.311 304.342L391.662 301.738L399.13 299.517L406.721 297.721L414.144 295.348L421.537 292.887L428.995 290.63L436.433 288.312L443.943 286.234L451.294 283.62L458.736 281.315L466.23 279.188L473.876 277.571L481.36 275.409L488.698 272.756L496.185 270.597L503.552 268.035L511.254 266.593L518.498 263.619L526.063 261.723L533.547 259.554L541.093 257.583L547.09 253.863L549.947 247.544L549.885 240.735L547.807 233.748L545.801 226.741L542.638 220.433L536.294 217.115L529.401 218.072Z" stroke="#392396" stroke-width="1.5" stroke-miterlimit="10"/>
<path d="M285.2 149.343L292.804 148.138L300.454 147.463L308.152 147.404L315.782 146.459L323.452 146.067L331.124 145.726L338.777 144.927L346.462 144.901L354.144 144.972L361.82 145.294L369.489 145.427L377.164 145.567L384.827 146.008L392.464 146.774L400.035 148.024L407.669 148.891L415.163 150.551L422.653 152.291L430.01 154.56L436.793 158.259L444.069 160.827L450.576 164.941L456.813 169.405L463.174 173.736L468.486 179.308L473.934 184.711L478.772 190.909L484.162 196.633L489.552 202.377L493.756 209.069L499.188 214.809L503.104 221.68L507.646 228.079L512.731 234.118L516.867 240.807L521.036 247.466L525.163 254.168L528.657 261.184L531.037 268.331L528.641 275.341L523.244 280.63L516.578 284.321L509.627 286.773L502.325 287.776L495.019 286.828L487.883 284.896L481.223 281.552L475.752 277.143L482.084 274.733L488.665 272.513L495.354 270.801L491.162 264.684L487.168 258.304L483.11 251.953L478.304 246.142L473.441 240.395L468.664 234.589L464.119 228.579L459.047 223.017L453.823 217.595L448.475 212.283L442.501 207.682L436.576 203.039L429.981 199.419L423.263 196.078L415.643 193.442L407.675 192.195L399.733 190.89L391.73 189.993L383.687 189.555L375.638 189.302L367.586 189.253L359.534 189.036L351.491 189.682L343.426 189.442L335.397 190.12L327.358 190.604L319.338 191.305L311.321 192.013" fill="white"/>
<path d="M285.2 149.343L292.804 148.138L300.454 147.463L308.152 147.404L315.782 146.459L323.452 146.067L331.124 145.726L338.777 144.927L346.462 144.901L354.144 144.972L361.82 145.294L369.489 145.427L377.164 145.567L384.827 146.008L392.464 146.774L400.035 148.024L407.669 148.891L415.163 150.551L422.653 152.291L430.01 154.56L436.793 158.259L444.069 160.827L450.576 164.941L456.813 169.405L463.174 173.736L468.486 179.308L473.934 184.711L478.772 190.909L484.162 196.633L489.552 202.377L493.756 209.069L499.188 214.809L503.104 221.68L507.646 228.079L512.731 234.118L516.867 240.807L521.036 247.466L525.163 254.168L528.657 261.184L531.037 268.331L528.641 275.341L523.244 280.63L516.578 284.321L509.627 286.773L502.325 287.776L495.019 286.828L487.883 284.896L481.223 281.552L475.752 277.143L482.084 274.733L488.665 272.513L495.354 270.801L491.162 264.684L487.168 258.304L483.11 251.953L478.304 246.142L473.441 240.395L468.664 234.589L464.119 228.579L459.047 223.017L453.823 217.595L448.475 212.283L442.501 207.682L436.576 203.039L429.981 199.419L423.263 196.078L415.643 193.442L407.675 192.195L399.733 190.89L391.73 189.993L383.687 189.555L375.638 189.302L367.586 189.253L359.534 189.036L351.491 189.682L343.426 189.442L335.397 190.12L327.358 190.604L319.338 191.305L311.321 192.013" stroke="#392396" stroke-width="1.5" stroke-miterlimit="10"/>
<path d="M137.309 376.996C133.451 376.985 129.653 377.951 126.27 379.805C125.595 380.178 124.838 380.841 125.098 381.565C125.312 382.165 126.072 382.321 126.721 382.383L149.427 384.575" fill="white"/>
<path d="M137.309 376.996C133.451 376.985 129.653 377.951 126.27 379.805C125.595 380.178 124.838 380.841 125.098 381.565C125.312 382.165 126.072 382.321 126.721 382.383L149.427 384.575" stroke="#392396" stroke-width="1.5" stroke-miterlimit="10"/>
<path d="M179.581 385.802L171.481 387.088L163.406 388.403L155.249 387.523L147.671 384.533L140.366 380.994L134.551 375.305L129.706 368.792L126.274 361.639L127.94 353.834L134.94 350.097L142.756 349.434L150.441 350.879L157.399 354.554L162.639 360.402L169.247 364.613L176.932 365.237" fill="white"/>
<path d="M179.581 385.802L171.481 387.088L163.406 388.403L155.249 387.523L147.671 384.533L140.366 380.994L134.551 375.305L129.706 368.792L126.274 361.639L127.94 353.834L134.94 350.097L142.756 349.434L150.441 350.879L157.399 354.554L162.639 360.402L169.247 364.613L176.932 365.237" stroke="#392396" stroke-width="1.5" stroke-miterlimit="10"/>
<path d="M440.248 419.353L432.248 419.359L424.533 417.239L416.896 415.06L409.289 412.59L402.117 409.028L395.776 404.112L389.337 399.44L382.538 394.953L377.087 388.93L371.535 383.05L366.622 376.624L361.362 370.474L356.521 363.974L352.102 357.179L348.144 350.107L344.891 342.672L341.066 335.538L337.439 328.57L334.108 321.45L329.984 314.758L326.354 307.771L321.387 301.644L316.783 295.306L312.347 288.809L307.185 282.884L301.717 277.234L295.577 272.322L289.434 267.471L283.109 262.838L276.359 258.834L269.404 255.162L261.872 252.883L254.517 250.055L246.715 248.977L238.962 247.603L231.088 247.305L223.273 248.366L215.48 249.142L207.633 249.902L200.107 252.237L192.707 254.85L185.616 257.597L178.593 260.549L172.073 264.484L165.709 268.675L159.836 273.536L154.183 278.689L149.702 284.89L145.283 291.085L141.241 297.54L137.341 304.131L134.806 311.937L132.195 319.664L129.831 327.531L129.494 335.749L120.558 337.931L111.954 341.279L112.941 333.548L114.172 326.171L116.406 319.028L118.75 311.95L120.799 304.751L123.925 297.962L127.653 290.972L131.783 284.228L135.556 277.199L141.059 271.435L146.118 265.315L152.102 259.721L158.644 254.792L165.3 250.003L172.534 246.139L180.203 243.253L187.707 240.006L194.652 237.843L201.788 236.437L208.857 234.798L215.997 233.444L223.231 232.697L230.494 232.311L237.76 232.626L245.764 232.937L253.693 234.148L261.463 236.116L268.882 239.152L276.252 242.178L283.619 245.275L290.509 249.334L297.36 253.496L303.211 259.003L309.766 263.636L315.283 269.445L320.692 275.332L325.643 281.601L330.549 287.9L335.585 294.128L339.855 300.897L343.991 307.742L347.832 314.755L350.962 322.132L354.54 329.268L358.109 336.662L362.635 343.535L366.882 350.526L371.067 357.562L375.947 364.133L381.239 370.371L386.061 377.053L392.1 382.624L398.269 388.043L404.935 392.446L411.601 396.858L418.968 399.966L426.64 402.063L434.316 404.261L442.284 403.836L450.602 403.041L458.336 399.881L465.414 395.498L471.311 389.598L476.454 382.942L479.451 375.075L481.753 367.497L483.84 359.776L483.441 351.792L483.327 343.824L481.584 336.032L478.973 328.493L475.097 321.531L471.57 314.365L466.307 308.115L460.866 302.05L454.632 296.803L448.271 291.738L441.816 286.679L450.657 283.78L459.648 281.364L466.58 286.316L473.184 291.959L478.285 299.001L483.613 305.81L488.159 312.226L491.084 319.531L494.737 326.512L496.341 334.22L498.256 341.818L499.182 349.62L498.977 357.471L497.912 365.234L496.575 372.962L494.263 380.465L491.675 387.03L487.636 392.823L484.081 398.894L479.376 404.141L474.142 408.878L466.736 412.755L459.245 416.32L451.154 418.145L442.949 419.288L440.248 419.353Z" fill="white"/>
<path d="M440.248 419.353L432.248 419.359L424.533 417.239L416.896 415.06L409.289 412.59L402.117 409.028L395.776 404.112L389.337 399.44L382.538 394.953L377.087 388.93L371.535 383.05L366.622 376.624L361.362 370.474L356.521 363.974L352.102 357.179L348.144 350.107L344.891 342.672L341.066 335.538L337.439 328.57L334.108 321.45L329.984 314.758L326.354 307.771L321.387 301.644L316.783 295.306L312.347 288.809L307.185 282.884L301.717 277.234L295.577 272.322L289.434 267.471L283.109 262.838L276.359 258.834L269.404 255.162L261.872 252.883L254.517 250.055L246.715 248.977L238.962 247.603L231.088 247.305L223.273 248.366L215.48 249.142L207.633 249.902L200.107 252.237L192.707 254.85L185.616 257.597L178.593 260.549L172.073 264.484L165.709 268.675L159.836 273.536L154.183 278.689L149.702 284.89L145.283 291.085L141.241 297.54L137.341 304.131L134.806 311.937L132.195 319.664L129.831 327.531L129.494 335.749L120.558 337.931L111.954 341.279L112.941 333.548L114.172 326.171L116.406 319.028L118.75 311.95L120.799 304.751L123.925 297.962L127.653 290.972L131.783 284.228L135.556 277.199L141.059 271.435L146.118 265.315L152.102 259.721L158.644 254.792L165.3 250.003L172.534 246.139L180.203 243.253L187.707 240.006L194.652 237.843L201.788 236.437L208.857 234.798L215.997 233.444L223.231 232.697L230.494 232.311L237.76 232.626L245.764 232.937L253.693 234.148L261.463 236.116L268.882 239.152L276.252 242.178L283.619 245.275L290.509 249.334L297.36 253.496L303.211 259.003L309.766 263.636L315.283 269.445L320.692 275.332L325.643 281.601L330.549 287.9L335.585 294.128L339.855 300.897L343.991 307.742L347.832 314.755L350.962 322.132L354.54 329.268L358.109 336.662L362.635 343.535L366.882 350.526L371.067 357.562L375.947 364.133L381.239 370.371L386.061 377.053L392.1 382.624L398.269 388.043L404.935 392.446L411.601 396.858L418.968 399.966L426.64 402.063L434.316 404.261L442.284 403.836L450.602 403.041L458.336 399.881L465.414 395.498L471.311 389.598L476.454 382.942L479.451 375.075L481.753 367.497L483.84 359.776L483.441 351.792L483.327 343.824L481.584 336.032L478.973 328.493L475.097 321.531L471.57 314.365L466.307 308.115L460.866 302.05L454.632 296.803L448.271 291.738L441.816 286.679L450.657 283.78L459.648 281.364L466.58 286.316L473.184 291.959L478.285 299.001L483.613 305.81L488.159 312.226L491.084 319.531L494.737 326.512L496.341 334.22L498.256 341.818L499.182 349.62L498.977 357.471L497.912 365.234L496.575 372.962L494.263 380.465L491.675 387.03L487.636 392.823L484.081 398.894L479.376 404.141L474.142 408.878L466.736 412.755L459.245 416.32L451.154 418.145L442.949 419.288L440.248 419.353Z" stroke="#392396" stroke-width="1.5" stroke-miterlimit="10"/>
<path d="M557.464 153.271L549.574 155.326L541.661 155.81L533.762 155.71L525.836 155.255L518.053 153.658L510.495 151.219L503.137 149.271L496.368 145.739L490.455 140.927L484.793 135.881L479.01 130.949L473.143 125.793L467.513 120.358L460.99 116.033L454.369 111.932L447.619 107.955L440.057 105.883L432.693 103.169L424.872 102.565L417.141 101.24L409.391 101.588L401.67 102.029L393.968 102.964L386.575 105.312L379.295 107.916L372.639 111.835L365.788 115.462L360.269 120.9L355.165 126.186L350.275 131.78L347.057 138.475L343.992 145.385L351.853 145.739L359.723 145.67L363.006 139.196L368.12 133.611L373.808 128.702L380.088 124.605L386.675 120.91L393.971 118.965L401.348 117.471L408.848 116.669L416.391 116.887L423.826 117.371L431.054 119.166L438.086 121.458L444.882 124.351L451.597 127.592L457.451 132.202L462.818 137.355L468.808 141.836L474.341 146.976L479.637 152.408L485.734 156.904L492.533 160.249L499.014 164.203L506.345 166.132L514.362 168.184L522.395 170.288L530.638 171.295L538.934 171.613L546.869 171.233L554.607 169.473L561.971 167.843L559.717 160.664L557.464 153.271Z" fill="white"/>
<path d="M557.464 153.271L549.574 155.326L541.661 155.81L533.762 155.71L525.836 155.255L518.053 153.658L510.495 151.219L503.137 149.271L496.368 145.739L490.455 140.927L484.793 135.881L479.01 130.949L473.143 125.793L467.513 120.358L460.99 116.033L454.369 111.932L447.619 107.955L440.057 105.883L432.693 103.169L424.872 102.565L417.141 101.24L409.391 101.588L401.67 102.029L393.968 102.964L386.575 105.312L379.295 107.916L372.639 111.835L365.788 115.462L360.269 120.9L355.165 126.186L350.275 131.78L347.057 138.475L343.992 145.385L351.853 145.739L359.723 145.67L363.006 139.196L368.12 133.611L373.808 128.702L380.088 124.605L386.675 120.91L393.971 118.965L401.348 117.471L408.848 116.669L416.391 116.887L423.826 117.371L431.054 119.166L438.086 121.458L444.882 124.351L451.597 127.592L457.451 132.202L462.818 137.355L468.808 141.836L474.341 146.976L479.637 152.408L485.734 156.904L492.533 160.249L499.014 164.203L506.345 166.132L514.362 168.184L522.394 170.288L530.638 171.295L538.934 171.613L546.869 171.233L554.607 169.473L561.971 167.843L559.717 160.664L557.464 153.271Z" stroke="#392396" stroke-width="1.5" stroke-miterlimit="10"/>
<path d="M262.896 505.8L260.928 512.684L255.831 518.057L248.827 521.525L241.275 523.444L233.616 524.756L225.865 525.282L218.102 525.064L210.339 524.642L202.676 523.317L195.027 521.872L187.582 519.593L180.305 516.853L173.006 514.171L165.996 510.791L159.139 507.119L151.928 503.463L144.518 500.239L136.914 497.498L129.213 495.04L121.264 493.563L113.339 491.943L105.273 491.384L97.1953 491.173L89.1268 491.599L81.0486 492.537L79.5193 485.014L78.4706 477.478L74.2269 483.063L69.3209 488.183L64.863 493.673L60.5966 499.326L56.1289 504.625L62.0122 508.281L68.2462 511.638L74.0419 515.723L80.4057 518.863L86.3345 522.743L84.7728 515.194L83.6721 507.557L92.8088 506.469L101.981 506.417L109.384 507.229L116.806 507.895L124.141 509.288L131.265 511.521L138.18 514.294L144.97 517.33L151.798 520.337L158.558 523.84L165.321 527.363L172.438 530.097L179.614 532.633L186.786 535.201L194.189 537.006L201.621 538.704L209.186 539.6L216.745 540.662L223.489 540.386L231.918 540.217L240.255 539L248.593 537.623L256.519 534.675L264.091 530.889L269.994 525.71L274.637 519.453L277.818 512.33L278.416 504.528" fill="white"/>
<path d="M262.896 505.8L260.928 512.684L255.831 518.057L248.827 521.525L241.275 523.444L233.616 524.756L225.865 525.282L218.102 525.064L210.339 524.642L202.676 523.317L195.027 521.872L187.582 519.593L180.305 516.853L173.006 514.171L165.996 510.791L159.139 507.119L151.928 503.463L144.518 500.239L136.914 497.498L129.213 495.04L121.264 493.563L113.339 491.943L105.273 491.384L97.1953 491.173L89.1268 491.599L81.0486 492.537L79.5193 485.014L78.4706 477.478L74.2269 483.063L69.3209 488.183L64.863 493.673L60.5966 499.326L56.1289 504.625L62.0122 508.281L68.2462 511.638L74.0419 515.723L80.4057 518.863L86.3345 522.743L84.7728 515.194L83.6721 507.557L92.8088 506.469L101.981 506.417L109.384 507.229L116.806 507.895L124.141 509.288L131.265 511.521L138.18 514.294L144.97 517.33L151.798 520.337L158.558 523.84L165.321 527.363L172.438 530.097L179.614 532.633L186.786 535.201L194.189 537.006L201.621 538.704L209.186 539.6L216.745 540.662L223.489 540.386L231.918 540.217L240.255 539L248.593 537.623L256.519 534.675L264.091 530.889L269.994 525.71L274.637 519.453L277.818 512.33L278.416 504.528" stroke="#392396" stroke-width="1.5" stroke-miterlimit="10"/>
<path d="M183.722 134.228C176.433 131.345 170.735 124.38 169.858 116.588C179.725 114.289 187.891 107.497 197.703 104.961C222.912 98.4444 236.49 112.753 237.919 129.312C238.568 136.65 240.192 138.693 244.932 145.479C240.542 147.735 232.38 150.943 226.857 151.07C227.042 148.592 227.181 146.076 226.662 143.647C226.142 141.219 224.896 138.852 222.827 137.478C220.759 136.105 217.795 135.959 215.866 137.524C214.155 138.917 213.567 141.339 213.833 143.527C214.1 145.716 215.087 147.748 216.058 149.725L211.837 151.95C211.67 149.782 211.016 147.68 209.923 145.801C208.83 143.922 207.326 142.315 205.525 141.098C202.969 139.404 199.947 138.585 196.985 137.793L183.722 134.228Z" fill="#392396" stroke="#392396" stroke-width="1.5" stroke-miterlimit="10"/>
<path d="M247.659 184.441C251.961 173.976 254.231 162.787 254.348 151.472" stroke="#392396" stroke-width="1.5" stroke-miterlimit="10"/>
<path d="M261.746 198.191C270.342 184.066 274.72 167.777 274.364 151.245" stroke="#392396" stroke-width="1.5" stroke-miterlimit="10"/>
<path d="M249.451 179.818C255.902 181.504 262.041 184.215 267.633 187.848" stroke="#392396" stroke-width="1.5" stroke-miterlimit="10"/>
<path d="M251.552 174.221L270.591 178.803" stroke="#392396" stroke-width="1.5" stroke-miterlimit="10"/>
<path d="M252.688 168.136L272.16 171.357" stroke="#392396" stroke-width="1.5" stroke-miterlimit="10"/>
<path d="M253.555 162.356L273.253 162.928" stroke="#392396" stroke-width="1.5" stroke-miterlimit="10"/>
<path d="M254.865 156.675L273.911 155.766" stroke="#392396" stroke-width="1.5" stroke-miterlimit="10"/>
<path d="M491.121 264.103C501.102 258.134 512.051 253.959 523.473 251.765" stroke="#392396" stroke-width="1.5" stroke-miterlimit="10"/>
<path d="M180.015 386.591C186.185 379.493 190.23 370.8 191.687 361.509" stroke="#392396" stroke-width="1.5" stroke-miterlimit="10"/>
<path d="M209.202 571.288L249.434 573.071" stroke="#392396" stroke-width="1.5" stroke-miterlimit="10"/>
<path d="M530.85 436.94C542.615 441.498 552.468 449.943 558.773 460.873" stroke="#392396" stroke-width="1.5" stroke-miterlimit="10"/>
<path d="M412.724 150.138C409.026 155.849 409.679 164.012 414.234 169.064C416.903 172.025 420.579 173.843 424.163 175.59L438.04 182.363C442.073 184.331 446.245 186.337 450.729 186.584C457.129 186.909 463.564 183.22 466.499 177.522" stroke="#392396" stroke-width="1.5" stroke-miterlimit="10"/>
<path d="M129.929 353.327C132.283 362.704 138.068 370.858 146.141 376.179" stroke="#392396" stroke-width="1.5" stroke-miterlimit="10"/>
<path d="M136.155 350.207C139.561 360.558 146.583 369.335 155.935 374.929" stroke="#392396" stroke-width="1.5" stroke-miterlimit="10"/>
<path d="M145.538 349.859C148.983 358.069 155.02 364.925 162.727 369.383" stroke="#392396" stroke-width="1.5" stroke-miterlimit="10"/>
<path d="M313.635 572.984L321.382 573.14L329.171 572.906L336.954 573.312L344.74 573.244L352.526 573.062L360.312 572.688L368.098 573.179L375.884 572.964L383.67 573.25L391.459 573.062L399.245 572.711L407.031 572.821L414.817 573.003L422.603 572.899L430.389 573.244L438.175 573.162H445.961L453.747 573.231L461.536 573.058L469.322 573.084L477.112 572.886L484.901 573.166L492.927 573.156L489.547 565.63L486.664 558.168L484.138 550.564L481.492 543.012L478.134 535.729L475.284 528.252L472.774 520.641L469.79 513.215L467.17 505.647L464.14 498.238L461.403 490.715L458.277 483.328L451.819 487.617L444.958 491.228L438.526 495.536L432.022 499.728L425.399 503.722L418.668 507.543L412.385 512.099L405.814 516.18L399.141 520.099L392.605 524.239L385.927 528.138L379.342 532.203L372.783 536.304L366.212 540.385L359.484 544.217L352.916 548.304L346.555 552.727L339.912 556.694L333.418 560.909L326.603 564.6L320.295 569.107L313.635 572.984Z" fill="#392396"/>
<path d="M305.465 567.058L313.212 567.214L320.998 566.981L328.784 567.383L336.57 567.315L344.356 567.136L352.139 566.763L359.925 567.253L367.714 567.039L375.5 567.325L383.286 567.136L391.072 566.786L398.858 566.896L406.644 567.078L414.433 566.974L422.216 567.318L430.002 567.234L437.791 567.237L445.577 567.305L453.363 567.133L461.153 567.159L468.939 566.961L476.728 567.24L484.757 567.227L481.377 559.704L478.491 552.243L475.968 544.639L473.319 537.083L469.961 529.801L467.111 522.326L464.601 514.716L461.617 507.287L459 499.722L455.967 492.312L453.23 484.789L450.107 477.4L443.649 481.692L436.785 485.299L430.356 489.611L423.853 493.803L417.229 497.796L410.495 501.618L404.216 506.17L397.644 510.251L390.972 514.173L384.436 518.31L377.754 522.213L371.172 526.278L364.61 530.379L358.039 534.46L351.311 538.291L344.746 542.379L338.382 546.801L331.739 550.769L325.249 554.983L318.43 558.675L312.121 563.182L305.465 567.058Z" stroke="#392396" stroke-width="1.5" stroke-miterlimit="10"/>
</svg>
