<svg width="613" height="588" viewBox="0 0 613 588" fill="none" xmlns="http://www.w3.org/2000/svg">
<path d="M612.002 551.94L603.862 552.331L595.884 552.175L587.943 552.771L579.975 552.817L572.047 553.761L564.075 553.731L556.121 554.052L548.179 554.721L540.215 554.747L532.27 555.316L524.299 555.28L516.348 555.73L508.386 555.906L500.461 556.879L492.49 556.909L484.546 557.435L476.594 557.822L468.633 558.044L460.665 558.054L452.707 558.345L444.779 559.246L436.798 559.017L428.86 559.703L420.905 560.044L412.957 560.613L404.993 560.712L397.028 560.838L389.083 561.358L381.116 561.431L373.174 562.063L365.226 562.569L357.258 562.599L349.32 563.364L341.352 563.407L333.408 563.946L325.453 564.337L317.478 564.251L309.524 564.575L301.579 565.155L293.625 565.489H285.657L277.709 565.979L269.754 566.37L261.819 567.095L253.861 567.373L245.887 567.257L237.952 568.094L229.981 568.008L222.023 568.29L214.088 569.11L206.124 569.226L198.166 569.451L190.221 570.09L182.26 570.279L174.302 570.55L166.337 570.686L158.389 571.136L150.448 571.865L142.487 572.07L134.519 572.12L126.564 572.523L118.616 573.023L110.651 573.162L102.717 574.026L94.7588 574.337L86.7876 574.245L78.8297 574.533L70.8916 575.311L62.9303 575.536L54.9559 575.509L47.0244 576.436L39.0499 576.35L31.0953 576.804L23.2962 576.959L22.8725 569.246L22.4885 561.364L22.1476 553.479L21.9721 545.588L21.7371 537.696L20.9592 529.831L20.5288 521.949L20.4361 514.054L19.8171 506.179L20.0058 498.27L19.4397 490.395L18.7777 482.523L18.4533 474.638L18.2778 466.743L17.7118 458.868L17.8839 450.96L17.1589 443.091L16.9041 435.203L16.957 427.298L16.1526 419.432L16.0897 411.534L15.7024 403.652L15.5965 395.757L14.9311 387.885L14.5869 379.997L14.4313 372.105L13.7162 364.233L13.7129 356.335L13.2561 348.453L13.127 340.558L12.7463 332.673L12.5808 324.781L12.1074 316.899L11.6837 309.018L11.0051 301.146L10.8131 293.257L10.8628 285.352L9.9392 277.494L9.62473 269.605L9.24073 261.723L9.22418 253.825L9.12156 245.927L8.63495 238.048L7.88352 230.18L7.96627 222.278L7.32738 214.403L7.12546 206.511L7.14863 198.609L6.65209 190.731L6.38395 182.839L5.74837 174.967L5.4008 167.079L5.42397 159.177L4.92742 151.299L4.34481 143.42L3.86813 135.542L4.02702 127.634L3.66951 119.745L2.85849 111.88L2.42154 103.998L2.23285 96.103L2.28912 88.2013L1.59727 80.3261L1.17355 72.4443L0.786251 64.5559L0.696872 56.6576L0.501566 48.7625L0.00170898 40.8642L7.9762 40.5464L15.9275 40.169L23.8689 39.5268L31.8235 39.2123L39.7914 39.1792L47.7427 38.7687L55.7073 38.6661L63.6652 38.398L71.6033 37.7194L79.5745 37.7624L87.5192 37.203L95.4606 36.5343L103.419 36.3059L111.383 36.1768L119.338 35.8424L127.299 35.6902L135.234 34.856L143.202 34.8328L151.14 34.0814L159.121 34.3396L167.069 33.8861L175.004 33.0552L182.978 33.2075L190.91 32.3435L198.891 32.6248L206.835 32.0422L214.797 31.8337L222.731 31.0061L230.689 30.7512L238.651 30.5394L246.605 30.1885L254.576 30.2381L262.508 29.351L270.476 29.2815L278.414 28.5631L286.382 28.4969L294.336 28.1857L302.294 27.8845L310.249 27.527L318.194 26.9477L326.151 26.7689L334.116 26.6531L342.054 25.9083L350.005 25.5706L357.983 25.6931L365.918 24.9152L373.883 24.7761L381.844 24.6172L389.775 23.7698L397.746 23.7533L405.704 23.5414L413.659 23.1276L421.607 22.6642L429.552 22.0749L437.533 22.3497L445.484 21.8763L453.429 21.3301L461.393 21.1613L469.348 20.8336L477.309 20.5721L485.251 19.9233L493.199 19.3903L501.173 19.5029L509.134 19.2546L517.082 18.7316L525.03 18.2019L532.982 17.7716L540.95 17.7021L548.901 17.2717L556.862 17.0268L564.8 16.2224L572.771 16.219L580.723 15.6762L588.608 15.5901L589.028 23.3891L589.333 31.2742L589.978 39.1461L590.081 47.0412L590.475 54.9263L591.051 62.8015L591.177 70.6965L591.643 78.575L591.438 86.4833L592.186 94.3518L592.249 102.25L592.478 110.139L593.414 118.001L593.428 125.899L593.553 133.794L593.967 141.676L594.341 149.561L594.838 157.439L594.931 165.338L595.318 173.22L596.083 181.088L596.149 188.986L596.764 196.858L596.642 204.767L596.88 212.655L597.231 220.54L597.767 228.419L598.062 236.307L598.297 244.195L598.711 252.081L599.214 259.959L599.482 267.848L600.131 275.723L600.3 283.614L600.654 291.5L600.873 299.388L601.584 307.26L601.445 315.165L602.15 323.033L602.442 330.922L602.7 338.81L603.256 346.685L603.286 354.587L603.888 362.459L603.815 370.364L604.319 378.242L604.775 386.124L604.742 394.026L605.663 401.888L605.931 409.776L606.255 417.665L606.278 425.563L606.517 433.455L606.834 441.343L607.338 449.222L607.798 457.103L608.334 464.982L608.198 472.89L608.893 480.762L608.996 488.66L609.685 496.529L609.651 504.434L610.343 512.306L610.545 520.201L610.727 528.096L611.144 535.981L611.181 543.886L612.002 551.94Z" fill="#E3F6F5"/>
<path d="M246.103 34.1742L246.358 45.449L252.555 43.9859L258.887 42.0163L265.428 39.8977L258.901 37.7394L252.568 35.7731L246.103 34.1742Z" stroke="#392396" stroke-width="1.5" stroke-miterlimit="10"/>
<path d="M55.5929 84.1431L55.5002 95.7125L61.9288 93.4417L68.3078 91.6343L74.6238 89.8964L68.3971 87.8671L61.9652 86.2286L55.5929 84.1431Z" stroke="#392396" stroke-width="1.5" stroke-miterlimit="10"/>
<path d="M377.723 1.33606L377.922 12.5513L384.069 10.9955L390.402 9.02256L396.407 7.0099L390.405 4.98731L383.98 3.32886L377.723 1.33606Z" stroke="#392396" stroke-width="1.5" stroke-miterlimit="10"/>
<path d="M563.611 109.573L563.307 120.874L569.672 118.778L576.094 117.11L582.099 115.124L576.035 113.34L569.636 111.602L563.611 109.573Z" stroke="#392396" stroke-width="1.5" stroke-miterlimit="10"/>
<path d="M531.073 18.5066L531.129 29.7483L537.237 27.6827L543.619 25.8753L550.342 24.1473L543.685 22.1976L537.316 20.3471L531.073 18.5066Z" stroke="#392396" stroke-width="1.5" stroke-miterlimit="10"/>
<path d="M10.2154 167.44L10.0134 178.99L16.5148 176.805L22.9931 175.322L29.1933 173.147L22.8441 171.465L16.5446 169.39L10.2154 167.44Z" stroke="#392396" stroke-width="1.5" stroke-miterlimit="10"/>
<path d="M24.5657 12.5713L24.6186 24.2632L31.2326 22.5286L37.4957 20.3339L43.9342 18.4371L37.4262 16.772L31.1896 14.4913L24.5657 12.5713Z" stroke="#392396" stroke-width="1.5" stroke-miterlimit="10"/>
<path d="M458.519 89.9956L458.347 101.337L464.739 99.4597L471.082 97.5232L477.438 95.6099L471.165 93.4185L464.806 91.5316L458.519 89.9956Z" stroke="#392396" stroke-width="1.5" stroke-miterlimit="10"/>
<path d="M553.805 224.913L553.924 236.301L560.187 234.447L566.626 232.831L572.617 230.647L566.46 229.015L560.161 226.932L553.805 224.913Z" stroke="#392396" stroke-width="1.5" stroke-miterlimit="10"/>
<path d="M40.5613 249.595L40.3362 261.224L46.9932 259.277L53.3887 257.51L59.6749 255.331L53.2364 253.66L47.0461 251.22L40.5613 249.595Z" stroke="#392396" stroke-width="1.5" stroke-miterlimit="10"/>
<path d="M31.3184 379.898L31.3349 390.98L37.4391 389.309L43.8611 387.637L49.8924 385.446L43.7154 383.751L37.4722 381.47L31.3184 379.898Z" stroke="#392396" stroke-width="1.5" stroke-miterlimit="10"/>
<path d="M15.125 545.326L15.0654 556.978L21.6364 554.999L27.9954 553.122L34.2122 551.132L28.0219 549.063L21.7026 547.044L15.125 545.326Z" stroke="#392396" stroke-width="1.5" stroke-miterlimit="10"/>
<path d="M96.3462 570.812L96.6441 582.11L102.702 580.197L109.111 578.472L115.361 576.559L109.18 574.414L102.805 572.59L96.3462 570.812Z" stroke="#392396" stroke-width="1.5" stroke-miterlimit="10"/>
<path d="M544.042 470.798L544.099 482.54L550.679 480.56L556.923 478.293L563.553 476.687L557.002 474.817L550.736 472.632L544.042 470.798Z" stroke="#392396" stroke-width="1.5" stroke-miterlimit="10"/>
<path d="M573.082 351.787L572.883 363.095L579.315 361.406L585.522 359.016L591.911 357.374L585.641 355.329L579.223 353.654L573.082 351.787Z" stroke="#392396" stroke-width="1.5" stroke-miterlimit="10"/>
<path d="M19.8373 280.341L27.729 280.39L35.72 280.036L43.7144 280.473L51.7054 280.182L59.6965 280.288L67.6908 280.053L75.6819 280.016L83.6762 280.189L91.6706 280.099L99.6616 280.357L107.656 280.278L115.65 280.013L123.641 280.549L131.636 280.338L139.63 279.98L147.624 280.463L155.619 279.95L163.61 280.427L171.604 280.169L179.599 280.059L187.593 280.169L195.587 280.324L203.582 280.132L211.573 280.109L219.57 280L227.565 280.513L235.559 280.119H243.553L251.551 280.013L259.35 280.427L259.449 288.458L259.228 296.68L259.363 304.9L259.569 313.123L259.681 321.345L259.734 329.568L259.665 337.791L259.373 346.017L259.324 354.025L251.554 354.415L243.56 354.207L235.569 354.27L227.575 354.385L219.584 354.329L211.589 354.385L203.598 354.402L195.604 354.379L187.609 354.309L179.618 354.336L171.624 354.24L163.633 354.528L155.639 354.018L147.644 354.412L139.65 353.955L131.659 354.246L123.665 353.972L115.67 354.332L107.676 354.478L99.6815 354.524L91.6871 354.157L83.6961 354.203L75.7017 354.005L67.7074 353.925L59.713 354.031L51.7187 354.094L43.721 354.157L35.7267 353.955L27.7323 354.319L19.9432 354.038L19.4202 346.02L19.5989 337.798L19.8604 329.578L19.589 321.355L20.0425 313.133L20.0624 304.91L19.7049 296.687L19.7711 288.461L19.8373 280.341Z" fill="#FFD803"/>
<path d="M532.448 539.229L525.662 535.008L519.353 530.072L512.414 526.067L505.966 521.333L499.2 517.073L492.702 512.412L486.045 507.989L479.451 503.474L472.992 498.757L466.15 494.606L459.437 490.269L452.929 485.625L446.47 480.911L439.896 476.366L433.017 472.268L426.36 467.845L419.902 463.128L413.136 458.861L406.455 454.472L400 449.751L393.307 445.382L386.779 440.767L380.029 436.48L373.63 431.674L366.738 427.599L360.207 422.988L353.484 418.664L347.142 413.772L340.441 409.412L333.93 404.771L327.131 400.56L320.437 396.188L313.966 391.49L307.315 387.064L300.781 382.456L294.038 378.163L287.55 373.489L280.926 369.017L274.136 364.793L267.546 360.274L261.114 355.514L254.245 351.406L247.591 346.977L241.153 342.23L234.595 337.662L227.855 333.358L221.158 328.992L214.707 324.262L207.907 320.051L201.277 315.589L194.871 310.785L187.986 306.7L181.653 301.795L174.768 297.71L168.399 292.857L161.613 288.623L155.029 284.088L148.517 279.447L141.738 275.2L135.16 270.658L128.345 266.467L121.995 261.588L115.123 257.48L108.552 252.928L102.19 248.065L95.3641 243.888L88.8495 239.25L82.2024 234.804L75.3964 230.597L68.7427 226.164L62.2877 221.431L55.783 216.942L60.2221 210.51L64.3533 203.754L68.991 197.342L73.3805 190.757L77.7832 184.097L84.417 188.682L91.1071 193.058L97.5555 197.789L104.11 202.36L110.76 206.799L117.616 210.927L124.144 215.538L130.609 220.246L137.527 224.284L144.145 228.766L150.514 233.613L157.161 238.052L164.053 242.127L170.369 247.056L177.195 251.233L183.808 255.719L190.234 260.485L196.871 264.938L203.515 269.377L210.139 273.852L216.991 277.99L223.621 282.449L230.139 287.08L236.621 291.761L243.437 295.955L249.789 300.828L256.443 305.257L263.289 309.402L269.959 313.804L276.271 318.74L282.902 323.202L289.88 327.151L296.272 331.965L302.909 336.417L309.388 341.104L316.18 345.322L322.907 349.642L329.567 354.061L336.145 358.602L342.53 363.422L349.277 367.719L355.99 372.059L362.488 376.716L369.234 381.01L375.656 385.783L382.572 389.825L389.202 394.287L395.608 399.081L402.218 403.573L408.822 408.075L415.631 412.279L422.265 416.741L428.796 421.349L435.394 425.861L441.905 430.502L448.744 434.656L455.113 439.513L461.919 443.717L468.361 448.464L474.975 452.956L481.874 457.017L488.451 461.559L494.824 466.405L501.626 470.623L508.373 474.916L515.016 479.359L521.521 484.016L528.208 488.399L534.759 492.98L541.373 497.476L547.871 502.143L554.806 506.427L550.337 513.133L545.825 519.632L541.101 525.984L537.033 532.787L532.448 539.229Z" fill="#392396"/>
<path d="M532.448 539.229L525.662 535.008L519.353 530.072L512.414 526.067L505.966 521.333L499.2 517.073L492.702 512.412L486.045 507.989L479.451 503.474L472.992 498.757L466.15 494.606L459.437 490.269L452.929 485.625L446.47 480.911L439.896 476.366L433.017 472.268L426.36 467.845L419.902 463.128L413.136 458.861L406.455 454.472L400 449.751L393.307 445.382L386.779 440.767L380.029 436.48L373.63 431.674L366.738 427.599L360.207 422.988L353.484 418.664L347.142 413.772L340.441 409.412L333.93 404.771L327.131 400.56L320.437 396.188L313.966 391.49L307.315 387.064L300.781 382.456L294.038 378.163L287.55 373.489L280.926 369.017L274.136 364.793L267.546 360.274L261.114 355.514L254.245 351.406L247.591 346.977L241.153 342.23L234.595 337.662L227.855 333.358L221.158 328.992L214.707 324.261L207.907 320.051L201.277 315.589L194.871 310.785L187.986 306.7L181.653 301.795L174.768 297.71L168.399 292.857L161.613 288.623L155.029 284.088L148.517 279.447L141.738 275.2L135.16 270.658L128.345 266.467L121.995 261.588L115.123 257.48L108.552 252.928L102.19 248.065L95.3641 243.888L88.8495 239.25L82.2024 234.804L75.3964 230.597L68.7427 226.164L62.2877 221.431L55.783 216.942L60.2221 210.51L64.3533 203.754L68.991 197.342L73.3805 190.757L77.7832 184.097L84.417 188.682L91.1071 193.058L97.5555 197.789L104.11 202.36L110.76 206.799L117.616 210.927L124.144 215.538L130.609 220.246L137.527 224.284L144.145 228.766L150.514 233.613L157.161 238.052L164.053 242.127L170.369 247.056L177.195 251.233L183.808 255.719L190.234 260.485L196.871 264.938L203.515 269.377L210.139 273.852L216.991 277.99L223.621 282.449L230.139 287.08L236.621 291.761L243.437 295.955L249.789 300.828L256.443 305.257L263.289 309.402L269.959 313.804L276.272 318.74L282.902 323.202L289.88 327.151L296.272 331.965L302.909 336.417L309.388 341.104L316.18 345.322L322.907 349.642L329.567 354.061L336.145 358.602L342.53 363.422L349.277 367.719L355.99 372.059L362.488 376.716L369.234 381.01L375.656 385.783L382.572 389.825L389.202 394.287L395.608 399.081L402.218 403.573L408.822 408.075L415.631 412.279L422.265 416.741L428.796 421.349L435.394 425.861L441.905 430.502L448.744 434.656L455.113 439.513L461.919 443.717L468.361 448.464L474.975 452.956L481.874 457.017L488.451 461.559L494.824 466.405L501.626 470.623L508.373 474.916L515.016 479.359L521.521 484.016L528.208 488.399L534.759 492.98L541.373 497.476L547.871 502.143L554.806 506.427L550.337 513.133L545.825 519.632L541.101 525.984L537.033 532.787L532.448 539.229Z" stroke="#392396" stroke-width="1.5" stroke-miterlimit="10"/>
<path d="M134.495 544.273C178.038 544.273 213.336 508.975 213.336 465.432C213.336 421.889 178.038 386.591 134.495 386.591C90.952 386.591 55.6536 421.889 55.6536 465.432C55.6536 508.975 90.952 544.273 134.495 544.273Z" fill="#392396" stroke="#392396" stroke-width="1.5" stroke-miterlimit="10"/>
<path d="M376.839 410.342L373.446 417.413L370.272 424.59L366.359 431.389L362.135 437.993L357.732 444.465L353.181 450.83L348.761 457.319L343.29 462.953L338.39 469.09L332.783 474.575L326.95 479.809L321.071 484.986L314.917 489.836L308.548 494.391L302.169 498.942L295.403 502.891L288.772 507.082L281.609 510.287L274.492 513.541L267.282 516.603L259.867 519.155L252.29 521.164L244.59 522.637L236.821 523.707L228.975 523.832L221.179 523.015L213.526 521.313L206.528 517.814L200.047 513.157L195.389 506.665L191.698 499.621L188.967 492.146L186.723 484.49L185.041 476.674L184.624 468.683L183.965 460.741L183.009 452.8L182.767 444.822L183.009 436.838L182.803 428.853L181.281 420.968L174.597 417.751L167.255 416.794L159.807 416.327L152.349 416.566L144.897 416.751L137.479 416L131.355 412.05L130.934 404.493L133.414 396.962L137.432 390.093L141.593 383.327L145.566 376.428L150.263 370.003L154.662 363.379L158.622 356.471L163.266 349.992L167.043 342.981L170.658 335.907L174.005 328.714L176.689 321.266L178.53 313.526L178.894 305.638L179.301 297.753L179.493 289.861L180.34 282.012L180.844 274.134L182.049 266.335L183.558 258.592L185.054 250.833L187.272 243.242L190.602 236.069L193.615 228.763L197.643 221.954L202.576 215.787L207.667 209.768L213.397 204.353L219.551 199.417L226.211 195.187L233.169 191.479L240.26 188.013L247.725 185.448L255.282 183.213L262.873 181.075L270.536 179.128L278.398 178.271L286.343 177.437L294.294 176.768L302.265 176.126L310.263 176.176L318.25 176.589L326.152 177.844L334.11 178.645L341.965 180.181L349.543 182.78L357.176 185.127L364.727 187.788L371.702 191.731L378.653 195.643L385.456 199.838L391.895 204.585L397.87 209.911L403.183 215.893L408.314 222L413.216 228.313L417.139 235.274L421.336 242.097L424.6 249.413L426.801 257.119L429.725 264.587L431.035 272.492L432.439 280.35L433.972 288.212L434.289 296.21L434.786 304.195L434.766 312.199L434.329 320.187L433.72 328.164L432.757 336.109L431.363 343.988L429.681 351.806L427.904 359.592L426.02 367.355L424.239 375.154L421.803 382.701L419.986 390.414L417.88 398.055L416.172 405.794L414.583 413.557L412.961 421.309L411.041 429.002L410.085 436.881L408.396 444.627L407.546 452.509L406.483 460.354L404.944 468.143L404.616 476.071L403.573 483.93L403.09 491.835L402.822 499.753L402.448 507.668L402.461 515.593L403.093 523.498L403.285 531.423L404.258 539.288L405.679 547.004L398.032 548.739L390.352 550.417L382.702 552.235L375.174 554.568L367.451 556.081L359.795 557.872L352.138 559.666L344.521 561.626L336.881 563.483L329.244 565.36L321.528 566.896L313.864 568.65L306.241 570.58L298.538 572.182L290.911 574.096L283.247 575.857L275.548 577.466L268.037 579.879L260.317 581.418L252.727 583.497L244.944 584.755L237.354 586.751L240.187 579.518L242.663 572.1L244.914 564.608L247.423 557.203L249.231 549.583L251.849 542.194L253.263 534.485L255.077 526.884L256.596 519.218" fill="white"/>
<path d="M376.839 410.342L373.446 417.413L370.272 424.59L366.359 431.389L362.135 437.993L357.732 444.465L353.181 450.83L348.761 457.319L343.29 462.953L338.39 469.09L332.783 474.575L326.95 479.809L321.071 484.986L314.917 489.836L308.548 494.391L302.169 498.942L295.403 502.891L288.772 507.082L281.609 510.287L274.492 513.541L267.282 516.603L259.867 519.155L252.29 521.164L244.59 522.637L236.821 523.707L228.975 523.832L221.179 523.015L213.526 521.313L206.528 517.814L200.047 513.157L195.389 506.665L191.698 499.621L188.967 492.146L186.723 484.49L185.041 476.674L184.624 468.683L183.965 460.741L183.009 452.8L182.767 444.822L183.009 436.838L182.803 428.853L181.281 420.968L174.597 417.751L167.255 416.794L159.807 416.327L152.349 416.566L144.897 416.751L137.479 416L131.355 412.05L130.934 404.493L133.414 396.962L137.432 390.093L141.593 383.327L145.566 376.428L150.263 370.003L154.662 363.379L158.622 356.471L163.266 349.992L167.043 342.981L170.658 335.907L174.005 328.714L176.689 321.266L178.53 313.526L178.894 305.638L179.301 297.753L179.493 289.861L180.34 282.012L180.844 274.134L182.049 266.335L183.558 258.592L185.054 250.833L187.272 243.242L190.602 236.069L193.615 228.763L197.643 221.954L202.576 215.787L207.667 209.768L213.397 204.353L219.551 199.417L226.211 195.187L233.169 191.479L240.26 188.013L247.725 185.448L255.282 183.213L262.873 181.075L270.536 179.128L278.398 178.271L286.343 177.437L294.294 176.768L302.265 176.126L310.263 176.176L318.25 176.589L326.152 177.844L334.11 178.645L341.965 180.181L349.543 182.78L357.176 185.127L364.727 187.788L371.702 191.731L378.653 195.643L385.456 199.838L391.894 204.585L397.87 209.911L403.183 215.893L408.314 222L413.216 228.313L417.139 235.274L421.336 242.097L424.6 249.413L426.801 257.119L429.725 264.587L431.035 272.492L432.439 280.35L433.972 288.212L434.289 296.21L434.786 304.195L434.766 312.199L434.329 320.187L433.72 328.164L432.757 336.109L431.363 343.988L429.681 351.806L427.904 359.592L426.02 367.355L424.239 375.154L421.803 382.701L419.986 390.414L417.88 398.055L416.172 405.794L414.583 413.557L412.961 421.309L411.041 429.002L410.085 436.881L408.396 444.627L407.546 452.509L406.483 460.354L404.944 468.143L404.616 476.071L403.573 483.93L403.09 491.835L402.822 499.753L402.448 507.668L402.461 515.593L403.093 523.498L403.285 531.423L404.258 539.288L405.679 547.004L398.032 548.739L390.352 550.417L382.702 552.235L375.174 554.568L367.451 556.081L359.795 557.872L352.138 559.666L344.521 561.626L336.881 563.483L329.244 565.36L321.528 566.896L313.864 568.65L306.241 570.58L298.538 572.182L290.911 574.096L283.247 575.857L275.548 577.466L268.037 579.879L260.317 581.418L252.727 583.497L244.944 584.755L237.354 586.751L240.187 579.518L242.663 572.1L244.914 564.608L247.423 557.203L249.231 549.583L251.849 542.194L253.263 534.485L255.077 526.884L256.596 519.218" stroke="#392396" stroke-width="1.5" stroke-miterlimit="10"/>
<path d="M360.974 348.609C360.974 348.609 356.67 329.409 369.249 321.134C381.828 312.858 407.808 318.621 390.766 357.878C372.229 400.581 348.063 372.112 364.284 370.126C380.504 368.14 386.751 361.519 378.333 356.554" stroke="#392396" stroke-width="1.5" stroke-miterlimit="10"/>
<path d="M223.942 170.621L216.123 171.204L208.225 172.071L200.323 172.948L192.369 173.13L184.484 174.196L176.562 174.802L168.617 175.146L160.722 176.083L152.801 176.659L144.84 176.785L136.968 178.033L129.026 178.407L121.111 179.142L113.167 179.503L105.086 180.459L104.471 172.233L104.053 164.176L103.236 156.152L102.382 148.131L101.865 140.084L101.054 132.059L100.468 124.015L99.7898 115.981L99.4224 107.921L98.9722 99.8669L98.2869 91.8328L97.5223 83.802L96.645 75.7812L96.1518 67.7306L95.5791 59.6833L95.0693 51.7684L102.845 51.06L110.783 50.6296L118.672 49.6001L126.58 48.8388L134.508 48.2992L142.423 47.6007L150.348 47.0677L158.273 46.4752L166.201 45.9687L174.116 45.2703L182.06 44.9194L189.979 44.2672L197.877 43.3602L205.825 43.0226L213.8 42.0129L214.041 50.1662L214.779 58.1969L215.62 66.2178L216.521 74.2353L217.073 82.2793L217.308 90.3531L218.11 98.3773L218.911 106.401L219.629 114.432L220.43 122.46L220.556 130.54L221.556 138.551L222.436 146.568L222.876 154.626L223.138 162.696L223.942 170.621Z" fill="#BAE8E8"/>
<path d="M223.942 170.621L216.123 171.204L208.225 172.071L200.323 172.948L192.369 173.13L184.484 174.196L176.562 174.802L168.617 175.146L160.722 176.083L152.801 176.659L144.84 176.785L136.968 178.033L129.026 178.407L121.111 179.142L113.167 179.503L105.086 180.459L104.471 172.233L104.053 164.176L103.236 156.152L102.382 148.131L101.865 140.084L101.054 132.059L100.468 124.015L99.7898 115.981L99.4224 107.921L98.9722 99.8669L98.2869 91.8328L97.5223 83.802L96.645 75.7812L96.1518 67.7306L95.5791 59.6833L95.0693 51.7684L102.845 51.06L110.783 50.6296L118.672 49.6001L126.58 48.8388L134.508 48.2992L142.423 47.6007L150.348 47.0677L158.273 46.4752L166.201 45.9687L174.116 45.2703L182.06 44.9194L189.979 44.2672L197.877 43.3602L205.825 43.0226L213.8 42.0129L214.041 50.1662L214.779 58.1969L215.62 66.2178L216.521 74.2353L217.073 82.2793L217.308 90.3531L218.11 98.3773L218.911 106.401L219.629 114.432L220.43 122.46L220.556 130.54L221.556 138.551L222.436 146.568L222.876 154.626L223.138 162.696L223.942 170.621Z" stroke="#392396" stroke-width="1.5" stroke-miterlimit="10"/>
<path d="M113.868 72.3617L121.462 71.7725L129.046 71.0409L136.626 70.2861L144.233 69.8922L151.837 69.4056L159.398 68.4092L167.015 68.1047L174.615 67.5452L182.176 66.5521L189.803 66.327L197.4 65.7345" stroke="#392396" stroke-width="1.5" stroke-miterlimit="10"/>
<path d="M115.208 88.986L122.778 88.1419L130.352 87.2945L137.993 87.2812L145.586 86.682L153.134 85.5267L160.728 84.911L168.351 84.6959L175.948 84.1364L183.549 83.5935L191.113 82.5971L198.697 81.8722" stroke="#392396" stroke-width="1.5" stroke-miterlimit="10"/>
<path d="M116.532 105.458L124.116 104.773L131.71 104.19L139.307 103.631L146.887 102.873L154.484 102.326L162.085 101.823L169.665 101.065L177.282 100.727L184.843 99.7344L192.467 99.4729L200.064 98.887" stroke="#392396" stroke-width="1.5" stroke-miterlimit="10"/>
<path d="M117.892 122.43L125.443 121.298L133.047 120.814L140.651 120.371L148.238 119.695L155.835 119.143L163.439 118.649L171.016 117.855L178.626 117.458L186.187 116.458L193.814 116.236L201.404 115.591" stroke="#392396" stroke-width="1.5" stroke-miterlimit="10"/>
<path d="M119.183 138.465L126.816 138.405L134.397 137.637L141.978 136.879L149.558 136.121L157.168 135.774L164.739 134.847L172.346 134.42L179.957 134.032L187.56 133.546L195.154 132.927L202.708 131.815" stroke="#392396" stroke-width="1.5" stroke-miterlimit="10"/>
<path d="M120.564 155.675L128.518 154.642L136.526 154.291L144.487 153.371L152.465 152.61L160.459 152.08L168.47 151.752L176.418 150.647" stroke="#392396" stroke-width="1.5" stroke-miterlimit="10"/>
<path d="M191.121 233.98L184.054 230.915L177.387 226.82L171.269 221.921L166.022 216.075L162.143 209.252L159.283 201.94L158.554 194.134L158.7 186.07L160.954 178.271L166.44 172.339L173.03 167.758L180.561 164.828L188.158 161.985L195.646 159.019L199.397 152.216L200.645 144.394L201.671 136.548L203.783 128.905L207.689 122.023L212.426 115.723L218.729 110.99L225.69 107.332L232.957 104.2L240.865 102.509L248.876 101.532L256.946 101.237L264.96 102.26L272.726 104.419L280.294 107.203L287.318 111.162L294.362 115.131L301.47 118.444L308.577 115.77L315.611 112.453L322.692 109.225L329.945 106.385L337.469 104.392L345.053 102.614L352.832 102.379L360.625 102.297L368.208 104.098L375.541 106.666L382.221 110.334L388.63 114.445L394.37 119.477L399.276 125.336L403.307 131.848L405.932 139.034L408.17 146.327L411.073 153.192L418.644 155.573L426.317 157.794L434.133 159.505L441.747 161.955L449.026 165.272L456.401 168.36L463.323 172.382L469.56 177.384L475.343 182.896L479.808 189.536L482.778 196.974L484.122 205.257L485.323 213.519L485.863 221.855L485.088 230.187L482.311 238.068L479.298 245.907L481.556 253.014L485.777 259.155L489.507 265.59L493.506 271.853L496.664 278.59L498.071 285.846L497.505 293.115L493.44 299.924L487.849 305.611L481.086 309.835L474.403 314.162L468.914 319.591L472.704 326.221L477.716 332.249L481.738 338.966L483.953 346.378L483.731 354.087L479.543 361.466L472.125 365.524L463.637 367.339L455.077 368.391L458.149 374.194L461.903 380.133L463.972 386.826L463.075 393.765L459.768 400.044L453.938 404.238L447.179 406.916L440.048 408.492L432.825 409.535L425.827 411.544L425.03 418.761L424.867 426.083L423.676 433.319L421.12 440.152L415.992 445.226L409.405 447.858L407.617 440.066L405.277 432.306L403.595 424.358L400.739 416.764L397.604 409.3L394.744 401.709L391.043 394.48L385.809 388.028L390.411 381.275L393.641 373.969L396.935 366.726L399.924 359.351L402.559 351.826L404.185 344.014L404.85 336.063L403.777 328.178L401.169 320.667L396.309 314.172L389.384 310.087L381.658 307.922L373.604 308.912L366.226 312.275L359.761 317.125L355.196 323.709L352.101 329.631L350.157 336.023L348.184 342.64L339.624 341.541L331.143 340.333L322.848 339.175L321.821 331.412L321.411 323.404L320.964 315.4L320.487 307.399L319.756 299.411L319.451 291.417L312.821 286.945L307.584 280.857L303.006 274.29L299.47 267.047L297.567 259.198L296.567 252.276L294.495 245.599L291.426 239.482L285.392 240.905L279.029 245.232L272.048 248.509L264.53 250.091L256.903 250.167L249.511 248.198L243.02 244.139L236.833 239.465L230.795 234.586L224.241 230.418L217.448 226.697L210.096 224.43L202.396 223.857L195.739 227.879L191.121 233.98Z" fill="#FFD803"/>
<path d="M191.121 233.98L184.054 230.915L177.387 226.82L171.269 221.921L166.022 216.075L162.143 209.252L159.283 201.94L158.554 194.134L158.7 186.07L160.954 178.271L166.44 172.339L173.03 167.758L180.561 164.828L188.158 161.985L195.646 159.019L199.397 152.216L200.645 144.394L201.671 136.548L203.783 128.905L207.689 122.023L212.426 115.723L218.729 110.99L225.69 107.332L232.957 104.2L240.865 102.509L248.876 101.532L256.946 101.237L264.96 102.26L272.726 104.419L280.294 107.203L287.318 111.162L294.362 115.131L301.47 118.444L308.577 115.77L315.611 112.453L322.692 109.225L329.945 106.385L337.469 104.392L345.053 102.614L352.832 102.379L360.625 102.297L368.208 104.098L375.541 106.666L382.221 110.334L388.63 114.445L394.37 119.477L399.276 125.336L403.307 131.848L405.932 139.034L408.17 146.327L411.073 153.192L418.644 155.573L426.317 157.794L434.133 159.505L441.747 161.955L449.026 165.272L456.401 168.36L463.323 172.382L469.56 177.384L475.343 182.896L479.808 189.536L482.778 196.974L484.122 205.257L485.323 213.519L485.863 221.855L485.088 230.187L482.311 238.068L479.298 245.907L481.556 253.014L485.777 259.155L489.507 265.59L493.506 271.853L496.664 278.59L498.071 285.846L497.505 293.115L493.44 299.924L487.849 305.611L481.086 309.835L474.403 314.162L468.914 319.591L472.704 326.221L477.716 332.249L481.738 338.966L483.953 346.378L483.731 354.087L479.543 361.466L472.125 365.524L463.637 367.338L455.077 368.391L458.149 374.194L461.903 380.133L463.972 386.826L463.075 393.765L459.768 400.044L453.938 404.238L447.179 406.916L440.048 408.492L432.825 409.535L425.827 411.544L425.03 418.761L424.867 426.083L423.676 433.319L421.12 440.152L415.992 445.226L409.405 447.858L407.617 440.066L405.277 432.306L403.595 424.358L400.739 416.764L397.604 409.3L394.744 401.709L391.043 394.48L385.809 388.028L390.411 381.275L393.641 373.969L396.935 366.726L399.924 359.351L402.559 351.826L404.185 344.014L404.85 336.063L403.777 328.178L401.169 320.667L396.309 314.172L389.384 310.087L381.658 307.922L373.604 308.912L366.226 312.275L359.761 317.125L355.196 323.709L352.101 329.631L350.157 336.023L348.184 342.64L339.624 341.541L331.143 340.333L322.848 339.175L321.821 331.412L321.411 323.404L320.964 315.4L320.487 307.399L319.756 299.411L319.451 291.417L312.821 286.945L307.584 280.857L303.006 274.29L299.47 267.047L297.567 259.198L296.567 252.276L294.495 245.599L291.426 239.482L285.392 240.905L279.029 245.232L272.048 248.509L264.53 250.091L256.903 250.167L249.511 248.198L243.02 244.139L236.833 239.465L230.795 234.586L224.241 230.418L217.448 226.697L210.096 224.43L202.396 223.857L195.739 227.879L191.121 233.98Z" stroke="#392396" stroke-width="1.5" stroke-miterlimit="10"/>
<path d="M25.1343 274.382L33.3603 274.786L41.3514 274.647L49.3424 274.842L57.3368 274.524L65.3278 274.402L73.3222 274.667L81.3132 274.611L89.3076 274.769L97.3019 274.551L105.293 274.789L113.287 274.786L121.278 274.481L129.273 274.538L137.267 274.879L145.261 274.435L153.256 274.379L161.247 274.71L169.241 274.819L177.235 274.611L185.23 274.475L193.224 274.783L201.219 274.465L209.21 274.448L217.204 274.842L225.198 274.369L233.196 274.889L241.19 274.415L249.185 274.869L257.179 274.577L265.15 274.634L264.938 282.83L265.213 291.049L265.137 299.272L265.481 307.495L264.995 315.714L265.438 323.937L265.349 332.163L264.882 340.386L265.223 348.655L257.182 348.48L249.191 348.519L241.197 348.844L233.206 348.9L225.215 348.592L217.221 348.476L209.229 348.443L201.235 348.801L193.241 348.549L185.25 348.602L177.255 348.711L169.261 348.599L161.27 348.718L153.276 348.41L145.281 348.294L137.287 348.341L129.293 348.758L121.302 348.596L113.307 348.314L105.313 348.844L97.3185 348.834L89.3241 348.387L81.3297 348.433L73.3387 348.913L65.3444 348.367L57.3467 348.728L49.3523 348.715L41.358 348.364L33.3603 348.394L25.4885 348.486L25.5381 340.389L25.1276 332.167L25.1111 323.947L25.2965 315.724L25.5447 307.502L25.2038 299.279L25.6838 291.056L25.6275 282.83L25.1343 274.382Z" stroke="#392396" stroke-width="1.5" stroke-miterlimit="10"/>
<path d="M525.639 224.807L517.791 225.314L509.717 224.943L501.646 224.92L493.573 225.247L485.499 224.933L477.425 225.158L469.354 224.781L461.281 224.887L453.207 224.718L445.133 225.35L437.063 225.035L428.989 225.218L420.915 225.264L412.841 225.145L404.767 224.807L396.694 224.757L388.623 225.314L380.549 224.744L372.475 225.088L364.402 225.082L356.328 225.314L348.251 225.065L340.177 224.85L332.1 225.026L324.218 224.837L324.009 216.919L323.847 208.805L324.158 200.695L323.738 192.581L324.036 184.471L323.837 176.358L323.791 168.247L324.221 160.134L324.241 152.02L324.003 143.91L324.013 135.797L324.357 127.686L324.208 119.573L324.162 111.459L323.778 103.349L323.844 95.2357L324.304 87.1222L323.808 79.0119L324.238 70.8984L324.297 62.7849L323.821 54.6681L324.043 46.5711L332.1 46.6936L340.17 46.3956L348.241 46.5479L356.315 46.6207L364.388 46.8293L372.462 46.7234L380.533 46.3394L388.606 46.4751L396.68 46.7697L404.754 46.7068L412.825 46.5512L420.898 46.7532L428.972 46.2334L437.046 46.2665L445.12 46.7002L453.194 46.7565L461.267 46.3195L469.338 46.4387L477.412 46.8094L485.485 46.2235L493.559 46.6538L501.636 46.5413L509.71 46.7929L517.787 46.6307L525.841 46.5744L525.831 54.6648L525.669 62.7783L525.563 70.8885L526 78.9987L526.093 87.1122L525.845 95.2224L526.123 103.336L525.593 111.449L525.821 119.56L526.146 127.673L526.129 135.787L525.964 143.897L526.189 152.01L525.676 160.121L526.063 168.234L525.977 176.344L525.583 184.458L526.05 192.571L525.768 200.685L525.818 208.799L525.583 216.912L525.639 224.807Z" stroke="#392396" stroke-width="1.5" stroke-miterlimit="10"/>
<g style="mix-blend-mode:multiply">
<g style="mix-blend-mode:multiply">
<path d="M525.641 224.807L517.792 225.313L509.718 224.943L501.648 224.919L493.574 225.247L485.5 224.933L477.427 225.158L469.356 224.78L461.282 224.886L453.209 224.717L445.135 225.35L437.064 225.035L428.99 225.217L420.917 225.264L412.843 225.144L404.769 224.807L396.695 224.757L388.625 225.313L380.551 224.744L372.477 225.088L364.403 225.082L356.33 225.313L348.252 225.065L340.179 224.85L332.102 225.025L324.22 224.837L324.011 216.918L323.849 208.805L324.16 200.695L323.74 192.581L324.038 184.471L323.839 176.357L323.793 168.247L324.223 160.134L324.243 152.02L324.005 143.91L324.014 135.796L324.359 127.686L324.21 119.573L324.163 111.459L323.779 103.349L323.846 95.2354L324.306 87.1219L323.809 79.0117L324.24 70.8982L324.299 62.7847L323.823 54.6678L324.044 46.5708L332.102 46.6933L340.172 46.3954L348.243 46.5477L356.316 46.6205L364.39 46.829L372.464 46.7231L380.534 46.3391L388.608 46.4748L396.682 46.7695L404.756 46.7066L412.826 46.551L420.9 46.7529L428.974 46.2332L437.048 46.2663L445.122 46.6999L453.195 46.7562L461.269 46.3193L469.34 46.4384L477.413 46.8092L485.487 46.2233L493.561 46.6536L501.638 46.5411L509.712 46.7926L517.789 46.6304L525.843 46.5742L525.833 54.6645L525.671 62.778L525.565 70.8882L526.002 78.9985L526.095 87.112L525.846 95.2222L526.124 103.336L525.595 111.449L525.823 119.559L526.147 127.673L526.131 135.786L525.965 143.897L526.191 152.01L525.677 160.12L526.065 168.234L525.979 176.344L525.585 184.458L526.051 192.571L525.77 200.685L525.82 208.798L525.585 216.912L525.641 224.807Z" fill="white"/>
</g>
</g>
<path d="M214.161 465.432L213.916 473.255L212.857 481.021L211.281 488.727L208.494 496.082L204.786 503.001L201.244 510.032L196.527 516.338L191.267 522.204L185.226 527.249L178.791 531.731L172.153 535.889L165.225 539.626L157.684 541.877L150.137 544.065L142.341 545.078L134.496 545.091L126.67 544.869L118.934 543.658L111.254 542.046L103.855 539.404L96.927 535.723L90.1343 531.827L83.6892 527.338L77.7704 522.158L72.8678 516.007L68.1871 509.737L63.7414 503.249L60.2821 496.172L57.7729 488.707L56.2535 480.997L54.7638 473.284L54.3037 465.432L54.6347 457.567L56.0251 449.821L58.0708 442.247L60.5535 434.806L63.9466 427.725L67.962 420.975L72.411 414.484L77.7273 408.664L83.762 403.609L90.0251 398.872L96.8741 395.042L103.978 391.755L111.247 388.796L118.947 387.273L126.663 385.923L134.496 385.217L142.348 385.711L150.084 387.065L157.691 388.971L165 391.792L172.299 394.705L178.867 399.021L185.421 403.381L190.83 409.098L196.17 414.821L201.244 420.836L204.862 427.821L208.699 434.696L210.755 442.3L212.883 449.838L213.89 457.61L214.161 465.432Z" stroke="#392396" stroke-width="1.5" stroke-miterlimit="10"/>
<path d="M376.219 342.75L382.691 347.142L389.215 351.416L395.968 355.345L402.377 359.804L409.239 363.558L415.787 367.799L422.087 372.426L428.793 376.425L435.202 380.884L442.094 384.592L448.463 389.114L455.021 393.344L461.767 397.28L468.166 401.752L474.856 405.771L481.222 410.303L487.849 414.424L494.327 418.774L501.239 422.451L507.641 426.927L514.308 430.985L520.905 435.156L527.41 439.47L533.802 443.962L540.628 448.222L540.208 439.963L540.78 431.939L540.436 423.911L540.439 415.884L540.211 407.856L540.456 399.832L540.674 391.805L540.496 383.777L540.767 375.75L540.476 367.722L540.314 359.695L540.625 351.668L540.204 343.64L540.506 335.613L540.307 327.585L540.257 319.561L540.688 311.534L540.708 303.506L540.469 295.479L540.479 287.448L540.823 279.42L540.678 271.393L540.628 263.362L540.317 255.504L532.674 255.517L524.851 255.057L517.032 255.553L509.214 255.123L501.391 255.06L493.569 255.54L485.75 255.312L477.928 255.196L470.109 255.49L462.287 255.338L454.468 255.265L446.646 255.057L438.827 255.166L431.005 255.55L423.182 255.411L415.363 255.12L407.541 255.179L399.719 255.335L391.897 255.133L384.071 255.656L376.454 255.537L376.103 263.276L376.047 271.224L376.484 279.165L376.365 287.11L375.994 295.055L376.58 303.003L376.15 310.948L376.262 318.892L376.011 326.84L376.173 334.785L376.219 342.75Z" stroke="#392396" stroke-width="1.5" stroke-miterlimit="10"/>
</svg>
