<svg width="613" height="597" viewBox="0 0 613 597" fill="none" xmlns="http://www.w3.org/2000/svg">
<path opacity="0.25" d="M503.551 78.5533L509.379 83.9293L515.223 89.3019L520.265 95.451L525.759 101.164L530.788 107.291L536.108 113.178L540.734 119.618L545.641 125.846L550.257 132.3L554.5 139.002L558.391 145.912L562.762 152.542L566.588 159.494L569.7 166.806L573.248 173.892L576.593 181.08L579.751 188.356L582.333 195.858L585.252 203.235L587.502 210.842L589.507 218.515L591.404 226.207L593.222 233.915L595.319 241.578L596.19 249.473L597.897 257.231L598.752 265.116L599.365 273.021L599.997 280.923L600.298 288.844L600.328 296.769L600.446 304.694L599.961 312.609L599.869 320.543L598.791 328.406L597.926 336.281L597.022 344.157L595.781 351.99L594.228 359.764L592.449 367.492L590.654 375.217L588.449 382.837L586.002 390.378L583.597 397.936L580.596 405.277L578.005 412.783L574.545 419.928L571.191 427.106L567.649 434.195L564.141 441.307L560.442 448.328L555.852 454.821L551.584 461.494L547.594 468.364L542.981 474.821L537.887 480.911L532.901 487.07L527.747 493.085L522.768 499.266L517.431 505.137L511.574 510.497L505.851 515.977L500.075 521.406L494.175 526.7L487.908 531.561L481.572 536.325L475.413 541.324L468.723 545.596L462.07 549.891L455.524 554.382L448.478 558.032L441.516 561.809L434.656 565.812L427.298 568.797L420.189 572.315L412.933 575.522L405.529 578.369L398.033 580.98L390.354 582.992L382.757 585.236L375.088 587.214L367.429 589.272L359.622 590.635L351.878 592.341L344.025 593.429L336.156 594.356L328.303 595.503L320.402 596.191L312.457 596.047L304.542 596.656L296.608 596.604L288.696 595.965L280.778 595.634L272.883 594.959L264.994 594.156L257.158 592.961L249.355 591.585L241.531 590.291L233.846 588.345L226.19 586.31L218.508 584.364L210.822 582.376L203.444 579.447L196.057 576.587L188.689 573.685L181.272 570.87L174.068 567.555L166.95 564.06L160.145 559.978L153.026 556.466L146.16 552.492L139.752 547.797L133.075 543.529L126.412 539.214L120.401 534.022L114.199 529.091L107.975 524.177L101.947 519.021L96.1645 513.592L90.7755 507.768L85.2816 502.058L79.7451 496.384L74.8114 490.172L69.383 484.37L64.5116 478.103L60.3085 471.358L55.2667 465.206L51.3911 458.267L47.2568 451.512L42.8374 444.907L39.3223 437.792L35.5254 430.827L32.0724 423.685L28.9045 416.413L25.8185 409.104L23.0011 401.687L20.5474 394.142L18.3459 386.522L16.2296 378.889L14.2149 371.23L12.1084 363.587L10.8275 355.76L9.21237 347.999L8.18698 340.14L7.05348 332.297L6.10671 324.425L5.50064 316.52L5.51047 308.586L4.86182 300.668L5.2746 292.743L5.17632 284.805L5.62513 276.884L6.88312 269.034L7.28935 261.103L8.75373 253.303L10.0281 245.48L11.4728 237.686L13.3991 229.997L15.3615 222.321L17.1534 214.593L19.8201 207.121L22.2575 199.583L24.9766 192.136L27.9774 184.801L31.2371 177.581L34.5557 170.387L37.6024 163.048L41.5795 156.182L45.4943 149.289L49.5861 142.501L53.7171 135.73L58.1168 129.132L62.6738 122.639L67.6762 116.477L72.6623 110.318L77.6747 104.175L83.0932 98.3863L88.4266 92.5223L94.0285 86.9137L99.873 81.564L105.314 75.7654L111.493 70.7793L117.452 65.541L124.057 61.1183L130.33 56.2731L136.931 51.8865L143.529 47.4999L150.176 43.1788L157.125 39.359L163.883 35.1952L171.195 32.0764L178.124 28.1943L185.41 25.0592L192.771 22.1075L200.195 19.3294L207.736 16.8855L215.297 14.5235L222.806 11.9715L230.54 10.2221L238.131 7.87316L245.905 6.28757L253.794 5.35718L261.587 3.90263L269.482 3.19173L277.312 1.80925L285.247 1.58976L293.165 1.23922L301.086 0.751099L309.011 1.10818L316.942 1.13767L324.834 1.97961L332.736 2.54963L340.592 3.59796L348.53 4.0697L356.3 5.68151L364.12 7.01157L371.878 8.68562L379.544 10.7233L387.088 13.1705L394.646 15.5489L402.335 17.5604L409.581 20.8233L417.067 23.4408L424.35 26.5727L431.649 29.6947L438.65 33.4327L445.552 37.3279L452.543 41.0658L459.203 45.3705L466.04 49.3836L472.704 53.6883L478.974 58.5467L485.552 62.9955L491.567 68.1749L497.759 73.1348L503.551 78.5533Z" fill="#FFD803"/>
<path d="M567.165 429.048L559.329 429.025L551.434 429.261L543.536 429.183L535.637 429.235L527.742 428.858L519.843 429.094L511.948 428.921L504.05 429.081L496.151 429.183L488.256 428.865L480.358 429.383L472.459 428.93L464.564 429.13L456.665 429.022L448.767 429.16L440.868 429.258L432.973 429.215L425.075 429.124L417.176 429.13L409.281 429.192L401.382 429.389L393.484 429.153L385.585 429.288L377.687 429.088L369.792 428.822L361.893 429.301L353.998 428.976L346.1 428.986L338.204 428.904L330.306 429.265L322.411 428.901L314.512 429.379L306.617 428.796L298.719 429.173L290.82 429.071L282.925 429.34L275.026 428.842L267.128 429.232L259.229 428.862L251.331 429.153L243.436 429.199L235.537 428.934L227.639 429.255L219.74 429.186L211.842 429.156L203.943 428.799L196.045 429.114L188.146 428.894L180.248 428.914L172.349 428.878L164.451 429.186L156.552 428.819L148.654 428.829L140.752 429.094L132.854 429.209L124.955 428.976L117.053 429.199L109.155 428.796L101.174 429.189L101.201 421.215L101.528 413.317L101.05 405.422L101.476 397.526L101.243 389.628L101.535 381.733L101.243 373.834L101.577 365.939L101.522 358.044L101.106 350.145L101.335 342.25L100.935 334.355L101.404 326.46L101.237 318.565L101.152 310.669L101.011 302.771L101.509 294.876L101.217 286.98L101.394 279.085L101.214 271.187L101.378 263.292L101.102 255.396L101.063 247.498L101.325 239.603L101.204 231.704L101.312 223.809L101.433 215.914L101.518 208.015L101.073 200.12L101.535 192.222L101.433 184.323L101.309 176.428L101.446 168.529L101.305 160.631L101.014 152.736L101.581 144.837L100.978 136.942L101.155 129.043L101.286 121.145L101.263 113.246L101.23 105.348L101.486 97.4528L100.978 89.5543L101.312 81.6526L101.296 73.7934L109.148 73.7737L117.047 74.0751L124.945 73.4756L132.84 73.7115L140.739 73.5477L148.637 73.5444L156.533 73.5346L164.431 73.8687L172.326 73.5739L180.225 73.4396L188.123 74.0391L196.022 74.0686L203.917 73.6132L211.816 74.0718L219.711 73.4494L227.609 73.623L235.508 73.7803L243.406 74.0129L251.305 73.6787L259.2 73.9244L267.098 73.6296L274.997 73.492L282.892 73.7115L290.791 73.587L298.689 73.6427L306.584 73.7475L314.483 74.0161L322.378 73.6099L330.276 73.5706L338.172 73.8458L346.07 73.741L353.969 73.6066L361.864 73.7803L369.762 74.0391L377.661 73.7672L385.556 73.9277L393.454 73.4527L401.353 73.456L409.251 73.4428L417.147 73.8786L425.045 73.6689L432.944 73.813L440.842 73.5116L448.741 73.6754L456.639 74.062L464.538 73.6132L472.436 73.6492L480.335 73.587L488.233 73.6394L496.132 73.7475L504.03 73.8327L511.929 73.9834L519.827 73.6722L527.725 73.7115L535.627 73.9113L543.526 73.7082L551.424 73.5444L559.326 73.4592L567.041 73.9408L567.28 81.6493L567.1 89.5445L567.149 97.443L567.532 105.338L567.46 113.233L567.057 121.132L567.398 129.027L567.015 136.926L567.414 144.821L567.477 152.716L567.333 160.614L566.992 168.51L567.067 176.405L567.149 184.3L567.496 192.195L566.943 200.091L566.907 207.986L567.362 215.884L567.447 223.779L566.962 231.675L567.251 239.573L567.133 247.468L567.192 255.364L567.464 263.262L567.421 271.157L567.07 279.056L567.008 286.951L566.907 294.846L567.434 302.745L567.274 310.643L567.031 318.538L567.395 326.437L567.202 334.335L567.372 342.231L567.12 350.129L567.519 358.027L567.136 365.923L567.146 373.821L567.012 381.716L567.339 389.615L567.087 397.513L567.388 405.412L567.283 413.31L566.92 421.209L567.165 429.048Z" fill="white"/>
<path d="M567.166 429.048L559.329 429.025L551.434 429.261L543.536 429.183L535.637 429.235L527.742 428.858L519.843 429.094L511.948 428.921L504.05 429.081L496.151 429.183L488.256 428.865L480.358 429.383L472.459 428.93L464.564 429.13L456.665 429.022L448.767 429.16L440.868 429.258L432.973 429.215L425.075 429.124L417.176 429.13L409.281 429.192L401.382 429.389L393.484 429.153L385.585 429.288L377.687 429.088L369.792 428.822L361.893 429.301L353.998 428.976L346.1 428.986L338.204 428.904L330.306 429.265L322.411 428.901L314.512 429.379L306.617 428.796L298.719 429.173L290.82 429.071L282.925 429.34L275.026 428.842L267.128 429.232L259.229 428.862L251.331 429.153L243.436 429.199L235.537 428.934L227.639 429.255L219.74 429.186L211.842 429.156L203.943 428.799L196.045 429.114L188.146 428.894L180.248 428.914L172.349 428.878L164.451 429.186L156.552 428.819L148.654 428.829L140.752 429.094L132.854 429.209L124.955 428.976L117.053 429.199L109.155 428.796L101.174 429.189L101.201 421.215L101.528 413.317L101.05 405.422L101.476 397.526L101.243 389.628L101.535 381.733L101.243 373.834L101.577 365.939L101.522 358.044L101.106 350.145L101.335 342.25L100.935 334.355L101.404 326.46L101.237 318.565L101.152 310.669L101.011 302.771L101.509 294.876L101.217 286.98L101.394 279.085L101.214 271.187L101.378 263.292L101.102 255.396L101.063 247.498L101.325 239.603L101.204 231.704L101.312 223.809L101.433 215.914L101.518 208.015L101.073 200.12L101.535 192.222L101.433 184.323L101.309 176.428L101.446 168.529L101.305 160.631L101.014 152.736L101.581 144.837L100.978 136.942L101.155 129.043L101.286 121.145L101.263 113.246L101.23 105.348L101.486 97.4528L100.978 89.5543L101.312 81.6526L101.296 73.7934L109.148 73.7737L117.047 74.0751L124.945 73.4756L132.84 73.7115L140.739 73.5477L148.637 73.5444L156.533 73.5346L164.431 73.8687L172.326 73.5739L180.225 73.4396L188.123 74.0391L196.022 74.0686L203.917 73.6132L211.816 74.0718L219.711 73.4494L227.609 73.623L235.508 73.7803L243.406 74.0129L251.305 73.6787L259.2 73.9244L267.098 73.6296L274.997 73.492L282.892 73.7115L290.791 73.587L298.689 73.6427L306.584 73.7475L314.483 74.0161L322.378 73.6099L330.276 73.5706L338.172 73.8458L346.07 73.741L353.969 73.6066L361.864 73.7803L369.762 74.0391L377.661 73.7672L385.556 73.9277L393.454 73.4527L401.353 73.456L409.251 73.4428L417.147 73.8786L425.045 73.6689L432.944 73.813L440.842 73.5116L448.741 73.6754L456.639 74.062L464.538 73.6132L472.436 73.6492L480.335 73.587L488.233 73.6394L496.132 73.7475L504.03 73.8327L511.929 73.9834L519.827 73.6722L527.725 73.7115L535.627 73.9113L543.526 73.7082L551.424 73.5444L559.326 73.4592L567.041 73.9408L567.28 81.6493L567.1 89.5445L567.149 97.443L567.532 105.338L567.46 113.233L567.057 121.132L567.398 129.027L567.015 136.926L567.414 144.821L567.477 152.716L567.333 160.614L566.992 168.51L567.067 176.405L567.149 184.3L567.496 192.195L566.943 200.091L566.907 207.986L567.362 215.884L567.447 223.779L566.962 231.675L567.251 239.573L567.133 247.468L567.192 255.364L567.464 263.262L567.421 271.157L567.07 279.056L567.008 286.951L566.907 294.846L567.434 302.745L567.274 310.643L567.031 318.538L567.395 326.437L567.202 334.335L567.372 342.231L567.12 350.129L567.519 358.027L567.136 365.923L567.146 373.821L567.012 381.716L567.339 389.615L567.087 397.513L567.388 405.412L567.283 413.31L566.92 421.209L567.166 429.048Z" stroke="#392396" stroke-width="1.5" stroke-miterlimit="10"/>
<path d="M101.249 398.342L107.807 393.995L114.264 389.504L120.78 385.094L127.142 380.452L133.852 376.337L140.528 372.174L147.188 367.983L153.74 363.623L160.469 359.544L167.126 355.338L174.055 351.6L180.692 347.354L187.565 343.521L194.592 339.957L201.459 336.121L208.375 332.37L215.32 328.675L222.285 325.018L229.2 321.261L236.178 317.621L243.261 314.188L250.406 310.886L257.335 307.135L264.47 303.819L271.759 300.828L278.862 297.438L286.17 294.509L293.338 291.256L300.509 288.009L307.835 285.126L315.009 281.877L322.495 279.406L329.64 276.068L337.191 273.782L344.402 270.594L351.933 268.278L359.399 265.795L366.731 262.915L374.302 260.743L381.719 258.096L389.345 256.127L396.821 253.66L404.294 251.154L412.012 249.529L419.491 247.033L427.141 245.165L434.813 243.403L442.571 242.014L450.237 240.238L457.896 238.423L465.621 236.907L473.405 235.734L481.08 233.922L488.884 232.88L496.628 231.429L504.448 230.495L512.298 229.834L520.124 229.005L527.941 228.091L535.797 227.599L543.636 226.882L551.489 226.338L559.361 226.171L567.227 225.86" stroke="#392396" stroke-width="1.5" stroke-miterlimit="10"/>
<path d="M331.868 73.6887L335.94 80.3947L339.246 87.5135L342.741 94.5177L346.132 101.577L349.735 108.552L352.831 115.756L355.462 123.147L358.187 130.492L361.133 137.751L364.065 145.021L366.653 152.418L369.247 159.812L371.37 167.363L373.837 174.8L375.901 182.361L378.194 189.85L380.821 197.244L382.925 204.795L384.91 212.376L386.64 220.022L388.962 227.518L390.823 235.131L392.54 242.777L394.175 250.44L396.078 258.04L397.693 265.709L399.511 273.333L400.694 281.087L402.42 288.733L403.819 296.445L405.611 304.081L406.745 311.839L408.392 319.505L409.418 327.282L410.61 335.023L412.271 342.696L413.329 350.463L414.217 358.25L415.433 365.992L416.52 373.753L417.804 381.487L419.059 389.228L419.593 397.061L420.963 404.79L421.847 412.577L422.437 420.4L423.58 428.161" stroke="#392396" stroke-width="1.5" stroke-miterlimit="10"/>
<path d="M378.208 320.517L377.811 312.556L374.201 305.408L367.934 300.402L360.193 298.276L352.19 297.949L344.16 299.013L340.789 306.217L337.768 313.474L335.901 321.117L334.676 328.878L333.749 336.684L333.12 344.527L332.222 352.092L330.237 359.466L327.207 366.535L322.384 372.534L317.913 378.781L313.696 384.937L318.352 389.065L325.067 390.68L331.947 391.748L331.495 399.617L331.02 407.44L331.21 415.276L331.764 423.119L333.644 430.765L336.91 437.936L342.886 442.9L350.375 444.977L357.932 446.218L361.795 452.741L362.348 460.498L360.615 468.128L358.588 475.686L355.836 483.018L352.573 489.933L359.728 492.616L366.958 495.316L374.26 497.812L381.428 500.685L388.661 503.375L396.062 505.596L403.374 508.073L410.545 511.149L418.457 508.04L426.378 505.134L434.254 502.114L442.172 499.201L450.113 496.354L457.717 492.895L452.102 487.657L447.669 481.046L443.82 474.087L441.088 466.598L439.761 458.733L439.577 450.778L440.354 442.87L442.198 435.148L444.622 426.664" fill="white"/>
<path d="M378.208 320.517L377.811 312.556L374.201 305.408L367.934 300.402L360.193 298.276L352.19 297.949L344.16 299.013L340.789 306.217L337.768 313.474L335.901 321.117L334.676 328.878L333.749 336.684L333.12 344.527L332.222 352.092L330.237 359.466L327.207 366.535L322.384 372.534L317.913 378.781L313.696 384.937L318.352 389.065L325.067 390.68L331.947 391.748L331.495 399.617L331.02 407.44L331.21 415.276L331.764 423.119L333.644 430.765L336.91 437.936L342.886 442.9L350.375 444.977L357.932 446.218L361.795 452.741L362.348 460.498L360.615 468.128L358.588 475.686L355.836 483.018L352.573 489.933L359.728 492.616L366.958 495.316L374.26 497.812L381.428 500.685L388.661 503.375L396.062 505.596L403.374 508.073L410.545 511.149L418.457 508.04L426.378 505.134L434.254 502.114L442.172 499.201L450.113 496.354L457.717 492.895L452.102 487.657L447.669 481.046L443.82 474.087L441.088 466.598L439.761 458.733L439.577 450.778L440.354 442.87L442.198 435.148L444.622 426.664" stroke="#392396" stroke-width="1.5" stroke-miterlimit="10"/>
<path d="M396.883 271.852L389.119 271.967L381.502 273.496L374.046 275.646L366.862 278.587L360.248 282.627L354.033 287.23L348.958 293.058L344.149 299.269L352.274 301.818L357.912 307.993L361.882 315.361L365.469 322.915L370.701 329.457L377.715 334.191L376.89 341.405L375.71 348.439L375.163 355.554L374.744 362.421L380.339 357.35L387.157 353.661L394.747 352.059L401.496 356.16L404.759 363.721L404.012 371.79L400.484 379.001L395.917 385.592L390.521 391.574L384.952 397.173L387.861 404.527L392.389 411.283L398.19 416.973L404.936 421.474L412.356 424.721L420.186 426.834L428.271 427.276L436.356 427.26L444.435 426.591L447.069 419.433L450.338 412.541L453.762 405.713L458.092 399.41L461.342 392.459L465.156 385.844L468.356 378.906L470.797 371.662L472.766 364.278L474.459 356.835L476.137 348.953L477.038 340.927L476.255 332.891L475.662 324.897L474.112 316.999L470.97 309.595L467.396 302.381L462.669 295.852L456.929 290.178L450.751 284.972L443.704 281.008L436.454 277.487L428.818 274.859L420.919 273.231L412.998 271.695L404.929 271.465L396.883 271.852Z" fill="#392396"/>
<path d="M396.883 271.852L389.119 271.967L381.502 273.496L374.046 275.646L366.862 278.587L360.248 282.627L354.033 287.23L348.958 293.058L344.149 299.269L352.274 301.818L357.912 307.993L361.882 315.361L365.469 322.915L370.701 329.457L377.715 334.191L376.89 341.405L375.71 348.439L375.163 355.554L374.744 362.421L380.339 357.35L387.157 353.661L394.747 352.059L401.496 356.16L404.759 363.721L404.012 371.79L400.484 379.001L395.917 385.592L390.521 391.574L384.952 397.173L387.861 404.527L392.389 411.283L398.19 416.973L404.936 421.474L412.356 424.721L420.186 426.834L428.271 427.276L436.356 427.26L444.435 426.591L447.069 419.433L450.338 412.541L453.762 405.713L458.092 399.41L461.342 392.459L465.156 385.844L468.356 378.906L470.797 371.662L472.766 364.278L474.459 356.835L476.137 348.953L477.038 340.927L476.255 332.891L475.662 324.897L474.112 316.999L470.97 309.595L467.396 302.381L462.669 295.852L456.929 290.178L450.751 284.972L443.704 281.008L436.454 277.487L428.818 274.859L420.919 273.231L412.998 271.695L404.929 271.465L396.883 271.852Z" stroke="#392396" stroke-width="1.5" stroke-miterlimit="10"/>
<path d="M101.15 155.953L107.709 160.405L113.687 165.607L119.977 170.426L125.822 175.776L131.787 180.981L137.684 186.269L143.109 192.054L149.055 197.296L154.559 202.993L159.883 208.857L165.141 214.777L170.861 220.274L175.788 226.485L181.239 232.241L186.183 238.426L191.008 244.703L195.988 250.859L200.8 257.146L205.593 263.452L210.242 269.866L214.559 276.507L219.09 283.003L222.94 289.939L227.234 296.589L231.516 303.259L234.89 310.447L238.828 317.313L242.366 324.396L246.245 331.308L249.439 338.558L252.411 345.9L255.477 353.195L258.694 360.435L261.567 367.819L263.759 375.439L266.429 382.896L268.437 390.558L270.458 398.208L272.83 405.779L274.357 413.553L275.821 421.333L277.371 429.101" stroke="#392396" stroke-width="1.5" stroke-miterlimit="10"/>
<path d="M118.084 429.078L121.459 422.028L124.597 414.883L127.781 407.754L130.917 400.59L134.94 393.877L138.435 386.889L142.468 380.2L146.18 373.327L149.842 366.417L153.993 359.797L158.285 353.271L162.416 346.64L167.009 340.314L171.32 333.805L175.778 327.394L180.368 321.081L184.84 314.676L189.548 308.445L194.15 302.132L199.205 296.173L204.205 290.175L208.732 283.786L213.77 277.814L219.173 272.16L224.539 266.482L229.407 260.353L234.75 254.653L240.424 249.274L245.797 243.606L251.517 238.282L256.988 232.71L262.744 227.432L268.283 221.922L273.905 216.49L280.12 211.73L285.853 206.42L291.737 201.283L297.836 196.399L304.117 191.75L309.925 186.495L316.136 181.755L322.518 177.244L328.805 172.605L335.304 168.267L341.748 163.858L348.222 159.488L354.761 155.219L361.512 151.281L368.146 147.167L374.63 142.796L381.441 138.967L388.156 134.97L395.216 131.599L401.86 127.458L408.861 123.985L415.799 120.395L422.768 116.86L429.818 113.486L437.123 110.678L444.173 107.31L451.236 103.959L458.45 100.958L465.706 98.0623L472.959 95.1433L480.324 92.5291L487.718 90.0065L495.023 87.2252L502.444 84.778L510.021 82.819L517.389 80.2112L524.809 77.7444L532.341 75.6608L539.911 73.7214" stroke="#392396" stroke-width="1.5" stroke-miterlimit="10"/>
<path d="M295.694 294.859L287.858 295.161L280.015 294.607L272.172 295.171L264.329 294.863L256.483 295.118L248.644 294.899L240.798 294.961L232.955 294.915L225.112 294.627L217.269 295.013L209.423 295.177L201.581 294.977L193.738 294.692L185.892 294.61L178.049 295.059L170.206 295.122L162.36 294.836L154.514 295.085L146.671 295.19L138.825 294.895L130.982 295.023L123.136 294.856L115.293 295.085L107.451 294.689L99.6046 295.167L91.7618 295.007L83.9157 295.187L76.0696 294.689L68.2235 294.83L60.3775 294.633L52.5314 294.948L44.5412 295.013L44.7443 287.144L44.6886 279.423L44.8459 271.705L44.6264 263.98L44.8655 256.258L44.859 248.536L44.5576 240.818L44.6133 233.093L44.9507 225.372L44.5117 217.65L44.456 209.929L44.7836 202.207L44.8917 194.485L44.6886 186.761L44.5543 179.039L44.8557 171.317L44.5445 163.596L44.5281 155.874L44.9147 148.153L44.4495 140.428L44.9605 132.706L44.4953 124.981L44.9441 117.26L44.6559 109.535L44.7115 101.836L52.5281 102.046L60.3709 101.774L68.2137 101.849L76.0565 101.509L83.8993 101.99L91.7421 101.551L99.5882 101.64L107.431 102.102L115.274 101.745L123.117 101.938L130.963 101.902L138.805 101.577L146.648 101.522L154.491 101.826L162.337 101.941L170.18 101.974L178.026 101.62L185.869 101.869L193.715 101.82L201.558 101.708L209.404 101.823L217.246 101.702L225.093 102.007L232.935 102.125L240.781 102.075L248.624 101.663L256.47 101.823L264.316 102.102L272.162 101.577L280.008 101.587L287.855 102.03L295.579 101.935L296.002 109.532L295.461 117.25L295.819 124.972L295.805 132.696L295.458 140.418L295.488 148.136L295.53 155.858V163.579L295.936 171.301L295.953 179.026L295.766 186.747L295.524 194.469L295.861 202.191L295.386 209.915L295.442 217.637L295.838 225.359L295.923 233.08L295.376 240.802L295.393 248.523L296.022 256.248L295.619 263.97L295.645 271.695L295.389 279.416L295.697 287.141L295.694 294.859Z" fill="#392396"/>
<path d="M295.694 294.859L287.858 295.161L280.015 294.607L272.172 295.171L264.329 294.863L256.483 295.118L248.644 294.899L240.798 294.961L232.955 294.915L225.112 294.627L217.269 295.013L209.423 295.177L201.581 294.977L193.738 294.692L185.892 294.61L178.049 295.059L170.206 295.122L162.36 294.836L154.514 295.085L146.671 295.19L138.825 294.895L130.982 295.023L123.136 294.856L115.293 295.085L107.451 294.689L99.6046 295.167L91.7618 295.007L83.9157 295.187L76.0696 294.689L68.2235 294.83L60.3775 294.633L52.5314 294.948L44.5412 295.013L44.7443 287.144L44.6886 279.423L44.8459 271.705L44.6264 263.98L44.8655 256.258L44.859 248.536L44.5576 240.818L44.6133 233.093L44.9507 225.372L44.5117 217.65L44.456 209.929L44.7836 202.207L44.8917 194.485L44.6886 186.761L44.5543 179.039L44.8557 171.317L44.5445 163.596L44.5281 155.874L44.9147 148.153L44.4495 140.428L44.9605 132.706L44.4953 124.981L44.9441 117.26L44.6559 109.535L44.7115 101.836L52.5281 102.046L60.3709 101.774L68.2137 101.849L76.0565 101.509L83.8993 101.99L91.7421 101.551L99.5882 101.64L107.431 102.102L115.274 101.745L123.117 101.938L130.963 101.902L138.805 101.577L146.648 101.522L154.491 101.826L162.337 101.941L170.18 101.974L178.026 101.62L185.869 101.869L193.715 101.82L201.558 101.708L209.404 101.823L217.246 101.702L225.093 102.007L232.935 102.125L240.781 102.075L248.624 101.663L256.47 101.823L264.316 102.102L272.162 101.577L280.008 101.587L287.855 102.03L295.579 101.935L296.002 109.532L295.461 117.25L295.819 124.972L295.805 132.696L295.458 140.418L295.488 148.136L295.53 155.858V163.579L295.936 171.301L295.953 179.026L295.766 186.747L295.524 194.469L295.861 202.191L295.386 209.915L295.442 217.637L295.838 225.359L295.923 233.08L295.376 240.802L295.393 248.523L296.022 256.248L295.619 263.97L295.645 271.695L295.389 279.416L295.697 287.141L295.694 294.859Z" stroke="#392396" stroke-width="1.5" stroke-miterlimit="10"/>
<path d="M251.765 114.233L257.423 120.208L263.52 125.751L269.331 131.576L275.081 137.466L280.653 143.533" stroke="white" stroke-width="1.5" stroke-miterlimit="10"/>
<path d="M251.563 143.18L257.352 137.335L263.321 131.668L269.06 125.771L274.97 120.038L280.801 114.233" stroke="white" stroke-width="1.5" stroke-miterlimit="10"/>
<path d="M222.485 497.406C223.907 492.42 225.712 485.658 227.134 480.672C227.933 477.874 228.814 474.936 230.927 472.94C232.831 471.139 235.461 470.372 237.777 469.14C242.714 466.519 246.226 461.674 248.143 456.416C250.059 451.158 250.505 445.481 250.472 439.885C250.429 433.599 248.506 425.717 243.733 421.612C244.13 429.631 243.268 437.605 242.967 445.386C244.556 416.485 243.114 400.576 244.13 371.646C244.457 362.309 243.042 359.007 240.759 359.01C238.744 359.01 235.776 361.326 234.862 368.091C232.729 383.839 232.713 388.137 231.949 404.01C229.851 403.636 227.695 403.733 225.638 404.292C223.581 404.852 221.674 405.861 220.054 407.246C219.163 408.02 218.269 408.953 217.106 409.078C216.428 409.15 215.759 408.934 215.091 408.789C213.726 408.505 212.317 408.514 210.956 408.818C209.596 409.122 208.316 409.713 207.202 410.552C204.768 412.416 203.104 415.499 200.139 416.278C198.033 416.835 195.595 417.487 193.744 418.631C191.694 419.895 191.451 422.732 191.451 425.14C191.409 437.15 191.428 448.354 191.71 460.361C171.821 494.877 151.933 530.336 132.047 564.866C132.047 564.866 194.242 511.293 222.508 497.419" fill="white"/>
<path d="M222.485 497.406C223.907 492.42 225.712 485.658 227.134 480.672C227.933 477.874 228.814 474.936 230.927 472.94C232.831 471.139 235.461 470.372 237.777 469.14C242.714 466.519 246.226 461.674 248.143 456.416C250.059 451.158 250.505 445.481 250.472 439.885C250.429 433.599 248.506 425.717 243.733 421.612C244.13 429.631 243.268 437.605 242.967 445.386C244.556 416.485 243.114 400.576 244.13 371.646C244.457 362.309 243.042 359.007 240.759 359.01C238.744 359.01 235.776 361.326 234.862 368.091C232.729 383.839 232.713 388.137 231.949 404.01C229.851 403.636 227.695 403.733 225.638 404.292C223.581 404.852 221.674 405.861 220.054 407.246C219.163 408.02 218.269 408.953 217.106 409.078C216.428 409.15 215.759 408.934 215.091 408.789C213.726 408.505 212.317 408.514 210.956 408.818C209.596 409.122 208.316 409.713 207.202 410.552C204.768 412.416 203.104 415.499 200.139 416.278C198.033 416.835 195.595 417.487 193.744 418.631C191.694 419.895 191.451 422.732 191.451 425.14C191.409 437.15 191.428 448.354 191.71 460.361C171.821 494.877 151.933 530.336 132.047 564.866C132.047 564.866 194.242 511.293 222.508 497.419" stroke="#392396" stroke-width="1.5" stroke-miterlimit="10"/>
<path d="M600.567 592.967L600.639 585.131L600.78 577.134L599.981 569.157L599.761 561.167L599.352 553.187L598.716 545.223L597.579 537.314L596.521 529.396L594.749 521.612L592.832 513.835L589.501 506.546L585.049 499.932L579.85 493.933L573.717 488.809L566.49 485.396L559.014 482.618L551.299 480.577L543.374 479.099L535.401 477.963L527.371 477.058L519.292 477.085L511.24 477.733L503.214 478.621L495.282 480.151L487.341 481.678L479.587 483.961L471.829 486.212L464.15 488.718L456.206 490.307L448.452 492.544L440.54 494.14L432.674 495.984L424.635 496.754L416.606 497.628L408.524 497.848L400.769 497.376L393.09 496.246L385.369 495.361L377.814 493.524L370.584 490.654L363.252 488.121L355.95 485.494L348.582 483.07L341.198 480.695L333.539 479.46L325.87 478.346L318.128 477.753L310.358 477.746L302.603 478.28L294.944 479.633L287.186 480.239L279.714 482.271L272.231 484.148L264.844 486.395L257.646 489.196L250.524 492.18L243.481 495.358L236.68 499.024L229.794 502.533L223.297 506.729L216.5 510.412L210 514.588L203.681 519.034L197.364 523.476L191.061 527.935L184.811 532.472L178.747 537.259L172.614 541.95L166.517 546.69L160.64 551.703L154.55 556.456L148.941 561.78L142.907 566.612L137.141 571.748L131.438 576.954L125.963 582.405L120.561 587.925L114.854 593.39L122.687 593.4L130.524 592.859L138.357 592.853L146.193 593.242L154.026 593.295L161.862 593.364L169.695 592.977L177.528 592.866L185.364 593.272L193.197 593.292L201.034 593.174L208.866 593.029L216.703 593.242L224.536 593.364L232.372 592.98L240.205 593.285L248.041 593.337L255.874 592.954L263.71 593.334L271.543 593.354L279.38 592.912L287.212 593.393L295.049 593.072L302.882 592.885L310.718 592.876L318.551 592.905L326.387 593.351L334.223 593.341L342.056 593.393L349.889 593.161L357.722 593.423L365.555 593.128L373.392 593.246L381.225 593.324L389.061 592.967L396.894 592.862L404.73 593.38L412.563 592.938L420.399 592.944L428.232 593.331L436.068 593.193H443.905L451.738 593.115L459.574 593.216L467.407 593.295L475.243 593.075L483.079 593.308L490.915 593.426L498.752 593.239L506.585 592.882L514.421 593.298L522.257 593.436L530.093 593.406L537.926 593.062L545.763 593.049L553.599 593.026L561.435 593.452L569.271 593.016L577.108 592.892L584.947 593.41L592.783 593.213L600.567 592.967Z" fill="#BAE8E8"/>
<path d="M594.114 586.933L594.074 579.234L594.245 571.238L594.12 563.244L593.344 555.274L592.797 547.303L592.407 539.316L591.231 531.411L589.868 523.549L588.446 515.689L586.006 508.089L583.034 500.682L578.694 493.999L573.678 487.784L567.054 483.326L560.086 479.493L552.554 476.901L544.977 474.333L537.029 472.865L529.042 471.581L520.96 471.345L512.895 471.466L504.826 471.732L496.819 472.806L488.842 474.097L481.016 476.099L473.14 477.91L465.366 480.109L457.69 482.638L449.9 484.774L442.005 486.487L434.231 488.708L426.29 490.228L418.241 490.962L410.188 491.45L402.123 491.755L394.362 491.529L386.676 490.405L378.981 489.376L371.439 487.519L364.163 484.797L356.72 482.552L349.651 479.312L342.175 477.186L334.833 474.628L327.164 473.363L319.472 472.361L311.724 471.791L303.963 472.181L296.219 472.626L288.549 473.822L280.802 474.48L273.323 476.433L265.853 478.343L258.371 480.308L251.275 483.388L244.1 486.241L237.122 489.56L230.39 493.35L223.638 497.085L216.801 500.679L210.144 504.594L203.609 508.715L197.371 513.278L190.872 517.455L184.611 521.979L178.459 526.644L172.234 531.221L166.216 536.063L159.995 540.646L153.944 545.455L148.057 550.458L142.465 555.801L136.558 560.777L130.622 565.727L125.282 571.333L119.648 576.607L113.774 581.636L108.395 587.395L116.283 586.926L124.119 587.467L131.952 587.11L139.785 587.123L147.622 587.47L155.455 587.441L163.291 587.402L171.124 587.398L178.957 586.995L186.793 586.979L194.626 587.162L202.462 587.405L210.295 587.067L218.131 587.546L225.964 587.487L233.801 587.094L241.634 587.005L249.47 587.555L257.303 587.539L265.139 586.907L272.972 587.313L280.808 587.287L288.641 587.539L296.477 587.231L304.314 587.048L312.147 586.979L319.983 587.058L327.816 587.47L335.649 587.254L343.485 587.094L351.318 587.31L359.151 587.094L366.987 587.447L374.82 586.926L382.656 586.913L390.489 587.29L398.322 587.313L406.159 587.343L413.992 587.018L421.828 586.999L429.664 587.159L437.497 587.202L445.333 587.398L453.166 587.015L461.002 587.464L468.839 587.143L476.675 587.464L484.508 587.48L492.344 586.989L500.18 587.067L508.017 587.51L515.853 587.195L523.689 586.979L531.522 586.94L539.358 587.153L547.195 587.041L555.031 587.169L562.867 587.189L570.703 587.411L578.54 587.022L586.376 587.028L594.114 586.933Z" stroke="#392396" stroke-width="1.5" stroke-miterlimit="10"/>
<path d="M267.897 198.226L262.268 203.95L256.414 209.453L250.206 214.557L244.021 219.694L237.564 224.494L230.606 228.546L223.847 232.913L216.765 236.752L209.338 239.868L201.823 242.757L194.055 244.87L186.153 246.338L178.229 247.671L170.193 248.264L162.134 247.934L154.193 246.567L146.33 244.874L138.631 242.558L131.146 239.632L123.699 236.585L116.607 232.785L109.531 228.949L102.861 224.438L96.4396 219.593L89.9334 214.856L83.8662 209.568L78.0021 204.064L72.3379 198.351L77.9333 192.562L83.804 187.059L90.0415 181.977L96.1873 176.772L102.942 172.382L109.59 167.851L116.554 163.818L123.686 160.09L131.051 156.847L138.52 153.82L146.307 151.74L154.13 149.784L162.176 149.237L170.193 148.801L178.245 148.847L186.232 149.912L194.058 151.815L201.865 153.813L209.21 157.139L216.787 159.9L223.805 163.861L230.891 167.697L237.521 172.264L244.106 176.896L250.416 181.889L256.355 187.317L262.521 192.493L267.897 198.226Z" fill="white"/>
<path d="M267.897 198.226L262.268 203.95L256.414 209.453L250.206 214.557L244.021 219.694L237.564 224.494L230.606 228.546L223.847 232.913L216.765 236.752L209.338 239.868L201.823 242.757L194.055 244.87L186.153 246.338L178.229 247.671L170.193 248.264L162.134 247.934L154.193 246.567L146.33 244.874L138.631 242.558L131.146 239.632L123.699 236.585L116.607 232.785L109.531 228.949L102.861 224.438L96.4396 219.593L89.9334 214.856L83.8662 209.568L78.0021 204.064L72.3379 198.351L77.9333 192.562L83.804 187.059L90.0415 181.977L96.1873 176.772L102.942 172.382L109.59 167.851L116.554 163.818L123.686 160.09L131.051 156.847L138.52 153.82L146.307 151.74L154.13 149.784L162.176 149.237L170.193 148.801L178.245 148.847L186.232 149.912L194.058 151.815L201.865 153.813L209.21 157.139L216.787 159.9L223.805 163.861L230.891 167.697L237.521 172.264L244.106 176.896L250.416 181.889L256.355 187.317L262.521 192.493L267.897 198.226Z" stroke="#392396" stroke-width="1.5" stroke-miterlimit="10"/>
<path d="M218.091 191.147L217.521 198.898L214.937 206.204L212.175 213.437L207.536 219.649L201.98 225.005L195.847 229.735L188.686 232.681L181.269 234.807L173.57 235.167L165.878 234.771L158.298 233.11L151.536 229.313L144.886 225.332L139.857 219.432L135.444 213.159L131.68 206.394L129.783 198.869L129.082 191.147L129.567 183.717L131.555 176.543L134.776 169.866L138.92 163.75L143.926 158.318L149.849 153.909L156.384 150.498L164.856 149.119L173.57 149.594L181.584 149.476L189.548 150.351L196.768 153.696L202.989 157.873L208.309 163.199L212.375 169.539L215.543 176.359L217.25 183.678L218.091 191.147Z" fill="#FFD803"/>
<path d="M214.711 189.263L214.145 197.011L211.56 204.317L208.798 211.55L204.162 217.765L198.603 223.118L192.47 227.851L185.309 230.797L177.892 232.923L170.193 233.283L162.501 232.887L154.921 231.222L148.159 227.429L141.509 223.445L136.48 217.548L132.067 211.272L128.303 204.51L126.406 196.982L125.705 189.263L126.246 181.512L128.395 174.049L131.874 167.137L136.355 160.867L141.761 155.376L148.116 151.022L155.098 147.789L162.518 145.741L170.193 145.211L177.886 145.636L185.397 147.491L192.221 151.107L198.741 155.238L204.346 160.605L208.657 167.055L212.012 174.043L213.833 181.568L214.711 189.263Z" stroke="#392396" stroke-width="1.5" stroke-miterlimit="10"/>
<path d="M189.06 189.263L187.71 196.516L183.206 202.276L177.244 206.285L170.194 208.313L163.055 206.495L156.988 202.466L153.171 196.313L151.468 189.263L152.716 182.023L156.772 175.841L162.957 171.796L170.194 170.773L177.355 171.976L183.533 175.92L187.425 182.125L189.06 189.263Z" fill="#392396"/>
<path d="M189.06 189.263L187.71 196.516L183.206 202.276L177.244 206.285L170.194 208.313L163.055 206.495L156.988 202.466L153.171 196.313L151.468 189.263L152.716 182.023L156.772 175.841L162.957 171.796L170.194 170.773L177.355 171.976L183.533 175.92L187.425 182.125L189.06 189.263Z" stroke="#392396" stroke-width="1.5" stroke-miterlimit="10"/>
<path d="M516.012 198.246L508.252 198.204L500.389 198.433L492.527 198.672L484.664 198.223L476.802 198.649L468.939 198.62L461.077 198.328L453.214 198.626L445.352 198.564L437.486 198.059L429.624 198.666L421.761 198.407L413.896 198.505L406.03 198.23L397.981 198.535L398.027 190.426L398.253 182.502L398.086 174.574L397.876 166.649L398.004 158.721L397.84 150.796L397.902 142.872L397.866 134.944L398.141 127.019L398.341 119.091L398.298 111.166L398.181 103.242L397.951 95.3137L398.105 87.389L398.177 79.461L398.354 71.533L398.217 63.605L398.42 55.6803L398.03 47.7524L397.981 39.6377L406.03 39.6573L413.892 39.5951L421.755 39.6999L429.617 39.7425L437.48 39.8735L445.342 39.8113L453.205 40.093L461.067 40.0767L468.929 39.808L476.792 40.1062L484.658 39.7065L492.52 40.1455L500.386 40.057L508.248 39.8637L516.265 39.6737L516.235 47.7491L515.826 55.6738L515.983 63.5985L516.137 71.5232L516.209 79.4512L516.363 87.3759L515.845 95.3038L516.199 103.229L516.429 111.156L516.225 119.081L515.845 127.006L515.947 134.934L516.442 142.859L516.042 150.783L516.307 158.711L516.009 166.639L516.091 174.567L515.855 182.492L516.085 190.423L516.012 198.246Z" fill="#FFD803"/>
<path d="M516.012 198.246L508.252 198.204L500.389 198.433L492.527 198.672L484.664 198.223L476.802 198.649L468.939 198.62L461.077 198.328L453.214 198.626L445.352 198.564L437.486 198.059L429.624 198.666L421.761 198.407L413.896 198.505L406.03 198.23L397.981 198.535L398.027 190.426L398.253 182.502L398.086 174.574L397.876 166.649L398.004 158.721L397.84 150.796L397.902 142.872L397.866 134.944L398.141 127.019L398.341 119.091L398.298 111.166L398.181 103.242L397.951 95.3137L398.105 87.389L398.177 79.461L398.354 71.533L398.217 63.605L398.42 55.6803L398.03 47.7524L397.981 39.6377L406.03 39.6573L413.892 39.5951L421.755 39.6999L429.617 39.7425L437.48 39.8735L445.342 39.8113L453.205 40.093L461.067 40.0767L468.929 39.808L476.792 40.1062L484.658 39.7065L492.52 40.1455L500.386 40.057L508.248 39.8637L516.265 39.6737L516.235 47.7491L515.826 55.6738L515.983 63.5985L516.137 71.5232L516.209 79.4512L516.363 87.3758L515.845 95.3038L516.199 103.229L516.429 111.156L516.225 119.081L515.845 127.006L515.947 134.934L516.442 142.859L516.042 150.783L516.307 158.711L516.009 166.639L516.091 174.567L515.855 182.492L516.085 190.423L516.012 198.246Z" stroke="#392396" stroke-width="1.5" stroke-miterlimit="10"/>
<path d="M415.217 92.1653L422.752 92.2079L430.29 92.7255L437.828 92.601L445.366 92.3455L452.904 92.1915L460.443 92.3717L467.981 92.2308L475.519 92.7681L483.06 92.4667L490.598 92.2767L498.14 92.221" stroke="#392396" stroke-width="1.5" stroke-miterlimit="10"/>
<path d="M415.217 75.6509L422.752 75.6967L430.29 76.2111L437.828 76.0899L445.366 75.8343L452.904 75.6804L460.443 75.8573L467.981 75.7197L475.519 76.2537L483.06 75.9523L490.598 75.7655L498.14 75.7098" stroke="#392396" stroke-width="1.5" stroke-miterlimit="10"/>
<path d="M415.217 59.1399L422.752 59.1858L430.29 59.7001L437.828 59.5756L445.366 59.3201L452.904 59.1661L460.443 59.3463L467.981 59.2087L475.519 59.7427L483.06 59.4413L490.598 59.2545L498.14 59.1956" stroke="#392396" stroke-width="1.5" stroke-miterlimit="10"/>
<path d="M415.217 108.677L422.752 108.722L430.29 109.237L437.828 109.112L445.366 108.86L452.904 108.706L460.443 108.883L467.981 108.745L475.519 109.279L483.06 108.978L490.598 108.791L498.14 108.736" stroke="#392396" stroke-width="1.5" stroke-miterlimit="10"/>
<path d="M415.217 125.188L422.752 125.233L430.29 125.748L437.828 125.626L445.366 125.371L452.904 125.217L460.443 125.394L467.981 125.256L475.519 125.79L483.06 125.489L490.598 125.302L498.14 125.246" stroke="#392396" stroke-width="1.5" stroke-miterlimit="10"/>
<path d="M415.217 141.702L422.752 141.748L430.29 142.262L437.828 142.138L445.366 141.882L452.904 141.728L460.443 141.908L467.981 141.768L475.519 142.305L483.06 142.003L490.598 141.813L498.14 141.758" stroke="#392396" stroke-width="1.5" stroke-miterlimit="10"/>
<path d="M415.217 158.213L422.752 158.259L430.29 158.774L437.828 158.649L445.366 158.397L452.904 158.243L460.443 158.42L467.981 158.282L475.519 158.816L483.06 158.515L490.598 158.328L498.14 158.272" stroke="#392396" stroke-width="1.5" stroke-miterlimit="10"/>
<path d="M415.217 174.728L423.142 174.77L431.07 175.285L438.998 175.163L446.926 174.908L454.854 174.754L462.782 174.934L470.713 174.793" stroke="#392396" stroke-width="1.5" stroke-miterlimit="10"/>
<path d="M342.2 442.808C342.2 442.808 363.527 449.225 377.535 420.095L342.2 442.808Z" fill="white"/>
<path d="M342.2 442.808C342.2 442.808 363.527 449.225 377.535 420.095" stroke="#392396" stroke-width="1.5" stroke-miterlimit="10"/>
<path d="M379.921 371.646C379.921 371.646 382.869 357.887 393.451 359.646C400.72 360.858 395.151 385.078 378.774 392.94C370.561 396.871 370.997 386.368 379.757 382.457C385.503 379.892 384.298 374.322 377.562 376.478" fill="white"/>
<path d="M379.921 371.646C379.921 371.646 382.869 357.887 393.451 359.646C400.72 360.858 395.151 385.078 378.774 392.94C370.561 396.871 370.997 386.368 379.757 382.457C385.503 379.892 384.298 374.322 377.562 376.478" stroke="#392396" stroke-width="1.5" stroke-miterlimit="10"/>
<path d="M338.177 356.671C339.387 347.401 337.832 339.555 334.703 339.147C331.574 338.738 328.057 345.921 326.846 355.191C325.636 364.461 327.191 372.307 330.32 372.716C333.448 373.124 336.966 365.941 338.177 356.671Z" fill="#392396" stroke="#392396" stroke-width="1.5" stroke-miterlimit="10"/>
<path d="M336.949 349.605L378.529 359.01" stroke="#392396" stroke-width="1.5" stroke-miterlimit="10"/>
</svg>
