<svg width="63" height="72" viewBox="0 0 63 72" fill="none" xmlns="http://www.w3.org/2000/svg">
<path fill-rule="evenodd" clip-rule="evenodd" d="M14.4378 71.9851C27.5263 68.9807 40.5103 65.4016 53.2853 61.2739C53.9907 61.0388 53.7033 59.9154 52.9719 60.1506C40.1968 64.3044 27.239 67.8835 14.1243 70.8617C13.3929 71.0185 13.7064 72.1418 14.4378 71.9851Z" fill="white"/>
<path fill-rule="evenodd" clip-rule="evenodd" d="M9.76065 55.1084C10.2831 56.702 11.7984 57.747 13.4965 57.5119C13.7316 57.4857 14.019 57.3551 14.0712 57.0677C14.2019 56.3885 14.3586 55.448 14.9072 54.9516C15.7432 54.1679 16.5008 54.7426 17.2323 55.3435C18.0944 56.0489 18.8521 56.7281 20.0016 56.7804C20.2367 56.7804 20.5241 56.5975 20.5763 56.3363C20.6808 55.5003 20.7853 54.5598 21.2555 53.8544C22.2222 52.4437 23.3978 53.2274 24.2076 54.2201C24.8608 55.03 25.7229 55.9444 26.8724 55.7615C28.1525 55.5786 28.3092 54.3769 28.9101 53.4887C29.3803 52.8355 30.0857 52.522 30.8956 52.6527C31.8099 52.8094 32.0973 53.4364 32.5153 54.1679C33.0378 55.0823 33.8999 55.4741 34.9188 55.1084C36.225 54.6381 36.9565 52.6788 38.4718 53.0707C40.3005 53.5409 41.6328 55.9966 43.6967 54.8471C44.3498 54.4814 43.7751 53.4625 43.0958 53.8283C42.0247 54.4291 40.6662 52.9139 39.8041 52.4175C38.942 51.9212 38.0015 51.6338 37.0349 52.0518C36.4079 52.313 35.9899 52.8355 35.4935 53.3058C34.9449 53.8283 34.3963 54.4814 33.5081 53.6193C33.2729 53.4103 33.1946 52.94 33.0117 52.6788C32.4108 51.8689 31.4442 51.4771 30.4515 51.4771C29.4587 51.4771 28.5182 51.9473 27.9435 52.7833C27.4994 53.4625 27.2904 55.03 25.9841 54.4291C25.2788 54.1157 24.8869 53.149 24.3383 52.6265C23.4761 51.8167 22.3005 51.6077 21.2555 52.2347C19.9232 53.0445 19.6097 54.612 19.4007 56.0228C19.5836 55.866 19.7664 55.7354 19.9754 55.5786C18.2773 55.5003 17.4675 53.2797 15.6387 53.358C13.8884 53.4364 13.2352 55.2913 12.9217 56.7281C13.1046 56.5714 13.2875 56.4408 13.4965 56.284C12.3209 56.4408 11.302 55.8921 10.9101 54.7426C10.6489 54.0895 9.52553 54.403 9.76065 55.1084Z" fill="white"/>
<path fill-rule="evenodd" clip-rule="evenodd" d="M0.435135 38.4149C3.90973 39.0157 7.38432 39.1202 10.885 38.7022C11.6165 38.6239 11.6427 37.4483 10.885 37.5266C7.51494 37.9446 4.11872 37.8663 0.748631 37.2915C-0.00898641 37.1348 -0.322483 38.2842 0.435135 38.4149Z" fill="white"/>
<path fill-rule="evenodd" clip-rule="evenodd" d="M34.5008 37.5786C42.1293 37.6831 49.7838 37.7615 57.4122 37.866C58.1699 37.866 58.1699 36.6904 57.4122 36.6904C49.7838 36.5859 42.1293 36.5075 34.5008 36.403C33.7432 36.3769 33.7432 37.5525 34.5008 37.5786Z" fill="white"/>
<path fill-rule="evenodd" clip-rule="evenodd" d="M19.7667 19.657C19.1397 17.6977 21.6738 17.4626 22.7972 18.2985C23.6071 18.8994 23.8944 19.7877 24.5214 20.5191C25.7232 21.9038 26.6637 20.5191 27.4735 19.5787C28.1266 18.821 29.1716 17.8022 30.2689 18.2202C31.2094 18.5859 31.2094 19.6832 31.549 20.4669C32.0715 21.6948 33.2471 22.1911 34.4749 21.6425C36.1208 20.911 37.5838 17.5409 39.3342 19.9705C40.1963 21.1461 40.6926 22.792 42.2601 23.2361C42.861 23.419 43.4619 23.3145 43.9844 22.9749C44.2979 22.7659 44.533 22.4785 44.7681 22.1911C45.3167 21.5903 45.8392 21.5119 46.623 21.9299C47.3283 22.3218 47.6941 23.4712 48.2688 24.046C48.8174 24.5946 49.3922 24.882 50.1498 24.9342C50.9074 24.9865 50.9074 23.8109 50.1498 23.7586C48.5562 23.6541 48.0337 21.0678 46.5185 20.4669C46.0221 20.2579 45.4735 20.2318 44.9771 20.4408C44.324 20.702 44.115 21.329 43.5664 21.6948C41.6593 22.9749 40.7971 19.7354 39.7783 18.6904C38.9423 17.8283 37.7667 17.5671 36.6956 18.1679C35.6244 18.7427 33.4561 22.1128 32.5417 19.9444C32.0715 18.821 31.9931 17.6193 30.6869 17.1491C29.5374 16.7311 28.2834 17.1752 27.369 17.9328C26.8204 18.403 26.3502 19.448 25.6187 19.5264C25.0439 19.6048 25.07 19.2652 24.7565 18.821C24.5475 18.5075 24.3124 18.194 24.0773 17.9328C23.0846 16.8878 21.5955 16.2086 20.1847 16.7833C18.9046 17.3058 18.1209 18.6382 18.5389 19.9967C18.8785 20.6759 20.0018 20.3624 19.7667 19.657Z" fill="white"/>
<path fill-rule="evenodd" clip-rule="evenodd" d="M29.0165 1.18699C31.9424 1.00412 34.2675 2.93735 36.5143 4.50483C39.0745 6.28131 41.8437 7.69205 44.5607 9.18116C50.3081 12.29 56.0294 15.425 61.7769 18.5338C62.43 18.8996 63.0309 17.8807 62.3778 17.515C56.3429 14.2232 50.3081 10.9576 44.2472 7.66593C41.5041 6.17681 38.8132 4.68771 36.253 2.8851C34.0847 1.34374 31.7857 -0.145374 29.0165 0.0113746C28.2588 0.0636241 28.2588 1.23924 29.0165 1.18699Z" fill="white"/>
</svg>
