<svg width="613" height="584" viewBox="0 0 613 584" fill="none" xmlns="http://www.w3.org/2000/svg">
<path d="M568.032 559.557L559.772 559.327L551.65 559.622L543.532 559.944L535.404 559.992L527.286 560.331L519.171 560.823L511.032 560.429L502.924 561.243L494.799 561.254L486.671 561.311L478.549 561.525L470.428 561.752L462.3 561.681L454.188 562.397L446.056 562.241L437.935 562.434L429.81 562.668L421.682 562.546L413.57 563.357L405.442 563.306L397.324 563.669L389.202 563.862L381.077 564.066L372.946 563.91L364.831 564.409L356.709 564.741L348.574 564.31L340.449 564.47L332.338 565.135L324.206 564.853L316.098 565.688L307.97 565.701L299.841 565.732L291.716 565.681L283.602 566.22L275.473 566.156L267.355 566.651L259.237 566.987L251.109 566.953L242.987 567.272L234.862 567.404L226.737 567.489L218.605 567.404L210.494 568.018L202.373 568.245L194.241 568.154L186.119 568.456L177.998 568.788L169.869 568.798L161.738 568.724L153.619 569.199L145.495 569.222L137.38 569.904L129.258 570.094L121.133 570.301L112.998 570.04L104.88 570.451L96.7483 570.491L88.6335 570.997L80.5018 571.017L72.3667 570.813L64.1501 571.428L63.4818 563.18L62.7592 555.032L62.1554 546.876L61.6058 538.717L61.0359 530.559L60.5372 522.393L59.5567 514.268L58.9393 506.112L58.4881 497.947L57.6162 489.812L56.7919 481.673L56.0421 473.528L55.9607 465.328L54.9769 457.203L54.502 449.038L53.7963 440.889L52.7413 432.771L52.1578 424.612L51.9135 416.426L50.906 408.304L50.6413 400.118L49.5727 392L48.8501 383.852L48.3379 375.689L48.0325 367.51L47.2998 359.365L46.5534 351.219L45.5357 343.095L45.4509 334.895L44.8301 326.743L43.7004 318.628L42.9574 310.483L42.798 302.29L41.8413 294.165L41.3053 286.003L40.5861 277.858L39.6464 269.726L39.0323 261.574L38.7372 253.391L38.1401 245.236L37.5905 237.073L36.3862 228.965L35.8909 220.8L35.4838 212.627L34.4525 204.506L33.9912 196.337L33.16 188.198L32.7631 180.026L31.6911 171.908L31.4298 163.722L30.7581 155.569L30.2391 147.407L29.2417 139.279L28.8448 131.106L27.8745 122.978L27.325 114.816L27.0434 106.633L26.3547 98.4811L25.1436 90.3765L24.7535 82.2007L23.7832 74.0724L23.5966 65.8796L22.8741 57.7309L22.0768 49.5856L21.2966 41.4403L20.7673 33.2441L28.9533 32.7251L37.1326 33.0745L45.2914 32.7318L53.4469 32.3383L61.6024 31.7921L69.768 31.7107L77.9371 31.7345L86.0892 31.1136L94.265 31.3206L102.414 30.6353L110.583 30.6998L118.752 30.6421L126.911 30.3028L135.073 30.0925L143.239 29.8822L151.391 29.2919L159.563 29.4004L167.719 28.9119L175.877 28.5896L184.05 28.6473L192.216 28.5455L200.378 28.3047L208.523 27.4837L216.692 27.4498L224.851 27.0495L233.023 27.1445L241.176 26.5304L249.338 26.3303L257.5 26.0385L265.666 25.9096L273.831 25.7671L282 25.7535L290.156 25.2108L298.315 24.9326L306.477 24.7087L314.636 24.3898L322.812 24.5899L330.964 23.9895L339.14 24.176L347.285 23.3585L355.451 23.2737L363.616 23.0972L371.782 23.0328L379.937 22.5443L388.103 22.4493L396.262 22.0659L404.421 21.6792L412.6 21.9133L420.752 21.3094L428.924 21.3942L437.073 20.7463L445.246 20.7768L453.411 20.5699L461.563 20.0033L469.739 20.0813L477.901 19.8201L486.064 19.5216L494.223 19.1993L502.398 19.3214L510.554 18.8261L518.72 18.6294L526.875 18.1578L535.054 18.3817L543.203 17.6184H551.375L559.531 17.1367L567.707 17.1299L576.093 16.6787L576.032 25.0072L575.652 33.0982L575.791 41.1994L575.207 49.2871L575.557 57.3916L575.065 65.4827L575.36 73.5839L575.112 81.6817L574.604 89.7693L574.403 97.8671L574.861 105.972L574.244 114.059L574.658 122.167L574.488 130.262L573.783 138.349L573.847 146.451L574.176 154.552L573.962 162.65L573.945 170.747L573.403 178.838L573.253 186.933L572.941 195.027L572.911 203.128L573.111 211.23L572.914 219.324L573.06 227.425L572.578 235.516L572.67 243.617L572.253 251.712L572.052 259.806L572.49 267.911L571.988 276.005L571.808 284.1L571.547 292.194L571.937 300.295L571.798 308.393L571.425 316.484L571.136 324.582L571.371 332.683L570.997 340.774L571.011 348.875L570.777 356.97L570.801 365.068L570.865 373.169L570.556 381.263L570.18 389.358L570.614 397.462L570.146 405.553L570.373 413.658L569.654 421.745L569.722 429.847L569.905 437.948L569.315 446.039L569.138 454.137L569.25 462.238L569.464 470.342L569.335 478.44L569.25 486.538L569.189 494.636L568.962 502.734L568.579 510.828L568.358 518.926L568.239 527.024L568.589 535.128L568.314 543.226L568.338 551.327L568.032 559.557Z" fill="#E3F6F5"/>
<path d="M29.4568 367.116L36.8931 370.078L44.6686 372.365L52.3729 374.865L60.0364 377.463L67.5066 380.632L75.2075 383.136L82.7931 385.972L90.5143 388.408L98.127 391.169L105.865 393.561L113.502 396.247L121.247 398.622L128.815 401.502L136.509 404.02L144.105 406.829L151.708 409.607L159.476 411.921L167.116 414.597L174.6 417.729L182.27 420.314L189.893 423.048L197.645 425.399L205.264 428.137L213.026 430.46L220.544 433.493L228.245 435.994L235.813 438.877L243.596 441.15L251.096 444.227L258.865 446.531L266.569 449.024L274.162 451.85L281.836 454.425L289.509 457.006L297.186 459.568L304.803 462.316L312.283 465.45L320.021 467.839L327.691 470.434L335.436 472.809L342.964 475.807L350.692 478.233L358.258 481.12L366.047 483.373L373.629 486.216L381.336 488.699L388.912 491.565L396.643 493.984L404.127 497.112L411.801 499.694L419.597 501.926L427.097 505.003L434.836 507.405L442.418 510.251L450.03 513.013L457.836 515.214L465.452 517.959L473.075 520.693L480.654 523.556L488.396 525.938L495.991 528.747L503.747 531.098L511.203 534.31L518.877 536.892L526.52 539.569L534.167 542.232L541.8 544.946L549.497 547.47L557.069 549.746L556.347 541.764L555.353 533.615L554.946 525.409L554.05 517.246L552.835 509.121L552.296 500.925L551.322 492.773L550.824 484.574L550.149 476.394L549.178 468.242L547.957 460.114L547.391 451.921L546.458 443.766L545.755 435.586L544.816 427.431L543.907 419.276L543.577 411.056L542.237 402.941L541.688 394.748L540.914 386.576L540.439 378.376L539.066 370.261L538.801 362.038L537.566 353.913L536.789 345.741L536.294 337.541L535.32 329.392L534.109 321.264L533.909 313.034L532.613 304.916L532.016 296.726L531.029 288.578L530.31 280.398L529.855 272.195L528.434 264.091L527.874 255.895L526.893 247.746L526.167 239.57L525.502 231.384L524.956 223.191L524.034 215.032L523.196 206.867L521.944 198.742L521.448 190.542L520.285 182.407L519.695 174.218L518.779 166.059L517.852 157.9L517.503 149.687L516.261 141.558L515.559 133.379L514.989 125.186L514.392 116.997L513.028 108.882L512.648 100.669L511.434 92.5408L510.779 84.3548L510.158 76.1654L509.208 68.0065L508.36 59.8442L501.603 64.3562L494.807 68.8173L487.86 73.0443L481.132 77.6106L474.025 81.5899L467.288 86.1426L460.618 90.8038L453.447 94.6814L446.719 99.2477L439.819 103.546L433.217 108.312L426.276 112.543L419.284 116.705L412.445 121.099L405.789 125.777L399.015 130.272L391.931 134.288L385.231 138.899L378.239 143.055L371.356 147.383L364.778 152.184L357.813 156.387L350.92 160.695L344.179 165.245L337.279 169.546L330.331 173.773L323.583 178.312L316.622 182.516L309.996 187.245L303.266 191.808L296.396 196.153L289.482 200.431L282.646 204.831L275.828 209.252L268.846 213.424L262.149 218.045L255.086 222.085L248.501 226.875L241.489 231.001L234.677 235.438L227.712 239.638L220.971 244.184L214.18 248.658L207.374 253.106L200.61 257.618L193.57 261.702L186.752 266.126L179.99 270.642L173.056 274.892L166.064 279.055L159.497 283.876L152.691 288.323L145.608 292.34L138.965 297.042L132.133 301.452L125.134 305.601L118.411 310.174L111.554 314.55L104.756 319.008L97.6317 322.96L90.7823 327.343L84.0517 331.909L77.2973 336.438L70.319 340.621L63.4832 345.025L56.5659 349.306L49.9269 354.018L42.9079 358.133L36.2281 362.791L29.4568 367.116Z" stroke="#392396" stroke-width="1.5" stroke-miterlimit="10"/>
<path d="M320.903 0.964721L321.215 9.11341L320.744 17.2553L320.808 25.4006L320.944 33.5459L321.069 41.6912L320.947 49.8365L321.215 57.9818L320.621 66.1271L320.727 74.2724L320.879 82.4177L321.184 90.563L321.025 98.7083L320.76 106.854L321.14 115.002L320.693 123.148L321.137 131.293L320.832 139.438L320.649 147.583L320.747 155.729L320.716 163.874L320.689 172.023L321.035 180.168L320.686 188.317L320.937 196.462L321.018 204.611L320.723 212.797L323.868 220.403L327.131 227.917L330.931 235.197L334.001 242.796L337.411 250.246L340.365 257.889L343.972 265.258L347.198 272.786L350.506 280.276L353.667 287.835L356.839 295.39L359.896 302.996L363.434 310.388L366.732 317.888L369.982 325.409L373.238 332.798L381.248 333.205L389.38 332.846L397.511 333.27L405.64 332.693L413.772 332.853L421.903 332.917L430.035 333.09L438.167 332.842L446.298 332.988L454.434 332.846L462.369 332.781L462.759 324.884L462.396 316.786L462.721 308.688L462.318 300.594L462.586 292.496L462.62 284.398L462.294 276.3L462.613 268.202L462.592 260.108L462.535 252.01L462.453 243.916L462.816 235.815L462.562 227.72L462.606 219.622L462.375 211.525L462.84 203.427L462.318 195.332L462.559 187.235L462.318 179.137L462.552 171.039L462.25 162.941L462.287 154.843L462.548 146.746L462.291 138.648L462.755 130.55L462.287 122.452L462.66 114.354L462.243 106.253L462.372 98.1553L462.765 90.0575L462.847 81.9597L462.267 73.8619L462.765 65.7641L462.236 57.6663L462.287 49.5685L462.871 41.4673L462.687 33.3695L462.24 25.2683L462.335 17.1705L462.233 9.06931L462.63 0.903654L454.233 0.849373L445.902 0.656006L437.57 0.740817L429.238 1.0631L420.906 0.985075L412.571 1.24969L404.239 0.886691L395.907 1.09703L387.575 0.798489L379.243 0.717068L370.911 1.27683L362.579 0.890086L354.244 0.82902L345.909 0.686537L337.577 1.19541L329.242 1.17844L320.903 0.964721Z" fill="#FFD803"/>
<path d="M421.321 580.624L413.209 580.679L405.016 580.431L396.827 580.672L388.634 580.563L380.445 580.753L372.252 580.563L364.059 581.018L355.87 580.601L347.677 580.434L339.488 580.553L331.295 581.004L323.102 580.998L314.909 580.95L306.716 580.417L298.527 580.543L290.334 580.808L282.141 580.967L273.949 580.78L265.756 580.926L257.566 580.373L249.374 580.685L241.181 580.879L232.988 580.936L224.792 580.726L216.599 580.719L208.406 581.028L200.251 580.662L200.213 572.449L200.325 564.195L200.454 555.941L200.064 547.687L199.973 539.433L200.42 531.179L200.366 522.925L200.213 514.671L200.173 506.414L200.529 498.16L200.064 489.907L200.366 481.649L199.901 473.392L200.234 465.159L208.399 465.047L216.592 464.867L224.782 465.257L232.974 465.26L241.164 465.359L249.357 464.87L257.549 465.287L265.739 465.26L273.932 465.281L282.121 465.345L290.314 465.315L298.507 465.019L306.699 465.097L314.892 464.982L323.082 465.155L331.274 465.223L339.467 464.812L347.66 465.128L355.853 465.44L364.042 465.437L372.235 465.45L380.428 465.094L388.621 465.321L396.817 465.423L405.01 465.427L413.202 465.159L421.371 465.165L421.551 473.392L421.249 481.646L421.602 489.9L421.524 498.154L421.185 506.407L421.226 514.661V522.915L421.215 531.169V539.423L421.395 547.68L421.49 555.934L421.405 564.188L421.226 572.445L421.321 580.624Z" fill="white"/>
<path d="M421.321 580.624L413.209 580.679L405.016 580.431L396.827 580.672L388.634 580.563L380.445 580.753L372.252 580.563L364.059 581.018L355.87 580.601L347.677 580.434L339.488 580.553L331.295 581.004L323.102 580.998L314.909 580.95L306.716 580.417L298.527 580.543L290.334 580.808L282.141 580.967L273.949 580.78L265.756 580.926L257.566 580.373L249.374 580.685L241.181 580.879L232.988 580.936L224.792 580.726L216.599 580.719L208.406 581.028L200.251 580.662L200.213 572.449L200.325 564.195L200.454 555.941L200.064 547.687L199.973 539.433L200.42 531.179L200.366 522.925L200.213 514.671L200.173 506.414L200.529 498.16L200.064 489.907L200.366 481.649L199.901 473.392L200.234 465.159L208.399 465.047L216.592 464.867L224.782 465.257L232.974 465.26L241.164 465.359L249.357 464.87L257.549 465.287L265.739 465.26L273.932 465.281L282.121 465.345L290.314 465.315L298.507 465.019L306.699 465.097L314.892 464.982L323.082 465.155L331.274 465.223L339.467 464.812L347.66 465.128L355.853 465.44L364.042 465.437L372.235 465.45L380.428 465.094L388.621 465.321L396.817 465.423L405.01 465.427L413.202 465.159L421.371 465.165L421.551 473.392L421.249 481.646L421.602 489.9L421.524 498.154L421.185 506.407L421.226 514.661V522.915L421.215 531.169V539.423L421.395 547.68L421.49 555.934L421.405 564.188L421.226 572.445L421.321 580.624Z" stroke="#392396" stroke-width="1.5" stroke-miterlimit="10"/>
<path d="M496.426 337.914L496.436 346.371L496.888 354.954L496.891 363.537L496.498 372.12L496.389 380.547L488.481 380.649L480.404 380.907L472.33 380.879L464.256 380.941L456.178 380.571L448.101 380.656L440.027 380.377L431.949 380.425L423.875 380.896L415.798 380.873L407.724 380.791L399.646 380.496L391.572 380.893L383.498 380.859L375.424 380.727L367.35 380.567L359.273 380.744L351.198 380.669L343.121 380.859L335.047 380.432L326.97 380.622L318.895 380.516L310.821 380.873L302.744 380.584L294.667 380.879L286.592 380.564L278.515 380.469L270.441 380.907L262.364 380.751L254.289 380.462L246.212 380.554L238.135 380.55L230.057 380.791L221.98 381.039L213.906 380.571L205.828 381.012L197.751 380.981L189.677 380.683L181.599 380.991L173.522 380.927L165.444 380.401L157.367 381.032L149.289 380.764L141.212 380.866L133.131 380.581L124.857 380.89L124.908 372.124L125.142 363.541L124.969 354.958L124.752 346.375L124.928 337.673L133.128 337.453L141.205 337.517L149.279 337.48L157.353 337.765L165.431 337.968L173.505 337.928L181.582 337.802L189.66 337.568L197.734 337.724L205.808 337.799L213.885 337.985L221.963 337.843L230.037 338.053L238.111 337.649L246.185 337.52L254.259 337.619L262.336 337.554L270.41 337.663L278.488 337.707L286.562 337.843L294.639 337.778L302.713 338.07L310.787 338.053L318.865 337.775L326.942 338.084L335.016 337.67L343.094 338.124L351.168 338.033L359.245 337.833L367.319 337.571L375.397 337.666L383.474 338.09L391.552 337.928L399.629 337.768L407.703 337.693L415.781 337.531L423.858 338.067L431.936 337.704L440.01 337.463L448.087 337.676L456.165 338.07L464.242 337.965L472.32 337.449L480.397 337.863L488.478 337.592L496.426 337.914Z" fill="white"/>
<path d="M496.426 337.914L496.437 346.371L496.888 354.954L496.891 363.537L496.498 372.12L496.389 380.547L488.481 380.649L480.404 380.907L472.33 380.879L464.256 380.941L456.178 380.571L448.101 380.656L440.027 380.377L431.949 380.425L423.875 380.896L415.798 380.873L407.724 380.791L399.646 380.496L391.572 380.893L383.498 380.859L375.424 380.727L367.35 380.567L359.273 380.744L351.198 380.669L343.121 380.859L335.047 380.432L326.97 380.622L318.895 380.516L310.821 380.873L302.744 380.584L294.667 380.879L286.592 380.564L278.515 380.469L270.441 380.907L262.364 380.751L254.289 380.462L246.212 380.554L238.135 380.55L230.057 380.791L221.98 381.039L213.906 380.571L205.828 381.012L197.751 380.981L189.677 380.683L181.599 380.991L173.522 380.927L165.444 380.401L157.367 381.032L149.289 380.764L141.212 380.866L133.131 380.581L124.857 380.89L124.908 372.124L125.142 363.541L124.969 354.958L124.752 346.375L124.928 337.673L133.128 337.453L141.205 337.517L149.279 337.48L157.353 337.765L165.431 337.968L173.505 337.928L181.582 337.802L189.66 337.568L197.734 337.724L205.808 337.799L213.885 337.985L221.963 337.843L230.037 338.053L238.111 337.649L246.185 337.52L254.259 337.619L262.336 337.554L270.41 337.663L278.488 337.707L286.562 337.843L294.639 337.778L302.713 338.07L310.787 338.053L318.865 337.775L326.942 338.084L335.016 337.67L343.094 338.124L351.168 338.033L359.245 337.833L367.319 337.571L375.397 337.666L383.474 338.09L391.552 337.928L399.629 337.768L407.703 337.693L415.781 337.531L423.858 338.067L431.936 337.704L440.01 337.463L448.087 337.676L456.165 338.07L464.242 337.965L472.32 337.449L480.397 337.863L488.478 337.592L496.426 337.914Z" stroke="#392396" stroke-width="1.5" stroke-miterlimit="10"/>
<path d="M161.407 439.912L154.249 438.555L148.98 433.327L147.267 426.152L149.564 417.281L156.098 410.856L164.928 408.237L173.386 410.133L180.527 414.954L185.015 422.234L186.745 430.552L185.358 438.976L181.894 446.873L175.414 452.556L167.951 456.786L159.429 457.848L151.745 457.329L144.587 454.496L137.934 450.629L132.418 445.214L128.273 438.68L125.837 431.343L125.08 423.676L125.772 415.272L128.486 407.3L132.52 399.956L137.534 393.188L143.983 387.699L151.653 384.153L159.65 381.589L168.022 380.849L176.181 380.798L184.336 380.863L192.495 381.005L200.654 380.408L208.81 380.517L216.969 380.842L225.127 380.646L233.286 380.49L241.442 380.615L249.601 380.751L257.759 380.798L265.915 381.009L274.074 380.903L282.233 380.792L290.392 380.456L298.55 380.941L306.709 380.557L314.868 380.948L323.027 380.408L331.186 380.635L339.345 380.398L347.504 380.51L355.666 380.551L363.825 380.805L371.984 380.619L380.143 380.961L388.301 380.395L396.46 380.686L404.619 380.995L412.781 380.384L420.94 380.876L429.099 380.968L437.261 380.734L445.424 380.371L453.586 380.384L462.026 381.239L469.941 384.187L477.499 387.885L484.006 393.255L489.373 399.762L493.237 407.253L495.405 415.357L496.684 423.676L495.992 431.393L492.894 438.467L489.264 445.275L483.406 450.293L477.058 454.578L469.809 457.102L462.179 458.296L453.711 456.613L445.909 452.946L439.945 446.704L435.704 439.155L434.551 430.552L436.373 422.142L441.298 415.171L448.202 410.082L456.68 408.372L465.565 410.761L472.082 417.257L474.287 426.152L472.655 433.344L467.261 438.379L460.198 440.146" fill="white"/>
<path d="M161.407 439.912L154.249 438.555L148.98 433.327L147.267 426.152L149.564 417.281L156.098 410.856L164.928 408.237L173.386 410.133L180.527 414.954L185.015 422.234L186.745 430.552L185.358 438.976L181.894 446.873L175.414 452.556L167.951 456.786L159.429 457.848L151.745 457.329L144.587 454.496L137.934 450.629L132.418 445.214L128.273 438.68L125.837 431.343L125.08 423.676L125.772 415.272L128.486 407.3L132.52 399.956L137.534 393.188L143.983 387.699L151.653 384.153L159.65 381.589L168.022 380.849L176.181 380.798L184.336 380.863L192.495 381.005L200.654 380.408L208.81 380.517L216.969 380.842L225.127 380.646L233.286 380.49L241.442 380.615L249.601 380.751L257.759 380.798L265.915 381.009L274.074 380.903L282.233 380.792L290.392 380.456L298.55 380.941L306.709 380.557L314.868 380.948L323.027 380.408L331.186 380.635L339.345 380.398L347.504 380.51L355.666 380.551L363.825 380.805L371.984 380.619L380.143 380.961L388.301 380.395L396.46 380.686L404.619 380.995L412.781 380.384L420.94 380.876L429.099 380.968L437.261 380.734L445.424 380.371L453.586 380.384L462.026 381.239L469.941 384.187L477.499 387.885L484.006 393.255L489.373 399.762L493.237 407.253L495.405 415.357L496.684 423.676L495.992 431.393L492.894 438.467L489.264 445.275L483.406 450.293L477.058 454.578L469.809 457.102L462.179 458.296L453.711 456.613L445.909 452.946L439.945 446.704L435.704 439.155L434.551 430.552L436.373 422.142L441.298 415.171L448.202 410.082L456.68 408.372L465.565 410.761L472.082 417.257L474.287 426.152L472.655 433.344L467.261 438.379L460.198 440.146" stroke="#392396" stroke-width="1.5" stroke-miterlimit="10"/>
<path d="M224.937 499.463L225.046 507.588L224.72 515.71L224.845 523.831L225.13 531.956L224.737 540.078L225.195 548.203L224.706 556.328L224.896 564.452L224.699 572.577L225.171 580.702" fill="white"/>
<path d="M224.937 499.463L225.046 507.588L224.72 515.71L224.845 523.831L225.13 531.956L224.737 540.078L225.195 548.203L224.706 556.328L224.896 564.452L224.699 572.577L225.171 580.702" stroke="#392396" stroke-width="1.5" stroke-miterlimit="10"/>
<path d="M268.361 499.463L268.469 507.588L268.143 515.71L268.269 523.831L268.554 531.956L268.16 540.078L268.618 548.203L268.13 556.328L268.32 564.452L268.123 572.577L268.595 580.702" fill="white"/>
<path d="M268.361 499.463L268.469 507.588L268.143 515.71L268.269 523.831L268.554 531.956L268.16 540.078L268.618 548.203L268.13 556.328L268.32 564.452L268.123 572.577L268.595 580.702" stroke="#392396" stroke-width="1.5" stroke-miterlimit="10"/>
<path d="M311.784 499.463L311.893 507.588L311.567 515.71L311.693 523.831L311.977 531.956L311.584 540.078L312.042 548.203L311.553 556.328L311.743 564.452L311.547 572.577L312.018 580.702" fill="white"/>
<path d="M311.784 499.463L311.893 507.588L311.567 515.71L311.693 523.831L311.977 531.956L311.584 540.078L312.042 548.203L311.553 556.328L311.743 564.452L311.547 572.577L312.018 580.702" stroke="#392396" stroke-width="1.5" stroke-miterlimit="10"/>
<path d="M355.207 499.463L355.316 507.588L354.99 515.71L355.116 523.831L355.401 531.956L355.007 540.078L355.465 548.203L354.977 556.328L355.167 564.452L354.97 572.577L355.442 580.702" fill="white"/>
<path d="M355.207 499.463L355.316 507.588L354.99 515.71L355.116 523.831L355.401 531.956L355.007 540.078L355.465 548.203L354.977 556.328L355.167 564.452L354.97 572.577L355.442 580.702" stroke="#392396" stroke-width="1.5" stroke-miterlimit="10"/>
<path d="M398.631 499.463L398.74 507.588L398.414 515.71L398.539 523.831L398.824 531.956L398.431 540.078L398.889 548.203L398.4 556.328L398.59 564.452L398.394 572.577L398.865 580.702" fill="white"/>
<path d="M398.631 499.463L398.74 507.588L398.414 515.71L398.539 523.831L398.824 531.956L398.431 540.078L398.889 548.203L398.4 556.328L398.59 564.452L398.394 572.577L398.865 580.702" stroke="#392396" stroke-width="1.5" stroke-miterlimit="10"/>
<path d="M258.924 85.7627L255.338 93.562L252.41 101.477L249.113 109.228L245.486 116.838L242.365 124.671L239.108 132.44L235.472 140.045L232.239 147.831L228.724 155.491L233.541 161.449L237.28 168.128L241.229 174.696L243.987 181.844L246.453 189.104L247.586 196.683L248.709 204.234L248.831 211.867L248.77 220.206L247.725 228.497L245.51 236.551L242.857 244.455L239.268 251.98L235.316 259.321L230.305 265.987L224.891 272.307L219.103 278.322L212.542 283.486L205.381 287.757L198.216 292.041L190.505 295.274L182.42 297.374L174.234 298.914L165.97 300L162.815 307.613L159.246 315.042L156.261 322.73L152.994 330.295L149.364 337.924L157.886 337.544L166.211 338.077L174.54 337.595L182.865 338.06L191.193 337.761L199.518 337.829L207.844 338.036L216.172 337.751L224.497 337.833L232.826 337.48L241.151 337.975L249.479 337.524L257.804 337.616L266.129 338.091L274.458 337.721L282.786 337.921L291.115 337.884L299.443 337.548L307.772 337.493L316.114 337.802L316.236 329.776L316.27 321.763L315.904 313.746L316.161 305.733L316.111 297.72L315.995 289.704L316.111 281.691L315.988 273.678L316.304 265.662L316.426 257.649L316.375 249.632L315.948 241.616L316.114 233.603L316.402 225.583L315.866 217.617L312.711 210.347L309.96 202.853L306.741 195.56L303.111 188.446L300.451 180.911L296.933 173.746L293.771 166.429L290.925 158.972L287.722 151.671L284.51 144.378L281.331 137.067L277.772 129.922L274.58 122.615L271.578 115.226L268.636 107.814L265.139 100.639L262.415 93.1277L258.924 85.7627Z" fill="white"/>
<path d="M258.924 85.7627L255.338 93.562L252.41 101.477L249.113 109.228L245.486 116.838L242.365 124.671L239.108 132.44L235.472 140.045L232.239 147.831L228.724 155.491L233.541 161.449L237.28 168.128L241.229 174.696L243.987 181.844L246.453 189.104L247.586 196.683L248.709 204.234L248.831 211.867L248.77 220.206L247.725 228.497L245.51 236.551L242.857 244.455L239.268 251.98L235.316 259.321L230.305 265.987L224.891 272.307L219.103 278.322L212.542 283.485L205.381 287.757L198.216 292.041L190.505 295.274L182.42 297.374L174.234 298.914L165.97 300L162.815 307.613L159.246 315.042L156.261 322.73L152.994 330.295L149.364 337.924L157.886 337.544L166.211 338.077L174.54 337.595L182.865 338.06L191.193 337.761L199.518 337.829L207.844 338.036L216.172 337.751L224.497 337.833L232.826 337.48L241.151 337.975L249.479 337.524L257.804 337.616L266.129 338.091L274.458 337.721L282.786 337.921L291.115 337.884L299.443 337.548L307.772 337.494L316.114 337.802L316.236 329.776L316.27 321.763L315.904 313.746L316.161 305.733L316.111 297.72L315.995 289.704L316.111 281.691L315.988 273.678L316.304 265.662L316.426 257.649L316.375 249.632L315.948 241.616L316.114 233.603L316.402 225.583L315.866 217.617L312.711 210.347L309.96 202.853L306.741 195.56L303.111 188.446L300.451 180.911L296.933 173.746L293.771 166.429L290.925 158.972L287.722 151.671L284.51 144.378L281.331 137.067L277.772 129.922L274.58 122.615L271.578 115.226L268.636 107.814L265.139 100.639L262.415 93.1277L258.924 85.7627Z" stroke="#392396" stroke-width="1.5" stroke-miterlimit="10"/>
<path d="M155.012 125.702L146.863 126.36L138.83 127.707L130.919 129.596L123.096 131.886L115.639 135.197L108.498 139.146L101.689 143.658L95.5759 149.073L89.7137 154.745L84.7031 161.18L79.9672 167.806L75.8013 174.832L72.7616 182.407L70.0782 190.104L68.158 198.033L67.103 206.124L66.7739 214.272L67.198 222.411L68.1411 230.512L70.3224 238.369L72.5547 246.216L76.0252 253.601L79.9774 260.729L84.6284 267.422L89.8121 273.708L95.732 279.299L101.845 284.679L108.701 289.066L115.558 293.51L123.062 296.746L130.898 299.023L138.82 300.878L146.863 302.201L155.012 302.256L160.426 302.551L163.215 294.674L166.811 287.197L169.871 279.486L173.382 271.971L176.625 264.338L179.974 256.753L183.549 249.269L186.484 241.504L189.632 233.83L193.126 226.309L196.698 218.822L200.081 211.25L202.954 203.457L206.197 195.827L209.773 188.337L212.84 180.629L216.046 172.979L219.628 165.492L222.8 157.869L217.759 152.15L211.917 147.061L206.041 141.989L199.26 138.213L192.492 134.468L185.286 131.662L178.06 128.83L170.451 127.286L162.777 126.075L155.012 125.702Z" fill="#392396"/>
<path d="M160.783 123.297L152.634 123.955L144.597 125.302L136.69 127.191L128.867 129.481L121.41 132.792L114.269 136.741L107.46 141.253L101.347 146.668L95.4847 152.34L90.4741 158.775L85.7348 165.404L81.5723 172.427L78.5326 180.002L75.8492 187.699L73.9257 195.631L72.874 203.719L72.5449 211.867L72.969 220.006L73.9121 228.107L76.09 235.964L78.3257 243.811L81.7962 251.196L85.7484 258.327L90.3994 265.017L95.5797 271.307L101.503 276.897L107.616 282.274L114.472 286.664L121.329 291.105L128.833 294.345L136.666 296.621L144.591 298.477L152.634 299.796L160.783 299.851L166.197 300.146L168.986 292.272L172.582 284.792L175.642 277.084L179.153 269.566L182.396 261.937L185.745 254.351L189.32 246.864L192.255 239.099L195.403 231.425L198.897 223.904L202.469 216.417L205.852 208.845L208.725 201.055L211.968 193.422L215.544 185.935L218.611 178.224L221.817 170.574L225.399 163.09L228.571 155.464L223.53 149.745L217.688 144.656L211.812 139.587L205.031 135.808L198.263 132.063L191.057 129.257L183.831 126.425L176.222 124.885L168.548 123.67L160.783 123.297Z" stroke="#392396" stroke-width="1.5" stroke-miterlimit="10"/>
<path d="M249.214 211.867L248.522 204.251L247.915 196.628L246.137 189.185L244.156 181.783L240.991 174.805L237.161 168.196L233.585 161.418L228.958 155.691L225.118 162.965L221.827 170.571L219.045 178.404L215.636 185.962L212.365 193.582L209.187 201.242L205.74 208.783L202.218 216.294L198.853 223.873L195.607 231.503L192.224 239.071L188.896 246.667L185.653 254.297L182.223 261.848L179.146 269.556L175.985 277.223L172.307 284.666L169.352 292.425L166.231 300.017L174.258 299.05L182.403 297.316L190.436 295.081L198.259 292.133L205.516 287.987L212.358 283.231L218.835 278.013L225.05 272.457L230.474 266.116L235.315 259.321L239.586 252.139L242.799 244.431L245.635 236.588L247.325 228.422L248.648 220.196L249.214 211.867Z" fill="white"/>
<path d="M249.214 211.867L248.522 204.251L247.915 196.628L246.137 189.185L244.156 181.783L240.991 174.805L237.161 168.196L233.585 161.418L228.958 155.691L225.118 162.965L221.827 170.571L219.045 178.404L215.636 185.962L212.365 193.582L209.187 201.242L205.74 208.783L202.218 216.294L198.853 223.873L195.607 231.503L192.224 239.071L188.896 246.667L185.653 254.297L182.223 261.848L179.146 269.556L175.985 277.223L172.307 284.666L169.352 292.425L166.231 300.017L174.258 299.05L182.403 297.316L190.436 295.081L198.259 292.133L205.516 287.987L212.358 283.231L218.835 278.013L225.05 272.457L230.474 266.116L235.315 259.321L239.586 252.139L242.799 244.431L245.635 236.588L247.325 228.422L248.648 220.196L249.214 211.867Z" stroke="#392396" stroke-width="1.5" stroke-miterlimit="10"/>
<path d="M316.239 5.91761L316.347 13.9204L316.015 22.0657L316.184 30.2076L316.388 38.3529L316.079 46.5016L316.072 54.6469L316.368 62.7888L315.91 70.9341L315.862 79.0794L315.984 87.2247L316.422 95.3734L316.351 103.519L315.865 111.664L316.273 119.809L315.798 127.955L316.412 136.1L316.096 144.249L316.273 152.391L315.998 160.539L316.32 168.685L316.103 176.83L316.228 184.978L315.916 193.124L316.357 201.272L316.161 209.418L316.096 217.57L319.645 224.959L322.379 232.7L325.649 240.211L329.242 247.583L332.268 255.199L335.837 262.578L338.683 270.272L342.293 277.633L345.611 285.124L348.81 292.665L352.009 300.207L355.235 307.738L358.804 315.12L361.664 322.811L364.832 330.366L368.459 337.565L376.441 337.727L384.573 337.605L392.701 337.873L400.833 338.046L408.965 337.914L417.096 337.537L425.228 338.046L433.36 337.792L441.492 337.673L449.623 337.544L457.725 337.755L457.457 329.694L457.467 321.596L457.613 313.498L457.918 305.401L457.552 297.303L457.535 289.205L457.911 281.107L457.64 273.013L457.708 264.915L457.769 256.817L457.446 248.723L457.602 240.625L457.745 232.527L457.976 224.429L457.972 216.335L457.854 208.237L457.809 200.139L457.833 192.042L458.016 183.944L457.721 175.846L457.752 167.748L457.565 159.65L457.46 151.553L458.094 143.455L457.511 135.357L457.752 127.259L457.901 119.161L457.535 111.064L457.908 102.966L457.765 94.8679L458.081 86.7667L457.806 78.6689L457.436 70.5711L458.037 62.4733L457.457 54.3755L458.094 46.2743L458.084 38.1765L457.518 30.0753L457.633 21.9775L457.599 13.8763L457.552 5.98885L449.427 5.91422L441.095 5.68013L432.76 5.60889L424.428 5.66996L416.096 5.58515L407.764 5.55462L399.432 5.61907L391.1 5.48337L382.768 5.73102L374.436 5.88368L366.104 5.47998L357.769 5.85993L349.437 6.03295L341.102 5.85315L332.77 5.93796L324.435 5.74459L316.239 5.91761Z" stroke="#392396" stroke-width="1.5" stroke-miterlimit="10"/>
<path d="M316.171 337.711L324.801 337.514L333.503 338.097L342.205 337.982L350.906 337.779L359.608 337.897L368.445 337.887L365.11 330.247L362 322.668L358.41 315.297L355.14 307.786L351.961 300.238L348.467 292.825L345.621 285.131L342.422 277.593L338.846 270.214L335.423 262.768L332.139 255.264L329.367 247.536L325.972 240.079L322.769 232.538L319.353 225.088L316.11 217.628L316.29 225.583L315.767 233.596L316.357 241.609L316.361 249.625L316.259 257.638L316.3 265.655L316.347 273.668L316.015 281.681L316.184 289.694L316.388 297.71L316.079 305.727L316.072 313.74L316.368 321.756L315.91 329.776L316.171 337.711Z" fill="white"/>
<path d="M316.171 337.711L324.801 337.514L333.503 338.097L342.205 337.982L350.906 337.779L359.608 337.897L368.445 337.887L365.11 330.247L362 322.668L358.41 315.297L355.14 307.786L351.961 300.238L348.467 292.825L345.621 285.131L342.422 277.593L338.846 270.214L335.423 262.768L332.139 255.264L329.367 247.536L325.972 240.079L322.769 232.538L319.353 225.088L316.11 217.628L316.29 225.583L315.767 233.596L316.357 241.609L316.361 249.625L316.259 257.638L316.3 265.655L316.347 273.668L316.015 281.681L316.184 289.694L316.388 297.71L316.079 305.727L316.072 313.74L316.368 321.756L315.91 329.776L316.171 337.711Z" stroke="#392396" stroke-width="1.5" stroke-miterlimit="10"/>
<path d="M503.327 460.952L505.464 452.881L508.49 445.082L510.546 436.977L513.582 429.198L516.74 421.474L519.644 413.64L523.458 406.211L527.043 398.676L531.294 391.498L535.29 384.177L539.504 376.958L544.803 370.485L549.454 363.534L555.357 357.604L561.063 351.541L566.711 345.377L573.144 340.048L579.783 334.979L586.656 330.227L594.109 326.169L591.741 334.253L589.319 342.182L586.852 350.1L584.06 357.906L581.126 365.661L578.073 373.365L574.612 380.9L571.267 388.485L567.583 395.922L563.146 402.937L559.106 410.183L554.58 417.148L549.447 423.675L544.192 430.101L538.381 436.027L532.18 441.52L525.941 446.975L519.237 451.873L511.977 455.938L504.131 458.645" fill="#392396"/>
<path d="M503.327 460.952L505.464 452.881L508.49 445.082L510.546 436.977L513.582 429.198L516.74 421.474L519.644 413.64L523.458 406.211L527.043 398.676L531.294 391.498L535.29 384.177L539.504 376.958L544.803 370.485L549.454 363.534L555.357 357.604L561.063 351.541L566.711 345.377L573.144 340.048L579.783 334.979L586.656 330.227L594.109 326.169L591.741 334.253L589.319 342.182L586.852 350.1L584.06 357.906L581.126 365.661L578.073 373.365L574.612 380.9L571.267 388.485L567.583 395.922L563.146 402.937L559.106 410.183L554.58 417.148L549.447 423.675L544.192 430.101L538.381 436.027L532.18 441.52L525.941 446.975L519.237 451.873L511.977 455.938L504.131 458.645" stroke="#392396" stroke-width="1.5" stroke-miterlimit="10"/>
<path d="M487.85 583.518L487.704 575.247L488.498 566.997L488.233 558.716L488.929 550.476L489.675 542.242L490.035 533.978L491.266 525.795L492.118 517.576L493.563 509.434L494.557 501.227L495.612 493.017L497.763 485.015L498.913 476.805L501.413 468.9L503.445 460.894" stroke="#392396" stroke-width="1.5" stroke-miterlimit="10"/>
<path d="M511.553 529.069L514.294 521.148L516.957 513.223L519.329 505.183L522.66 497.495L525.995 489.818L530.015 482.474L534.293 475.292L538.686 468.181L543.296 461.186L549.016 455.062L554.59 448.827L560.71 443.121L567.278 437.914L574.487 433.554L572.326 441.486L569.693 449.224L566.715 456.837L563.356 464.29L560.35 471.892L556.741 479.227L552.473 486.202L548.423 493.295L543.693 499.958L538.55 506.302L533.204 512.497L526.982 517.82L520.197 522.369L512.744 525.554" fill="#392396"/>
<path d="M511.553 529.069L514.294 521.148L516.957 513.223L519.329 505.183L522.66 497.495L525.995 489.818L530.015 482.474L534.293 475.292L538.686 468.181L543.296 461.186L549.016 455.062L554.59 448.827L560.71 443.121L567.278 437.914L574.487 433.554L572.326 441.486L569.693 449.224L566.715 456.837L563.356 464.29L560.35 471.892L556.741 479.227L552.473 486.202L548.423 493.295L543.693 499.958L538.55 506.302L533.204 512.497L526.982 517.82L520.197 522.369L512.744 525.554" stroke="#392396" stroke-width="1.5" stroke-miterlimit="10"/>
<path d="M502.224 583.606L503.201 575.715L504.127 567.842L504.687 559.917L506.176 552.117L507.56 544.301L509.548 536.617L511.672 528.974" stroke="#392396" stroke-width="1.5" stroke-miterlimit="10"/>
<path d="M434.612 422.285L434.517 430.803L434.378 439.386L434.975 447.969L434.866 456.552L434.578 465.04L426.419 465.196L418.162 465.352L409.904 465.226L401.651 465.091L393.39 465.043L385.136 464.833L376.879 464.938L368.618 465.05L360.361 465.386L352.104 464.904L343.846 465.284L335.589 464.894L327.332 465.433L319.075 465.206L310.814 465.444L302.557 465.332L294.3 465.291L286.039 465.036L277.782 465.223L269.524 464.88L261.264 465.447L253.007 465.155L244.749 464.846L236.489 465.457L228.231 464.965L219.971 464.874L211.71 465.108L203.453 465.471L195.192 465.457L186.721 465.335L187.169 456.555L186.86 447.972L186.877 439.389L186.864 430.807L186.976 422.264L195.189 422.559L203.443 422.095L211.703 421.922L219.961 422.515L228.214 421.956L236.472 422.556L244.729 422.308L252.99 422.319L261.247 421.979L269.504 422.325L277.761 422.044L286.019 422.244L294.276 421.891L302.533 422.095L310.794 422.247L319.051 422.471L327.308 422.074L335.569 422.044L343.826 422.054L352.083 422.04L360.344 422.217L368.601 421.922L376.858 422.183L385.119 422.308L393.376 422.373L401.637 421.915L409.898 422.098L418.155 421.973L426.416 422.41L434.612 422.285Z" fill="white"/>
<path d="M434.612 422.285L434.517 430.803L434.378 439.386L434.975 447.969L434.866 456.552L434.578 465.04L426.419 465.196L418.162 465.352L409.904 465.226L401.651 465.091L393.39 465.043L385.136 464.833L376.879 464.938L368.618 465.05L360.361 465.386L352.104 464.904L343.846 465.284L335.589 464.894L327.332 465.433L319.075 465.206L310.814 465.444L302.557 465.332L294.3 465.291L286.039 465.036L277.782 465.223L269.524 464.88L261.264 465.447L253.006 465.155L244.749 464.846L236.489 465.457L228.231 464.965L219.971 464.874L211.71 465.108L203.453 465.471L195.192 465.457L186.721 465.335L187.169 456.555L186.86 447.972L186.877 439.389L186.864 430.807L186.976 422.264L195.189 422.559L203.443 422.095L211.703 421.922L219.961 422.515L228.214 421.956L236.472 422.556L244.729 422.308L252.99 422.319L261.247 421.979L269.504 422.325L277.761 422.044L286.019 422.244L294.276 421.891L302.533 422.095L310.794 422.247L319.051 422.471L327.308 422.074L335.569 422.044L343.826 422.054L352.083 422.04L360.344 422.217L368.601 421.922L376.858 422.183L385.119 422.308L393.376 422.373L401.637 421.915L409.898 422.098L418.155 421.973L426.416 422.41L434.612 422.285Z" stroke="#392396" stroke-width="1.5" stroke-miterlimit="10"/>
</svg>
