<svg width="306" height="146" viewBox="0 0 306 146" fill="none" xmlns="http://www.w3.org/2000/svg">
<path fill-rule="evenodd" clip-rule="evenodd" d="M79.7746 140.824C75.2164 138.979 71.8412 135.253 69.4404 131.04C68.2225 128.881 66.9351 126.479 66.5176 124.041C66.2392 122.509 66.4132 120.803 67.5266 119.619C68.814 118.227 71.7021 118.366 71.8412 120.699C72.1544 120.594 72.5023 120.525 72.8155 120.42C69.0228 114.675 65.9608 108.443 63.8035 101.897C62.7597 98.6931 61.8898 95.455 61.2635 92.1471C60.6371 88.8741 59.3149 83.5816 62.8988 81.4577C66.5871 79.2989 69.0924 85.044 70.4842 87.4814C72.224 90.4758 73.8942 93.5051 75.4599 96.5692C78.6959 102.871 81.6187 109.348 84.1936 115.929C87.012 123.171 89.3781 130.553 91.3614 138.074C91.5354 138.735 92.5444 138.457 92.3705 137.795C88.3342 122.544 82.593 107.746 75.1816 93.8185C73.3374 90.3365 71.4585 86.8546 69.336 83.5468C68.0137 81.4925 66.0304 79.2989 63.3512 80.0997C60.5676 80.9354 59.4541 83.9298 59.4541 86.5761C59.4541 90.1973 60.4632 93.9926 61.3678 97.4745C63.5599 105.831 67.1439 113.735 71.876 120.943C72.1544 121.326 72.8851 121.221 72.8503 120.664C72.6763 118.296 70.0667 116.904 67.9442 117.948C64.7082 119.515 65.0561 123.658 66.1 126.479C68.5009 132.955 72.8851 139.153 79.4614 141.834C80.1225 142.078 80.4009 141.068 79.7746 140.824Z" fill="white"/>
<path fill-rule="evenodd" clip-rule="evenodd" d="M82.594 107.92C81.3066 107.015 81.063 104.821 82.4896 103.881C83.7422 103.08 85.3776 103.742 86.0735 104.926C86.3867 105.517 87.2914 104.995 86.9782 104.403C84.5425 99.9464 82.768 95.1761 81.7937 90.197C81.2718 87.6552 80.9934 85.0438 80.889 82.4323C80.8194 80.3084 80.1931 75.4685 82.9072 74.8417C85.8648 74.1802 87.6393 77.5228 88.8224 79.612C90.1098 81.8752 91.2928 84.2429 92.2671 86.6803C94.1461 91.2416 95.4335 96.0118 96.1642 100.921C96.2338 101.444 97.0689 101.409 97.1733 100.921C97.556 99.2848 99.2958 100.608 99.6437 101.2C99.8525 101.548 99.9569 102.001 100.096 102.384C100.444 103.463 100.653 104.612 100.896 105.726C101.418 108.164 101.801 110.636 102.079 113.108C102.601 117.704 102.706 122.37 102.462 127.001C102.636 126.827 102.81 126.653 102.984 126.479C101.175 126.653 99.9221 128.08 99.7133 129.891C99.4349 132.224 101.001 134.208 102.393 135.88C102.81 136.402 103.541 135.671 103.123 135.149C102.253 134.069 101.279 132.885 100.896 131.493C100.479 129.891 101.036 127.697 102.984 127.523C103.262 127.488 103.506 127.314 103.506 127.001C103.889 120.107 103.436 113.178 102.079 106.423C101.697 104.403 101.488 100.678 99.4697 99.4589C98.2519 98.6929 96.5121 99.1803 96.1642 100.608C96.5121 100.608 96.8253 100.608 97.1733 100.608C96.2338 94.4449 94.4244 88.4909 91.7104 82.885C90.1446 79.612 87.0826 72.091 82.1765 73.9713C80.1583 74.7373 79.9495 76.8613 79.8452 78.7415C79.706 81.6315 79.8452 84.5563 80.2627 87.4463C81.0978 93.5745 83.0811 99.4937 86.0387 104.891C86.3519 104.717 86.6303 104.543 86.9434 104.368C85.8996 102.488 83.1855 101.757 81.5153 103.289C79.8104 104.821 80.3323 107.572 82.0721 108.825C82.594 109.208 83.1159 108.303 82.594 107.92Z" fill="white"/>
<path fill-rule="evenodd" clip-rule="evenodd" d="M101.278 101.653C115.336 85.5663 133.673 72.0217 155.246 68.8879C155.907 68.7835 155.629 67.7737 154.967 67.8782C133.22 71.0467 114.675 84.6958 100.548 100.922C100.095 101.409 100.826 102.175 101.278 101.653Z" fill="white"/>
<path fill-rule="evenodd" clip-rule="evenodd" d="M220.697 60.9142C233.675 62.5159 246.167 67.4602 256.745 75.1204C262.347 79.1595 266.87 84.1038 271.672 88.9785C276.543 93.9228 282.632 97.0565 288.165 101.096C294.463 105.692 299.891 111.437 304.24 117.913C304.623 118.47 305.528 117.948 305.145 117.391C301.352 111.785 296.829 106.701 291.575 102.419C285.868 97.7877 279.083 94.6192 273.759 89.5704C271.045 86.9938 268.645 84.1386 266 81.5272C263.738 79.3336 261.372 77.2792 258.867 75.3642C253.543 71.3251 247.733 67.9825 241.574 65.3711C234.893 62.5507 227.864 60.7053 220.662 59.8348C220.035 59.8 220.035 60.8446 220.697 60.9142Z" fill="white"/>
<path fill-rule="evenodd" clip-rule="evenodd" d="M211.998 145.211C210.676 141.764 209.945 138.178 209.911 134.487C209.911 132.92 209.911 131.214 210.572 129.786C211.024 128.811 211.79 127.976 212.938 128.011C213.912 128.045 215.095 128.811 214.782 129.926C215.13 130.03 215.443 130.1 215.791 130.204C217.218 119.619 219.305 108.895 222.646 98.7277C223.411 96.4297 224.351 94.1316 225.812 92.1469C226.682 90.9631 228.004 89.1177 229.466 90.6845C230.301 91.555 230.718 93.087 230.997 94.2361C232.18 99.1108 230.649 104.229 229.222 108.86C229.57 108.965 229.883 109.034 230.231 109.139C231.136 105.692 232.597 102.453 234.65 99.5634C235.068 98.9367 235.972 97.335 236.807 97.0912C238.373 96.6386 238.93 98.2403 239.278 99.3893C239.835 101.235 239.695 103.254 239.278 105.134C238.512 108.756 237.016 112.307 235.555 115.685C234.059 119.236 232.354 122.683 230.51 126.061C230.37 126.304 230.475 126.618 230.683 126.792C232.249 127.871 231.275 130.135 230.753 131.493C230.057 133.234 229.292 134.94 228.457 136.611C226.96 139.675 225.255 142.6 223.376 145.455C222.994 146.012 223.898 146.534 224.281 145.977C226.856 142.078 229.118 137.969 230.997 133.651C231.971 131.423 233.919 127.662 231.24 125.887C231.31 126.13 231.379 126.374 231.414 126.618C233.815 122.265 235.938 117.774 237.747 113.143C239.313 109.208 241.192 104.786 240.565 100.434C240.357 99.0411 239.8 96.9171 238.512 96.1163C237.19 95.2806 235.903 96.3252 235.033 97.3002C232.214 100.573 230.301 104.717 229.222 108.86C229.048 109.522 230.022 109.765 230.231 109.139C231.797 104.09 233.432 98.3796 231.797 93.1567C231.345 91.6595 230.37 88.8391 228.387 88.8391C226.508 88.8391 224.873 91.555 224.038 92.9129C221.01 97.9617 219.862 104.334 218.505 109.974C216.939 116.555 215.721 123.206 214.817 129.891C214.712 130.518 215.652 130.831 215.826 130.169C216.209 128.742 215.304 127.558 213.947 127.105C212.172 126.513 210.607 127.488 209.771 129.09C208.658 131.249 208.797 134.069 208.971 136.402C209.18 139.536 209.911 142.565 211.024 145.49C211.233 146.117 212.242 145.838 211.998 145.211Z" fill="white"/>
<path fill-rule="evenodd" clip-rule="evenodd" d="M233.293 123.345C233.919 120.803 235.137 118.505 236.946 116.59C237.781 115.72 238.79 114.849 239.869 114.292C241.191 113.63 242.618 114.396 242.722 115.859C242.792 116.834 242.305 117.844 241.922 118.679C241.643 119.271 242.444 119.793 242.826 119.201C243.07 118.818 243.348 118.401 243.627 118.052C244.288 117.182 245.262 117.147 246.55 118.018C246.863 118.644 246.48 119.654 246.271 120.281C245.819 121.778 245.158 123.24 244.497 124.668C243.314 127.175 241.852 129.578 240.217 131.841C236.668 136.646 232.144 140.615 226.995 143.575C226.403 143.923 226.925 144.828 227.517 144.48C234.406 140.546 240.182 134.766 244.044 127.837C244.949 126.235 245.749 124.564 246.445 122.857C247.002 121.43 247.837 119.724 247.628 118.157C247.454 117.008 246.689 116.137 245.471 116.068C243.801 115.998 242.722 117.426 241.922 118.679C242.235 118.853 242.513 119.027 242.826 119.201C243.522 117.669 244.253 115.859 243.348 114.222C242.513 112.76 241.017 112.551 239.59 113.247C235.833 115.058 233.258 119.097 232.283 123.032C232.144 123.693 233.153 123.972 233.293 123.345Z" fill="white"/>
<path fill-rule="evenodd" clip-rule="evenodd" d="M80.7501 106.701C86.3522 115.998 89.7621 126.444 90.632 137.238C90.7016 137.899 91.7455 137.899 91.6759 137.238C90.7712 126.235 87.3613 115.615 81.6548 106.179C81.3069 105.622 80.4022 106.144 80.7501 106.701Z" fill="white"/>
<path fill-rule="evenodd" clip-rule="evenodd" d="M82.1424 108.895C86.2134 118.087 89.1015 127.732 90.7716 137.621C90.876 138.282 91.8851 138.004 91.7807 137.342C90.1105 127.349 87.1529 117.635 83.0471 108.373C82.7687 107.781 81.864 108.303 82.1424 108.895Z" fill="white"/>
<path fill-rule="evenodd" clip-rule="evenodd" d="M80.8882 105.483C86.1075 115.197 89.5174 125.782 90.8396 136.716C90.9092 137.377 91.9531 137.377 91.8835 136.716C90.5265 125.574 87.1165 114.814 81.7928 104.961C81.4797 104.369 80.575 104.891 80.8882 105.483Z" fill="white"/>
<path fill-rule="evenodd" clip-rule="evenodd" d="M225.881 102.419C224.698 116.729 221.81 130.796 217.321 144.445C217.112 145.072 218.122 145.351 218.33 144.724C222.819 131.005 225.707 116.799 226.925 102.419C226.96 101.757 225.916 101.757 225.881 102.419Z" fill="white"/>
<path fill-rule="evenodd" clip-rule="evenodd" d="M240.217 121.813C236.285 125.817 233.049 130.413 230.648 135.497C230.37 136.089 231.275 136.646 231.553 136.019C233.919 131.005 237.085 126.479 240.948 122.544C241.435 122.092 240.704 121.36 240.217 121.813Z" fill="white"/>
<path fill-rule="evenodd" clip-rule="evenodd" d="M66.726 88.0035C66.726 87.9686 66.726 87.9338 66.726 87.899C66.726 87.6553 66.552 87.4463 66.3433 87.4115C66.3085 87.4115 66.2737 87.3767 66.2041 87.3767C65.9953 87.3071 65.7169 87.4115 65.6126 87.6204C65.4734 87.8642 65.543 87.9686 65.5778 88.2124C65.6474 89.1525 66.552 90.4408 66.9348 91.3113C67.8743 93.5049 68.8137 95.6637 69.7532 97.8573C71.6322 102.279 73.5111 106.736 75.3205 111.193C78.8348 119.759 82.2099 128.394 85.4807 137.064C85.7243 137.69 86.7333 137.412 86.4898 136.785C83.3234 128.428 80.0874 120.107 76.7123 111.855C75.1117 107.955 73.4763 104.02 71.8409 100.155C70.971 98.0662 70.0664 95.977 69.1617 93.9227C68.7441 92.9826 68.3614 92.0425 67.9438 91.1372C67.8395 90.8935 66.4824 88.1776 66.4824 88.1776C66.2737 88.2472 66.0997 88.3516 65.8909 88.4213C65.9257 88.4213 65.9605 88.4561 66.0301 88.4561C65.8909 88.282 65.7865 88.1079 65.6474 87.9686C65.6474 88.0035 65.6474 88.0383 65.6474 88.0731C65.6474 88.6998 66.6912 88.6998 66.726 88.0035Z" fill="white"/>
<path fill-rule="evenodd" clip-rule="evenodd" d="M84.3683 79.9255C89.0657 97.1262 92.5452 114.64 94.7026 132.328C94.7721 132.99 95.816 132.99 95.7464 132.328C93.5543 114.536 90.1096 96.9521 85.3774 79.647C85.1686 79.0202 84.1944 79.2988 84.3683 79.9255Z" fill="white"/>
<path fill-rule="evenodd" clip-rule="evenodd" d="M270.105 86.0536C269.409 86.8544 270.661 87.8642 271.114 88.4561C272.575 90.3363 274.036 92.2166 275.498 94.0968C278.247 97.6136 280.926 101.235 284.127 104.334C284.614 104.786 285.345 104.055 284.858 103.602C282.283 101.13 280.091 98.31 277.899 95.4896C276.785 94.062 275.672 92.6344 274.558 91.2068C274.28 90.8586 271.044 86.5759 270.835 86.8196C271.288 86.2973 270.557 85.5313 270.105 86.0536Z" fill="white"/>
<path fill-rule="evenodd" clip-rule="evenodd" d="M238.198 114.989C237.746 117.287 236.284 119.202 235.066 121.152C233.814 123.136 232.561 125.121 231.308 127.106C231.622 127.245 231.935 127.384 232.248 127.523C233.709 123.728 235.588 120.177 237.919 116.834C237.606 116.66 237.328 116.486 237.015 116.312C235.31 118.993 233.57 121.674 231.865 124.355C232.178 124.529 232.457 124.703 232.77 124.877C233.257 124.007 237.606 115.476 238.372 115.929C238.302 115.685 238.233 115.441 238.198 115.197C236.215 117.844 234.266 120.49 232.283 123.171C231.865 123.728 232.805 124.216 233.187 123.693C235.171 121.047 237.119 118.401 239.103 115.72C239.276 115.476 239.137 115.128 238.929 114.989C237.502 114.153 236.632 115.963 236.041 116.973C234.614 119.376 233.257 121.848 231.935 124.32C231.622 124.912 232.457 125.399 232.839 124.842C234.544 122.161 236.284 119.48 237.989 116.799C238.372 116.242 237.467 115.72 237.084 116.277C234.718 119.689 232.805 123.345 231.308 127.21C231.1 127.767 231.97 128.081 232.248 127.628C233.605 125.469 234.997 123.276 236.354 121.117C237.537 119.271 238.824 117.461 239.242 115.267C239.346 114.64 238.337 114.327 238.198 114.989Z" fill="white"/>
<path fill-rule="evenodd" clip-rule="evenodd" d="M232.319 125.887C233.78 126.862 232.98 129.856 232.562 131.179C232.075 132.676 231.31 134.069 230.509 135.427C228.978 137.934 227.273 140.371 225.638 142.844C225.255 143.401 226.16 143.923 226.543 143.366C229.987 138.422 232.353 132.851 233.502 126.931C233.154 126.931 232.841 126.931 232.493 126.931C232.806 128.846 231.936 130.901 231.379 132.711C230.857 134.348 230.335 135.984 229.605 137.551C228.317 140.406 226.508 143.018 223.898 144.863C223.341 145.246 223.863 146.151 224.42 145.768C227.343 143.714 229.361 140.789 230.753 137.516C231.518 135.741 232.11 133.93 232.632 132.085C233.189 130.274 233.78 128.568 233.467 126.653C233.397 126.13 232.562 126.165 232.458 126.653C231.31 132.502 229.013 137.969 225.603 142.844C225.916 143.018 226.195 143.192 226.508 143.366C228.77 139.919 231.449 136.541 233.084 132.711C233.954 130.657 235.207 126.513 232.841 124.981C232.284 124.633 231.727 125.538 232.319 125.887Z" fill="white"/>
<path fill-rule="evenodd" clip-rule="evenodd" d="M10.6373 67.0424C10.4285 64.5006 7.01857 63.9434 5.34839 65.5451C2.42558 68.3655 5.00044 74.3892 6.0095 77.5229C9.14108 87.2723 14.1516 96.3253 19.7537 104.856C23.0244 109.87 26.5387 114.745 30.0183 119.619C30.401 120.176 31.3057 119.654 30.923 119.097C24.6946 110.462 18.501 101.757 13.4905 92.3559C10.9852 87.6205 8.75833 82.6762 7.12295 77.5577C6.32266 75.0856 5.38319 72.4393 5.17441 69.8279C5.07003 68.5048 5.244 66.729 6.53143 65.9978C7.5405 65.4407 9.45424 65.6148 9.59342 67.0424C9.62821 67.7039 10.6721 67.7039 10.6373 67.0424Z" fill="white"/>
<path fill-rule="evenodd" clip-rule="evenodd" d="M12.4811 69.0968C7.71416 62.1678 4.30422 54.3683 2.56446 46.1161C1.72937 42.1816 0.929076 37.7595 1.20744 33.7205C1.24223 33.2679 1.27703 32.7456 1.4858 32.3278C2.04253 31.2832 3.32995 32.0144 3.99106 32.6063C4.79136 33.3375 5.41767 34.4865 6.00919 35.357C7.29662 37.3069 8.37527 39.3612 9.24516 41.52C9.48872 42.1468 10.4978 41.8682 10.2542 41.2415C9.24516 38.8041 8.06212 36.506 6.56592 34.3124C5.66124 33.0241 4.4782 30.7609 2.73843 30.4475C-1.36742 29.7511 0.30276 38.4559 0.511532 40.3013C1.72937 50.7819 5.55685 60.8795 11.5416 69.5494C11.9592 70.1762 12.8639 69.6539 12.4811 69.0968Z" fill="white"/>
<path fill-rule="evenodd" clip-rule="evenodd" d="M8.86285 38.2121C2.46051 26.861 1.20788 13.0727 5.34852 0.711857C5.13975 0.816314 4.93098 0.955591 4.72221 1.06005C11.5769 2.76619 13.6994 11.2621 15.6827 17.042C18.362 24.8067 20.9368 32.641 23.3377 40.4753C28.1743 56.3181 32.4541 72.3349 36.1076 88.4561C38.1605 97.5439 40.0395 106.701 41.7096 115.894C41.814 116.555 42.8231 116.277 42.7187 115.615C36.5251 81.736 27.7219 48.3445 16.3786 15.7886C14.2909 9.83448 11.9944 1.75643 5.00057 0.0154734C4.72221 -0.0541649 4.44385 0.119931 4.37426 0.363665C0.129227 12.9682 1.48624 27.07 7.99297 38.6647C8.27133 39.3263 9.17601 38.804 8.86285 38.2121Z" fill="white"/>
<path fill-rule="evenodd" clip-rule="evenodd" d="M26.1903 46.9865C25.7728 44.6536 25.3204 42.3555 24.9029 40.0226C24.5201 37.9335 24.0678 35.7747 24.2418 33.6507C24.3462 32.5714 24.5897 31.492 25.1812 30.5867C25.7728 29.6814 26.8862 29.1243 27.7213 29.9947C28.1736 30.4822 28.5564 31.109 28.9043 31.6661C30.0874 33.5811 30.9225 35.6354 31.4444 37.829C31.5836 38.4906 32.5926 38.2121 32.4535 37.5505C31.8271 34.9042 28.104 24.563 24.4505 29.8903C23.0239 31.9446 23.0587 34.5909 23.3719 36.9934C23.8242 40.4405 24.5897 43.8876 25.216 47.3347C25.2856 47.9266 26.2947 47.648 26.1903 46.9865Z" fill="white"/>
<path fill-rule="evenodd" clip-rule="evenodd" d="M31.4442 36.5756C30.4699 32.641 30.0524 28.602 30.3656 24.5282C30.6439 20.5588 31.4094 16.0323 33.2536 12.4807C33.7755 11.5058 33.7755 11.4013 34.9585 11.4013C36.1068 11.4013 36.0372 11.4013 36.6983 12.1674C37.2898 12.8289 37.8465 13.5253 38.3685 14.2565C39.4471 15.7886 40.3518 17.4599 41.1173 19.166C42.7179 22.7524 43.727 26.5477 44.562 30.343C48.2851 47.091 48.0764 64.6747 48.8419 81.7709C49.2942 91.6596 49.7118 101.548 50.1641 111.437C50.1989 112.098 51.2427 112.098 51.208 111.437C50.3381 91.8336 49.7813 72.1608 48.4939 52.5924C47.9024 43.4002 46.8585 34.1034 44.3185 25.2245C43.205 21.3596 41.7784 17.5295 39.5515 14.1869C38.4033 12.4807 35.9676 8.40688 33.4971 10.3219C32.1053 11.4013 31.5486 13.7342 31.0267 15.3359C30.3308 17.5295 29.8436 19.7928 29.5305 22.056C28.8694 27.0003 29.2173 31.9795 30.4003 36.8193C30.5743 37.4809 31.5834 37.2372 31.4442 36.5756Z" fill="white"/>
<path fill-rule="evenodd" clip-rule="evenodd" d="M9.69722 21.0812C17.8393 45.3153 25.1463 69.828 31.5139 94.5844C33.358 101.688 35.0978 108.791 36.768 115.894C36.9072 116.555 37.9162 116.277 37.777 115.615C31.8966 90.7195 25.1463 66.0675 17.4914 41.6593C15.2993 34.6607 13.0376 27.6968 10.7063 20.7678C10.4975 20.1759 9.48844 20.4544 9.69722 21.0812Z" fill="white"/>
<path fill-rule="evenodd" clip-rule="evenodd" d="M37.9862 26.9656C39.7608 53.2889 41.5701 79.6122 43.3447 105.936C43.3795 106.597 44.4233 106.597 44.3885 105.936C42.614 79.6122 40.8046 53.2889 39.0301 26.9656C38.9953 26.2693 37.9514 26.2693 37.9862 26.9656Z" fill="white"/>
<path fill-rule="evenodd" clip-rule="evenodd" d="M25.3197 29.1243C27.825 51.6175 35.9323 72.9617 39.6206 95.2459C40.6993 101.722 41.3604 108.268 41.43 114.849C41.43 115.511 42.4738 115.511 42.4738 114.849C42.2651 92.147 34.6797 70.5592 29.7387 48.6579C28.2773 42.2164 27.0943 35.7052 26.3636 29.1243C26.294 28.4628 25.2501 28.4628 25.3197 29.1243Z" fill="white"/>
<path fill-rule="evenodd" clip-rule="evenodd" d="M24.3467 30.552C24.0335 36.8195 24.4162 43.087 25.4949 49.2848C25.8429 49.1803 26.156 49.1107 26.504 49.0062C25.3905 43.2959 24.799 37.4811 24.6946 31.6663C24.3467 31.7011 23.9987 31.7707 23.6855 31.8055C25.147 39.5702 26.6084 47.3349 28.0698 55.0996C28.4177 54.9951 28.7309 54.9255 29.0788 54.821C26.9215 47.509 25.7733 39.988 25.7733 32.3975C25.4253 32.4323 25.0774 32.5019 24.7642 32.5367C26.504 42.0424 28.2089 51.5132 29.9487 61.0188C30.2967 60.9144 30.6098 60.8447 30.9578 60.7403C28.035 50.7472 25.1122 40.5452 25.9472 30.0646C25.5993 30.0646 25.2513 30.0646 24.9034 30.0646C26.504 43.47 29.1484 56.7361 32.8715 69.7236C33.0455 70.3852 34.0546 70.1066 33.8806 69.4451C32.28 63.6999 30.6446 57.9547 29.044 52.2096C28.6961 52.314 28.3829 52.3837 28.035 52.4881C31.0274 62.2723 33.637 72.161 35.8291 82.1541C36.1771 82.0496 36.4902 81.98 36.8382 81.8755C34.2981 74.6679 32.2452 67.2863 30.6794 59.8002C30.3662 59.9394 30.0531 60.0787 29.7399 60.218C35.516 73.8671 37.9516 88.5956 40.3525 103.15C40.7005 103.046 41.0136 102.976 41.3616 102.871C38.7171 91.9383 36.0727 80.9702 33.4282 70.037C33.0803 70.1415 32.7671 70.2111 32.4192 70.3155C36.0379 82.8505 39.6566 95.4898 40.4221 108.547C40.4569 109.209 41.5007 109.209 41.466 108.547C40.7005 95.3505 37.047 82.6415 33.3934 70.037C33.2195 69.3754 32.2452 69.654 32.3844 70.3155C35.0288 81.2488 37.6733 92.2168 40.3177 103.15C40.4917 103.812 41.4312 103.533 41.3268 102.871C38.9259 88.2126 36.4206 73.4493 30.6098 59.6957C30.3662 59.1386 29.5312 59.5564 29.6703 60.1135C31.2013 67.5997 33.2543 74.9813 35.8291 82.1889C36.0379 82.8156 36.9774 82.5719 36.8382 81.9103C34.6113 71.9172 32.0016 62.0286 29.044 52.2444C28.8353 51.6177 27.861 51.8614 28.035 52.523C29.6355 58.2681 31.2709 64.0133 32.8715 69.7584C33.2195 69.654 33.5326 69.5843 33.8806 69.4799C30.1923 56.5968 27.5478 43.4351 25.9472 30.0994C25.8777 29.4378 24.973 29.403 24.9034 30.0994C24.0683 40.6844 26.9911 50.9909 29.9487 61.0536C30.1575 61.7152 31.0622 61.4367 30.9578 60.7751C29.218 51.2695 27.513 41.7986 25.7733 32.293C25.6689 31.7011 24.7294 31.8404 24.7642 32.4323C24.799 40.1273 25.9124 47.7527 28.1393 55.1344C28.3481 55.796 29.2528 55.5174 29.1484 54.8558C27.687 47.0912 26.2256 39.3265 24.7642 31.5618C24.6598 30.9699 23.7203 31.1092 23.7551 31.7011C23.8595 37.6203 24.4858 43.5048 25.5993 49.3196C25.7385 49.9812 26.7127 49.7026 26.6084 49.041C25.5297 42.9477 25.1469 36.7499 25.4949 30.5869C25.4253 29.8557 24.3815 29.8557 24.3467 30.552Z" fill="white"/>
<path fill-rule="evenodd" clip-rule="evenodd" d="M29.2164 53.8111C30.3646 57.8501 31.5129 61.8543 32.6611 65.8933C32.8351 66.5549 33.8441 66.2763 33.6702 65.6148C32.6263 61.2624 31.5476 56.91 30.5038 52.5924C30.3298 51.9308 29.3208 52.2094 29.4947 52.8709C30.5386 57.2233 31.6172 61.5757 32.6611 65.8933C33.0091 65.7889 33.3222 65.7192 33.6702 65.6148C32.5219 61.5757 31.3737 57.5715 30.2254 53.5325C30.0515 52.8709 29.0424 53.1495 29.2164 53.8111Z" fill="white"/>
<path fill-rule="evenodd" clip-rule="evenodd" d="M22.6054 38.1077C30.9911 62.5855 37.0803 87.7946 40.8034 113.387C40.9078 114.048 41.9168 113.77 41.8124 113.108C38.0893 87.516 32.0002 62.307 23.6145 37.8291C23.4057 37.2024 22.3966 37.4809 22.6054 38.1077Z" fill="white"/>
<path fill-rule="evenodd" clip-rule="evenodd" d="M81.7596 104.264C84.0561 106.075 85.0304 108.93 86.0395 111.541C87.0485 114.153 87.9184 116.834 88.6491 119.55C90.2149 125.365 91.1544 131.319 91.4675 137.342C91.5023 138.004 92.5462 138.004 92.5114 137.342C92.1982 131.005 91.1892 124.738 89.4842 118.645C88.6143 115.511 87.5357 112.447 86.3178 109.452C85.4131 107.224 84.4389 105.03 82.4903 103.498C81.9684 103.115 81.2377 103.846 81.7596 104.264Z" fill="white"/>
<path fill-rule="evenodd" clip-rule="evenodd" d="M81.3061 105.274C82.2803 107.885 83.2546 110.532 84.2289 113.143C84.5768 113.039 84.89 112.969 85.2379 112.865C84.2289 110.288 83.185 107.711 82.1759 105.135C81.8976 105.309 81.5844 105.483 81.3061 105.657C84.2637 108.547 83.9853 113.213 86.1774 116.59C86.5602 117.182 87.3257 116.66 87.0821 116.068C85.4119 112.203 83.7069 108.338 82.0368 104.473C81.7584 104.682 81.48 104.891 81.2017 105.1C83.3242 107.224 84.2289 110.009 85.1336 112.83C85.5511 114.118 85.9686 115.441 86.4906 116.695C86.7341 117.287 86.9081 117.948 87.5344 118.192C87.7432 118.262 88.0564 118.157 88.126 117.948C88.1607 117.913 88.1607 117.878 88.1955 117.809C88.2999 117.565 88.2999 117.217 88.0216 117.078C87.9868 117.078 87.952 117.043 87.9172 117.043C87.3257 116.729 86.8037 117.635 87.3953 117.948C87.43 117.948 87.4648 117.983 87.4996 117.983C87.43 117.739 87.3605 117.495 87.3257 117.252C87.2909 117.287 87.2909 117.321 87.2561 117.391C87.4648 117.321 87.6388 117.217 87.8476 117.147C87.43 116.973 86.6993 114.153 86.4906 113.491C86.1078 112.342 85.7947 111.193 85.3771 110.079C84.6116 107.955 83.6026 105.936 81.9672 104.334C81.5148 103.881 80.9233 104.438 81.1321 104.961C82.8023 108.826 84.5072 112.69 86.1774 116.555C86.4906 116.381 86.7689 116.207 87.0821 116.033C84.8204 112.551 85.1336 107.92 82.0716 104.891C81.7236 104.543 80.9929 104.891 81.2017 105.413C82.2107 107.99 83.2546 110.566 84.2637 113.143C84.5072 113.77 85.5163 113.491 85.2727 112.865C84.2985 110.253 83.3242 107.607 82.3499 104.995C82.0716 104.404 81.0625 104.647 81.3061 105.274Z" fill="white"/>
<path fill-rule="evenodd" clip-rule="evenodd" d="M82.8716 106.562C86.1423 112.377 88.1605 118.714 88.8912 125.33C88.9607 125.991 90.0046 125.991 89.935 125.33C89.2043 118.505 87.1166 111.994 83.7762 106.005C83.4631 105.448 82.5584 105.97 82.8716 106.562Z" fill="white"/>
<path fill-rule="evenodd" clip-rule="evenodd" d="M83.8455 108.965C87.2555 116.799 89.4128 125.121 90.2827 133.651C90.3523 134.313 91.3961 134.313 91.3265 133.651C90.4566 124.947 88.2297 116.486 84.7502 108.442C84.4718 107.816 83.5672 108.338 83.8455 108.965Z" fill="white"/>
<path fill-rule="evenodd" clip-rule="evenodd" d="M88.5084 121.151C89.4826 125.539 90.0046 130.03 90.0741 134.522C90.0741 135.184 91.118 135.184 91.118 134.522C91.0484 129.926 90.5265 125.365 89.5174 120.873C89.3435 120.211 88.3344 120.49 88.5084 121.151Z" fill="white"/>
<path fill-rule="evenodd" clip-rule="evenodd" d="M169.686 98.4144C176.054 90.789 183.605 84.3126 192.095 79.229C192.686 78.8808 192.129 77.9755 191.573 78.3237C183.013 83.4769 175.358 90.0229 168.956 97.6832C168.538 98.1706 169.269 98.9366 169.686 98.4144Z" fill="white"/>
<path fill-rule="evenodd" clip-rule="evenodd" d="M177.552 96.6388C182.11 92.1123 186.946 87.8992 192.061 83.9994C192.583 83.5816 192.061 82.6763 191.539 83.0942C186.355 87.0635 181.449 91.3115 176.821 95.9076C176.334 96.3602 177.064 97.0914 177.552 96.6388Z" fill="white"/>
<path fill-rule="evenodd" clip-rule="evenodd" d="M187.154 94.9673C190.669 90.6149 194.809 86.9241 199.541 83.9297C200.098 83.5815 199.576 82.6762 199.019 83.0244C194.218 86.0536 189.973 89.8141 186.424 94.2361C186.006 94.7584 186.737 95.4896 187.154 94.9673Z" fill="white"/>
</svg>
