<svg width="613" height="616" viewBox="0 0 613 616" fill="none" xmlns="http://www.w3.org/2000/svg">
<path opacity="0.25" d="M0 428.814L540.432 597.716L487.673 0.731934L0 428.814Z" fill="#FFD803"/>
<path d="M570.827 38.939L570.551 47.531L570.641 56.1231L570.542 64.7152L571.002 73.3073L570.661 81.9027" stroke="#392396" stroke-width="1.5" stroke-miterlimit="10"/>
<path d="M555.277 60.1902L562.984 60.6476L570.691 60.7405L578.401 60.5614L586.108 60.3758" stroke="#392396" stroke-width="1.5" stroke-miterlimit="10"/>
<path d="M398.905 570.604L399.34 579.196L399.134 587.788L398.952 596.38L399.456 604.972L399.131 613.567" stroke="#392396" stroke-width="1.5" stroke-miterlimit="10"/>
<path d="M383.737 591.868L391.44 592.034L399.147 592.259L406.858 591.858L414.565 591.865" stroke="#392396" stroke-width="1.5" stroke-miterlimit="10"/>
<path d="M46.325 34.1389L46.0432 42.1807L46.0167 50.2225L45.9736 58.2644L45.9869 66.3062" stroke="#392396" stroke-width="1.5" stroke-miterlimit="10"/>
<path d="M34.4678 50.1597L42.1615 50.5541L49.8553 50.0105L57.549 50.2823" stroke="#392396" stroke-width="1.5" stroke-miterlimit="10"/>
<path d="M315.613 56.4941L315.292 63.6443L315.703 70.7977L315.099 77.9511L315.209 85.1046" stroke="#392396" stroke-width="1.5" stroke-miterlimit="10"/>
<path d="M305.151 70.6816L311.993 70.8971L318.838 70.9037L325.684 71.096" stroke="#392396" stroke-width="1.5" stroke-miterlimit="10"/>
<path d="M56.0109 556.297L56.349 563.45L55.9612 570.6L56.1766 577.754L56.5048 584.907" stroke="#392396" stroke-width="1.5" stroke-miterlimit="10"/>
<path d="M46.01 570.305L52.8519 570.617L59.697 570.547L66.5388 570.789" stroke="#392396" stroke-width="1.5" stroke-miterlimit="10"/>
<path d="M44.9162 184.408L45.009 191.555L44.8565 198.698L44.4653 205.845" stroke="#392396" stroke-width="1.5" stroke-miterlimit="10"/>
<path d="M37.0005 194.892L44.6909 195.393L52.3814 195.373" stroke="#392396" stroke-width="1.5" stroke-miterlimit="10"/>
<path d="M283.443 593.827L283.081 600.971L283.24 608.117L283.479 615.261" stroke="#392396" stroke-width="1.5" stroke-miterlimit="10"/>
<path d="M275.696 604.717L283.386 604.79L291.077 604.491" stroke="#392396" stroke-width="1.5" stroke-miterlimit="10"/>
<path d="M555.154 588.736L555.452 595.879L555.313 603.026L554.948 610.17" stroke="#392396" stroke-width="1.5" stroke-miterlimit="10"/>
<path d="M547.586 599.714L555.277 599.569L562.967 599.154" stroke="#392396" stroke-width="1.5" stroke-miterlimit="10"/>
<path d="M48.8676 474.977L48.8411 482.121L48.8842 489.264L48.5593 496.411" stroke="#392396" stroke-width="1.5" stroke-miterlimit="10"/>
<path d="M40.8921 485.458L48.5825 485.604L56.273 485.995" stroke="#392396" stroke-width="1.5" stroke-miterlimit="10"/>
<path d="M571.284 311.316L571.108 318.463L571.241 325.607L571.324 332.754" stroke="#392396" stroke-width="1.5" stroke-miterlimit="10"/>
<path d="M563.74 322.13L571.43 322.01L579.12 322.226" stroke="#392396" stroke-width="1.5" stroke-miterlimit="10"/>
<path d="M590.563 107.5L590.477 114.643L590.086 121.787L590.55 128.934" stroke="#392396" stroke-width="1.5" stroke-miterlimit="10"/>
<path d="M582.674 118.114L590.364 117.888L598.055 118.402" stroke="#392396" stroke-width="1.5" stroke-miterlimit="10"/>
<path d="M388.507 21.7515L388.735 28.895L389.057 36.0385L389.04 43.1853" stroke="#392396" stroke-width="1.5" stroke-miterlimit="10"/>
<path d="M381.085 32.2361L388.775 32.4847L396.466 32.2063" stroke="#392396" stroke-width="1.5" stroke-miterlimit="10"/>
<path d="M139.074 21.7515L139.658 28.895L139.23 36.0418L139.343 43.1853" stroke="#392396" stroke-width="1.5" stroke-miterlimit="10"/>
<path d="M131.639 32.6705L139.33 32.2329L147.02 32.3522" stroke="#392396" stroke-width="1.5" stroke-miterlimit="10"/>
<path d="M36.8015 305.476L37.3219 312.619L37.2888 319.766L36.8546 326.909" stroke="#392396" stroke-width="1.5" stroke-miterlimit="10"/>
<path d="M29.3101 316.408L37.0005 316.348L44.6909 316.189" stroke="#392396" stroke-width="1.5" stroke-miterlimit="10"/>
<path d="M579.21 361.778L586.363 356.859L593.795 352.384" stroke="#392396" stroke-width="1.5" stroke-miterlimit="10"/>
<path d="M453.895 593.688L460.028 597.394L466.2 601.03L472.306 604.783" stroke="#392396" stroke-width="1.5" stroke-miterlimit="10"/>
<path d="M333.901 584.98L331.074 592.041L328.352 599.138" stroke="#392396" stroke-width="1.5" stroke-miterlimit="10"/>
<path d="M164.035 604.723L173.393 610.405" stroke="#392396" stroke-width="1.5" stroke-miterlimit="10"/>
<path d="M15.8848 532.251L22.3785 537.565L29.4392 542.103" stroke="#392396" stroke-width="1.5" stroke-miterlimit="10"/>
<path d="M37.1165 396.405L41.6081 388.43" stroke="#392396" stroke-width="1.5" stroke-miterlimit="10"/>
<path d="M15.7688 252.196L22.7532 246.886L29.426 241.194" stroke="#392396" stroke-width="1.5" stroke-miterlimit="10"/>
<path d="M73.6526 139.12L82.6325 139.342" stroke="#392396" stroke-width="1.5" stroke-miterlimit="10"/>
<path d="M76.5532 13.209L83.2658 16.126L89.7861 19.4774" stroke="#392396" stroke-width="1.5" stroke-miterlimit="10"/>
<path d="M22.4583 118.057L29.0283 114.915L35.2569 111.123L41.8236 107.967" stroke="#392396" stroke-width="1.5" stroke-miterlimit="10"/>
<path d="M206.014 6.16162L204.088 12.9637L201.738 19.6332L199.922 26.4717" stroke="#392396" stroke-width="1.5" stroke-miterlimit="10"/>
<path d="M280.224 13.8521L287.152 17.8696L293.894 22.1789L300.763 26.296L307.372 30.8141" stroke="#392396" stroke-width="1.5" stroke-miterlimit="10"/>
<path d="M344.555 32.7534L349.875 35.5511L355.471 37.8086" stroke="#392396" stroke-width="1.5" stroke-miterlimit="10"/>
<path d="M408.323 81.3887L414.508 79.7446L420.734 78.2595" stroke="#392396" stroke-width="1.5" stroke-miterlimit="10"/>
<path d="M458.778 22.0066L465.885 26.2032L472.445 31.1755" stroke="#392396" stroke-width="1.5" stroke-miterlimit="10"/>
<path d="M509.091 32.0142L515.137 26.6441L520.842 20.926" stroke="#392396" stroke-width="1.5" stroke-miterlimit="10"/>
<path d="M506.323 70.5725L514.219 76.0155L521.733 81.9789" stroke="#392396" stroke-width="1.5" stroke-miterlimit="10"/>
<path d="M75.4094 431.188L66.6184 434.738L57.5225 437.367" stroke="#392396" stroke-width="1.5" stroke-miterlimit="10"/>
<path d="M590.202 599.4L583.917 594.61L577.904 589.452L571.443 584.894" stroke="#392396" stroke-width="1.5" stroke-miterlimit="10"/>
<path d="M547.752 506.014L555.267 501.058L563.11 496.646" stroke="#392396" stroke-width="1.5" stroke-miterlimit="10"/>
<path d="M493.329 532.39L495.848 539.563L498.235 546.783" stroke="#392396" stroke-width="1.5" stroke-miterlimit="10"/>
<path d="M611.944 291.901L605.241 298.405L598.131 304.438" stroke="#392396" stroke-width="1.5" stroke-miterlimit="10"/>
<path d="M603.236 60.4189L603.428 52.4997L603.004 44.5806" stroke="#392396" stroke-width="1.5" stroke-miterlimit="10"/>
<path d="M278.417 410.261L271.31 406.253L264.608 401.928L257.729 397.897L250.861 393.856L243.764 390.206L236.806 386.318L230.107 381.979L223.215 377.974L216.254 374.096L209.279 370.234L202.484 366.064L195.642 361.97L188.545 358.321L181.796 354.071L174.918 350.04L167.821 346.391L161.111 342.068L154.22 338.067L147.09 334.467L140.43 330.062L133.366 326.356L126.369 322.534L119.46 318.559L112.572 314.545L105.893 310.169L98.9846 306.195L92.1063 302.161L85.0854 298.382L78.3132 294.165L71.2592 290.436L64.4174 286.346L57.549 282.291L50.4652 278.615L43.3813 274.561L47.8067 267.786L51.3668 260.725L55.3181 253.893L59.6042 247.25L63.4295 240.345L67.3775 233.51L71.2559 226.635L75.2934 219.85L79.3076 213.051L83.0601 206.106L87.2136 199.387L91.2643 192.608L95.0465 185.677L98.6796 178.659L102.992 172.033L107.06 165.267L110.981 158.416L114.631 151.405L118.565 144.56L122.493 137.711L126.813 131.088L130.376 124.034L134.218 117.136L138.617 110.559L142.392 103.621L146.022 96.6004L150.424 90.0271L154.359 83.1786L158.088 76.2141L161.907 69.3027L165.865 62.4708L170.131 55.8146L173.953 49.0688L180.835 52.798L187.571 57.0709L194.737 60.5946L201.645 64.5691L208.249 69.0773L215.475 72.4982L222.098 76.9699L228.99 80.9709L236.153 84.5046L242.899 88.7641L249.913 92.553L256.837 96.4977L263.716 100.529L270.654 104.453L277.552 108.444L284.364 112.591L291.15 116.778L298.001 120.855L304.906 124.843L311.963 128.559L318.699 132.835L325.713 136.627L332.532 140.761L339.51 144.613L346.501 148.451L353.426 152.399L360.145 156.705L367.301 160.252L374.027 164.545L381.121 168.208L388.042 172.162L394.662 176.647L401.819 180.198L408.482 184.417L404.583 191.17L400.708 198.048L396.585 204.78L392.617 211.602L388.987 218.623L384.744 225.289L380.896 232.181L376.974 239.033L372.973 245.835L368.909 252.607L364.974 259.449L361.494 266.556L357.287 273.242L353.326 280.07L349.368 286.902L345.559 293.817L341.658 300.682L337.773 307.554L333.583 314.253L329.592 321.065L325.753 327.963L321.623 334.696L317.774 341.587L313.783 348.399L309.663 355.139L306.255 362.285L302.069 368.988L298.363 375.962L293.924 382.519L290.145 389.457L286.061 396.216L282.16 403.084L278.417 410.261Z" fill="#FFD803"/>
<path d="M545.822 332.027L545.401 339.904L545.123 347.776L544.427 355.626L543.8 363.489L542.368 371.245L540.959 379.002L539.458 386.746L537.26 394.323L535.129 401.918L532.099 409.21L529.716 416.728L526.444 423.898L523.079 431.015L520.102 438.338L516.062 445.117L511.895 451.8L507.748 458.492L503.339 465.016L498.808 471.466L493.743 477.5L488.704 483.549L483.739 489.685L478.064 495.164L472.587 500.843L466.425 505.778L460.346 510.774L454.167 515.647L447.932 520.46L441.401 524.859L434.692 528.982L427.94 533.027L421.088 536.918L414.008 540.366L406.96 543.912L399.611 546.773L392.239 549.551L384.731 551.948L377.282 554.56L369.532 556.088L361.925 558.17L354.168 559.585L346.365 560.702L338.558 561.849L330.676 562.2L322.816 562.863L314.93 562.582L307.051 562.612L299.175 562.333L291.358 561.299L283.462 560.944L275.676 559.675L267.929 558.196L260.308 556.157L252.714 554.072L245.176 551.798L237.661 549.445L230.239 546.79L222.88 543.952L215.906 540.253L208.693 537.061L201.877 533.103L194.9 529.417L188.439 524.885L181.73 520.735L175.451 515.962L169.355 510.966L163.283 505.948L157.641 500.442L151.641 495.317L146.44 489.383L140.894 483.775L136.167 477.456L131.069 471.447L126.451 465.066L121.824 458.681L117.571 452.038L113.746 445.143L109.996 438.212L106.304 431.241L103.208 423.988L100.171 416.715L97.2906 409.376L95.2321 401.759L92.9681 394.221L90.7305 386.666L89.2322 378.933L87.2997 371.279L86.345 363.449L85.5163 355.616L84.9063 347.763L84.3992 339.904L84.376 332.027L84.6213 324.158L84.5716 316.269L85.208 308.409L86.1328 300.576L87.4919 292.81L88.798 285.033L91.0355 277.462L92.7228 269.768L94.768 262.151L97.4033 254.719L100.436 247.443L102.995 239.974L106.367 232.841L109.754 225.717L114.011 219.061L117.939 212.242L122.251 205.656L126.61 199.102L131.294 192.774L136.131 186.565L140.911 180.294L146.393 174.625L151.77 168.868L157.366 163.312L163.306 158.134L169.485 153.248L175.683 148.398L181.915 143.579L188.207 138.815L195.201 135.129L201.722 130.674L208.643 126.898L215.793 123.564L222.937 120.229L230.246 117.279L237.542 114.275L245.086 111.968L252.647 109.751L260.348 108.067L268.012 106.263L275.759 104.861L283.469 103.171L291.362 102.793L299.178 101.762L307.057 101.636L314.93 101.175L322.803 101.609L330.686 101.739L338.545 102.335L346.381 103.24L354.155 104.556L361.878 106.114L369.595 107.722L377.146 109.986L384.665 112.316L392.262 114.431L399.701 117.063L406.794 120.534L414.014 123.676L421.032 127.253L427.983 130.956L434.742 134.996L441.322 139.322L448.16 143.28L454.459 148.027L460.455 153.152L466.601 158.081L472.554 163.252L478.14 168.821L483.52 174.579L488.764 180.456L493.683 186.609L498.629 192.731L503.372 199.016L508.086 205.344L511.902 212.256L516.208 218.862L519.619 225.972L523.603 232.791L526.669 240.06L529.904 247.257L532.57 254.679L535.043 262.167L537.058 269.788L539.226 277.366L540.625 285.126L542.633 292.766L543.548 300.603L544.178 308.456L545.435 316.259L545.352 324.155L545.822 332.027Z" stroke="#392396" stroke-width="1.5" stroke-miterlimit="10"/>
<path d="M276.538 404.122L269.613 400.124L262.675 396.2L255.754 392.252L248.971 388.058L242.163 383.908L235.162 380.096L228.343 375.962L221.455 371.958L214.255 368.488L207.582 364.099L200.492 360.442L193.713 356.239L186.715 352.42L180.003 348.104L173.098 344.123L166.176 340.172L159.156 336.39L152.218 332.462L145.366 328.384L138.554 324.244L131.44 320.624L124.519 316.667L117.747 312.453L110.842 308.476L104.06 304.276L97.1349 300.328L90.1836 296.423L83.1031 292.747L76.4933 288.248L69.4261 284.546L62.3853 280.79L55.7192 276.391L48.8873 272.277L41.5051 268.661L45.9702 261.859L49.4574 254.758L53.3723 247.903L57.4064 241.118L61.603 234.425L65.5378 227.583L69.5222 220.768L73.2713 213.817L77.4579 207.121L81.4755 200.325L84.9628 193.222L89.3185 186.622L93.3361 179.823L97.1249 172.898L101.073 166.06L104.776 159.082L109.128 152.479L112.705 145.428L116.57 138.543L120.611 131.761L124.748 125.032L128.918 118.326L132.345 111.189L136.389 104.407L140.4 97.605L144.381 90.7896L148.147 83.845L152.274 77.1126L156.166 70.2409L160.485 63.6178L164.251 56.6699L167.887 49.6524L172.037 42.7874L178.886 47.1033L185.956 50.796L192.851 54.7904L199.779 58.7351L206.744 62.6101L213.619 66.641L220.344 70.9403L227.259 74.8983L234.224 78.7766L241.059 82.8771L248.003 86.7886L254.769 91.0117L261.8 94.7807L268.734 98.7121L275.779 102.455L282.362 106.986L289.373 110.788L296.175 114.952L303.272 118.598L310.031 122.838L317.075 126.58L324.039 130.462L330.885 134.542L337.63 138.802L344.767 142.382L351.692 146.333L358.318 150.798L365.303 154.647L372.28 158.505L379.258 162.364L386.034 166.577L393.098 170.286L399.91 174.433L406.622 178.51L402.585 185.15L398.65 191.992L395.14 199.079L390.724 205.646L387.234 212.746L383.173 219.515L379.082 226.271L375.194 233.139L371.196 239.948L367.149 246.723L363.36 253.651L359.226 260.384L355.62 267.415L351.337 274.057L347.419 280.913L343.653 287.854L339.775 294.729L335.804 301.551L331.813 308.366L327.994 315.278L323.99 322.08L319.949 328.862L316.133 335.773L311.947 342.476L308.334 349.503L304.084 356.166L300.113 362.991L296.148 369.82L292.402 376.775L288.66 383.732L284.195 390.273L280.237 397.108L276.538 404.122Z" stroke="#392396" stroke-width="1.5" stroke-miterlimit="10"/>
<path d="M116.981 346.696C116.981 346.696 79.2645 308.595 83.5009 299.154C87.7372 289.714 88.5626 295.946 92.5172 288.298C96.4719 280.651 101.706 283.76 105.846 277.644C109.211 272.672 115.854 276.063 122.049 273.958C132.922 270.265 149.019 280.919 149.019 336.43L116.981 346.696Z" fill="white" stroke="#392396" stroke-width="1.5" stroke-miterlimit="10"/>
<path d="M26.7144 366.84L33.6324 362.803L40.4113 358.54L47.0112 353.995L53.7237 349.629L60.7313 345.738L67.3743 341.259L74.2957 337.229L81.1143 333.029L87.6379 328.361L94.5328 324.287L101.361 320.104L108.041 315.689L114.873 311.512L121.754 307.415L128.44 303.003L135.335 298.929L141.905 294.334L148.575 289.902L155.38 285.683L162.229 281.529L169.001 277.26L175.76 272.967L182.671 268.92L189.308 264.431L196.302 260.513L202.829 255.859L209.773 251.858L216.519 247.552L223.417 243.478L230.097 239.063L236.823 234.724L243.568 230.404L250.268 226.022L257.235 222.061L263.994 217.768L270.694 213.379L277.559 209.259L284.48 205.221L290.994 200.538L297.736 196.222L304.744 192.323L311.33 187.756L318.099 183.479L325.027 179.455L331.693 175.01L338.482 170.767L345.221 166.438L352.269 162.606L359.054 158.35L365.727 153.918L372.42 149.519L379.328 145.461L386.1 141.189L392.948 137.035L399.528 132.457L406.476 128.466L413.096 123.945L419.855 119.652L426.859 115.744L433.472 111.219L440.235 106.923L446.904 102.481L453.902 98.563" stroke="#392396" stroke-width="1.5" stroke-miterlimit="10"/>
<path d="M88.3572 304.349C88.3572 304.349 115.148 339.41 116.096 314.976L88.3572 304.349Z" fill="white"/>
<path d="M88.3572 304.349C88.3572 304.349 115.148 339.41 116.096 314.976" stroke="#392396" stroke-width="1.5" stroke-miterlimit="10"/>
<path d="M111.538 297.242C111.538 297.242 126.097 316.537 129.882 311.926C133.668 307.315 115.837 279.547 115.837 279.547" fill="white"/>
<path d="M111.538 297.242C111.538 297.242 126.097 316.537 129.882 311.926C133.668 307.315 115.837 279.547 115.837 279.547" stroke="#392396" stroke-width="1.5" stroke-miterlimit="10"/>
<path d="M119.964 286.309C119.964 286.309 130.164 305.127 134.738 305.472C139.313 305.817 131.37 280.942 131.37 280.942" fill="white"/>
<path d="M119.964 286.309C119.964 286.309 130.164 305.127 134.738 305.472C139.313 305.817 131.37 280.942 131.37 280.942" stroke="#392396" stroke-width="1.5" stroke-miterlimit="10"/>
<path d="M148.425 325.719C148.425 325.719 154.495 301.391 151.909 296.393C149.324 291.394 136.933 290.373 129.077 295.571C121.22 300.768 130.237 301.975 141.196 304.189C131.424 311.843 126.345 326.664 126.345 326.664" fill="white"/>
<path d="M148.425 325.719C148.425 325.719 154.495 301.391 151.909 296.393C149.324 291.394 136.933 290.373 129.077 295.571C121.22 300.768 130.237 301.975 141.196 304.189C131.424 311.843 126.345 326.664 126.345 326.664" stroke="#392396" stroke-width="1.5" stroke-miterlimit="10"/>
<path d="M211.686 274.216L208.481 267.318L206.614 259.943L205.225 252.494L203.989 244.993L204.367 237.395L204.33 229.791L205.371 222.253L207.069 214.841L209.104 207.482L215.823 210.346L222.347 213.624L229.248 216.482L227.176 208.155L225.095 199.99L223.271 191.76L221.641 183.489L219.536 175.328L217.55 167.333L210.34 171.31L202.882 175.242L195.619 179.511L188.177 183.469L180.729 187.417L173.768 191.846L179.927 194.756L186.304 197.73L192.845 200.345L190.826 208.261L188.664 216.15L187.574 224.255L186.444 232.357L186.407 240.541L187.053 249.024L187.69 257.533L189.805 265.793L192.417 273.895L195.334 281.917L198.891 288.659L202.978 295.09L207.685 301.07L212.392 307.06L218.097 312.115L223.663 317.293L230.445 322.292L237.668 326.614L244.805 331.116L252.707 334.079L260.474 337.295L263.361 328.951L266.298 320.538L258.349 317.78L251.173 313.895L243.78 310.388L237.068 305.711L230.786 300.467L225.433 294.284L219.907 288.285L215.352 281.502L211.686 274.216Z" fill="white"/>
<path d="M211.686 274.216L208.481 267.318L206.614 259.943L205.225 252.494L203.989 244.993L204.367 237.395L204.33 229.791L205.371 222.253L207.069 214.841L209.104 207.482L215.823 210.346L222.347 213.624L229.248 216.482L227.176 208.155L225.095 199.99L223.271 191.76L221.641 183.489L219.536 175.328L217.55 167.333L210.34 171.31L202.882 175.242L195.619 179.511L188.177 183.469L180.729 187.417L173.768 191.846L179.927 194.756L186.304 197.73L192.845 200.345L190.826 208.261L188.664 216.15L187.574 224.255L186.444 232.357L186.407 240.541L187.053 249.024L187.69 257.533L189.805 265.793L192.417 273.895L195.334 281.917L198.891 288.659L202.978 295.09L207.685 301.07L212.392 307.06L218.097 312.115L223.663 317.293L230.445 322.292L237.668 326.614L244.805 331.116L252.707 334.079L260.474 337.295L263.361 328.951L266.298 320.538L258.349 317.78L251.173 313.895L243.78 310.388L237.068 305.711L230.786 300.467L225.433 294.284L219.907 288.285L215.352 281.502L211.686 274.216Z" stroke="#392396" stroke-width="1.5" stroke-miterlimit="10"/>
<path d="M286.658 383.639L282.093 390.113L277.963 396.869L273.488 403.393L268.655 409.664L264.054 416.102L259.4 422.503L254.53 428.741L249.605 434.937L244.457 440.95L239.508 447.135L234.303 453.105L228.917 458.91L223.182 464.379L217.639 470.024L212.243 475.819L206.492 481.262L200.823 486.791L194.499 491.581L188.727 497.017L182.283 501.628L175.713 506.037L168.716 509.696L161.237 511.851L153.378 511.742L147.381 506.677L143.427 499.858L140.427 492.575L138.266 485.001L135.925 477.496L133.89 469.898L131.493 462.387L129.624 454.736L128.142 446.999L126.435 439.316L124.721 431.632L123.806 423.789L122.182 416.088L120.856 408.328L119.248 400.621L118.138 392.825L116.593 385.105L114.982 377.391L114.18 369.545L112.43 361.854L111.448 354.038L110.02 346.294L108.966 338.316L116.931 340.331L125.043 340.805L133.091 339.605L141.086 338.166L148.896 336.698L151.323 343.987L152.99 351.714L155.032 359.342L157.004 366.986L159.295 374.55L160.78 382.317L162.935 389.921L164.655 397.628L166.667 405.269L168.427 412.969L169.919 420.733L171.59 428.453L172.826 436.253L179.197 433.472L184.372 427.197L189.831 421.134L194.518 414.471L198.96 407.642L203.996 401.228L208.126 394.194L213.015 387.67L217.222 380.693L221.488 373.758L225.877 366.899L230.229 360.021L234.24 353.275L238.689 346.812L243.383 340.513L248.872 334.891L254.017 328.964L259.791 323.651L265.837 318.639L272.547 314.548L279.166 310.368L286.244 307.02L293.397 303.845L300.736 301.09L308.271 298.905L315.945 297.238L323.715 296.128L331.544 295.634L339.374 295.349L347.207 294.765L355.295 295.176L363.377 295.637L371.438 296.396L379.43 297.725L387.36 299.379L395.169 301.521L402.83 304.169L410.298 307.295L417.624 310.739L424.728 314.628L431.868 318.45L438.488 323.134L445.519 327.161L452.065 331.938L459.033 336.068L465.742 340.603L472.853 344.488L479.927 348.416L487.037 352.264L494.054 356.305L501.357 359.802L509.164 363.654L517.05 367.327L525.055 370.745L533.093 374.076L541.172 377.146L539.17 384.647L537.545 392.298L535.043 399.71L533.286 407.347L530.558 414.683L527.462 421.866L524.389 429.159L517.136 425.904L509.82 423.083L502.365 420.636L495.052 417.809L487.62 415.3L480.361 412.329L473.091 409.386L465.563 407.128L458.294 404.185L451.005 401.291L443.566 398.798L436.353 395.699L428.968 393.057L421.546 390.524L414.054 388.181L406.867 385.015L399.429 382.529" fill="white"/>
<path d="M286.658 383.639L282.093 390.113L277.963 396.869L273.488 403.393L268.655 409.664L264.054 416.102L259.4 422.503L254.53 428.741L249.605 434.937L244.457 440.95L239.508 447.135L234.303 453.105L228.917 458.91L223.182 464.379L217.639 470.024L212.243 475.819L206.492 481.262L200.823 486.791L194.499 491.581L188.727 497.017L182.283 501.628L175.713 506.037L168.716 509.696L161.237 511.851L153.378 511.742L147.381 506.677L143.427 499.858L140.427 492.575L138.266 485.001L135.925 477.496L133.89 469.898L131.493 462.387L129.624 454.736L128.142 446.999L126.435 439.316L124.721 431.632L123.806 423.789L122.182 416.088L120.856 408.328L119.248 400.621L118.138 392.825L116.593 385.105L114.982 377.391L114.18 369.545L112.43 361.854L111.448 354.038L110.02 346.294L108.966 338.316L116.931 340.331L125.043 340.805L133.091 339.605L141.086 338.166L148.896 336.698L151.323 343.987L152.99 351.714L155.032 359.342L157.004 366.986L159.295 374.55L160.78 382.317L162.935 389.921L164.655 397.628L166.667 405.269L168.427 412.969L169.919 420.733L171.59 428.453L172.826 436.253L179.197 433.472L184.372 427.197L189.831 421.134L194.518 414.471L198.96 407.642L203.996 401.228L208.126 394.194L213.015 387.67L217.222 380.693L221.488 373.758L225.877 366.899L230.229 360.021L234.24 353.275L238.689 346.812L243.383 340.513L248.872 334.891L254.017 328.964L259.791 323.651L265.837 318.639L272.547 314.548L279.166 310.368L286.244 307.02L293.397 303.845L300.736 301.09L308.271 298.905L315.945 297.238L323.715 296.128L331.544 295.634L339.374 295.349L347.207 294.765L355.295 295.176L363.377 295.637L371.438 296.396L379.43 297.725L387.36 299.379L395.169 301.521L402.83 304.169L410.298 307.295L417.624 310.739L424.728 314.628L431.868 318.45L438.488 323.134L445.519 327.161L452.065 331.938L459.033 336.068L465.742 340.603L472.853 344.488L479.927 348.416L487.037 352.264L494.054 356.305L501.357 359.802L509.164 363.654L517.05 367.327L525.055 370.745L533.093 374.076L541.172 377.146L539.17 384.647L537.545 392.298L535.043 399.71L533.286 407.347L530.558 414.683L527.462 421.866L524.389 429.159L517.136 425.904L509.82 423.083L502.365 420.636L495.052 417.809L487.62 415.3L480.361 412.329L473.091 409.386L465.563 407.128L458.294 404.185L451.005 401.291L443.566 398.798L436.353 395.699L428.968 393.057L421.546 390.524L414.054 388.181L406.867 385.015L399.429 382.529" stroke="#392396" stroke-width="1.5" stroke-miterlimit="10"/>
<path d="M120.521 408.203L114.571 413.41L108.992 419.112L103.914 425.016L100.357 415.827L96.7073 406.665L102.154 401.46L107.64 396.12L113.48 391.151L116.895 388.668L118.393 395.096L119.712 401.62L120.521 408.203Z" fill="white"/>
<path d="M120.521 408.203L114.571 413.41L108.992 419.112L103.914 425.016L100.357 415.827L96.7073 406.665L102.154 401.46L107.64 396.12L113.48 391.151L116.895 388.668L118.393 395.096L119.712 401.62L120.521 408.203Z" stroke="#392396" stroke-width="1.5" stroke-miterlimit="10"/>
<path d="M164.121 395.533L168.232 396.097L174.464 400.569L180.033 405.856L185.147 411.584L189.937 417.594L194.247 423.958L198.626 430.286L202.736 436.797L206.236 443.658L210.304 450.205L214.142 456.878L217.649 463.69L221.428 470.346L225.071 477.082L228.824 483.765L233.246 490.026L237.92 496.086L242.836 501.93L248.03 507.542L254.093 512.213L260.819 515.866L268.118 518.213L274.708 518.581L282.083 517.947L289.091 515.571L295.82 512.508L302.185 508.692L307.84 504.042L302.244 497.25L296.592 490.444L291.017 494.757L285.007 498.343L278.411 500.68L271.446 500.607L264.289 498.022L258.551 492.993L253.287 487.501L248.716 481.401L244.46 475.083L240.522 468.56L236.524 462.069L233.027 455.294L229.159 448.727L225.86 441.577L221.979 434.741L217.785 428.092L213.731 421.366L209.661 414.644L204.934 408.369L200.608 401.785L195.065 396.193L189.782 390.389L183.656 385.483L177.351 380.822L168.875 377.895L159.921 377.696L161.801 386.643L164.121 395.533Z" fill="white"/>
<path d="M164.121 395.533L168.232 396.097L174.464 400.569L180.033 405.856L185.147 411.584L189.937 417.594L194.247 423.958L198.626 430.286L202.736 436.797L206.236 443.658L210.304 450.205L214.142 456.878L217.649 463.69L221.428 470.346L225.071 477.082L228.824 483.765L233.246 490.026L237.92 496.086L242.836 501.93L248.03 507.542L254.093 512.213L260.819 515.866L268.118 518.213L274.708 518.581L282.083 517.947L289.091 515.571L295.82 512.508L302.185 508.692L307.84 504.042L302.244 497.25L296.592 490.444L291.017 494.757L285.007 498.343L278.411 500.68L271.446 500.607L264.289 498.022L258.551 492.993L253.287 487.501L248.716 481.401L244.46 475.083L240.522 468.56L236.524 462.069L233.027 455.294L229.159 448.727L225.86 441.577L221.979 434.741L217.785 428.092L213.731 421.366L209.661 414.644L204.934 408.369L200.608 401.785L195.065 396.193L189.782 390.389L183.656 385.483L177.351 380.822L168.875 377.895L159.921 377.696L161.801 386.643L164.121 395.533Z" stroke="#392396" stroke-width="1.5" stroke-miterlimit="10"/>
<path d="M450.275 448.773L445.197 441.54L440.745 433.661L445.343 441.175L440.586 434.005L447.869 428.851L453.882 422.483L459.965 416.218L464.827 409.416L469.342 402.375L472.462 394.615L475.034 386.669L476.138 378.389L476.469 370.022L475.229 362.435L473.99 354.87L471.951 347.468L468.882 340.44L465.898 333.343L461.715 326.873L456.65 321.085L451.475 315.403L445.422 310.667L439.422 305.853L432.627 302.244L425.726 298.896L418.648 295.942L411.067 293.695L403.258 292.432L395.352 292.395L387.432 292.388L379.57 293.453L371.995 295.796L364.451 298.15L357.281 301.481L350.263 305.137L343.667 309.549L337.743 314.83L332.588 320.837L327.696 326.747L320.31 322.033L312.905 317.157L317.778 310.282L323.482 304.229L329.399 298.382L335.966 293.264L343.007 288.832L350.449 285.142L357.904 281.473L365.753 278.721L373.089 277.16L380.395 275.503L387.843 274.707L395.328 274.449L402.833 274.396L410.268 275.41L417.581 277.057L424.658 279.471L432.037 282.434L439.26 285.779L446.205 289.674L452.821 294.102L458.993 299.124L465.079 304.256L470.512 310.086L475.667 316.279L480.222 322.941L483.543 330.294L487.309 337.421L489.712 345.118L491.568 352.944L493.312 360.81L493.766 368.859L494.018 376.864L492.971 384.8L491.668 392.696L489.636 400.472L485.989 407.639L482.718 414.981L477.828 421.366L472.962 427.707L468.179 433.893L462.507 439.269L456.583 444.368L450.275 448.773Z" fill="white"/>
<path d="M450.275 448.773L445.197 441.54L440.745 433.661L445.343 441.175L440.586 434.005L447.869 428.851L453.882 422.483L459.965 416.218L464.827 409.416L469.342 402.375L472.462 394.615L475.034 386.669L476.138 378.389L476.469 370.022L475.229 362.434L473.99 354.87L471.951 347.468L468.882 340.44L465.898 333.343L461.715 326.873L456.65 321.085L451.475 315.403L445.422 310.667L439.422 305.853L432.627 302.244L425.726 298.896L418.648 295.942L411.067 293.695L403.258 292.432L395.352 292.395L387.432 292.388L379.57 293.453L371.995 295.796L364.451 298.15L357.281 301.481L350.263 305.137L343.667 309.549L337.743 314.83L332.588 320.837L327.696 326.747L320.31 322.033L312.905 317.157L317.778 310.282L323.482 304.229L329.399 298.382L335.966 293.264L343.007 288.832L350.449 285.142L357.904 281.473L365.753 278.721L373.089 277.16L380.395 275.503L387.843 274.707L395.328 274.449L402.833 274.396L410.268 275.41L417.581 277.057L424.658 279.471L432.037 282.434L439.26 285.779L446.205 289.674L452.821 294.102L458.993 299.124L465.079 304.256L470.512 310.086L475.667 316.279L480.222 322.941L483.543 330.294L487.309 337.421L489.712 345.118L491.568 352.944L493.312 360.81L493.766 368.859L494.018 376.864L492.97 384.8L491.668 392.696L489.636 400.472L485.989 407.639L482.718 414.981L477.828 421.366L472.962 427.707L468.179 433.893L462.507 439.269L456.583 444.368L450.275 448.773Z" stroke="#392396" stroke-width="1.5" stroke-miterlimit="10"/>
<path d="M344.33 352.129L351.284 348.655L357.35 343.782L362.913 338.302L367.968 332.336L372.841 326.206L376.984 319.557L381.625 313.235L385.424 306.384L389.359 299.877L399.141 303.248L395.713 296.356L391.062 290.522L385.394 285.56L378.128 282.212L370.693 279.325L363.208 276.593L355.7 273.895L348.009 271.783L340.292 269.755L332.469 268.203L324.58 266.937L316.594 266.977L308.695 267.699L301.124 269.937L293.908 273.275L287.646 278.178L281.613 283.316L275.835 288.785L271.135 295.209L266.537 301.703L263.394 309.012L260.524 316.395L259.38 324.075L264.498 320.316L269.461 316.487L275.673 320.883L281.792 325.55L288.04 330.048L294.428 334.351L301.3 337.865L307.77 342.058L314.781 345.247L321.855 348.25L329.111 350.786L336.672 352.036L344.33 352.129Z" fill="white"/>
<path d="M344.33 352.129L351.284 348.655L357.35 343.782L362.913 338.302L367.968 332.336L372.841 326.206L376.984 319.557L381.625 313.235L385.424 306.384L389.359 299.877L399.141 303.248L395.713 296.356L391.062 290.522L385.394 285.56L378.128 282.212L370.693 279.325L363.208 276.593L355.7 273.895L348.009 271.783L340.292 269.755L332.469 268.203L324.58 266.937L316.594 266.977L308.695 267.699L301.124 269.937L293.908 273.275L287.646 278.178L281.613 283.316L275.835 288.785L271.135 295.209L266.537 301.703L263.394 309.012L260.524 316.395L259.38 324.075L264.498 320.316L269.461 316.487L275.673 320.883L281.792 325.55L288.04 330.048L294.428 334.351L301.3 337.865L307.77 342.058L314.781 345.247L321.855 348.25L329.111 350.786L336.672 352.036L344.33 352.129Z" stroke="#392396" stroke-width="1.5" stroke-miterlimit="10"/>
<path d="M263.477 362.995L263.335 371L263.262 378.992L263.918 386.958L264.024 394.963L265.31 402.862L266.311 410.785L267.18 418.747L269.093 426.517L270.684 434.35L272.729 442.08L275.265 449.665L277.754 457.252L280.118 464.89L282.872 472.398L285.912 479.793L289.509 486.943L292.754 494.249L296.467 501.33L300.421 508.274L304.369 515.226L308.702 521.945L312.855 528.783L317.347 535.406L322.14 541.814L327.384 547.86L332.333 554.142L337.352 560.38L338.797 561.299L346.67 560.354L354.622 559.575L362.455 558.03L370.122 555.793L377.972 554.281L385.507 551.629L393.058 549.073L400.639 546.567L407.988 543.448L415.218 540.064L422.344 536.467L429.14 532.27L435.978 528.183L442.784 524.03L449.483 519.694L455.675 514.655L462.209 510.048L468.232 504.804L473.837 499.112L479.453 493.457L485.429 487.855L480.782 481.199L475.796 475.03L471.789 468.198L467.539 461.532L463.657 454.643L459.414 447.964L455.407 441.142L451.648 434.181L448.17 427.071L445.164 419.748L441.756 412.611L438.581 405.365L435.969 397.897L433.154 390.501L431.132 382.851L428.517 375.366L426.674 367.662L425.523 359.826L424.357 352.006" fill="white"/>
<path d="M263.477 362.995L263.335 371L263.262 378.992L263.918 386.958L264.024 394.963L265.31 402.862L266.311 410.785L267.18 418.747L269.093 426.517L270.684 434.35L272.729 442.08L275.265 449.665L277.754 457.252L280.118 464.89L282.872 472.398L285.912 479.793L289.509 486.943L292.754 494.249L296.467 501.33L300.421 508.274L304.369 515.226L308.702 521.945L312.855 528.783L317.347 535.406L322.14 541.814L327.384 547.86L332.333 554.142L337.352 560.38L338.797 561.299L346.67 560.354L354.622 559.575L362.455 558.03L370.122 555.793L377.972 554.281L385.507 551.629L393.058 549.073L400.639 546.567L407.988 543.448L415.218 540.064L422.344 536.467L429.14 532.27L435.978 528.183L442.784 524.03L449.483 519.694L455.675 514.655L462.209 510.048L468.232 504.804L473.837 499.112L479.453 493.457L485.429 487.855L480.782 481.199L475.796 475.03L471.789 468.198L467.539 461.532L463.657 454.643L459.414 447.964L455.407 441.142L451.648 434.181L448.17 427.071L445.164 419.748L441.756 412.611L438.581 405.365L435.969 397.897L433.154 390.501L431.132 382.851L428.517 375.366L426.674 367.662L425.523 359.826L424.357 352.006" stroke="#392396" stroke-width="1.5" stroke-miterlimit="10"/>
<path d="M344.253 259.565L344.671 267.766L345.423 275.95L347.479 283.912L350.754 291.457L356.532 297.268L353.167 303.971L349.7 310.554L346.03 317.044L341.369 322.872L335.32 326.976L328.024 326.021L321.487 322.099L315.709 317.15L310.114 312.022L304.518 306.884L299.138 301.385L304.949 296.804L308.659 290.499L311.247 283.687L313.127 276.597L311.751 268.382L308.539 260.639L303.696 253.767L300.083 246.199L297.255 238.347L297.07 229.993" fill="white"/>
<path d="M344.253 259.565L344.671 267.766L345.423 275.95L347.479 283.912L350.754 291.457L356.532 297.268L353.167 303.971L349.7 310.554L346.03 317.044L341.369 322.872L335.32 326.976L328.024 326.021L321.487 322.099L315.709 317.15L310.114 312.022L304.518 306.884L299.138 301.385L304.949 296.804L308.659 290.499L311.247 283.687L313.127 276.597L311.751 268.382L308.539 260.639L303.696 253.767L300.083 246.199L297.255 238.347L297.07 229.993" stroke="#392396" stroke-width="1.5" stroke-miterlimit="10"/>
<path d="M318.543 248.407L315.003 257.404L311.267 266.361L305.675 260.788L298.611 257.639L291.706 255.693L286.416 250.933L284.788 243.995L286.104 238.111L289.466 232.92L282.866 226.917L282.166 218.033L284.987 211.629L290.984 208.059L296.297 204.022L297.209 196.944L299.748 190.265L304.661 185.028L311.102 181.812L318.636 181.109L325.776 183.224L332.396 186.42L340.123 183.579L348.44 182.452L356.641 184.288L363.629 188.568L368.289 195.214L368.684 203.266L363.095 209.063L358.308 214.831L354.135 221.073L349.912 227.285L345.437 233.312L340.905 239.302L336.42 245.281L327.387 246.929L318.311 248.484" fill="#392396"/>
<path d="M318.543 248.407L315.003 257.404L311.267 266.361L305.675 260.788L298.611 257.639L291.706 255.693L286.416 250.933L284.788 243.995L286.104 238.111L289.466 232.92L282.866 226.917L282.166 218.033L284.987 211.629L290.984 208.059L296.297 204.022L297.209 196.944L299.748 190.265L304.661 185.028L311.102 181.812L318.636 181.109L325.776 183.224L332.396 186.42L340.123 183.579L348.44 182.452L356.641 184.288L363.629 188.568L368.289 195.214L368.684 203.266L363.095 209.063L358.308 214.831L354.135 221.073L349.912 227.285L345.437 233.312L340.905 239.302L336.42 245.281L327.387 246.929L318.311 248.484" stroke="#392396" stroke-width="1.5" stroke-miterlimit="10"/>
<path d="M323.734 257.344L326.847 264.61L331.736 270.736L337.657 275.808L344.644 279.365L352.318 281.042L360.038 277.644L363.473 269.467L365.06 260.752L365.511 252.15L375.449 250.191L374.282 243.21L372.569 236.345L371.246 229.417L370.487 220.725L367.868 212.408L364.189 204.628L358.162 198.482L353.714 205.742L349.166 212.919L342.708 218.481L334.411 220.543L335.635 228.836L337.203 236.626L327.125 239.053L326.045 231.422L322.057 224.703L314.95 222.406L309.172 226.708L308.861 234.372L310.757 241.741L314.672 248.179L323.608 251.444" fill="white"/>
<path d="M323.734 257.344L326.847 264.61L331.736 270.736L337.657 275.808L344.644 279.365L352.318 281.042L360.038 277.644L363.473 269.467L365.06 260.752L365.511 252.15L375.449 250.191L374.282 243.21L372.569 236.345L371.246 229.417L370.487 220.725L367.868 212.408L364.189 204.628L358.162 198.482L353.714 205.742L349.166 212.919L342.708 218.481L334.411 220.543L335.635 228.836L337.203 236.626L327.125 239.053L326.045 231.422L322.057 224.703L314.95 222.406L309.172 226.708L308.861 234.372L310.757 241.741L314.672 248.179L323.608 251.444" stroke="#392396" stroke-width="1.5" stroke-miterlimit="10"/>
<path d="M321.918 235.811C321.918 235.811 323.158 229.884 316.558 227.597C312.023 226.029 310.061 236.57 317.99 244.038C321.968 247.784 323.98 243.756 319.677 239.871C316.853 237.322 318.765 235.589 322.259 238.26" fill="white"/>
<path d="M321.918 235.811C321.918 235.811 323.158 229.884 316.558 227.597C312.023 226.029 310.061 236.57 317.99 244.038C321.968 247.784 323.98 243.756 319.677 239.871C316.853 237.322 318.765 235.589 322.259 238.26" stroke="#392396" stroke-width="1.5" stroke-miterlimit="10"/>
<path d="M368.813 230.093L376.547 227.434L384.131 225.273L391.556 222.624L398.998 220.029L406.652 218.083L414.061 215.382L421.635 213.187L429.103 210.668L436.525 208.016L444.126 205.908L451.518 203.153L458.964 200.558L466.614 198.605L473.993 195.807L481.495 193.394L489.102 191.296L496.484 188.515L504.075 186.367L511.487 183.682L519.095 181.59L526.543 179.001L534.058 176.628L541.503 174.035L548.968 171.506L556.433 168.974L563.878 166.375L571.489 164.287L578.971 161.8L586.443 159.371L586.622 167.051L586.767 174.761L586.439 182.468L586.386 190.179L586.612 197.886L586.227 205.596L586.449 213.303L586.714 221.013L586.184 228.72L586.194 236.431L586.482 244.141L586.668 251.851L586.217 259.558L586.784 267.269L586.443 274.982L586.409 282.623L578.719 280.73L570.913 279.043L563.129 277.253L555.475 274.933L547.612 273.471L539.862 271.558L532.056 269.851L524.428 267.425L516.688 265.462L508.782 264.173L501.115 261.899L493.299 260.251L485.489 258.567L477.726 256.691L469.979 254.752L462.312 252.478L454.528 250.675L446.748 248.871L438.952 247.141L431.188 245.268L423.438 243.332L415.774 241.048L407.922 239.534L400.125 237.806L392.348 235.973L384.711 233.573L376.911 231.84L368.813 230.093Z" stroke="#392396" stroke-width="1.5" stroke-miterlimit="10"/>
<path d="M447 107.904L454.379 109.727L461.652 112.465L468.815 115.505L475.418 119.629L481.461 124.588L485.618 131.204L488.784 138.792L491.631 146.486L495.616 153.659L501.503 159.341L508.229 163.958L515.399 167.989L523.136 170.79L530.992 173.223L539.047 174.894L546.731 177.188L554.289 179.936L561.14 184.139L567.82 188.581L573.767 193.957L579.664 199.414L584.45 205.864L589.386 212.192L593.715 218.965L597.295 226.161L600.647 233.464L603.348 241.23L597.368 235.416L591.425 229.841L585.441 224.265L578.686 219.654L571.774 215.312L564.455 211.718L557.086 208.221L549.197 206.163L541.162 204.777L533.05 205.46L525.118 207.131L517.693 209.179L509.996 209.438L502.318 208.801L495.046 206.289L487.958 203.398L481.001 200.116L474.795 195.565L468.464 191.219L462.613 186.244L456.852 181.179L450.763 176.482L444.968 171.463L438.813 166.922L431.523 162.911L423.76 159.904L416.036 156.818L408.067 154.405L400.317 151.322L392.322 149.005L384.446 147.139L391.344 142.839L398.338 138.52L405.23 134.035L411.962 129.298L419.016 125.068L425.885 120.544L433.058 116.506L439.973 112.064L447 107.904Z" fill="#BAE8E8"/>
<path d="M446.331 102.776L453.962 105.053L461.347 107.549L468.275 111.113L474.802 115.303L480.702 120.312L485.373 126.557L488.191 134.29L491.3 141.878L495.288 149.012L501.009 154.839L507.801 159.357L514.971 163.368L522.844 165.735L530.631 168.327L538.593 170.333L546.2 172.855L553.825 175.404L560.6 179.727L567.422 183.953L573.518 189.188L578.908 195.131L584.152 201.194L589.124 207.515L592.797 214.679L596.954 221.557L600.037 228.976L602.868 236.62L597.087 230.686L591.296 224.912L584.616 220.185L578.189 215.166L571.228 210.92L564.081 207.002L556.622 203.7L548.839 201.157L540.711 200.12L532.53 200.415L524.707 202.705L517.182 204.277L509.532 205.102L501.911 204.012L494.476 202.066L487.332 199.202L480.802 195.138L474.132 191.312L468.01 186.668L462.182 181.666L456.487 176.521L450.348 171.887L444.756 166.61L438.309 162.453L431.003 158.502L423.422 155.065L415.586 152.254L407.7 149.588L399.731 147.192L391.739 144.895L383.753 142.412L390.615 137.85L397.831 133.883L404.686 129.345L411.482 124.704L418.758 120.832L425.61 116.281L432.627 111.998L439.353 107.254L446.331 102.776Z" stroke="#392396" stroke-width="1.5" stroke-miterlimit="10"/>
<path d="M92.7825 296.622C92.7825 296.622 117.087 328.139 122.188 320.976C127.29 313.812 103.39 287.565 103.39 287.565" fill="white"/>
<path d="M92.7825 296.622C92.7825 296.622 117.087 328.139 122.188 320.976C127.29 313.812 103.39 287.565 103.39 287.565" stroke="#392396" stroke-width="1.5" stroke-miterlimit="10"/>
<path d="M590.967 380.257L68.29 498.047L89.2862 591.214L611.963 473.424L590.967 380.257Z" stroke="#392396" stroke-width="1.5" stroke-miterlimit="10"/>
<path d="M319.213 339.469L315.981 346.609L312.732 353.796L311.237 361.539L309.428 369.22L309.358 377.109L310.114 384.949L312.408 392.46L315.328 399.753L319.631 406.23L324.023 412.648L329.148 418.502L333.845 424.711L338.041 431.261L340.942 438.431L342.815 445.962L342.907 453.752L341.949 461.482L340.335 469.103" stroke="#392396" stroke-width="1.5" stroke-miterlimit="10"/>
<path d="M358.965 337.225L357.301 345.443L356.588 353.77L356.548 362.083L358.106 370.208L361.935 377.587L369.32 382.092L377.657 384.375L386.18 385.973L394.032 389.497L398.842 396.455" stroke="#392396" stroke-width="1.5" stroke-miterlimit="10"/>
</svg>
