<svg width="613" height="575" viewBox="0 0 613 575" fill="none" xmlns="http://www.w3.org/2000/svg">
<path opacity="0.25" d="M89.5941 134.536L97.4754 134.328L105.22 133.342L113.027 133.257L120.788 132.528L128.575 132.164L136.316 131.165L144.083 130.488L151.893 130.442L159.654 129.72L167.408 128.887L175.199 128.565L182.976 128.073L190.76 127.634L198.504 126.658L206.317 126.651L214.091 126.114L221.862 125.519L229.629 124.855L237.4 124.263L245.184 123.846L252.964 123.384L260.709 122.424L268.509 122.184L276.273 121.51L284.031 120.745L291.801 120.169L299.598 119.932L307.346 119.021L315.143 118.803L322.933 118.461L330.678 117.478L338.468 117.205L346.226 116.408L354.016 116.092L361.761 115.132L369.577 115.148L377.325 114.214L385.082 113.45L392.895 113.424L400.643 112.483L408.417 111.943L416.217 111.732L423.962 110.749L431.736 110.173L439.529 109.883L447.313 109.473L455.058 108.497L462.855 108.237L470.609 107.387L478.389 106.929L486.163 106.375L493.976 106.327L501.734 105.546L509.531 105.282L517.272 104.231L525.046 103.626L532.856 103.551L540.591 102.786L541.307 110.498L542.14 118.23L542.439 126.001L542.865 133.765L543.607 141.503L544.395 149.235L545.127 156.973L545.456 164.743L546.191 172.482L547.079 180.207L547.86 187.942L548.065 195.722L549.103 203.434L549.741 211.182L550.184 218.943L550.665 226.701L551.098 234.465L551.977 242.19L552.504 249.941L553.197 257.683L553.688 265.44L554.577 273.166L554.902 280.936L556.031 288.642L556.314 296.416L556.783 304.174L557.678 311.899L558.625 319.617L558.875 327.398L559.471 335.146L559.975 342.903L560.727 350.638L561.508 358.373L562.045 366.128L562.826 373.862L563.636 381.594L564.352 389.336L564.84 397.093L565.094 404.87L566.077 412.589L566.877 420.324L567.342 428.085L567.772 435.849L568.446 443.59L569.48 451.306L569.575 459.096L570.58 466.815L570.938 474.585L571.797 482.314L572.061 490.094L573.04 497.898L565.146 497.195L557.3 497.035L549.484 496.345L541.658 495.864L533.819 495.613L525.98 495.382L518.161 494.77L510.331 494.357L502.502 493.905L494.669 493.501L486.834 493.208L479.001 492.808L471.169 492.46L463.343 491.936L455.5 491.777L447.681 491.158L439.829 491.132L432.003 490.605L424.177 490.163L416.354 489.59L408.515 489.31L400.676 489.037L392.873 488.126L385.047 487.634L377.208 487.377L369.369 487.088L361.533 486.791L353.713 486.144L345.861 486.098L338.029 485.77L330.225 484.771L322.373 484.816L314.564 483.993L306.725 483.723L298.876 483.655L291.04 483.284L283.243 482.272L275.404 481.972L267.582 481.445L259.752 481.032L251.89 481.178L244.061 480.781L236.242 480.101L228.416 479.626L220.586 479.161L212.76 478.673L204.912 478.588L197.092 477.97L189.256 477.661L181.411 477.534L173.581 477.049L165.765 476.385L157.916 476.274L150.113 475.337L142.274 475.109L134.455 474.452L126.622 474.016L118.783 473.752L110.934 473.678L103.108 473.137L95.2855 472.568L87.4399 472.422L79.6171 471.784L71.7879 471.37L63.9423 471.195L56.1163 470.703L48.2805 470.342L40.4643 469.558L32.6187 469.379L24.796 468.796L16.9537 468.543L9.05933 468.201L11.1842 460.635L12.5184 452.936L14.7865 445.462L16.42 437.837L18.3562 430.281L20.0581 422.67L21.7892 415.069L23.6636 407.5L25.5835 399.941L27.409 392.362L29.1792 384.767L30.8192 377.143L32.8791 369.619L34.5777 362.011L36.6017 354.478L38.6908 346.961L40.0608 339.269L42.2052 331.768L44.0242 324.186L45.9376 316.624L47.4182 308.96L49.5984 301.466L50.9716 293.777L53.3634 286.331L54.8342 278.665L56.7606 271.109L58.3323 263.465L60.6427 256.004L62.1005 248.331L64.2873 240.836L65.8395 233.189L67.6227 225.598L69.7085 218.078L71.2314 210.424L73.1285 202.862L74.9899 195.286L77.1668 187.792L78.693 180.138L80.7365 172.605L82.549 165.02L84.4136 157.448L85.9528 149.794L88.1363 142.294L89.5941 134.536Z" fill="#FFD803"/>
<path d="M362.762 101.175L361.249 110.082L359.57 118.812L359.557 127.699L359.573 135.401L360.748 143.016L361.877 150.634L364.119 158.004L366.719 165.235L369.82 172.263L373.312 179.11L377.331 185.67L382 191.785L386.813 197.798L392.208 203.31L398.306 208.026L404.567 212.477L410.822 216.977L417.691 220.469L424.72 223.619L432.006 226.118L439.431 228.168L446.984 229.727L454.696 230.01L462.363 230.397L470.114 230.423L477.79 229.369L485.359 227.784L492.857 225.89L500.227 223.417L497.002 216.167L493.654 209.002L489.778 202.103L485.649 195.361L481.103 188.892L476.97 182.143L471.926 176.048L467.244 169.67L461.66 164.057L456.418 158.147L450.651 152.752L444.924 147.321L438.956 142.15L432.93 137.038L426.467 132.486L420.128 127.754L413.161 123.993L406.477 119.779L399.644 115.792L392.286 112.851L385.258 109.216L377.946 106.196L370.429 103.739L362.762 101.175Z" fill="#392396"/>
<path d="M570.652 123.573L570.242 115.87L569.21 108.24L567.931 100.645L565.647 93.2938L563.545 85.8745L559.978 79.0345L556.845 71.9862L552.322 65.7384L548.036 59.3409L543.093 53.425L537.385 48.2446L531.746 42.9958L525.397 38.6386L519.072 34.2293L512.153 30.8256L504.975 28.0629L497.878 25.0626L490.322 23.5495L482.795 22.0559L475.174 21.1024L467.491 20.4223L459.545 20.8031L451.673 21.9159L443.877 23.4226L436.145 25.2806L428.836 28.4273L421.525 31.5057L414.72 35.583L408.023 39.8165L401.551 44.4275L395.626 49.7284L390.263 55.5922L385.121 61.6545L380.732 68.2798L376.817 75.1817L373.208 82.2528L370.4 89.6785L367.8 97.3711L375.509 99.7629L383.039 102.171L390.23 105.457L397.633 108.259L404.525 112.145L411.574 115.708L418.303 119.84L425.224 123.68L431.824 128.041L437.88 133.146L444.166 137.93L450.352 142.86L456.008 148.388L461.579 153.992L466.902 159.83L472.418 165.508L476.971 171.99L481.702 178.306L486.248 184.756L490.621 191.332L494.689 198.101L498.353 205.1L501.793 212.204L505.365 219.158L512.424 216.349L519.153 212.627L525.524 208.341L531.665 203.753L537.678 198.969L542.843 193.278L548.095 187.671L552.826 181.602L556.549 174.863L560.382 168.202L563.223 161.063L565.979 153.888L567.557 146.368L569.532 138.922L570.001 131.239L570.652 123.573Z" stroke="#392396" stroke-width="1.5" stroke-miterlimit="10"/>
<path d="M364.304 123.573L364.714 114.686L366.351 105.955L367.959 97.2768L360.439 95.1974L352.801 93.3882L345.128 91.7188L337.416 90.1959L329.567 89.6557L321.738 89.1221L313.928 88.1328L306.07 88.5298L297.518 87.9571L288.966 88.1914L281.218 88.3183L273.503 89.0505L265.762 89.4019L258.111 90.6254L250.435 91.6635L242.908 93.4988L235.333 95.0835L227.826 96.9839L220.364 99.0958L213.186 102.031L205.994 104.891L198.894 107.976L191.92 111.334L184.986 114.78L178.403 118.858L171.69 122.72L165.188 126.931L158.869 131.418L153.028 136.517L146.982 141.35L141.304 146.612L135.44 151.688L130.064 157.272L124.926 163.074L120.289 169.289L115.544 175.394L110.706 181.45L106.261 187.798L102.323 194.476L98.6981 201.322L95.0828 208.165L91.7897 215.168L88.373 222.125L85.607 229.366L82.7792 236.586L80.5079 244.002L78.8971 251.591L77.1042 259.121L75.5227 266.699L74.0128 274.304L73.4336 282.036L72.7209 289.742L72.1873 297.467L71.8977 305.211L72.0669 313.086L71.9953 320.964L72.1775 328.839L71.7675 336.714L71.9497 344.592L71.8488 352.467L72.1938 360.345L71.9172 368.223L72.197 376.098L71.8944 383.976L71.8033 391.851L72.2231 399.729L72.0734 407.607L71.7968 415.485L71.8846 423.36V431.238L72.1124 439.116L72.3532 446.994L71.9042 454.872L72.3272 462.75L72.2979 470.628L72.0083 478.503L72.3077 486.381L72.2426 494.259L71.7415 502.137L72.3435 510.015L72.0864 517.894L72.184 525.772L71.9107 533.65L72.2881 541.528L72.1677 549.406L71.9432 557.287L72.1124 565.169L72.2361 572.845L79.805 572.887L87.5822 572.724L95.3562 572.786L103.13 572.751L110.904 573.024L118.678 573.219L126.455 573.18L134.229 573.06L142.003 572.832L149.78 572.985L157.554 573.056L165.328 573.235L173.105 573.099L180.879 573.3L188.653 572.913L196.431 572.79L204.205 572.884L211.978 572.822L219.756 572.926L227.53 572.969L235.307 573.099L243.081 573.037L250.855 573.317L258.632 573.3L266.406 573.034L274.18 573.327L281.954 572.933L289.728 573.369L297.502 573.281L305.276 573.089L313.053 572.835L320.827 572.93L328.601 573.333L336.378 573.177L344.152 573.024L351.926 572.956L359.703 572.799L367.477 573.313L375.254 572.965L383.028 572.734L390.805 572.939L398.579 573.317L406.357 573.216L414.131 572.721L421.908 573.118L429.685 572.858L437.459 573.154L445.236 573.069L453.013 573.307L460.787 573.076L468.564 573.18L476.338 573.001L484.116 573.183L491.893 572.744L499.67 573.148L507.447 573.307L515.228 573.19L522.8 572.845L522.722 565.172L522.767 557.297L523.278 549.419L523.158 541.544L522.904 533.666L522.751 525.791L522.93 517.913L522.79 510.038L523.321 502.16L523.021 494.282L522.836 486.407L522.78 478.529L522.982 470.651L522.989 462.776L522.693 454.898L523.057 447.02L523.008 439.145L523.116 431.267L523.239 423.389L522.865 415.511L522.777 407.633L523.207 399.755L523.155 391.877L523.008 383.999L522.969 376.121L523.311 368.243L522.865 360.364L523.155 352.486L522.709 344.608L523.034 336.73L522.917 328.852L522.748 320.971L523.122 313.093L523.125 305.211L523.07 297.174L522.165 289.179L521.83 281.148L520.776 273.182L519.471 265.251L517.912 257.367L515.976 249.564L513.503 241.917L511.092 234.26L508.222 226.762L505.322 219.259L497.984 221.771L490.604 224.166L482.925 225.308L475.209 225.877L467.491 226.164L459.824 225.868L452.148 225.357L444.631 223.72L437.238 221.647L429.997 219.106L422.855 216.265L416.063 212.653L409.451 208.706L403.434 203.896L397.382 199.132L391.987 193.63L387.213 187.59L382.615 181.437L378.525 174.935L374.939 168.144L371.86 161.105L369.159 153.904L367.083 146.491L365.743 138.909L365.059 131.249L364.304 123.573Z" stroke="#392396" stroke-width="1.5" stroke-miterlimit="10"/>
<path d="M54.9641 172.039L53.3338 179.357L51.4367 186.812L49.9073 194.358L47.6782 201.742L46.305 209.324L44.4828 216.798L42.3644 224.208L41.0693 231.809L39.0582 239.245L37.3694 246.788L45.3841 248.896L53.4965 250.455L61.5406 252.32L69.5423 254.366L77.5928 255.867L79.6169 248.499L81.6962 240.911L84.358 233.508L87.0556 226.121L90.2153 218.926L93.362 211.722L96.8113 204.657L100.3 197.596L104.455 190.906L108.959 184.092L101.025 182.823L93.323 181.004L85.6011 179.256L77.9638 177.154L70.3037 175.133L62.5591 173.48L54.9641 172.039Z" stroke="#392396" stroke-width="1.5" stroke-miterlimit="10"/>
<path d="M570.427 291.554L562.301 289.439L554.147 287.652L545.934 286.13L537.831 284.109L529.764 281.938L521.567 280.106L522.377 288.554L522.651 296.884L523.321 305.211L523.289 312.979L522.862 320.75L522.807 328.517L523.236 336.284L523.119 344.055L522.755 351.826L523.259 359.395L530.47 361.429L537.981 363.062L545.413 365.044L552.992 366.619L554.726 359.066L556.464 351.569L558.364 344.11L560.206 336.639L561.527 329.044L563.183 321.531L565.162 314.088L566.639 306.529L568.888 299.149L570.427 291.554Z" stroke="#392396" stroke-width="1.5" stroke-miterlimit="10"/>
<path d="M521.472 280.455L514.007 278.186L506.273 276.807L498.638 274.994L491.066 272.918L483.387 271.294L475.655 269.892L468.145 267.536L460.397 266.215L452.802 264.233L445.119 262.622L437.495 260.754L429.929 258.643L422.155 257.435L414.567 255.421L406.887 253.8L399.263 251.942L391.651 250.026L384.066 247.995L376.396 246.326L368.746 244.569L361.008 243.202L353.436 241.129L345.717 239.681L338.122 237.693L330.456 236.014L322.789 234.344L315.246 232.128L307.511 230.755L299.89 228.874L292.302 226.87L284.703 224.888L276.939 223.629L269.39 221.445L261.658 220.046L254.05 218.12L246.449 216.161L238.776 214.511L231.122 212.773L223.446 211.13L215.782 209.435L208.178 207.479L200.488 205.901L192.949 203.665L185.263 202.074L177.547 200.597L170.037 198.25L162.344 196.672L154.723 194.795L146.982 193.434L139.377 191.485L131.789 189.458L124.142 187.684L116.42 186.227L108.808 184.574L104.363 190.847L100.55 197.736L96.5341 204.511L92.9417 211.52L90.1009 218.875L86.8956 226.063L84.0743 233.407L81.7802 240.937L79.4926 248.467L77.4946 256.296L85.1482 257.907L92.6488 259.873L100.286 261.249L107.878 262.808L115.417 264.611L122.934 266.488L130.487 268.232L138.043 269.947L145.537 271.945L153.145 273.442L160.603 275.583L168.257 276.888L175.735 278.938L183.297 280.64L190.795 282.605L198.386 284.184L205.955 285.846L213.518 287.535L221.1 289.153L228.571 291.245L236.127 292.963L243.709 294.574L251.222 296.484L258.713 298.492L266.37 299.771L273.933 301.46L281.384 303.627L289.015 305.032L296.565 306.767L304.052 308.791L311.647 310.337L319.193 312.11L326.759 313.789L334.195 316.025L341.741 317.788L349.336 319.347L356.921 320.948L364.415 322.933L371.968 324.674L379.488 326.552L387.119 327.948L394.6 330.004L402.214 331.468L409.773 333.187L417.232 335.341L424.849 336.799L432.409 338.514L440.004 340.066L447.462 342.21L455.057 343.769L462.603 345.533L470.169 347.221L477.728 348.936L485.225 350.918L492.732 352.857L500.327 354.419L507.841 356.336L515.39 358.113L522.816 359.359L523.158 351.829L522.787 344.058L523.031 336.291L522.845 328.52L523.216 320.753L523.213 312.982L523.174 305.211L522.787 296.878L522.253 288.564L521.472 280.455Z" stroke="#392396" stroke-width="1.5" stroke-miterlimit="10"/>
<path d="M314.427 71.5664L312.077 79.9717L305.748 85.8225L297.519 88.4582L289.11 86.1283L283.305 79.7732L280.796 71.5664L283.289 63.3499L289.045 56.8873L297.519 54.8633L305.956 56.9524L311.882 63.2718L314.427 71.5664Z" stroke="#392396" stroke-width="1.5" stroke-miterlimit="10"/>
<path d="M196.401 567.16L188.452 567.489L180.473 567.01L172.49 567.446L164.511 567.359L156.532 566.9L148.554 567.254L140.575 567.062L132.596 567.102L124.613 567.42L116.634 567.476L108.652 567.173L100.67 567.059L92.8049 567.072L92.5023 559.36L92.7496 551.528L92.6976 543.698L92.5902 535.866L92.7008 528.033L92.5837 520.201L92.8863 512.368L93.0002 504.539L92.9546 496.706L92.5446 488.874L92.7041 481.041L92.9807 473.209L92.46 465.376L92.4665 457.544L92.9091 449.711L92.8635 441.879L92.3884 434.046L92.9286 426.214L92.5707 418.381L92.5837 410.549L92.9286 402.716L92.9026 394.88L92.8603 387.048L92.857 379.215L92.4568 371.383L92.4405 363.55L92.6227 355.718L92.8668 347.882L92.5316 340.049L93.0034 332.214L92.9481 324.381L92.5544 316.545L92.5349 308.55L100.67 309.032L108.649 309.019L116.628 308.391L124.607 308.791L132.586 308.768L140.565 309.019L148.544 308.713L156.526 308.527L164.505 308.462L172.484 308.54L180.466 308.95L188.448 308.736L196.525 308.612L196.349 316.542L196.564 324.371L196.216 332.204L196.73 340.036L196.743 347.866L196.369 355.698L196.346 363.531L196.317 371.363L196.639 379.196L196.658 387.025L196.499 394.857L196.46 402.69L196.261 410.523L196.642 418.355L196.196 426.188L196.515 434.02L196.196 441.853L196.18 449.685L196.668 457.521L196.593 465.353L196.151 473.186L196.463 481.019L196.678 488.851L196.717 496.684L196.505 504.516L196.616 512.349L196.489 520.184L196.47 528.017L196.248 535.849L196.636 543.685L196.629 551.518L196.528 559.354L196.401 567.16Z" fill="white"/>
<path d="M202.4 573.017L194.447 573.346L186.468 572.868L178.489 573.304L170.51 573.216L162.531 572.757L154.552 573.112L146.573 572.92L138.591 572.959L130.612 573.278L122.629 573.333L114.651 573.03L106.668 572.916L98.8 572.93L98.5006 565.217L98.7447 557.385L98.6959 549.556L98.5852 541.723L98.6991 533.89L98.5787 526.058L98.8813 518.225L98.9985 510.396L98.9529 502.564L98.5429 494.731L98.6991 486.899L98.9757 479.066L98.4551 471.234L98.4648 463.401L98.9041 455.569L98.8618 447.736L98.3867 439.903L98.9236 432.071L98.5689 424.238L98.582 416.406L98.9269 408.573L98.8976 400.738L98.8586 392.905L98.8553 385.072L98.4551 377.24L98.4355 369.407L98.621 361.575L98.8618 353.739L98.5266 345.907L98.9985 338.071L98.9432 330.238L98.5527 322.403L98.5299 314.407L106.665 314.889L114.644 314.876L122.623 314.248L130.605 314.648L138.584 314.625L146.563 314.876L154.542 314.57L162.521 314.385L170.503 314.319L178.482 314.398L186.464 314.808L194.443 314.593L202.523 314.469L202.344 322.399L202.562 330.229L202.211 338.061L202.725 345.894L202.741 353.723L202.364 361.555L202.344 369.388L202.315 377.22L202.637 385.053L202.657 392.882L202.497 400.715L202.455 408.547L202.26 416.38L202.64 424.212L202.191 432.045L202.513 439.877L202.195 447.71L202.175 455.542L202.663 463.378L202.588 471.211L202.149 479.043L202.458 486.876L202.673 494.708L202.715 502.541L202.504 510.373L202.611 518.206L202.487 526.042L202.468 533.874L202.243 541.707L202.631 549.543L202.624 557.375L202.526 565.211L202.4 573.017Z" stroke="#392396" stroke-width="1.5" stroke-miterlimit="10"/>
<path d="M273.986 501.487L273.794 509.527L272.241 517.422L270.081 525.16L266.96 532.563L262.827 539.436L258.493 546.197L253.247 552.309L247.113 557.525L240.41 561.941L233.372 565.748L226.131 569.233L218.413 571.517L210.437 572.575L202.425 573.265L194.378 572.923L186.49 571.296L178.733 569.197L171.375 565.969L164.233 562.269L157.916 557.3L151.613 552.299L146.365 546.191L141.555 539.732L138.093 532.465L134.897 525.114L132.87 517.363L131.227 509.508L130.66 501.487L131.367 493.478L132.649 485.558L135.011 477.895L137.884 470.404L141.975 463.502L146.612 456.974L151.737 450.795L157.763 445.478L164.49 441.108L171.297 436.841L178.71 433.708L186.52 431.798L194.437 430.571L202.425 429.927L210.457 430.239L218.318 431.869L226.115 433.789L233.551 436.854L240.381 441.078L247.192 445.351L252.834 451.078L258.525 456.75L262.811 463.544L266.944 470.417L269.954 477.856L271.981 485.61L273.582 493.465L273.986 501.487Z" fill="#FFD803"/>
<path d="M273.986 501.487L273.794 509.527L272.241 517.422L270.081 525.16L266.96 532.563L262.827 539.436L258.493 546.197L253.247 552.309L247.113 557.525L240.41 561.941L233.372 565.748L226.131 569.233L218.413 571.517L210.437 572.575L202.425 573.265L194.378 572.923L186.49 571.296L178.733 569.197L171.375 565.969L164.233 562.269L157.916 557.3L151.613 552.299L146.365 546.191L141.555 539.732L138.093 532.465L134.897 525.114L132.87 517.363L131.227 509.508L130.66 501.487L131.367 493.478L132.649 485.558L135.011 477.895L137.884 470.404L141.975 463.502L146.612 456.974L151.737 450.795L157.763 445.478L164.49 441.108L171.297 436.841L178.71 433.708L186.52 431.798L194.437 430.571L202.425 429.927L210.457 430.239L218.318 431.869L226.115 433.789L233.551 436.854L240.381 441.078L247.192 445.351L252.834 451.078L258.525 456.75L262.811 463.544L266.944 470.417L269.954 477.856L271.981 485.61L273.582 493.465L273.986 501.487Z" stroke="#392396" stroke-width="1.5" stroke-miterlimit="10"/>
<path d="M329.969 352.102L328.081 344.429L326.412 336.701L323.871 329.207L321.752 321.595L319.347 314.072L316.451 306.715L314.209 299.12L311.3 291.769L307.945 284.607L305.007 277.265L301.427 270.214L298.411 262.899L294.558 255.987L290.865 249.004L287.171 242.021L283.357 235.103L279.404 228.262L275.027 221.68L271.151 214.787L266.414 208.309L267.413 216.193L268.06 224.094L269.284 231.927L270.377 239.785L271.809 247.595L273.765 255.287L276.189 262.847L278.053 270.572L280.875 277.994L283.842 285.349L287.093 292.576L290.354 299.803L294.304 306.679L298.339 313.493L302.592 320.177L307.063 326.737L312.374 332.637L317.756 338.448L323.21 344.214L329.412 349.17" fill="#392396"/>
<path d="M329.969 352.102L328.081 344.429L326.412 336.701L323.871 329.207L321.752 321.596L319.347 314.072L316.451 306.715L314.209 299.12L311.3 291.769L307.945 284.607L305.007 277.265L301.427 270.214L298.411 262.899L294.558 255.987L290.865 249.004L287.171 242.021L283.357 235.103L279.404 228.262L275.027 221.68L271.151 214.787L266.414 208.309L267.413 216.193L268.06 224.094L269.284 231.927L270.377 239.785L271.809 247.595L273.765 255.287L276.189 262.847L278.053 270.572L280.875 277.994L283.842 285.348L287.093 292.576L290.354 299.803L294.304 306.679L298.339 313.493L302.592 320.177L307.063 326.737L312.374 332.637L317.756 338.448L323.21 344.214L329.412 349.17" stroke="#392396" stroke-width="1.5" stroke-miterlimit="10"/>
<path d="M313.037 542.748L316.863 536.022L319.239 528.645L321.797 521.362L324.172 514.012L326.167 506.55L327.927 499.033L329.834 491.539L331.074 483.908L332.099 476.248L333.433 468.63L334.315 460.954L334.748 453.232L335.75 445.556L336.219 437.837L336.381 430.106L336.108 422.371L336.196 414.642L336.557 406.907L335.939 399.189L335.968 391.249L334.702 383.406L334.081 375.506L332.759 367.693L331.647 359.847L329.766 352.145" stroke="#392396" stroke-width="1.5" stroke-miterlimit="10"/>
<path d="M349.87 374.552L350.368 366.56L351.308 358.611L352.525 350.697L353.332 342.731L354.634 334.833L356.433 327.027L357.923 319.171L359.599 311.349L361.399 303.552L363.442 295.807L366.42 288.362L369.046 280.816L371.906 273.344L375.398 266.153L379.046 259.212L379.615 266.96L379.781 274.874L380.162 282.788L379.901 290.708L379.221 298.602L378.525 306.5L376.787 314.241L375.033 321.954L373.244 329.669L370.858 337.231L367.874 344.586L363.927 351.471L360.058 358.363L355.45 364.787L350.309 370.784" fill="#392396"/>
<path d="M349.87 374.552L350.368 366.56L351.308 358.611L352.525 350.697L353.332 342.731L354.634 334.833L356.433 327.027L357.923 319.171L359.599 311.349L361.399 303.552L363.442 295.807L366.42 288.362L369.046 280.816L371.906 273.344L375.398 266.153L379.046 259.212L379.615 266.96L379.781 274.874L380.162 282.788L379.901 290.708L379.221 298.602L378.525 306.5L376.787 314.241L375.033 321.954L373.244 329.669L370.858 337.231L367.874 344.586L363.927 351.471L360.058 358.363L355.45 364.787L350.309 370.784" stroke="#392396" stroke-width="1.5" stroke-miterlimit="10"/>
<path d="M322.975 325.959L321.644 318.293L320.717 310.568L320.02 302.816L318.868 295.117L318.159 287.369L317.892 279.589L317.241 271.841L316.698 264.083L316.187 256.322L315.813 248.548L316.294 240.765L316.255 232.994L316.291 225.217L316.802 217.456L317.44 209.708L318.126 201.963L319.278 194.274L320.17 186.542L321.647 178.905L323.496 171.349L325.601 163.585L327.804 171.238L329.922 178.635L332.233 185.983L334.198 193.434L335.822 200.968L336.694 208.634L337.989 216.219L338.839 223.866L339.662 231.52L340.108 239.206L340.355 246.905L339.685 254.585L339.772 262.3L338.978 269.967L337.748 277.575L336.297 285.14L334.481 292.631L331.917 299.898L329.385 307.167L326.382 314.271L322.318 320.818" fill="#392396"/>
<path d="M322.975 325.959L321.644 318.293L320.717 310.568L320.02 302.816L318.868 295.117L318.159 287.369L317.892 279.589L317.241 271.841L316.698 264.083L316.187 256.322L315.813 248.548L316.294 240.765L316.255 232.994L316.291 225.217L316.802 217.456L317.44 209.708L318.126 201.963L319.278 194.274L320.17 186.542L321.647 178.905L323.496 171.349L325.601 163.585L327.804 171.238L329.922 178.635L332.233 185.983L334.198 193.434L335.822 200.968L336.694 208.634L337.989 216.219L338.839 223.866L339.662 231.52L340.108 239.206L340.355 246.905L339.685 254.585L339.772 262.3L338.978 269.967L337.748 277.575L336.297 285.14L334.481 292.631L331.917 299.898L329.385 307.167L326.382 314.271L322.318 320.818" stroke="#392396" stroke-width="1.5" stroke-miterlimit="10"/>
<path d="M354.005 539.738L352.879 531.931L352.18 524.083L351.705 516.214L350.748 508.385L350.208 500.523L350.071 492.635L349.508 484.78L349.004 476.918L348.473 469.053L348.018 461.185L348.35 453.294L348.08 445.419L347.797 437.544L347.891 429.666L348.005 421.788L348.047 413.91L348.425 406.038L348.386 398.15L348.773 390.279L349.349 382.417L349.7 374.539" stroke="#392396" stroke-width="1.5" stroke-miterlimit="10"/>
<path d="M350.254 572.848L342.682 573.258L335.109 573.229L327.537 573.294L319.965 573.369L312.393 573.034L304.821 573.203L297.245 572.929L289.673 573.082L282.097 573.102L274.525 572.916L266.982 572.874L261.304 567.531L256.42 561.338L251.874 554.912L247.806 548.169L244.035 541.232L241.503 533.747L239.525 526.116L237.868 518.378L237.546 510.464L238.818 502.772L240.992 495.287L244.637 488.382L249.007 481.926L253.55 475.584L258.558 469.597L264.135 464.123L269.345 458.312L274.896 452.825L280.174 447.069L285.478 441.348L290.578 435.445L295.69 429.568L300.558 423.474L304.346 416.663L307.365 409.523L308.95 401.886L308.156 394.617L305.96 387.659L302.458 381.281L298.007 375.551L293.334 369.941L290.151 363.312L292.67 356.261L299.624 353.453L308.062 353.511L316.499 353.417L324.937 353.576L333.375 353.235L341.816 353.228L350.254 353.316L358.692 353.075L367.129 353.511L375.567 353.576L384.005 353.251L392.446 353.082L400.884 353.059L407.668 356.424L410.457 363.316L407.271 370.048L402.309 375.388L398.017 381.259L394.786 387.757L392.199 394.584L392.046 401.886L393.224 409.501L396.094 416.702L400.155 423.334L404.841 429.552L409.631 435.715L415.013 441.364L420.538 446.874L425.771 452.669L431.205 458.269L436.792 463.73L441.716 469.798L446.717 475.779L451.53 481.907L456.138 488.229L459.623 495.242L461.64 502.785L462.942 510.464L462.076 518.32L461.429 526.211L459.115 533.78L456.518 541.248L452.848 548.247L449.073 555.195L444.309 561.508L439.291 567.616L433.525 572.877L425.989 573.297L418.413 573.105L410.844 573.043L403.272 573.343L395.697 572.789L388.125 572.796L380.552 573.144L372.977 572.897L365.405 573.216L357.829 572.78L350.254 573.141" stroke="#392396" stroke-width="1.5" stroke-miterlimit="10"/>
<path d="M367.644 573.07L375.548 573.314L383.436 573.04L391.32 572.816L399.208 572.78L407.096 573.083L414.98 573.073L422.868 573.102L430.753 573.229L438.641 572.982L446.525 573.112L454.413 572.861L462.301 573.011L470.189 573.216L478.077 572.946L485.964 573.04L493.888 573.086L493.846 566.392L493.803 559.734L493.79 553.151L485.968 553.008L478.083 553.324L470.195 552.966L462.307 553.145L454.423 553.122L446.535 553.168L438.647 553.135L430.763 553.36L422.875 553.138L414.99 553.392L407.102 552.875L399.214 552.943L391.327 553.262H383.439L375.551 553.064L367.852 553.298L367.406 559.731L367.962 566.389L367.644 573.07Z" fill="white"/>
<path d="M367.644 573.07L375.548 573.314L383.436 573.04L391.32 572.816L399.208 572.78L407.096 573.083L414.98 573.073L422.868 573.102L430.753 573.229L438.641 572.982L446.525 573.112L454.413 572.861L462.301 573.011L470.189 573.216L478.077 572.946L485.964 573.04L493.888 573.086L493.846 566.392L493.803 559.734L493.79 553.151L485.968 553.008L478.083 553.324L470.195 552.966L462.307 553.145L454.423 553.122L446.535 553.168L438.647 553.135L430.763 553.36L422.875 553.138L414.99 553.392L407.102 552.875L399.214 552.943L391.327 553.262H383.439L375.551 553.064L367.852 553.298L367.406 559.731L367.962 566.389L367.644 573.07Z" stroke="#392396" stroke-width="1.5" stroke-miterlimit="10"/>
<path d="M378.472 553.265L386.52 553.041L394.408 553.067L402.295 552.891L410.18 552.79L418.068 553.395L425.952 552.839L433.84 553.067L441.725 553.213L449.613 552.858L457.501 553.22L465.385 553.08L473.273 553.386L481.161 553.119L489.049 552.767L496.94 553.343L504.642 552.852L505.153 546.419L505.14 539.761L504.678 533.279L496.94 533.22L489.055 533.256L481.167 533.386L473.283 533.236L465.395 533.009L457.507 532.94L449.622 533.002L441.735 532.917L433.85 532.891L425.962 532.953L418.074 532.823L410.186 533.061L402.299 533.207L394.411 532.817L386.523 533.181L378.795 533.292L378.707 539.758L378.788 546.419L378.472 553.265Z" stroke="#392396" stroke-width="1.5" stroke-miterlimit="10"/>
<path d="M378.695 533.028L386.521 532.95L394.409 533.018L402.296 533.084L410.181 533.123L418.069 532.804L425.953 533.227L433.841 533.324L441.726 532.839L449.614 533.041L457.502 532.924L465.386 533.184L473.274 533.347L481.162 533.22L489.05 532.862L496.941 533.347L504.829 533.103L504.715 526.445L504.594 519.787L504.799 513.165L496.941 513.419L489.056 513.409L481.168 513.269L473.284 512.977L465.396 513.325L457.508 513.344L449.623 512.98L441.736 513.243L433.851 513.175L425.963 513.12L418.075 513.429L410.188 513.279L402.3 513.139L394.412 512.921L386.524 512.925L378.574 513.058L378.584 519.787L378.561 526.445L378.695 533.028Z" stroke="#392396" stroke-width="1.5" stroke-miterlimit="10"/>
<path d="M367.458 513.37L375.548 512.882L383.436 512.879L391.32 512.977L399.208 512.938L407.096 512.892L414.981 513.211L422.869 513.045L430.753 512.853L438.641 513.149L446.526 513.156L454.413 512.872L462.301 513.309L470.189 513.357L478.077 513.237L485.965 512.817L493.7 512.944L494.08 506.472L493.69 499.814L494.041 492.935L485.968 493.455L478.084 493.153L470.196 493.325L462.308 493.058L454.423 493.368L446.535 493.163L438.647 493.28L430.763 492.98L422.875 493.407L414.99 493.215L407.103 493.153L399.215 493.449L391.327 492.899L383.439 492.906L375.551 493.25L367.563 493.039L367.829 499.814L367.393 506.468L367.458 513.37Z" fill="#FFD803"/>
<path d="M367.458 513.37L375.548 512.882L383.436 512.879L391.32 512.977L399.208 512.938L407.096 512.892L414.981 513.211L422.869 513.045L430.753 512.853L438.641 513.149L446.526 513.156L454.413 512.872L462.301 513.309L470.189 513.357L478.077 513.237L485.965 512.817L493.7 512.944L494.08 506.472L493.69 499.814L494.041 492.935L485.968 493.455L478.084 493.153L470.196 493.325L462.308 493.058L454.423 493.368L446.535 493.163L438.648 493.28L430.763 492.98L422.875 493.407L414.99 493.215L407.103 493.153L399.215 493.449L391.327 492.899L383.439 492.906L375.551 493.25L367.563 493.039L367.829 499.814L367.393 506.468L367.458 513.37Z" stroke="#392396" stroke-width="1.5" stroke-miterlimit="10"/>
<path d="M387.5 493.058L395.303 493.472L403.191 493.244L411.076 493.4L418.963 493.163L426.851 493.049L434.736 492.834L442.624 492.948L450.508 493.211L458.396 492.925L466.281 492.99L474.169 493.397L482.056 493.315L489.944 493.231L497.832 493.055L505.72 492.892L513.8 493.381L513.793 486.498L513.598 479.84L513.676 473.104L505.723 473.023L497.839 473.117L489.951 472.958L482.063 473.3L474.178 473.306L466.29 473.218L458.403 473.459L450.518 473.023L442.633 472.958L434.746 473.283L426.858 473.453L418.97 473.475L411.082 472.958L403.194 473.098L395.306 473.036L387.425 473.192L387.477 479.84L387.601 486.498L387.5 493.058Z" fill="#392396"/>
<path d="M387.5 493.058L395.303 493.472L403.191 493.244L411.076 493.4L418.963 493.163L426.851 493.049L434.736 492.834L442.624 492.948L450.508 493.211L458.396 492.925L466.281 492.99L474.169 493.397L482.056 493.315L489.944 493.231L497.832 493.055L505.72 492.892L513.8 493.381L513.793 486.498L513.598 479.84L513.676 473.104L505.723 473.023L497.839 473.117L489.951 472.958L482.063 473.3L474.178 473.306L466.29 473.218L458.403 473.459L450.518 473.023L442.633 472.958L434.746 473.283L426.858 473.453L418.97 473.475L411.082 472.958L403.194 473.098L395.306 473.036L387.425 473.192L387.477 479.84L387.601 486.498L387.5 493.058Z" stroke="#392396" stroke-width="1.5" stroke-miterlimit="10"/>
<path d="M381.31 473.326L389.318 472.991L397.203 473.329L405.091 473.114L412.979 473.352L420.863 473.31L428.751 473.459L436.639 473.443L444.523 473.319L452.408 473.498L460.296 473.183L468.184 473.03L476.072 473.384L483.959 472.978L491.847 473.004L499.735 472.939H507.418L507.639 466.528L507.467 459.87L507.701 453.125L499.738 453.248L491.851 453.268L483.966 453.082L476.078 453.037L468.19 453.216L460.306 452.939L452.418 452.903L444.533 452.949L436.645 453.333L428.758 453.095L420.873 453.06L412.985 453.489L405.097 453.398L397.209 453.04L389.318 453.339L381.434 453.219L381.291 459.87L381.512 466.528L381.31 473.326Z" fill="white"/>
<path d="M381.31 473.326L389.318 472.991L397.203 473.329L405.091 473.114L412.979 473.352L420.863 473.31L428.751 473.459L436.639 473.443L444.523 473.319L452.408 473.498L460.296 473.183L468.184 473.03L476.072 473.384L483.959 472.978L491.847 473.004L499.735 472.939H507.418L507.639 466.528L507.467 459.87L507.701 453.125L499.738 453.248L491.851 453.268L483.966 453.082L476.078 453.037L468.19 453.216L460.306 452.939L452.418 452.903L444.533 452.949L436.645 453.333L428.758 453.095L420.873 453.06L412.985 453.489L405.097 453.398L397.209 453.04L389.318 453.339L381.434 453.219L381.291 459.87L381.512 466.528L381.31 473.326Z" stroke="#392396" stroke-width="1.5" stroke-miterlimit="10"/>
</svg>
