<svg width="526" height="404" viewBox="0 0 526 404" fill="none" xmlns="http://www.w3.org/2000/svg">
<path d="M524.176 390.699L516.34 390.676L508.445 390.912L500.547 390.833L492.648 390.886L484.753 390.509L476.854 390.745L468.959 390.571L461.061 390.732L453.162 390.833L445.267 390.516L437.368 391.033L429.47 390.581L421.575 390.781L413.676 390.673L405.778 390.81L397.879 390.909L389.984 390.866L382.086 390.774L374.187 390.781L366.292 390.843L358.393 391.04L350.495 390.804L342.596 390.938L334.698 390.738L326.803 390.473L318.904 390.951L311.009 390.627L303.111 390.637L295.215 390.555L287.317 390.915L279.422 390.552L271.523 391.03L263.628 390.447L255.729 390.824L247.831 390.722L239.936 390.991L232.037 390.493L224.139 390.883L216.24 390.512L208.342 390.804L200.447 390.85L192.548 390.584L184.65 390.906L176.751 390.837L168.853 390.807L160.954 390.45L153.056 390.765L145.157 390.545L137.259 390.565L129.36 390.529L121.462 390.837L113.563 390.47L105.665 390.48L97.7631 390.745L89.8645 390.86L81.9661 390.627L74.0643 390.85L66.1658 390.447L58.1854 390.84L58.2116 382.866L58.5392 374.968L58.0609 367.072L58.4868 359.177L58.2542 351.279L58.5458 343.384L58.2542 335.485L58.5884 327.59L58.5327 319.695L58.1166 311.796L58.346 303.901L57.9463 296.006L58.4148 288.111L58.2477 280.215L58.1625 272.32L58.0216 264.422L58.5196 256.526L58.228 248.631L58.4049 240.736L58.2247 232.838L58.3885 224.942L58.1134 217.047L58.074 209.149L58.3361 201.253L58.2149 193.355L58.323 185.46L58.4442 177.564L58.5294 169.666L58.0839 161.771L58.5458 153.872L58.4442 145.974L58.3198 138.079L58.4573 130.18L58.3165 122.282L58.0249 114.386L58.5917 106.488L57.9889 98.5927L58.1658 90.6942L58.2968 82.7957L58.2739 74.8973L58.2411 66.9988L58.4967 59.1036L57.9889 51.2051L58.323 43.3033L58.3066 35.4441L66.1593 35.4245L74.0577 35.7259L81.9562 35.1264L89.8515 35.3622L97.7499 35.1984L105.648 35.1952L113.544 35.1853L121.442 35.5195L129.337 35.2247L137.236 35.0903L145.134 35.6898L153.033 35.7193L160.928 35.264L168.826 35.7226L176.722 35.1002L184.62 35.2738L192.519 35.431L200.417 35.6636L208.316 35.3295L216.211 35.5752L224.109 35.2803L232.008 35.1427L239.903 35.3622L247.802 35.2377L255.7 35.2934L263.595 35.3983L271.494 35.6669L279.389 35.2607L287.287 35.2214L295.183 35.4966L303.081 35.3917L310.98 35.2574L318.875 35.431L326.773 35.6898L334.672 35.4179L342.567 35.5785L350.465 35.1034L358.364 35.1067L366.262 35.0936L374.158 35.5293L382.056 35.3196L389.955 35.4638L397.853 35.1624L405.752 35.3262L413.65 35.7128L421.549 35.264L429.447 35.3L437.346 35.2377L445.244 35.2902L453.143 35.3983L461.041 35.4834L468.94 35.6342L476.838 35.3229L484.736 35.3622L492.638 35.5621L500.537 35.359L508.435 35.1952L516.337 35.11L524.052 35.5916L524.291 43.3L524.111 51.1953L524.16 59.0937L524.543 66.9889L524.471 74.8842L524.068 82.7826L524.409 90.6778L524.026 98.5763L524.425 106.472L524.488 114.367L524.344 122.265L524.003 130.16L524.078 138.056L524.16 145.951L524.507 153.846L523.954 161.741L523.918 169.637L524.373 177.535L524.458 185.43L523.973 193.325L524.262 201.224L524.144 209.119L524.203 217.014L524.475 224.913L524.432 232.808L524.081 240.707L524.019 248.602L523.918 256.497L524.445 264.395L524.285 272.294L524.042 280.189L524.406 288.088L524.213 295.986L524.383 303.881L524.131 311.78L524.53 319.678L524.147 327.573L524.157 335.472L524.023 343.367L524.35 351.266L524.098 359.164L524.399 367.063L524.294 374.961L523.931 382.86L524.176 390.699Z" fill="white"/>
<path d="M524.176 390.699L516.34 390.676L508.445 390.912L500.547 390.833L492.648 390.886L484.753 390.509L476.854 390.745L468.959 390.571L461.061 390.732L453.162 390.833L445.267 390.516L437.368 391.033L429.47 390.581L421.575 390.781L413.676 390.673L405.778 390.81L397.879 390.909L389.984 390.866L382.086 390.774L374.187 390.781L366.292 390.843L358.393 391.04L350.495 390.804L342.596 390.938L334.698 390.738L326.803 390.473L318.904 390.951L311.009 390.627L303.111 390.637L295.215 390.555L287.317 390.915L279.422 390.552L271.523 391.03L263.628 390.447L255.729 390.824L247.831 390.722L239.936 390.991L232.037 390.493L224.139 390.883L216.24 390.512L208.342 390.804L200.447 390.85L192.548 390.584L184.65 390.906L176.751 390.837L168.853 390.807L160.954 390.45L153.056 390.765L145.157 390.545L137.259 390.565L129.36 390.529L121.462 390.837L113.563 390.47L105.665 390.48L97.763 390.745L89.8645 390.86L81.9661 390.627L74.0643 390.85L66.1658 390.447L58.1854 390.84L58.2116 382.866L58.5392 374.968L58.0609 367.072L58.4868 359.177L58.2542 351.279L58.5458 343.384L58.2542 335.485L58.5884 327.59L58.5327 319.695L58.1166 311.796L58.346 303.901L57.9463 296.006L58.4148 288.111L58.2477 280.215L58.1625 272.32L58.0216 264.422L58.5196 256.526L58.228 248.631L58.4049 240.736L58.2247 232.838L58.3885 224.942L58.1134 217.047L58.074 209.149L58.3361 201.253L58.2149 193.355L58.323 185.46L58.4442 177.564L58.5294 169.666L58.0839 161.771L58.5458 153.872L58.4442 145.974L58.3198 138.079L58.4573 130.18L58.3165 122.282L58.0249 114.386L58.5917 106.488L57.9889 98.5927L58.1658 90.6942L58.2968 82.7957L58.2739 74.8973L58.2411 66.9988L58.4967 59.1036L57.9889 51.2051L58.323 43.3033L58.3066 35.4441L66.1593 35.4245L74.0577 35.7259L81.9562 35.1264L89.8515 35.3622L97.7499 35.1984L105.648 35.1952L113.544 35.1853L121.442 35.5195L129.337 35.2247L137.236 35.0903L145.134 35.6898L153.033 35.7193L160.928 35.264L168.826 35.7226L176.722 35.1002L184.62 35.2738L192.519 35.431L200.417 35.6636L208.316 35.3295L216.211 35.5752L224.109 35.2803L232.008 35.1427L239.903 35.3622L247.802 35.2377L255.7 35.2934L263.595 35.3983L271.494 35.6669L279.389 35.2607L287.287 35.2214L295.183 35.4966L303.081 35.3917L310.98 35.2574L318.875 35.431L326.773 35.6898L334.672 35.4179L342.567 35.5785L350.465 35.1034L358.364 35.1067L366.262 35.0936L374.158 35.5293L382.056 35.3196L389.955 35.4638L397.853 35.1624L405.752 35.3262L413.65 35.7128L421.549 35.264L429.447 35.3L437.346 35.2377L445.244 35.2902L453.143 35.3983L461.041 35.4834L468.94 35.6342L476.838 35.3229L484.736 35.3622L492.638 35.5621L500.537 35.359L508.435 35.1952L516.337 35.11L524.052 35.5916L524.291 43.3L524.111 51.1953L524.16 59.0937L524.543 66.9889L524.471 74.8842L524.068 82.7826L524.409 90.6778L524.026 98.5763L524.425 106.472L524.488 114.367L524.344 122.265L524.003 130.16L524.078 138.056L524.16 145.951L524.507 153.846L523.954 161.741L523.918 169.637L524.373 177.535L524.458 185.43L523.973 193.325L524.262 201.224L524.144 209.119L524.203 217.014L524.475 224.913L524.432 232.808L524.081 240.707L524.019 248.602L523.918 256.497L524.445 264.395L524.285 272.294L524.042 280.189L524.406 288.088L524.213 295.986L524.383 303.881L524.131 311.78L524.53 319.678L524.147 327.573L524.157 335.472L524.023 343.367L524.35 351.266L524.098 359.164L524.399 367.063L524.294 374.961L523.931 382.86L524.176 390.699Z" stroke="#392396" stroke-width="1.5" stroke-miterlimit="10"/>
<path d="M58.2598 359.993L64.8184 355.646L71.2754 351.155L77.7914 346.745L84.1534 342.103L90.8627 337.988L97.5393 333.824L104.199 329.634L110.751 325.274L117.48 321.195L124.137 316.989L131.066 313.251L137.703 309.005L144.576 305.172L151.603 301.608L158.47 297.772L165.386 294.021L172.331 290.325L179.296 286.669L186.211 282.912L193.189 279.272L200.272 275.839L207.417 272.537L214.346 268.786L221.481 265.47L228.77 262.479L235.873 259.089L243.181 256.16L250.349 252.907L257.52 249.66L264.846 246.777L272.02 243.527L279.506 241.057L286.651 237.719L294.202 235.432L301.413 232.245L308.944 229.929L316.41 227.445L323.742 224.566L331.313 222.394L338.73 219.747L346.356 217.778L353.832 215.311L361.305 212.805L369.023 211.18L376.502 208.684L384.152 206.816L391.824 205.054L399.582 203.665L407.248 201.889L414.907 200.074L422.632 198.557L430.416 197.385L438.091 195.573L445.895 194.531L453.639 193.08L461.459 192.146L469.309 191.485L477.135 190.656L484.952 189.742L492.808 189.25L500.647 188.533L508.5 187.989L516.372 187.822L524.238 187.511" stroke="#392396" stroke-width="1.5" stroke-miterlimit="10"/>
<path d="M288.879 35.3398L292.951 42.0459L296.257 49.1647L299.752 56.1688L303.143 63.2286L306.746 70.2033L309.842 77.4072L312.473 84.7979L315.198 92.1428L318.144 99.4024L321.076 106.672L323.664 114.069L326.258 121.463L328.381 129.014L330.848 136.451L332.912 144.012L335.205 151.501L337.832 158.895L339.936 166.446L341.921 174.027L343.651 181.673L345.973 189.169L347.834 196.782L349.551 204.428L351.186 212.091L353.089 219.691L354.704 227.361L356.522 234.984L357.705 242.738L359.431 250.384L360.83 258.096L362.622 265.733L363.756 273.49L365.403 281.156L366.429 288.933L367.621 296.675L369.282 304.347L370.34 312.114L371.228 319.902L372.444 327.643L373.531 335.404L374.815 343.138L376.07 350.88L376.604 358.713L377.974 366.441L378.858 374.228L379.448 382.051L380.591 389.812" stroke="#392396" stroke-width="1.5" stroke-miterlimit="10"/>
<path d="M58.1611 117.604L64.7197 122.056L70.6985 127.258L76.9884 132.077L82.8328 137.427L88.7985 142.632L94.6953 147.92L100.12 153.705L106.066 158.947L111.57 164.644L116.894 170.508L122.152 176.428L127.872 181.925L132.799 188.136L138.25 193.892L143.194 200.077L148.019 206.354L152.999 212.51L157.811 218.797L162.604 225.103L167.253 231.517L171.57 238.158L176.101 244.654L179.95 251.589L184.245 258.24L188.527 264.91L191.901 272.097L195.839 278.964L199.377 286.047L203.256 292.959L206.45 300.209L209.422 307.55L212.488 314.846L215.705 322.086L218.578 329.47L220.77 337.09L223.44 344.547L225.448 352.209L227.469 359.859L229.841 367.43L231.368 375.204L232.832 382.984L234.382 390.752" stroke="#392396" stroke-width="1.5" stroke-miterlimit="10"/>
<path d="M75.0955 390.729L78.4698 383.679L81.6082 376.534L84.7925 369.405L87.9276 362.241L91.9506 355.528L95.4461 348.54L99.4789 341.851L103.191 334.978L106.853 328.069L111.004 321.448L115.295 314.922L119.427 308.291L124.02 301.965L128.331 295.456L132.789 289.045L137.379 282.732L141.851 276.327L146.559 270.096L151.161 263.783L156.216 257.824L161.215 251.826L165.743 245.438L170.781 239.465L176.184 233.811L181.55 228.134L186.418 222.004L191.761 216.304L197.435 210.925L202.808 205.257L208.528 199.934L213.999 194.361L219.755 189.083L225.294 183.573L230.916 178.142L237.131 173.381L242.864 168.071L248.748 162.934L254.847 158.05L261.128 153.401L266.936 148.146L273.147 143.406L279.529 138.895L285.816 134.256L292.315 129.919L298.759 125.509L305.233 121.139L311.772 116.87L318.523 112.932L325.157 108.818L331.641 104.447L338.451 100.618L345.167 96.621L352.227 93.25L358.871 89.1091L365.872 85.6366L372.81 82.046L379.778 78.5112L386.829 75.1369L394.134 72.3293L401.184 68.9616L408.247 65.6102L415.461 62.6094L422.717 59.7134L429.97 56.7945L437.335 54.1802L444.729 51.6577L452.034 48.8763L459.455 46.4291L467.032 44.4701L474.4 41.8624L481.82 39.3955L489.352 37.312L496.922 35.3726" stroke="#392396" stroke-width="1.5" stroke-miterlimit="10"/>
<path d="M252.705 256.51L244.869 256.812L237.026 256.258L229.183 256.822L221.34 256.514L213.494 256.769L205.655 256.55L197.809 256.612L189.966 256.566L182.123 256.278L174.28 256.664L166.434 256.828L158.592 256.628L150.749 256.343L142.903 256.261L135.06 256.71L127.217 256.773L119.371 256.487L111.525 256.736L103.682 256.841L95.8361 256.546L87.9933 256.674L80.1472 256.507L72.3044 256.736L64.4616 256.34L56.6155 256.818L48.7727 256.658L40.9267 256.838L33.0806 256.34L25.2345 256.481L17.3885 256.284L9.5424 256.599L1.55218 256.664L1.75529 248.795L1.6996 241.074L1.85684 233.356L1.63736 225.631L1.8765 217.909L1.86995 210.187L1.56856 202.469L1.62425 194.744L1.96168 187.023L1.52269 179.301L1.467 171.58L1.7946 163.858L1.90271 156.136L1.6996 148.412L1.56528 140.69L1.86667 132.968L1.55546 125.247L1.53907 117.525L1.92565 109.804L1.46045 102.079L1.97151 94.3572L1.50632 86.6324L1.95513 78.9108L1.66684 71.1859L1.72253 63.4873L9.53912 63.6969L17.3819 63.425L25.2247 63.5004L33.0675 63.1597L40.9103 63.6412L48.7531 63.2023L56.5992 63.2907L64.442 63.7526L72.2847 63.3955L80.1275 63.5888L87.9736 63.5528L95.8164 63.2285L103.659 63.1728L111.502 63.4774L119.348 63.5921L127.191 63.6249L135.037 63.2711L142.88 63.52L150.726 63.4709L158.569 63.3595L166.415 63.4742L174.257 63.353L182.104 63.6576L189.946 63.7756L197.792 63.7264L205.635 63.3136L213.481 63.4742L221.327 63.7526L229.173 63.2285L237.019 63.2383L244.866 63.6806L252.59 63.5855L253.013 71.1826L252.472 78.901L252.83 86.6225L252.816 94.3474L252.469 102.069L252.499 109.787L252.541 117.509V125.23L252.947 132.952L252.964 140.677L252.777 148.398L252.535 156.12L252.872 163.842L252.397 171.566L252.453 179.288L252.849 187.01L252.934 194.731L252.387 202.453L252.404 210.174L253.033 217.899L252.63 225.621L252.656 233.346L252.4 241.067L252.708 248.792L252.705 256.51Z" fill="#392396"/>
<path d="M252.705 256.51L244.869 256.812L237.026 256.258L229.183 256.822L221.34 256.514L213.494 256.769L205.655 256.55L197.809 256.612L189.966 256.566L182.123 256.278L174.28 256.664L166.434 256.828L158.592 256.628L150.749 256.343L142.903 256.261L135.06 256.71L127.217 256.773L119.371 256.487L111.525 256.736L103.682 256.841L95.8361 256.546L87.9933 256.674L80.1472 256.507L72.3044 256.736L64.4616 256.34L56.6155 256.818L48.7727 256.658L40.9267 256.838L33.0806 256.34L25.2345 256.481L17.3885 256.284L9.5424 256.599L1.55218 256.664L1.75529 248.795L1.6996 241.074L1.85684 233.356L1.63736 225.631L1.8765 217.909L1.86995 210.187L1.56856 202.469L1.62425 194.744L1.96168 187.023L1.52269 179.301L1.467 171.58L1.7946 163.858L1.90271 156.136L1.6996 148.412L1.56528 140.69L1.86667 132.968L1.55546 125.247L1.53907 117.525L1.92565 109.804L1.46045 102.079L1.97151 94.3572L1.50632 86.6324L1.95513 78.9108L1.66684 71.1859L1.72253 63.4873L9.53912 63.6969L17.3819 63.425L25.2247 63.5004L33.0675 63.1597L40.9103 63.6412L48.7531 63.2023L56.5992 63.2907L64.442 63.7526L72.2847 63.3955L80.1275 63.5888L87.9736 63.5528L95.8164 63.2285L103.659 63.1728L111.502 63.4774L119.348 63.5921L127.191 63.6249L135.037 63.2711L142.88 63.52L150.726 63.4709L158.569 63.3595L166.415 63.4742L174.257 63.353L182.104 63.6576L189.946 63.7756L197.792 63.7264L205.635 63.3136L213.481 63.4742L221.327 63.7526L229.173 63.2285L237.019 63.2383L244.866 63.6806L252.59 63.5855L253.013 71.1826L252.472 78.901L252.83 86.6225L252.816 94.3474L252.469 102.069L252.499 109.787L252.541 117.509V125.23L252.947 132.952L252.964 140.677L252.777 148.398L252.535 156.12L252.872 163.842L252.397 171.566L252.453 179.288L252.849 187.01L252.934 194.731L252.387 202.453L252.404 210.174L253.033 217.899L252.63 225.621L252.656 233.346L252.4 241.067L252.708 248.792L252.705 256.51Z" stroke="#392396" stroke-width="1.5" stroke-miterlimit="10"/>
<path d="M208.776 75.8838L214.434 81.8592L220.531 87.4023L226.342 93.227L232.092 99.1173L237.664 105.185" stroke="white" stroke-width="1.5" stroke-miterlimit="10"/>
<path d="M208.574 104.831L214.363 98.9863L220.332 93.3188L226.071 87.4219L231.981 81.6889L237.812 75.8838" stroke="white" stroke-width="1.5" stroke-miterlimit="10"/>
<path d="M224.908 159.877L219.279 165.601L213.425 171.104L207.217 176.208L201.032 181.345L194.575 186.145L187.617 190.197L180.858 194.564L173.776 198.403L166.349 201.519L158.834 204.408L151.066 206.521L143.164 207.989L135.24 209.322L127.204 209.915L119.145 209.585L111.204 208.218L103.341 206.525L95.6424 204.209L88.1567 201.283L80.7103 198.236L73.6177 194.436L66.5415 190.6L59.8716 186.089L53.4506 181.244L46.9444 176.507L40.8772 171.219L35.0131 165.715L29.3489 160.002L34.9443 154.213L40.8149 148.71L47.0525 143.628L53.1983 138.423L59.9535 134.033L66.6005 129.502L73.5653 125.469L80.6972 121.741L88.0617 118.498L95.5311 115.471L103.318 113.391L111.141 111.435L119.187 110.888L127.204 110.452L135.256 110.498L143.243 111.563L151.069 113.466L158.876 115.464L166.221 118.79L173.798 121.551L180.816 125.512L187.902 129.348L194.532 133.915L201.117 138.547L207.427 143.54L213.366 148.968L219.532 154.144L224.908 159.877Z" fill="white"/>
<path d="M224.908 159.877L219.279 165.601L213.425 171.104L207.217 176.208L201.032 181.345L194.575 186.145L187.617 190.197L180.858 194.564L173.776 198.403L166.349 201.519L158.834 204.408L151.066 206.521L143.164 207.989L135.24 209.322L127.204 209.915L119.145 209.585L111.204 208.218L103.341 206.525L95.6424 204.209L88.1567 201.283L80.7103 198.236L73.6177 194.436L66.5415 190.6L59.8716 186.089L53.4506 181.244L46.9444 176.507L40.8772 171.219L35.0131 165.715L29.3489 160.002L34.9443 154.213L40.815 148.71L47.0525 143.628L53.1983 138.423L59.9535 134.033L66.6005 129.502L73.5653 125.469L80.6972 121.741L88.0617 118.498L95.5311 115.471L103.318 113.391L111.141 111.435L119.187 110.888L127.204 110.452L135.256 110.498L143.243 111.563L151.069 113.466L158.876 115.464L166.221 118.79L173.798 121.551L180.816 125.512L187.902 129.348L194.532 133.915L201.117 138.547L207.427 143.54L213.366 148.968L219.532 154.144L224.908 159.877Z" stroke="#392396" stroke-width="1.5" stroke-miterlimit="10"/>
<path d="M175.102 152.798L174.532 160.549L171.948 167.855L169.186 175.088L164.547 181.299L158.991 186.656L152.858 191.386L145.697 194.331L138.28 196.458L130.581 196.818L122.889 196.422L115.309 194.761L108.547 190.964L101.897 186.983L96.8678 181.083L92.455 174.81L88.6909 168.045L86.7941 160.52L86.093 152.798L86.5779 145.368L88.5664 138.194L91.7867 131.517L95.9309 125.401L100.937 119.969L106.86 115.56L113.395 112.149L121.867 110.77L130.581 111.245L138.595 111.127L146.559 112.002L153.779 115.347L160 119.524L165.32 124.85L169.386 131.189L172.554 138.01L174.261 145.329L175.102 152.798Z" fill="#FFD803"/>
<path d="M171.722 150.914L171.156 158.662L168.571 165.968L165.809 173.201L161.173 179.416L155.614 184.769L149.481 189.503L142.32 192.448L134.903 194.574L127.204 194.934L119.512 194.538L111.932 192.874L105.17 189.08L98.5196 185.096L93.4909 179.2L89.0781 172.923L85.3139 166.161L83.4171 158.633L82.7161 150.914L83.2566 143.163L85.4057 135.701L88.8848 128.788L93.3664 122.518L98.7718 117.027L105.127 112.673L112.109 109.44L119.529 107.393L127.204 106.862L134.897 107.288L142.408 109.142L149.232 112.759L155.752 116.89L161.357 122.256L165.668 128.706L169.023 135.694L170.844 143.219L171.722 150.914Z" stroke="#392396" stroke-width="1.5" stroke-miterlimit="10"/>
<path d="M146.071 150.914L144.721 158.167L140.217 163.927L134.254 167.936L127.205 169.964L120.066 168.146L113.999 164.117L110.182 157.964L108.479 150.914L109.727 143.674L113.783 137.492L119.968 133.446L127.205 132.424L134.366 133.627L140.544 137.571L144.436 143.776L146.071 150.914Z" fill="#392396"/>
<path d="M146.071 150.914L144.721 158.167L140.217 163.927L134.254 167.936L127.205 169.964L120.066 168.146L113.999 164.117L110.182 157.964L108.479 150.914L109.727 143.674L113.783 137.492L119.968 133.446L127.205 132.424L134.366 133.627L140.544 137.571L144.436 143.776L146.071 150.914Z" stroke="#392396" stroke-width="1.5" stroke-miterlimit="10"/>
<path d="M473.024 159.897L465.263 159.855L457.4 160.084L449.538 160.323L441.675 159.874L433.813 160.3L425.951 160.271L418.088 159.979L410.226 160.277L402.363 160.215L394.497 159.71L386.635 160.317L378.773 160.058L370.907 160.156L363.041 159.881L354.992 160.186L355.038 152.077L355.264 144.153L355.097 136.225L354.887 128.3L355.015 120.372L354.851 112.447L354.913 104.523L354.877 96.5947L355.152 88.67L355.352 80.742L355.31 72.8173L355.192 64.8926L354.962 56.9647L355.116 49.04L355.189 41.112L355.365 33.184L355.228 25.256L355.431 17.3313L355.041 9.40338L354.992 1.28867L363.041 1.30834L370.904 1.24609L378.766 1.35092L386.628 1.39351L394.491 1.52455L402.353 1.46231L410.216 1.74405L418.078 1.72767L425.941 1.45903L433.803 1.75715L441.669 1.35748L449.531 1.79646L457.397 1.70801L465.26 1.51472L473.276 1.32472L473.246 9.4001L472.837 17.3248L472.994 25.2495L473.148 33.1742L473.22 41.1022L473.374 49.0269L472.857 56.9548L473.21 64.8795L473.44 72.8075L473.237 80.7322L472.857 88.6569L472.958 96.5848L473.453 104.51L473.053 112.434L473.319 120.362L473.02 128.29L473.102 136.218L472.866 144.143L473.096 152.074L473.024 159.897Z" fill="#FFD803"/>
<path d="M473.024 159.897L465.263 159.855L457.4 160.084L449.538 160.323L441.675 159.874L433.813 160.3L425.951 160.271L418.088 159.979L410.226 160.277L402.363 160.215L394.497 159.71L386.635 160.317L378.773 160.058L370.907 160.156L363.041 159.881L354.992 160.186L355.038 152.077L355.264 144.153L355.097 136.225L354.887 128.3L355.015 120.372L354.851 112.447L354.913 104.523L354.877 96.5947L355.152 88.67L355.352 80.742L355.31 72.8173L355.192 64.8926L354.962 56.9647L355.116 49.04L355.189 41.112L355.365 33.184L355.228 25.256L355.431 17.3313L355.041 9.40338L354.992 1.28867L363.041 1.30834L370.904 1.24609L378.766 1.35092L386.628 1.39351L394.491 1.52455L402.353 1.46231L410.216 1.74405L418.078 1.72767L425.941 1.45903L433.803 1.75715L441.669 1.35748L449.531 1.79646L457.397 1.70801L465.26 1.51472L473.276 1.32472L473.246 9.4001L472.837 17.3248L472.994 25.2495L473.148 33.1742L473.22 41.1022L473.374 49.0269L472.857 56.9548L473.21 64.8795L473.44 72.8075L473.237 80.7322L472.857 88.6569L472.958 96.5848L473.453 104.51L473.053 112.434L473.319 120.362L473.02 128.29L473.102 136.218L472.866 144.143L473.096 152.074L473.024 159.897Z" stroke="#392396" stroke-width="1.5" stroke-miterlimit="10"/>
<path d="M372.228 53.8164L379.763 53.859L387.301 54.3766L394.839 54.2521L402.377 53.9966L409.915 53.8426L417.454 54.0228L424.992 53.8819L432.53 54.4192L440.071 54.1178L447.609 53.9278L455.151 53.8721" stroke="#392396" stroke-width="1.5" stroke-miterlimit="10"/>
<path d="M372.228 37.3018L379.763 37.3476L387.301 37.862L394.839 37.7407L402.377 37.4852L409.915 37.3312L417.454 37.5081L424.992 37.3706L432.53 37.9045L440.071 37.6031L447.609 37.4164L455.151 37.3607" stroke="#392396" stroke-width="1.5" stroke-miterlimit="10"/>
<path d="M372.228 20.791L379.763 20.8369L387.301 21.3512L394.839 21.2267L402.377 20.9712L409.915 20.8172L417.454 20.9974L424.992 20.8598L432.53 21.3938L440.071 21.0924L447.609 20.9057L455.151 20.8467" stroke="#392396" stroke-width="1.5" stroke-miterlimit="10"/>
<path d="M372.228 70.3276L379.763 70.3735L387.301 70.8878L394.839 70.7633L402.377 70.5111L409.915 70.3571L417.454 70.534L424.992 70.3964L432.53 70.9304L440.071 70.629L447.609 70.4423L455.151 70.3866" stroke="#392396" stroke-width="1.5" stroke-miterlimit="10"/>
<path d="M372.228 86.8384L379.763 86.8842L387.301 87.3986L394.839 87.2774L402.377 87.0218L409.915 86.8679L417.454 87.0448L424.992 86.9072L432.53 87.4412L440.071 87.1398L447.609 86.953L455.151 86.8973" stroke="#392396" stroke-width="1.5" stroke-miterlimit="10"/>
<path d="M372.228 103.353L379.763 103.399L387.301 103.913L394.839 103.789L402.377 103.533L409.915 103.379L417.454 103.559L424.992 103.419L432.53 103.956L440.071 103.654L447.609 103.464L455.151 103.409" stroke="#392396" stroke-width="1.5" stroke-miterlimit="10"/>
<path d="M372.228 119.864L379.763 119.91L387.301 120.424L394.839 120.3L402.377 120.048L409.915 119.894L417.454 120.071L424.992 119.933L432.53 120.467L440.071 120.166L447.609 119.979L455.151 119.923" stroke="#392396" stroke-width="1.5" stroke-miterlimit="10"/>
<path d="M372.228 136.379L380.153 136.421L388.081 136.936L396.009 136.815L403.937 136.559L411.865 136.405L419.793 136.585L427.724 136.444" stroke="#392396" stroke-width="1.5" stroke-miterlimit="10"/>
</svg>
