<svg width="175" height="307" viewBox="0 0 175 307" fill="none" xmlns="http://www.w3.org/2000/svg">
<path fill-rule="evenodd" clip-rule="evenodd" d="M72.6586 41.1498C92.5592 28.0562 120.388 42.2709 138.487 24.5726C140.289 22.8108 141.85 20.8488 143.212 18.7266C144.893 16.0838 146.215 13.1608 148.377 10.8384C150.499 8.55605 153.863 6.79423 156.986 7.91539C159.629 8.87638 160.99 11.6793 161.911 14.1619C163.232 17.7255 163.953 23.6116 169.038 23.0911C173.963 22.6106 175.565 17.3652 176.846 13.4011C177.927 10.1978 178.969 6.4739 180.971 3.71104C182.372 1.78905 184.975 0.267477 187.217 1.74901C188.458 2.58988 188.939 4.19154 189.379 5.55294C190.981 10.438 194.104 14.0417 199.43 14.6423C200.191 14.7224 200.191 13.5212 199.43 13.4411C196.427 13.0807 193.664 11.439 192.022 8.87638C190.741 6.87431 190.581 4.43178 189.379 2.42971C186.937 -1.69455 181.972 -0.0128135 179.689 3.35067C178.168 5.63303 177.247 8.43593 176.326 11.0386C175.285 13.8816 174.684 17.165 172.762 19.6075C171.721 20.9289 170.159 21.8898 168.438 21.9299C166.115 21.9299 165.034 19.9278 164.393 18.0058C163.673 15.8836 163.112 13.7214 162.111 11.7193C160.269 7.83531 156.625 5.43282 152.261 6.83427C146.895 8.59609 144.693 14.0818 141.93 18.4463C138.687 23.5315 133.962 27.5357 128.436 29.9382C122.51 32.5008 116.023 33.2216 109.617 33.5019C96.9237 34.0224 83.1494 32.8612 72.0179 40.1888C71.3773 40.5091 71.9779 41.5502 72.6586 41.1498Z" fill="white"/>
<path fill-rule="evenodd" clip-rule="evenodd" d="M34.7393 46.3151C33.498 54.2033 32.8974 62.1715 32.9374 70.1798C32.9374 70.9406 34.1387 70.9406 34.1387 70.1798C34.0986 62.2917 34.6592 54.4435 35.9005 46.6355C36.0206 45.8747 34.8594 45.5544 34.7393 46.3151Z" fill="white"/>
<path fill-rule="evenodd" clip-rule="evenodd" d="M33.6977 70.6604C35.3795 71.7816 37.3815 71.5013 39.3436 71.4212C42.2666 71.3011 45.1496 71.221 48.0726 71.1809C53.8786 71.0608 59.7246 71.1009 65.5307 71.1809C66.2914 71.1809 66.2914 69.9797 65.5307 69.9797C60.2452 69.8596 54.9597 69.8596 49.6342 69.9397C47.1116 69.9797 44.589 70.0197 42.1064 70.0998C39.784 70.1799 36.3405 70.9407 34.2983 69.5793C33.6577 69.1789 33.0571 70.2199 33.6977 70.6604Z" fill="white"/>
<path fill-rule="evenodd" clip-rule="evenodd" d="M35.4602 47.2362C47.6729 45.7947 59.9656 45.8347 72.1382 47.3563C72.899 47.4364 72.899 46.2351 72.1382 46.1551C59.9656 44.6335 47.6328 44.5934 35.4602 46.0349C34.6995 46.1551 34.6995 47.3563 35.4602 47.2362Z" fill="white"/>
<path fill-rule="evenodd" clip-rule="evenodd" d="M64.3301 71.4612C65.7315 71.3811 67.0929 71.261 68.4944 71.1809C69.2552 71.1408 70.2162 71.1408 70.8969 70.6603C72.2583 69.6993 72.0981 67.0566 72.2583 65.6151C72.939 59.5288 73.2994 53.4425 73.4195 47.3162C73.4195 46.5554 72.2183 46.5554 72.2183 47.3162C72.1382 51.8809 71.938 56.4056 71.5375 60.9303C71.3373 63.1326 71.1371 65.3348 70.8568 67.5371C70.6166 69.2989 69.4554 69.8595 67.8137 69.9796C66.6525 70.0597 65.4913 70.1398 64.3701 70.2199C63.5293 70.34 63.5293 71.5413 64.3301 71.4612Z" fill="white"/>
<path fill-rule="evenodd" clip-rule="evenodd" d="M38.0621 51.3603C41.1453 53.5225 43.9883 55.8849 46.631 58.5677C48.0324 60.0092 49.8743 63.0123 52.2768 62.5719C53.6382 62.3316 54.8795 61.0903 55.9606 60.3295C57.1619 59.4887 58.283 58.6078 59.4442 57.6868C62.1671 55.4845 64.7698 53.082 67.1722 50.5594C67.6928 49.9989 66.8519 49.158 66.3314 49.7186C64.3693 51.7607 62.3673 53.6827 60.205 55.5246C59.0038 56.5656 57.7625 57.5667 56.4812 58.4876C55.1198 59.5287 53.7183 60.81 51.9965 61.0503C50.7152 61.2104 50.4349 60.8901 49.5941 60.0092C49.1136 59.5287 48.6731 59.0082 48.1926 58.4876C47.2316 57.4466 46.1905 56.4455 45.1495 55.4845C43.1073 53.6026 40.9051 51.8808 38.6227 50.3192C38.0221 49.8787 37.4215 50.9198 38.0621 51.3603Z" fill="white"/>
<path fill-rule="evenodd" clip-rule="evenodd" d="M51.1961 77.3872C48.8737 83.0731 44.5492 87.7179 40.3849 92.1225C36.5009 96.2067 32.4968 100.131 28.853 104.415C21.4453 113.264 17.3611 124.076 16.0398 135.527C15.3591 141.454 15.8796 147.5 19.203 152.585C19.6435 153.226 20.6846 152.625 20.2441 151.984C16.1198 145.658 16.5603 137.93 18.0018 130.843C19.5634 123.355 21.9258 116.067 26.2904 109.741C30.2945 103.935 35.4598 99.0096 40.3049 93.9243C44.9497 89.0793 49.7546 83.9941 52.3173 77.7076C52.6376 76.9868 51.4764 76.6665 51.1961 77.3872Z" fill="white"/>
<path fill-rule="evenodd" clip-rule="evenodd" d="M39.9444 123.795C38.5429 123.155 39.7842 118.75 39.9844 117.669C40.3448 115.867 40.8653 114.105 41.506 112.383C42.2267 110.582 43.1076 108.82 44.2288 107.218C45.1898 105.857 47.1118 103.094 48.7935 102.573C49.1539 102.253 49.5944 102.293 50.0749 102.653C50.8757 102.493 51.2361 102.733 51.156 103.334C51.3161 103.775 51.156 104.575 51.1159 105.016C50.9958 106.257 50.7556 107.458 50.4753 108.7C49.9147 110.942 49.1539 113.144 48.1929 115.226C47.312 117.188 46.311 119.07 45.2298 120.912C44.7493 121.753 44.2688 122.594 43.7083 123.395C42.9875 124.436 39.5039 127.039 39.2236 123.955C39.1435 123.195 37.9423 123.195 38.0224 123.955C38.1826 125.877 40.1446 126.959 41.9865 126.398C44.5491 125.597 45.9906 122.113 47.1518 119.991C48.8736 116.828 50.3952 113.505 51.3562 110.021C51.9568 107.899 53.3182 103.775 51.8767 101.732C48.8736 97.488 42.4269 107.578 41.3859 109.661C40.0245 112.423 39.1035 115.427 38.623 118.47C38.3427 120.232 37.2616 123.795 39.3438 124.756C40.0645 125.117 40.6651 124.116 39.9444 123.795Z" fill="white"/>
<path fill-rule="evenodd" clip-rule="evenodd" d="M1.30447 167.561C5.30861 163.556 9.27271 159.512 13.2769 155.508C13.8374 154.948 12.9565 154.107 12.436 154.667C8.43184 158.671 4.46774 162.716 0.463597 166.72C-0.0569413 167.28 0.783929 168.121 1.30447 167.561Z" fill="white"/>
<path fill-rule="evenodd" clip-rule="evenodd" d="M12.636 155.668C19.9636 156.149 27.2511 157.11 34.4586 158.631C35.2194 158.791 35.5397 157.63 34.7789 157.47C27.4914 155.949 20.0837 154.947 12.636 154.467C11.8752 154.387 11.8752 155.588 12.636 155.668Z" fill="white"/>
<path fill-rule="evenodd" clip-rule="evenodd" d="M0.463707 168.361C8.35187 169.643 16.24 170.924 24.1682 172.205C24.929 172.325 25.2494 171.164 24.4886 171.044C16.6004 169.763 8.71224 168.481 0.784039 167.2C0.0632932 167.08 -0.29708 168.241 0.463707 168.361Z" fill="white"/>
<path fill-rule="evenodd" clip-rule="evenodd" d="M25.2087 171.124C28.4521 166.92 31.6554 162.755 34.8988 158.551C35.3793 157.95 34.3382 157.35 33.8577 157.95C30.6143 162.155 27.411 166.319 24.1677 170.523C23.6872 171.124 24.7282 171.725 25.2087 171.124Z" fill="white"/>
<path fill-rule="evenodd" clip-rule="evenodd" d="M24.1278 171.525C25.1289 177.451 26.1299 183.337 27.1309 189.263C27.2511 190.024 28.4123 189.703 28.2922 188.943C27.2911 183.017 26.2901 177.13 25.289 171.204C25.1689 170.444 24.0077 170.764 24.1278 171.525Z" fill="white"/>
<path fill-rule="evenodd" clip-rule="evenodd" d="M28.5723 189.904C31.1349 184.458 34.0179 179.212 37.3013 174.167C37.7417 173.527 36.7007 172.926 36.2602 173.567C32.9768 178.612 30.0538 183.857 27.5312 189.303C27.2109 189.984 28.2519 190.624 28.5723 189.904Z" fill="white"/>
<path fill-rule="evenodd" clip-rule="evenodd" d="M33.7785 158.912C34.7395 163.917 35.6204 168.922 36.4213 173.927C36.5414 174.688 37.7026 174.368 37.5824 173.607C36.8217 168.562 35.9408 163.556 34.9397 158.591C34.7796 157.83 33.6584 158.151 33.7785 158.912Z" fill="white"/>
<path fill-rule="evenodd" clip-rule="evenodd" d="M0.0231046 167.881C1.54468 173.847 2.86605 179.893 3.94716 185.98C4.06729 186.74 5.22849 186.42 5.10837 185.659C4.02725 179.573 2.70588 173.567 1.18431 167.56C0.984099 166.8 -0.177103 167.12 0.0231046 167.881Z" fill="white"/>
<path fill-rule="evenodd" clip-rule="evenodd" d="M4.3481 186.82C11.9159 189.143 19.764 190.264 27.6922 190.144C28.453 190.144 28.453 188.943 27.6922 188.943C19.8842 189.063 12.1562 187.982 4.66843 185.659C3.90764 185.419 3.58731 186.58 4.3481 186.82Z" fill="white"/>
<path fill-rule="evenodd" clip-rule="evenodd" d="M30.3343 193.187C34.5787 203.598 41.5459 213.688 51.7965 218.934C57.7227 221.937 64.3295 222.818 70.8963 222.658C78.0237 222.497 85.151 221.176 91.7979 218.573C99.0855 215.69 105.812 210.725 113.861 210.285C114.622 210.245 114.622 209.043 113.861 209.083C107.774 209.404 102.409 212.247 97.0834 214.889C90.6367 218.053 83.9098 220.215 76.7423 221.056C69.8953 221.857 62.5677 221.817 56.0009 219.454C50.5552 217.532 45.8304 214.009 41.9463 209.804C37.4217 204.919 34.0181 199.033 31.4955 192.867C31.2152 192.146 30.054 192.466 30.3343 193.187Z" fill="white"/>
<path fill-rule="evenodd" clip-rule="evenodd" d="M151.54 215.01C156.025 214.209 160.389 217.532 161.631 221.817C162.912 226.181 160.95 230.946 157.907 234.109C150.859 241.517 139.448 240.876 130.118 241.357C120.588 241.877 111.499 244.48 102.449 247.283C93.7203 249.926 84.8711 251.888 76.1021 254.21C71.7375 255.371 67.4131 256.733 63.2888 258.615C61.1266 259.616 59.0444 260.737 57.0824 262.018C56.3616 262.499 55.0803 263.099 54.5598 263.82C54.1594 264.421 54.3996 265.342 54.3996 266.022C54.3996 266.783 55.6008 266.783 55.6008 266.022C55.6008 264.541 55.9212 264.261 57.1625 263.42C58.0434 262.819 58.9643 262.219 59.8853 261.698C62.0876 260.417 64.3699 259.376 66.7324 258.455C71.1369 256.733 75.7016 255.532 80.2664 254.41C84.8311 253.289 89.3958 252.328 93.8805 251.087C98.8856 249.726 103.811 248.124 108.776 246.642C113.741 245.201 118.746 243.88 123.871 243.159C129.678 242.358 135.524 242.558 141.33 241.998C149.538 241.197 158.507 238.234 162.031 230.065C163.753 226.061 163.633 221.456 160.95 217.933C158.627 214.89 154.984 213.208 151.22 213.889C150.459 213.969 150.819 215.13 151.54 215.01Z" fill="white"/>
<path fill-rule="evenodd" clip-rule="evenodd" d="M39.8243 278.755C38.2627 284.722 37.1416 290.768 36.5009 296.934C36.4208 297.695 37.6221 297.695 37.7021 296.934C38.3428 290.888 39.464 284.962 40.9855 279.076C41.1857 278.355 40.0245 278.035 39.8243 278.755Z" fill="white"/>
<path fill-rule="evenodd" clip-rule="evenodd" d="M41.1858 279.717C48.073 279.677 54.9601 279.636 61.8472 279.596C62.648 279.596 63.8493 279.356 64.57 279.596C64.8103 279.596 65.0906 279.596 65.3308 279.596C65.6111 280.237 65.6511 280.878 65.4109 281.558C65.2107 283.24 64.8103 284.922 64.4899 286.604C63.8493 290.087 63.2086 293.571 62.568 297.054C62.4478 297.815 63.569 298.136 63.7292 297.375C64.4899 293.251 65.2507 289.126 66.0115 285.002C66.2918 283.48 67.1727 281.238 66.9325 279.717C66.8124 278.956 66.492 278.675 65.8113 278.475C64.0895 277.995 61.687 278.475 59.8852 278.475C57.803 278.475 55.7209 278.515 53.6387 278.515C49.4744 278.555 45.3501 278.555 41.1858 278.595C40.425 278.515 40.425 279.717 41.1858 279.717Z" fill="white"/>
<path fill-rule="evenodd" clip-rule="evenodd" d="M36.6614 298.055C45.4705 297.735 54.2796 297.855 63.0888 298.376C63.8495 298.416 63.8495 297.215 63.0888 297.175C54.2796 296.654 45.4705 296.534 36.6614 296.854C35.9006 296.894 35.9006 298.095 36.6614 298.055Z" fill="white"/>
<path fill-rule="evenodd" clip-rule="evenodd" d="M46.2314 278.596C46.3516 275.633 47.1524 272.91 48.674 270.347C48.3136 270.307 47.9532 270.267 47.5928 270.187C48.3937 273.15 48.6339 276.153 48.3536 279.196C48.2736 279.957 49.4748 279.957 49.5549 279.196C49.8352 276.033 49.5549 272.95 48.754 269.867C48.6339 269.346 47.9132 269.266 47.6729 269.707C46.0713 272.429 45.1904 275.392 45.0702 278.596C44.9902 279.357 46.1914 279.357 46.2314 278.596Z" fill="white"/>
<path fill-rule="evenodd" clip-rule="evenodd" d="M49.9946 278.595C49.9545 277.594 50.3149 269.666 52.1168 269.946C51.9566 269.746 51.8365 269.546 51.6763 269.386C51.8765 272.469 52.0767 275.512 52.2769 278.595C52.317 279.356 53.5182 279.356 53.4782 278.595C53.278 275.512 53.0778 272.469 52.8776 269.386C52.8776 269.146 52.7174 268.865 52.4371 268.825C50.9556 268.585 50.355 269.786 49.9545 271.028C49.0736 273.47 48.7533 276.033 48.7933 278.635C48.8334 279.396 50.0346 279.396 49.9946 278.595Z" fill="white"/>
<path fill-rule="evenodd" clip-rule="evenodd" d="M53.5181 278.596C53.3979 277.314 53.3979 276.073 53.5181 274.832C53.5981 274.191 53.9585 270.988 54.6793 270.948C55.2398 270.908 55.0396 272.109 55.0797 272.629C55.1197 273.35 55.1998 274.031 55.2398 274.752C55.36 276.153 55.4801 277.554 55.5602 278.956C55.6403 279.717 56.8415 279.717 56.7614 278.956C56.5612 276.513 56.401 274.031 56.1608 271.588C56.0807 270.667 55.8405 269.266 54.5591 269.466C53.3579 269.666 52.9975 271.268 52.7573 272.229C52.2367 274.351 52.0766 276.473 52.2768 278.676C52.3969 279.356 53.5981 279.356 53.5181 278.596Z" fill="white"/>
<path fill-rule="evenodd" clip-rule="evenodd" d="M57.1622 278.315C57.1622 277.034 57.2823 275.753 57.5226 274.471C57.6427 273.831 57.963 271.869 58.5636 271.588C59.0842 271.348 58.8039 272.229 58.8439 272.669C58.884 273.31 58.884 273.911 58.884 274.551C58.884 275.793 58.884 277.034 58.8439 278.315C58.8439 279.076 60.0452 279.076 60.0452 278.315C60.0852 276.073 60.2454 273.71 59.9651 271.468C59.885 270.707 59.6047 269.746 58.6437 269.786C57.4425 269.826 57.0421 271.668 56.7618 272.509C56.1612 274.391 55.8809 276.353 55.8809 278.315C55.9609 279.116 57.1622 279.116 57.1622 278.315Z" fill="white"/>
<path fill-rule="evenodd" clip-rule="evenodd" d="M42.4671 282.079C42.2669 283.24 42.0667 284.401 41.8265 285.562C41.7064 286.283 41.2659 287.444 41.6263 288.165C41.8665 288.686 42.347 288.846 42.9076 288.966C43.9487 289.206 45.0698 289.286 46.1109 289.446C46.8717 289.567 47.192 288.405 46.4312 288.285C45.7505 288.165 45.0698 288.085 44.3491 287.965C44.0288 287.925 43.7485 287.885 43.4281 287.845C42.7875 287.725 42.7474 287.885 42.7875 286.844C42.8676 285.362 43.3481 283.841 43.5883 282.399C43.7485 281.638 42.6273 281.318 42.4671 282.079Z" fill="white"/>
<path fill-rule="evenodd" clip-rule="evenodd" d="M47.032 288.045C46.5915 287.565 47.4324 286.644 47.8328 287.445C48.1932 288.165 47.072 288.286 46.9118 287.685C46.7116 286.924 45.5504 287.244 45.7506 288.005C45.9909 288.926 47.032 289.447 47.9529 289.206C48.994 288.926 49.3544 287.725 48.8739 286.804C48.3533 285.883 47.1921 285.563 46.3913 286.243C45.6305 286.884 45.5504 288.085 46.1911 288.846C46.7116 289.487 47.5525 288.606 47.032 288.045Z" fill="white"/>
<path fill-rule="evenodd" clip-rule="evenodd" d="M49.6744 287.004C49.5943 286.244 49.354 285.283 49.4341 284.562C49.5142 283.881 49.4341 283.801 50.275 283.641C50.7955 283.521 51.3561 283.561 51.8766 283.561C53.7185 283.441 55.5204 283.361 57.3623 283.241C58.1231 283.201 58.1231 281.999 57.3623 282.039C55.8407 282.119 54.3592 282.24 52.8376 282.32C51.6764 282.4 50.315 282.24 49.2339 282.56C47.392 283.12 48.313 285.643 48.4731 287.044C48.5532 287.765 49.7544 287.765 49.6744 287.004Z" fill="white"/>
<path fill-rule="evenodd" clip-rule="evenodd" d="M58.9236 283.04C58.5232 282.6 59.3241 281.919 59.7645 282.56C60.285 283.321 59.324 283.961 58.6433 283.841C57.8826 283.721 57.5622 284.842 58.323 285.002C59.244 285.162 60.245 284.882 60.8056 284.041C61.3261 283.24 61.166 282.159 60.4452 281.519C58.8836 280.117 56.6813 282.4 58.0828 283.881C58.6033 284.482 59.4842 283.641 58.9236 283.04Z" fill="white"/>
<path fill-rule="evenodd" clip-rule="evenodd" d="M58.0027 284.001C57.9226 285.122 57.8025 286.243 57.7224 287.324C57.6824 287.885 57.6824 288.445 57.5622 289.006C57.5622 289.286 57.5222 289.526 57.362 289.807C57.362 290.287 57.0817 290.447 56.5612 290.287C55.6803 290.528 54.5992 290.407 53.6782 290.487C52.517 290.568 51.3158 290.648 50.1546 290.728C49.3938 290.768 49.3938 291.969 50.1546 291.929C51.8764 291.809 53.5581 291.729 55.2799 291.609C56.1207 291.569 57.4421 291.769 58.1228 291.208C58.6834 290.768 58.6434 290.007 58.6834 289.366C58.8436 287.604 59.0037 285.803 59.1639 284.041C59.284 283.24 58.0828 283.24 58.0027 284.001Z" fill="white"/>
<path fill-rule="evenodd" clip-rule="evenodd" d="M49.8742 291.049C49.5939 292.09 49.3937 293.131 49.2736 294.212C49.2335 294.572 49.5939 294.772 49.8742 294.812C51.596 294.973 53.2777 295.173 54.9995 295.333C55.7603 295.413 55.7603 294.212 54.9995 294.132C53.2777 293.972 51.596 293.771 49.8742 293.611C50.0744 293.811 50.2746 294.012 50.4748 294.212C50.5949 293.251 50.7951 292.33 51.0354 291.369C51.2756 290.608 50.1144 290.288 49.8742 291.049Z" fill="white"/>
<path fill-rule="evenodd" clip-rule="evenodd" d="M55.9213 294.452C55.641 294.292 55.8412 293.651 56.2416 294.011C56.7622 294.452 56.0414 294.932 55.5609 294.692C54.8802 294.332 54.2796 295.373 54.9603 295.733C55.681 296.134 56.642 296.013 57.2026 295.373C57.8433 294.652 57.6431 293.571 56.9223 293.01C56.2016 292.49 55.2005 292.65 54.8001 293.451C54.4398 294.131 54.5999 295.133 55.3607 295.493C56.0014 295.813 56.602 294.812 55.9213 294.452Z" fill="white"/>
<path fill-rule="evenodd" clip-rule="evenodd" d="M38.6229 283.52C37.3016 283.12 32.2564 281.598 31.9761 284.041C31.8559 285.002 32.8169 285.522 33.5777 285.722C35.1393 286.163 36.8611 286.283 38.5028 286.363C39.2636 286.403 39.2636 285.202 38.5028 285.162C37.5418 285.122 36.5808 285.042 35.6198 284.922C35.1393 284.841 33.6978 284.801 33.5377 284.281C33.4176 283.84 33.9781 284.001 34.3385 284.001C34.7389 284.001 35.1794 284.041 35.5798 284.081C36.5007 284.201 37.4217 284.401 38.3026 284.681C39.0234 284.922 39.3437 283.76 38.6229 283.52Z" fill="white"/>
<path fill-rule="evenodd" clip-rule="evenodd" d="M37.7426 285.522C36.5013 285.122 31.7364 283.801 31.8965 286.483C31.9366 287.524 32.8575 288.085 33.7785 288.245C35.4202 288.525 37.1419 288.565 38.7836 288.686C39.5444 288.766 39.5444 287.564 38.7836 287.484C37.9828 287.404 37.222 287.364 36.4212 287.284C35.8206 287.244 34.4592 287.364 33.9386 287.044C33.6984 286.764 33.4581 286.483 33.2579 286.203C33.4181 286.163 33.6183 286.123 33.7785 286.083C34.0988 286.043 34.4191 286.083 34.7395 286.123C35.6604 286.203 36.5814 286.403 37.4623 286.724C38.183 286.924 38.4633 285.763 37.7426 285.522Z" fill="white"/>
<path fill-rule="evenodd" clip-rule="evenodd" d="M37.5024 287.845C36.181 287.325 30.6152 286.524 31.0957 289.287C31.5362 292.05 36.5013 291.569 38.3032 290.968C39.0239 290.728 38.7036 289.567 37.9829 289.807C37.182 290.048 36.3812 290.208 35.5403 290.208C34.9397 290.208 33.1378 290.168 32.7374 289.567C32.1368 288.606 33.9787 288.406 34.6594 288.406C35.5403 288.406 36.3412 288.606 37.182 288.926C37.9028 289.287 38.1831 288.126 37.5024 287.845Z" fill="white"/>
<path fill-rule="evenodd" clip-rule="evenodd" d="M43.5079 296.974C42.0664 299.937 42.0664 303.141 43.5079 306.104C43.7081 306.544 44.3087 306.464 44.549 306.104C46.2707 303.421 47.2317 300.418 47.3919 297.215C47.4319 296.454 46.2307 296.454 46.1906 297.215C46.0705 300.218 45.1496 302.981 43.5079 305.503C43.8682 305.503 44.1886 305.503 44.549 305.503C43.3077 302.981 43.3477 300.138 44.549 297.615C44.8693 296.894 43.8282 296.294 43.5079 296.974Z" fill="white"/>
<path fill-rule="evenodd" clip-rule="evenodd" d="M46.5108 297.095C46.0303 298.936 45.8701 300.818 46.1104 302.74C46.2305 303.621 46.2705 305.463 47.3116 305.904C48.1124 306.224 48.7531 305.503 49.0734 304.822C49.8743 302.86 50.1145 300.378 50.595 298.296C50.7552 297.535 49.594 297.215 49.4338 297.975C49.1936 299.097 48.9133 300.218 48.673 301.379C48.5929 301.779 48.2326 304.542 47.7521 304.582C47.5118 304.622 47.2716 301.619 47.2315 301.299C47.1915 299.977 47.3917 298.696 47.672 297.415C47.8322 296.694 46.671 296.374 46.5108 297.095Z" fill="white"/>
<path fill-rule="evenodd" clip-rule="evenodd" d="M49.7543 297.375C49.3539 299.377 49.2338 301.419 49.434 303.461C49.5141 304.422 49.8344 305.984 51.0356 306.144C52.2769 306.304 52.5972 304.742 52.8375 303.861C53.318 301.979 53.5182 300.057 53.4781 298.135C53.4781 297.375 52.2769 297.375 52.2769 298.135C52.2769 299.217 52.2369 300.338 52.0767 301.419C51.9966 302.06 51.8765 304.182 51.3159 304.622C50.5551 305.263 50.475 302.1 50.475 301.699C50.475 300.378 50.5952 299.056 50.8354 297.735C51.0757 296.934 49.9145 296.614 49.7543 297.375Z" fill="white"/>
<path fill-rule="evenodd" clip-rule="evenodd" d="M64.3295 292.289C65.8111 292.97 67.3327 293.411 68.9744 293.451C69.8953 293.491 71.8173 293.571 72.0976 292.329C72.2978 291.409 71.3768 290.688 70.6561 290.367C68.7741 289.567 66.5318 289.206 64.5698 288.646C63.809 288.445 63.4887 289.607 64.2495 289.807C65.2905 290.087 66.3316 290.407 67.3727 290.688C68.0534 290.888 69.8152 291.048 70.2557 291.529C70.6961 291.609 70.6561 291.849 70.1756 292.209C70.0154 292.209 69.8553 292.249 69.6951 292.249C69.2947 292.329 68.6941 292.249 68.2936 292.209C67.1324 292.089 66.0113 291.769 64.9702 291.248C64.2495 290.928 63.6488 291.969 64.3295 292.289Z" fill="white"/>
<path fill-rule="evenodd" clip-rule="evenodd" d="M64.25 289.406C65.7716 290.167 67.3733 290.488 69.055 290.247C70.2162 290.087 72.1782 289.527 72.8189 288.405C74.3405 285.763 65.9718 286.043 64.8907 286.123C64.1299 286.163 64.1299 287.364 64.8907 287.324C66.0519 287.244 67.2531 287.244 68.4144 287.364C69.1351 287.444 69.8558 287.525 70.5766 287.685C70.8569 287.725 71.1372 287.805 71.4575 287.885C71.898 287.925 71.8579 288.005 71.3374 288.165C69.7357 289.687 66.5724 289.326 64.8106 288.405C64.17 288.045 63.5293 289.086 64.25 289.406Z" fill="white"/>
<path fill-rule="evenodd" clip-rule="evenodd" d="M65.2502 286.564C66.6116 287.084 68.0531 287.244 69.4946 286.924C70.4156 286.724 71.7369 286.323 71.8971 285.242C72.0172 284.361 71.2564 283.721 70.4957 283.44C69.0942 282.88 67.2923 282.92 65.7708 282.72C65.01 282.64 65.01 283.841 65.7708 283.921C66.6917 284.041 67.6527 284.161 68.5737 284.281C68.9741 284.321 69.3745 284.361 69.7749 284.481C70.2154 284.602 70.6558 284.682 70.5357 285.162C70.3755 285.803 68.6938 285.923 68.1332 285.923C67.2523 285.963 66.3714 285.763 65.5706 285.442C64.8498 285.122 64.5695 286.283 65.2502 286.564Z" fill="white"/>
</svg>
