<svg width="173" height="409" viewBox="0 0 173 409" fill="none" xmlns="http://www.w3.org/2000/svg">
<path fill-rule="evenodd" clip-rule="evenodd" d="M83.9176 21.3097C92.3548 22.3296 100.699 24.0912 108.765 26.6409C112.567 27.8462 116.322 29.1906 120.03 30.7204C123.739 32.2502 130.322 35.727 126.66 40.641C124.62 43.3761 121.189 45.4159 118.547 47.4556C115.766 49.6344 112.938 51.8133 110.342 54.2239C106.818 57.5617 100.05 64.1908 102.6 69.6611C103.852 72.3035 106.911 73.1379 109.6 73.5088C114.282 74.1578 119.057 74.3896 123.785 74.8068C124.666 74.8995 124.666 73.5088 123.785 73.4161C119.428 72.9989 115.024 72.6743 110.666 72.2108C108.858 72.0253 106.865 71.7472 105.335 70.681C102.971 69.0121 103.342 66.0915 104.501 63.7736C107.699 57.3762 114.004 52.7404 119.474 48.4755C123.368 45.4622 131.249 41.29 128.468 35.3098C127.123 32.3893 124.203 30.9522 121.375 29.7932C117.898 28.3098 114.375 27.0118 110.805 25.8528C102.09 22.9786 93.0501 21.0316 83.964 19.919C83.0368 19.8263 83.0368 21.217 83.9176 21.3097Z" fill="white"/>
<path fill-rule="evenodd" clip-rule="evenodd" d="M129.672 68.5024C127.446 71.9328 125.314 75.4097 123.228 78.9329C122.208 80.6945 121.188 82.4561 120.215 84.2641C119.473 85.6548 118.175 87.231 117.85 88.7608C117.665 89.5025 117.758 89.9661 118.221 90.5687C119.241 92.0058 121.327 93.2111 122.672 94.3237C125.824 96.9661 128.976 99.6085 132.175 102.251C132.87 102.807 133.844 101.834 133.148 101.277C130.46 99.0059 127.725 96.7344 125.036 94.4628C123.784 93.4429 122.532 92.3767 121.327 91.3568C120.632 90.7542 119.705 90.337 119.519 89.4098C119.334 88.4826 119.983 87.7409 120.446 86.9528C123.738 80.9263 127.261 75.0388 130.97 69.2441C131.34 68.456 130.135 67.7606 129.672 68.5024Z" fill="white"/>
<path fill-rule="evenodd" clip-rule="evenodd" d="M130.876 67.9921C131.525 78.9326 131.896 89.9195 131.942 100.86C131.942 101.741 133.333 101.741 133.333 100.86C133.287 89.8731 132.962 78.9326 132.267 67.9921C132.221 67.1113 130.83 67.1113 130.876 67.9921Z" fill="white"/>
<path fill-rule="evenodd" clip-rule="evenodd" d="M130.83 68.595C136.903 76.8003 142.142 85.562 146.406 94.8335C146.777 95.668 147.983 94.9263 147.612 94.1382C143.347 84.8666 138.108 76.0586 132.036 67.8996C131.526 67.1579 130.32 67.8533 130.83 68.595Z" fill="white"/>
<path fill-rule="evenodd" clip-rule="evenodd" d="M133.24 102.112C135.188 101.602 150.393 98.0785 147.611 94.8335C147.055 94.1381 146.035 95.158 146.638 95.807C146.777 95.9924 140.194 98.5421 139.545 98.7739C137.32 99.5156 135.095 100.165 132.823 100.767C132.035 100.999 132.406 102.343 133.24 102.112Z" fill="white"/>
<path fill-rule="evenodd" clip-rule="evenodd" d="M143.346 105.357C156.836 117.549 165.042 134.238 168.889 151.807C172.644 169.099 172.644 187.828 167.916 204.934C165.551 213.464 161.889 221.715 156.512 228.808C150.346 236.874 142.048 242.484 133.055 246.934C114.326 256.252 94.0675 261.954 73.8554 266.961C62.5441 269.742 51.1864 272.338 39.8751 275.166C31.8088 277.206 18.2259 279.848 18.9676 290.881C19.014 291.762 20.4047 291.762 20.3584 290.881C19.9412 284.901 25.0869 281.053 30.1863 279.245C34.9148 277.577 39.9214 276.557 44.789 275.351C55.1268 272.802 65.5574 270.438 75.8952 267.841C96.0609 262.835 116.273 256.994 134.863 247.537C143.392 243.179 151.227 237.755 157.161 230.152C162.306 223.57 165.969 215.967 168.426 207.993C173.618 191.258 174.035 172.808 171.022 155.609C167.591 136.278 159.061 117.595 144.32 104.291C143.67 103.781 142.697 104.754 143.346 105.357Z" fill="white"/>
<path fill-rule="evenodd" clip-rule="evenodd" d="M-2.91166 297.279C12.7573 297.001 28.4263 296.723 44.0953 296.398C44.9761 296.398 44.9761 295.007 44.0953 295.007C28.4263 295.285 12.7573 295.564 -2.91166 295.888C-3.79247 295.888 -3.79247 297.279 -2.91166 297.279Z" fill="white"/>
<path fill-rule="evenodd" clip-rule="evenodd" d="M43.3994 295.934C43.3994 305.299 43.3994 314.709 43.3994 324.074C43.3994 324.954 44.7902 324.954 44.7902 324.074C44.7902 314.709 44.7902 305.299 44.7902 295.934C44.7902 295.053 43.3994 295.053 43.3994 295.934Z" fill="white"/>
<path fill-rule="evenodd" clip-rule="evenodd" d="M-2.63432 329.915C10.7631 329.915 24.1142 329.915 37.5117 329.915C38.3925 329.915 38.3925 328.524 37.5117 328.524C24.1142 328.524 10.7631 328.524 -2.63432 328.524C-3.51512 328.524 -3.51512 329.915 -2.63432 329.915Z" fill="white"/>
<path fill-rule="evenodd" clip-rule="evenodd" d="M37.2804 329.729C39.6446 332.742 42.8897 334.829 46.5983 335.663C47.4791 335.848 47.85 334.504 46.9692 334.319C43.446 333.531 40.479 331.584 38.2539 328.756C37.6976 328.014 36.7241 329.034 37.2804 329.729Z" fill="white"/>
<path fill-rule="evenodd" clip-rule="evenodd" d="M43.1224 324.583C43.725 328.153 44.9303 331.537 46.6919 334.69C47.1555 335.478 48.3145 334.782 47.8972 333.994C46.1356 330.935 45.0231 327.69 44.4668 324.213C44.3277 323.332 42.9833 323.703 43.1224 324.583Z" fill="white"/>
<path fill-rule="evenodd" clip-rule="evenodd" d="M41.8238 338.908C43.7245 344.703 49.9828 347.067 55.453 348.273C63.2412 349.988 71.2611 349.617 79.142 349.246C80.0228 349.2 80.0228 347.809 79.142 347.855C72.2346 348.18 65.1882 348.551 58.3272 347.438C52.7643 346.511 45.1616 344.61 43.1682 338.537C42.89 337.703 41.5457 338.074 41.8238 338.908Z" fill="white"/>
<path fill-rule="evenodd" clip-rule="evenodd" d="M117.525 342.385C120.724 340.902 124.525 341.829 127.075 344.193C129.995 346.928 130.644 351.332 129.81 355.087C128.187 362.273 121.604 366.816 115.392 369.922C101.995 376.597 88.0412 382.392 75.7564 391.107C70.3788 394.908 65.6967 400.564 66.902 407.564C67.0411 408.445 68.3855 408.074 68.2464 407.193C66.7166 397.968 75.9882 392.405 82.7101 388.372C89.9419 384.014 97.4055 379.981 105.008 376.319C111.823 373.028 119.379 370.432 125.081 365.239C129.763 360.975 132.869 354.577 131.015 348.18C129.3 342.2 122.671 338.491 116.829 341.133C115.995 341.551 116.69 342.756 117.525 342.385Z" fill="white"/>
<path fill-rule="evenodd" clip-rule="evenodd" d="M3.94771 306.226C13.9147 306.226 23.928 306.226 33.895 306.226C34.7758 306.226 34.7758 304.835 33.895 304.835C23.928 304.835 13.9147 304.835 3.94771 304.835C3.06691 304.835 3.06691 306.226 3.94771 306.226Z" fill="white"/>
<path fill-rule="evenodd" clip-rule="evenodd" d="M4.27388 310.723C13.6382 310.723 23.0489 310.723 32.4132 310.723C33.294 310.723 33.294 309.332 32.4132 309.332C23.0489 309.332 13.6382 309.332 4.27388 309.332C3.39308 309.332 3.39308 310.723 4.27388 310.723Z" fill="white"/>
<path fill-rule="evenodd" clip-rule="evenodd" d="M4.55123 314.617C13.6374 314.617 22.7235 314.617 31.8097 314.617C32.6905 314.617 32.6905 313.226 31.8097 313.226C22.7235 313.226 13.6374 313.226 4.55123 313.226C3.67042 313.226 3.67042 314.617 4.55123 314.617Z" fill="white"/>
<path fill-rule="evenodd" clip-rule="evenodd" d="M-131.88 47.6411C-108.84 32.4821 -76.6213 48.9392 -55.6675 28.4489C-53.5814 26.4092 -51.7734 24.1377 -50.1972 21.6807C-48.2502 18.6211 -46.7204 15.2369 -44.2171 12.5482C-41.7601 9.90577 -37.866 7.86602 -34.2501 9.16404C-31.1905 10.2766 -29.6143 13.5217 -28.5481 16.3959C-27.0182 20.5217 -26.1838 27.3364 -20.2964 26.7337C-14.5943 26.1774 -12.74 20.1045 -11.2566 15.5151C-10.0049 11.8064 -8.79959 7.49515 -6.4817 4.29645C-4.85916 2.07127 -1.8459 0.309671 0.750153 2.02491C2.18724 2.99843 2.74353 4.85275 3.25348 6.42892C5.10779 12.0846 8.72371 16.2568 14.8893 16.9522C15.7701 17.0449 15.7701 15.6542 14.8893 15.5614C11.4125 15.1442 8.21378 13.2435 6.3131 10.2766C4.82965 7.95873 4.64421 5.1309 3.25348 2.813C0.425644 -1.96187 -5.32274 -0.0148348 -7.96514 3.87923C-9.72675 6.52164 -10.793 9.76669 -11.8592 12.78C-13.0645 16.0714 -13.7599 19.8727 -15.9851 22.7006C-17.1904 24.2304 -18.9983 25.343 -20.9917 25.3893C-23.6805 25.3893 -24.9322 23.0714 -25.6739 20.8462C-26.5083 18.3893 -27.1573 15.8859 -28.3163 13.568C-30.4487 9.07132 -34.6673 6.28985 -39.7203 7.91237C-45.9323 9.95212 -48.482 16.3032 -51.6807 21.3562C-55.4357 27.2436 -60.9059 31.8794 -67.3033 34.6609C-74.1643 37.6278 -81.6743 38.4623 -89.0915 38.7868C-103.787 39.3894 -119.734 38.045 -132.622 46.5285C-133.363 46.8994 -132.668 48.1047 -131.88 47.6411Z" fill="white"/>
<path fill-rule="evenodd" clip-rule="evenodd" d="M151.552 216.848C153.174 213.324 154.797 209.755 156.419 206.232C157.161 204.609 157.903 202.94 158.644 201.318C158.923 200.669 159.247 199.371 159.757 198.861C159.989 198.073 160.592 197.887 161.611 198.304C161.704 198.582 161.75 198.861 161.75 199.185C162.075 200.669 161.009 202.755 160.545 204.099C159.989 205.675 159.386 207.251 158.737 208.828C157.995 210.589 157.254 212.351 156.419 214.066C156.095 214.761 155.77 215.503 155.399 216.199C155.121 216.755 154.797 217.218 154.38 217.682C152.942 218.656 152.062 218.516 151.737 217.172C151.737 216.291 150.346 216.291 150.346 217.172C150.346 218.563 151.413 219.583 152.803 219.722C154.611 219.861 155.817 218.331 156.605 216.894C158.135 214.205 159.247 211.285 160.406 208.457C161.426 205.907 162.863 202.986 163.141 200.251C163.419 197.702 161.101 194.364 158.969 197.516C157.207 200.159 156.141 203.543 154.843 206.417C153.36 209.708 151.83 212.953 150.346 216.245C149.976 216.94 151.181 217.682 151.552 216.848Z" fill="white"/>
</svg>
