<svg width="246" height="166" viewBox="0 0 246 166" fill="none" xmlns="http://www.w3.org/2000/svg">
<path fill-rule="evenodd" clip-rule="evenodd" d="M89.1449 21.31C80.7077 22.3298 72.3633 24.0914 64.297 26.6411C60.4957 27.8464 56.7407 29.1908 53.032 30.7206C49.3234 32.2504 42.7406 35.7273 46.4029 40.6412C48.4426 43.3764 51.8731 45.4161 54.5155 47.4559C57.297 49.6347 60.1248 51.8135 62.7209 54.2241C66.2441 57.5619 73.0123 64.1911 70.4626 69.6613C69.211 72.3037 66.1513 73.1382 63.4626 73.509C58.7804 74.158 54.0056 74.3898 49.2771 74.807C48.3963 74.8998 48.3963 73.509 49.2771 73.4163C53.6347 72.9991 58.0387 72.6746 62.3964 72.211C64.2043 72.0256 66.1977 71.7474 67.7275 70.6812C70.0918 69.0123 69.7209 66.0917 68.562 63.7738C65.3633 57.3764 59.0586 52.7407 53.5883 48.4757C49.6943 45.4625 41.8134 41.2902 44.5949 35.3101C45.9393 32.3895 48.8598 30.9524 51.6877 29.7935C55.1645 28.31 58.6877 27.012 62.2573 25.853C70.9726 22.9789 80.0124 21.0318 89.0985 19.9192C90.0257 19.8265 90.0257 21.2173 89.1449 21.31Z" fill="#141414"/>
<path fill-rule="evenodd" clip-rule="evenodd" d="M43.3905 68.5021C45.6156 71.9326 47.7481 75.4095 49.8342 78.9327C50.8541 80.6943 51.874 82.4559 52.8475 84.2638C53.5892 85.6546 54.8872 87.2307 55.2117 88.7605C55.3972 89.5023 55.3044 89.9658 54.8409 90.5685C53.821 92.0056 51.7349 93.2109 50.3905 94.3235C47.2381 96.9659 44.0858 99.6083 40.8871 102.251C40.1917 102.807 39.2182 101.833 39.9136 101.277C42.6024 99.0056 45.3375 96.7341 48.0262 94.4626C49.2779 93.4427 50.5296 92.3765 51.7349 91.3566C52.4303 90.7539 53.3574 90.3367 53.5429 89.4096C53.7283 88.4824 53.0793 87.7407 52.6157 86.9526C49.3243 80.926 45.8011 75.0386 42.0924 69.2438C41.7216 68.4558 42.9269 67.7604 43.3905 68.5021Z" fill="#141414"/>
<path fill-rule="evenodd" clip-rule="evenodd" d="M42.1859 67.9921C41.5369 78.9326 41.166 89.9195 41.1196 100.86C41.1196 101.741 39.7289 101.741 39.7289 100.86C39.7752 89.8731 40.0998 78.9326 40.7951 67.9921C40.8415 67.1113 42.2322 67.1113 42.1859 67.9921Z" fill="#141414"/>
<path fill-rule="evenodd" clip-rule="evenodd" d="M42.2323 68.595C36.1594 76.8004 30.9209 85.562 26.656 94.8336C26.2851 95.668 25.0798 94.9263 25.4507 94.1382C29.7156 84.8666 34.9541 76.0586 41.027 67.8996C41.5369 67.1579 42.7422 67.8533 42.2323 68.595Z" fill="#141414"/>
<path fill-rule="evenodd" clip-rule="evenodd" d="M39.8215 102.112C37.8745 101.602 22.6691 98.0785 25.4506 94.8335C26.0069 94.1381 27.0268 95.158 26.4241 95.807C26.285 95.9924 32.8679 98.5421 33.5169 98.7739C35.7421 99.5156 37.9672 100.165 40.2388 100.767C41.0269 100.999 40.656 102.343 39.8215 102.112Z" fill="#141414"/>
<path fill-rule="evenodd" clip-rule="evenodd" d="M29.716 105.357C16.2258 117.549 8.02051 134.238 4.17279 151.807C0.417801 169.099 0.417786 187.828 5.1463 204.934C7.51056 213.464 11.1728 221.715 16.5503 228.808C22.7159 236.874 31.014 242.484 40.0075 246.934C58.7361 256.252 78.9945 261.954 99.2066 266.961C110.518 269.742 121.876 272.338 133.187 275.166C141.253 277.206 154.836 279.848 154.094 290.881C154.048 291.762 152.657 291.762 152.704 290.881C153.121 284.901 147.975 281.053 142.876 279.245C138.147 277.577 133.141 276.557 128.273 275.351C117.935 272.802 107.505 270.437 97.1668 267.841C77.0011 262.835 56.789 256.994 38.1995 247.537C29.6696 243.179 21.8352 237.755 15.9014 230.152C10.7556 223.57 7.09334 215.967 4.63637 207.993C-0.555725 191.258 -0.972961 172.808 2.04031 155.609C5.47079 136.278 14.0007 117.595 28.7425 104.291C29.3915 103.781 30.365 104.754 29.716 105.357Z" fill="#141414"/>
<path fill-rule="evenodd" clip-rule="evenodd" d="M304.942 47.6411C281.903 32.4821 249.684 48.9392 228.73 28.4489C226.644 26.4092 224.836 24.1377 223.26 21.6807C221.313 18.6211 219.783 15.2369 217.28 12.5482C214.823 9.90577 210.929 7.86602 207.313 9.16404C204.253 10.2766 202.677 13.5217 201.611 16.3959C200.081 20.5217 199.246 27.3364 193.359 26.7337C187.657 26.1774 185.803 20.1045 184.319 15.5151C183.067 11.8064 181.862 7.49515 179.544 4.29645C177.922 2.07127 174.908 0.309671 172.312 2.02491C170.875 2.99843 170.319 4.85275 169.809 6.42892C167.955 12.0846 164.339 16.2568 158.173 16.9522C157.292 17.0449 157.292 15.6542 158.173 15.5614C161.65 15.1442 164.849 13.2435 166.749 10.2766C168.233 7.95873 168.418 5.1309 169.809 2.813C172.637 -1.96187 178.385 -0.0148348 181.028 3.87923C182.789 6.52164 183.855 9.76669 184.922 12.78C186.127 16.0714 186.822 19.8727 189.048 22.7006C190.253 24.2304 192.061 25.343 194.054 25.3893C196.743 25.3893 197.995 23.0714 198.736 20.8462C199.571 18.3893 200.22 15.8859 201.379 13.568C203.511 9.07132 207.73 6.28985 212.783 7.91237C218.995 9.95212 221.544 16.3032 224.743 21.3562C228.498 27.2436 233.968 31.8794 240.366 34.6609C247.227 37.6278 254.737 38.4623 262.154 38.7868C276.85 39.3894 292.797 38.045 305.684 46.5285C306.426 46.8994 305.731 48.1047 304.942 47.6411Z" fill="#141414"/>
</svg>
