<svg width="177" height="273" viewBox="0 0 177 273" fill="none" xmlns="http://www.w3.org/2000/svg">
<path fill-rule="evenodd" clip-rule="evenodd" d="M-21.5868 82.3747C-22.4443 63.9616 -16.2163 45.4582 -4.25679 31.4228C1.79065 24.2922 9.32741 18.1996 18.0375 14.6343C26.7025 11.0239 37.8046 9.57973 46.1988 14.7246C53.555 19.2376 56.7593 27.8575 58.5645 35.8455C60.8661 45.9547 61.9041 56.4249 62.7616 66.7597C64.3862 87.2037 62.6713 108.37 68.4028 128.272C72.6451 143.03 82.1676 157.697 96.7897 163.88C114.21 171.236 134.293 163.79 149.231 154.042C163.989 144.339 175.948 129.13 176.941 110.942C177.392 102.503 175.271 93.7024 170.036 86.978C165.162 80.7501 157.535 76.6883 149.547 77.0494C142.055 77.3653 135.196 81.9686 132.307 88.9638C130.231 93.9732 130.231 104.308 137.813 104.534C140.747 104.624 143.635 102.728 145.124 100.246C146.975 97.1323 146.523 93.206 145.124 90.0469C141.378 81.5173 129.554 76.914 129.103 66.85C128.877 61.9759 132.668 57.7788 137.452 57.2372C138.31 57.147 138.31 55.7931 137.452 55.8833C130.592 56.6957 126.35 63.2395 128.245 69.8737C130.773 78.6741 140.386 82.5101 143.906 90.6787C145.756 94.9661 145.35 100.382 140.656 102.593C135.466 105.03 132.352 99.795 132.397 95.1917C132.488 86.3462 140.34 79.1705 148.87 78.4936C157.941 77.7715 166.381 83.0968 170.939 90.7238C175.677 98.6216 176.625 108.325 174.775 117.215C171.029 135.493 156.813 149.122 140.792 157.471C132.217 161.939 122.74 165.324 112.991 165.595C104.056 165.82 95.5261 163.022 88.5309 157.517C74.4954 146.505 68.5834 128.814 66.5976 111.709C65.4694 101.871 65.3791 91.9424 65.0181 82.0588C64.657 71.8594 63.8898 61.7051 62.5359 51.5508C60.6856 37.5153 58.745 17.8386 43.4007 11.9265C27.5149 5.7888 9.55304 15.5369 -1.50386 26.5938C-13.0121 38.1923 -20.4134 53.6719 -22.4443 69.8737C-22.9858 74.0708 -23.1212 78.2679 -22.8956 82.5101C-22.8956 83.2322 -21.5417 83.2322 -21.5868 82.3747Z" fill="white"/>
<path fill-rule="evenodd" clip-rule="evenodd" d="M97.1512 129.581C101.754 127.821 106.629 129.445 110.149 132.74C113.849 136.215 115.429 141.044 114.932 146.053C113.759 157.697 103.921 165.595 94.9398 171.687C79.9566 181.841 60.1444 195.651 60.3701 216.005C60.4603 224.399 64.3867 232.793 72.1942 236.539C80.5884 240.556 90.4268 238.886 98.3697 234.689C102.657 232.432 106.538 229.454 110.239 226.295C114.346 222.775 118.498 219.074 121.792 214.741C124.59 211.041 126.711 206.798 127.253 202.15C127.749 198.088 127.027 192.898 123.733 190.055C116.918 184.188 105.139 197.772 112.766 202.601C114.932 204 117.55 203.865 120.032 204C122.83 204.181 125.538 204.858 128.02 206.167C132.894 208.694 136.64 213.072 138.22 218.352C138.49 219.164 139.799 218.848 139.528 217.991C137.362 210.815 131.405 205.083 124.094 203.233C120.438 202.331 110.104 203.639 111.728 197.231C113.127 191.77 120.619 186.67 124.365 192.898C127.073 197.411 126.26 203.414 124.274 208.017C122.153 212.846 118.543 216.817 114.752 220.428C107.757 227.062 99.9041 233.922 90.3817 236.494C81.2654 238.976 70.5244 236.991 65.199 228.506C60.3701 220.789 61.0019 210.905 64.7928 202.917C68.8997 194.297 76.0754 187.347 83.4767 181.48C91.2391 175.298 100.355 170.694 107.351 163.609C113.624 157.245 118.814 147.227 115.384 138.155C112.676 130.98 104.462 125.429 96.7902 128.317C95.9778 128.588 96.2937 129.897 97.1512 129.581Z" fill="white"/>
<path fill-rule="evenodd" clip-rule="evenodd" d="M96.6539 11.8809C97.0149 14.679 100.129 16.078 102.701 15.9878C105.68 15.8975 107.395 13.8666 108.388 11.204C109.335 8.63155 109.426 5.74321 107.395 3.71235C105.635 1.90714 102.927 1.27532 100.58 2.17793C99.7679 2.49384 100.129 3.80261 100.941 3.4867C104.868 1.99741 108.433 5.38217 107.53 9.39876C107.079 11.4296 105.996 13.8666 103.83 14.4985C101.618 15.0852 98.2786 14.0923 97.9627 11.5199C97.8724 10.6624 96.5636 11.0234 96.6539 11.8809Z" fill="white"/>
<path fill-rule="evenodd" clip-rule="evenodd" d="M100.309 3.35141C104.461 -0.394396 113.217 1.0949 113.217 7.59365C113.217 8.45112 114.571 8.45112 114.571 7.59365C114.616 -0.123615 104.371 -2.15447 99.3617 2.40368C98.6848 2.99037 99.6777 3.9381 100.309 3.35141Z" fill="white"/>
<path fill-rule="evenodd" clip-rule="evenodd" d="M96.7441 11.7457C95.1645 15.0402 97.0149 18.9214 100.084 20.5912C103.694 22.5769 107.982 21.1328 110.915 18.6055C111.592 18.0188 110.599 17.0711 109.967 17.6577C107.756 19.5532 104.732 20.7266 101.799 19.824C98.8652 18.9214 96.5184 15.4012 97.9175 12.4226C98.2785 11.6554 97.1503 10.9785 96.7441 11.7457Z" fill="white"/>
<path fill-rule="evenodd" clip-rule="evenodd" d="M113.263 7.32279C113.263 8.40592 113.263 9.53417 113.263 10.6173C113.263 11.4748 114.617 11.4748 114.617 10.6173C114.617 9.53417 114.617 8.40592 114.617 7.32279C114.617 6.46532 113.263 6.46532 113.263 7.32279Z" fill="white"/>
<path fill-rule="evenodd" clip-rule="evenodd" d="M113.759 11.5649C125.448 15.1753 137.272 18.4698 149.186 21.3582C150.044 21.5838 150.405 20.2751 149.547 20.0494C137.633 17.1159 125.854 13.8666 114.12 10.2562C113.262 9.98537 112.901 11.2941 113.759 11.5649Z" fill="white"/>
<path fill-rule="evenodd" clip-rule="evenodd" d="M110.238 18.7857C121.25 21.6289 132.036 25.2394 142.597 29.5267C143.409 29.8426 143.77 28.5339 142.958 28.218C132.442 23.9306 121.611 20.3202 110.599 17.477C109.742 17.2513 109.381 18.5601 110.238 18.7857Z" fill="white"/>
<path fill-rule="evenodd" clip-rule="evenodd" d="M149.682 21.1328C151.849 17.1162 156.858 16.1234 160.333 19.1922C160.965 19.7789 161.958 18.8312 161.281 18.2445C157.174 14.6341 151.127 15.6269 148.509 20.4559C148.103 21.2231 149.276 21.9 149.682 21.1328Z" fill="white"/>
<path fill-rule="evenodd" clip-rule="evenodd" d="M141.424 29.1658C142.281 29.1658 142.281 27.8119 141.424 27.8119C140.521 27.8119 140.521 29.1658 141.424 29.1658Z" fill="white"/>
<path fill-rule="evenodd" clip-rule="evenodd" d="M142.552 29.572C143.094 36.2964 150.269 38.6432 155.775 35.8902C156.272 35.6646 156.181 34.9876 155.775 34.7168C153.067 32.8665 151.984 29.3012 153.067 26.2323C154.196 23.0281 157.174 21.0424 160.333 20.2752C161.191 20.0946 160.83 18.7859 159.972 18.9664C156.136 19.869 152.616 22.5317 151.578 26.458C150.63 30.0233 152.075 33.8142 155.098 35.8902C155.098 35.484 155.098 35.123 155.098 34.7168C150.585 36.9733 144.357 35.2133 143.906 29.572C143.816 28.7145 142.462 28.7145 142.552 29.572Z" fill="white"/>
<path fill-rule="evenodd" clip-rule="evenodd" d="M159.972 19.418C159.972 20.5011 159.927 21.5842 159.927 22.6673C160.107 22.4417 160.243 22.216 160.423 22.0355C156.181 23.7956 151.894 26.4583 151.668 31.558C151.623 32.4155 152.977 32.4155 153.022 31.558C153.203 27.1804 157.129 24.8787 160.784 23.3443C161.055 23.2089 161.281 23.0284 161.281 22.7125C161.281 21.6293 161.326 20.5462 161.326 19.4631C161.371 18.5605 160.017 18.5605 159.972 19.418Z" fill="white"/>
<path fill-rule="evenodd" clip-rule="evenodd" d="M152.706 29.1658C153.564 29.1658 153.564 27.8119 152.706 27.8119C151.804 27.8119 151.804 29.1658 152.706 29.1658Z" fill="white"/>
<path fill-rule="evenodd" clip-rule="evenodd" d="M152.977 28.6692C154.015 25.8711 155.91 23.5695 158.437 21.9899C158.167 21.6289 157.896 21.2678 157.625 20.9068C156.271 22.6669 154.737 24.2916 153.022 25.7357C153.383 26.0065 153.744 26.2773 154.105 26.5481C154.556 25.5552 155.098 24.6977 155.865 23.9305C156.497 23.3438 157.851 22.1704 158.798 22.3058C158.618 22.2156 158.392 22.0802 158.212 21.9899V21.9448C157.941 22.6669 159.114 23.1633 159.43 22.4864C159.566 22.1704 159.746 21.8545 159.881 21.5386C159.475 21.4032 159.024 21.313 158.618 21.1776C158.482 21.4032 158.347 21.6289 158.212 21.8545C158.528 22.1704 158.843 22.4864 159.159 22.8023C159.43 22.2156 159.746 21.8094 160.243 21.3581C159.881 21.0873 159.52 20.8165 159.159 20.5458C158.167 22.0802 156.813 23.1633 155.143 23.8854C154.33 24.2464 155.053 25.4198 155.82 25.0588C157.715 24.2464 159.205 22.9377 160.333 21.2227C160.784 20.5458 159.836 19.9139 159.25 20.4104C158.663 20.9068 158.302 21.4032 157.986 22.1253C157.715 22.6669 158.302 23.5243 158.934 23.073C159.611 22.5766 159.881 22.0351 160.017 21.2227C160.107 20.5458 159.024 20.275 158.753 20.8617C158.618 21.1776 158.437 21.4935 158.302 21.8094C158.708 21.9899 159.114 22.1704 159.52 22.351C160.243 20.5909 157.806 21.1324 157.083 21.5386C155.233 22.4864 153.789 24.0659 152.931 25.9614C152.616 26.6383 153.383 27.3153 154.015 26.7737C155.73 25.3296 157.264 23.7049 158.618 21.9448C159.069 21.4032 158.528 20.4555 157.805 20.8617C154.962 22.6217 152.886 25.1942 151.713 28.3533C151.397 29.1205 152.706 29.4815 152.977 28.6692Z" fill="white"/>
<path fill-rule="evenodd" clip-rule="evenodd" d="M160.694 22.6221C160.694 22.6672 160.649 22.6672 160.649 22.7124C160.558 22.8026 160.468 22.8929 160.423 22.938C160.242 23.0283 160.107 22.9832 159.927 22.8929C159.881 22.8026 159.791 22.7124 159.746 22.577C159.791 22.6221 159.791 22.577 159.746 22.7124C160.152 22.6672 160.558 22.6221 160.965 22.5319C160.829 22.2611 160.739 21.9 160.784 21.5841C160.829 21.2231 160.694 20.862 160.333 20.7718C160.017 20.6815 159.566 20.862 159.52 21.2231C159.43 21.7646 159.34 22.2611 159.25 22.8026C159.204 23.1637 159.34 23.5247 159.701 23.615C160.017 23.7052 160.468 23.5247 160.513 23.1637C160.603 22.6221 160.694 22.1257 160.784 21.5841C160.333 21.4487 159.927 21.3585 159.475 21.2231C159.385 21.9452 159.475 22.577 159.791 23.2088C160.062 23.7504 160.874 23.5699 161.01 23.0283C161.19 22.4867 161.1 21.8098 160.468 21.6293C160.017 21.4939 159.43 21.7195 159.34 22.2159C159.295 22.577 159.43 22.938 159.791 23.0283C160.152 23.2088 160.604 22.9832 160.694 22.6221Z" fill="white"/>
<path fill-rule="evenodd" clip-rule="evenodd" d="M99.5879 3.39689C99.633 4.84106 100.491 5.92418 101.799 6.60113C103.424 7.45861 107.125 7.50374 106.854 10.1213C106.764 10.9788 108.118 10.9788 108.208 10.1213C108.343 8.67712 107.486 7.50374 106.267 6.78166C104.642 5.87905 101.032 5.87905 100.987 3.39689C100.942 2.53942 99.5879 2.53942 99.5879 3.39689Z" fill="white"/>
<path fill-rule="evenodd" clip-rule="evenodd" d="M100.716 4.61504C101.213 4.84069 101.574 5.33712 101.438 5.92381C101.845 5.87868 102.251 5.83355 102.657 5.74329C102.521 5.56277 102.296 5.33712 102.251 5.1566C102.07 4.52478 102.341 4.61504 102.476 5.20173C102.567 5.69816 102.657 6.10434 102.883 6.55564C103.153 6.23973 103.379 5.87868 103.65 5.56277C102.747 5.20173 102.296 4.254 102.567 3.30626C102.296 3.44165 102.025 3.62217 101.754 3.75756C102.928 4.16374 103.695 5.11147 104.011 6.28486C104.282 6.01408 104.552 5.74329 104.823 5.47251C104.101 5.33712 103.695 4.88582 103.74 4.11861C103.559 4.34426 103.424 4.56991 103.244 4.75043C104.958 4.34426 105.5 6.42025 105.681 7.63876C106.042 7.41311 106.448 7.18746 106.809 6.96181C106.132 6.14947 105.455 4.97608 104.552 4.43452C105.455 4.97608 106.087 5.92381 106.403 6.91668C106.764 6.69103 107.17 6.46538 107.531 6.23973C106.177 5.11147 104.823 3.98322 103.469 2.90009C103.289 3.30626 103.153 3.6673 102.973 4.07348C105.455 3.98322 106.358 6.51051 106.673 8.54137C106.809 9.39884 108.118 9.0378 107.982 8.18032C107.576 5.51764 106.042 2.62931 102.973 2.71957C102.431 2.71957 102.025 3.48678 102.476 3.89296C103.83 5.02121 105.184 6.14947 106.538 7.23259C107.034 7.63876 107.892 7.27772 107.666 6.55564C107.305 5.38225 105.59 2.22314 103.92 3.12574C101.935 4.16374 105.184 7.14233 105.816 7.90954C106.267 8.49624 107.034 7.86441 106.944 7.23259C106.583 5.1566 105.32 2.7647 102.837 3.39652C102.521 3.48678 102.341 3.75756 102.341 4.02835C102.251 5.33712 103.108 6.46538 104.417 6.69103C104.913 6.78129 105.365 6.37512 105.229 5.87868C104.823 4.20887 103.65 2.99035 102.025 2.40366C101.664 2.26827 101.258 2.53905 101.213 2.85496C100.761 4.56991 101.664 6.14947 103.244 6.78129C103.83 7.00694 104.282 6.23973 104.011 5.78842C103.469 4.84069 103.514 2.53905 101.709 3.12574C100.22 3.62217 100.761 5.42738 101.438 6.32999C101.754 6.73616 102.567 6.78129 102.657 6.14947C102.883 4.97608 102.431 3.84782 101.303 3.30626C100.626 3.03548 99.949 4.20887 100.716 4.61504Z" fill="white"/>
<path fill-rule="evenodd" clip-rule="evenodd" d="M137.542 263.798C142.552 256.397 148.103 249.447 154.15 242.858C154.737 242.226 153.789 241.278 153.203 241.91C147.065 248.544 141.469 255.629 136.414 263.121C135.873 263.843 137.046 264.52 137.542 263.798Z" fill="white"/>
<path fill-rule="evenodd" clip-rule="evenodd" d="M154.556 241.548C153.699 238.254 154.014 234.734 155.775 231.755C156.587 230.356 157.715 229.047 159.114 228.235C160.333 227.558 164.665 226.52 164.981 228.822C165.116 229.679 166.425 229.318 166.29 228.461C166.019 226.746 163.988 226.159 162.454 226.069C160.242 225.933 158.166 226.926 156.632 228.415C153.067 231.845 152.074 237.216 153.247 241.864C153.428 242.767 154.737 242.406 154.556 241.548Z" fill="white"/>
<path fill-rule="evenodd" clip-rule="evenodd" d="M165.027 228.145C162.906 231.169 160.062 237.216 165.072 239.337C169.179 241.052 172.473 237.171 172.518 233.335C172.518 232.477 171.164 232.477 171.164 233.335C171.164 235.005 170.578 236.765 169.088 237.758C167.734 238.615 165.749 238.615 164.575 237.442C162.048 234.914 164.575 231.123 166.155 228.867C166.697 228.145 165.523 227.468 165.027 228.145Z" fill="white"/>
<path fill-rule="evenodd" clip-rule="evenodd" d="M172.112 233.877C173.918 233.425 174.64 237.983 174.73 239.021C174.911 241.052 174.369 242.812 172.97 244.347C170.894 246.648 167.87 247.461 164.892 247.867C164.034 248.002 164.395 249.311 165.253 249.176C169.675 248.589 174.595 246.558 175.858 241.82C176.535 239.247 175.768 231.575 171.751 232.523C170.894 232.748 171.255 234.057 172.112 233.877Z" fill="white"/>
<path fill-rule="evenodd" clip-rule="evenodd" d="M163.673 248.228C157.129 254.862 150.811 261.677 144.673 268.717C144.086 269.349 145.034 270.342 145.621 269.665C151.758 262.669 158.122 255.81 164.62 249.175C165.252 248.589 164.304 247.596 163.673 248.228Z" fill="white"/>
<path fill-rule="evenodd" clip-rule="evenodd" d="M136.007 264.61C137.316 268.13 140.791 270.477 144.582 270.206C145.44 270.161 145.44 268.807 144.582 268.853C141.423 269.078 138.444 267.273 137.316 264.249C137.045 263.437 135.737 263.798 136.007 264.61Z" fill="white"/>
<path fill-rule="evenodd" clip-rule="evenodd" d="M151.533 263.662C154.872 267.318 158.663 272.463 164.124 272.463C164.982 272.463 164.982 271.109 164.124 271.109C159.16 271.064 155.549 266.009 152.526 262.669C151.894 262.083 150.946 263.031 151.533 263.662Z" fill="white"/>
<path fill-rule="evenodd" clip-rule="evenodd" d="M160.468 254.05C164.801 256.126 168.186 259.42 170.307 263.708C170.713 264.475 171.841 263.798 171.48 263.031C169.269 258.563 165.658 254.997 161.145 252.876C160.378 252.515 159.701 253.689 160.468 254.05Z" fill="white"/>
<path fill-rule="evenodd" clip-rule="evenodd" d="M164.576 272.192C168.231 270.793 170.894 267.724 171.751 263.888C171.932 263.031 170.623 262.67 170.443 263.527C169.721 266.867 167.419 269.62 164.215 270.883C163.402 271.199 163.763 272.508 164.576 272.192Z" fill="white"/>
<path fill-rule="evenodd" clip-rule="evenodd" d="M144.041 253.102C142.822 252.425 140.611 251.161 141.468 249.401C141.829 248.634 140.701 247.912 140.295 248.724C139.076 251.251 141.378 253.147 143.364 254.275C144.086 254.727 144.763 253.553 144.041 253.102Z" fill="white"/>
<path fill-rule="evenodd" clip-rule="evenodd" d="M140.611 248.183C140.341 248.183 139.619 248.273 139.438 248.138C139.032 247.777 139.167 246.648 139.393 246.242C139.754 245.52 140.566 244.753 141.108 244.166C141.604 243.67 142.101 243.128 142.642 242.677C142.958 242.406 143.319 242.09 143.725 241.865C144.402 241.504 146.253 240.962 146.027 242.677C145.937 243.535 147.291 243.535 147.381 242.677C147.561 241.278 146.388 240.15 144.989 240.105C143.139 240.059 141.514 241.82 140.295 243.038C139.212 244.166 137.407 245.836 137.497 247.596C137.588 249.266 139.167 249.627 140.566 249.582C141.469 249.492 141.469 248.138 140.611 248.183Z" fill="white"/>
<path fill-rule="evenodd" clip-rule="evenodd" d="M147.065 242.947C148.689 242.993 150.043 243.94 150.72 245.384C151.126 246.152 152.255 245.475 151.894 244.708C150.991 242.857 149.096 241.684 147.065 241.594C146.162 241.548 146.162 242.902 147.065 242.947Z" fill="white"/>
<path fill-rule="evenodd" clip-rule="evenodd" d="M139.076 243.489C136.549 241.232 134.112 238.931 131.72 236.539C130.682 235.501 129.689 234.418 128.787 233.29C128.155 232.522 127.568 231.71 127.027 230.852C126.485 229.995 126.034 229.814 127.027 230.266C128.29 230.807 129.78 232.387 130.818 233.29C131.991 234.282 133.119 235.366 134.247 236.449C136.459 238.615 138.535 240.917 140.43 243.354C140.972 244.031 141.92 243.083 141.378 242.406C138.806 239.156 136.008 236.133 132.939 233.38C131.54 232.116 130.095 230.943 128.651 229.814C127.839 229.183 126.575 227.964 125.492 228.686C122.333 230.762 136.459 243.083 138.084 244.527C138.806 245.023 139.753 244.076 139.076 243.489Z" fill="white"/>
</svg>
