<svg width="125" height="409" viewBox="0 0 125 409" fill="none" xmlns="http://www.w3.org/2000/svg">
<path fill-rule="evenodd" clip-rule="evenodd" d="M84.1201 47.6411C107.16 32.4821 139.379 48.9392 160.333 28.4489C162.419 26.4092 164.227 24.1377 165.803 21.6807C167.75 18.6211 169.28 15.2369 171.783 12.5482C174.24 9.90577 178.134 7.86602 181.75 9.16404C184.81 10.2766 186.386 13.5217 187.452 16.3959C188.982 20.5217 189.816 27.3364 195.704 26.7337C201.406 26.1774 203.26 20.1045 204.743 15.5151C205.995 11.8064 207.2 7.49515 209.518 4.29645C211.141 2.07127 214.154 0.309671 216.75 2.02491C218.187 2.99843 218.744 4.85275 219.253 6.42892C221.108 12.0846 224.724 16.2568 230.889 16.9522C231.77 17.0449 231.77 15.6542 230.889 15.5614C227.412 15.1442 224.214 13.2435 222.313 10.2766C220.83 7.95873 220.644 5.1309 219.253 2.813C216.426 -1.96187 210.677 -0.0148348 208.035 3.87923C206.273 6.52164 205.207 9.76669 204.141 12.78C202.935 16.0714 202.24 19.8727 200.015 22.7006C198.81 24.2304 197.002 25.343 195.008 25.3893C192.32 25.3893 191.068 23.0714 190.326 20.8462C189.492 18.3893 188.843 15.8859 187.684 13.568C185.551 9.07132 181.333 6.28985 176.28 7.91237C170.068 9.95212 167.518 16.3032 164.319 21.3562C160.564 27.2436 155.094 31.8794 148.697 34.6609C141.836 37.6278 134.326 38.4623 126.908 38.7868C112.213 39.3894 96.2658 38.045 83.3783 46.5285C82.6366 46.8994 83.332 48.1047 84.1201 47.6411Z" fill="#141414"/>
<path fill-rule="evenodd" clip-rule="evenodd" d="M40.2191 53.6213C38.782 62.7538 38.0867 71.9791 38.133 81.2506C38.133 82.1314 39.5238 82.1314 39.5238 81.2506C39.4774 72.1181 40.1264 63.032 41.5635 53.9922C41.7026 53.1114 40.3582 52.7405 40.2191 53.6213Z" fill="#141414"/>
<path fill-rule="evenodd" clip-rule="evenodd" d="M39.0134 81.8069C40.9604 83.1049 43.2783 82.7804 45.5499 82.6877C48.934 82.5487 52.2718 82.4559 55.6559 82.4096C62.3778 82.2705 69.1461 82.3169 75.868 82.4096C76.7488 82.4096 76.7488 81.0188 75.868 81.0188C69.7487 80.8798 63.6295 80.8798 57.4639 80.9725C54.5433 81.0188 51.6228 81.0652 48.7486 81.1579C46.0598 81.2506 42.073 82.1314 39.7088 80.5553C38.967 80.0917 38.2717 81.297 39.0134 81.8069Z" fill="#141414"/>
<path fill-rule="evenodd" clip-rule="evenodd" d="M41.0532 54.6876C55.1924 53.0187 69.4242 53.065 83.5171 54.8266C84.3979 54.9193 84.3979 53.5286 83.5171 53.4359C69.4242 51.6743 55.146 51.6279 41.0532 53.2968C40.1724 53.4359 40.1724 54.8266 41.0532 54.6876Z" fill="#141414"/>
<path fill-rule="evenodd" clip-rule="evenodd" d="M74.4787 82.7341C76.1013 82.6414 77.6774 82.5023 79.3 82.4096C80.1808 82.3632 81.2934 82.3632 82.0814 81.8069C83.6576 80.6943 83.4722 77.6347 83.6576 75.9658C84.4457 68.9194 84.8629 61.873 85.002 54.7802C85.002 53.8994 83.6113 53.8994 83.6113 54.7802C83.5185 60.065 83.2868 65.3035 82.8232 70.5419C82.5914 73.0916 82.3596 75.6413 82.0351 78.191C81.7569 80.2307 80.4126 80.8798 78.5119 81.0188C77.1675 81.1115 75.8231 81.2043 74.5251 81.297C73.5516 81.4361 73.5516 82.8268 74.4787 82.7341Z" fill="#141414"/>
<path fill-rule="evenodd" clip-rule="evenodd" d="M44.0664 59.4624C47.636 61.9657 50.9274 64.7008 53.987 67.8068C55.6096 69.4757 57.742 72.9525 60.5235 72.4426C62.0997 72.1644 63.5368 70.7273 64.7885 69.8465C66.1792 68.873 67.4772 67.8532 68.8216 66.7869C71.9739 64.2372 74.9872 61.4558 77.7687 58.5352C78.3713 57.8862 77.3978 56.9127 76.7952 57.5617C74.5236 59.9259 72.2057 62.1511 69.7024 64.2836C68.3117 65.4889 66.8746 66.6478 65.3911 67.7141C63.8149 68.9194 62.1924 70.4028 60.199 70.681C58.7156 70.8664 58.391 70.4956 57.4175 69.4757C56.8612 68.9194 56.3513 68.3167 55.795 67.7141C54.6824 66.5088 53.4771 65.3498 52.2718 64.2372C49.9075 62.0584 47.3579 60.065 44.7155 58.2571C44.0201 57.7471 43.3247 58.9524 44.0664 59.4624Z" fill="#141414"/>
<path fill-rule="evenodd" clip-rule="evenodd" d="M59.2714 89.5951C56.5826 96.1779 51.576 101.555 46.7548 106.655C42.258 111.383 37.6222 115.926 33.4037 120.887C24.8274 131.132 20.0989 143.648 18.5691 156.907C17.781 163.768 18.3837 170.768 22.2314 176.655C22.7413 177.397 23.9466 176.702 23.4367 175.96C18.6618 168.635 19.1718 159.688 20.8407 151.483C22.6486 142.814 25.3837 134.377 30.4368 127.052C35.0726 120.33 41.0527 114.628 46.662 108.741C52.0396 103.132 57.6025 97.2442 60.5694 89.966C60.9403 89.1315 59.5959 88.7607 59.2714 89.5951Z" fill="#141414"/>
<path fill-rule="evenodd" clip-rule="evenodd" d="M46.2462 143.324C44.6237 142.582 46.0608 137.483 46.2926 136.231C46.7098 134.145 47.3124 132.105 48.0542 130.112C48.8886 128.026 49.9085 125.986 51.2065 124.132C52.3191 122.556 54.5443 119.357 56.4913 118.754C56.9085 118.383 57.4185 118.43 57.9748 118.847C58.9019 118.662 59.3192 118.94 59.2264 119.635C59.4119 120.145 59.2264 121.072 59.1801 121.582C59.041 123.019 58.7629 124.41 58.4384 125.847C57.7893 128.443 56.9085 130.993 55.796 133.403C54.7761 135.675 53.6171 137.854 52.3655 139.986C51.8092 140.96 51.2529 141.933 50.6039 142.86C49.7694 144.066 45.7363 147.079 45.4118 143.509C45.3191 142.629 43.9283 142.629 44.021 143.509C44.2065 145.735 46.478 146.986 48.6105 146.337C51.5774 145.41 53.2463 141.377 54.5906 138.92C56.584 135.258 58.3456 131.41 59.4582 127.377C60.1536 124.92 61.7298 120.145 60.0609 117.781C56.584 112.867 49.1204 124.549 47.9151 126.96C46.3389 130.158 45.2727 133.635 44.7164 137.158C44.3919 139.198 43.1402 143.324 45.5508 144.437C46.3853 144.854 47.0807 143.695 46.2462 143.324Z" fill="#141414"/>
<path fill-rule="evenodd" clip-rule="evenodd" d="M1.5108 193.993C6.1466 189.357 10.736 184.675 15.3718 180.039C16.0208 179.39 15.001 178.417 14.3983 179.066C9.76252 183.702 5.17308 188.384 0.537287 193.02C-0.0653663 193.669 0.908151 194.642 1.5108 193.993Z" fill="#141414"/>
<path fill-rule="evenodd" clip-rule="evenodd" d="M14.6294 180.225C23.1129 180.781 31.55 181.894 39.8944 183.655C40.7752 183.841 41.1461 182.496 40.2653 182.311C31.8281 180.549 23.2519 179.39 14.6294 178.834C13.7485 178.741 13.7485 180.132 14.6294 180.225Z" fill="#141414"/>
<path fill-rule="evenodd" clip-rule="evenodd" d="M0.537377 194.92C9.66989 196.404 18.8024 197.887 27.9813 199.371C28.8621 199.51 29.2329 198.165 28.3521 198.026C19.2196 196.543 10.0871 195.059 0.90824 193.576C0.0737975 193.437 -0.343424 194.781 0.537377 194.92Z" fill="#141414"/>
<path fill-rule="evenodd" clip-rule="evenodd" d="M29.1855 198.119C32.9404 193.251 36.6491 188.43 40.4041 183.563C40.9604 182.867 39.7551 182.172 39.1988 182.867C35.4438 187.735 31.7351 192.556 27.9801 197.424C27.4238 198.119 28.6292 198.814 29.1855 198.119Z" fill="#141414"/>
<path fill-rule="evenodd" clip-rule="evenodd" d="M27.9339 198.583C29.0929 205.444 30.2518 212.258 31.4107 219.119C31.5498 220 32.8942 219.629 32.7551 218.748C31.5962 211.887 30.4372 205.073 29.2783 198.212C29.1392 197.331 27.7948 197.702 27.9339 198.583Z" fill="#141414"/>
<path fill-rule="evenodd" clip-rule="evenodd" d="M33.079 219.861C36.0459 213.556 39.3837 207.483 43.1851 201.642C43.695 200.901 42.4897 200.205 41.9798 200.947C38.1784 206.788 34.7943 212.861 31.8737 219.166C31.5029 219.954 32.7082 220.695 33.079 219.861Z" fill="#141414"/>
<path fill-rule="evenodd" clip-rule="evenodd" d="M39.1071 183.98C40.2197 189.775 41.2396 195.569 42.1667 201.364C42.3058 202.245 43.6502 201.874 43.5111 200.993C42.6303 195.152 41.6104 189.357 40.4515 183.609C40.266 182.728 38.968 183.099 39.1071 183.98Z" fill="#141414"/>
<path fill-rule="evenodd" clip-rule="evenodd" d="M0.0267493 194.364C1.78835 201.271 3.31816 208.271 4.56983 215.318C4.7089 216.199 6.05328 215.828 5.91421 214.947C4.66254 207.901 3.13273 200.947 1.37113 193.993C1.13934 193.112 -0.20504 193.483 0.0267493 194.364Z" fill="#141414"/>
<path fill-rule="evenodd" clip-rule="evenodd" d="M5.03293 216.291C13.7946 218.98 22.8807 220.278 32.0596 220.139C32.9404 220.139 32.9404 218.748 32.0596 218.748C23.0198 218.887 14.0727 217.636 5.4038 214.947C4.52299 214.669 4.15213 216.013 5.03293 216.291Z" fill="#141414"/>
</svg>
