<svg width="158" height="32" viewBox="0 0 158 32" fill="none" xmlns="http://www.w3.org/2000/svg">
<g clip-path="url(#clip0)">
<path d="M17.4368 0C17.0999 0 16.9315 0.202107 16.9315 0.505265V1.54947C16.9315 1.85263 17.0999 2.05474 17.4368 2.05474H17.6052C19.3231 2.12211 19.8957 3.46947 19.8957 5.25474V15.6968C19.8957 19.7726 18.5146 22.7368 14.6073 22.7368C9.35255 22.7368 8.64518 19.4695 8.64518 15.6968V5.25474C8.64518 3.46947 9.18413 2.12211 10.902 2.05474H11.1041C11.441 2.05474 11.6094 1.85263 11.6094 1.54947V0.505265C11.6094 0.202107 11.441 0 11.1041 0H0.763076C0.426234 0 0.257812 0.202107 0.257812 0.505265V1.54947C0.257812 1.85263 0.426234 2.05474 0.763076 2.05474H0.96518C2.68308 2.12211 3.25571 3.46947 3.25571 5.25474V16.3705C3.25571 22.1979 6.96097 25.7011 13.6304 25.7011C20.3336 25.7011 23.2978 22.1979 23.2978 16.0337V5.25474C23.2978 3.46947 23.8367 2.12211 25.5546 2.05474H25.7904C26.0936 2.05474 26.2957 1.85263 26.2957 1.54947V0.505265C26.2957 0.202107 26.0936 0 25.7904 0H17.4368Z" fill="#141414"/>
<path d="M32.2816 8.05051C32.2816 7.98314 32.2479 7.94946 32.2142 7.94946H32.1468C32.0458 7.94946 31.911 7.98314 31.8437 8.01682C30.3616 8.69051 28.9805 9.33051 25.6795 9.33051C25.3426 9.33051 25.1742 9.46524 25.1742 9.7684V10.9137C25.1742 11.1495 25.2416 11.3179 25.5784 11.3516C27.431 11.5537 27.5658 13.4063 27.5658 15.2253V26.7789C27.5995 28.5979 26.7574 29.9789 25.1068 29.9789C24.77 29.9789 24.6016 30.1474 24.6016 30.4842V31.4947C24.6016 31.8316 24.77 32 25.1068 32H34.7405C35.0774 32 35.2458 31.8316 35.2458 31.4947V30.4842C35.2458 30.1474 35.0774 29.9789 34.7405 29.9789C33.09 29.9789 32.2479 28.5979 32.2479 26.7789V24.1179C33.4605 25.1284 34.9426 25.6674 36.6268 25.6674C40.7026 25.6674 44.5089 23.0737 44.5089 16.8421C44.5089 10.3411 40.0626 7.94946 37.031 7.94946C33.5616 7.94946 32.2479 10.1726 31.8774 11.0484L32.2816 8.05051ZM32.2479 13.1368C32.2479 13.1368 33.0226 10.9474 35.5153 10.9474C38.2774 10.9474 40.1637 13.6084 40.1637 17.9537C40.1637 20.7158 39.2879 23.4779 36.0205 23.4779C33.7974 23.4779 32.5174 21.3895 32.2479 19.3011V13.1368Z" fill="#141414"/>
<path d="M52.2034 8.05051C52.2034 7.98314 52.1697 7.94946 52.136 7.94946H52.0687C51.9676 7.94946 51.8329 7.98314 51.7655 8.01682C50.2834 8.69051 48.9023 9.33051 45.6013 9.33051C45.2644 9.33051 45.096 9.46524 45.096 9.7684V10.9137C45.096 11.1495 45.1634 11.3179 45.5002 11.3516C47.3529 11.5537 47.4876 13.4063 47.4876 15.2253V26.7789C47.5213 28.5979 46.6792 29.9789 45.0287 29.9789C44.6918 29.9789 44.5234 30.1474 44.5234 30.4842V31.4947C44.5234 31.8316 44.6918 32 45.0287 32H54.6623C54.9992 32 55.1676 31.8316 55.1676 31.4947V30.4842C55.1676 30.1474 54.9992 29.9789 54.6623 29.9789C53.0118 29.9789 52.1697 28.5979 52.1697 26.7789V24.1179C53.3823 25.1284 54.8644 25.6674 56.5487 25.6674C60.6244 25.6674 64.4308 23.0737 64.4308 16.8421C64.4308 10.3411 59.9844 7.94946 56.9529 7.94946C53.4834 7.94946 52.1697 10.1726 51.7992 11.0484L52.2034 8.05051ZM52.1697 13.1368C52.1697 13.1368 52.9444 10.9474 55.4371 10.9474C58.1992 10.9474 60.0855 13.6084 60.0855 17.9537C60.0855 20.7158 59.2097 23.4779 55.9423 23.4779C53.7192 23.4779 52.4392 21.3895 52.1697 19.3011V13.1368Z" fill="#141414"/>
<path d="M80.426 14.9895C80.6281 14.8884 80.6955 14.7537 80.6955 14.5516C80.6955 12.0253 78.2365 8.05054 73.7565 8.05054C69.8155 8.05054 65.7734 10.4421 65.7734 16.7074C65.7734 21.5916 69.2092 25.6674 74.8008 25.6674C78.2029 25.6674 80.2913 24.1179 81.5376 21.76C81.6387 21.5579 81.7734 21.3558 81.7734 21.1537C81.7734 21.0526 81.706 20.9516 81.605 20.9179C80.5271 20.2779 80.4934 20.2442 80.2913 20.2442C80.1902 20.2442 80.0555 20.2779 79.9881 20.3789C78.8092 22.0968 77.125 22.8716 75.7102 22.8716C73.0829 22.8716 71.3987 21.12 70.6576 19.2674L80.426 14.9895ZM70.2534 17.1453C69.9502 16.3705 69.9165 15.2589 69.9165 14.5853C69.9165 12.3958 71.0955 10.7116 72.9481 10.7116C74.4976 10.7116 75.6429 12.2947 75.6429 14.4168L70.2534 17.1453Z" fill="#141414"/>
<path d="M89.8161 7.44408C89.8161 7.37671 89.8161 7.37671 89.7824 7.37671H89.6814C89.6477 7.37671 89.5803 7.4104 89.5466 7.47777C88.6372 8.11777 86.0772 9.43145 82.8772 9.93671C82.5403 9.9704 82.4056 10.1052 82.4056 10.3746V11.5199C82.3719 11.7557 82.473 11.9241 82.7761 11.9578C84.6624 12.1599 84.7635 14.0125 84.7635 15.8315V20.042C84.7635 21.8946 83.9888 23.242 82.3382 23.242H82.2709C81.934 23.242 81.7656 23.4441 81.7656 23.7473V24.7578C81.7656 25.0946 81.934 25.2631 82.2709 25.2631H92.0393C92.3761 25.2631 92.5445 25.0946 92.5445 24.7578V23.7473C92.5445 23.4441 92.3761 23.242 92.0393 23.242H92.0056C90.3551 23.242 89.513 21.8946 89.513 20.042V13.8441C90.0182 12.6315 91.3656 10.9473 92.8814 10.9473C93.8245 10.9473 94.4982 11.4525 94.4982 12.6652C94.4982 13.1367 94.4309 13.7094 94.1614 14.3831C94.1277 14.4841 94.1277 14.5852 94.1277 14.6525C94.1277 14.8546 94.2288 14.9894 94.4309 14.9894C94.4982 14.9894 94.5993 14.9557 94.734 14.922L97.8666 13.6083C98.6751 13.2715 98.7424 12.4967 98.7424 11.4862C98.7424 9.16198 97.0582 8.01671 94.9361 8.01671C92.5445 8.01671 90.254 9.36408 89.0077 11.9578L89.8161 7.44408Z" fill="#141414"/>
<path d="M112.978 20.1095C112.843 20.0421 112.742 20.0084 112.641 20.0084C112.506 20.0084 112.371 20.1095 112.27 20.2779C111.26 21.76 109.811 22.5347 108.498 22.6695C108.296 22.7032 108.093 22.7032 107.891 22.7032C104.489 22.7032 103.277 19.6042 103.277 16.2358C103.277 15.8316 103.31 15.3937 103.344 14.9895C103.546 12.6653 104.557 10.7116 106.712 10.7116C108.7 10.7116 109.576 11.8568 109.441 13.7768L109.407 14.1137C109.407 14.2821 109.508 14.3495 109.677 14.3495C109.778 14.3495 109.845 14.3495 109.98 14.3158L113.853 13.2716C114.089 13.2042 114.224 13.0695 114.224 12.8337V12.6989C113.752 10.5768 112.203 8.35369 108.093 8.08422L107.487 8.05054C103.681 8.05054 99.4371 10.4758 98.9655 16.0674C98.595 20.8505 101.929 25.6 106.982 25.6C107.285 25.6 107.588 25.5663 107.891 25.5326C111.091 25.2295 112.978 23.6463 114.056 21.4232C114.157 21.1537 114.089 20.9179 113.853 20.7495L112.978 20.1095Z" fill="#141414"/>
<path d="M133.853 8.95985C133.853 8.62301 133.684 8.45459 133.347 8.45459H126.577C126.274 8.45459 126.072 8.62301 126.072 8.95985V9.97038C126.072 10.2736 126.274 10.4757 126.577 10.4757H126.644C128.295 10.4757 129.137 11.8567 129.137 13.6757V19.8736C128.531 21.2883 126.712 22.7367 125.027 22.7367C122.434 22.7367 122.602 20.581 122.602 18.7283V8.95985C122.602 8.62301 122.434 8.45459 122.097 8.45459H115.259C114.922 8.45459 114.754 8.62301 114.754 8.95985V9.97038C114.754 10.3073 114.922 10.4757 115.259 10.4757H115.394C117.044 10.4757 117.853 11.8567 117.853 13.6757V19.2336C117.886 22.4336 118.762 25.701 123.579 25.701C126.678 25.701 128.733 23.2757 129.676 21.3557L129.171 25.5999C129.137 25.6673 129.171 25.701 129.204 25.701H129.272C129.373 25.701 129.507 25.6673 129.575 25.6336C131.091 24.9936 132.438 24.3536 135.739 24.3536C136.076 24.3536 136.244 24.1852 136.244 23.9157V22.7704C136.244 22.5346 136.177 22.3662 135.84 22.3325C133.987 22.1304 133.853 20.2778 133.853 18.4588V8.95985Z" fill="#141414"/>
<path d="M148.091 21.9957C147.99 21.8273 147.856 21.7262 147.687 21.7262C147.62 21.7262 147.519 21.7599 147.384 21.8273L147.35 21.861C146.677 22.2988 145.733 22.8041 144.959 22.8041C144.184 22.8041 143.578 22.2652 143.578 20.5136V10.8799H148.058C148.394 10.8799 148.563 10.7115 148.563 10.3746V8.92617C148.563 8.62301 148.394 8.4209 148.058 8.4209H143.544V2.76196C143.544 2.72827 143.51 2.72827 143.477 2.72827H143.409C143.376 2.72827 143.308 2.76196 143.274 2.79564C141.893 3.97459 140.108 5.05248 139.131 5.55775C138.896 5.69248 138.828 5.92827 138.828 6.19774V8.4209H136.403C136.066 8.4209 135.898 8.62301 135.898 8.92617V9.93669C135.898 10.2736 136.066 10.442 136.403 10.442C138.828 10.442 138.828 12.4967 138.828 14.282V20.5136C138.828 24.4883 140.647 25.701 142.736 25.701C144.42 25.701 146.272 24.9262 147.451 24.1852L148.462 23.5452C148.63 23.4441 148.731 23.3094 148.731 23.141C148.731 23.0399 148.698 22.9388 148.63 22.8378L148.091 21.9957Z" fill="#141414"/>
<path d="M151.438 21.3558C151 21.76 150.798 22.1979 150.798 22.6695C150.798 23.1074 151 23.5453 151.438 23.9495L152.752 25.2632C153.19 25.7011 153.628 25.9032 154.066 25.9032C154.503 25.9032 154.941 25.7011 155.379 25.2632L156.693 23.9495C157.131 23.5453 157.333 23.1074 157.333 22.6695C157.333 22.1979 157.131 21.76 156.693 21.3558L155.379 20.0421C154.941 19.6042 154.503 19.4021 154.066 19.4021C153.628 19.4021 153.19 19.6042 152.752 20.0084L151.438 21.3558Z" fill="#141414"/>
</g>
<defs>
<clipPath id="clip0">
<rect width="158" height="32" fill="white"/>
</clipPath>
</defs>
</svg>
