<svg width="156" height="32" viewBox="0 0 156 32" fill="none" xmlns="http://www.w3.org/2000/svg">
<path d="M25.2 0C18.96 0 13.0797 0.999844 8.67969 2.83984C4.67969 4.51984 2.4 6.68 2.4 8.8C2.4 10.8 4.40016 12.8398 7.96016 14.4398C8.44016 14.6798 9.04031 14.6803 9.52031 14.5203C13.8003 12.8803 19.32 12 25.2 12C31.16 12 36.7597 12.92 41.0797 14.6C41.4397 14.72 41.8402 14.72 42.1602 14.6C45.8802 12.96 48 10.8798 48 8.83984C48 6.71984 45.7203 4.55969 41.7203 2.87969C37.3203 0.999688 31.44 0 25.2 0ZM0.8 12.4797C0.64 12.4797 0.320313 12.5597 0.120313 12.8797C0.0403125 13.0397 0 13.2002 0 13.3602V20.8C0 25.92 7.31969 30.1203 17.6797 31.5203C18.1597 31.6003 18.48 31.0397 18.2 30.6797C17.32 29.3197 16.8 27.72 16.8 26C16.8 23.92 17.5598 22.0003 18.8398 20.5203C19.1198 20.2003 18.9197 19.6798 18.4797 19.6398C10.6397 18.6798 4.4 16.1998 1.6 12.8398C1.4 12.5998 1.12 12.4797 0.8 12.4797ZM49.6 12.5203C49.28 12.4803 49 12.6397 48.8 12.8797C45.24 17.0797 36.12 20 25.2 20L24.4 20.0797C21.48 20.4797 19.2 23 19.2 26C19.2 28.84 21.16 31.1998 23.8 31.8398L25.2 32C39.32 32 50.4 27.08 50.4 20.8V13.3602C50.4 13.2002 50.3597 13.0403 50.2797 12.9203C50.0797 12.6003 49.76 12.5203 49.6 12.5203ZM37.6 24C38.28 24 38.8 24.52 38.8 25.2C38.8 25.88 38.28 26.4 37.6 26.4C36.92 26.4 36.4 25.88 36.4 25.2C36.4 24.52 36.92 24 37.6 24ZM31.2 25.2C31.88 25.2 32.4 25.72 32.4 26.4C32.4 27.08 31.88 27.6 31.2 27.6C30.52 27.6 30 27.08 30 26.4C30 25.72 30.52 25.2 31.2 25.2ZM25.2 25.6C25.88 25.6 26.4 26.12 26.4 26.8C26.4 27.48 25.88 28 25.2 28C24.52 28 24 27.48 24 26.8C24 26.12 24.52 25.6 25.2 25.6Z" fill="white"/>
<path d="M72.5424 12.6378C72.4944 10.9898 71.7744 9.82174 70.5744 9.26174C69.7264 8.87774 68.6384 8.86174 67.4384 8.81374C66.3984 8.78174 63.2464 8.81374 62.3024 8.82974H60.3984V21.2937H62.3184V16.2697C62.3184 16.2697 65.4544 16.3178 67.0864 16.2858C68.0144 16.2698 68.8464 16.2538 69.5664 16.0778C71.5344 15.5818 72.6064 14.4138 72.5424 12.6378ZM70.3344 12.4298C70.3664 13.7898 69.4224 14.5098 67.5504 14.5578C66.3344 14.5898 62.3184 14.5418 62.3184 14.5418V10.3818C63.1344 10.3818 65.9344 10.3658 67.1344 10.3658C69.1504 10.3818 70.3184 10.9258 70.3344 12.4298Z" fill="white"/>
<path d="M86.5027 10.4616V8.82959H76.6787V21.2936H86.5027V19.6136H78.5827V15.7736H84.1987V14.1416H78.5827V10.4616H86.5027Z" fill="white"/>
<path d="M90.6826 8.82959V10.4776H95.9626V21.2936H97.8826V10.4776H103.163V8.82959H90.6826Z" fill="white"/>
<path d="M117.247 14.2856C115.263 13.9656 113.135 14.1416 111.119 13.9496C110.175 13.8536 109.343 13.4536 109.183 12.9736C109.023 12.4616 109.279 11.8856 109.583 11.5656C110.255 10.8616 111.775 10.4456 113.455 10.3976C115.055 10.3496 116.719 10.7016 117.519 11.5496C118.159 12.2056 118.191 13.1656 118.191 13.1656H120.063C120.063 13.1656 120.095 12.5416 119.727 11.8056C118.735 9.7416 116.975 9.2296 115.711 8.9736C114.943 8.8136 109.567 8.2856 107.695 11.1016C106.959 12.2056 107.103 13.7416 107.919 14.6376C108.911 15.7256 110.911 15.8856 113.791 15.9176C115.839 15.9496 117.535 16.0136 118.127 16.6216C118.831 17.3416 118.623 18.6216 117.263 19.1976C115.551 19.9336 111.887 19.9816 110.415 19.2136C109.007 18.4776 108.991 17.1016 108.991 17.1016H107.055C107.055 17.1016 107.087 18.8616 108.351 19.9816C110.703 22.0456 117.327 21.9336 119.343 20.1416C120.319 19.2936 120.559 18.1096 120.367 16.9896C120.079 15.2936 118.719 14.5416 117.247 14.2856Z" fill="white"/>
<path d="M130.765 14.8136L137.773 8.82959H134.973L126.573 16.1416V8.82959H124.669V21.2936H126.573V18.3976L129.405 15.9976L135.421 21.2936H138.237L130.765 14.8136Z" fill="white"/>
<path d="M152.672 8.82959L148.64 13.9656L144.528 8.82959H142L147.6 15.4056V21.3096H149.52V15.4216L155.104 8.82959H152.672Z" fill="white"/>
</svg>
