<svg width="140" height="32" viewBox="0 0 140 32" fill="none" xmlns="http://www.w3.org/2000/svg">
<g clip-path="url(#clip0)">
<path d="M8.01699 0.849121H0L2.54777 3.7366V21.2313L0 24.1188H7.33758C14.1316 24.1188 17.8344 21.571 17.8344 17.4606C17.8344 14.1315 15.3546 11.9235 10.7346 11.4819C14.0297 10.8364 16.4756 8.90008 16.4756 6.01261C16.4756 2.78543 13.4862 0.849121 8.01699 0.849121ZM7.30361 11.346H6.96391V1.73235H7.30361C10.5987 1.73235 11.9915 3.36293 11.9915 6.28437C11.9915 8.93405 10.7686 11.346 7.30361 11.346ZM7.60934 23.2356H6.96391V12.1952H7.84713C11.6518 12.1952 13.2824 14.1315 13.2824 17.4606C13.2824 21.2313 11.0403 23.2356 7.60934 23.2356Z" fill="white"/>
<path d="M25.1252 17.8684V7.43945H18.501L21.0488 10.0552V19.0234C21.0488 22.2166 22.6794 24.4586 25.4649 24.4586C27.3673 24.4586 28.9299 23.3036 29.983 21.6051V24.3227L36.3694 24.1189L34.0594 21.673V7.43945H27.4692L29.983 10.0552V20.6879C29.2356 21.707 28.3184 22.2845 27.4352 22.2845C25.4989 22.2845 25.1252 20.62 25.1252 17.8684Z" fill="white"/>
<path d="M46.5168 24.119H55.6208L53.0391 21.5373V12.5012C53.0391 9.30796 51.4085 7.06592 48.6229 7.06592C47.2641 7.06592 45.0561 8.119 43.6972 10.2252V7.13386L37.3108 9.40987L39.6208 12.0256V21.5373L37.0391 24.119H46.1431L43.6972 21.5373V10.9046C44.7843 9.44384 46.0752 9.20604 46.6527 9.20604C48.589 9.20604 48.9626 10.8706 48.9626 13.6562V21.5373L46.5168 24.119Z" fill="white"/>
<path d="M70.3305 4.14432L70.1946 4.11035L65.8804 7.23562C65.5747 7.13371 65.3369 7.06577 64.4197 7.06577C60.4112 7.06577 57.15 9.8853 57.15 13.4862C57.15 15.6943 58.407 17.4947 60.4791 18.3439C58.2031 19.5329 57.15 20.9597 57.15 22.3185C57.15 23.5754 58.0333 24.5945 59.1883 25.0701C57.3539 25.8514 56.3008 26.7006 56.3008 28.1614C56.3008 30.3015 58.8486 32 62.7551 32C67.9526 32 71.0779 28.467 71.0779 24.4925C71.0779 23.2356 70.7721 22.4883 70.2965 21.707H61.77C60.649 21.707 59.9016 21.2994 59.9016 20.2463C59.9016 19.6348 60.1394 19.1253 61.1585 18.5478C61.5322 18.7176 62.0078 18.8195 63.0269 18.8195C67.0694 18.8195 70.2626 15.8301 70.2626 12.2633C70.2626 11.0064 69.8549 9.8853 69.0736 8.9681C69.8549 7.33753 70.1607 6.14857 70.3305 4.14432ZM62.959 7.77914C64.5556 7.77914 65.8804 10.4968 65.8804 14.3015C65.8804 16.6794 65.5067 18.1741 64.2838 18.1741C62.6872 18.1741 61.4982 15.3885 61.4982 11.414C61.4982 9.2059 61.7021 7.77914 62.959 7.77914ZM60.0036 25.5456H68.0545C68.3942 25.8853 68.5301 26.8705 68.5301 27.482C68.5301 29.9958 65.9144 31.3885 63.2307 31.3885C60.2753 31.3885 58.8825 29.9618 58.8825 27.8556C58.8825 26.7686 59.2562 26.1231 60.0036 25.5456Z" fill="white"/>
<path d="M81.0374 21.2654V24.1188H87.6616L85.1478 21.9108H85.1138V10.0552L85.8612 7.47339H73.1903V12.9087H73.4281C75.4663 9.51161 77.0289 8.11883 78.8633 8.11883C80.5279 8.11883 81.0374 9.23985 81.0374 13.2484C74.5491 15.8301 72.375 17.6306 72.375 20.552C72.375 22.862 73.6998 24.4585 75.806 24.4585C77.2667 24.4585 78.5236 23.7113 81.0374 21.2654ZM81.0374 13.9618V20.4501C79.9504 21.5711 79.3049 21.7749 78.6595 21.7749C77.4366 21.7749 76.8591 21.0276 76.8591 19.431C76.8591 17.2569 77.9461 15.4904 81.0374 13.9618Z" fill="white"/>
<path d="M90.8605 9.17197V21.1975L88.3467 24.1189H97.4507L94.9369 21.1975V0L88.5505 1.9363L90.8605 4.55202V5.84289L88.5505 6.55626L90.8605 9.17197Z" fill="white"/>
<path d="M113.743 15.0489C113.743 11.4141 111.739 7.06592 107.051 7.06592C101.956 7.06592 98.457 11.7538 98.457 16.5436C98.457 20.2124 100.393 24.5266 105.149 24.5266C110.176 24.5266 113.743 19.8727 113.743 15.0489ZM105.217 8.01708C107.799 8.01708 109.497 13.3164 109.497 18.1402C109.497 21.0617 108.852 23.5755 107.017 23.5755C104.707 23.5755 102.771 18.7517 102.771 13.4523C102.771 10.7347 103.348 8.01708 105.217 8.01708Z" fill="white"/>
<path d="M113.645 7.47339L115.887 9.88528L121.832 24.8661H122.579L126.893 13.9278L131.207 24.8661H131.955L137.73 9.23984L139.734 7.47339H133.687L136.745 9.23984L133.008 19.3969L129.169 9.30779L131.989 7.47339H123.021L125.263 9.88528L126.452 12.569L123.632 19.7028L119.658 9.30779L122.647 7.47339H113.645Z" fill="white"/>
</g>
<defs>
<clipPath id="clip0">
<rect width="140" height="32" fill="white"/>
</clipPath>
</defs>
</svg>
