<svg width="122" height="32" viewBox="0 0 122 32" fill="none" xmlns="http://www.w3.org/2000/svg">
<g clip-path="url(#clip0)">
<path d="M56.1198 14.1763C55.4462 12.3802 54.0992 10.8086 52.4314 10.0068C51.2447 9.39746 49.9297 9.14087 48.743 9.14087C47.5563 9.14087 46.3055 9.20502 44.9584 9.78233C43.1623 10.5521 41.8153 12.2519 41.8153 14.4329C41.8153 15.1705 42.0719 16.4214 42.6813 17.1911C43.3227 18.025 44.4773 18.6665 45.4716 19.0834C46.0168 19.3079 46.5621 19.4362 49.8656 20.3663C51.0843 20.7191 52.3672 20.9436 52.3672 22.002C52.3672 22.4831 52.1427 22.7718 51.6937 23.0925C51.1805 23.4774 49.9938 23.6698 49.3524 23.6698C48.1657 23.6698 46.979 23.3812 46.113 22.4831C45.664 22.002 45.2791 21.1361 45.0867 20.3663L41.1738 21.3606C41.4304 22.5473 41.8474 23.734 43.002 25.081C44.5415 26.8771 46.7224 27.4223 49.2562 27.4223C50.924 27.4223 52.3352 27.1978 53.8105 26.2677C55.3179 25.3697 56.2801 23.7019 56.2801 21.9379C56.2801 19.0834 54.0992 17.2873 50.8277 16.3893L47.6205 15.4913C46.5621 15.2026 45.7282 15.0102 45.7282 14.2725C45.7282 13.4065 47.1394 12.8292 48.4864 12.8934C50.058 12.9575 51.405 13.5669 52.0465 15.2026L56.1198 14.1763Z" fill="white"/>
<path d="M63.6651 12.9894H68.6684V9.62171H63.6651V4.81079H59.3032V9.62171H56.3525V12.9894H59.3032V19.5964C59.3032 21.6811 59.1107 23.4772 60.0729 24.8884C61.003 26.2675 61.9973 26.7807 63.6009 27.0693C64.8838 27.2939 67.3214 27.3259 68.6684 26.9411V23.3168C67.7383 23.4451 66.6799 23.5093 65.846 23.4451C65.1725 23.381 64.4348 23.1244 64.0179 22.4509C63.6009 21.8094 63.6651 20.6869 63.6651 19.3398V12.9894Z" fill="white"/>
<path d="M85.5185 26.9413V16.6138C85.5185 14.4329 84.9412 12.4764 83.2413 11.0331C81.9905 9.97477 80.0661 9.14087 78.1738 9.14087C75.0627 9.14087 72.8497 10.2634 71.0216 11.9953L73.5233 14.8819C74.6458 13.8876 76.1532 13.2462 77.8531 13.2462C79.8416 13.2462 80.9 14.1442 81.1887 15.395C78.9115 15.7158 75.2552 16.1007 73.0742 17.0949C70.8933 18.0892 70.0273 19.8211 70.0273 22.0662C70.0273 25.3055 72.2403 27.4223 75.7363 27.4223C78.3983 27.4223 79.9699 26.813 81.7018 24.8245V26.9413H85.5185ZM80.6113 21.8096C79.8416 22.9642 78.4625 23.7981 76.7947 23.7981C75.3835 23.7981 74.3251 22.9322 74.3251 21.7455C74.3251 20.5908 75.5118 19.9815 76.8268 19.6928C78.4625 19.34 80.1623 18.9872 81.1887 18.7948C81.1887 19.6928 81.2207 20.8795 80.6113 21.8096Z" fill="white"/>
<path d="M103.644 14.914C103.195 12.7972 101.976 11.2577 100.373 10.2955C98.897 9.39746 97.7103 9.14087 95.85 9.14087C92.9635 9.14087 90.9429 10.103 89.3072 12.0274C87.8639 13.7273 87.1904 15.8441 87.1904 18.2816C87.1904 20.655 87.8318 22.7076 89.3072 24.5679C90.8467 26.5243 92.8993 27.4223 95.7859 27.4223C97.9989 27.4223 99.2818 27.0695 100.822 25.947C102.169 24.9527 103.195 23.3491 103.644 21.6813L99.1856 20.7512C98.9611 21.4889 98.7045 22.0662 98.0951 22.6114C97.4537 23.1887 96.5877 23.3491 95.7859 23.3491C94.503 23.3491 93.4766 22.8359 92.771 21.8738C92.0334 20.9116 91.8089 19.5966 91.8089 18.2816C91.8089 16.9666 92.0334 15.6196 92.771 14.6574C93.4766 13.6952 94.503 13.2141 95.7859 13.2141C96.5877 13.2141 97.3574 13.4707 97.9989 14.0159C98.6724 14.5612 99.0573 15.2988 99.2818 16.0686L103.644 14.914Z" fill="white"/>
<path d="M109.774 20.3341H111.827L116.317 26.9411H121.256L115.355 18.2493L120.839 9.62174H115.996L111.827 16.2287H109.774V3.84863H105.348L105.316 26.9411H109.774V20.3341Z" fill="white"/>
<path d="M31.2319 16.0364C32.1175 16.0364 32.8438 15.3166 32.7554 14.4354C32.4939 11.8294 31.597 9.31828 30.1329 7.12706C28.3708 4.48989 25.8662 2.43446 22.936 1.22071C20.0057 0.00694811 16.7813 -0.310626 13.6706 0.308142C10.5598 0.92691 7.70239 2.45423 5.45965 4.69696C3.21692 6.93969 1.68961 9.7971 1.07084 12.9079C0.452068 16.0186 0.769643 19.243 1.9834 22.1733C3.19716 25.1035 5.25258 27.6081 7.88976 29.3702C10.081 30.8343 12.5921 31.7312 15.1981 31.9927C16.0793 32.0811 16.7991 31.3548 16.7991 30.4692C16.7991 29.5835 16.0783 28.8759 15.1996 28.7654C13.229 28.5178 11.3351 27.8149 9.67162 26.7034C7.56189 25.2937 5.91755 23.2901 4.94654 20.9459C3.97554 18.6017 3.72148 16.0222 4.21649 13.5336C4.7115 11.045 5.93336 8.75903 7.72754 6.96485C9.52173 5.17066 11.8077 3.94881 14.2963 3.45379C16.7849 2.95878 19.3644 3.21284 21.7086 4.18385C24.0528 5.15485 26.0564 6.79919 27.4661 8.90893C28.5776 10.5724 29.2805 12.4663 29.5281 14.4369C29.6386 15.3157 30.3462 16.0364 31.2319 16.0364Z" fill="white"/>
<path d="M20.5343 29.9775C20.7636 30.833 21.6468 31.3482 22.4751 31.0347C24.5463 30.2509 26.4384 29.0443 28.0277 27.4855C29.617 25.9268 30.8602 24.0584 31.6841 22.0029C32.0136 21.1808 31.5156 20.2877 30.6647 20.0419C29.8138 19.7961 28.934 20.2922 28.584 21.1058C27.9268 22.6336 26.9767 24.024 25.782 25.1957C24.5873 26.3674 23.1787 27.2904 21.6384 27.9178C20.8181 28.2519 20.3051 29.122 20.5343 29.9775Z" fill="white"/>
<path d="M23.1338 16.0365C24.0637 16.0365 24.8353 15.2745 24.6414 14.365C24.4307 13.3761 24.0337 12.4309 23.4663 11.5818C22.5852 10.2632 21.333 9.23554 19.8678 8.62867C18.4027 8.02179 16.7905 7.863 15.2351 8.17238C13.6797 8.48177 12.251 9.24543 11.1297 10.3668C10.0083 11.4881 9.2447 12.9169 8.93532 14.4722C8.62594 16.0276 8.78472 17.6398 9.3916 19.1049C9.99848 20.5701 11.0261 21.8223 12.3447 22.7034C13.1938 23.2708 14.139 23.6678 15.1279 23.8785C16.0374 24.0724 16.7994 23.3008 16.7994 22.3709C16.7994 21.4409 16.0218 20.7149 15.1521 20.3855C14.8244 20.2614 14.5101 20.1 14.2157 19.9033C13.4509 19.3923 12.8548 18.666 12.5028 17.8162C12.1509 16.9664 12.0588 16.0313 12.2382 15.1292C12.4176 14.2271 12.8606 13.3985 13.511 12.7481C14.1614 12.0977 14.99 11.6548 15.8921 11.4753C16.7942 11.2959 17.7293 11.388 18.5791 11.74C19.4289 12.0919 20.1552 12.688 20.6662 13.4528C20.8629 13.7472 21.0243 14.0615 21.1484 14.3892C21.4778 15.2589 22.2038 16.0365 23.1338 16.0365Z" fill="white"/>
</g>
<defs>
<clipPath id="clip0">
<rect width="122" height="32" fill="white"/>
</clipPath>
</defs>
</svg>
