<?xml version="1.0" encoding="UTF-8"?> <svg xmlns:xlink="http://www.w3.org/1999/xlink" xmlns="http://www.w3.org/2000/svg" version="1.1" viewBox="0.0 0.0 982.4540682414698 438.5485564304462" fill="none" stroke="none" stroke-linecap="square" stroke-miterlimit="10"><clipPath id="p.0"><path d="m0 0l982.45404 0l0 438.54855l-982.45404 0l0 -438.54855z" clip-rule="nonzero"></path></clipPath><g clip-path="url(#p.0)"><path fill="#000000" fill-opacity="0.0" d="m0 0l982.45404 0l0 438.54855l-982.45404 0z" fill-rule="evenodd"></path><path fill="#000000" fill-opacity="0.0" d="m480.0 332.4015c0 -61.42273 89.8819 -92.13287 179.7638 -122.845474c89.8819 -30.7126 179.7638 -61.427658 179.7638 -122.85531" fill-rule="evenodd"></path><path stroke="#000000" stroke-width="1.0" stroke-linejoin="round" stroke-linecap="butt" d="m480.29254 326.40863l0.0368042 -0.37277222c0.024291992 -0.23162842 0.049835205 -0.4628296 0.07675171 -0.693573c0.05380249 -0.46151733 0.112854004 -0.9212036 0.17712402 -1.3790588c0.12860107 -0.9158325 0.27807617 -1.8244629 0.44815063 -2.7260742c0.6802368 -3.6065063 1.6896667 -7.1004944 3.0062866 -10.489532c2.6332703 -6.7780457 6.495392 -13.1362 11.410797 -19.134491c9.830811 -11.996521 23.874847 -22.553467 40.727753 -32.150665c33.70569 -19.194458 78.64661 -34.55014 123.587585 -49.90645c89.8819 -30.7126 179.7638 -61.427658 179.7638 -122.85531" fill-rule="evenodd"></path><path fill="#000000" stroke="#000000" stroke-width="1.0" stroke-linecap="butt" d="m478.64276 326.3281l1.4285278 4.61322l1.8710327 -4.4521484z" fill-rule="evenodd"></path><path fill="#000000" fill-opacity="0.0" d="m715.79266 44.160027c-113.34418 0 -170.01514 39.283463 -226.68839 78.56693c-56.67325 39.283463 -113.348724 78.566925 -226.69745 78.566925" fill-rule="evenodd"></path><path stroke="#000000" stroke-width="1.0" stroke-linejoin="round" stroke-linecap="butt" d="m709.7928 44.198605l-1.8770142 0.025657654c-0.86499023 0.014213562 -1.7265625 0.030773163 -2.5848389 0.049655914c-3.4330444 0.07552719 -6.8125 0.18821716 -10.140015 0.3368721c-6.6550903 0.29730988 -13.1026 0.7384796 -19.356506 1.3139229c-12.507629 1.1508827 -24.240479 2.8388443 -35.309204 4.9871597c-22.137451 4.296631 -41.61841 10.4346695 -59.32837 17.800323c-35.41992 14.731293 -63.75592 34.373024 -92.09256 54.014755c-56.673218 39.28347 -113.348755 78.56693 -226.69745 78.56693" fill-rule="evenodd"></path><path fill="#000000" stroke="#000000" stroke-width="1.0" stroke-linecap="butt" d="m709.8034 45.8503l4.5273438 -1.6808739l-4.548584 -1.6225204z" fill-rule="evenodd"></path><path fill="#000000" fill-opacity="0.0" d="m14.947507 159.45296l247.46457 0l0 83.68504l-247.46457 0z" fill-rule="evenodd"></path><path stroke="#000000" stroke-width="1.0" stroke-linejoin="round" stroke-linecap="butt" d="m14.947507 159.45296l247.46457 0l0 83.68504l-247.46457 0z" fill-rule="evenodd"></path><path fill="#000000" d="m54.170406 207.43549l0 -6.03125q0 -1.109375 -0.484375 -1.65625q-0.46875 -0.5625 -1.46875 -0.5625q-1.3125 0 -1.9375 0.75q-0.625 0.75 -0.625 2.328125l0 5.171875l-1.40625 0l0 -6.03125q0 -1.109375 -0.46875 -1.65625q-0.46875 -0.5625 -1.484375 -0.5625q-1.3125 0 -1.9375 0.796875q-0.609375 0.78125 -0.609375 2.59375l0 4.859375l-1.40625 0l0 -9.265625l1.140625 0l0.234375 1.265625l0.0625 0q0.40625 -0.6875 1.125 -1.0625q0.71875 -0.375 1.625 -0.375q2.171875 0 2.84375 1.5625l0.0625 0q0.421875 -0.71875 1.203125 -1.140625q0.78125 -0.421875 1.796875 -0.421875q1.5625 0 2.34375 0.8125q0.796875 0.796875 0.796875 2.578125l0 6.046875l-1.40625 0zm9.993214 0l-0.2812538 -1.3125l-0.0625 0q-0.6875 0.859375 -1.390625 1.171875q-0.6875 0.3125 -1.71875 0.3125q-1.375 0 -2.15625 -0.703125q-0.78125 -0.71875 -0.78125 -2.03125q0 -2.8125 4.484375 -2.953125l1.578125 -0.046875l0 -0.578125q0 -1.078125 -0.46875 -1.59375q-0.46875 -0.53125 -1.5 -0.53125q-1.15625 0 -2.625 0.703125l-0.421875 -1.0625q0.671875 -0.375 1.484375 -0.578125q0.828125 -0.21875 1.640625 -0.21875q1.671875 0 2.4687538 0.734375q0.796875 0.734375 0.796875 2.359375l0 6.328125l-1.046875 0zm-3.1718788 -0.984375q1.3125 0 2.0625 -0.71875q0.75 -0.71875 0.75 -2.015625l0 -0.84375l-1.40625 0.0625q-1.671875 0.0625 -2.421875 0.53125q-0.734375 0.453125 -0.734375 1.421875q0 0.765625 0.453125 1.171875q0.46875 0.390625 1.296875 0.390625zm8.512089 0.984375l-1.40625 0l0 -9.265625l1.40625 0l0 9.265625zm-1.515625 -11.78125q0 -0.484375 0.234375 -0.703125q0.234375 -0.234375 0.59375 -0.234375q0.328125 0 0.578125 0.234375q0.25 0.21875 0.25 0.703125q0 0.46875 -0.25 0.703125q-0.25 0.234375 -0.578125 0.234375q-0.359375 0 -0.59375 -0.234375q-0.234375 -0.234375 -0.234375 -0.703125zm5.8984222 11.78125l-1.40625 0l0 -13.171875l1.40625 0l0 13.171875zm6.6796722 0.171875q-2.0 0 -3.109375 -1.234375q-1.109375 -1.25 -1.109375 -3.515625q0 -2.328125 1.125 -3.59375q1.125 -1.265625 3.1875 -1.265625q0.671875 0 1.34375 0.140625q0.671875 0.140625 1.046875 0.34375l-0.421875 1.1875q-0.46875 -0.1875 -1.03125 -0.3125q-0.546875 -0.125 -0.96875 -0.125q-2.828125 0 -2.828125 3.609375q0 1.703125 0.6875 2.625q0.703125 0.90625 2.046875 0.90625q1.171875 0 2.375 -0.5l0 1.25q-0.921875 0.484375 -2.34375 0.484375zm10.890106 -0.171875l0 -6.0q0 -1.125 -0.515625 -1.6875q-0.515625 -0.5625 -1.609375 -0.5625q-1.46875 0 -2.140625 0.796875q-0.671875 0.796875 -0.671875 2.609375l0 4.84375l-1.40625 0l0 -13.171875l1.40625 0l0 3.984375q0 0.71875 -0.0625 1.203125l0.078125 0q0.421875 -0.671875 1.1875 -1.046875q0.765625 -0.390625 1.75 -0.390625q1.6875 0 2.53125 0.8125q0.859375 0.796875 0.859375 2.5625l0 6.046875l-1.40625 0zm5.697983 0l-1.40625 0l0 -9.265625l1.40625 0l0 9.265625zm-1.515625 -11.78125q0 -0.484375 0.234375 -0.703125q0.234375 -0.234375 0.59375 -0.234375q0.328125 0 0.578125 0.234375q0.25 0.21875 0.25 0.703125q0 0.46875 -0.25 0.703125q-0.25 0.234375 -0.578125 0.234375q-0.359375 0 -0.59375 -0.234375q-0.234375 -0.234375 -0.234375 -0.703125zm16.320297 11.78125l0 -6.03125q0 -1.109375 -0.484375 -1.65625q-0.46875 -0.5625 -1.46875 -0.5625q-1.3125 0 -1.9375 0.75q-0.625 0.75 -0.625 2.328125l0 5.171875l-1.40625 0l0 -6.03125q0 -1.109375 -0.46875 -1.65625q-0.46875 -0.5625 -1.484375 -0.5625q-1.3125 0 -1.9375 0.796875q-0.609375 0.78125 -0.609375 2.59375l0 4.859375l-1.40625 0l0 -9.265625l1.140625 0l0.234375 1.265625l0.0625 0q0.40625 -0.6875 1.125 -1.0625q0.71875 -0.375 1.625 -0.375q2.171875 0 2.84375 1.5625l0.0625 0q0.421875 -0.71875 1.203125 -1.140625q0.78125 -0.421875 1.796875 -0.421875q1.5625 0 2.34375 0.8125q0.796875 0.796875 0.796875 2.578125l0 6.046875l-1.40625 0zm8.602585 0.171875q-0.890625 0 -1.640625 -0.328125q-0.75 -0.34375 -1.265625 -1.03125l-0.09375 0q0.09375 0.8125 0.09375 1.53125l0 3.8125l-1.40625 0l0 -13.421875l1.140625 0l0.203125 1.265625l0.0625 0q0.546875 -0.765625 1.265625 -1.09375q0.71875 -0.34375 1.640625 -0.34375q1.859375 0 2.859375 1.265625q1.0 1.25 1.0 3.53125q0 2.28125 -1.03125 3.546875q-1.015625 1.265625 -2.828125 1.265625zm-0.203125 -8.421875q-1.40625 0 -2.046875 0.796875q-0.640625 0.78125 -0.65625 2.5l0 0.3125q0 1.953125 0.65625 2.796875q0.65625 0.84375 2.09375 0.84375q1.203125 0 1.875 -0.96875q0.6875 -0.984375 0.6875 -2.6875q0 -1.734375 -0.6875 -2.65625q-0.671875 -0.9375 -1.921875 -0.9375zm18.119812 8.25l-6.890625 0l0 -12.375l6.890625 0l0 1.28125l-5.453125 0l0 3.984375l5.125 0l0 1.265625l-5.125 0l0 4.5625l5.453125 0l0 1.28125zm1.74646 -4.0l0 -1.28125l4.15625 0l0 1.28125l-4.15625 0zm12.044556 4.0l-4.1875 -10.96875l-0.078125 0q0.125 1.3125 0.125 3.09375l0 7.875l-1.328125 0l0 -12.375l2.15625 0l3.921875 10.203125l0.078125 0l3.9375 -10.203125l2.15625 0l0 12.375l-1.4375 0l0 -7.96875q0 -1.375 0.109375 -2.984375l-0.0625 0l-4.234375 10.953125l-1.15625 0zm15.660019 0l-0.28125 -1.3125l-0.0625 0q-0.6875 0.859375 -1.390625 1.171875q-0.6875 0.3125 -1.71875 0.3125q-1.375 0 -2.15625 -0.703125q-0.78125 -0.71875 -0.78125 -2.03125q0 -2.8125 4.484375 -2.953125l1.578125 -0.046875l0 -0.578125q0 -1.078125 -0.46875 -1.59375q-0.46875 -0.53125 -1.5 -0.53125q-1.15625 0 -2.625 0.703125l-0.421875 -1.0625q0.671875 -0.375 1.484375 -0.578125q0.828125 -0.21875 1.640625 -0.21875q1.671875 0 2.46875 0.734375q0.796875 0.734375 0.796875 2.359375l0 6.328125l-1.046875 0zm-3.171875 -0.984375q1.3125 0 2.0625 -0.71875q0.75 -0.71875 0.75 -2.015625l0 -0.84375l-1.40625 0.0625q-1.671875 0.0625 -2.421875 0.53125q-0.734375 0.453125 -0.734375 1.421875q0 0.765625 0.453125 1.171875q0.46875 0.390625 1.296875 0.390625zm8.512085 0.984375l-1.40625 0l0 -9.265625l1.40625 0l0 9.265625zm-1.515625 -11.78125q0 -0.484375 0.234375 -0.703125q0.234375 -0.234375 0.59375 -0.234375q0.328125 0 0.578125 0.234375q0.25 0.21875 0.25 0.703125q0 0.46875 -0.25 0.703125q-0.25 0.234375 -0.578125 0.234375q-0.359375 0 -0.59375 -0.234375q-0.234375 -0.234375 -0.234375 -0.703125zm5.8984222 11.78125l-1.40625 0l0 -13.171875l1.40625 0l0 13.171875zm2.1952972 -4.0l0 -1.28125l4.15625 0l0 1.28125l-4.15625 0zm13.560181 0.703125q0 1.640625 -1.1875 2.5625q-1.1875 0.90625 -3.21875 0.90625q-2.203125 0 -3.390625 -0.5625l0 -1.390625q0.765625 0.3125 1.65625 0.5q0.90625 0.1875 1.78125 0.1875q1.4375 0 2.15625 -0.546875q0.734375 -0.546875 0.734375 -1.515625q0 -0.640625 -0.265625 -1.046875q-0.25 -0.421875 -0.859375 -0.765625q-0.59375 -0.34375 -1.828125 -0.78125q-1.734375 -0.625 -2.46875 -1.46875q-0.734375 -0.84375 -0.734375 -2.203125q0 -1.4375 1.0625 -2.28125q1.078125 -0.84375 2.84375 -0.84375q1.84375 0 3.40625 0.671875l-0.453125 1.25q-1.53125 -0.640625 -2.984375 -0.640625q-1.140625 0 -1.78125 0.5q-0.640625 0.484375 -0.640625 1.359375q0 0.640625 0.234375 1.0625q0.234375 0.40625 0.796875 0.75q0.5625 0.328125 1.71875 0.75q1.953125 0.6875 2.6875 1.484375q0.734375 0.796875 0.734375 2.0625zm6.2289124 3.46875q-2.0625 0 -3.25 -1.25q-1.1875 -1.25 -1.1875 -3.484375q0 -2.234375 1.109375 -3.546875q1.109375 -1.328125 2.96875 -1.328125q1.734375 0 2.75 1.140625q1.015625 1.140625 1.015625 3.03125l0 0.890625l-6.390625 0q0.046875 1.625 0.828125 2.46875q0.78125 0.84375 2.203125 0.84375q1.5 0 2.96875 -0.625l0 1.25q-0.75 0.328125 -1.421875 0.46875q-0.65625 0.140625 -1.59375 0.140625zm-0.375 -8.4375q-1.125 0 -1.796875 0.734375q-0.65625 0.71875 -0.765625 2.0l4.84375 0q0 -1.328125 -0.59375 -2.03125q-0.59375 -0.703125 -1.6875 -0.703125zm10.409195 -1.171875q0.625 0 1.109375 0.09375l-0.1875 1.3125q-0.578125 -0.140625 -1.015625 -0.140625q-1.125 0 -1.9375 0.921875q-0.796875 0.90625 -0.796875 2.28125l0 4.96875l-1.40625 0l0 -9.265625l1.15625 0l0.171875 1.703125l0.0625 0q0.515625 -0.90625 1.234375 -1.390625q0.734375 -0.484375 1.609375 -0.484375zm4.87027 9.4375l-3.515625 -9.265625l1.5 0l2.0 5.484375q0.6875 1.9375 0.796875 2.515625l0.0625 0q0.09375 -0.453125 0.59375 -1.859375q0.5 -1.40625 2.21875 -6.140625l1.515625 0l-3.53125 9.265625l-1.640625 0zm10.5716095 0.171875q-2.0625 0 -3.25 -1.25q-1.1875 -1.25 -1.1875 -3.484375q0 -2.234375 1.109375 -3.546875q1.109375 -1.328125 2.96875 -1.328125q1.734375 0 2.75 1.140625q1.015625 1.140625 1.015625 3.03125l0 0.890625l-6.390625 0q0.046875 1.625 0.828125 2.46875q0.78125 0.84375 2.203125 0.84375q1.5 0 2.96875 -0.625l0 1.25q-0.75 0.328125 -1.421875 0.46875q-0.65625 0.140625 -1.59375 0.140625zm-0.375 -8.4375q-1.125 0 -1.796875 0.734375q-0.65625 0.71875 -0.765625 2.0l4.84375 0q0 -1.328125 -0.59375 -2.03125q-0.59375 -0.703125 -1.6875 -0.703125zm10.409195 -1.171875q0.625 0 1.109375 0.09375l-0.1875 1.3125q-0.578125 -0.140625 -1.015625 -0.140625q-1.125 0 -1.9375 0.921875q-0.796875 0.90625 -0.796875 2.28125l0 4.96875l-1.40625 0l0 -9.265625l1.15625 0l0.171875 1.703125l0.0625 0q0.515625 -0.90625 1.234375 -1.390625q0.734375 -0.484375 1.609375 -0.484375z" fill-rule="nonzero"></path><path fill="#000000" fill-opacity="0.0" d="m14.947507 1.6078131l247.46457 0l0 85.10236l-247.46457 0z" fill-rule="evenodd"></path><path stroke="#000000" stroke-width="1.0" stroke-linejoin="round" stroke-linecap="butt" d="m14.947507 1.6078131l247.46457 0l0 85.10236l-247.46457 0z" fill-rule="evenodd"></path><path fill="#000000" d="m40.655315 39.798996l-1.640625 0l-6.75 -10.375002l-0.078125 0q0.140625 1.828125 0.140625 3.343752l0 7.03125l-1.328125 0l0 -12.375002l1.625 0l6.734375 10.343752l0.078125 0q-0.015625 -0.234375 -0.078125 -1.46875q-0.0625 -1.234375 -0.046875 -1.765625l0 -7.109377l1.34375 0l0 12.375002zm7.1106567 0.171875q-2.0625 0 -3.25 -1.25q-1.1875 -1.25 -1.1875 -3.484375q0 -2.234375 1.109375 -3.546877q1.109375 -1.328125 2.96875 -1.328125q1.734375 0 2.75 1.140625q1.015625 1.1406269 1.015625 3.031252l0 0.890625l-6.390625 0q0.046875 1.625 0.828125 2.46875q0.78125 0.84375 2.203125 0.84375q1.5 0 2.96875 -0.625l0 1.25q-0.75 0.328125 -1.421875 0.46875q-0.65625 0.140625 -1.59375 0.140625zm-0.375 -8.437502q-1.125 0 -1.796875 0.7343769q-0.65625 0.71875 -0.765625 2.0l4.84375 0q0 -1.328125 -0.59375 -2.03125q-0.59375 -0.7031269 -1.6875 -0.7031269zm13.752945 8.265627l-1.703125 -5.4375q-0.15625 -0.5 -0.59375 -2.265625l-0.078125 0q-0.328125 1.46875 -0.59375 2.28125l-1.75 5.421875l-1.625 0l-2.53125 -9.265627l1.484375 0q0.890625 3.484377 1.359375 5.312502q0.46875 1.828125 0.546875 2.46875l0.0625 0q0.09375 -0.484375 0.296875 -1.25q0.203125 -0.765625 0.359375 -1.21875l1.703125 -5.312502l1.515625 0l1.671875 5.312502q0.46875 1.453125 0.640625 2.453125l0.0625 0q0.03125 -0.3125 0.171875 -0.9375q0.15625 -0.640625 1.78125 -6.828127l1.4531288 0l-2.5625038 9.265627l-1.671875 0zm11.884632 -2.53125q0 1.296875 -0.96875 2.0q-0.953125 0.703125 -2.703125 0.703125q-1.84375 0 -2.875 -0.59375l0 -1.296875q0.671875 0.34375 1.4375 0.546875q0.765625 0.1875 1.46875 0.1875q1.109375 0 1.703125 -0.34375q0.59375 -0.359375 0.59375 -1.078125q0 -0.546875 -0.484375 -0.921875q-0.46875 -0.390625 -1.828125 -0.921875q-1.296875 -0.484375 -1.84375 -0.84375q-0.53125 -0.359375 -0.8125 -0.8125q-0.265625 -0.453125 -0.265625 -1.09375q0 -1.1250019 0.921875 -1.7812519q0.921875 -0.65625 2.53125 -0.65625q1.5 0 2.9375 0.609375l-0.5 1.1406269q-1.40625 -0.5781269 -2.53125 -0.5781269q-1.0 0 -1.515625 0.3125q-0.5 0.3125019 -0.5 0.8593769q0 0.375 0.1875 0.640625q0.1875 0.265625 0.609375 0.5q0.421875 0.234375 1.625 0.6875q1.65625 0.59375 2.234375 1.203125q0.578125 0.609375 0.578125 1.53125zm3.6882782 2.53125l-1.40625 0l0 -13.171877l1.40625 0l0 13.171877zm6.8984222 0.171875q-2.0625 0 -3.25 -1.25q-1.1875 -1.25 -1.1875 -3.484375q0 -2.234375 1.109375 -3.546877q1.109375 -1.328125 2.96875 -1.328125q1.734375 0 2.75 1.140625q1.015625 1.1406269 1.015625 3.031252l0 0.890625l-6.390625 0q0.046875 1.625 0.828125 2.46875q0.78125 0.84375 2.203125 0.84375q1.5 0 2.96875 -0.625l0 1.25q-0.75 0.328125 -1.421875 0.46875q-0.65625 0.140625 -1.59375 0.140625zm-0.375 -8.437502q-1.125 0 -1.796875 0.7343769q-0.65625 0.71875 -0.765625 2.0l4.84375 0q0 -1.328125 -0.59375 -2.03125q-0.59375 -0.7031269 -1.6875 -0.7031269zm9.17482 7.281252q0.375 0 0.71875 -0.046875q0.34375 -0.0625 0.546875 -0.125l0 1.078125q-0.21875 0.109375 -0.671875 0.171875q-0.4375 0.078125 -0.796875 0.078125q-2.6875 0 -2.6875 -2.84375l0 -5.515627l-1.328125 0l0 -0.671875l1.328125 -0.578125l0.59375 -1.984375l0.8125 0l0 2.15625l2.6875 0l0 1.078125l-2.6875 0l0 5.468752q0 0.828125 0.390625 1.28125q0.40625 0.453125 1.09375 0.453125zm6.1173096 0q0.375 0 0.71875 -0.046875q0.34375 -0.0625 0.546875 -0.125l0 1.078125q-0.21875 0.109375 -0.671875 0.171875q-0.4375 0.078125 -0.796875 0.078125q-2.6875 0 -2.6875 -2.84375l0 -5.515627l-1.328125 0l0 -0.671875l1.328125 -0.578125l0.59375 -1.984375l0.8125 0l0 2.15625l2.6875 0l0 1.078125l-2.6875 0l0 5.468752q0 0.828125 0.390625 1.28125q0.40625 0.453125 1.09375 0.453125zm7.0391846 1.15625q-2.0625 0 -3.25 -1.25q-1.1875 -1.25 -1.1875 -3.484375q0 -2.234375 1.109375 -3.546877q1.109375 -1.328125 2.96875 -1.328125q1.734375 0 2.75 1.140625q1.015625 1.1406269 1.015625 3.031252l0 0.890625l-6.390625 0q0.046875 1.625 0.828125 2.46875q0.78125 0.84375 2.203125 0.84375q1.5 0 2.96875 -0.625l0 1.25q-0.75 0.328125 -1.421875 0.46875q-0.65625 0.140625 -1.59375 0.140625zm-0.375 -8.437502q-1.125 0 -1.796875 0.7343769q-0.65625 0.71875 -0.765625 2.0l4.84375 0q0 -1.328125 -0.59375 -2.03125q-0.59375 -0.7031269 -1.6875 -0.7031269zm10.409195 -1.171875q0.625 0 1.109375 0.09375l-0.1875 1.3125q-0.578125 -0.140625 -1.015625 -0.140625q-1.125 0 -1.9375 0.9218769q-0.796875 0.90625 -0.796875 2.28125l0 4.96875l-1.40625 0l0 -9.265627l1.15625 0l0.171875 1.7031269l0.0625 0q0.515625 -0.9062519 1.234375 -1.3906269q0.734375 -0.484375 1.609375 -0.484375zm14.543396 6.140627q0 1.640625 -1.1875 2.5625q-1.1875 0.90625 -3.21875 0.90625q-2.203125 0 -3.390625 -0.5625l0 -1.390625q0.765625 0.3125 1.65625 0.5q0.90625 0.1875 1.78125 0.1875q1.4375 0 2.15625 -0.546875q0.734375 -0.546875 0.734375 -1.515625q0 -0.640625 -0.265625 -1.046875q-0.25 -0.421875 -0.859375 -0.765625q-0.59375 -0.34375 -1.828125 -0.78125q-1.734375 -0.625 -2.46875 -1.46875q-0.734375 -0.8437519 -0.734375 -2.203127q0 -1.4375 1.0625 -2.28125q1.078125 -0.84375 2.84375 -0.84375q1.84375 0 3.40625 0.671875l-0.453125 1.25q-1.53125 -0.640625 -2.984375 -0.640625q-1.140625 0 -1.78125 0.5q-0.640625 0.484375 -0.640625 1.359375q0 0.640625 0.234375 1.0625q0.234375 0.40625 0.796875 0.7500019q0.5625 0.328125 1.71875 0.75q1.953125 0.6875 2.6875 1.484375q0.734375 0.796875 0.734375 2.0625zm10.322662 -1.34375q0 2.265625 -1.15625 3.546875q-1.140625 1.265625 -3.15625 1.265625q-1.234375 0 -2.203125 -0.578125q-0.96875 -0.59375 -1.5 -1.6875q-0.515625 -1.09375 -0.515625 -2.546875q0 -2.265625 1.125 -3.531252q1.140625 -1.265625 3.15625 -1.265625q1.953125 0 3.09375 1.296875q1.15625 1.2812519 1.15625 3.500002zm-7.078125 0q0 1.765625 0.703125 2.703125q0.71875 0.9375 2.109375 0.9375q1.375 0 2.078125 -0.921875q0.71875 -0.9375 0.71875 -2.71875q0 -1.765625 -0.71875 -2.6875q-0.703125 -0.9218769 -2.09375 -0.9218769q-1.390625 0 -2.09375 0.9062519q-0.703125 0.90625 -0.703125 2.703125zm13.716263 -3.546877l-2.359375 0l0 8.187502l-1.40625 0l0 -8.187502l-1.65625 0l0 -0.625l1.65625 -0.515625l0 -0.515625q0 -3.421875 2.984375 -3.421875q0.734375 0 1.71875 0.296875l-0.359375 1.125q-0.8125 -0.25 -1.390625 -0.25q-0.796875 0 -1.171875 0.53125q-0.375 0.515625 -0.375 1.6875l0 0.609375l2.359375 0l0 1.078125zm4.684433 7.203127q0.375 0 0.71875 -0.046875q0.34375 -0.0625 0.546875 -0.125l0 1.078125q-0.21875 0.109375 -0.671875 0.171875q-0.4375 0.078125 -0.796875 0.078125q-2.6875 0 -2.6875 -2.84375l0 -5.515627l-1.328125 0l0 -0.671875l1.328125 -0.578125l0.59375 -1.984375l0.8125 0l0 2.15625l2.6875 0l0 1.078125l-2.6875 0l0 5.468752q0 0.828125 0.390625 1.28125q0.40625 0.453125 1.09375 0.453125zm10.695435 0.984375l-1.703125 -5.4375q-0.15625 -0.5 -0.59375 -2.265625l-0.078125 0q-0.328125 1.46875 -0.59375 2.28125l-1.75 5.421875l-1.625 0l-2.53125 -9.265627l1.484375 0q0.890625 3.484377 1.359375 5.312502q0.46875 1.828125 0.546875 2.46875l0.0625 0q0.09375 -0.484375 0.296875 -1.25q0.203125 -0.765625 0.359375 -1.21875l1.703125 -5.312502l1.515625 0l1.671875 5.312502q0.46875 1.453125 0.640625 2.453125l0.0625 0q0.03125 -0.3125 0.171875 -0.9375q0.15625 -0.640625 1.78125 -6.828127l1.453125 0l-2.5625 9.265627l-1.671875 0zm11.603378 0l-0.28125 -1.3125l-0.0625 0q-0.6875 0.859375 -1.390625 1.171875q-0.6875 0.3125 -1.71875 0.3125q-1.375 0 -2.15625 -0.703125q-0.78125 -0.71875 -0.78125 -2.03125q0 -2.8125 4.484375 -2.953125l1.578125 -0.046875l0 -0.578125q0 -1.078125 -0.46875 -1.59375q-0.46875 -0.5312519 -1.5 -0.5312519q-1.15625 0 -2.625 0.7031269l-0.421875 -1.0625019q0.671875 -0.375 1.484375 -0.578125q0.828125 -0.21875 1.640625 -0.21875q1.671875 0 2.46875 0.734375q0.796875 0.734375 0.796875 2.359377l0 6.328125l-1.046875 0zm-3.171875 -0.984375q1.3125 0 2.0625 -0.71875q0.75 -0.71875 0.75 -2.015625l0 -0.84375l-1.40625 0.0625q-1.671875 0.0625 -2.421875 0.53125q-0.734375 0.453125 -0.734375 1.421875q0 0.765625 0.453125 1.171875q0.46875 0.390625 1.296875 0.390625zm11.34021 -8.453127q0.625 0 1.109375 0.09375l-0.1875 1.3125q-0.578125 -0.140625 -1.015625 -0.140625q-1.125 0 -1.9375 0.9218769q-0.796875 0.90625 -0.796875 2.28125l0 4.96875l-1.40625 0l0 -9.265627l1.15625 0l0.171875 1.7031269l0.0625 0q0.515625 -0.9062519 1.234375 -1.3906269q0.734375 -0.484375 1.609375 -0.484375zm6.760895 9.609377q-2.0625 0 -3.25 -1.25q-1.1875 -1.25 -1.1875 -3.484375q0 -2.234375 1.109375 -3.546877q1.109375 -1.328125 2.96875 -1.328125q1.734375 0 2.75 1.140625q1.015625 1.1406269 1.015625 3.031252l0 0.890625l-6.390625 0q0.046875 1.625 0.828125 2.46875q0.78125 0.84375 2.203125 0.84375q1.5 0 2.96875 -0.625l0 1.25q-0.75 0.328125 -1.421875 0.46875q-0.65625 0.140625 -1.59375 0.140625zm-0.375 -8.437502q-1.125 0 -1.796875 0.7343769q-0.65625 0.71875 -0.765625 2.0l4.84375 0q0 -1.328125 -0.59375 -2.03125q-0.59375 -0.7031269 -1.6875 -0.7031269zm18.691696 3.625002q0 2.265625 -1.15625 3.546875q-1.140625 1.265625 -3.15625 1.265625q-1.234375 0 -2.203125 -0.578125q-0.96875 -0.59375 -1.5 -1.6875q-0.515625 -1.09375 -0.515625 -2.546875q0 -2.265625 1.125 -3.531252q1.140625 -1.265625 3.15625 -1.265625q1.953125 0 3.09375 1.296875q1.15625 1.2812519 1.15625 3.500002zm-7.078125 0q0 1.765625 0.703125 2.703125q0.71875 0.9375 2.109375 0.9375q1.375 0 2.078125 -0.921875q0.71875 -0.9375 0.71875 -2.71875q0 -1.765625 -0.71875 -2.6875q-0.703125 -0.9218769 -2.09375 -0.9218769q-1.390625 0 -2.09375 0.9062519q-0.703125 0.90625 -0.703125 2.703125zm15.872513 4.640625l0 -6.0q0 -1.125 -0.515625 -1.6875q-0.515625 -0.5625019 -1.609375 -0.5625019q-1.453125 0 -2.140625 0.7968769q-0.671875 0.78125 -0.671875 2.59375l0 4.859375l-1.40625 0l0 -9.265627l1.140625 0l0.234375 1.265625l0.0625 0q0.4375 -0.6875 1.21875 -1.0625q0.78125 -0.375 1.734375 -0.375q1.671875 0 2.515625 0.8125q0.84375 0.796875 0.84375 2.578127l0 6.046875l-1.40625 0zm5.697983 0l-1.40625 0l0 -13.171877l1.40625 0l0 13.171877zm4.3827972 0l-1.40625 0l0 -9.265627l1.40625 0l0 9.265627zm-1.515625 -11.781252q0 -0.484375 0.234375 -0.703125q0.234375 -0.234375 0.59375 -0.234375q0.328125 0 0.578125 0.234375q0.25 0.21875 0.25 0.703125q0 0.46875 -0.25 0.703125q-0.25 0.234375 -0.578125 0.234375q-0.359375 0 -0.59375 -0.234375q-0.234375 -0.234375 -0.234375 -0.703125zm10.835922 11.781252l0 -6.0q0 -1.125 -0.515625 -1.6875q-0.515625 -0.5625019 -1.609375 -0.5625019q-1.453125 0 -2.140625 0.7968769q-0.671875 0.78125 -0.671875 2.59375l0 4.859375l-1.40625 0l0 -9.265627l1.140625 0l0.234375 1.265625l0.0625 0q0.4375 -0.6875 1.21875 -1.0625q0.78125 -0.375 1.734375 -0.375q1.671875 0 2.515625 0.8125q0.84375 0.796875 0.84375 2.578127l0 6.046875l-1.40625 0zm8.213608 0.171875q-2.0625 0 -3.25 -1.25q-1.1875 -1.25 -1.1875 -3.484375q0 -2.234375 1.109375 -3.546877q1.109375 -1.328125 2.96875 -1.328125q1.734375 0 2.75 1.140625q1.015625 1.1406269 1.015625 3.031252l0 0.890625l-6.390625 0q0.046875 1.625 0.828125 2.46875q0.78125 0.84375 2.203125 0.84375q1.5 0 2.96875 -0.625l0 1.25q-0.75 0.328125 -1.421875 0.46875q-0.65625 0.140625 -1.59375 0.140625zm-0.375 -8.437502q-1.125 0 -1.796875 0.7343769q-0.65625 0.71875 -0.765625 2.0l4.84375 0q0 -1.328125 -0.59375 -2.03125q-0.59375 -0.7031269 -1.6875 -0.7031269z" fill-rule="nonzero"></path><path fill="#000000" d="m68.559105 60.798996l-0.28125 -1.3125l-0.0625 0q-0.6875 0.859375 -1.390625 1.171875q-0.6875 0.3125 -1.71875 0.3125q-1.3750038 0 -2.1562538 -0.703125q-0.78125 -0.71875 -0.78125 -2.03125q0 -2.8125 4.484379 -2.953125l1.578125 -0.046875l0 -0.578125q0 -1.078125 -0.46875 -1.59375q-0.46875 -0.53125 -1.5 -0.53125q-1.15625 0 -2.6250038 0.703125l-0.421875 -1.0625q0.671875 -0.375 1.4843788 -0.578125q0.828125 -0.21875 1.640625 -0.21875q1.671875 0 2.46875 0.734375q0.796875 0.734375 0.796875 2.359375l0 6.328125l-1.046875 0zm-3.171875 -0.984375q1.3125 0 2.0625 -0.71875q0.75 -0.71875 0.75 -2.015625l0 -0.84375l-1.40625 0.0625q-1.671875 0.0625 -2.421875 0.53125q-0.7343788 0.453125 -0.7343788 1.421875q0 0.765625 0.4531288 1.171875q0.46875 0.390625 1.296875 0.390625zm8.43396 -8.28125l0 6.015625q0 1.125 0.515625 1.6875q0.515625 0.5625 1.609375 0.5625q1.453125 0 2.125 -0.796875q0.671875 -0.796875 0.671875 -2.609375l0 -4.859375l1.40625 0l0 9.265625l-1.15625 0l-0.203125 -1.25l-0.078125 0q-0.421875 0.6875 -1.1875 1.0625q-0.765625 0.359375 -1.75 0.359375q-1.6875 0 -2.53125 -0.796875q-0.84375 -0.8125 -0.84375 -2.578125l0 -6.0625l1.421875 0zm13.494858 1.078125l-2.359375 0l0 8.1875l-1.40625 0l0 -8.1875l-1.65625 0l0 -0.625l1.65625 -0.515625l0 -0.515625q0 -3.421875 2.984375 -3.421875q0.734375 0 1.71875 0.296875l-0.359375 1.125q-0.8125 -0.25 -1.390625 -0.25q-0.796875 0 -1.171875 0.53125q-0.375 0.515625 -0.375 1.6875l0 0.609375l2.359375 0l0 1.078125zm18.01381 8.1875l0 -6.03125q0 -1.109375 -0.484375 -1.65625q-0.46875 -0.5625 -1.46875 -0.5625q-1.3125 0 -1.9375 0.75q-0.625 0.75 -0.625 2.328125l0 5.171875l-1.40625 0l0 -6.03125q0 -1.109375 -0.46875 -1.65625q-0.46875 -0.5625 -1.484375 -0.5625q-1.3125 0 -1.9375 0.796875q-0.609375 0.78125 -0.609375 2.59375l0 4.859375l-1.40625 0l0 -9.265625l1.140625 0l0.234375 1.265625l0.0625 0q0.40625 -0.6875 1.125 -1.0625q0.71875 -0.375 1.625 -0.375q2.171875 0 2.84375 1.5625l0.0625 0q0.421875 -0.71875 1.203125 -1.140625q0.78125 -0.421875 1.796875 -0.421875q1.5625 0 2.34375 0.8125q0.796875 0.796875 0.796875 2.578125l0 6.046875l-1.40625 0zm9.99321 0l-0.28125 -1.3125l-0.0625 0q-0.6875 0.859375 -1.390625 1.171875q-0.6875 0.3125 -1.71875 0.3125q-1.375 0 -2.15625 -0.703125q-0.78125 -0.71875 -0.78125 -2.03125q0 -2.8125 4.484375 -2.953125l1.578125 -0.046875l0 -0.578125q0 -1.078125 -0.46875 -1.59375q-0.46875 -0.53125 -1.5 -0.53125q-1.15625 0 -2.625 0.703125l-0.421875 -1.0625q0.671875 -0.375 1.484375 -0.578125q0.828125 -0.21875 1.640625 -0.21875q1.671875 0 2.46875 0.734375q0.796875 0.734375 0.796875 2.359375l0 6.328125l-1.046875 0zm-3.171875 -0.984375q1.3125 0 2.0625 -0.71875q0.75 -0.71875 0.75 -2.015625l0 -0.84375l-1.40625 0.0625q-1.671875 0.0625 -2.421875 0.53125q-0.734375 0.453125 -0.734375 1.421875q0 0.765625 0.453125 1.171875q0.46875 0.390625 1.296875 0.390625zm8.512085 0.984375l-1.40625 0l0 -9.265625l1.40625 0l0 9.265625zm-1.515625 -11.78125q0 -0.484375 0.234375 -0.703125q0.234375 -0.234375 0.59375 -0.234375q0.328125 0 0.578125 0.234375q0.25 0.21875 0.25 0.703125q0 0.46875 -0.25 0.703125q-0.25 0.234375 -0.578125 0.234375q-0.359375 0 -0.59375 -0.234375q-0.234375 -0.234375 -0.234375 -0.703125zm5.8984222 11.78125l-1.40625 0l0 -13.171875l1.40625 0l0 13.171875zm6.6796646 0.171875q-2.0 0 -3.109375 -1.234375q-1.1093674 -1.25 -1.1093674 -3.515625q0 -2.328125 1.1249924 -3.59375q1.125 -1.265625 3.1875 -1.265625q0.671875 0 1.34375 0.140625q0.671875 0.140625 1.046875 0.34375l-0.421875 1.1875q-0.46875 -0.1875 -1.03125 -0.3125q-0.546875 -0.125 -0.96875 -0.125q-2.828125 0 -2.828125 3.609375q0 1.703125 0.6875 2.625q0.703125 0.90625 2.046875 0.90625q1.171875 0 2.375 -0.5l0 1.25q-0.921875 0.484375 -2.34375 0.484375zm10.890106 -0.171875l0 -6.0q0 -1.125 -0.515625 -1.6875q-0.515625 -0.5625 -1.609375 -0.5625q-1.46875 0 -2.140625 0.796875q-0.671875 0.796875 -0.671875 2.609375l0 4.84375l-1.40625 0l0 -13.171875l1.40625 0l0 3.984375q0 0.71875 -0.0625 1.203125l0.078125 0q0.421875 -0.671875 1.1875 -1.046875q0.765625 -0.390625 1.75 -0.390625q1.6875 0 2.53125 0.8125q0.859375 0.796875 0.859375 2.5625l0 6.046875l-1.40625 0zm5.697998 0l-1.40625 0l0 -9.265625l1.40625 0l0 9.265625zm-1.515625 -11.78125q0 -0.484375 0.234375 -0.703125q0.234375 -0.234375 0.59375 -0.234375q0.328125 0 0.578125 0.234375q0.25 0.21875 0.25 0.703125q0 0.46875 -0.25 0.703125q-0.25 0.234375 -0.578125 0.234375q-0.359375 0 -0.59375 -0.234375q-0.234375 -0.234375 -0.234375 -0.703125zm16.320282 11.78125l0 -6.03125q0 -1.109375 -0.484375 -1.65625q-0.46875 -0.5625 -1.46875 -0.5625q-1.3125 0 -1.9375 0.75q-0.625 0.75 -0.625 2.328125l0 5.171875l-1.40625 0l0 -6.03125q0 -1.109375 -0.46875 -1.65625q-0.46875 -0.5625 -1.484375 -0.5625q-1.3125 0 -1.9375 0.796875q-0.609375 0.78125 -0.609375 2.59375l0 4.859375l-1.40625 0l0 -9.265625l1.140625 0l0.234375 1.265625l0.0625 0q0.40625 -0.6875 1.125 -1.0625q0.71875 -0.375 1.625 -0.375q2.171875 0 2.84375 1.5625l0.0625 0q0.421875 -0.71875 1.203125 -1.140625q0.78125 -0.421875 1.796875 -0.421875q1.5625 0 2.34375 0.8125q0.796875 0.796875 0.796875 2.578125l0 6.046875l-1.40625 0zm8.6026 0.171875q-0.890625 0 -1.640625 -0.328125q-0.75 -0.34375 -1.265625 -1.03125l-0.09375 0q0.09375 0.8125 0.09375 1.53125l0 3.8125l-1.40625 0l0 -13.421875l1.140625 0l0.203125 1.265625l0.0625 0q0.546875 -0.765625 1.265625 -1.09375q0.71875 -0.34375 1.640625 -0.34375q1.859375 0 2.859375 1.265625q1.0 1.25 1.0 3.53125q0 2.28125 -1.03125 3.546875q-1.015625 1.265625 -2.828125 1.265625zm-0.203125 -8.421875q-1.40625 0 -2.046875 0.796875q-0.640625 0.78125 -0.65625 2.5l0 0.3125q0 1.953125 0.65625 2.796875q0.65625 0.84375 2.09375 0.84375q1.203125 0 1.875 -0.96875q0.6875 -0.984375 0.6875 -2.6875q0 -1.734375 -0.6875 -2.65625q-0.671875 -0.9375 -1.921875 -0.9375zm6.306061 7.359375q0 -0.578125 0.25 -0.859375q0.265625 -0.296875 0.75 -0.296875q0.5 0 0.765625 0.296875q0.28125 0.28125 0.28125 0.859375q0 0.546875 -0.28125 0.84375q-0.28125 0.296875 -0.765625 0.296875q-0.421875 0 -0.71875 -0.265625q-0.28125 -0.265625 -0.28125 -0.875zm8.517487 1.0625q-2.0 0 -3.109375 -1.234375q-1.109375 -1.25 -1.109375 -3.515625q0 -2.328125 1.125 -3.59375q1.125 -1.265625 3.1875 -1.265625q0.671875 0 1.34375 0.140625q0.671875 0.140625 1.046875 0.34375l-0.421875 1.1875q-0.46875 -0.1875 -1.03125 -0.3125q-0.546875 -0.125 -0.96875 -0.125q-2.828125 0 -2.828125 3.609375q0 1.703125 0.6875 2.625q0.703125 0.90625 2.046875 0.90625q1.171875 0 2.375 -0.5l0 1.25q-0.921875 0.484375 -2.34375 0.484375zm12.561981 -4.8125q0 2.265625 -1.15625 3.546875q-1.140625 1.265625 -3.15625 1.265625q-1.234375 0 -2.203125 -0.578125q-0.96875 -0.59375 -1.5 -1.6875q-0.515625 -1.09375 -0.515625 -2.546875q0 -2.265625 1.125 -3.53125q1.140625 -1.265625 3.15625 -1.265625q1.953125 0 3.09375 1.296875q1.15625 1.28125 1.15625 3.5zm-7.078125 0q0 1.765625 0.703125 2.703125q0.71875 0.9375 2.109375 0.9375q1.375 0 2.078125 -0.921875q0.71875 -0.9375 0.71875 -2.71875q0 -1.765625 -0.71875 -2.6875q-0.703125 -0.921875 -2.09375 -0.921875q-1.390625 0 -2.09375 0.90625q-0.703125 0.90625 -0.703125 2.703125zm21.356903 4.640625l0 -6.03125q0 -1.109375 -0.484375 -1.65625q-0.46875 -0.5625 -1.46875 -0.5625q-1.3125 0 -1.9375 0.75q-0.625 0.75 -0.625 2.328125l0 5.171875l-1.40625 0l0 -6.03125q0 -1.109375 -0.46875 -1.65625q-0.46875 -0.5625 -1.484375 -0.5625q-1.3125 0 -1.9375 0.796875q-0.609375 0.78125 -0.609375 2.59375l0 4.859375l-1.40625 0l0 -9.265625l1.140625 0l0.234375 1.265625l0.0625 0q0.40625 -0.6875 1.125 -1.0625q0.71875 -0.375 1.625 -0.375q2.171875 0 2.84375 1.5625l0.0625 0q0.421875 -0.71875 1.203125 -1.140625q0.78125 -0.421875 1.796875 -0.421875q1.5625 0 2.34375 0.8125q0.796875 0.796875 0.796875 2.578125l0 6.046875l-1.40625 0z" fill-rule="nonzero"></path><path fill="#000000" fill-opacity="0.0" d="m138.6798 86.710175l0 72.755905" fill-rule="evenodd"></path><path stroke="#000000" stroke-width="1.0" stroke-linejoin="round" stroke-linecap="butt" d="m138.6798 86.710175l0 72.755905" fill-rule="evenodd"></path><path fill="#ffffff" fill-opacity="0.8932" d="m353.7133 163.98953l0 0c-2.4851685 -16.68097 5.6741333 -33.194107 21.015656 -42.532303c15.341522 -9.338188 35.174683 -9.863701 51.083527 -1.3535461l0 0c5.635376 -9.699005 15.949799 -16.3955 27.823334 -18.063927c11.873535 -1.6684189 23.91159 1.8871918 32.47287 9.5913315l0 0c4.800659 -8.793747 14.226776 -14.702019 24.933502 -15.62825c10.706726 -0.926239 21.178833 3.2606354 27.700256 11.074913l0 0c8.673035 -9.321342 22.472046 -13.246017 35.426147 -10.07579c12.954102 3.170227 22.736572 12.865952 25.114563 24.891777l0 0c10.625916 2.6473007 19.477112 9.37709 24.266724 18.450607c4.789551 9.073517 5.0476685 19.600677 0.70758057 28.861588l0 0c10.463501 12.438416 12.911133 29.012451 6.4296265 43.536972c-6.4815674 14.524521 -20.91858 24.817383 -37.9234 27.037476c-0.11981201 13.63179 -8.305054 26.140152 -21.400696 32.70381c-13.095642 6.5636597 -29.056824 6.157715 -41.731323 -1.0614014l0 0c-5.3986816 16.326416 -20.594147 28.339233 -39.021393 30.84848c-18.427246 2.5092468 -36.782837 -4.934906 -47.136475 -19.116333l0 0c-12.691406 6.9900513 -27.920013 9.003662 -42.25058 5.586609c-14.330566 -3.4170532 -26.55597 -11.97699 -33.918365 -23.74878l0 0c-12.968994 1.3861389 -25.50824 -4.751007 -31.394531 -15.365616c-5.8862915 -10.614609 -3.8665771 -23.447083 5.0567627 -32.128723l0 0c-11.568695 -6.219101 -17.47174 -18.559875 -14.630951 -30.587097c2.8408203 -12.027206 13.781738 -21.015442 27.117523 -22.277695z" fill-rule="evenodd"></path><path fill="#000000" fill-opacity="0.0" d="m340.97034 217.49724l0 0c5.4592896 2.9348145 11.766083 4.2661285 18.073517 3.815155m8.261414 43.680252c2.7124634 -0.289917 5.371155 -0.9038391 7.9075623 -1.8259583m68.2576 19.987366c-1.9077454 -2.6130676 -3.5050354 -5.4053345 -4.7645874 -8.329285m90.92575 -3.4033508l0 0c0.9842529 -2.9765625 1.6219482 -6.0400696 1.9024658 -9.139435m61.227173 -22.501831c0.12762451 -14.513138 -8.8974 -27.801514 -23.198547 -34.15738m54.692017 -36.415543c-2.315979 4.9420013 -5.8516846 9.3259735 -10.329773 12.808197m-14.642395 -60.12169l0 0c0.39465332 1.995697 0.5772705 4.0213776 0.5453491 6.0489807m-61.085022 -20.864357l0 0c-2.1635132 2.3252106 -3.9459229 4.923607 -5.291809 7.7142715m-47.342407 -3.1619568l0 0c-1.1529541 2.1119766 -2.013916 4.3468018 -2.5630188 6.6530075m-57.7341 1.8197632l0 0c3.3663025 1.8007431 6.480591 3.968132 9.274445 6.4545517m-81.37268 37.431534l0 0c0.3425293 2.2990723 0.883728 4.5697937 1.6185303 6.790924" fill-rule="evenodd"></path><path stroke="#000000" stroke-width="1.0" stroke-linejoin="round" stroke-linecap="butt" d="m353.7133 163.98953l0 0c-2.4851685 -16.68097 5.6741333 -33.194107 21.015656 -42.532303c15.341522 -9.338188 35.174683 -9.863701 51.083527 -1.3535461l0 0c5.635376 -9.699005 15.949799 -16.3955 27.823334 -18.063927c11.873535 -1.6684189 23.91159 1.8871918 32.47287 9.5913315l0 0c4.800659 -8.793747 14.226776 -14.702019 24.933502 -15.62825c10.706726 -0.926239 21.178833 3.2606354 27.700256 11.074913l0 0c8.673035 -9.321342 22.472046 -13.246017 35.426147 -10.07579c12.954102 3.170227 22.736572 12.865952 25.114563 24.891777l0 0c10.625916 2.6473007 19.477112 9.37709 24.266724 18.450607c4.789551 9.073517 5.0476685 19.600677 0.70758057 28.861588l0 0c10.463501 12.438416 12.911133 29.012451 6.4296265 43.536972c-6.4815674 14.524521 -20.91858 24.817383 -37.9234 27.037476c-0.11981201 13.63179 -8.305054 26.140152 -21.400696 32.70381c-13.095642 6.5636597 -29.056824 6.157715 -41.731323 -1.0614014l0 0c-5.3986816 16.326416 -20.594147 28.339233 -39.021393 30.84848c-18.427246 2.5092468 -36.782837 -4.934906 -47.136475 -19.116333l0 0c-12.691406 6.9900513 -27.920013 9.003662 -42.25058 5.586609c-14.330566 -3.4170532 -26.55597 -11.97699 -33.918365 -23.74878l0 0c-12.968994 1.3861389 -25.50824 -4.751007 -31.394531 -15.365616c-5.8862915 -10.614609 -3.8665771 -23.447083 5.0567627 -32.128723l0 0c-11.568695 -6.219101 -17.47174 -18.559875 -14.630951 -30.587097c2.8408203 -12.027206 13.781738 -21.015442 27.117523 -22.277695z" fill-rule="evenodd"></path><path stroke="#000000" stroke-width="1.0" stroke-linejoin="round" stroke-linecap="butt" d="m340.97034 217.49724l0 0c5.4592896 2.9348145 11.766083 4.2661285 18.073517 3.815155m8.261414 43.680252c2.7124634 -0.289917 5.371155 -0.9038391 7.9075623 -1.8259583m68.2576 19.987366c-1.9077454 -2.6130676 -3.5050354 -5.4053345 -4.7645874 -8.329285m90.92575 -3.4033508l0 0c0.9842529 -2.9765625 1.6219482 -6.0400696 1.9024658 -9.139435m61.227173 -22.501831c0.12762451 -14.513138 -8.8974 -27.801514 -23.198547 -34.15738m54.692017 -36.415543c-2.315979 4.9420013 -5.8516846 9.3259735 -10.329773 12.808197m-14.642395 -60.12169l0 0c0.39465332 1.995697 0.5772705 4.0213776 0.5453491 6.0489807m-61.085022 -20.864357l0 0c-2.1635132 2.3252106 -3.9459229 4.923607 -5.291809 7.7142715m-47.342407 -3.1619568l0 0c-1.1529541 2.1119766 -2.013916 4.3468018 -2.5630188 6.6530075m-57.7341 1.8197632l0 0c3.3663025 1.8007431 6.480591 3.968132 9.274445 6.4545517m-81.37268 37.431534l0 0c0.3425293 2.2990723 0.883728 4.5697937 1.6185303 6.790924" fill-rule="evenodd"></path><path fill="#000000" d="m427.90036 198.69699l-0.078125 0q-0.96875 1.421875 -2.90625 1.421875q-1.8125 0 -2.828125 -1.234375q-1.015625 -1.25 -1.015625 -3.546875q0 -2.296875 1.015625 -3.5625q1.015625 -1.265625 2.828125 -1.265625q1.890625 0 2.890625 1.359375l0.109375 0l-0.046875 -0.65625l-0.046875 -0.65625l0 -3.78125l1.40625 0l0 13.171875l-1.140625 0l-0.1875 -1.25zm-2.8125 0.25q1.453125 0 2.09375 -0.78125q0.640625 -0.796875 0.640625 -2.53125l0 -0.296875q0 -1.96875 -0.65625 -2.8125q-0.65625 -0.84375 -2.09375 -0.84375q-1.234375 0 -1.890625 0.96875q-0.65625 0.953125 -0.65625 2.703125q0 1.78125 0.65625 2.6875q0.65625 0.90625 1.90625 0.90625zm12.821686 1.0l-0.28125 -1.3125l-0.0625 0q-0.6875 0.859375 -1.390625 1.171875q-0.6875 0.3125 -1.71875 0.3125q-1.375 0 -2.15625 -0.703125q-0.78125 -0.71875 -0.78125 -2.03125q0 -2.8125 4.484375 -2.953125l1.578125 -0.046875l0 -0.578125q0 -1.078125 -0.46875 -1.59375q-0.46875 -0.53125 -1.5 -0.53125q-1.15625 0 -2.625 0.703125l-0.421875 -1.0625q0.671875 -0.375 1.484375 -0.578125q0.828125 -0.21875 1.640625 -0.21875q1.671875 0 2.46875 0.734375q0.796875 0.734375 0.796875 2.359375l0 6.328125l-1.046875 0zm-3.171875 -0.984375q1.3125 0 2.0625 -0.71875q0.75 -0.71875 0.75 -2.015625l0 -0.84375l-1.40625 0.0625q-1.671875 0.0625 -2.421875 0.53125q-0.734375 0.453125 -0.734375 1.421875q0 0.765625 0.453125 1.171875q0.46875 0.390625 1.296875 0.390625zm13.09021 -1.546875q0 1.296875 -0.96875 2.0q-0.953125 0.703125 -2.703125 0.703125q-1.84375 0 -2.875 -0.59375l0 -1.296875q0.671875 0.34375 1.4375 0.546875q0.765625 0.1875 1.46875 0.1875q1.109375 0 1.703125 -0.34375q0.59375 -0.359375 0.59375 -1.078125q0 -0.546875 -0.484375 -0.921875q-0.46875 -0.390625 -1.828125 -0.921875q-1.296875 -0.484375 -1.84375 -0.84375q-0.53125 -0.359375 -0.8125 -0.8125q-0.265625 -0.453125 -0.265625 -1.09375q0 -1.125 0.921875 -1.78125q0.921875 -0.65625 2.53125 -0.65625q1.5 0 2.9375 0.609375l-0.5 1.140625q-1.40625 -0.578125 -2.53125 -0.578125q-1.0 0 -1.515625 0.3125q-0.5 0.3125 -0.5 0.859375q0 0.375 0.1875 0.640625q0.1875 0.265625 0.609375 0.5q0.421875 0.234375 1.625 0.6875q1.65625 0.59375 2.234375 1.203125q0.578125 0.609375 0.578125 1.53125zm7.002014 2.53125l0 -12.375l1.4375 0l0 12.375l-1.4375 0zm10.956238 0l0 -6.0q0 -1.125 -0.515625 -1.6875q-0.515625 -0.5625 -1.609375 -0.5625q-1.453125 0 -2.140625 0.796875q-0.671875 0.78125 -0.671875 2.59375l0 4.859375l-1.40625 0l0 -9.265625l1.140625 0l0.234375 1.265625l0.0625 0q0.4375 -0.6875 1.21875 -1.0625q0.78125 -0.375 1.734375 -0.375q1.671875 0 2.515625 0.8125q0.84375 0.796875 0.84375 2.578125l0 6.046875l-1.40625 0zm7.291748 -0.984375q0.375 0 0.71875 -0.046875q0.34375 -0.0625 0.546875 -0.125l0 1.078125q-0.21875 0.109375 -0.671875 0.171875q-0.4375 0.078125 -0.796875 0.078125q-2.6875 0 -2.6875 -2.84375l0 -5.515625l-1.328125 0l0 -0.671875l1.328125 -0.578125l0.59375 -1.984375l0.8125 0l0 2.15625l2.6875 0l0 1.078125l-2.6875 0l0 5.46875q0 0.828125 0.390625 1.28125q0.40625 0.453125 1.09375 0.453125zm7.0391846 1.15625q-2.0625 0 -3.25 -1.25q-1.1875 -1.25 -1.1875 -3.484375q0 -2.234375 1.109375 -3.546875q1.109375 -1.328125 2.96875 -1.328125q1.734375 0 2.75 1.140625q1.015625 1.140625 1.015625 3.03125l0 0.890625l-6.390625 0q0.046875 1.625 0.828125 2.46875q0.78125 0.84375 2.203125 0.84375q1.5 0 2.96875 -0.625l0 1.25q-0.75 0.328125 -1.421875 0.46875q-0.65625 0.140625 -1.59375 0.140625zm-0.375 -8.4375q-1.125 0 -1.796875 0.734375q-0.65625 0.71875 -0.765625 2.0l4.84375 0q0 -1.328125 -0.59375 -2.03125q-0.59375 -0.703125 -1.6875 -0.703125zm10.40918 -1.171875q0.625 0 1.109375 0.09375l-0.1875 1.3125q-0.578125 -0.140625 -1.015625 -0.140625q-1.125 0 -1.9375 0.921875q-0.796875 0.90625 -0.796875 2.28125l0 4.96875l-1.40625 0l0 -9.265625l1.15625 0l0.171875 1.703125l0.0625 0q0.515625 -0.90625 1.234375 -1.390625q0.734375 -0.484375 1.609375 -0.484375zm9.18277 9.4375l0 -6.0q0 -1.125 -0.515625 -1.6875q-0.515625 -0.5625 -1.609375 -0.5625q-1.453125 0 -2.140625 0.796875q-0.671875 0.78125 -0.671875 2.59375l0 4.859375l-1.40625 0l0 -9.265625l1.140625 0l0.234375 1.265625l0.0625 0q0.4375 -0.6875 1.21875 -1.0625q0.78125 -0.375 1.734375 -0.375q1.671875 0 2.515625 0.8125q0.84375 0.796875 0.84375 2.578125l0 6.046875l-1.40625 0zm8.213623 0.171875q-2.0625 0 -3.25 -1.25q-1.1875 -1.25 -1.1875 -3.484375q0 -2.234375 1.109375 -3.546875q1.109375 -1.328125 2.96875 -1.328125q1.734375 0 2.75 1.140625q1.015625 1.140625 1.015625 3.03125l0 0.890625l-6.390625 0q0.046875 1.625 0.828125 2.46875q0.78125 0.84375 2.203125 0.84375q1.5 0 2.96875 -0.625l0 1.25q-0.75 0.328125 -1.421875 0.46875q-0.65625 0.140625 -1.59375 0.140625zm-0.375 -8.4375q-1.125 0 -1.796875 0.734375q-0.65625 0.71875 -0.765625 2.0l4.84375 0q0 -1.328125 -0.59375 -2.03125q-0.59375 -0.703125 -1.6875 -0.703125zm9.174835 7.28125q0.375 0 0.71875 -0.046875q0.34375 -0.0625 0.546875 -0.125l0 1.078125q-0.21875 0.109375 -0.671875 0.171875q-0.4375 0.078125 -0.796875 0.078125q-2.6875 0 -2.6875 -2.84375l0 -5.515625l-1.328125 0l0 -0.671875l1.328125 -0.578125l0.59375 -1.984375l0.8125 0l0 2.15625l2.6875 0l0 1.078125l-2.6875 0l0 5.46875q0 0.828125 0.390625 1.28125q0.40625 0.453125 1.09375 0.453125z" fill-rule="nonzero"></path><path fill="#000000" fill-opacity="0.0" d="m715.79266 1.6088457l247.46454 0l0 85.102356l-247.46454 0z" fill-rule="evenodd"></path><path stroke="#000000" stroke-width="1.0" stroke-linejoin="round" stroke-linecap="butt" d="m715.79266 1.6088457l247.46454 0l0 85.102356l-247.46454 0z" fill-rule="evenodd"></path><path fill="#000000" d="m771.1955 39.800026l-6.890625 0l0 -12.375l6.890625 0l0 1.28125l-5.453125 0l0 3.984375l5.125 0l0 1.265625l-5.125 0l0 4.5625l5.453125 0l0 1.28125zm1.74646 -4.0l0 -1.28125l4.15625 0l0 1.28125l-4.15625 0zm12.044556 4.0l-4.1875 -10.96875l-0.078125 0q0.125 1.3125 0.125 3.09375l0 7.875l-1.328125 0l0 -12.375l2.15625 0l3.921875 10.203125l0.078125 0l3.9375 -10.203125l2.15625 0l0 12.375l-1.4375 0l0 -7.96875q0 -1.375 0.109375 -2.984375l-0.0625 0l-4.234375 10.953125l-1.15625 0zm15.659973 0l-0.28125 -1.3125l-0.0625 0q-0.6875 0.859375 -1.390625 1.171875q-0.6875 0.3125 -1.71875 0.3125q-1.375 0 -2.15625 -0.703125q-0.78125 -0.71875 -0.78125 -2.03125q0 -2.8125 4.484375 -2.953125l1.578125 -0.046875l0 -0.578125q0 -1.078125 -0.46875 -1.59375q-0.46875 -0.53125 -1.5 -0.53125q-1.15625 0 -2.625 0.703125l-0.421875 -1.0625q0.671875 -0.375 1.484375 -0.578125q0.828125 -0.21875 1.640625 -0.21875q1.671875 0 2.46875 0.734375q0.796875 0.734375 0.796875 2.359375l0 6.328125l-1.046875 0zm-3.171875 -0.984375q1.3125 0 2.0625 -0.71875q0.75 -0.71875 0.75 -2.015625l0 -0.84375l-1.40625 0.0625q-1.671875 0.0625 -2.421875 0.53125q-0.734375 0.453125 -0.734375 1.421875q0 0.765625 0.453125 1.171875q0.46875 0.390625 1.296875 0.390625zm8.512085 0.984375l-1.40625 0l0 -9.265625l1.40625 0l0 9.265625zm-1.515625 -11.78125q0 -0.484375 0.234375 -0.703125q0.234375 -0.234375 0.59375 -0.234375q0.328125 0 0.578125 0.234375q0.25 0.21875 0.25 0.703125q0 0.46875 -0.25 0.703125q-0.25 0.234375 -0.578125 0.234375q-0.359375 0 -0.59375 -0.234375q-0.234375 -0.234375 -0.234375 -0.703125zm5.8984375 11.78125l-1.40625 0l0 -13.171875l1.40625 0l0 13.171875zm2.1953125 -4.0l0 -1.28125l4.15625 0l0 1.28125l-4.15625 0zm13.560181 0.703125q0 1.640625 -1.1875 2.5625q-1.1875 0.90625 -3.21875 0.90625q-2.203125 0 -3.390625 -0.5625l0 -1.390625q0.765625 0.3125 1.65625 0.5q0.90625 0.1875 1.78125 0.1875q1.4375 0 2.15625 -0.546875q0.734375 -0.546875 0.734375 -1.515625q0 -0.640625 -0.265625 -1.046875q-0.25 -0.421875 -0.859375 -0.765625q-0.59375 -0.34375 -1.828125 -0.78125q-1.734375 -0.625 -2.46875 -1.46875q-0.734375 -0.84375 -0.734375 -2.203125q0 -1.4375 1.0625 -2.28125q1.078125 -0.84375 2.84375 -0.84375q1.84375 0 3.40625 0.671875l-0.453125 1.25q-1.53125 -0.640625 -2.984375 -0.640625q-1.140625 0 -1.78125 0.5q-0.640625 0.484375 -0.640625 1.359375q0 0.640625 0.234375 1.0625q0.234375 0.40625 0.796875 0.75q0.5625 0.328125 1.71875 0.75q1.953125 0.6875 2.6875 1.484375q0.734375 0.796875 0.734375 2.0625zm6.228882 3.46875q-2.0625 0 -3.25 -1.25q-1.1875 -1.25 -1.1875 -3.484375q0 -2.234375 1.109375 -3.546875q1.109375 -1.328125 2.96875 -1.328125q1.734375 0 2.75 1.140625q1.015625 1.140625 1.015625 3.03125l0 0.890625l-6.390625 0q0.046875 1.625 0.828125 2.46875q0.78125 0.84375 2.203125 0.84375q1.5 0 2.96875 -0.625l0 1.25q-0.75 0.328125 -1.421875 0.46875q-0.65625 0.140625 -1.59375 0.140625zm-0.375 -8.4375q-1.125 0 -1.796875 0.734375q-0.65625 0.71875 -0.765625 2.0l4.84375 0q0 -1.328125 -0.59375 -2.03125q-0.59375 -0.703125 -1.6875 -0.703125zm10.409241 -1.171875q0.625 0 1.109375 0.09375l-0.1875 1.3125q-0.578125 -0.140625 -1.015625 -0.140625q-1.125 0 -1.9375 0.921875q-0.796875 0.90625 -0.796875 2.28125l0 4.96875l-1.40625 0l0 -9.265625l1.15625 0l0.171875 1.703125l0.0625 0q0.515625 -0.90625 1.234375 -1.390625q0.734375 -0.484375 1.609375 -0.484375zm4.8702393 9.4375l-3.515625 -9.265625l1.5 0l2.0 5.484375q0.6875 1.9375 0.796875 2.515625l0.0625 0q0.09375 -0.453125 0.59375 -1.859375q0.5 -1.40625 2.21875 -6.140625l1.515625 0l-3.53125 9.265625l-1.640625 0zm10.571594 0.171875q-2.0625 0 -3.25 -1.25q-1.1875 -1.25 -1.1875 -3.484375q0 -2.234375 1.109375 -3.546875q1.109375 -1.328125 2.96875 -1.328125q1.734375 0 2.75 1.140625q1.015625 1.140625 1.015625 3.03125l0 0.890625l-6.390625 0q0.046875 1.625 0.828125 2.46875q0.78125 0.84375 2.203125 0.84375q1.5 0 2.96875 -0.625l0 1.25q-0.75 0.328125 -1.421875 0.46875q-0.65625 0.140625 -1.59375 0.140625zm-0.375 -8.4375q-1.125 0 -1.796875 0.734375q-0.65625 0.71875 -0.765625 2.0l4.84375 0q0 -1.328125 -0.59375 -2.03125q-0.59375 -0.703125 -1.6875 -0.703125zm10.409241 -1.171875q0.625 0 1.109375 0.09375l-0.1875 1.3125q-0.578125 -0.140625 -1.015625 -0.140625q-1.125 0 -1.9375 0.921875q-0.796875 0.90625 -0.796875 2.28125l0 4.96875l-1.40625 0l0 -9.265625l1.15625 0l0.171875 1.703125l0.0625 0q0.515625 -0.90625 1.234375 -1.390625q0.734375 -0.484375 1.609375 -0.484375zm11.262146 9.609375q-2.0625 0 -3.25 -1.25q-1.1875 -1.25 -1.1875 -3.484375q0 -2.234375 1.109375 -3.546875q1.109375 -1.328125 2.96875 -1.328125q1.734375 0 2.75 1.140625q1.015625 1.140625 1.015625 3.03125l0 0.890625l-6.390625 0q0.046875 1.625 0.828125 2.46875q0.78125 0.84375 2.203125 0.84375q1.5 0 2.96875 -0.625l0 1.25q-0.75 0.328125 -1.421875 0.46875q-0.65625 0.140625 -1.59375 0.140625zm-0.375 -8.4375q-1.125 0 -1.796875 0.734375q-0.65625 0.71875 -0.765625 2.0l4.84375 0q0 -1.328125 -0.59375 -2.03125q-0.59375 -0.703125 -1.6875 -0.703125zm7.5810547 8.265625l-1.40625 0l0 -9.265625l1.40625 0l0 9.265625zm-1.515625 -11.78125q0 -0.484375 0.234375 -0.703125q0.234375 -0.234375 0.59375 -0.234375q0.328125 0 0.578125 0.234375q0.25 0.21875 0.25 0.703125q0 0.46875 -0.25 0.703125q-0.25 0.234375 -0.578125 0.234375q-0.359375 0 -0.59375 -0.234375q-0.234375 -0.234375 -0.234375 -0.703125zm10.8359375 11.78125l0 -6.0q0 -1.125 -0.515625 -1.6875q-0.515625 -0.5625 -1.609375 -0.5625q-1.453125 0 -2.140625 0.796875q-0.671875 0.78125 -0.671875 2.59375l0 4.859375l-1.40625 0l0 -9.265625l1.140625 0l0.234375 1.265625l0.0625 0q0.4375 -0.6875 1.21875 -1.0625q0.78125 -0.375 1.734375 -0.375q1.671875 0 2.515625 0.8125q0.84375 0.796875 0.84375 2.578125l0 6.046875l-1.40625 0zm8.213562 0.171875q-2.0625 0 -3.25 -1.25q-1.1875 -1.25 -1.1875 -3.484375q0 -2.234375 1.109375 -3.546875q1.109375 -1.328125 2.96875 -1.328125q1.734375 0 2.75 1.140625q1.015625 1.140625 1.015625 3.03125l0 0.890625l-6.390625 0q0.046875 1.625 0.828125 2.46875q0.78125 0.84375 2.203125 0.84375q1.5 0 2.96875 -0.625l0 1.25q-0.75 0.328125 -1.421875 0.46875q-0.65625 0.140625 -1.59375 0.140625zm-0.375 -8.4375q-1.125 0 -1.796875 0.734375q-0.65625 0.71875 -0.765625 2.0l4.84375 0q0 -1.328125 -0.59375 -2.03125q-0.59375 -0.703125 -1.6875 -0.703125zm12.159241 5.734375q0 1.296875 -0.96875 2.0q-0.953125 0.703125 -2.703125 0.703125q-1.84375 0 -2.875 -0.59375l0 -1.296875q0.671875 0.34375 1.4375 0.546875q0.765625 0.1875 1.46875 0.1875q1.109375 0 1.703125 -0.34375q0.59375 -0.359375 0.59375 -1.078125q0 -0.546875 -0.484375 -0.921875q-0.46875 -0.390625 -1.828125 -0.921875q-1.296875 -0.484375 -1.84375 -0.84375q-0.53125 -0.359375 -0.8125 -0.8125q-0.265625 -0.453125 -0.265625 -1.09375q0 -1.125 0.921875 -1.78125q0.921875 -0.65625 2.53125 -0.65625q1.5 0 2.9375 0.609375l-0.5 1.140625q-1.40625 -0.578125 -2.53125 -0.578125q-1.0 0 -1.515625 0.3125q-0.5 0.3125 -0.5 0.859375q0 0.375 0.1875 0.640625q0.1875 0.265625 0.609375 0.5q0.421875 0.234375 1.625 0.6875q1.65625 0.59375 2.234375 1.203125q0.578125 0.609375 0.578125 1.53125z" fill-rule="nonzero"></path><path fill="#000000" d="m755.72766 60.800026l-1.640625 0l-6.75 -10.375l-0.078125 0q0.140625 1.828125 0.140625 3.34375l0 7.03125l-1.328125 0l0 -12.375l1.625 0l6.734375 10.34375l0.078125 0q-0.015625 -0.234375 -0.078125 -1.46875q-0.0625 -1.234375 -0.046875 -1.765625l0 -7.109375l1.34375 0l0 12.375zm7.1106567 0.171875q-2.0625 0 -3.25 -1.25q-1.1875 -1.25 -1.1875 -3.484375q0 -2.234375 1.109375 -3.546875q1.109375 -1.328125 2.96875 -1.328125q1.734375 0 2.75 1.140625q1.015625 1.140625 1.015625 3.03125l0 0.890625l-6.390625 0q0.046875 1.625 0.828125 2.46875q0.78125 0.84375 2.203125 0.84375q1.5 0 2.96875 -0.625l0 1.25q-0.75 0.328125 -1.421875 0.46875q-0.65625 0.140625 -1.59375 0.140625zm-0.375 -8.4375q-1.125 0 -1.796875 0.734375q-0.65625 0.71875 -0.765625 2.0l4.84375 0q0 -1.328125 -0.59375 -2.03125q-0.59375 -0.703125 -1.6875 -0.703125zm13.75293 8.265625l-1.703125 -5.4375q-0.15625 -0.5 -0.59375 -2.265625l-0.078125 0q-0.328125 1.46875 -0.59375 2.28125l-1.75 5.421875l-1.625 0l-2.53125 -9.265625l1.484375 0q0.890625 3.484375 1.359375 5.3125q0.46875 1.828125 0.546875 2.46875l0.0625 0q0.09375 -0.484375 0.296875 -1.25q0.203125 -0.765625 0.359375 -1.21875l1.703125 -5.3125l1.515625 0l1.671875 5.3125q0.46875 1.453125 0.640625 2.453125l0.0625 0q0.03125 -0.3125 0.171875 -0.9375q0.15625 -0.640625 1.78125 -6.828125l1.453125 0l-2.5625 9.265625l-1.671875 0zm11.884644 -2.53125q0 1.296875 -0.96875 2.0q-0.953125 0.703125 -2.703125 0.703125q-1.84375 0 -2.875 -0.59375l0 -1.296875q0.671875 0.34375 1.4375 0.546875q0.765625 0.1875 1.46875 0.1875q1.109375 0 1.703125 -0.34375q0.59375 -0.359375 0.59375 -1.078125q0 -0.546875 -0.484375 -0.921875q-0.46875 -0.390625 -1.828125 -0.921875q-1.296875 -0.484375 -1.84375 -0.84375q-0.53125 -0.359375 -0.8125 -0.8125q-0.265625 -0.453125 -0.265625 -1.09375q0 -1.125 0.921875 -1.78125q0.921875 -0.65625 2.53125 -0.65625q1.5 0 2.9375 0.609375l-0.5 1.140625q-1.40625 -0.578125 -2.53125 -0.578125q-1.0 0 -1.515625 0.3125q-0.5 0.3125 -0.5 0.859375q0 0.375 0.1875 0.640625q0.1875 0.265625 0.609375 0.5q0.421875 0.234375 1.625 0.6875q1.65625 0.59375 2.234375 1.203125q0.578125 0.609375 0.578125 1.53125zm3.6882324 2.53125l-1.40625 0l0 -13.171875l1.40625 0l0 13.171875zm6.8984375 0.171875q-2.0625 0 -3.25 -1.25q-1.1875 -1.25 -1.1875 -3.484375q0 -2.234375 1.109375 -3.546875q1.109375 -1.328125 2.96875 -1.328125q1.734375 0 2.75 1.140625q1.015625 1.140625 1.015625 3.03125l0 0.890625l-6.390625 0q0.046875 1.625 0.828125 2.46875q0.78125 0.84375 2.203125 0.84375q1.5 0 2.96875 -0.625l0 1.25q-0.75 0.328125 -1.421875 0.46875q-0.65625 0.140625 -1.59375 0.140625zm-0.375 -8.4375q-1.125 0 -1.796875 0.734375q-0.65625 0.71875 -0.765625 2.0l4.84375 0q0 -1.328125 -0.59375 -2.03125q-0.59375 -0.703125 -1.6875 -0.703125zm9.174805 7.28125q0.375 0 0.71875 -0.046875q0.34375 -0.0625 0.546875 -0.125l0 1.078125q-0.21875 0.109375 -0.671875 0.171875q-0.4375 0.078125 -0.796875 0.078125q-2.6875 0 -2.6875 -2.84375l0 -5.515625l-1.328125 0l0 -0.671875l1.328125 -0.578125l0.59375 -1.984375l0.8125 0l0 2.15625l2.6875 0l0 1.078125l-2.6875 0l0 5.46875q0 0.828125 0.390625 1.28125q0.40625 0.453125 1.09375 0.453125zm6.1173096 0q0.375 0 0.71875 -0.046875q0.34375 -0.0625 0.546875 -0.125l0 1.078125q-0.21875 0.109375 -0.671875 0.171875q-0.4375 0.078125 -0.796875 0.078125q-2.6875 0 -2.6875 -2.84375l0 -5.515625l-1.328125 0l0 -0.671875l1.328125 -0.578125l0.59375 -1.984375l0.8125 0l0 2.15625l2.6875 0l0 1.078125l-2.6875 0l0 5.46875q0 0.828125 0.390625 1.28125q0.40625 0.453125 1.09375 0.453125zm7.0391846 1.15625q-2.0625 0 -3.25 -1.25q-1.1875 -1.25 -1.1875 -3.484375q0 -2.234375 1.109375 -3.546875q1.109375 -1.328125 2.96875 -1.328125q1.734375 0 2.75 1.140625q1.015625 1.140625 1.015625 3.03125l0 0.890625l-6.390625 0q0.046875 1.625 0.828125 2.46875q0.78125 0.84375 2.203125 0.84375q1.5 0 2.96875 -0.625l0 1.25q-0.75 0.328125 -1.421875 0.46875q-0.65625 0.140625 -1.59375 0.140625zm-0.375 -8.4375q-1.125 0 -1.796875 0.734375q-0.65625 0.71875 -0.765625 2.0l4.84375 0q0 -1.328125 -0.59375 -2.03125q-0.59375 -0.703125 -1.6875 -0.703125zm10.409241 -1.171875q0.625 0 1.109375 0.09375l-0.1875 1.3125q-0.578125 -0.140625 -1.015625 -0.140625q-1.125 0 -1.9375 0.921875q-0.796875 0.90625 -0.796875 2.28125l0 4.96875l-1.40625 0l0 -9.265625l1.15625 0l0.171875 1.703125l0.0625 0q0.515625 -0.90625 1.234375 -1.390625q0.734375 -0.484375 1.609375 -0.484375zm2.0577393 5.4375l0 -1.28125l4.15625 0l0 1.28125l-4.15625 0zm13.466431 4.0l-6.890625 0l0 -12.375l6.890625 0l0 1.28125l-5.453125 0l0 3.984375l5.125 0l0 1.265625l-5.125 0l0 4.5625l5.453125 0l0 1.28125zm14.355835 0l0 -6.03125q0 -1.109375 -0.484375 -1.65625q-0.46875 -0.5625 -1.46875 -0.5625q-1.3125 0 -1.9375 0.75q-0.625 0.75 -0.625 2.328125l0 5.171875l-1.40625 0l0 -6.03125q0 -1.109375 -0.46875 -1.65625q-0.46875 -0.5625 -1.484375 -0.5625q-1.3125 0 -1.9375 0.796875q-0.609375 0.78125 -0.609375 2.59375l0 4.859375l-1.40625 0l0 -9.265625l1.140625 0l0.234375 1.265625l0.0625 0q0.40625 -0.6875 1.125 -1.0625q0.71875 -0.375 1.625 -0.375q2.171875 0 2.84375 1.5625l0.0625 0q0.421875 -0.71875 1.203125 -1.140625q0.78125 -0.421875 1.796875 -0.421875q1.5625 0 2.34375 0.8125q0.796875 0.796875 0.796875 2.578125l0 6.046875l-1.40625 0zm8.6026 0.171875q-0.890625 0 -1.640625 -0.328125q-0.75 -0.34375 -1.265625 -1.03125l-0.09375 0q0.09375 0.8125 0.09375 1.53125l0 3.8125l-1.40625 0l0 -13.421875l1.140625 0l0.203125 1.265625l0.0625 0q0.546875 -0.765625 1.265625 -1.09375q0.71875 -0.34375 1.640625 -0.34375q1.859375 0 2.859375 1.265625q1.0 1.25 1.0 3.53125q0 2.28125 -1.03125 3.546875q-1.015625 1.265625 -2.828125 1.265625zm-0.203125 -8.421875q-1.40625 0 -2.046875 0.796875q-0.640625 0.78125 -0.65625 2.5l0 0.3125q0 1.953125 0.65625 2.796875q0.65625 0.84375 2.09375 0.84375q1.203125 0 1.875 -0.96875q0.6875 -0.984375 0.6875 -2.6875q0 -1.734375 -0.6875 -2.65625q-0.671875 -0.9375 -1.921875 -0.9375zm10.696655 0.0625l-2.359375 0l0 8.1875l-1.40625 0l0 -8.1875l-1.65625 0l0 -0.625l1.65625 -0.515625l0 -0.515625q0 -3.421875 2.984375 -3.421875q0.734375 0 1.71875 0.296875l-0.359375 1.125q-0.8125 -0.25 -1.390625 -0.25q-0.796875 0 -1.171875 0.53125q-0.375 0.515625 -0.375 1.6875l0 0.609375l2.359375 0l0 1.078125zm7.3875732 8.1875l-0.28125 -1.3125l-0.0625 0q-0.6875 0.859375 -1.390625 1.171875q-0.6875 0.3125 -1.71875 0.3125q-1.375 0 -2.15625 -0.703125q-0.78125 -0.71875 -0.78125 -2.03125q0 -2.8125 4.484375 -2.953125l1.578125 -0.046875l0 -0.578125q0 -1.078125 -0.46875 -1.59375q-0.46875 -0.53125 -1.5 -0.53125q-1.15625 0 -2.625 0.703125l-0.421875 -1.0625q0.671875 -0.375 1.484375 -0.578125q0.828125 -0.21875 1.640625 -0.21875q1.671875 0 2.46875 0.734375q0.796875 0.734375 0.796875 2.359375l0 6.328125l-1.046875 0zm-3.171875 -0.984375q1.3125 0 2.0625 -0.71875q0.75 -0.71875 0.75 -2.015625l0 -0.84375l-1.40625 0.0625q-1.671875 0.0625 -2.421875 0.53125q-0.734375 0.453125 -0.734375 1.421875q0 0.765625 0.453125 1.171875q0.46875 0.390625 1.296875 0.390625zm-1.65625 -10.796875q0 -0.4375 0.21875 -0.625q0.234375 -0.203125 0.546875 -0.203125q0.328125 0 0.546875 0.203125q0.234375 0.1875 0.234375 0.625q0 0.421875 -0.234375 0.625q-0.21875 0.203125 -0.546875 0.203125q-0.3125 0 -0.546875 -0.203125q-0.21875 -0.203125 -0.21875 -0.625zm3.234375 0q0 -0.4375 0.21875 -0.625q0.21875 -0.203125 0.53125 -0.203125q0.3125 0 0.546875 0.203125q0.234375 0.1875 0.234375 0.625q0 0.421875 -0.234375 0.625q-0.234375 0.203125 -0.546875 0.203125q-0.3125 0 -0.53125 -0.203125q-0.21875 -0.203125 -0.21875 -0.625zm11.87146 11.78125l0 -6.0q0 -1.125 -0.515625 -1.6875q-0.515625 -0.5625 -1.609375 -0.5625q-1.453125 0 -2.140625 0.796875q-0.671875 0.78125 -0.671875 2.59375l0 4.859375l-1.40625 0l0 -9.265625l1.140625 0l0.234375 1.265625l0.0625 0q0.4375 -0.6875 1.21875 -1.0625q0.78125 -0.375 1.734375 -0.375q1.671875 0 2.515625 0.8125q0.84375 0.796875 0.84375 2.578125l0 6.046875l-1.40625 0zm11.885498 -9.265625l0 0.875l-1.71875 0.203125q0.234375 0.296875 0.421875 0.78125q0.1875 0.484375 0.1875 1.078125q0 1.359375 -0.9375 2.171875q-0.921875 0.8125 -2.546875 0.8125q-0.421875 0 -0.78125 -0.0625q-0.890625 0.46875 -0.890625 1.1875q0 0.375 0.3125 0.5625q0.3125 0.1875 1.078125 0.1875l1.640625 0q1.5 0 2.296875 0.640625q0.8125 0.625 0.8125 1.828125q0 1.546875 -1.234375 2.34375q-1.234375 0.8125 -3.59375 0.8125q-1.828125 0 -2.8125 -0.671875q-0.984375 -0.671875 -0.984375 -1.90625q0 -0.84375 0.53125 -1.46875q0.546875 -0.609375 1.53125 -0.84375q-0.34375 -0.15625 -0.59375 -0.484375q-0.234375 -0.34375 -0.234375 -0.796875q0 -0.5 0.265625 -0.875q0.265625 -0.390625 0.859375 -0.75q-0.71875 -0.296875 -1.171875 -1.0q-0.453125 -0.71875 -0.453125 -1.625q0 -1.53125 0.90625 -2.34375q0.921875 -0.828125 2.59375 -0.828125q0.71875 0 1.3125 0.171875l3.203125 0zm-7.390625 10.828125q0 0.75 0.625 1.140625q0.640625 0.390625 1.828125 0.390625q1.765625 0 2.609375 -0.53125q0.859375 -0.53125 0.859375 -1.4375q0 -0.75 -0.46875 -1.046875q-0.46875 -0.296875 -1.75 -0.296875l-1.6875 0q-0.953125 0 -1.484375 0.453125q-0.53125 0.46875 -0.53125 1.328125zm0.75 -7.859375q0 0.96875 0.546875 1.46875q0.5625 0.5 1.546875 0.5q2.046875 0 2.046875 -2.0q0 -2.09375 -2.078125 -2.09375q-0.984375 0 -1.53125 0.53125q-0.53125 0.53125 -0.53125 1.59375zm12.461975 6.46875q-2.0625 0 -3.25 -1.25q-1.1875 -1.25 -1.1875 -3.484375q0 -2.234375 1.109375 -3.546875q1.109375 -1.328125 2.96875 -1.328125q1.734375 0 2.75 1.140625q1.015625 1.140625 1.015625 3.03125l0 0.890625l-6.390625 0q0.046875 1.625 0.828125 2.46875q0.78125 0.84375 2.203125 0.84375q1.5 0 2.96875 -0.625l0 1.25q-0.75 0.328125 -1.421875 0.46875q-0.65625 0.140625 -1.59375 0.140625zm-0.375 -8.4375q-1.125 0 -1.796875 0.734375q-0.65625 0.71875 -0.765625 2.0l4.84375 0q0 -1.328125 -0.59375 -2.03125q-0.59375 -0.703125 -1.6875 -0.703125zm10.40918 -1.171875q0.625 0 1.109375 0.09375l-0.1875 1.3125q-0.578125 -0.140625 -1.015625 -0.140625q-1.125 0 -1.9375 0.921875q-0.796875 0.90625 -0.796875 2.28125l0 4.96875l-1.40625 0l0 -9.265625l1.15625 0l0.171875 1.703125l0.0625 0q0.515625 -0.90625 1.234375 -1.390625q0.734375 -0.484375 1.609375 -0.484375zm8.823425 6.90625q0 1.296875 -0.96875 2.0q-0.953125 0.703125 -2.703125 0.703125q-1.84375 0 -2.875 -0.59375l0 -1.296875q0.671875 0.34375 1.4375 0.546875q0.765625 0.1875 1.46875 0.1875q1.109375 0 1.703125 -0.34375q0.59375 -0.359375 0.59375 -1.078125q0 -0.546875 -0.484375 -0.921875q-0.46875 -0.390625 -1.828125 -0.921875q-1.296875 -0.484375 -1.84375 -0.84375q-0.53125 -0.359375 -0.8125 -0.8125q-0.265625 -0.453125 -0.265625 -1.09375q0 -1.125 0.921875 -1.78125q0.921875 -0.65625 2.53125 -0.65625q1.5 0 2.9375 0.609375l-0.5 1.140625q-1.40625 -0.578125 -2.53125 -0.578125q-1.0 0 -1.515625 0.3125q-0.5 0.3125 -0.5 0.859375q0 0.375 0.1875 0.640625q0.1875 0.265625 0.609375 0.5q0.421875 0.234375 1.625 0.6875q1.65625 0.59375 2.234375 1.203125q0.578125 0.609375 0.578125 1.53125z" fill-rule="nonzero"></path><path fill="#000000" fill-opacity="0.0" d="m356.26773 332.4015l247.46457 0l0 85.102356l-247.46457 0z" fill-rule="evenodd"></path><path stroke="#000000" stroke-width="1.0" stroke-linejoin="round" stroke-linecap="butt" d="m356.26773 332.4015l247.46457 0l0 85.102356l-247.46457 0z" fill-rule="evenodd"></path><path fill="#000000" d="m394.3551 360.09268l-6.890625 0l0 -12.375l6.890625 0l0 1.28125l-5.453125 0l0 3.984375l5.125 0l0 1.265625l-5.125 0l0 4.5625l5.453125 0l0 1.28125zm1.74646 -4.0l0 -1.28125l4.15625 0l0 1.28125l-4.15625 0zm12.044556 4.0l-4.1875 -10.96875l-0.078125 0q0.125 1.3125 0.125 3.09375l0 7.875l-1.328125 0l0 -12.375l2.15625 0l3.921875 10.203125l0.078125 0l3.9375 -10.203125l2.15625 0l0 12.375l-1.4375 0l0 -7.96875q0 -1.375 0.109375 -2.984375l-0.0625 0l-4.234375 10.953125l-1.15625 0zm15.660004 0l-0.28125 -1.3125l-0.0625 0q-0.6875 0.859375 -1.390625 1.171875q-0.6875 0.3125 -1.71875 0.3125q-1.375 0 -2.15625 -0.703125q-0.78125 -0.71875 -0.78125 -2.03125q0 -2.8125 4.484375 -2.953125l1.578125 -0.046875l0 -0.578125q0 -1.078125 -0.46875 -1.59375q-0.46875 -0.53125 -1.5 -0.53125q-1.15625 0 -2.625 0.703125l-0.421875 -1.0625q0.671875 -0.375 1.484375 -0.578125q0.828125 -0.21875 1.640625 -0.21875q1.671875 0 2.46875 0.734375q0.796875 0.734375 0.796875 2.359375l0 6.328125l-1.046875 0zm-3.171875 -0.984375q1.3125 0 2.0625 -0.71875q0.75 -0.71875 0.75 -2.015625l0 -0.84375l-1.40625 0.0625q-1.671875 0.0625 -2.421875 0.53125q-0.734375 0.453125 -0.734375 1.421875q0 0.765625 0.453125 1.171875q0.46875 0.390625 1.296875 0.390625zm8.512085 0.984375l-1.40625 0l0 -9.265625l1.40625 0l0 9.265625zm-1.515625 -11.78125q0 -0.484375 0.234375 -0.703125q0.234375 -0.234375 0.59375 -0.234375q0.328125 0 0.578125 0.234375q0.25 0.21875 0.25 0.703125q0 0.46875 -0.25 0.703125q-0.25 0.234375 -0.578125 0.234375q-0.359375 0 -0.59375 -0.234375q-0.234375 -0.234375 -0.234375 -0.703125zm5.8984375 11.78125l-1.40625 0l0 -13.171875l1.40625 0l0 13.171875zm2.195282 -4.0l0 -1.28125l4.15625 0l0 1.28125l-4.15625 0zm14.419556 -4.765625q0 1.875 -1.28125 2.890625q-1.28125 1.015625 -3.671875 1.015625l-1.453125 0l0 4.859375l-1.4375 0l0 -12.375l3.203125 0q4.640625 0 4.640625 3.609375zm-6.40625 2.671875l1.296875 0q1.90625 0 2.765625 -0.609375q0.859375 -0.625 0.859375 -2.0q0 -1.21875 -0.8125 -1.8125q-0.796875 -0.609375 -2.5 -0.609375l-1.609375 0l0 5.03125zm13.010559 -3.34375q0.625 0 1.109375 0.09375l-0.1875 1.3125q-0.578125 -0.140625 -1.015625 -0.140625q-1.125 0 -1.9375 0.921875q-0.796875 0.90625 -0.796875 2.28125l0 4.96875l-1.40625 0l0 -9.265625l1.15625 0l0.171875 1.703125l0.0625 0q0.515625 -0.90625 1.234375 -1.390625q0.734375 -0.484375 1.609375 -0.484375zm10.854645 4.796875q0 2.265625 -1.15625 3.546875q-1.140625 1.265625 -3.15625 1.265625q-1.234375 0 -2.203125 -0.578125q-0.96875 -0.59375 -1.5 -1.6875q-0.515625 -1.09375 -0.515625 -2.546875q0 -2.265625 1.125 -3.53125q1.140625 -1.265625 3.15625 -1.265625q1.953125 0 3.09375 1.296875q1.15625 1.28125 1.15625 3.5zm-7.078125 0q0 1.765625 0.703125 2.703125q0.71875 0.9375 2.109375 0.9375q1.375 0 2.078125 -0.921875q0.71875 -0.9375 0.71875 -2.71875q0 -1.765625 -0.71875 -2.6875q-0.703125 -0.921875 -2.09375 -0.921875q-1.390625 0 -2.09375 0.90625q-0.703125 0.90625 -0.703125 2.703125zm17.122498 -4.625l0 0.875l-1.71875 0.203125q0.234375 0.296875 0.421875 0.78125q0.1875 0.484375 0.1875 1.078125q0 1.359375 -0.9375 2.171875q-0.921875 0.8125 -2.546875 0.8125q-0.421875 0 -0.78125 -0.0625q-0.890625 0.46875 -0.890625 1.1875q0 0.375 0.3125 0.5625q0.3125 0.1875 1.078125 0.1875l1.640625 0q1.5 0 2.296875 0.640625q0.8125 0.625 0.8125 1.828125q0 1.546875 -1.234375 2.34375q-1.234375 0.8125 -3.59375 0.8125q-1.828125 0 -2.8125 -0.671875q-0.984375 -0.671875 -0.984375 -1.90625q0 -0.84375 0.53125 -1.46875q0.546875 -0.609375 1.53125 -0.84375q-0.34375 -0.15625 -0.59375 -0.484375q-0.234375 -0.34375 -0.234375 -0.796875q0 -0.5 0.265625 -0.875q0.265625 -0.390625 0.859375 -0.75q-0.71875 -0.296875 -1.171875 -1.0q-0.453125 -0.71875 -0.453125 -1.625q0 -1.53125 0.90625 -2.34375q0.921875 -0.828125 2.59375 -0.828125q0.71875 0 1.3125 0.171875l3.203125 0zm-7.390625 10.828125q0 0.75 0.625 1.140625q0.640625 0.390625 1.828125 0.390625q1.765625 0 2.609375 -0.53125q0.859375 -0.53125 0.859375 -1.4375q0 -0.75 -0.46875 -1.046875q-0.46875 -0.296875 -1.75 -0.296875l-1.6875 0q-0.953125 0 -1.484375 0.453125q-0.53125 0.46875 -0.53125 1.328125zm0.75 -7.859375q0 0.96875 0.546875 1.46875q0.5625 0.5 1.546875 0.5q2.046875 0 2.046875 -2.0q0 -2.09375 -2.078125 -2.09375q-0.984375 0 -1.53125 0.53125q-0.53125 0.53125 -0.53125 1.59375zm12.774506 -3.140625q0.625 0 1.109375 0.09375l-0.1875 1.3125q-0.578125 -0.140625 -1.015625 -0.140625q-1.125 0 -1.9375 0.921875q-0.796875 0.90625 -0.796875 2.28125l0 4.96875l-1.40625 0l0 -9.265625l1.15625 0l0.171875 1.703125l0.0625 0q0.515625 -0.90625 1.234375 -1.390625q0.734375 -0.484375 1.609375 -0.484375zm8.542145 9.4375l-0.28125 -1.3125l-0.0625 0q-0.6875 0.859375 -1.390625 1.171875q-0.6875 0.3125 -1.71875 0.3125q-1.375 0 -2.15625 -0.703125q-0.78125 -0.71875 -0.78125 -2.03125q0 -2.8125 4.484375 -2.953125l1.578125 -0.046875l0 -0.578125q0 -1.078125 -0.46875 -1.59375q-0.46875 -0.53125 -1.5 -0.53125q-1.15625 0 -2.625 0.703125l-0.421875 -1.0625q0.671875 -0.375 1.484375 -0.578125q0.828125 -0.21875 1.640625 -0.21875q1.671875 0 2.46875 0.734375q0.796875 0.734375 0.796875 2.359375l0 6.328125l-1.046875 0zm-3.171875 -0.984375q1.3125 0 2.0625 -0.71875q0.75 -0.71875 0.75 -2.015625l0 -0.84375l-1.40625 0.0625q-1.671875 0.0625 -2.421875 0.53125q-0.734375 0.453125 -0.734375 1.421875q0 0.765625 0.453125 1.171875q0.46875 0.390625 1.296875 0.390625zm18.93396 0.984375l0 -6.03125q0 -1.109375 -0.484375 -1.65625q-0.46875 -0.5625 -1.46875 -0.5625q-1.3125 0 -1.9375 0.75q-0.625 0.75 -0.625 2.328125l0 5.171875l-1.40625 0l0 -6.03125q0 -1.109375 -0.46875 -1.65625q-0.46875 -0.5625 -1.484375 -0.5625q-1.3125 0 -1.9375 0.796875q-0.609375 0.78125 -0.609375 2.59375l0 4.859375l-1.40625 0l0 -9.265625l1.140625 0l0.234375 1.265625l0.0625 0q0.40625 -0.6875 1.125 -1.0625q0.71875 -0.375 1.625 -0.375q2.171875 0 2.84375 1.5625l0.0625 0q0.421875 -0.71875 1.203125 -1.140625q0.78125 -0.421875 1.796875 -0.421875q1.5625 0 2.34375 0.8125q0.796875 0.796875 0.796875 2.578125l0 6.046875l-1.40625 0zm16.118195 0l0 -6.03125q0 -1.109375 -0.484375 -1.65625q-0.46875 -0.5625 -1.46875 -0.5625q-1.3125 0 -1.9375 0.75q-0.625 0.75 -0.625 2.328125l0 5.171875l-1.40625 0l0 -6.03125q0 -1.109375 -0.46875 -1.65625q-0.46875 -0.5625 -1.484375 -0.5625q-1.3125 0 -1.9375 0.796875q-0.609375 0.78125 -0.609375 2.59375l0 4.859375l-1.40625 0l0 -9.265625l1.140625 0l0.234375 1.265625l0.0625 0q0.40625 -0.6875 1.125 -1.0625q0.71875 -0.375 1.625 -0.375q2.171875 0 2.84375 1.5625l0.0625 0q0.421875 -0.71875 1.203125 -1.140625q0.78125 -0.421875 1.796875 -0.421875q1.5625 0 2.34375 0.8125q0.796875 0.796875 0.796875 2.578125l0 6.046875l-1.40625 0zm12.713196 0.171875q-2.0625 0 -3.25 -1.25q-1.1875 -1.25 -1.1875 -3.484375q0 -2.234375 1.109375 -3.546875q1.109375 -1.328125 2.96875 -1.328125q1.734375 0 2.75 1.140625q1.015625 1.140625 1.015625 3.03125l0 0.890625l-6.390625 0q0.046875 1.625 0.828125 2.46875q0.78125 0.84375 2.203125 0.84375q1.5 0 2.96875 -0.625l0 1.25q-0.75 0.328125 -1.421875 0.46875q-0.65625 0.140625 -1.59375 0.140625zm-0.375 -8.4375q-1.125 0 -1.796875 0.734375q-0.65625 0.71875 -0.765625 2.0l4.84375 0q0 -1.328125 -0.59375 -2.03125q-0.59375 -0.703125 -1.6875 -0.703125zm7.5811157 8.265625l-1.40625 0l0 -9.265625l1.40625 0l0 9.265625zm-1.515625 -11.78125q0 -0.484375 0.234375 -0.703125q0.234375 -0.234375 0.59375 -0.234375q0.328125 0 0.578125 0.234375q0.25 0.21875 0.25 0.703125q0 0.46875 -0.25 0.703125q-0.25 0.234375 -0.578125 0.234375q-0.359375 0 -0.59375 -0.234375q-0.234375 -0.234375 -0.234375 -0.703125zm10.835876 11.78125l0 -6.0q0 -1.125 -0.515625 -1.6875q-0.515625 -0.5625 -1.609375 -0.5625q-1.453125 0 -2.140625 0.796875q-0.671875 0.78125 -0.671875 2.59375l0 4.859375l-1.40625 0l0 -9.265625l1.140625 0l0.234375 1.265625l0.0625 0q0.4375 -0.6875 1.21875 -1.0625q0.78125 -0.375 1.734375 -0.375q1.671875 0 2.515625 0.8125q0.84375 0.796875 0.84375 2.578125l0 6.046875l-1.40625 0zm8.213623 0.171875q-2.0625 0 -3.25 -1.25q-1.1875 -1.25 -1.1875 -3.484375q0 -2.234375 1.109375 -3.546875q1.109375 -1.328125 2.96875 -1.328125q1.734375 0 2.75 1.140625q1.015625 1.140625 1.015625 3.03125l0 0.890625l-6.390625 0q0.046875 1.625 0.828125 2.46875q0.78125 0.84375 2.203125 0.84375q1.5 0 2.96875 -0.625l0 1.25q-0.75 0.328125 -1.421875 0.46875q-0.65625 0.140625 -1.59375 0.140625zm-0.375 -8.4375q-1.125 0 -1.796875 0.734375q-0.65625 0.71875 -0.765625 2.0l4.84375 0q0 -1.328125 -0.59375 -2.03125q-0.59375 -0.703125 -1.6875 -0.703125zm12.15918 5.734375q0 1.296875 -0.96875 2.0q-0.953125 0.703125 -2.703125 0.703125q-1.84375 0 -2.875 -0.59375l0 -1.296875q0.671875 0.34375 1.4375 0.546875q0.765625 0.1875 1.46875 0.1875q1.109375 0 1.703125 -0.34375q0.59375 -0.359375 0.59375 -1.078125q0 -0.546875 -0.484375 -0.921875q-0.46875 -0.390625 -1.828125 -0.921875q-1.296875 -0.484375 -1.84375 -0.84375q-0.53125 -0.359375 -0.8125 -0.8125q-0.265625 -0.453125 -0.265625 -1.09375q0 -1.125 0.921875 -1.78125q0.921875 -0.65625 2.53125 -0.65625q1.5 0 2.9375 0.609375l-0.5 1.140625q-1.40625 -0.578125 -2.53125 -0.578125q-1.0 0 -1.515625 0.3125q-0.5 0.3125 -0.5 0.859375q0 0.375 0.1875 0.640625q0.1875 0.265625 0.609375 0.5q0.421875 0.234375 1.625 0.6875q1.65625 0.59375 2.234375 1.203125q0.578125 0.609375 0.578125 1.53125z" fill-rule="nonzero"></path><path fill="#000000" d="m380.6429 381.09268l-1.640625 0l-6.75 -10.375l-0.078125 0q0.140625 1.828125 0.140625 3.34375l0 7.03125l-1.328125 0l0 -12.375l1.625 0l6.734375 10.34375l0.078125 0q-0.015625 -0.234375 -0.078125 -1.46875q-0.0625 -1.234375 -0.046875 -1.765625l0 -7.109375l1.34375 0l0 12.375zm7.1106567 0.171875q-2.0625 0 -3.25 -1.25q-1.1875 -1.25 -1.1875 -3.484375q0 -2.234375 1.109375 -3.546875q1.109375 -1.328125 2.96875 -1.328125q1.734375 0 2.75 1.140625q1.015625 1.140625 1.015625 3.03125l0 0.890625l-6.390625 0q0.046875 1.625 0.828125 2.46875q0.78125 0.84375 2.203125 0.84375q1.5 0 2.96875 -0.625l0 1.25q-0.75 0.328125 -1.421875 0.46875q-0.65625 0.140625 -1.59375 0.140625zm-0.375 -8.4375q-1.125 0 -1.796875 0.734375q-0.65625 0.71875 -0.765625 2.0l4.84375 0q0 -1.328125 -0.59375 -2.03125q-0.59375 -0.703125 -1.6875 -0.703125zm13.75296 8.265625l-1.703125 -5.4375q-0.15625 -0.5 -0.59375 -2.265625l-0.078125 0q-0.328125 1.46875 -0.59375 2.28125l-1.75 5.421875l-1.625 0l-2.53125 -9.265625l1.484375 0q0.890625 3.484375 1.359375 5.3125q0.46875 1.828125 0.546875 2.46875l0.0625 0q0.09375 -0.484375 0.296875 -1.25q0.203125 -0.765625 0.359375 -1.21875l1.703125 -5.3125l1.515625 0l1.671875 5.3125q0.46875 1.453125 0.640625 2.453125l0.0625 0q0.03125 -0.3125 0.171875 -0.9375q0.15625 -0.640625 1.78125 -6.828125l1.453125 0l-2.5625 9.265625l-1.671875 0zm11.884613 -2.53125q0 1.296875 -0.96875 2.0q-0.953125 0.703125 -2.703125 0.703125q-1.84375 0 -2.875 -0.59375l0 -1.296875q0.671875 0.34375 1.4375 0.546875q0.765625 0.1875 1.46875 0.1875q1.109375 0 1.703125 -0.34375q0.59375 -0.359375 0.59375 -1.078125q0 -0.546875 -0.484375 -0.921875q-0.46875 -0.390625 -1.828125 -0.921875q-1.296875 -0.484375 -1.84375 -0.84375q-0.53125 -0.359375 -0.8125 -0.8125q-0.265625 -0.453125 -0.265625 -1.09375q0 -1.125 0.921875 -1.78125q0.921875 -0.65625 2.53125 -0.65625q1.5 0 2.9375 0.609375l-0.5 1.140625q-1.40625 -0.578125 -2.53125 -0.578125q-1.0 0 -1.515625 0.3125q-0.5 0.3125 -0.5 0.859375q0 0.375 0.1875 0.640625q0.1875 0.265625 0.609375 0.5q0.421875 0.234375 1.625 0.6875q1.65625 0.59375 2.234375 1.203125q0.578125 0.609375 0.578125 1.53125zm3.6882935 2.53125l-1.40625 0l0 -13.171875l1.40625 0l0 13.171875zm6.898407 0.171875q-2.0625 0 -3.25 -1.25q-1.1875 -1.25 -1.1875 -3.484375q0 -2.234375 1.109375 -3.546875q1.109375 -1.328125 2.96875 -1.328125q1.734375 0 2.75 1.140625q1.015625 1.140625 1.015625 3.03125l0 0.890625l-6.390625 0q0.046875 1.625 0.828125 2.46875q0.78125 0.84375 2.203125 0.84375q1.5 0 2.96875 -0.625l0 1.25q-0.75 0.328125 -1.421875 0.46875q-0.65625 0.140625 -1.59375 0.140625zm-0.375 -8.4375q-1.125 0 -1.796875 0.734375q-0.65625 0.71875 -0.765625 2.0l4.84375 0q0 -1.328125 -0.59375 -2.03125q-0.59375 -0.703125 -1.6875 -0.703125zm9.174835 7.28125q0.375 0 0.71875 -0.046875q0.34375 -0.0625 0.546875 -0.125l0 1.078125q-0.21875 0.109375 -0.671875 0.171875q-0.4375 0.078125 -0.796875 0.078125q-2.6875 0 -2.6875 -2.84375l0 -5.515625l-1.328125 0l0 -0.671875l1.328125 -0.578125l0.59375 -1.984375l0.8125 0l0 2.15625l2.6875 0l0 1.078125l-2.6875 0l0 5.46875q0 0.828125 0.390625 1.28125q0.40625 0.453125 1.09375 0.453125zm6.1173096 0q0.375 0 0.71875 -0.046875q0.34375 -0.0625 0.546875 -0.125l0 1.078125q-0.21875 0.109375 -0.671875 0.171875q-0.4375 0.078125 -0.796875 0.078125q-2.6875 0 -2.6875 -2.84375l0 -5.515625l-1.328125 0l0 -0.671875l1.328125 -0.578125l0.59375 -1.984375l0.8125 0l0 2.15625l2.6875 0l0 1.078125l-2.6875 0l0 5.46875q0 0.828125 0.390625 1.28125q0.40625 0.453125 1.09375 0.453125zm7.0391846 1.15625q-2.0625 0 -3.25 -1.25q-1.1875 -1.25 -1.1875 -3.484375q0 -2.234375 1.109375 -3.546875q1.109375 -1.328125 2.96875 -1.328125q1.734375 0 2.75 1.140625q1.015625 1.140625 1.015625 3.03125l0 0.890625l-6.390625 0q0.046875 1.625 0.828125 2.46875q0.78125 0.84375 2.203125 0.84375q1.5 0 2.96875 -0.625l0 1.25q-0.75 0.328125 -1.421875 0.46875q-0.65625 0.140625 -1.59375 0.140625zm-0.375 -8.4375q-1.125 0 -1.796875 0.734375q-0.65625 0.71875 -0.765625 2.0l4.84375 0q0 -1.328125 -0.59375 -2.03125q-0.59375 -0.703125 -1.6875 -0.703125zm10.40918 -1.171875q0.625 0 1.109375 0.09375l-0.1875 1.3125q-0.578125 -0.140625 -1.015625 -0.140625q-1.125 0 -1.9375 0.921875q-0.796875 0.90625 -0.796875 2.28125l0 4.96875l-1.40625 0l0 -9.265625l1.15625 0l0.171875 1.703125l0.0625 0q0.515625 -0.90625 1.234375 -1.390625q0.734375 -0.484375 1.609375 -0.484375zm2.0577698 5.4375l0 -1.28125l4.15625 0l0 1.28125l-4.15625 0zm13.466431 4.0l-6.890625 0l0 -12.375l6.890625 0l0 1.28125l-5.453125 0l0 3.984375l5.125 0l0 1.265625l-5.125 0l0 4.5625l5.453125 0l0 1.28125zm14.355835 0l0 -6.03125q0 -1.109375 -0.484375 -1.65625q-0.46875 -0.5625 -1.46875 -0.5625q-1.3125 0 -1.9375 0.75q-0.625 0.75 -0.625 2.328125l0 5.171875l-1.40625 0l0 -6.03125q0 -1.109375 -0.46875 -1.65625q-0.46875 -0.5625 -1.484375 -0.5625q-1.3125 0 -1.9375 0.796875q-0.609375 0.78125 -0.609375 2.59375l0 4.859375l-1.40625 0l0 -9.265625l1.140625 0l0.234375 1.265625l0.0625 0q0.40625 -0.6875 1.125 -1.0625q0.71875 -0.375 1.625 -0.375q2.171875 0 2.84375 1.5625l0.0625 0q0.421875 -0.71875 1.203125 -1.140625q0.78125 -0.421875 1.796875 -0.421875q1.5625 0 2.34375 0.8125q0.796875 0.796875 0.796875 2.578125l0 6.046875l-1.40625 0zm8.6026 0.171875q-0.890625 0 -1.640625 -0.328125q-0.75 -0.34375 -1.265625 -1.03125l-0.09375 0q0.09375 0.8125 0.09375 1.53125l0 3.8125l-1.40625 0l0 -13.421875l1.140625 0l0.203125 1.265625l0.0625 0q0.546875 -0.765625 1.265625 -1.09375q0.71875 -0.34375 1.640625 -0.34375q1.859375 0 2.859375 1.265625q1.0 1.25 1.0 3.53125q0 2.28125 -1.03125 3.546875q-1.015625 1.265625 -2.828125 1.265625zm-0.203125 -8.421875q-1.40625 0 -2.046875 0.796875q-0.640625 0.78125 -0.65625 2.5l0 0.3125q0 1.953125 0.65625 2.796875q0.65625 0.84375 2.09375 0.84375q1.203125 0 1.875 -0.96875q0.6875 -0.984375 0.6875 -2.6875q0 -1.734375 -0.6875 -2.65625q-0.671875 -0.9375 -1.921875 -0.9375zm10.696686 0.0625l-2.359375 0l0 8.1875l-1.40625 0l0 -8.1875l-1.65625 0l0 -0.625l1.65625 -0.515625l0 -0.515625q0 -3.421875 2.984375 -3.421875q0.734375 0 1.71875 0.296875l-0.359375 1.125q-0.8125 -0.25 -1.390625 -0.25q-0.796875 0 -1.171875 0.53125q-0.375 0.515625 -0.375 1.6875l0 0.609375l2.359375 0l0 1.078125zm7.3875427 8.1875l-0.28125 -1.3125l-0.0625 0q-0.6875 0.859375 -1.390625 1.171875q-0.6875 0.3125 -1.71875 0.3125q-1.375 0 -2.15625 -0.703125q-0.78125 -0.71875 -0.78125 -2.03125q0 -2.8125 4.484375 -2.953125l1.578125 -0.046875l0 -0.578125q0 -1.078125 -0.46875 -1.59375q-0.46875 -0.53125 -1.5 -0.53125q-1.15625 0 -2.625 0.703125l-0.421875 -1.0625q0.671875 -0.375 1.484375 -0.578125q0.828125 -0.21875 1.640625 -0.21875q1.671875 0 2.46875 0.734375q0.796875 0.734375 0.796875 2.359375l0 6.328125l-1.046875 0zm-3.171875 -0.984375q1.3125 0 2.0625 -0.71875q0.75 -0.71875 0.75 -2.015625l0 -0.84375l-1.40625 0.0625q-1.671875 0.0625 -2.421875 0.53125q-0.734375 0.453125 -0.734375 1.421875q0 0.765625 0.453125 1.171875q0.46875 0.390625 1.296875 0.390625zm-1.65625 -10.796875q0 -0.4375 0.21875 -0.625q0.234375 -0.203125 0.546875 -0.203125q0.328125 0 0.546875 0.203125q0.234375 0.1875 0.234375 0.625q0 0.421875 -0.234375 0.625q-0.21875 0.203125 -0.546875 0.203125q-0.3125 0 -0.546875 -0.203125q-0.21875 -0.203125 -0.21875 -0.625zm3.234375 0q0 -0.4375 0.21875 -0.625q0.21875 -0.203125 0.53125 -0.203125q0.3125 0 0.546875 0.203125q0.234375 0.1875 0.234375 0.625q0 0.421875 -0.234375 0.625q-0.234375 0.203125 -0.546875 0.203125q-0.3125 0 -0.53125 -0.203125q-0.21875 -0.203125 -0.21875 -0.625zm11.87146 11.78125l0 -6.0q0 -1.125 -0.515625 -1.6875q-0.515625 -0.5625 -1.609375 -0.5625q-1.453125 0 -2.140625 0.796875q-0.671875 0.78125 -0.671875 2.59375l0 4.859375l-1.40625 0l0 -9.265625l1.140625 0l0.234375 1.265625l0.0625 0q0.4375 -0.6875 1.21875 -1.0625q0.78125 -0.375 1.734375 -0.375q1.671875 0 2.515625 0.8125q0.84375 0.796875 0.84375 2.578125l0 6.046875l-1.40625 0zm11.885498 -9.265625l0 0.875l-1.71875 0.203125q0.234375 0.296875 0.421875 0.78125q0.1875 0.484375 0.1875 1.078125q0 1.359375 -0.9375 2.171875q-0.921875 0.8125 -2.546875 0.8125q-0.421875 0 -0.78125 -0.0625q-0.890625 0.46875 -0.890625 1.1875q0 0.375 0.3125 0.5625q0.3125 0.1875 1.078125 0.1875l1.640625 0q1.5 0 2.296875 0.640625q0.8125 0.625 0.8125 1.828125q0 1.546875 -1.234375 2.34375q-1.234375 0.8125 -3.59375 0.8125q-1.828125 0 -2.8125 -0.671875q-0.984375 -0.671875 -0.984375 -1.90625q0 -0.84375 0.53125 -1.46875q0.546875 -0.609375 1.53125 -0.84375q-0.34375 -0.15625 -0.59375 -0.484375q-0.234375 -0.34375 -0.234375 -0.796875q0 -0.5 0.265625 -0.875q0.265625 -0.390625 0.859375 -0.75q-0.71875 -0.296875 -1.171875 -1.0q-0.453125 -0.71875 -0.453125 -1.625q0 -1.53125 0.90625 -2.34375q0.921875 -0.828125 2.59375 -0.828125q0.71875 0 1.3125 0.171875l3.203125 0zm-7.390625 10.828125q0 0.75 0.625 1.140625q0.640625 0.390625 1.828125 0.390625q1.765625 0 2.609375 -0.53125q0.859375 -0.53125 0.859375 -1.4375q0 -0.75 -0.46875 -1.046875q-0.46875 -0.296875 -1.75 -0.296875l-1.6875 0q-0.953125 0 -1.484375 0.453125q-0.53125 0.46875 -0.53125 1.328125zm0.75 -7.859375q0 0.96875 0.546875 1.46875q0.5625 0.5 1.546875 0.5q2.046875 0 2.046875 -2.0q0 -2.09375 -2.078125 -2.09375q-0.984375 0 -1.53125 0.53125q-0.53125 0.53125 -0.53125 1.59375zm12.461975 6.46875q-2.0625 0 -3.25 -1.25q-1.1875 -1.25 -1.1875 -3.484375q0 -2.234375 1.109375 -3.546875q1.109375 -1.328125 2.96875 -1.328125q1.734375 0 2.75 1.140625q1.015625 1.140625 1.015625 3.03125l0 0.890625l-6.390625 0q0.046875 1.625 0.828125 2.46875q0.78125 0.84375 2.203125 0.84375q1.5 0 2.96875 -0.625l0 1.25q-0.75 0.328125 -1.421875 0.46875q-0.65625 0.140625 -1.59375 0.140625zm-0.375 -8.4375q-1.125 0 -1.796875 0.734375q-0.65625 0.71875 -0.765625 2.0l4.84375 0q0 -1.328125 -0.59375 -2.03125q-0.59375 -0.703125 -1.6875 -0.703125zm10.40918 -1.171875q0.625 0 1.109375 0.09375l-0.1875 1.3125q-0.578125 -0.140625 -1.015625 -0.140625q-1.125 0 -1.9375 0.921875q-0.796875 0.90625 -0.796875 2.28125l0 4.96875l-1.40625 0l0 -9.265625l1.15625 0l0.171875 1.703125l0.0625 0q0.515625 -0.90625 1.234375 -1.390625q0.734375 -0.484375 1.609375 -0.484375zm8.823425 6.90625q0 1.296875 -0.96875 2.0q-0.953125 0.703125 -2.703125 0.703125q-1.84375 0 -2.875 -0.59375l0 -1.296875q0.671875 0.34375 1.4375 0.546875q0.765625 0.1875 1.46875 0.1875q1.109375 0 1.703125 -0.34375q0.59375 -0.359375 0.59375 -1.078125q0 -0.546875 -0.484375 -0.921875q-0.46875 -0.390625 -1.828125 -0.921875q-1.296875 -0.484375 -1.84375 -0.84375q-0.53125 -0.359375 -0.8125 -0.8125q-0.265625 -0.453125 -0.265625 -1.09375q0 -1.125 0.921875 -1.78125q0.921875 -0.65625 2.53125 -0.65625q1.5 0 2.9375 0.609375l-0.5 1.140625q-1.40625 -0.578125 -2.53125 -0.578125q-1.0 0 -1.515625 0.3125q-0.5 0.3125 -0.5 0.859375q0 0.375 0.1875 0.640625q0.1875 0.265625 0.609375 0.5q0.421875 0.234375 1.625 0.6875q1.65625 0.59375 2.234375 1.203125q0.578125 0.609375 0.578125 1.53125zm18.61139 2.53125l0 -6.03125q0 -1.109375 -0.484375 -1.65625q-0.46875 -0.5625 -1.46875 -0.5625q-1.3125 0 -1.9375 0.75q-0.625 0.75 -0.625 2.328125l0 5.171875l-1.40625 0l0 -6.03125q0 -1.109375 -0.46875 -1.65625q-0.46875 -0.5625 -1.484375 -0.5625q-1.3125 0 -1.9375 0.796875q-0.609375 0.78125 -0.609375 2.59375l0 4.859375l-1.40625 0l0 -9.265625l1.140625 0l0.234375 1.265625l0.0625 0q0.40625 -0.6875 1.125 -1.0625q0.71875 -0.375 1.625 -0.375q2.171875 0 2.84375 1.5625l0.0625 0q0.421875 -0.71875 1.203125 -1.140625q0.78125 -0.421875 1.796875 -0.421875q1.5625 0 2.34375 0.8125q0.796875 0.796875 0.796875 2.578125l0 6.046875l-1.40625 0zm5.69635 0l-1.40625 0l0 -9.265625l1.40625 0l0 9.265625zm-1.515625 -11.78125q0 -0.484375 0.234375 -0.703125q0.234375 -0.234375 0.59375 -0.234375q0.328125 0 0.578125 0.234375q0.25 0.21875 0.25 0.703125q0 0.46875 -0.25 0.703125q-0.25 0.234375 -0.578125 0.234375q-0.359375 0 -0.59375 -0.234375q-0.234375 -0.234375 -0.234375 -0.703125zm7.4921875 10.796875q0.375 0 0.71875 -0.046875q0.34375 -0.0625 0.546875 -0.125l0 1.078125q-0.21875 0.109375 -0.671875 0.171875q-0.4375 0.078125 -0.796875 0.078125q-2.6875 0 -2.6875 -2.84375l0 -5.515625l-1.328125 0l0 -0.671875l1.328125 -0.578125l0.59375 -1.984375l0.8125 0l0 2.15625l2.6875 0l0 1.078125l-2.6875 0l0 5.46875q0 0.828125 0.390625 1.28125q0.40625 0.453125 1.09375 0.453125z" fill-rule="nonzero"></path><path fill="#000000" d="m376.412 400.84268l-0.078125 0q-0.96875 1.421875 -2.90625 1.421875q-1.8125 0 -2.828125 -1.234375q-1.015625 -1.25 -1.015625 -3.546875q0 -2.296875 1.015625 -3.5625q1.015625 -1.265625 2.828125 -1.265625q1.890625 0 2.890625 1.359375l0.109375 0l-0.046875 -0.65625l-0.046875 -0.65625l0 -3.78125l1.40625 0l0 13.171875l-1.140625 0l-0.1875 -1.25zm-2.8125 0.25q1.453125 0 2.09375 -0.78125q0.640625 -0.796875 0.640625 -2.53125l0 -0.296875q0 -1.96875 -0.65625 -2.8125q-0.65625 -0.84375 -2.09375 -0.84375q-1.234375 0 -1.890625 0.96875q-0.65625 0.953125 -0.65625 2.703125q0 1.78125 0.65625 2.6875q0.65625 0.90625 1.90625 0.90625zm11.040436 1.171875q-2.0625 0 -3.25 -1.25q-1.1875 -1.25 -1.1875 -3.484375q0 -2.234375 1.109375 -3.546875q1.109375 -1.328125 2.96875 -1.328125q1.734375 0 2.75 1.140625q1.015625 1.140625 1.015625 3.03125l0 0.890625l-6.390625 0q0.046875 1.625 0.828125 2.46875q0.78125 0.84375 2.203125 0.84375q1.5 0 2.96875 -0.625l0 1.25q-0.75 0.328125 -1.421875 0.46875q-0.65625 0.140625 -1.59375 0.140625zm-0.375 -8.4375q-1.125 0 -1.796875 0.734375q-0.65625 0.71875 -0.765625 2.0l4.84375 0q0 -1.328125 -0.59375 -2.03125q-0.59375 -0.703125 -1.6875 -0.703125zm18.00296 8.265625l0 -6.03125q0 -1.109375 -0.484375 -1.65625q-0.46875 -0.5625 -1.46875 -0.5625q-1.3125 0 -1.9375 0.75q-0.625 0.75 -0.625 2.328125l0 5.171875l-1.40625 0l0 -6.03125q0 -1.109375 -0.46875 -1.65625q-0.46875 -0.5625 -1.484375 -0.5625q-1.3125 0 -1.9375 0.796875q-0.609375 0.78125 -0.609375 2.59375l0 4.859375l-1.40625 0l0 -9.265625l1.140625 0l0.234375 1.265625l0.0625 0q0.40625 -0.6875 1.125 -1.0625q0.71875 -0.375 1.625 -0.375q2.171875 0 2.84375 1.5625l0.0625 0q0.421875 -0.71875 1.203125 -1.140625q0.78125 -0.421875 1.796875 -0.421875q1.5625 0 2.34375 0.8125q0.796875 0.796875 0.796875 2.578125l0 6.046875l-1.40625 0zm12.713196 0.171875q-2.0625 0 -3.25 -1.25q-1.1875 -1.25 -1.1875 -3.484375q0 -2.234375 1.109375 -3.546875q1.109375 -1.328125 2.96875 -1.328125q1.734375 0 2.75 1.140625q1.015625 1.140625 1.015625 3.03125l0 0.890625l-6.390625 0q0.046875 1.625 0.828125 2.46875q0.78125 0.84375 2.203125 0.84375q1.5 0 2.96875 -0.625l0 1.25q-0.75 0.328125 -1.421875 0.46875q-0.65625 0.140625 -1.59375 0.140625zm-0.375 -8.4375q-1.125 0 -1.796875 0.734375q-0.65625 0.71875 -0.765625 2.0l4.84375 0q0 -1.328125 -0.59375 -2.03125q-0.59375 -0.703125 -1.6875 -0.703125zm10.40921 -1.171875q0.625 0 1.109375 0.09375l-0.1875 1.3125q-0.578125 -0.140625 -1.015625 -0.140625q-1.125 0 -1.9375 0.921875q-0.796875 0.90625 -0.796875 2.28125l0 4.96875l-1.40625 0l0 -9.265625l1.15625 0l0.171875 1.703125l0.0625 0q0.515625 -0.90625 1.234375 -1.390625q0.734375 -0.484375 1.609375 -0.484375zm13.652771 8.1875l-0.078125 0q-0.96875 1.421875 -2.90625 1.421875q-1.8125 0 -2.828125 -1.234375q-1.015625 -1.25 -1.015625 -3.546875q0 -2.296875 1.015625 -3.5625q1.015625 -1.265625 2.828125 -1.265625q1.890625 0 2.890625 1.359375l0.109375 0l-0.046875 -0.65625l-0.046875 -0.65625l0 -3.78125l1.40625 0l0 13.171875l-1.140625 0l-0.1875 -1.25zm-2.8125 0.25q1.453125 0 2.09375 -0.78125q0.640625 -0.796875 0.640625 -2.53125l0 -0.296875q0 -1.96875 -0.65625 -2.8125q-0.65625 -0.84375 -2.09375 -0.84375q-1.234375 0 -1.890625 0.96875q-0.65625 0.953125 -0.65625 2.703125q0 1.78125 0.65625 2.6875q0.65625 0.90625 1.90625 0.90625zm11.040436 1.171875q-2.0625 0 -3.25 -1.25q-1.1875 -1.25 -1.1875 -3.484375q0 -2.234375 1.109375 -3.546875q1.109375 -1.328125 2.96875 -1.328125q1.734375 0 2.75 1.140625q1.015625 1.140625 1.015625 3.03125l0 0.890625l-6.390625 0q0.046875 1.625 0.828125 2.46875q0.78125 0.84375 2.203125 0.84375q1.5 0 2.96875 -0.625l0 1.25q-0.75 0.328125 -1.421875 0.46875q-0.65625 0.140625 -1.59375 0.140625zm-0.375 -8.4375q-1.125 0 -1.796875 0.734375q-0.65625 0.71875 -0.765625 2.0l4.84375 0q0 -1.328125 -0.59375 -2.03125q-0.59375 -0.703125 -1.6875 -0.703125zm12.518555 8.265625l0 -6.0q0 -1.125 -0.515625 -1.6875q-0.515625 -0.5625 -1.609375 -0.5625q-1.453125 0 -2.140625 0.796875q-0.671875 0.78125 -0.671875 2.59375l0 4.859375l-1.40625 0l0 -9.265625l1.140625 0l0.234375 1.265625l0.0625 0q0.4375 -0.6875 1.21875 -1.0625q0.78125 -0.375 1.734375 -0.375q1.671875 0 2.515625 0.8125q0.84375 0.796875 0.84375 2.578125l0 6.046875l-1.40625 0zm18.668 0l-1.640625 0l-6.75 -10.375l-0.078125 0q0.140625 1.828125 0.140625 3.34375l0 7.03125l-1.328125 0l0 -12.375l1.625 0l6.734375 10.34375l0.078125 0q-0.015625 -0.234375 -0.078125 -1.46875q-0.0625 -1.234375 -0.046875 -1.765625l0 -7.109375l1.34375 0l0 12.375zm7.1106567 0.171875q-2.0625 0 -3.25 -1.25q-1.1875 -1.25 -1.1875 -3.484375q0 -2.234375 1.109375 -3.546875q1.109375 -1.328125 2.96875 -1.328125q1.734375 0 2.75 1.140625q1.015625 1.140625 1.015625 3.03125l0 0.890625l-6.390625 0q0.046875 1.625 0.828125 2.46875q0.78125 0.84375 2.203125 0.84375q1.5 0 2.96875 -0.625l0 1.25q-0.75 0.328125 -1.421875 0.46875q-0.65625 0.140625 -1.59375 0.140625zm-0.375 -8.4375q-1.125 0 -1.796875 0.734375q-0.65625 0.71875 -0.765625 2.0l4.84375 0q0 -1.328125 -0.59375 -2.03125q-0.59375 -0.703125 -1.6875 -0.703125zm13.75296 8.265625l-1.703125 -5.4375q-0.15625 -0.5 -0.59375 -2.265625l-0.078125 0q-0.328125 1.46875 -0.59375 2.28125l-1.75 5.421875l-1.625 0l-2.53125 -9.265625l1.484375 0q0.890625 3.484375 1.359375 5.3125q0.46875 1.828125 0.546875 2.46875l0.0625 0q0.09375 -0.484375 0.296875 -1.25q0.203125 -0.765625 0.359375 -1.21875l1.703125 -5.3125l1.515625 0l1.671875 5.3125q0.46875 1.453125 0.640625 2.453125l0.0625 0q0.03125 -0.3125 0.171875 -0.9375q0.15625 -0.640625 1.78125 -6.828125l1.453125 0l-2.5625 9.265625l-1.671875 0zm11.884613 -2.53125q0 1.296875 -0.96875 2.0q-0.953125 0.703125 -2.703125 0.703125q-1.84375 0 -2.875 -0.59375l0 -1.296875q0.671875 0.34375 1.4375 0.546875q0.765625 0.1875 1.46875 0.1875q1.109375 0 1.703125 -0.34375q0.59375 -0.359375 0.59375 -1.078125q0 -0.546875 -0.484375 -0.921875q-0.46875 -0.390625 -1.828125 -0.921875q-1.296875 -0.484375 -1.84375 -0.84375q-0.53125 -0.359375 -0.8125 -0.8125q-0.265625 -0.453125 -0.265625 -1.09375q0 -1.125 0.921875 -1.78125q0.921875 -0.65625 2.53125 -0.65625q1.5 0 2.9375 0.609375l-0.5 1.140625q-1.40625 -0.578125 -2.53125 -0.578125q-1.0 0 -1.515625 0.3125q-0.5 0.3125 -0.5 0.859375q0 0.375 0.1875 0.640625q0.1875 0.265625 0.609375 0.5q0.421875 0.234375 1.625 0.6875q1.65625 0.59375 2.234375 1.203125q0.578125 0.609375 0.578125 1.53125zm3.688263 2.53125l-1.40625 0l0 -13.171875l1.40625 0l0 13.171875zm6.8984375 0.171875q-2.0625 0 -3.25 -1.25q-1.1875 -1.25 -1.1875 -3.484375q0 -2.234375 1.109375 -3.546875q1.109375 -1.328125 2.96875 -1.328125q1.734375 0 2.75 1.140625q1.015625 1.140625 1.015625 3.03125l0 0.890625l-6.390625 0q0.046875 1.625 0.828125 2.46875q0.78125 0.84375 2.203125 0.84375q1.5 0 2.96875 -0.625l0 1.25q-0.75 0.328125 -1.421875 0.46875q-0.65625 0.140625 -1.59375 0.140625zm-0.375 -8.4375q-1.125 0 -1.796875 0.734375q-0.65625 0.71875 -0.765625 2.0l4.84375 0q0 -1.328125 -0.59375 -2.03125q-0.59375 -0.703125 -1.6875 -0.703125zm9.174805 7.28125q0.375 0 0.71875 -0.046875q0.34375 -0.0625 0.546875 -0.125l0 1.078125q-0.21875 0.109375 -0.671875 0.171875q-0.4375 0.078125 -0.796875 0.078125q-2.6875 0 -2.6875 -2.84375l0 -5.515625l-1.328125 0l0 -0.671875l1.328125 -0.578125l0.59375 -1.984375l0.8125 0l0 2.15625l2.6875 0l0 1.078125l-2.6875 0l0 5.46875q0 0.828125 0.390625 1.28125q0.40625 0.453125 1.09375 0.453125zm6.1173096 0q0.375 0 0.71875 -0.046875q0.34375 -0.0625 0.546875 -0.125l0 1.078125q-0.21875 0.109375 -0.671875 0.171875q-0.4375 0.078125 -0.796875 0.078125q-2.6875 0 -2.6875 -2.84375l0 -5.515625l-1.328125 0l0 -0.671875l1.328125 -0.578125l0.59375 -1.984375l0.8125 0l0 2.15625l2.6875 0l0 1.078125l-2.6875 0l0 5.46875q0 0.828125 0.390625 1.28125q0.40625 0.453125 1.09375 0.453125zm7.0391846 1.15625q-2.0625 0 -3.25 -1.25q-1.1875 -1.25 -1.1875 -3.484375q0 -2.234375 1.109375 -3.546875q1.109375 -1.328125 2.96875 -1.328125q1.734375 0 2.75 1.140625q1.015625 1.140625 1.015625 3.03125l0 0.890625l-6.390625 0q0.046875 1.625 0.828125 2.46875q0.78125 0.84375 2.203125 0.84375q1.5 0 2.96875 -0.625l0 1.25q-0.75 0.328125 -1.421875 0.46875q-0.65625 0.140625 -1.59375 0.140625zm-0.375 -8.4375q-1.125 0 -1.796875 0.734375q-0.65625 0.71875 -0.765625 2.0l4.84375 0q0 -1.328125 -0.59375 -2.03125q-0.59375 -0.703125 -1.6875 -0.703125zm10.40918 -1.171875q0.625 0 1.109375 0.09375l-0.1875 1.3125q-0.578125 -0.140625 -1.015625 -0.140625q-1.125 0 -1.9375 0.921875q-0.796875 0.90625 -0.796875 2.28125l0 4.96875l-1.40625 0l0 -9.265625l1.15625 0l0.171875 1.703125l0.0625 0q0.515625 -0.90625 1.234375 -1.390625q0.734375 -0.484375 1.609375 -0.484375zm8.746521 9.4375l-1.40625 0l0 -13.171875l1.40625 0l0 13.171875zm4.3828125 0l-1.40625 0l0 -9.265625l1.40625 0l0 9.265625zm-1.515625 -11.78125q0 -0.484375 0.234375 -0.703125q0.234375 -0.234375 0.59375 -0.234375q0.328125 0 0.578125 0.234375q0.25 0.21875 0.25 0.703125q0 0.46875 -0.25 0.703125q-0.25 0.234375 -0.578125 0.234375q-0.359375 0 -0.59375 -0.234375q-0.234375 -0.234375 -0.234375 -0.703125zm8.4140625 11.953125q-2.0625 0 -3.25 -1.25q-1.1875 -1.25 -1.1875 -3.484375q0 -2.234375 1.109375 -3.546875q1.109375 -1.328125 2.96875 -1.328125q1.734375 0 2.75 1.140625q1.015625 1.140625 1.015625 3.03125l0 0.890625l-6.390625 0q0.046875 1.625 0.828125 2.46875q0.78125 0.84375 2.203125 0.84375q1.5 0 2.96875 -0.625l0 1.25q-0.75 0.328125 -1.421875 0.46875q-0.65625 0.140625 -1.59375 0.140625zm-0.375 -8.4375q-1.125 0 -1.796875 0.734375q-0.65625 0.71875 -0.765625 2.0l4.84375 0q0 -1.328125 -0.59375 -2.03125q-0.59375 -0.703125 -1.6875 -0.703125zm12.15918 5.734375q0 1.296875 -0.96875 2.0q-0.953125 0.703125 -2.703125 0.703125q-1.84375 0 -2.875 -0.59375l0 -1.296875q0.671875 0.34375 1.4375 0.546875q0.765625 0.1875 1.46875 0.1875q1.109375 0 1.703125 -0.34375q0.59375 -0.359375 0.59375 -1.078125q0 -0.546875 -0.484375 -0.921875q-0.46875 -0.390625 -1.828125 -0.921875q-1.296875 -0.484375 -1.84375 -0.84375q-0.53125 -0.359375 -0.8125 -0.8125q-0.265625 -0.453125 -0.265625 -1.09375q0 -1.125 0.921875 -1.78125q0.921875 -0.65625 2.53125 -0.65625q1.5 0 2.9375 0.609375l-0.5 1.140625q-1.40625 -0.578125 -2.53125 -0.578125q-1.0 0 -1.515625 0.3125q-0.5 0.3125 -0.5 0.859375q0 0.375 0.1875 0.640625q0.1875 0.265625 0.609375 0.5q0.421875 0.234375 1.625 0.6875q1.65625 0.59375 2.234375 1.203125q0.578125 0.609375 0.578125 1.53125zm5.2820435 1.546875q0.375 0 0.71875 -0.046875q0.34375 -0.0625 0.546875 -0.125l0 1.078125q-0.21875 0.109375 -0.671875 0.171875q-0.4375 0.078125 -0.796875 0.078125q-2.6875 0 -2.6875 -2.84375l0 -5.515625l-1.328125 0l0 -0.671875l1.328125 -0.578125l0.59375 -1.984375l0.8125 0l0 2.15625l2.6875 0l0 1.078125l-2.6875 0l0 5.46875q0 0.828125 0.390625 1.28125q0.40625 0.453125 1.09375 0.453125z" fill-rule="nonzero"></path></g></svg> 