<svg xmlns="http://www.w3.org/2000/svg" viewBox="0 0 979.25 556.15"><defs><style>.cls-1{fill:#fff;}</style></defs><g id="Layer_2" data-name="Layer 2"><g id="Layer_1-2" data-name="Layer 1"><path class="cls-1" d="M552.36,278.08c0,153.57-123.65,278.07-276.18,278.07S0,431.65,0,278.08,123.65,0,276.18,0,552.36,124.5,552.36,278.08"/><path class="cls-1" d="M855.33,278.08c0,144.56-61.83,261.79-138.09,261.79S579.15,422.64,579.15,278.08,641,16.29,717.23,16.29,855.32,133.48,855.32,278.08"/><path class="cls-1" d="M979.25,278.08c0,129.49-21.74,234.52-48.56,234.52s-48.56-105-48.56-234.52S903.87,43.56,930.69,43.56s48.56,105,48.56,234.52"/></g></g></svg>