<svg width="800" height="528" viewBox="0 0 800 528" fill="none" xmlns="http://www.w3.org/2000/svg">
<rect width="800" height="528" fill="#BAE8E8"/>
<path d="M611.706 417.683L605.354 417.665L598.955 417.856L592.552 417.792L586.15 417.834L579.75 417.529L573.348 417.72L566.948 417.58L560.546 417.71L554.144 417.792L547.744 417.534L541.341 417.954L534.939 417.588L528.539 417.75L522.137 417.662L515.735 417.773L509.332 417.853L502.933 417.819L496.53 417.744L490.128 417.75L483.728 417.8L477.326 417.959L470.923 417.768L464.521 417.877L458.119 417.715L451.719 417.5L445.317 417.888L438.917 417.625L432.515 417.633L426.115 417.566L419.713 417.858L413.313 417.564L406.91 417.951L400.511 417.479L394.108 417.784L387.706 417.702L381.306 417.919L374.904 417.516L368.502 417.832L362.099 417.532L355.697 417.768L349.297 417.805L342.895 417.59L336.492 417.85L330.09 417.795L323.688 417.771L317.285 417.481L310.883 417.736L304.481 417.558L298.078 417.574L291.676 417.545L285.274 417.795L278.871 417.497L272.469 417.505L266.064 417.72L259.661 417.813L253.259 417.625L246.854 417.805L240.452 417.479L233.983 417.797L234.004 411.334L234.27 404.931L233.882 398.532L234.227 392.132L234.039 385.73L234.275 379.33L234.039 372.928L234.31 366.528L234.264 360.128L233.927 353.726L234.113 347.326L233.789 340.926L234.169 334.527L234.033 328.127L233.964 321.727L233.85 315.325L234.254 308.925L234.017 302.526L234.161 296.126L234.015 289.723L234.148 283.324L233.924 276.924L233.893 270.522L234.105 264.122L234.007 257.72L234.094 251.32L234.193 244.92L234.262 238.518L233.901 232.118L234.275 225.716L234.193 219.313L234.092 212.914L234.203 206.511L234.089 200.109L233.853 193.709L234.312 187.307L233.824 180.907L233.967 174.505L234.073 168.102L234.055 161.7L234.028 155.298L234.235 148.898L233.824 142.496L234.094 136.091L234.081 129.72L240.446 129.704L246.849 129.949L253.251 129.463L259.651 129.654L266.053 129.521L272.456 129.518L278.855 129.51L285.258 129.781L291.657 129.542L298.06 129.433L304.462 129.919L310.864 129.943L317.264 129.574L323.666 129.946L330.066 129.441L336.469 129.582L342.871 129.71L349.273 129.898L355.676 129.627L362.075 129.826L368.478 129.587L374.88 129.476L381.28 129.654L387.682 129.553L394.084 129.598L400.484 129.683L406.887 129.901L413.286 129.571L419.689 129.54L426.088 129.763L432.491 129.678L438.893 129.569L445.293 129.71L451.695 129.919L458.097 129.699L464.497 129.829L470.9 129.444L477.302 129.447L483.704 129.436L490.104 129.789L496.506 129.619L502.909 129.736L509.311 129.492L515.713 129.625L522.116 129.938L528.518 129.574L534.921 129.603L541.323 129.553L547.725 129.595L554.128 129.683L560.53 129.752L566.932 129.874L573.335 129.622L579.737 129.654L586.142 129.816L592.544 129.651L598.947 129.518L605.352 129.449L611.605 129.84L611.799 136.088L611.653 142.488L611.693 148.89L612.004 155.29L611.945 161.69L611.619 168.092L611.895 174.492L611.584 180.894L611.908 187.294L611.959 193.693L611.842 200.096L611.566 206.495L611.627 212.895L611.693 219.295L611.975 225.695L611.526 232.094L611.497 238.494L611.866 244.896L611.935 251.296L611.542 257.696L611.775 264.098L611.68 270.498L611.728 276.898L611.948 283.3L611.914 289.7L611.629 296.102L611.579 302.502L611.497 308.901L611.924 315.304L611.794 321.706L611.598 328.106L611.892 334.508L611.736 340.911L611.874 347.31L611.669 353.713L611.993 360.115L611.683 366.515L611.69 372.917L611.582 379.317L611.847 385.719L611.643 392.121L611.887 398.524L611.802 404.926L611.507 411.329L611.706 417.683Z" fill="white"/>
<path d="M611.706 417.683L605.354 417.665L598.955 417.856L592.552 417.792L586.15 417.834L579.75 417.529L573.348 417.72L566.948 417.58L560.546 417.71L554.144 417.792L547.744 417.534L541.341 417.954L534.939 417.588L528.539 417.75L522.137 417.662L515.735 417.773L509.332 417.853L502.933 417.819L496.53 417.744L490.128 417.75L483.728 417.8L477.326 417.959L470.923 417.768L464.521 417.877L458.119 417.715L451.719 417.5L445.317 417.888L438.917 417.625L432.515 417.633L426.115 417.566L419.713 417.858L413.313 417.564L406.91 417.951L400.511 417.479L394.108 417.784L387.706 417.702L381.306 417.919L374.904 417.516L368.502 417.832L362.099 417.532L355.697 417.768L349.297 417.805L342.895 417.59L336.492 417.85L330.09 417.795L323.688 417.771L317.285 417.481L310.883 417.736L304.481 417.558L298.078 417.574L291.676 417.545L285.274 417.795L278.871 417.497L272.469 417.505L266.064 417.72L259.661 417.813L253.259 417.625L246.854 417.805L240.452 417.479L233.983 417.797L234.004 411.334L234.27 404.931L233.882 398.532L234.227 392.132L234.039 385.73L234.275 379.33L234.039 372.928L234.31 366.528L234.264 360.128L233.927 353.726L234.113 347.326L233.789 340.926L234.169 334.527L234.033 328.127L233.964 321.727L233.85 315.325L234.254 308.925L234.017 302.526L234.161 296.126L234.015 289.723L234.148 283.324L233.924 276.924L233.893 270.522L234.105 264.122L234.007 257.72L234.094 251.32L234.193 244.92L234.262 238.518L233.901 232.118L234.275 225.716L234.193 219.313L234.092 212.914L234.203 206.511L234.089 200.109L233.853 193.709L234.312 187.307L233.824 180.907L233.967 174.505L234.073 168.102L234.055 161.7L234.028 155.298L234.235 148.898L233.824 142.496L234.094 136.091L234.081 129.72L240.446 129.704L246.849 129.949L253.251 129.463L259.651 129.654L266.053 129.521L272.456 129.518L278.855 129.51L285.258 129.781L291.657 129.542L298.06 129.433L304.462 129.919L310.864 129.943L317.264 129.574L323.666 129.946L330.066 129.441L336.469 129.582L342.871 129.71L349.273 129.898L355.676 129.627L362.075 129.826L368.478 129.587L374.88 129.476L381.28 129.654L387.682 129.553L394.084 129.598L400.484 129.683L406.887 129.901L413.286 129.571L419.689 129.54L426.088 129.763L432.491 129.678L438.893 129.569L445.293 129.71L451.695 129.919L458.097 129.699L464.497 129.829L470.9 129.444L477.302 129.447L483.704 129.436L490.104 129.789L496.506 129.619L502.909 129.736L509.311 129.492L515.713 129.625L522.116 129.938L528.518 129.574L534.921 129.603L541.323 129.553L547.725 129.595L554.128 129.683L560.53 129.752L566.932 129.874L573.335 129.622L579.737 129.654L586.142 129.816L592.544 129.651L598.947 129.518L605.352 129.449L611.605 129.84L611.799 136.088L611.653 142.488L611.693 148.89L612.004 155.29L611.945 161.69L611.619 168.092L611.895 174.492L611.584 180.894L611.908 187.294L611.959 193.693L611.842 200.096L611.566 206.495L611.627 212.895L611.693 219.295L611.975 225.695L611.526 232.094L611.497 238.494L611.866 244.896L611.935 251.296L611.542 257.696L611.775 264.098L611.68 270.498L611.728 276.898L611.948 283.3L611.914 289.7L611.629 296.102L611.579 302.502L611.497 308.901L611.924 315.304L611.794 321.706L611.598 328.106L611.892 334.508L611.736 340.911L611.874 347.31L611.669 353.713L611.993 360.115L611.683 366.515L611.69 372.917L611.582 379.317L611.847 385.719L611.643 392.121L611.887 398.524L611.802 404.926L611.507 411.329L611.706 417.683Z" stroke="#392396" stroke-width="1.5" stroke-miterlimit="10"/>
<path d="M234.039 392.794L239.355 389.27L244.589 385.629L249.871 382.055L255.028 378.292L260.466 374.957L265.878 371.582L271.277 368.185L276.588 364.651L282.042 361.345L287.438 357.935L293.054 354.905L298.434 351.464L304.006 348.357L309.702 345.467L315.268 342.358L320.873 339.317L326.503 336.322L332.148 333.359L337.754 330.313L343.41 327.362L349.151 324.58L354.943 321.903L360.559 318.862L366.343 316.175L372.252 313.75L378.009 311.002L383.933 308.628L389.743 305.991L395.556 303.36L401.494 301.023L407.309 298.388L413.377 296.386L419.169 293.68L425.289 291.827L431.134 289.243L437.239 287.366L443.291 285.353L449.234 283.019L455.371 281.258L461.383 279.112L467.565 277.516L473.625 275.517L479.682 273.485L485.938 272.168L492 270.145L498.201 268.631L504.42 267.202L510.708 266.077L516.922 264.637L523.131 263.166L529.392 261.937L535.702 260.986L541.923 259.518L548.249 258.673L554.526 257.497L560.865 256.74L567.228 256.203L573.572 255.532L579.907 254.791L586.275 254.392L592.63 253.811L598.995 253.37L605.376 253.235L611.752 252.982" stroke="#392396" stroke-width="1.5" stroke-miterlimit="10"/>
<path d="M420.977 129.636L424.277 135.071L426.957 140.842L429.79 146.519L432.539 152.242L435.46 157.895L437.969 163.735L440.101 169.725L442.311 175.679L444.698 181.564L447.075 187.456L449.172 193.452L451.276 199.446L452.996 205.566L454.996 211.594L456.669 217.723L458.528 223.794L460.657 229.787L462.362 235.908L463.971 242.053L465.374 248.251L467.256 254.326L468.765 260.498L470.156 266.696L471.481 272.907L473.024 279.067L474.333 285.284L475.807 291.463L476.766 297.749L478.165 303.947L479.299 310.198L480.751 316.388L481.67 322.676L483.006 328.89L483.837 335.194L484.804 341.469L486.15 347.688L487.008 353.984L487.727 360.296L488.713 366.571L489.594 372.862L490.635 379.131L491.652 385.406L492.085 391.755L493.195 398.02L493.912 404.332L494.39 410.673L495.317 416.964" stroke="#392396" stroke-width="1.5" stroke-miterlimit="10"/>
<path d="M233.961 196.317L239.277 199.926L244.123 204.143L249.222 208.049L253.959 212.385L258.795 216.605L263.575 220.891L267.972 225.58L272.792 229.829L277.253 234.447L281.568 239.2L285.83 243.999L290.467 248.455L294.461 253.489L298.879 258.155L302.887 263.169L306.798 268.257L310.834 273.246L314.735 278.342L318.62 283.454L322.388 288.653L325.888 294.036L329.561 299.302L332.681 304.924L336.162 310.314L339.633 315.721L342.368 321.547L345.56 327.113L348.428 332.854L351.572 338.457L354.161 344.334L356.57 350.284L359.055 356.198L361.663 362.067L363.992 368.052L365.768 374.229L367.933 380.273L369.56 386.484L371.199 392.684L373.121 398.821L374.359 405.123L375.546 411.43L376.802 417.726" stroke="#392396" stroke-width="1.5" stroke-miterlimit="10"/>
<path d="M247.688 417.707L250.423 411.993L252.967 406.201L255.548 400.423L258.089 394.615L261.35 389.174L264.183 383.51L267.452 378.087L270.461 372.516L273.43 366.916L276.794 361.549L280.273 356.259L283.621 350.885L287.344 345.757L290.839 340.481L294.453 335.284L298.173 330.167L301.798 324.975L305.614 319.924L309.345 314.807L313.443 309.977L317.495 305.115L321.165 299.937L325.249 295.096L329.628 290.512L333.977 285.91L337.923 280.942L342.254 276.321L346.854 271.961L351.209 267.367L355.845 263.052L360.28 258.535L364.946 254.257L369.436 249.791L373.993 245.388L379.03 241.529L383.677 237.225L388.447 233.061L393.391 229.102L398.482 225.334L403.19 221.074L408.225 217.232L413.397 213.575L418.493 209.815L423.762 206.299L428.985 202.725L434.232 199.182L439.533 195.722L445.006 192.53L450.383 189.195L455.638 185.653L461.159 182.548L466.603 179.309L472.325 176.576L477.711 173.22L483.385 170.405L489.01 167.495L494.658 164.629L500.372 161.894L506.294 159.618L512.009 156.889L517.734 154.172L523.581 151.74L529.463 149.392L535.342 147.026L541.312 144.907L547.305 142.862L553.227 140.608L559.242 138.624L565.384 137.036L571.356 134.922L577.371 132.923L583.476 131.234L589.612 129.662" stroke="#392396" stroke-width="1.5" stroke-miterlimit="10"/>
<path d="M391.654 308.912L385.302 309.156L378.945 308.708L372.588 309.164L366.231 308.915L359.871 309.122L353.516 308.944L347.156 308.995L340.799 308.957L334.442 308.724L328.085 309.037L321.725 309.17L315.367 309.008L309.01 308.777L302.65 308.71L296.293 309.074L289.936 309.125L283.576 308.894L277.216 309.095L270.859 309.18L264.499 308.941L258.142 309.045L251.782 308.91L245.425 309.095L239.068 308.774L232.708 309.162L226.35 309.032L219.991 309.178L213.631 308.774L207.271 308.888L200.911 308.729L194.551 308.984L188.074 309.037L188.239 302.659L188.194 296.4L188.321 290.143L188.143 283.882L188.337 277.623L188.332 271.364L188.088 265.107L188.133 258.846L188.406 252.587L188.05 246.328L188.005 240.069L188.271 233.81L188.358 227.551L188.194 221.289L188.085 215.03L188.329 208.771L188.077 202.512L188.064 196.253L188.377 189.994L188 183.733L188.414 177.474L188.037 171.212L188.401 164.953L188.167 158.692L188.212 152.451L194.548 152.621L200.906 152.401L207.263 152.462L213.62 152.186L219.977 152.576L226.335 152.22L232.694 152.292L239.052 152.666L245.409 152.377L251.766 152.534L258.126 152.504L264.483 152.241L270.84 152.196L277.198 152.443L283.557 152.536L289.915 152.563L296.275 152.276L302.632 152.478L308.992 152.438L315.349 152.348L321.709 152.441L328.066 152.342L334.426 152.589L340.783 152.685L347.143 152.645L353.5 152.311L359.86 152.441L366.22 152.666L372.58 152.241L378.94 152.249L385.3 152.608L391.561 152.531L391.904 158.689L391.466 164.945L391.755 171.204L391.744 177.466L391.463 183.725L391.487 189.981L391.521 196.24V202.499L391.851 208.758L391.864 215.02L391.713 221.279L391.516 227.538L391.79 233.797L391.405 240.058L391.45 246.317L391.771 252.576L391.84 258.835L391.397 265.094L391.41 271.353L391.92 277.615L391.593 283.874L391.614 290.135L391.407 296.394L391.657 302.656L391.654 308.912Z" fill="#392396"/>
<path d="M391.654 308.912L385.302 309.156L378.945 308.708L372.588 309.164L366.231 308.915L359.871 309.122L353.516 308.944L347.156 308.995L340.799 308.957L334.442 308.724L328.085 309.037L321.725 309.17L315.367 309.008L309.01 308.777L302.65 308.71L296.293 309.074L289.936 309.125L283.576 308.894L277.216 309.095L270.859 309.18L264.499 308.941L258.142 309.045L251.782 308.91L245.425 309.095L239.068 308.774L232.708 309.162L226.35 309.032L219.991 309.178L213.631 308.774L207.271 308.888L200.911 308.729L194.551 308.984L188.074 309.037L188.239 302.659L188.194 296.4L188.321 290.143L188.143 283.882L188.337 277.623L188.332 271.364L188.088 265.107L188.133 258.846L188.406 252.587L188.05 246.328L188.005 240.069L188.271 233.81L188.358 227.551L188.194 221.289L188.085 215.03L188.329 208.771L188.077 202.512L188.064 196.253L188.377 189.994L188 183.733L188.414 177.474L188.037 171.212L188.401 164.953L188.167 158.692L188.212 152.451L194.548 152.621L200.906 152.401L207.263 152.462L213.62 152.186L219.977 152.576L226.335 152.22L232.694 152.292L239.052 152.666L245.409 152.377L251.766 152.534L258.126 152.504L264.483 152.241L270.84 152.196L277.198 152.443L283.557 152.536L289.915 152.563L296.275 152.276L302.632 152.478L308.992 152.438L315.349 152.348L321.709 152.441L328.066 152.342L334.426 152.589L340.783 152.685L347.143 152.645L353.5 152.311L359.86 152.441L366.22 152.666L372.58 152.241L378.94 152.249L385.3 152.608L391.561 152.531L391.904 158.689L391.466 164.945L391.755 171.204L391.744 177.466L391.463 183.725L391.487 189.981L391.521 196.24V202.499L391.851 208.758L391.864 215.02L391.713 221.279L391.516 227.538L391.79 233.797L391.405 240.058L391.45 246.317L391.771 252.576L391.84 258.835L391.397 265.094L391.41 271.353L391.92 277.615L391.593 283.874L391.614 290.135L391.407 296.394L391.657 302.656L391.654 308.912Z" stroke="#392396" stroke-width="1.5" stroke-miterlimit="10"/>
<path d="M356.047 162.5L360.633 167.344L365.575 171.837L370.286 176.558L374.946 181.333L379.463 186.251" stroke="white" stroke-width="1.5" stroke-miterlimit="10"/>
<path d="M355.883 185.964L360.575 181.226L365.413 176.632L370.066 171.853L374.856 167.205L379.583 162.5" stroke="white" stroke-width="1.5" stroke-miterlimit="10"/>
<path d="M369.122 230.583L364.56 235.222L359.814 239.683L354.782 243.821L349.769 247.984L344.535 251.875L338.894 255.16L333.416 258.699L327.675 261.812L321.655 264.337L315.563 266.679L309.267 268.392L302.862 269.582L296.439 270.662L289.925 271.143L283.392 270.875L276.955 269.767L270.582 268.395L264.342 266.517L258.274 264.146L252.238 261.676L246.489 258.596L240.753 255.486L235.347 251.83L230.142 247.902L224.868 244.062L219.95 239.776L215.197 235.315L210.605 230.684L215.141 225.992L219.9 221.531L224.956 217.412L229.937 213.192L235.413 209.634L240.801 205.961L246.446 202.693L252.227 199.671L258.197 197.042L264.251 194.588L270.564 192.902L276.905 191.317L283.427 190.873L289.925 190.52L296.452 190.557L302.926 191.42L309.27 192.963L315.598 194.583L321.551 197.278L327.694 199.517L333.382 202.727L339.125 205.837L344.5 209.538L349.838 213.293L354.952 217.34L359.766 221.74L364.764 225.936L369.122 230.583Z" fill="white"/>
<path d="M369.122 230.583L364.56 235.222L359.814 239.683L354.782 243.821L349.769 247.984L344.535 251.875L338.894 255.16L333.416 258.699L327.675 261.812L321.655 264.337L315.563 266.679L309.267 268.392L302.862 269.582L296.439 270.662L289.925 271.143L283.392 270.875L276.955 269.767L270.582 268.395L264.342 266.517L258.274 264.146L252.238 261.676L246.489 258.596L240.753 255.486L235.347 251.83L230.142 247.902L224.868 244.062L219.95 239.776L215.197 235.315L210.605 230.684L215.141 225.992L219.9 221.531L224.956 217.412L229.937 213.192L235.413 209.634L240.801 205.961L246.446 202.693L252.227 199.671L258.197 197.042L264.251 194.588L270.564 192.902L276.905 191.317L283.427 190.873L289.925 190.52L296.452 190.557L302.926 191.42L309.27 192.963L315.598 194.583L321.551 197.278L327.694 199.517L333.382 202.727L339.125 205.837L344.5 209.538L349.838 213.293L354.952 217.34L359.766 221.74L364.764 225.936L369.122 230.583Z" stroke="#392396" stroke-width="1.5" stroke-miterlimit="10"/>
<path d="M328.751 224.845L328.289 231.128L326.194 237.05L323.955 242.913L320.195 247.948L315.691 252.29L310.72 256.124L304.915 258.511L298.903 260.235L292.663 260.527L286.428 260.206L280.283 258.859L274.802 255.782L269.412 252.555L265.335 247.773L261.759 242.687L258.707 237.204L257.17 231.104L256.602 224.845L256.995 218.823L258.606 213.007L261.217 207.595L264.576 202.637L268.634 198.235L273.435 194.66L278.732 191.896L285.599 190.778L292.663 191.163L299.158 191.068L305.614 191.777L311.466 194.488L316.509 197.874L320.822 202.191L324.117 207.33L326.685 212.858L328.069 218.791L328.751 224.845Z" fill="#FFD803"/>
<path d="M326.01 223.318L325.551 229.598L323.455 235.52L321.217 241.384L317.459 246.421L312.953 250.76L307.982 254.597L302.177 256.984L296.165 258.708L289.925 259L283.69 258.679L277.545 257.33L272.064 254.255L266.673 251.026L262.597 246.246L259.02 241.158L255.969 235.677L254.432 229.575L253.863 223.318L254.301 217.035L256.043 210.986L258.864 205.383L262.496 200.301L266.878 195.85L272.029 192.321L277.688 189.7L283.703 188.04L289.925 187.61L296.16 187.955L302.249 189.458L307.78 192.39L313.065 195.738L317.608 200.088L321.103 205.317L323.822 210.981L325.298 217.081L326.01 223.318Z" stroke="#392396" stroke-width="1.5" stroke-miterlimit="10"/>
<path d="M305.218 223.318L304.124 229.198L300.472 233.866L295.639 237.116L289.925 238.76L284.139 237.286L279.221 234.02L276.127 229.033L274.746 223.318L275.758 217.45L279.045 212.439L284.059 209.159L289.925 208.331L295.73 209.305L300.738 212.503L303.893 217.532L305.218 223.318Z" fill="#392396"/>
<path d="M305.218 223.318L304.124 229.198L300.472 233.866L295.639 237.116L289.925 238.76L284.139 237.286L279.221 234.02L276.127 229.033L274.746 223.318L275.758 217.45L279.045 212.439L284.059 209.159L289.925 208.331L295.73 209.305L300.738 212.503L303.893 217.532L305.218 223.318Z" stroke="#392396" stroke-width="1.5" stroke-miterlimit="10"/>
<path d="M570.242 230.6L563.951 230.565L557.578 230.751L551.205 230.945L544.831 230.581L538.458 230.926L532.085 230.902L525.712 230.666L519.339 230.908L512.966 230.857L506.59 230.448L500.217 230.939L493.843 230.73L487.468 230.809L481.092 230.586L474.567 230.833L474.604 224.261L474.788 217.837L474.652 211.411L474.482 204.987L474.586 198.561L474.453 192.138L474.504 185.714L474.474 179.288L474.697 172.864L474.859 166.438L474.825 160.014L474.729 153.591L474.543 147.164L474.668 140.741L474.727 134.314L474.87 127.888L474.759 121.462L474.923 115.038L474.607 108.612L474.567 102.034L481.092 102.05L487.465 102L493.838 102.085L500.211 102.119L506.584 102.226L512.958 102.175L519.331 102.404L525.704 102.39L532.077 102.172L538.45 102.414L544.826 102.09L551.199 102.446L557.575 102.374L563.948 102.218L570.446 102.064L570.422 108.609L570.09 115.033L570.218 121.457L570.343 127.88L570.401 134.306L570.526 140.73L570.106 147.156L570.393 153.58L570.579 160.006L570.414 166.43L570.106 172.853L570.189 179.28L570.59 185.703L570.266 192.127L570.481 198.553L570.239 204.979L570.305 211.406L570.114 217.829L570.3 224.258L570.242 230.6Z" fill="#FFD803"/>
<path d="M570.242 230.6L563.951 230.565L557.578 230.751L551.205 230.945L544.831 230.581L538.458 230.926L532.085 230.902L525.712 230.666L519.339 230.908L512.966 230.857L506.59 230.448L500.217 230.939L493.843 230.73L487.468 230.809L481.092 230.586L474.567 230.833L474.604 224.261L474.788 217.837L474.652 211.411L474.482 204.987L474.586 198.561L474.453 192.138L474.504 185.714L474.474 179.288L474.697 172.864L474.859 166.438L474.825 160.014L474.729 153.591L474.543 147.164L474.668 140.741L474.727 134.314L474.87 127.888L474.759 121.462L474.923 115.038L474.607 108.612L474.567 102.034L481.092 102.05L487.465 102L493.838 102.085L500.211 102.119L506.584 102.226L512.958 102.175L519.331 102.404L525.704 102.39L532.077 102.172L538.45 102.414L544.826 102.09L551.199 102.446L557.575 102.374L563.948 102.218L570.446 102.064L570.422 108.609L570.09 115.033L570.218 121.457L570.343 127.88L570.401 134.306L570.526 140.73L570.106 147.156L570.393 153.58L570.579 160.006L570.414 166.43L570.106 172.853L570.189 179.28L570.59 185.703L570.266 192.127L570.481 198.553L570.239 204.979L570.305 211.406L570.114 217.829L570.3 224.258L570.242 230.6Z" stroke="#392396" stroke-width="1.5" stroke-miterlimit="10"/>
<path d="M488.539 144.612L494.647 144.647L500.757 145.066L506.867 144.966L512.978 144.758L519.088 144.634L525.198 144.78L531.308 144.665L537.419 145.101L543.532 144.857L549.642 144.703L555.755 144.657" stroke="#392396" stroke-width="1.5" stroke-miterlimit="10"/>
<path d="M488.539 131.226L494.647 131.263L500.757 131.68L506.867 131.581L512.978 131.374L519.088 131.25L525.198 131.393L531.308 131.281L537.419 131.714L543.532 131.47L549.642 131.319L555.755 131.273" stroke="#392396" stroke-width="1.5" stroke-miterlimit="10"/>
<path d="M488.539 117.842L494.647 117.879L500.757 118.296L506.867 118.195L512.978 117.988L519.088 117.863L525.198 118.009L531.308 117.898L537.419 118.331L543.532 118.086L549.642 117.935L555.755 117.887" stroke="#392396" stroke-width="1.5" stroke-miterlimit="10"/>
<path d="M488.539 157.996L494.647 158.033L500.757 158.45L506.867 158.349L512.978 158.145L519.088 158.02L525.198 158.163L531.308 158.052L537.419 158.484L543.532 158.24L549.642 158.089L555.755 158.044" stroke="#392396" stroke-width="1.5" stroke-miterlimit="10"/>
<path d="M488.539 171.38L494.647 171.417L500.757 171.834L506.867 171.735L512.978 171.528L519.088 171.403L525.198 171.547L531.308 171.435L537.419 171.868L543.532 171.624L549.642 171.473L555.755 171.427" stroke="#392396" stroke-width="1.5" stroke-miterlimit="10"/>
<path d="M488.539 184.766L494.647 184.803L500.757 185.22L506.867 185.119L512.978 184.912L519.088 184.787L525.198 184.933L531.308 184.819L537.419 185.255L543.532 185.01L549.642 184.856L555.755 184.811" stroke="#392396" stroke-width="1.5" stroke-miterlimit="10"/>
<path d="M488.539 198.15L494.647 198.187L500.757 198.604L506.867 198.503L512.978 198.298L519.088 198.173L525.198 198.317L531.308 198.205L537.419 198.638L543.532 198.394L549.642 198.242L555.755 198.197" stroke="#392396" stroke-width="1.5" stroke-miterlimit="10"/>
<path d="M488.539 211.535L494.963 211.57L501.389 211.987L507.815 211.889L514.242 211.682L520.668 211.557L527.094 211.703L533.523 211.589" stroke="#392396" stroke-width="1.5" stroke-miterlimit="10"/>
</svg>
