<svg xmlns="http://www.w3.org/2000/svg" viewBox="0 0 397.07 328.23"><g id="Layer_2" data-name="Layer 2"><g id="Layer_1-2" data-name="Layer 1"><path d="M24.42,143,260.89,45.52C284.23,35.37,363.4,2.9,363.4,2.9s36.53-14.21,33.49,20.3c-1,14.2-9.13,63.93-17.25,117.72L354.26,300.25s-2,23.34-19.31,27.4-45.67-14.2-50.74-18.26c-4.06-3-76.12-48.72-102.51-71-7.1-6.08-15.22-18.26,1-32.47,36.54-33.49,80.18-75.1,106.56-101.49,12.18-12.18,24.36-40.59-26.38-6.09l-143.1,96.42s-16.24,10.15-46.69,1-66-21.31-66-21.31S-17.27,159.23,24.34,143Z"/></g></g></svg>